<svg xmlns="http://www.w3.org/2000/svg" width="107.819" height="107.819"><defs><clipPath id="a"><path d="M0 80.864h80.864V0H0z"/></clipPath></defs><g clip-path="url(#a)" transform="matrix(1.33333 0 0 -1.33333 0 107.82)"><path d="M78.614 40.433c0-21.088-17.095-38.183-38.182-38.183C19.344 2.25 2.25 19.345 2.25 40.433c0 21.087 17.094 38.182 38.182 38.182 21.087 0 38.182-17.095 38.182-38.182z" fill="none" stroke="#000" stroke-width="4.5" stroke-miterlimit="10"/><path d="M59.37 46.188c0-10.46-8.478-18.938-18.937-18.938-10.46 0-18.94 8.478-18.94 18.938 0 10.46 8.48 18.938 18.94 18.938 10.459 0 18.938-8.479 18.938-18.938zM25.387 34.246C17.991 30 12.983 22.717 12.564 14.364M68.3 14.364c-.424 8.452-5.548 15.811-13.089 20.032" fill="none" stroke="#000" stroke-width="4.5" stroke-miterlimit="10"/></g></svg>