<?xml version="1.0" encoding="utf-8"?>
<!-- Generator: Adobe Illustrator 22.0.0, SVG Export Plug-In . SVG Version: 6.00 Build 0)  -->
<svg version="1.1" id="Layer_1" xmlns="http://www.w3.org/2000/svg" xmlns:xlink="http://www.w3.org/1999/xlink" x="0px" y="0px"
	 viewBox="0 0 47.5 63.7" style="enable-background:new 0 0 47.5 63.7;" xml:space="preserve">
<style type="text/css">
	.st0{fill:#262626;stroke:#262626;stroke-width:2;stroke-miterlimit:10;}
</style>
<path class="st0" d="M34,18.6v-0.7v-0.7v-0.7v-0.7v-0.7v-0.7v-0.7V13c0-0.7-0.1-1.4-0.2-2c-0.1-0.7-0.3-1.3-0.6-1.9
	c-0.3-0.6-0.6-1.2-0.9-1.7c-0.4-0.5-0.8-1-1.2-1.5c-0.5-0.5-1-0.9-1.5-1.2C29,4.3,28.5,4,27.9,3.7c-0.6-0.3-1.2-0.5-1.9-0.6
	c-0.7-0.1-1.3-0.2-2-0.2c-0.7,0-1.4,0.1-2,0.2S20.6,3.5,20,3.7c-0.6,0.3-1.2,0.6-1.7,0.9c-0.5,0.4-1,0.8-1.5,1.2s-0.9,1-1.2,1.5
	c-0.4,0.5-0.7,1.1-0.9,1.7c-0.3,0.6-0.5,1.2-0.6,1.9c-0.1,0.7-0.2,1.3-0.2,2v0.7v0.7v0.7v0.7v0.7v0.7v0.7v0.7h-1.4h-1.4H9.7H8.3H6.9
	H5.5H4.2H2.8V24v5.4v5.4v5.4v5.4V51v5.4v5.4h5.3h5.3h5.3h5.3h5.3h5.3h5.3h5.3v-5.4V51v-5.4v-5.4v-5.4v-5.4V24v-5.4h-1.4h-1.4h-1.4
	h-1.4h-1.4h-1.4h-1.4H34z M15.6,13c0-0.6,0.1-1.1,0.2-1.7c0.1-0.5,0.3-1.1,0.5-1.6c0.2-0.5,0.5-1,0.8-1.4c0.3-0.4,0.6-0.9,1-1.2
	c0.4-0.4,0.8-0.7,1.2-1c0.4-0.3,0.9-0.6,1.4-0.8c0.5-0.2,1-0.4,1.6-0.5c0.5-0.1,1.1-0.2,1.7-0.2c0.6,0,1.1,0.1,1.7,0.2
	c0.5,0.1,1.1,0.3,1.6,0.5c0.5,0.2,1,0.5,1.4,0.8c0.4,0.3,0.9,0.6,1.2,1c0.4,0.4,0.7,0.8,1,1.2c0.3,0.4,0.6,0.9,0.8,1.4
	c0.2,0.5,0.4,1,0.5,1.6c0.1,0.5,0.2,1.1,0.2,1.7v0.7v0.7v0.7v0.7v0.7v0.7v0.7v0.7h-2.1h-2.1H26h-2.1h-2.1h-2.1h-2.1h-2.1v-0.7v-0.7
	v-0.7v-0.7v-0.7v-0.7v-0.7V13z M43.2,59.9h-4.8h-4.8h-4.8h-4.8h-4.8h-4.8H9.4H4.6V55V50v-4.9v-4.9v-4.9v-4.9v-4.9v-4.9h1.1h1.1h1.1
	h1.1h1.1h1.1h1.1h1.1V21v0.6v0.6v0.6v0.6v0.6v0.6V25H14h0.2h0.2h0.2H15h0.2h0.2h0.2v-0.6v-0.6v-0.6v-0.6v-0.6v-0.6V21v-0.6h2.1h2.1
	h2.1h2.1H26h2.1h2.1h2.1V21v0.6v0.6v0.6v0.6v0.6v0.6V25h0.2h0.2h0.2h0.2h0.2h0.2h0.2H34v-0.6v-0.6v-0.6v-0.6v-0.6v-0.6V21v-0.6h1.1
	h1.1h1.1h1.1h1.1h1.1h1.1h1.1v4.9v4.9v4.9v4.9v4.9V50V55V59.9z"/>
</svg>
