<?xml version="1.0" standalone="no"?>
<!DOCTYPE svg PUBLIC "-//W3C//DTD SVG 1.1//EN" "http://www.w3.org/Graphics/SVG/1.1/DTD/svg11.dtd" >
<svg xmlns="http://www.w3.org/2000/svg" xmlns:xlink="http://www.w3.org/1999/xlink" version="1.1">
<metadata>
Created by FontForge 20161013 at Thu Jan  8 20:47:55 2015
 By ,,,
Copyright (c) 2015 by S-Core Co., Ltd.. All rights reserved.
</metadata>
<defs>
<font id="CoreSansE-15ThinIt" horiz-adv-x="360" >
  <font-face 
    font-family="Core Sans E 15 Thin"
    font-weight="300"
    font-style="italic"
    font-stretch="normal"
    units-per-em="1000"
    panose-1="2 11 4 3 3 3 2 2 2 4"
    ascent="800"
    descent="-200"
    x-height="500"
    cap-height="700"
    bbox="-421 -238 1060.13 1009"
    underline-thickness="24"
    underline-position="-255"
    slope="-11"
    unicode-range="U+0008-FB04"
  />
<missing-glyph horiz-adv-x="420" 
d="M400 0h-360v750h360v-750zM115 65h210v620h-210v-620z" />
    <glyph glyph-name="f_f" unicode="ff" horiz-adv-x="588" 
d="M384 689h-42q-78 0 -106 -25t-43 -103l-12 -61h253l14 75q15 75 50 103.5t111 28.5q28 0 42 -1l-4 -17h-43q-67 0 -95 -24.5t-42 -93.5l-13 -71h157l-4 -18h-157l-93 -482h-20l93 482h-253l-93 -482h-20l93 482h-78l4 18h78l12 65q17 85 51.5 113.5t122.5 28.5
q29 0 41 -1z" />
    <glyph glyph-name="f_i" unicode="fi" horiz-adv-x="484" 
d="M374 689h-43q-67 0 -95 -24.5t-42 -93.5l-13 -71h157l-4 -18h-157l-93 -482h-20l93 482h-78l4 18h78l14 75q15 75 50 103.5t111 28.5q28 0 42 -1zM357 0h-20l97 500h20zM477 620h-20l16 80h20z" />
    <glyph glyph-name="f_l" unicode="fl" horiz-adv-x="484" 
d="M374 689h-43q-67 0 -95 -24.5t-42 -93.5l-13 -71h157l-4 -18h-157l-93 -482h-20l93 482h-78l4 18h78l14 75q15 75 50 103.5t111 28.5q28 0 42 -1zM357 0h-20l136 700h20z" />
    <glyph glyph-name="f_f_i" unicode="ffi" horiz-adv-x="757" 
d="M630 0h-20l97 500h20zM750 620h-20l16 80h20zM384 689h-42q-78 0 -106 -25t-43 -103l-12 -61h253l14 75q15 75 50 103.5t111 28.5q28 0 42 -1l-4 -17h-43q-67 0 -95 -24.5t-42 -93.5l-13 -71h157l-4 -18h-157l-93 -482h-20l93 482h-253l-93 -482h-20l93 482h-78l4 18h78
l12 65q17 85 51.5 113.5t122.5 28.5q29 0 41 -1z" />
    <glyph glyph-name="f_f_l" unicode="ffl" horiz-adv-x="757" 
d="M384 689h-42q-78 0 -106 -25t-43 -103l-12 -61h253l14 75q15 75 50 103.5t111 28.5q28 0 42 -1l-4 -17h-43q-67 0 -95 -24.5t-42 -93.5l-13 -71h157l-4 -18h-157l-93 -482h-20l93 482h-253l-93 -482h-20l93 482h-78l4 18h78l12 65q17 85 51.5 113.5t122.5 28.5
q29 0 41 -1zM630 0h-20l136 700h20z" />
    <glyph glyph-name=".notdef" horiz-adv-x="420" 
d="M400 0h-360v750h360v-750zM115 65h210v620h-210v-620z" />
    <glyph glyph-name=".null" horiz-adv-x="0" 
 />
    <glyph glyph-name=".null" horiz-adv-x="0" 
 />
    <glyph glyph-name=".null" horiz-adv-x="0" 
 />
    <glyph glyph-name="nonmarkingreturn" horiz-adv-x="333" 
 />
    <glyph glyph-name="CR" unicode="&#x9;" horiz-adv-x="237" 
 />
    <glyph glyph-name="CR" unicode="&#xd;" horiz-adv-x="237" 
 />
    <glyph glyph-name="space" unicode=" " horiz-adv-x="260" 
 />
    <glyph glyph-name="exclam" unicode="!" horiz-adv-x="264" 
d="M230 700l-97 -488h-20l93 488h24zM111 80l-15 -80h-28l15 80h28z" />
    <glyph glyph-name="quotedbl" unicode="&#x22;" horiz-adv-x="321" 
d="M163 500h-20l39 200h20zM272 500h-20l39 200h20z" />
    <glyph glyph-name="numbersign" unicode="#" horiz-adv-x="640" 
d="M590 700h21l-91 -221h123l-4 -18h-127l-91 -222h141l-4 -18h-145l-90 -221h-21l90 221h-216l-90 -221h-21l90 221h-123l4 18h127l91 222h-141l4 18h145l91 221h21l-91 -221h216zM275 461l-91 -222h216l91 222h-216z" />
    <glyph glyph-name="dollar" unicode="$" horiz-adv-x="560" 
d="M387 787l-14 -75q93 -4 136 -53.5t28 -123.5l-3 -20h-20l3 20q14 68 -25.5 111.5t-122.5 47.5l-63 -324l34 -7q182 -38 154 -188q-16 -80 -85.5 -133.5t-176.5 -53.5l-14 -75h-20l14 76q-97 5 -140 57.5t-28 128.5l4 25h20l-4 -25q-14 -69 26 -116t126 -53l68 349l-39 8
q-159 32 -132 172q15 76 79 125.5t161 51.5l14 75h20zM236 6q95 0 159 48t79 121q26 135 -142 170l-29 6zM133 535q-23 -125 121 -154l33 -7l62 320q-87 -2 -144.5 -45.5t-71.5 -113.5z" />
    <glyph glyph-name="percent" unicode="%" horiz-adv-x="766" 
d="M179 0l423 700h21l-423 -700h-21zM381 523q-36 -189 -169 -189q-131 0 -95 189t169 189q131 0 95 -189zM361 523q33 171 -79 171t-145 -171t79 -171t145 171zM420 177q36 189 169 189q131 0 95 -189t-169 -189q-131 0 -95 189zM440 177q-33 -171 79 -171t145 171t-79 171
t-145 -171z" />
    <glyph glyph-name="ampersand" unicode="&#x26;" horiz-adv-x="626" 
d="M478 537l4 19q12 67 -20 102.5t-100 35.5t-114 -35.5t-58 -102.5q-8 -39 2 -72t49 -80l229 -275q63 88 92 218h20q-32 -143 -100 -232l96 -115h-28l-82 98q-96 -110 -246 -110q-99 0 -146.5 53t-30.5 143q27 136 172 216q-37 45 -47 81.5t0 74.5q14 74 66.5 115t129.5 41
t113.5 -41t22.5 -115l-4 -19h-20zM226 7q140 0 230 105l-228 275q-138 -76 -163 -203q-16 -81 28.5 -129t132.5 -48z" />
    <glyph glyph-name="quotesingle" unicode="'" horiz-adv-x="212" 
d="M163 500h-20l39 200h20z" />
    <glyph glyph-name="parenleft" unicode="(" horiz-adv-x="309" 
d="M113 346q37 192 76 290t83.5 130.5t117.5 32.5l-4 -18q-66 0 -106 -31.5t-76 -125.5t-71 -278q-36 -184 -37 -278t27 -125.5t94 -31.5l-3 -18q-73 0 -105 32.5t-32.5 130.5t36.5 290z" />
    <glyph glyph-name="parenright" unicode=")" horiz-adv-x="309" 
d="M230 346q-37 -192 -76 -290t-83.5 -130.5t-117.5 -32.5l3 18q66 0 106.5 31.5t76 125.5t71.5 278q35 184 36 278t-27 125.5t-94 31.5l4 18q73 0 105 -32.5t32.5 -130.5t-36.5 -290z" />
    <glyph glyph-name="asterisk" unicode="*" horiz-adv-x="450" 
d="M225 344v188h20v-188l163 94l10 -18l-163 -94l163 -94l-10 -18l-163 94v-188h-20v188l-163 -94l-10 18l162 94l-162 94l10 18z" />
    <glyph glyph-name="plus" unicode="+" horiz-adv-x="520" 
d="M70 317v18h190v197h20v-197h190v-18h-190v-197h-20v197h-190z" />
    <glyph glyph-name="comma" unicode="," horiz-adv-x="272" 
d="M10 -115l5 27q22 10 35.5 28t20.5 55l16 85h28l-16 -84q-19 -90 -89 -111z" />
    <glyph glyph-name="hyphen" unicode="-" horiz-adv-x="392" 
d="M71 316l4 20h272l-4 -20h-272z" />
    <glyph glyph-name="period" unicode="." horiz-adv-x="272" 
d="M115 80l-15 -80h-28l15 80h28z" />
    <glyph glyph-name="slash" unicode="/" horiz-adv-x="342" 
d="M444 783l-491 -876h-21l490 876h22z" />
    <glyph glyph-name="zero" unicode="0" horiz-adv-x="544" 
d="M505 350q-24 -121 -50.5 -187.5t-67.5 -107.5q-65 -67 -168 -67q-101 0 -142 67q-24 41 -25 106.5t23 188.5q23 121 49.5 187.5t67.5 107.5q65 67 168 67q101 0 142 -67q24 -41 25 -106.5t-22 -188.5zM485 350q41 211 -2 284q-37 60 -127 60q-89 0 -149 -60
q-71 -71 -112 -284q-42 -211 1 -284q37 -60 127 -60q89 0 149 60q71 71 113 284z" />
    <glyph glyph-name="one" unicode="1" horiz-adv-x="544" 
d="M293 0h-20l131 678l-211 -87l5 22l211 87h20z" />
    <glyph glyph-name="two" unicode="2" horiz-adv-x="544" 
d="M520 511q-9 -46 -32 -83t-71 -82l-353 -328h370l-3 -18h-396l3 18l366 340q80 74 96 152q15 79 -22 131.5t-121 52.5t-141 -52.5t-72 -131.5l-4 -19h-20l4 20q17 85 80 143t157 58t135 -58t24 -143z" />
    <glyph glyph-name="three" unicode="3" horiz-adv-x="544" 
d="M444 185q16 82 -21.5 130.5t-123.5 48.5h-66l4 18h72q75 0 123 45.5t60 110.5q14 69 -23.5 112.5t-114.5 43.5t-130.5 -43.5t-67.5 -112.5l-3 -17h-20l3 17q15 75 76 124.5t146 49.5t127 -49.5t27 -124.5q-12 -65 -53 -109.5t-101 -55.5q63 -9 92.5 -58t14.5 -127
q-18 -91 -85.5 -145.5t-162.5 -54.5t-141 57t-27 153l1 3h20l-1 -3q-17 -89 25 -140.5t127 -51.5q84 0 145.5 49t77.5 130z" />
    <glyph glyph-name="four" unicode="4" horiz-adv-x="544" 
d="M72 192h291l92 472zM487 192l-4 -18h-104l-33 -174h-20l33 174h-313l4 18l412 508h20l-99 -508h104z" />
    <glyph glyph-name="five" unicode="5" horiz-adv-x="544" 
d="M60 180h20q-7 -85 31.5 -129.5t116.5 -44.5q88 0 146 56t78 159q20 102 -16.5 158.5t-124.5 56.5q-115 0 -180 -116h-20l92 380h325l-4 -18h-305l-78 -321q64 93 174 93q96 0 137.5 -61t19.5 -172q-21 -110 -86.5 -171.5t-161.5 -61.5q-88 0 -130 50.5t-34 141.5z" />
    <glyph glyph-name="six" unicode="6" horiz-adv-x="544" 
d="M518 546h-22q5 75 -32.5 111.5t-104.5 36.5q-81 0 -135 -55q-41 -42 -68.5 -117t-52.5 -198q31 60 87.5 95t125.5 35q95 0 138.5 -62.5t22.5 -170.5t-89 -170.5t-163 -62.5q-106 0 -146 76q-20 38 -20.5 91t16.5 131q30 151 58.5 232t72.5 129q61 65 157 65
q78 0 119.5 -42t35.5 -124zM229 6q85 0 147 57t81 158q20 100 -20 157.5t-125 57.5t-147 -57t-82 -158q-19 -100 21 -157.5t125 -57.5z" />
    <glyph glyph-name="seven" unicode="7" horiz-adv-x="544" 
d="M157 682l4 18h395l-4 -18l-394 -682h-22l394 682h-373z" />
    <glyph glyph-name="eight" unicode="8" horiz-adv-x="544" 
d="M360 712q90 0 134.5 -48t29.5 -128q-12 -62 -55.5 -106.5t-107.5 -60.5q67 -14 98 -63t17 -123q-18 -92 -87.5 -143.5t-169.5 -51.5t-149.5 51.5t-31.5 143.5q14 73 64.5 122.5t122.5 63.5q-58 16 -83.5 60.5t-13.5 106.5q15 80 78.5 128t153.5 48zM295 378q79 0 137 43
t72 115t-27.5 115t-120.5 43t-136.5 -43t-71.5 -115t27 -115t120 -43zM223 6q89 0 153 47t80 130t-30 130t-135 47t-153 -47t-80 -130t30 -130t135 -47z" />
    <glyph glyph-name="nine" unicode="9" horiz-adv-x="544" 
d="M61 154h22q-5 -75 32.5 -111.5t104.5 -36.5q81 0 135 55q41 42 68.5 117t52.5 198q-31 -60 -87.5 -95t-125.5 -35q-95 0 -138.5 62.5t-22.5 170.5t89 170.5t163 62.5q106 0 146 -76q20 -38 20.5 -91t-16.5 -131q-30 -151 -58.5 -232t-72.5 -129q-61 -65 -157 -65
q-78 0 -119.5 42t-35.5 124zM350 694q-85 0 -147 -57t-81 -158q-20 -100 20 -157.5t125 -57.5t147 57t82 158q19 100 -21 157.5t-125 57.5z" />
    <glyph glyph-name="colon" unicode=":" horiz-adv-x="272" 
d="M115 80l-15 -80h-28l15 80h28zM197 500l-16 -80h-28l16 80h28z" />
    <glyph glyph-name="semicolon" unicode=";" horiz-adv-x="272" 
d="M197 500l-16 -80h-28l16 80h28zM10 -115l5 27q22 10 35.5 28t20.5 55l16 85h28l-16 -84q-19 -90 -89 -111z" />
    <glyph glyph-name="less" unicode="&#x3c;" horiz-adv-x="520" 
d="M462 117l-384 199v20l384 199v-22l-361 -187l361 -187v-22z" />
    <glyph glyph-name="equal" unicode="=" horiz-adv-x="520" 
d="M70 407v18h400v-18h-400zM70 227v18h400v-18h-400z" />
    <glyph glyph-name="greater" unicode="&#x3e;" horiz-adv-x="520" 
d="M462 316l-384 -199v22l361 187l-361 187v22l384 -199v-20z" />
    <glyph glyph-name="question" unicode="?" horiz-adv-x="514" 
d="M493 523q-11 -56 -37 -93.5t-87 -80.5q-69 -49 -91 -77.5t-30 -70.5l-4 -20h-20l4 20q9 49 33 79t97 83q56 40 81 75.5t34 84.5q15 76 -20 123.5t-115 47.5t-133 -47.5t-68 -123.5v-3h-20v3q16 82 75 135.5t150 53.5t129 -53.5t22 -135.5zM228 80l-15 -80h-28l15 80h28z
" />
    <glyph glyph-name="at" unicode="@" horiz-adv-x="744" 
d="M506 470q133 0 149 -117q27 185 -18 263t-181 78q-152 0 -229 -97t-123 -336q-20 -105 -23 -181.5t9 -124.5t41 -76.5t66 -39t91 -10.5q76 0 141 34l4 -19q-71 -33 -148 -33q-58 0 -99 11.5t-72 41.5t-43.5 80.5t-10 129.5t23.5 187q48 247 132.5 349t243.5 102
t204 -102.5t-4 -348.5l-4 -22q-21 -109 -83 -170t-157 -61t-133 61t-17 170t83 170t157 61zM420 26q84 0 140 55t76 158t-15 158t-119 55t-140 -55t-76 -158t15 -158t119 -55z" />
    <glyph glyph-name="A" unicode="A" horiz-adv-x="580" 
d="M-16 0h-22l406 700h16l134 -700h-22l-37 192h-365zM455 210l-86 457l-265 -457h351z" />
    <glyph glyph-name="B" unicode="B" horiz-adv-x="590" 
d="M125 368h222q179 0 209 157t-148 157h-222zM280 0h-246l136 700h246q96 0 136 -45.5t24 -128.5q-27 -139 -155 -166q138 -23 108 -176q-18 -95 -80 -139.5t-169 -44.5zM509 184q16 81 -21.5 123.5t-144.5 42.5h-221l-65 -332h221q107 0 161 42.5t70 123.5z" />
    <glyph glyph-name="C" unicode="C" horiz-adv-x="617" 
d="M78 350q38 203 131 290q77 72 194 72q111 0 162.5 -62.5t37.5 -173.5h-20q12 101 -34 159.5t-150 58.5q-108 0 -177 -66q-86 -81 -124 -278q-39 -195 15 -278q45 -66 153 -66q104 0 172.5 58.5t95.5 159.5h20q-28 -111 -104.5 -173.5t-187.5 -62.5q-116 0 -166 72
q-58 86 -18 290z" />
    <glyph glyph-name="D" unicode="D" horiz-adv-x="628" 
d="M395 682h-209l-129 -664h209q109 0 178 66q87 84 122 266t-19 266q-42 66 -152 66zM34 0l136 700h229q117 0 166 -71q58 -85 21 -279q-39 -194 -130 -279q-75 -71 -193 -71h-229z" />
    <glyph glyph-name="E" unicode="E" horiz-adv-x="512" 
d="M34 0l136 700h381l-4 -18h-361l-61 -314h325l-3 -18h-325l-65 -332h366l-3 -18h-386z" />
    <glyph glyph-name="F" unicode="F" horiz-adv-x="496" 
d="M34 0l136 700h376l-4 -18h-356l-63 -325h325l-4 -18h-325l-65 -339h-20z" />
    <glyph glyph-name="G" unicode="G" horiz-adv-x="639" 
d="M78 350q38 203 131 290q77 72 194 72q111 0 162.5 -62.5t37.5 -173.5h-20q12 101 -34 159.5t-150 58.5q-108 0 -177 -66q-86 -81 -124 -278q-39 -195 15 -278q45 -66 153 -66q105 0 177 66q34 31 63 82.5t40 109.5l11 58h-225l4 18h245l-66 -340h-20l32 167
q-22 -62 -70 -106q-77 -73 -195 -73q-116 0 -166 72q-58 86 -18 290z" />
    <glyph glyph-name="H" unicode="H" horiz-adv-x="620" 
d="M466 0l68 350h-412l-68 -350h-20l136 700h20l-65 -332h412l65 332h20l-136 -700h-20z" />
    <glyph glyph-name="I" unicode="I" horiz-adv-x="188" 
d="M190 700l-136 -700h-20l136 700h20z" />
    <glyph glyph-name="J" unicode="J" horiz-adv-x="502" 
d="M173 -12q-97 0 -135 59.5t-17 165.5h20v-1q-19 -96 15 -151t121 -55q86 0 141.5 55t74.5 151l95 488h20l-95 -486q-21 -106 -82 -166t-158 -60z" />
    <glyph glyph-name="K" unicode="K" horiz-adv-x="535" 
d="M590 700l-341 -341l236 -359h-26l-229 350h-108l-68 -350h-20l136 700h20l-65 -332h108l331 332h26z" />
    <glyph glyph-name="L" unicode="L" horiz-adv-x="485" 
d="M34 0l136 700h20l-133 -682h366l-3 -18h-386z" />
    <glyph glyph-name="M" unicode="M" horiz-adv-x="830" 
d="M376 0h-22l-173 654l-127 -654h-20l136 700h20l179 -679l443 679h20l-136 -700h-20l127 654z" />
    <glyph glyph-name="N" unicode="N" horiz-adv-x="630" 
d="M496 0h-20l-293 665l-129 -665h-20l136 700h20l292 -665l130 665h20z" />
    <glyph glyph-name="O" unicode="O" horiz-adv-x="630" 
d="M568 350q37 196 -16 278q-45 66 -153 66t-177 -66q-86 -81 -124 -278q-39 -195 15 -278q45 -66 153 -66t177 66q85 80 125 278zM78 350q38 203 131 290q77 72 194 72t166 -72q57 -85 19 -290q-40 -203 -132 -290q-76 -72 -194 -72q-116 0 -166 72q-58 86 -18 290z" />
    <glyph glyph-name="P" unicode="P" horiz-adv-x="579" 
d="M112 300h227q94 0 153 50.5t77 140.5t-22 140.5t-134 50.5h-227zM332 282h-224l-54 -282h-20l136 700h244q107 0 150.5 -56t24.5 -153t-84.5 -153t-172.5 -56z" />
    <glyph glyph-name="Q" unicode="Q" horiz-adv-x="625" 
d="M78 350q38 203 131 290q77 72 194 72t166 -72q57 -85 19 -290q-36 -186 -117 -274l82 -83l-16 -16l-81 83q-76 -72 -194 -72q-116 0 -166 72q-58 86 -18 290zM337 182l16 15l106 -109q74 84 109 262q37 196 -16 278q-45 66 -153 66t-177 -66q-86 -81 -124 -278
q-39 -195 15 -278q45 -66 153 -66t177 66z" />
    <glyph glyph-name="R" unicode="R" horiz-adv-x="602" 
d="M498 0h-20q-5 28 0 64l13 100q10 71 -25.5 104.5t-123.5 33.5h-230l-58 -302h-20l136 700h248q107 0 149 -52.5t24 -146.5q-31 -158 -175 -190q57 -11 80.5 -45t14.5 -102l-13 -100q-4 -40 0 -64zM116 320h231q94 0 150.5 47.5t73.5 133.5t-21.5 133.5t-132.5 47.5h-231z
" />
    <glyph glyph-name="S" unicode="S" horiz-adv-x="560" 
d="M236 6q95 0 159 48t79 121q26 135 -142 170l-87 18q-159 32 -132 172q16 77 82 127t165 50q100 0 146.5 -50t30.5 -127l-3 -20h-20l3 20q14 72 -28.5 115.5t-132.5 43.5q-89 0 -148.5 -43.5t-74.5 -115.5q-23 -125 121 -154l86 -18q182 -38 154 -188
q-16 -80 -85.5 -133.5t-176.5 -53.5t-155.5 53.5t-32.5 133.5l4 25h20l-4 -25q-15 -73 31 -121t141 -48z" />
    <glyph glyph-name="T" unicode="T" horiz-adv-x="500" 
d="M100 682l4 18h464l-4 -18h-222l-132 -682h-20l132 682h-222z" />
    <glyph glyph-name="U" unicode="U" horiz-adv-x="638" 
d="M270 6q116 0 181 65t89 189l86 440h20l-86 -442q-54 -270 -294 -270q-125 0 -169 71.5t-19 198.5l86 442h20l-86 -440q-50 -254 172 -254z" />
    <glyph glyph-name="V" unicode="V" horiz-adv-x="580" 
d="M120 700l126 -667l386 667h22l-406 -700h-16l-134 700h22z" />
    <glyph glyph-name="W" unicode="W" horiz-adv-x="914" 
d="M534 700h18l82 -665l326 665h22l-343 -700h-20l-83 665l-341 -665h-20l-71 700h22l66 -665z" />
    <glyph glyph-name="X" unicode="X" horiz-adv-x="571" 
d="M623 700l-306 -343l180 -357h-25l-172 339l-301 -339h-25l318 357l-172 343h25l162 -325l291 325h25z" />
    <glyph glyph-name="Y" unicode="Y" horiz-adv-x="572" 
d="M293 294l324 406h23l-341 -424l-53 -276h-20l53 276l-175 424h23z" />
    <glyph glyph-name="Z" unicode="Z" horiz-adv-x="518" 
d="M1 18l524 664h-385l4 18h407l-4 -18l-524 -664h400l-3 -18h-422z" />
    <glyph glyph-name="bracketleft" unicode="[" horiz-adv-x="326" 
d="M27 -93l171 876h182l-4 -18h-162l-163 -840h162l-4 -18h-182z" />
    <glyph glyph-name="backslash" unicode="\" horiz-adv-x="342" 
d="M251 -93l-149 876h22l149 -876h-22z" />
    <glyph glyph-name="bracketright" unicode="]" horiz-adv-x="326" 
d="M332 783l-171 -876h-182l4 18h162l163 840h-162l4 18h182z" />
    <glyph glyph-name="asciicircum" unicode="^" horiz-adv-x="400" 
d="M210 682l-152 -214h-24l166 232h20l166 -232h-24z" />
    <glyph glyph-name="underscore" unicode="_" horiz-adv-x="500" 
d="M-78 -145l4 18h499l-4 -18h-499z" />
    <glyph glyph-name="grave" unicode="`" horiz-adv-x="318" 
d="M263 569l-79 161h22l79 -161h-22z" />
    <glyph glyph-name="a" unicode="a" horiz-adv-x="530" 
d="M48 250q25 126 88.5 194t166.5 68q71 0 111.5 -33.5t47.5 -97.5l23 119h20l-97 -500h-20l23 119q-65 -131 -210 -131q-103 0 -140.5 68t-12.5 194zM436 250q48 244 -136 244t-232 -244q-47 -244 137 -244t231 244z" />
    <glyph glyph-name="b" unicode="b" horiz-adv-x="530" 
d="M478 250q-25 -126 -88.5 -194t-166.5 -68q-72 0 -112 34t-46 97l-23 -119h-20l136 700h20l-62 -319q64 131 209 131q103 0 140.5 -68t12.5 -194zM458 250q48 244 -136 244t-232 -244q-47 -244 137 -244t231 244z" />
    <glyph glyph-name="c" unicode="c" horiz-adv-x="499" 
d="M48 250q25 126 88.5 194t166.5 68q85 0 126.5 -44t36.5 -123h-20q3 71 -33.5 110t-112.5 39q-184 0 -232 -244q-47 -244 137 -244q76 0 128 39t76 110h20q-27 -79 -85 -123t-143 -44q-103 0 -140.5 68t-12.5 194z" />
    <glyph glyph-name="d" unicode="d" horiz-adv-x="530" 
d="M48 250q25 126 88.5 194t166.5 68q71 0 111.5 -33.5t47.5 -97.5l62 319h20l-136 -700h-20l23 119q-65 -131 -210 -131q-103 0 -140.5 68t-12.5 194zM436 250q48 244 -136 244t-232 -244q-47 -244 137 -244t231 244z" />
    <glyph glyph-name="e" unicode="e" horiz-adv-x="508" 
d="M404 142h20q-27 -73 -84.5 -113.5t-138.5 -40.5q-103 0 -140.5 68t-12.5 194t88.5 194t166.5 68t140.5 -68t12.5 -194v-2h-388q-47 -242 137 -242q144 0 199 136zM300 494q-180 0 -229 -228h368q38 228 -139 228z" />
    <glyph glyph-name="f" unicode="f" horiz-adv-x="315" 
d="M374 689h-43q-67 0 -95 -24.5t-42 -93.5l-13 -71h157l-4 -18h-157l-93 -482h-20l93 482h-78l4 18h78l14 75q15 75 50 103.5t111 28.5q28 0 42 -1z" />
    <glyph glyph-name="g" unicode="g" horiz-adv-x="530" 
d="M436 250q48 244 -136 244t-232 -244q-47 -244 137 -244t231 244zM15 -88h20q-2 -58 35 -92t106 -34q81 0 134.5 47t70.5 131l30 155q-65 -131 -210 -131q-103 0 -140.5 68t-12.5 194t88.5 194t166.5 68q71 0 111.5 -33.5t47.5 -97.5l23 119h20l-104 -536
q-18 -90 -77 -143t-152 -53q-81 0 -121 39.5t-36 104.5z" />
    <glyph glyph-name="h" unicode="h" horiz-adv-x="529" 
d="M42 0h-20l136 700h20l-67 -342q34 73 93.5 113.5t132.5 40.5q82 0 116.5 -54t15.5 -152l-59 -306h-20l59 306q18 91 -12 139.5t-105 48.5q-84 0 -150.5 -64t-90.5 -176z" />
    <glyph glyph-name="i" unicode="i" horiz-adv-x="174" 
d="M47 0h-20l97 500h20zM167 620h-20l16 80h20z" />
    <glyph glyph-name="j" unicode="j" horiz-adv-x="174" 
d="M144 500l-120 -617q-20 -101 -119 -101q-15 0 -21 1l4 17h20q79 0 97 87l119 613h20zM167 620h-20l16 80h20z" />
    <glyph glyph-name="k" unicode="k" horiz-adv-x="429" 
d="M42 0h-20l136 700h20l-84 -430h79l249 230h25l-258 -239l184 -261h-26l-178 252h-79z" />
    <glyph glyph-name="l" unicode="l" horiz-adv-x="174" 
d="M47 0h-20l136 700h20z" />
    <glyph glyph-name="m" unicode="m" horiz-adv-x="822" 
d="M682 0l65 335q15 78 -13 118.5t-96 40.5q-74 0 -135.5 -68t-84.5 -187l-46 -239h-20l65 335q15 78 -13 118.5t-96 40.5q-74 0 -135.5 -68t-84.5 -187l-46 -239h-20l97 500h20l-28 -144q33 74 85 115t117 41q71 0 104.5 -39.5t23.5 -116.5q30 73 84 114.5t118 41.5
q75 0 108 -44t17 -128l-66 -340h-20z" />
    <glyph glyph-name="n" unicode="n" horiz-adv-x="530" 
d="M42 0h-20l97 500h20l-28 -142q34 73 93.5 113.5t132.5 40.5q82 0 116.5 -54t15.5 -152l-59 -306h-20l59 306q18 91 -12 139.5t-105 48.5q-84 0 -150.5 -64t-90.5 -176z" />
    <glyph glyph-name="o" unicode="o" horiz-adv-x="508" 
d="M456 250q-25 -126 -88.5 -194t-166.5 -68t-140.5 68t-12.5 194t88.5 194t166.5 68t140.5 -68t12.5 -194zM436 250q48 244 -136 244t-232 -244q-47 -244 137 -244t231 244z" />
    <glyph glyph-name="p" unicode="p" horiz-adv-x="530" 
d="M478 250q-25 -126 -88.5 -194t-166.5 -68q-72 0 -112 34t-46 97l-66 -337h-20l140 718h20l-23 -119q64 131 209 131q103 0 140.5 -68t12.5 -194zM458 250q48 244 -136 244t-232 -244q-47 -244 137 -244t231 244z" />
    <glyph glyph-name="q" unicode="q" horiz-adv-x="530" 
d="M48 250q25 126 88.5 194t166.5 68q71 0 111.5 -33.5t47.5 -97.5l23 119h20l-140 -718h-20l66 337q-65 -131 -210 -131q-103 0 -140.5 68t-12.5 194zM436 250q48 244 -136 244t-232 -244q-47 -244 137 -244t231 244z" />
    <glyph glyph-name="r" unicode="r" horiz-adv-x="303" 
d="M297 493q-160 0 -207 -243l-48 -250h-20l97 500h20l-26 -133q54 145 187 145q24 0 33 -3l-3 -19q-12 3 -33 3z" />
    <glyph glyph-name="s" unicode="s" horiz-adv-x="457" 
d="M417 384l-4 -21h-20l4 21q9 49 -24.5 79.5t-103.5 30.5t-116.5 -31t-55.5 -80q-9 -48 15 -72.5t91 -38.5l75 -15q69 -13 94 -44.5t14 -85.5q-12 -63 -70 -101t-138 -38t-123 38t-31 101l4 19h20l-4 -19q-10 -55 28.5 -88t109.5 -33t122.5 33t61.5 88q10 49 -12.5 74.5
t-87.5 38.5l-75 15q-71 14 -98 44.5t-16 84.5q11 55 63 91.5t132 36.5t118 -36.5t27 -91.5z" />
    <glyph glyph-name="t" unicode="t" horiz-adv-x="325" 
d="M167 482l-69 -356q-13 -65 11.5 -90t85.5 -25h48l-4 -17q-18 -1 -47 -1q-73 0 -101 30t-13 105l69 354h-78l4 18h78l27 142h20l-27 -142h167l-4 -18h-167z" />
    <glyph glyph-name="u" unicode="u" horiz-adv-x="530" 
d="M137 500l-60 -306q-17 -91 13 -139.5t105 -48.5q84 0 150 64t90 176l50 254h20l-97 -500h-20l27 142q-34 -73 -93.5 -113.5t-132.5 -40.5q-82 0 -116.5 54t-15.5 152l60 306h20z" />
    <glyph glyph-name="v" unicode="v" horiz-adv-x="484" 
d="M182 0l-113 500h23l105 -473l289 473h23l-307 -500h-20z" />
    <glyph glyph-name="w" unicode="w" horiz-adv-x="774" 
d="M424 500h20l77 -471l259 471h23l-277 -500h-20l-78 471l-260 -471h-20l-83 500h23l75 -471z" />
    <glyph glyph-name="x" unicode="x" horiz-adv-x="444" 
d="M358 0l-140 239l-232 -239h-26l248 256l-141 244h26l132 -227l220 227h26l-237 -244l150 -256h-26z" />
    <glyph glyph-name="y" unicode="y" horiz-adv-x="484" 
d="M102 -131l78 130l-111 501h23l104 -476l290 476h23l-390 -636q-32 -51 -57.5 -66.5t-69.5 -15.5q-8 0 -14 1l4 17h13q37 0 59.5 14t47.5 55z" />
    <glyph glyph-name="z" unicode="z" horiz-adv-x="434" 
d="M430 500l-4 -18l-406 -464h323l-3 -18h-346l3 18l406 464h-308l4 18h331z" />
    <glyph glyph-name="braceleft" unicode="{" horiz-adv-x="330" 
d="M63 336l3 18h18q62 0 75 66l40 203q16 85 57.5 122.5t109.5 37.5h18l-4 -18h-17q-59 0 -94 -31.5t-50 -109.5l-40 -203q-11 -61 -63 -76q46 -14 34 -76l-40 -203q-15 -78 8 -109.5t82 -31.5h17l-4 -18h-18q-68 0 -94.5 37.5t-9.5 122.5l39 203q13 66 -49 66h-18z" />
    <glyph glyph-name="bar" unicode="|" horiz-adv-x="260" 
d="M130 -93v876h20v-876h-20z" />
    <glyph glyph-name="braceright" unicode="}" horiz-adv-x="330" 
d="M300 354l-3 -18h-18q-62 0 -75 -66l-39 -203q-17 -85 -58.5 -122.5t-109.5 -37.5h-18l4 18h17q59 0 94 31.5t50 109.5l40 203q11 62 64 76q-47 14 -35 76l40 203q15 78 -8 109.5t-82 31.5h-17l4 18h18q68 0 94.5 -37.5t10.5 -122.5l-40 -203q-13 -66 49 -66h18z" />
    <glyph glyph-name="asciitilde" unicode="~" horiz-adv-x="520" 
d="M359 250q-38 0 -62 21t-34 46.5t-30.5 46.5t-52.5 21q-76 0 -76 -129h-20q0 73 25.5 110t70.5 37q38 0 62 -21t34 -46.5t30.5 -46.5t52.5 -21q76 0 76 129h20q0 -73 -25.5 -110t-70.5 -37z" />
    <glyph glyph-name="uni00A0" unicode="&#xa0;" horiz-adv-x="260" 
 />
    <glyph glyph-name="exclamdown" unicode="&#xa1;" horiz-adv-x="264" 
d="M31 -200l97 488h18l-91 -488h-24zM151 420l16 80h24l-16 -80h-24z" />
    <glyph glyph-name="cent" unicode="&#xa2;" horiz-adv-x="499" 
d="M48 250q50 252 241 262l15 77h20l-15 -77q82 -1 121.5 -45t35.5 -122h-20q2 70 -33 109t-107 40l-95 -488q73 1 123 40t75 109h20q-26 -78 -82.5 -122t-139.5 -45l-15 -77h-20l15 77q-95 5 -129 73t-10 189zM68 250q-45 -235 123 -244l94 487q-172 -9 -217 -243z" />
    <glyph glyph-name="sterling" unicode="&#xa3;" horiz-adv-x="513" 
d="M70 311l3 18h52q-7 114 7 182q17 88 75 144.5t151 56.5t129 -56t19 -145l-2 -10h-20l2 9q16 85 -17 134.5t-115 49.5t-134 -49.5t-68 -134.5q-15 -78 -7 -181h224l-3 -18h-219q2 -58 -6 -100q-23 -118 -103 -193h380l-3 -18h-402l3 18q83 81 105 193q9 45 5 100h-56z" />
    <glyph glyph-name="currency" unicode="&#xa4;" horiz-adv-x="632" 
d="M106 326q0 94 61 153l-103 103l14 14l104 -104q61 50 145 50q81 0 143 -50l104 104l14 -14l-103 -103q61 -61 61 -153t-61 -153l103 -103l-14 -14l-104 103q-61 -49 -143 -49q-85 0 -145 49l-104 -103l-14 14l103 103q-61 59 -61 153zM526 326q0 90 -58 144t-142 54
t-142 -54t-58 -144t58 -144t142 -54t142 54t58 144z" />
    <glyph glyph-name="yen" unicode="&#xa5;" horiz-adv-x="572" 
d="M298 324l319 376h23l-307 -361h149l-3 -18h-161l-13 -15l-11 -59h171l-4 -18h-171l-44 -229h-20l44 229h-171l4 18h171l11 59l-7 15h-161l3 18h149l-165 361h23z" />
    <glyph glyph-name="brokenbar" unicode="&#xa6;" horiz-adv-x="260" 
d="M130 395v388h20v-388h-20zM130 -93v388h20v-388h-20z" />
    <glyph glyph-name="section" unicode="&#xa7;" horiz-adv-x="469" 
d="M57 298q19 98 127 139q-81 41 -63 137q12 62 64 100t133 38t118 -38t25 -100l-2 -11h-20l2 11q10 55 -24.5 87.5t-102.5 32.5t-115.5 -33t-57.5 -88q-10 -52 15.5 -86t96.5 -54l49 -14q76 -22 103 -57.5t15 -97.5q-19 -98 -127 -139q82 -43 63 -137q-12 -62 -64 -100
t-133 -38t-118 38t-25 100l2 11h20l-2 -11q-10 -55 24.5 -87.5t102.5 -32.5t115.5 33t57.5 88q10 52 -15 86t-96 54l-50 14q-76 22 -103 57.5t-15 97.5zM243 415q-22 6 -38 13q-110 -40 -128 -130q-10 -55 14.5 -86t93.5 -51l49 -14q7 -2 20.5 -7t17.5 -6q110 39 128 130
q10 55 -14.5 86t-93.5 51z" />
    <glyph glyph-name="dieresis" unicode="&#xa8;" horiz-adv-x="318" 
d="M330 663l-6 -32h-32l6 32h32zM176 663l-6 -32h-32l6 32h32z" />
    <glyph glyph-name="copyright" unicode="&#xa9;" horiz-adv-x="732" 
d="M668 350q0 168 -75.5 256t-216.5 88t-216.5 -88t-75.5 -256t75.5 -256t216.5 -88t216.5 88t75.5 256zM64 350q0 178 79.5 270t232.5 92t232.5 -92t79.5 -270t-79.5 -270t-232.5 -92t-232.5 92t-79.5 270zM232 350q0 69 8 108.5t31 66.5q36 42 110 42t110 -42
q30 -35 35 -94h-19q-7 56 -32 84q-28 34 -94 34t-94 -34q-21 -26 -28 -61t-7 -104t7 -104t28 -61q28 -34 94 -34t94 34q25 28 32 84h19q-5 -59 -35 -94q-36 -42 -110 -42t-110 42q-23 27 -31 66.5t-8 108.5z" />
    <glyph glyph-name="ordfeminine" unicode="&#xaa;" horiz-adv-x="390" 
d="M200 324q-66 0 -97.5 30t-20.5 86t54.5 86t109.5 30q96 0 109 -58l18 90q9 47 -13.5 74.5t-78.5 27.5q-106 0 -131 -94h-20q12 49 51 80.5t103 31.5q65 0 92 -33.5t17 -86.5l-40 -204q-4 -21 -2 -51h-21q-4 19 1 40l2 9q-37 -58 -133 -58zM204 342q59 0 95 25.5t45 72.5
t-17 72.5t-85 25.5t-95 -25.5t-45 -72.5t17 -72.5t85 -25.5z" />
    <glyph glyph-name="guillemotleft" unicode="&#xab;" horiz-adv-x="493" 
d="M301 442l-226 -130l176 -130l-4 -22l-191 142l4 20l246 142zM480 442l-226 -130l176 -130l-4 -22l-191 142l4 20l246 142z" />
    <glyph glyph-name="logicalnot" unicode="&#xac;" horiz-adv-x="520" 
d="M70 317v18h400v-190h-20v172h-380z" />
    <glyph glyph-name="uni00AD" unicode="&#xad;" horiz-adv-x="392" 
d="M71 316l4 20h272l-4 -20h-272z" />
    <glyph glyph-name="registered" unicode="&#xae;" horiz-adv-x="732" 
d="M668 350q0 168 -75.5 256t-216.5 88t-216.5 -88t-75.5 -256t75.5 -256t216.5 -88t216.5 88t75.5 256zM64 350q0 178 79.5 270t232.5 92t232.5 -92t79.5 -270t-79.5 -270t-232.5 -92t-232.5 92t-79.5 270zM505 178l-3 48q-3 49 -24.5 69t-67.5 20h-145v-174h-20v418h145
q68 0 103 -28.5t35 -94.5q0 -89 -74 -110q61 -13 67 -94l4 -53q2 -24 7 -38h-21q-4 13 -6 37zM508 436q0 103 -120 103h-123v-206h123q120 0 120 103z" />
    <glyph glyph-name="macron" unicode="&#xaf;" horiz-adv-x="318" 
d="M91 637l4 20h282l-4 -20h-282z" />
    <glyph glyph-name="degree" unicode="&#xb0;" horiz-adv-x="362" 
d="M324 573q0 -59 -36 -97t-97 -38t-97 38t-36 97t36 97t97 38t97 -38t36 -97zM304 573q0 53 -32.5 85t-80.5 32t-80.5 -32t-32.5 -85t32.5 -85t80.5 -32t80.5 32t32.5 85z" />
    <glyph glyph-name="plusminus" unicode="&#xb1;" horiz-adv-x="520" 
d="M70 347v18h190v197h20v-197h190v-18h-190v-197h-20v197h-190zM70 0v18h400v-18h-400z" />
    <glyph glyph-name="twosuperior" unicode="&#xb2;" 
d="M353 564q11 55 -13.5 90.5t-77.5 35.5t-91.5 -35.5t-49.5 -90.5l-2 -9h-20l2 10q12 63 56.5 103t107.5 40t91.5 -40t16.5 -103q-6 -32 -19.5 -54t-47.5 -52l-230 -205h236l-4 -18h-261l4 18l245 219q48 44 57 91z" />
    <glyph glyph-name="threesuperior" unicode="&#xb3;" 
d="M323 358q10 51 -17 81.5t-77 30.5h-48l3 18h48q44 0 79.5 26.5t44.5 74.5q9 47 -16 74t-76 27q-50 0 -86.5 -28.5t-46.5 -75.5l-2 -12h-20l2 12q10 52 53 87t103 35t89.5 -34t19.5 -85q-7 -37 -33 -68.5t-71 -41.5q90 -23 71 -121q-11 -55 -56.5 -92.5t-112.5 -37.5
t-98.5 37.5t-20.5 92.5l5 25h20l-5 -25q-9 -48 18.5 -80t83.5 -32t96.5 32t49.5 80z" />
    <glyph glyph-name="acute" unicode="&#xb4;" horiz-adv-x="318" 
d="M316 730l-141 -161h-22l141 161h22z" />
    <glyph glyph-name="mu" unicode="&#xb5;" horiz-adv-x="532" 
d="M139 500l-60 -306q-17 -91 13 -139.5t105 -48.5q86 0 153 67.5t90 184.5l47 242h20l-97 -500h-20l27 142q-34 -73 -93.5 -113.5t-132.5 -40.5q-56 0 -90.5 25.5t-41.5 74.5l-60 -306h-20l140 718h20z" />
    <glyph glyph-name="paragraph" unicode="&#xb6;" horiz-adv-x="456" 
d="M259 700h127v-831h-21v813h-46v-813h-21v398h-27q-95 0 -155.5 57.5t-60.5 156.5v7q0 100 54 156t150 56z" />
    <glyph glyph-name="periodcentered" unicode="&#xb7;" horiz-adv-x="272" 
d="M171 366l-16 -80h-28l16 80h28z" />
    <glyph glyph-name="cedilla" unicode="&#xb8;" horiz-adv-x="318" 
d="M-31 -208l14 16q27 -28 77 -28q40 0 65.5 18t31.5 50q7 37 -13 55.5t-61 18.5q-21 0 -43 -9l-10 11l54 76h20l-50 -69q16 8 38 8q47 0 70 -25t15 -66q-8 -39 -39.5 -62.5t-81.5 -23.5q-58 0 -87 30z" />
    <glyph glyph-name="onesuperior" unicode="&#xb9;" 
d="M198 236h-20l87 444l-107 -46l4 20l107 46h20z" />
    <glyph glyph-name="ordmasculine" unicode="&#xba;" horiz-adv-x="390" 
d="M98 515q37 193 184 193t110 -193q-38 -193 -185 -193t-109 193zM372 515q34 175 -93 175t-161 -175t93 -175t161 175z" />
    <glyph glyph-name="guillemotright" unicode="&#xbb;" horiz-adv-x="493" 
d="M438 312l-176 130l5 22l190 -142l-4 -20l-245 -142l4 22zM259 312l-176 130l5 22l190 -142l-4 -20l-245 -142l4 22z" />
    <glyph glyph-name="onequarter" unicode="&#xbc;" horiz-adv-x="823" 
d="M492 124h214l59 307zM774 124l-4 -18h-48l-20 -106h-20l20 106h-237l4 18l303 340h20l-66 -340h48zM198 236h-20l87 444l-107 -46l4 20l107 46h20zM679 700l-478 -700h-21l478 700h21z" />
    <glyph glyph-name="onehalf" unicode="&#xbd;" horiz-adv-x="823" 
d="M770 328q11 55 -13.5 90.5t-77.5 35.5t-91.5 -35.5t-49.5 -90.5l-1 -9h-20l1 10q12 63 56.5 103t107.5 40t91.5 -40t16.5 -103q-6 -32 -19.5 -54t-47.5 -52l-230 -205h236l-3 -18h-261l3 18l246 219q47 44 56 91zM679 700l-478 -700h-21l478 700h21zM198 236h-20l87 444
l-107 -46l4 20l107 46h20z" />
    <glyph glyph-name="threequarters" unicode="&#xbe;" horiz-adv-x="823" 
d="M492 124h214l59 307zM774 124l-4 -18h-48l-20 -106h-20l20 106h-237l4 18l303 340h20l-66 -340h48zM323 358q10 51 -17 81.5t-77 30.5h-48l3 18h48q44 0 79.5 26.5t44.5 74.5q9 47 -16 74t-76 27q-50 0 -86.5 -28.5t-46.5 -75.5l-2 -12h-20l2 12q10 52 53 87t103 35
t89.5 -34t19.5 -85q-7 -37 -33 -68.5t-71 -41.5q90 -23 71 -121q-11 -55 -56.5 -92.5t-112.5 -37.5t-98.5 37.5t-20.5 92.5l5 25h20l-5 -25q-9 -48 18.5 -80t83.5 -32t96.5 32t49.5 80zM679 700l-478 -700h-21l478 700h21z" />
    <glyph glyph-name="questiondown" unicode="&#xbf;" horiz-adv-x="514" 
d="M17 -23q11 56 37 93.5t87 80.5q69 49 91 77.5t31 70.5l4 20h20l-4 -20q-10 -49 -34 -79t-97 -83q-55 -40 -80 -75.5t-35 -84.5q-15 -76 20 -123.5t115 -47.5t133 47.5t68 123.5l3 13h20l-3 -13q-16 -82 -75 -135.5t-150 -53.5t-129 53.5t-22 135.5zM284 420l16 80h24
l-16 -80h-24z" />
    <glyph glyph-name="Agrave" unicode="&#xc0;" horiz-adv-x="580" 
d="M-16 0h-22l406 700h16l134 -700h-22l-37 192h-365zM455 210l-86 457l-265 -457h351zM407 763l-79 161h22l79 -161h-22z" />
    <glyph glyph-name="Aacute" unicode="&#xc1;" horiz-adv-x="580" 
d="M-16 0h-22l406 700h16l134 -700h-22l-37 192h-365zM455 210l-86 457l-265 -457h351zM511 924l-141 -161h-22l141 161h22z" />
    <glyph glyph-name="Acircumflex" unicode="&#xc2;" horiz-adv-x="580" 
d="M-16 0h-22l406 700h16l134 -700h-22l-37 192h-365zM455 210l-86 457l-265 -457h351zM410 924h18l99 -161h-23l-88 144l-144 -144h-23z" />
    <glyph glyph-name="Atilde" unicode="&#xc3;" horiz-adv-x="580" 
d="M-16 0h-22l406 700h16l134 -700h-22l-37 192h-365zM455 210l-86 457l-265 -457h351zM460 774q-23 0 -40 18t-25 39t-21.5 39t-32.5 18q-27 0 -44 -25t-27 -81h-20q11 61 33.5 92.5t63.5 31.5q23 0 40 -18t24.5 -39t21 -39t32.5 -18q27 0 44 25t28 81h20
q-12 -61 -34.5 -92.5t-62.5 -31.5z" />
    <glyph glyph-name="Adieresis" unicode="&#xc4;" horiz-adv-x="580" 
d="M-16 0h-22l406 700h16l134 -700h-22l-37 192h-365zM455 210l-86 457l-265 -457h351zM499 857l-6 -32h-32l6 32h32zM345 857l-6 -32h-32l6 32h32z" />
    <glyph glyph-name="Aring" unicode="&#xc5;" horiz-adv-x="580" 
d="M-16 0h-22l406 700h16l134 -700h-22l-37 192h-365zM455 210l-86 457l-265 -457h351zM485 843q8 40 -10.5 63t-54.5 23t-63.5 -23t-35.5 -63q-7 -40 11.5 -63t54.5 -23t63.5 23t34.5 63zM301 843q10 47 44 75.5t79 28.5t68 -28.5t13 -75.5q-9 -47 -43 -75.5t-79 -28.5
t-68 28.5t-14 75.5z" />
    <glyph glyph-name="AE" unicode="&#xc6;" horiz-adv-x="852" 
d="M501 700h390l-4 -18h-361l-61 -314h325l-3 -18h-325l-65 -332h366l-3 -18h-386l37 192h-292l-152 -192h-22zM133 210h281l91 468z" />
    <glyph glyph-name="Ccedilla" unicode="&#xc7;" horiz-adv-x="617" 
d="M78 350q38 203 131 290q77 72 194 72q111 0 162.5 -62.5t37.5 -173.5h-20q12 101 -34 159.5t-150 58.5q-108 0 -177 -66q-86 -81 -124 -278q-39 -195 15 -278q45 -66 153 -66q104 0 172.5 58.5t95.5 159.5h20q-28 -108 -100.5 -170t-178.5 -66l-41 -57q16 8 38 8
q47 0 70 -25t15 -66q-8 -39 -39.5 -62.5t-81.5 -23.5q-58 0 -87 30l14 16q27 -28 77 -28q40 0 65.5 18t31.5 50q7 37 -13 55.5t-61 18.5q-21 0 -43 -9l-10 11l45 64q-114 3 -159 72q-58 86 -18 290z" />
    <glyph glyph-name="Egrave" unicode="&#xc8;" horiz-adv-x="512" 
d="M34 0l136 700h381l-4 -18h-361l-61 -314h325l-3 -18h-325l-65 -332h366l-3 -18h-386zM404 763l-79 161h22l79 -161h-22z" />
    <glyph glyph-name="Eacute" unicode="&#xc9;" horiz-adv-x="512" 
d="M34 0l136 700h381l-4 -18h-361l-61 -314h325l-3 -18h-325l-65 -332h366l-3 -18h-386zM479 924l-141 -161h-22l141 161h22z" />
    <glyph glyph-name="Ecircumflex" unicode="&#xca;" horiz-adv-x="512" 
d="M34 0l136 700h381l-4 -18h-361l-61 -314h325l-3 -18h-325l-65 -332h366l-3 -18h-386zM394 924h18l99 -161h-23l-88 144l-144 -144h-23z" />
    <glyph glyph-name="Edieresis" unicode="&#xcb;" horiz-adv-x="512" 
d="M34 0l136 700h381l-4 -18h-361l-61 -314h325l-3 -18h-325l-65 -332h366l-3 -18h-386zM483 857l-6 -32h-32l6 32h32zM329 857l-6 -32h-32l6 32h32z" />
    <glyph glyph-name="Igrave" unicode="&#xcc;" horiz-adv-x="188" 
d="M190 700l-136 -700h-20l136 700h20zM211 763l-79 161h22l79 -161h-22z" />
    <glyph glyph-name="Iacute" unicode="&#xcd;" horiz-adv-x="188" 
d="M190 700l-136 -700h-20l136 700h20zM314 924l-141 -161h-22l141 161h22z" />
    <glyph glyph-name="Icircumflex" unicode="&#xce;" horiz-adv-x="188" 
d="M190 700l-136 -700h-20l136 700h20zM214 924h18l99 -161h-23l-88 144l-144 -144h-23z" />
    <glyph glyph-name="Idieresis" unicode="&#xcf;" horiz-adv-x="188" 
d="M190 700l-136 -700h-20l136 700h20zM303 857l-6 -32h-32l6 32h32zM149 857l-6 -32h-32l6 32h32z" />
    <glyph glyph-name="Eth" unicode="&#xd0;" horiz-adv-x="628" 
d="M26 341l3 18h74l67 341h229q117 0 166 -71q58 -85 21 -279q-39 -194 -130 -279q-75 -71 -193 -71h-229l66 341h-74zM395 682h-209l-63 -323h171l-3 -18h-171l-63 -323h209q109 0 178 66q87 84 122 266t-19 266q-42 66 -152 66z" />
    <glyph glyph-name="Ntilde" unicode="&#xd1;" horiz-adv-x="630" 
d="M496 0h-20l-293 665l-129 -665h-20l136 700h20l292 -665l130 665h20zM485 774q-23 0 -40 18t-25 39t-21.5 39t-32.5 18q-27 0 -44 -25t-27 -81h-20q11 61 33.5 92.5t63.5 31.5q23 0 40 -18t24.5 -39t21 -39t32.5 -18q27 0 44 25t28 81h20q-12 -61 -34.5 -92.5
t-62.5 -31.5z" />
    <glyph glyph-name="Ograve" unicode="&#xd2;" horiz-adv-x="630" 
d="M568 350q37 196 -16 278q-45 66 -153 66t-177 -66q-86 -81 -124 -278q-39 -195 15 -278q45 -66 153 -66t177 66q85 80 125 278zM78 350q38 203 131 290q77 72 194 72t166 -72q57 -85 19 -290q-40 -203 -132 -290q-76 -72 -194 -72q-116 0 -166 72q-58 86 -18 290z
M442 763l-79 161h22l79 -161h-22z" />
    <glyph glyph-name="Oacute" unicode="&#xd3;" horiz-adv-x="630" 
d="M568 350q37 196 -16 278q-45 66 -153 66t-177 -66q-86 -81 -124 -278q-39 -195 15 -278q45 -66 153 -66t177 66q85 80 125 278zM78 350q38 203 131 290q77 72 194 72t166 -72q57 -85 19 -290q-40 -203 -132 -290q-76 -72 -194 -72q-116 0 -166 72q-58 86 -18 290z
M525 924l-141 -161h-22l141 161h22z" />
    <glyph glyph-name="Ocircumflex" unicode="&#xd4;" horiz-adv-x="630" 
d="M568 350q37 196 -16 278q-45 66 -153 66t-177 -66q-86 -81 -124 -278q-39 -195 15 -278q45 -66 153 -66t177 66q85 80 125 278zM78 350q38 203 131 290q77 72 194 72t166 -72q57 -85 19 -290q-40 -203 -132 -290q-76 -72 -194 -72q-116 0 -166 72q-58 86 -18 290z
M435 924h18l99 -161h-23l-88 144l-144 -144h-23z" />
    <glyph glyph-name="Otilde" unicode="&#xd5;" horiz-adv-x="630" 
d="M568 350q37 196 -16 278q-45 66 -153 66t-177 -66q-86 -81 -124 -278q-39 -195 15 -278q45 -66 153 -66t177 66q85 80 125 278zM78 350q38 203 131 290q77 72 194 72t166 -72q57 -85 19 -290q-40 -203 -132 -290q-76 -72 -194 -72q-116 0 -166 72q-58 86 -18 290z
M485 774q-23 0 -40 18t-25 39t-21.5 39t-32.5 18q-27 0 -44 -25t-27 -81h-20q11 61 33.5 92.5t63.5 31.5q23 0 40 -18t24.5 -39t21 -39t32.5 -18q27 0 44 25t28 81h20q-12 -61 -34.5 -92.5t-62.5 -31.5z" />
    <glyph glyph-name="Odieresis" unicode="&#xd6;" horiz-adv-x="630" 
d="M568 350q37 196 -16 278q-45 66 -153 66t-177 -66q-86 -81 -124 -278q-39 -195 15 -278q45 -66 153 -66t177 66q85 80 125 278zM78 350q38 203 131 290q77 72 194 72t166 -72q57 -85 19 -290q-40 -203 -132 -290q-76 -72 -194 -72q-116 0 -166 72q-58 86 -18 290z
M524 857l-6 -32h-32l6 32h32zM370 857l-6 -32h-32l6 32h32z" />
    <glyph glyph-name="multiply" unicode="&#xd7;" horiz-adv-x="520" 
d="M430 152l-160 160l-160 -160l-14 14l160 160l-160 160l14 14l160 -160l160 160l14 -14l-160 -160l160 -160z" />
    <glyph glyph-name="Oslash" unicode="&#xd8;" horiz-adv-x="630" 
d="M42 -32h-22l75 94q-57 86 -17 288q38 203 131 290q77 72 194 72q107 0 156 -60l64 80h22l-75 -95q56 -87 18 -287q-40 -203 -132 -290q-76 -72 -194 -72q-108 0 -157 60zM98 350q-37 -189 10 -271l438 556q-45 59 -147 59q-108 0 -177 -66q-86 -81 -124 -278zM568 350
q36 187 -12 270l-438 -555q44 -59 148 -59q108 0 177 66q85 80 125 278z" />
    <glyph glyph-name="Ugrave" unicode="&#xd9;" horiz-adv-x="638" 
d="M270 6q116 0 181 65t89 189l86 440h20l-86 -442q-54 -270 -294 -270q-125 0 -169 71.5t-19 198.5l86 442h20l-86 -440q-50 -254 172 -254zM446 763l-79 161h22l79 -161h-22z" />
    <glyph glyph-name="Uacute" unicode="&#xda;" horiz-adv-x="638" 
d="M270 6q116 0 181 65t89 189l86 440h20l-86 -442q-54 -270 -294 -270q-125 0 -169 71.5t-19 198.5l86 442h20l-86 -440q-50 -254 172 -254zM529 924l-141 -161h-22l141 161h22z" />
    <glyph glyph-name="Ucircumflex" unicode="&#xdb;" horiz-adv-x="638" 
d="M270 6q116 0 181 65t89 189l86 440h20l-86 -442q-54 -270 -294 -270q-125 0 -169 71.5t-19 198.5l86 442h20l-86 -440q-50 -254 172 -254zM439 924h18l99 -161h-23l-88 144l-144 -144h-23z" />
    <glyph glyph-name="Udieresis" unicode="&#xdc;" horiz-adv-x="638" 
d="M270 6q116 0 181 65t89 189l86 440h20l-86 -442q-54 -270 -294 -270q-125 0 -169 71.5t-19 198.5l86 442h20l-86 -440q-50 -254 172 -254zM528 857l-6 -32h-32l6 32h32zM374 857l-6 -32h-32l6 32h32z" />
    <glyph glyph-name="Yacute" unicode="&#xdd;" horiz-adv-x="572" 
d="M293 294l324 406h23l-341 -424l-53 -276h-20l53 276l-175 424h23zM496 924l-141 -161h-22l141 161h22z" />
    <glyph glyph-name="Thorn" unicode="&#xde;" horiz-adv-x="579" 
d="M54 0h-20l136 700h20l-28 -141h224q107 0 151 -56t25 -153t-84.5 -153t-172.5 -56h-224zM84 159h227q94 0 153.5 50.5t77.5 140.5q17 90 -22.5 140.5t-133.5 50.5h-227z" />
    <glyph glyph-name="germandbls" unicode="&#xdf;" horiz-adv-x="563" 
d="M541 514q-12 -63 -58.5 -107t-110.5 -54q68 -8 111 -53.5t28 -124.5q-17 -85 -82 -136t-159 -51q-48 0 -84 10l4 19q36 -11 85 -11q85 0 142.5 45t73.5 124q15 79 -35.5 124t-154.5 45h-26l4 18h27q98 0 150.5 44.5t64.5 107.5q16 80 -26.5 130t-128.5 50t-147.5 -50
t-77.5 -130l-99 -514h-20l99 514q17 87 86 142.5t163 55.5t141 -55.5t30 -142.5z" />
    <glyph glyph-name="agrave" unicode="&#xe0;" horiz-adv-x="530" 
d="M48 250q25 126 88.5 194t166.5 68q71 0 111.5 -33.5t47.5 -97.5l23 119h20l-97 -500h-20l23 119q-65 -131 -210 -131q-103 0 -140.5 68t-12.5 194zM436 250q48 244 -136 244t-232 -244q-47 -244 137 -244t231 244zM368 564l-79 161h22l79 -161h-22z" />
    <glyph glyph-name="aacute" unicode="&#xe1;" horiz-adv-x="530" 
d="M48 250q25 126 88.5 194t166.5 68q71 0 111.5 -33.5t47.5 -97.5l23 119h20l-97 -500h-20l23 119q-65 -131 -210 -131q-103 0 -140.5 68t-12.5 194zM436 250q48 244 -136 244t-232 -244q-47 -244 137 -244t231 244zM431 725l-141 -161h-22l141 161h22z" />
    <glyph glyph-name="acircumflex" unicode="&#xe2;" horiz-adv-x="530" 
d="M48 250q25 126 88.5 194t166.5 68q71 0 111.5 -33.5t47.5 -97.5l23 119h20l-97 -500h-20l23 119q-65 -131 -210 -131q-103 0 -140.5 68t-12.5 194zM436 250q48 244 -136 244t-232 -244q-47 -244 137 -244t231 244zM346 725h18l99 -161h-23l-88 144l-144 -144h-23z" />
    <glyph glyph-name="atilde" unicode="&#xe3;" horiz-adv-x="530" 
d="M48 250q25 126 88.5 194t166.5 68q71 0 111.5 -33.5t47.5 -97.5l23 119h20l-97 -500h-20l23 119q-65 -131 -210 -131q-103 0 -140.5 68t-12.5 194zM436 250q48 244 -136 244t-232 -244q-47 -244 137 -244t231 244zM396 575q-23 0 -40 18t-25 39t-21.5 39t-32.5 18
q-27 0 -44 -25t-27 -81h-20q12 61 34.5 92.5t62.5 31.5q23 0 40 -18t25 -39t21.5 -39t32.5 -18q27 0 44 25t27 81h20q-11 -61 -33.5 -92.5t-63.5 -31.5z" />
    <glyph glyph-name="adieresis" unicode="&#xe4;" horiz-adv-x="530" 
d="M48 250q25 126 88.5 194t166.5 68q71 0 111.5 -33.5t47.5 -97.5l23 119h20l-97 -500h-20l23 119q-65 -131 -210 -131q-103 0 -140.5 68t-12.5 194zM436 250q48 244 -136 244t-232 -244q-47 -244 137 -244t231 244zM435 658l-6 -32h-32l6 32h32zM281 658l-6 -32h-32l6 32
h32z" />
    <glyph glyph-name="aring" unicode="&#xe5;" horiz-adv-x="530" 
d="M48 250q25 126 88.5 194t166.5 68q71 0 111.5 -33.5t47.5 -97.5l23 119h20l-97 -500h-20l23 119q-65 -131 -210 -131q-103 0 -140.5 68t-12.5 194zM436 250q48 244 -136 244t-232 -244q-47 -244 137 -244t231 244zM422 644q7 40 -11.5 63t-54.5 23t-63.5 -23t-34.5 -63
q-8 -40 10.5 -63t54.5 -23t63.5 23t35.5 63zM238 644q9 47 43 75.5t79 28.5t68 -28.5t14 -75.5q-10 -47 -44 -75.5t-79 -28.5t-68 28.5t-13 75.5z" />
    <glyph glyph-name="ae" unicode="&#xe6;" horiz-adv-x="896" 
d="M593 6q144 0 199 136h20q-27 -73 -84.5 -113.5t-138.5 -40.5q-72 0 -112 34t-46 97l-23 -119h-20l23 119q-65 -131 -210 -131q-103 0 -140.5 68t-12.5 194t88.5 194t166.5 68q71 0 111.5 -33.5t47.5 -97.5l23 119h20l-23 -119q64 131 209 131q103 0 140.5 -68t12.5 -194
v-2h-388q-48 -242 137 -242zM436 250q48 244 -136 244t-232 -244q-47 -244 137 -244t231 244zM688 494q-178 0 -229 -228h368q39 228 -139 228z" />
    <glyph glyph-name="ccedilla" unicode="&#xe7;" horiz-adv-x="499" 
d="M48 250q25 126 88.5 194t166.5 68q85 0 126.5 -44t36.5 -123h-20q3 71 -33.5 110t-112.5 39q-184 0 -232 -244q-47 -244 137 -244q76 0 128 39t76 110h20q-26 -76 -80 -119t-133 -47l-41 -58q16 8 38 8q47 0 70 -25t15 -66q-8 -39 -39.5 -62.5t-81.5 -23.5q-59 0 -87 30
l14 16q27 -28 77 -28q40 0 65.5 18t31.5 50q7 37 -13 55.5t-61 18.5q-21 0 -43 -9l-9 11l43 64q-100 2 -135.5 70t-11.5 192z" />
    <glyph glyph-name="egrave" unicode="&#xe8;" horiz-adv-x="508" 
d="M404 142h20q-27 -73 -84.5 -113.5t-138.5 -40.5q-103 0 -140.5 68t-12.5 194t88.5 194t166.5 68t140.5 -68t12.5 -194v-2h-388q-47 -242 137 -242q144 0 199 136zM300 494q-180 0 -229 -228h368q38 228 -139 228zM342 564l-79 161h22l79 -161h-22z" />
    <glyph glyph-name="eacute" unicode="&#xe9;" horiz-adv-x="508" 
d="M404 142h20q-27 -73 -84.5 -113.5t-138.5 -40.5q-103 0 -140.5 68t-12.5 194t88.5 194t166.5 68t140.5 -68t12.5 -194v-2h-388q-47 -242 137 -242q144 0 199 136zM300 494q-180 0 -229 -228h368q38 228 -139 228zM425 725l-141 -161h-22l141 161h22z" />
    <glyph glyph-name="ecircumflex" unicode="&#xea;" horiz-adv-x="508" 
d="M404 142h20q-27 -73 -84.5 -113.5t-138.5 -40.5q-103 0 -140.5 68t-12.5 194t88.5 194t166.5 68t140.5 -68t12.5 -194v-2h-388q-47 -242 137 -242q144 0 199 136zM300 494q-180 0 -229 -228h368q38 228 -139 228zM335 725h18l99 -161h-23l-88 144l-144 -144h-23z" />
    <glyph glyph-name="edieresis" unicode="&#xeb;" horiz-adv-x="508" 
d="M404 142h20q-27 -73 -84.5 -113.5t-138.5 -40.5q-103 0 -140.5 68t-12.5 194t88.5 194t166.5 68t140.5 -68t12.5 -194v-2h-388q-47 -242 137 -242q144 0 199 136zM300 494q-180 0 -229 -228h368q38 228 -139 228zM424 658l-6 -32h-32l6 32h32zM270 658l-6 -32h-32l6 32
h32z" />
    <glyph glyph-name="igrave" unicode="&#xec;" horiz-adv-x="174" 
d="M47 0h-20l97 500h20zM165 564l-79 161h22l79 -161h-22z" />
    <glyph glyph-name="iacute" unicode="&#xed;" horiz-adv-x="174" 
d="M47 0h-20l97 500h20zM268 725l-141 -161h-22l141 161h22z" />
    <glyph glyph-name="icircumflex" unicode="&#xee;" horiz-adv-x="174" 
d="M47 0h-20l97 500h20zM168 725h18l99 -161h-23l-88 144l-144 -144h-23z" />
    <glyph glyph-name="idieresis" unicode="&#xef;" horiz-adv-x="174" 
d="M47 0h-20l97 500h20zM257 658l-6 -32h-32l6 32h32zM103 658l-6 -32h-32l6 32h32z" />
    <glyph glyph-name="eth" unicode="&#xf0;" horiz-adv-x="508" 
d="M456 250q-25 -126 -88.5 -194t-166.5 -68t-140.5 68t-12.5 194t88.5 194t166.5 68q132 0 155 -111q10 162 -74 235l-110 -59l-7 15l103 55q-37 30 -115 60l13 17q80 -34 122 -66l93 49l6 -15l-86 -46q62 -56 73.5 -148t-20.5 -248zM436 250q48 244 -136 244t-232 -244
q-47 -244 137 -244t231 244z" />
    <glyph glyph-name="ntilde" unicode="&#xf1;" horiz-adv-x="530" 
d="M42 0h-20l97 500h20l-28 -142q34 73 93.5 113.5t132.5 40.5q82 0 116.5 -54t15.5 -152l-59 -306h-20l59 306q18 91 -12 139.5t-105 48.5q-84 0 -150.5 -64t-90.5 -176zM396 575q-23 0 -40 18t-25 39t-21.5 39t-32.5 18q-27 0 -44 -25t-27 -81h-20q12 61 34.5 92.5
t62.5 31.5q23 0 40 -18t25 -39t21.5 -39t32.5 -18q27 0 44 25t27 81h20q-11 -61 -33.5 -92.5t-63.5 -31.5z" />
    <glyph glyph-name="ograve" unicode="&#xf2;" horiz-adv-x="508" 
d="M456 250q-25 -126 -88.5 -194t-166.5 -68t-140.5 68t-12.5 194t88.5 194t166.5 68t140.5 -68t12.5 -194zM436 250q48 244 -136 244t-232 -244q-47 -244 137 -244t231 244zM342 564l-79 161h22l79 -161h-22z" />
    <glyph glyph-name="oacute" unicode="&#xf3;" horiz-adv-x="508" 
d="M456 250q-25 -126 -88.5 -194t-166.5 -68t-140.5 68t-12.5 194t88.5 194t166.5 68t140.5 -68t12.5 -194zM436 250q48 244 -136 244t-232 -244q-47 -244 137 -244t231 244zM425 725l-141 -161h-22l141 161h22z" />
    <glyph glyph-name="ocircumflex" unicode="&#xf4;" horiz-adv-x="508" 
d="M456 250q-25 -126 -88.5 -194t-166.5 -68t-140.5 68t-12.5 194t88.5 194t166.5 68t140.5 -68t12.5 -194zM436 250q48 244 -136 244t-232 -244q-47 -244 137 -244t231 244zM335 725h18l99 -161h-23l-88 144l-144 -144h-23z" />
    <glyph glyph-name="otilde" unicode="&#xf5;" horiz-adv-x="508" 
d="M456 250q-25 -126 -88.5 -194t-166.5 -68t-140.5 68t-12.5 194t88.5 194t166.5 68t140.5 -68t12.5 -194zM436 250q48 244 -136 244t-232 -244q-47 -244 137 -244t231 244zM385 575q-23 0 -40 18t-25 39t-21.5 39t-32.5 18q-27 0 -44 -25t-27 -81h-20q12 61 34.5 92.5
t62.5 31.5q23 0 40 -18t25 -39t21.5 -39t32.5 -18q27 0 44 25t27 81h20q-11 -61 -33.5 -92.5t-63.5 -31.5z" />
    <glyph glyph-name="odieresis" unicode="&#xf6;" horiz-adv-x="508" 
d="M456 250q-25 -126 -88.5 -194t-166.5 -68t-140.5 68t-12.5 194t88.5 194t166.5 68t140.5 -68t12.5 -194zM436 250q48 244 -136 244t-232 -244q-47 -244 137 -244t231 244zM424 658l-6 -32h-32l6 32h32zM270 658l-6 -32h-32l6 32h32z" />
    <glyph glyph-name="divide" unicode="&#xf7;" horiz-adv-x="520" 
d="M70 317v18h400v-18h-400zM282 532v-80h-24v80h24zM282 200v-80h-24v80h24z" />
    <glyph glyph-name="oslash" unicode="&#xf8;" horiz-adv-x="508" 
d="M41 -38h-21l56 73q-57 65 -28 215q25 126 88.5 194t166.5 68q73 0 113 -35l47 61h21l-56 -73q57 -68 28 -215q-25 -126 -88.5 -194t-166.5 -68q-72 0 -113 35zM68 250q-27 -138 20 -199l315 410q-36 33 -103 33q-184 0 -232 -244zM436 250q28 139 -21 198l-315 -409
q36 -33 105 -33q184 0 231 244z" />
    <glyph glyph-name="ugrave" unicode="&#xf9;" horiz-adv-x="530" 
d="M137 500l-60 -306q-17 -91 13 -139.5t105 -48.5q84 0 150 64t90 176l50 254h20l-97 -500h-20l27 142q-34 -73 -93.5 -113.5t-132.5 -40.5q-82 0 -116.5 54t-15.5 152l60 306h20zM358 564l-79 161h22l79 -161h-22z" />
    <glyph glyph-name="uacute" unicode="&#xfa;" horiz-adv-x="530" 
d="M137 500l-60 -306q-17 -91 13 -139.5t105 -48.5q84 0 150 64t90 176l50 254h20l-97 -500h-20l27 142q-34 -73 -93.5 -113.5t-132.5 -40.5q-82 0 -116.5 54t-15.5 152l60 306h20zM431 725l-141 -161h-22l141 161h22z" />
    <glyph glyph-name="ucircumflex" unicode="&#xfb;" horiz-adv-x="530" 
d="M137 500l-60 -306q-17 -91 13 -139.5t105 -48.5q84 0 150 64t90 176l50 254h20l-97 -500h-20l27 142q-34 -73 -93.5 -113.5t-132.5 -40.5q-82 0 -116.5 54t-15.5 152l60 306h20zM346 725h18l99 -161h-23l-88 144l-144 -144h-23z" />
    <glyph glyph-name="udieresis" unicode="&#xfc;" horiz-adv-x="530" 
d="M137 500l-60 -306q-17 -91 13 -139.5t105 -48.5q84 0 150 64t90 176l50 254h20l-97 -500h-20l27 142q-34 -73 -93.5 -113.5t-132.5 -40.5q-82 0 -116.5 54t-15.5 152l60 306h20zM435 658l-6 -32h-32l6 32h32zM281 658l-6 -32h-32l6 32h32z" />
    <glyph glyph-name="yacute" unicode="&#xfd;" horiz-adv-x="484" 
d="M102 -131l78 130l-111 501h23l104 -476l290 476h23l-390 -636q-32 -51 -57.5 -66.5t-69.5 -15.5q-8 0 -14 1l4 17h13q37 0 59.5 14t47.5 55zM413 725l-141 -161h-22l141 161h22z" />
    <glyph glyph-name="thorn" unicode="&#xfe;" horiz-adv-x="530" 
d="M478 250q-25 -126 -88.5 -194t-166.5 -68q-72 0 -112 34t-46 97l-66 -337h-20l179 918h20l-62 -319q64 131 209 131q103 0 140.5 -68t12.5 -194zM458 250q48 244 -136 244t-232 -244q-47 -244 137 -244t231 244z" />
    <glyph glyph-name="ydieresis" unicode="&#xff;" horiz-adv-x="484" 
d="M102 -131l78 130l-111 501h23l104 -476l290 476h23l-390 -636q-32 -51 -57.5 -66.5t-69.5 -15.5q-8 0 -14 1l4 17h13q37 0 59.5 14t47.5 55zM412 658l-6 -32h-32l6 32h32zM258 658l-6 -32h-32l6 32h32z" />
    <glyph glyph-name="Amacron" unicode="&#x100;" horiz-adv-x="580" 
d="M-16 0h-22l406 700h16l134 -700h-22l-37 192h-365zM455 210l-86 457l-265 -457h351zM260 832l4 20h282l-4 -20h-282z" />
    <glyph glyph-name="amacron" unicode="&#x101;" horiz-adv-x="530" 
d="M48 250q25 126 88.5 194t166.5 68q71 0 111.5 -33.5t47.5 -97.5l23 119h20l-97 -500h-20l23 119q-65 -131 -210 -131q-103 0 -140.5 68t-12.5 194zM436 250q48 244 -136 244t-232 -244q-47 -244 137 -244t231 244zM197 633l3 20h282l-3 -20h-282z" />
    <glyph glyph-name="Abreve" unicode="&#x102;" horiz-adv-x="580" 
d="M-16 0h-22l406 700h16l134 -700h-22l-37 192h-365zM455 210l-86 457l-265 -457h351zM388 765q-127 0 -107 148h20q-18 -130 91 -130q108 0 141 130h20q-36 -148 -165 -148z" />
    <glyph glyph-name="abreve" unicode="&#x103;" horiz-adv-x="530" 
d="M48 250q25 126 88.5 194t166.5 68q71 0 111.5 -33.5t47.5 -97.5l23 119h20l-97 -500h-20l23 119q-65 -131 -210 -131q-103 0 -140.5 68t-12.5 194zM436 250q48 244 -136 244t-232 -244q-47 -244 137 -244t231 244zM325 568q-129 0 -107 148h20q-18 -130 90 -130
q110 0 142 130h20q-38 -148 -165 -148z" />
    <glyph glyph-name="Aogonek" unicode="&#x104;" horiz-adv-x="580" 
d="M-16 0h-22l406 700h16l134 -700q-57 -22 -88.5 -54t-37.5 -67l-1 -5q-7 -37 12 -56t59 -19q50 0 90 29l8 -15q-44 -32 -101 -32q-50 0 -73 25t-15 68l1 4q7 37 39 71t83 55l-35 188h-365zM455 210l-86 457l-265 -457h351z" />
    <glyph glyph-name="aogonek" unicode="&#x105;" horiz-adv-x="530" 
d="M389 6l22 113q-65 -131 -210 -131q-103 0 -140.5 68t-12.5 194t88.5 194t166.5 68q71 0 111.5 -33.5t47.5 -97.5l23 119h20l-97 -500q-57 -22 -88.5 -54t-37.5 -67l-1 -5q-7 -37 12 -56t59 -19q50 0 90 29l8 -15q-44 -32 -101 -32q-50 0 -73 25t-15 68l1 4q7 38 41 73
t86 55zM436 250q48 244 -136 244t-232 -244q-47 -244 137 -244t231 244z" />
    <glyph glyph-name="Cacute" unicode="&#x106;" horiz-adv-x="617" 
d="M78 350q38 203 131 290q77 72 194 72q111 0 162.5 -62.5t37.5 -173.5h-20q12 101 -34 159.5t-150 58.5q-108 0 -177 -66q-86 -81 -124 -278q-39 -195 15 -278q45 -66 153 -66q104 0 172.5 58.5t95.5 159.5h20q-28 -111 -104.5 -173.5t-187.5 -62.5q-116 0 -166 72
q-58 86 -18 290zM513 924l-141 -161h-22l141 161h22z" />
    <glyph glyph-name="cacute" unicode="&#x107;" horiz-adv-x="499" 
d="M48 250q25 126 88.5 194t166.5 68q85 0 126.5 -44t36.5 -123h-20q3 71 -33.5 110t-112.5 39q-184 0 -232 -244q-47 -244 137 -244q76 0 128 39t76 110h20q-27 -79 -85 -123t-143 -44q-103 0 -140.5 68t-12.5 194zM415 725l-141 -161h-22l141 161h22z" />
    <glyph glyph-name="Ccircumflex" unicode="&#x108;" horiz-adv-x="617" 
d="M78 350q38 203 131 290q77 72 194 72q111 0 162.5 -62.5t37.5 -173.5h-20q12 101 -34 159.5t-150 58.5q-108 0 -177 -66q-86 -81 -124 -278q-39 -195 15 -278q45 -66 153 -66q104 0 172.5 58.5t95.5 159.5h20q-28 -111 -104.5 -173.5t-187.5 -62.5q-116 0 -166 72
q-58 86 -18 290zM428 924h18l99 -161h-23l-88 144l-144 -144h-23z" />
    <glyph glyph-name="ccircumflex" unicode="&#x109;" horiz-adv-x="499" 
d="M48 250q25 126 88.5 194t166.5 68q85 0 126.5 -44t36.5 -123h-20q3 71 -33.5 110t-112.5 39q-184 0 -232 -244q-47 -244 137 -244q76 0 128 39t76 110h20q-27 -79 -85 -123t-143 -44q-103 0 -140.5 68t-12.5 194zM330 725h18l99 -161h-23l-88 144l-144 -144h-23z" />
    <glyph glyph-name="Cdotaccent" unicode="&#x10a;" horiz-adv-x="617" 
d="M78 350q38 203 131 290q77 72 194 72q111 0 162.5 -62.5t37.5 -173.5h-20q12 101 -34 159.5t-150 58.5q-108 0 -177 -66q-86 -81 -124 -278q-39 -195 15 -278q45 -66 153 -66q104 0 172.5 58.5t95.5 159.5h20q-28 -111 -104.5 -173.5t-187.5 -62.5q-116 0 -166 72
q-58 86 -18 290zM442 859l-7 -36h-36l7 36h36z" />
    <glyph glyph-name="cdotaccent" unicode="&#x10b;" horiz-adv-x="499" 
d="M48 250q25 126 88.5 194t166.5 68q85 0 126.5 -44t36.5 -123h-20q3 71 -33.5 110t-112.5 39q-184 0 -232 -244q-47 -244 137 -244q76 0 128 39t76 110h20q-27 -79 -85 -123t-143 -44q-103 0 -140.5 68t-12.5 194zM345 660l-7 -36h-36l7 36h36z" />
    <glyph glyph-name="Ccaron" unicode="&#x10c;" horiz-adv-x="617" 
d="M78 350q38 203 131 290q77 72 194 72q111 0 162.5 -62.5t37.5 -173.5h-20q12 101 -34 159.5t-150 58.5q-108 0 -177 -66q-86 -81 -124 -278q-39 -195 15 -278q45 -66 153 -66q104 0 172.5 58.5t95.5 159.5h20q-28 -111 -104.5 -173.5t-187.5 -62.5q-116 0 -166 72
q-58 86 -18 290zM415 763h-18l-99 161h23l88 -144l144 144h23z" />
    <glyph glyph-name="ccaron" unicode="&#x10d;" horiz-adv-x="499" 
d="M48 250q25 126 88.5 194t166.5 68q85 0 126.5 -44t36.5 -123h-20q3 71 -33.5 110t-112.5 39q-184 0 -232 -244q-47 -244 137 -244q76 0 128 39t76 110h20q-27 -79 -85 -123t-143 -44q-103 0 -140.5 68t-12.5 194zM317 564h-18l-99 161h23l88 -144l144 144h23z" />
    <glyph glyph-name="Dcaron" unicode="&#x10e;" horiz-adv-x="628" 
d="M395 682h-209l-129 -664h209q109 0 178 66q87 84 122 266t-19 266q-42 66 -152 66zM34 0l136 700h229q117 0 166 -71q58 -85 21 -279q-39 -194 -130 -279q-75 -71 -193 -71h-229zM391 763h-18l-99 161h23l88 -144l144 144h23z" />
    <glyph glyph-name="dcaron" unicode="&#x10f;" horiz-adv-x="555" 
d="M48 250q25 126 88.5 194t166.5 68q71 0 111.5 -33.5t47.5 -97.5l62 319h20l-136 -700h-20l23 119q-65 -131 -210 -131q-103 0 -140.5 68t-12.5 194zM436 250q48 244 -136 244t-232 -244q-47 -244 137 -244t231 244zM610 615l17 85h24l-17 -84q-9 -50 -29.5 -74t-56.5 -37
l4 24q45 20 58 86z" />
    <glyph glyph-name="Dcroat" unicode="&#x110;" horiz-adv-x="628" 
d="M26 341l3 18h74l67 341h229q117 0 166 -71q58 -85 21 -279q-39 -194 -130 -279q-75 -71 -193 -71h-229l66 341h-74zM395 682h-209l-63 -323h171l-3 -18h-171l-63 -323h209q109 0 178 66q87 84 122 266t-19 266q-42 66 -152 66z" />
    <glyph glyph-name="dcroat" unicode="&#x111;" horiz-adv-x="530" 
d="M583 595h-60l-115 -595h-20l23 119q-65 -131 -210 -131q-103 0 -140.5 68t-12.5 194t88.5 194t166.5 68q71 0 111.5 -33.5t47.5 -97.5l41 214h-180l4 18h180l17 87h20l-17 -87h60zM436 250q48 244 -136 244t-232 -244q-47 -244 137 -244t231 244z" />
    <glyph glyph-name="Emacron" unicode="&#x112;" horiz-adv-x="512" 
d="M34 0l136 700h381l-4 -18h-361l-61 -314h325l-3 -18h-325l-65 -332h366l-3 -18h-386zM244 832l4 20h282l-4 -20h-282z" />
    <glyph glyph-name="emacron" unicode="&#x113;" horiz-adv-x="508" 
d="M404 142h20q-27 -73 -84.5 -113.5t-138.5 -40.5q-103 0 -140.5 68t-12.5 194t88.5 194t166.5 68t140.5 -68t12.5 -194v-2h-388q-47 -242 137 -242q144 0 199 136zM300 494q-180 0 -229 -228h368q38 228 -139 228zM186 633l3 20h282l-3 -20h-282z" />
    <glyph glyph-name="Ebreve" unicode="&#x114;" horiz-adv-x="512" 
d="M34 0l136 700h381l-4 -18h-361l-61 -314h325l-3 -18h-325l-65 -332h366l-3 -18h-386zM372 765q-127 0 -107 148h20q-18 -130 91 -130q108 0 141 130h20q-36 -148 -165 -148z" />
    <glyph glyph-name="ebreve" unicode="&#x115;" horiz-adv-x="508" 
d="M404 142h20q-27 -73 -84.5 -113.5t-138.5 -40.5q-103 0 -140.5 68t-12.5 194t88.5 194t166.5 68t140.5 -68t12.5 -194v-2h-388q-47 -242 137 -242q144 0 199 136zM300 494q-180 0 -229 -228h368q38 228 -139 228zM314 568q-129 0 -107 148h20q-18 -130 90 -130
q109 0 142 130h20q-38 -148 -165 -148z" />
    <glyph glyph-name="Edotaccent" unicode="&#x116;" horiz-adv-x="512" 
d="M34 0l136 700h381l-4 -18h-361l-61 -314h325l-3 -18h-325l-65 -332h366l-3 -18h-386zM408 859l-7 -36h-36l7 36h36z" />
    <glyph glyph-name="edotaccent" unicode="&#x117;" horiz-adv-x="508" 
d="M404 142h20q-27 -73 -84.5 -113.5t-138.5 -40.5q-103 0 -140.5 68t-12.5 194t88.5 194t166.5 68t140.5 -68t12.5 -194v-2h-388q-47 -242 137 -242q144 0 199 136zM300 494q-180 0 -229 -228h368q38 228 -139 228zM350 660l-7 -36h-36l7 36h36z" />
    <glyph glyph-name="Eogonek" unicode="&#x118;" horiz-adv-x="512" 
d="M34 0l136 700h381l-4 -18h-361l-61 -314h325l-3 -18h-325l-65 -332h366l-3 -18h-66q-57 -22 -88.5 -54t-37.5 -67l-1 -5q-7 -37 12 -56t59 -19q50 0 90 29l8 -15q-44 -32 -101 -32q-50 0 -73 25t-15 68l1 4q7 36 38 69.5t76 52.5h-288z" />
    <glyph glyph-name="eogonek" unicode="&#x119;" horiz-adv-x="508" 
d="M404 142h20q-53 -137 -192 -152q-88 -41 -102 -111l-1 -5q-7 -37 12 -56t59 -19q50 0 90 29l8 -15q-44 -32 -101 -32q-50 0 -73 25t-15 68l1 4q13 70 90 110q-203 1 -152 262q25 126 88.5 194t166.5 68t140.5 -68t12.5 -194v-2h-388q-47 -242 137 -242q144 0 199 136z
M300 494q-180 0 -229 -228h368q38 228 -139 228z" />
    <glyph glyph-name="Ecaron" unicode="&#x11a;" horiz-adv-x="512" 
d="M34 0l136 700h381l-4 -18h-361l-61 -314h325l-3 -18h-325l-65 -332h366l-3 -18h-386zM381 763h-18l-99 161h23l88 -144l144 144h23z" />
    <glyph glyph-name="ecaron" unicode="&#x11b;" horiz-adv-x="508" 
d="M404 142h20q-27 -73 -84.5 -113.5t-138.5 -40.5q-103 0 -140.5 68t-12.5 194t88.5 194t166.5 68t140.5 -68t12.5 -194v-2h-388q-47 -242 137 -242q144 0 199 136zM300 494q-180 0 -229 -228h368q38 228 -139 228zM322 564h-18l-99 161h23l88 -144l144 144h23z" />
    <glyph glyph-name="Gcircumflex" unicode="&#x11c;" horiz-adv-x="639" 
d="M78 350q38 203 131 290q77 72 194 72q111 0 162.5 -62.5t37.5 -173.5h-20q12 101 -34 159.5t-150 58.5q-108 0 -177 -66q-86 -81 -124 -278q-39 -195 15 -278q45 -66 153 -66q105 0 177 66q34 31 63 82.5t40 109.5l11 58h-225l4 18h245l-66 -340h-20l32 167
q-22 -62 -70 -106q-77 -73 -195 -73q-116 0 -166 72q-58 86 -18 290zM427 924h18l99 -161h-23l-88 144l-144 -144h-23z" />
    <glyph glyph-name="gcircumflex" unicode="&#x11d;" horiz-adv-x="530" 
d="M436 250q48 244 -136 244t-232 -244q-47 -244 137 -244t231 244zM15 -88h20q-2 -58 35 -92t106 -34q81 0 134.5 47t70.5 131l30 155q-65 -131 -210 -131q-103 0 -140.5 68t-12.5 194t88.5 194t166.5 68q71 0 111.5 -33.5t47.5 -97.5l23 119h20l-104 -536
q-18 -90 -77 -143t-152 -53q-81 0 -121 39.5t-36 104.5zM351 725h18l99 -161h-23l-88 144l-144 -144h-23z" />
    <glyph glyph-name="Gbreve" unicode="&#x11e;" horiz-adv-x="639" 
d="M78 350q38 203 131 290q77 72 194 72q111 0 162.5 -62.5t37.5 -173.5h-20q12 101 -34 159.5t-150 58.5q-108 0 -177 -66q-86 -81 -124 -278q-39 -195 15 -278q45 -66 153 -66q105 0 177 66q34 31 63 82.5t40 109.5l11 58h-225l4 18h245l-66 -340h-20l32 167
q-22 -62 -70 -106q-77 -73 -195 -73q-116 0 -166 72q-58 86 -18 290zM405 765q-127 0 -107 148h20q-18 -130 91 -130t141 130h20q-36 -148 -165 -148z" />
    <glyph glyph-name="gbreve" unicode="&#x11f;" horiz-adv-x="530" 
d="M436 250q48 244 -136 244t-232 -244q-47 -244 137 -244t231 244zM15 -88h20q-2 -58 35 -92t106 -34q81 0 134.5 47t70.5 131l30 155q-65 -131 -210 -131q-103 0 -140.5 68t-12.5 194t88.5 194t166.5 68q71 0 111.5 -33.5t47.5 -97.5l23 119h20l-104 -536
q-18 -90 -77 -143t-152 -53q-81 0 -121 39.5t-36 104.5zM330 568q-129 0 -107 148h20q-18 -130 90 -130q109 0 142 130h20q-38 -148 -165 -148z" />
    <glyph glyph-name="Gdotaccent" unicode="&#x120;" horiz-adv-x="639" 
d="M78 350q38 203 131 290q77 72 194 72q111 0 162.5 -62.5t37.5 -173.5h-20q12 101 -34 159.5t-150 58.5q-108 0 -177 -66q-86 -81 -124 -278q-39 -195 15 -278q45 -66 153 -66q105 0 177 66q34 31 63 82.5t40 109.5l11 58h-225l4 18h245l-66 -340h-20l32 167
q-22 -62 -70 -106q-77 -73 -195 -73q-116 0 -166 72q-58 86 -18 290zM441 859l-7 -36h-36l7 36h36z" />
    <glyph glyph-name="gdotaccent" unicode="&#x121;" horiz-adv-x="530" 
d="M436 250q48 244 -136 244t-232 -244q-47 -244 137 -244t231 244zM15 -88h20q-2 -58 35 -92t106 -34q81 0 134.5 47t70.5 131l30 155q-65 -131 -210 -131q-103 0 -140.5 68t-12.5 194t88.5 194t166.5 68q71 0 111.5 -33.5t47.5 -97.5l23 119h20l-104 -536
q-18 -90 -77 -143t-152 -53q-81 0 -121 39.5t-36 104.5zM366 660l-7 -36h-36l7 36h36z" />
    <glyph glyph-name="Gcommaaccent" unicode="&#x122;" horiz-adv-x="639" 
d="M78 350q38 203 131 290q77 72 194 72q111 0 162.5 -62.5t37.5 -173.5h-20q12 101 -34 159.5t-150 58.5q-108 0 -177 -66q-86 -81 -124 -278q-39 -195 15 -278q45 -66 153 -66q105 0 177 66q34 31 63 82.5t40 109.5l11 58h-225l4 18h245l-66 -340h-20l32 167
q-22 -62 -70 -106q-77 -73 -195 -73q-116 0 -166 72q-58 86 -18 290zM205 -218h-21l92 170h22z" />
    <glyph glyph-name="gcommaaccent" unicode="&#x123;" horiz-adv-x="530" 
d="M436 250q48 244 -136 244t-232 -244q-47 -244 137 -244t231 244zM15 -88h20q-2 -58 35 -92t106 -34q81 0 134.5 47t70.5 131l30 155q-65 -131 -210 -131q-103 0 -140.5 68t-12.5 194t88.5 194t166.5 68q71 0 111.5 -33.5t47.5 -97.5l23 119h20l-104 -536
q-18 -90 -77 -143t-152 -53q-81 0 -121 39.5t-36 104.5zM384 724h21l-92 -170h-22z" />
    <glyph glyph-name="Hcircumflex" unicode="&#x124;" horiz-adv-x="620" 
d="M466 0l68 350h-412l-68 -350h-20l136 700h20l-65 -332h412l65 332h20l-136 -700h-20zM430 924h18l99 -161h-23l-88 144l-144 -144h-23z" />
    <glyph glyph-name="hcircumflex" unicode="&#x125;" horiz-adv-x="529" 
d="M42 0h-20l136 700h20l-67 -342q34 73 93.5 113.5t132.5 40.5q82 0 116.5 -54t15.5 -152l-59 -306h-20l59 306q18 91 -12 139.5t-105 48.5q-84 0 -150.5 -64t-90.5 -176zM202 924h18l99 -161h-23l-88 144l-144 -144h-23z" />
    <glyph glyph-name="Hbar" unicode="&#x126;" horiz-adv-x="620" 
d="M670 568l-4 -18h-74l-106 -550h-20l68 350h-412l-68 -350h-20l106 550h-74l4 18h74l26 132h20l-26 -132h412l26 132h20l-26 -132h74zM125 368h412l35 182h-412z" />
    <glyph glyph-name="hbar" unicode="&#x127;" horiz-adv-x="529" 
d="M42 0h-20l115 595h-60l4 18h60l17 87h20l-17 -87h180l-4 -18h-180l-46 -237q34 73 93.5 113.5t132.5 40.5q82 0 116.5 -54t15.5 -152l-59 -306h-20l59 306q18 91 -12 139.5t-105 48.5q-84 0 -150.5 -64t-90.5 -176z" />
    <glyph glyph-name="Itilde" unicode="&#x128;" horiz-adv-x="188" 
d="M190 700l-136 -700h-20l136 700h20zM264 774q-23 0 -40 18t-25 39t-21.5 39t-32.5 18q-27 0 -44 -25t-27 -81h-20q11 61 33.5 92.5t63.5 31.5q23 0 40 -18t24.5 -39t21 -39t32.5 -18q27 0 44 25t28 81h20q-12 -61 -34.5 -92.5t-62.5 -31.5z" />
    <glyph glyph-name="itilde" unicode="&#x129;" horiz-adv-x="174" 
d="M47 0h-20l97 500h20zM218 575q-23 0 -40 18t-25 39t-21.5 39t-32.5 18q-27 0 -44 -25t-27 -81h-20q12 61 34.5 92.5t62.5 31.5q23 0 40 -18t25 -39t21.5 -39t32.5 -18q27 0 44 25t27 81h20q-11 -61 -33.5 -92.5t-63.5 -31.5z" />
    <glyph glyph-name="Imacron" unicode="&#x12a;" horiz-adv-x="188" 
d="M190 700l-136 -700h-20l136 700h20zM64 832l4 20h282l-4 -20h-282z" />
    <glyph glyph-name="imacron" unicode="&#x12b;" horiz-adv-x="174" 
d="M47 0h-20l97 500h20zM19 633l3 20h282l-3 -20h-282z" />
    <glyph glyph-name="Ibreve" unicode="&#x12c;" horiz-adv-x="188" 
d="M190 700l-136 -700h-20l136 700h20zM192 765q-127 0 -107 148h20q-18 -130 91 -130q108 0 141 130h20q-36 -148 -165 -148z" />
    <glyph glyph-name="ibreve" unicode="&#x12d;" horiz-adv-x="174" 
d="M47 0h-20l97 500h20zM147 568q-129 0 -107 148h20q-18 -130 90 -130q110 0 142 130h20q-38 -148 -165 -148z" />
    <glyph glyph-name="Iogonek" unicode="&#x12e;" horiz-adv-x="188" 
d="M190 700l-136 -700q-110 -43 -125 -121l-1 -5q-7 -37 12 -56t58 -19q50 0 90 29l8 -15q-44 -32 -101 -32q-50 0 -72.5 25t-14.5 68l1 4q7 40 41 74t84 53l136 695h20z" />
    <glyph glyph-name="iogonek" unicode="&#x12f;" horiz-adv-x="174" 
d="M144 500l-97 -500q-110 -43 -125 -121l-1 -5q-7 -37 12 -56t58 -19q50 0 90 29l8 -15q-44 -32 -101 -32q-50 0 -72.5 25t-14.5 68l1 4q7 40 41 74t84 53l97 495h20zM167 620h-20l16 80h20z" />
    <glyph glyph-name="Idotaccent" unicode="&#x130;" horiz-adv-x="188" 
d="M190 700l-136 -700h-20l136 700h20zM228 859l-7 -36h-36l7 36h36z" />
    <glyph glyph-name="dotlessi" unicode="&#x131;" horiz-adv-x="174" 
d="M47 0h-20l97 500h20z" />
    <glyph glyph-name="IJ" unicode="&#x132;" horiz-adv-x="690" 
d="M190 700l-136 -700h-20l136 700h20zM361 -12q-97 0 -135 59.5t-17 165.5h20v-1q-19 -96 15 -151t121 -55q86 0 141.5 55t74.5 151l95 488h20l-95 -486q-21 -106 -82 -166t-158 -60z" />
    <glyph glyph-name="ij" unicode="&#x133;" horiz-adv-x="348" 
d="M47 0h-20l97 500h20zM167 620h-20l16 80h20zM318 500l-120 -617q-20 -101 -120 -101q-15 0 -21 1l4 17h20q80 0 98 87l119 613h20zM341 620h-20l16 80h20z" />
    <glyph glyph-name="Jcircumflex" unicode="&#x134;" horiz-adv-x="502" 
d="M173 -12q-97 0 -135 59.5t-17 165.5h20v-1q-19 -96 15 -151t121 -55q86 0 141.5 55t74.5 151l95 488h20l-95 -486q-21 -106 -82 -166t-158 -60zM532 924h18l99 -161h-23l-88 144l-144 -144h-23z" />
    <glyph glyph-name="jcircumflex" unicode="&#x135;" horiz-adv-x="174" 
d="M144 500l-120 -617q-20 -101 -119 -101q-15 0 -21 1l4 17h20q79 0 97 87l119 613h20zM168 725h18l99 -161h-23l-88 144l-144 -144h-23z" />
    <glyph glyph-name="Kcommaaccent" unicode="&#x136;" horiz-adv-x="535" 
d="M590 700l-341 -341l236 -359h-26l-229 350h-108l-68 -350h-20l136 700h20l-65 -332h108l331 332h26zM147 -218h-21l92 170h22z" />
    <glyph glyph-name="kcommaaccent" unicode="&#x137;" horiz-adv-x="429" 
d="M42 0h-20l136 700h20l-84 -430h79l249 230h25l-258 -239l184 -261h-26l-178 252h-79zM92 -218h-21l92 170h22z" />
    <glyph glyph-name="kgreenlandic" unicode="&#x138;" horiz-adv-x="429" 
d="M42 0h-20l97 500h20l-45 -230h79l249 230h25l-258 -239l184 -261h-26l-178 252h-79z" />
    <glyph glyph-name="Lacute" unicode="&#x139;" horiz-adv-x="485" 
d="M34 0l136 700h20l-133 -682h366l-3 -18h-386zM324 924l-141 -161h-22l141 161h22z" />
    <glyph glyph-name="lacute" unicode="&#x13a;" horiz-adv-x="174" 
d="M47 0h-20l136 700h20zM307 924l-141 -161h-22l141 161h22z" />
    <glyph glyph-name="Lcommaaccent" unicode="&#x13b;" horiz-adv-x="485" 
d="M34 0l136 700h20l-133 -682h366l-3 -18h-386zM151 -218h-21l92 170h22z" />
    <glyph glyph-name="lcommaaccent" unicode="&#x13c;" horiz-adv-x="174" 
d="M47 0h-20l136 700h20zM-30 -218h-20l91 170h22z" />
    <glyph glyph-name="Lcaron" unicode="&#x13d;" horiz-adv-x="485" 
d="M34 0l136 700h20l-133 -682h366l-3 -18h-386zM378 615l17 85h24l-17 -84q-9 -50 -29.5 -74t-56.5 -37l4 24q45 20 58 86z" />
    <glyph glyph-name="lcaron" unicode="&#x13e;" horiz-adv-x="194" 
d="M47 0h-20l136 700h20zM249 615l17 85h24l-17 -84q-9 -50 -29.5 -74t-56.5 -37l4 24q45 20 58 86z" />
    <glyph glyph-name="Ldot" unicode="&#x13f;" horiz-adv-x="485" 
d="M34 0l136 700h20l-133 -682h366l-3 -18h-386zM338 395l-7 -36h-36l7 36h36z" />
    <glyph glyph-name="ldot" unicode="&#x140;" horiz-adv-x="213" 
d="M47 0h-20l136 700h20zM229 395l-7 -36h-36l7 36h36z" />
    <glyph glyph-name="Lslash" unicode="&#x141;" horiz-adv-x="485" 
d="M23 256l4 20l66 31l77 393h20l-75 -382l234 111l-4 -20l-234 -111l-54 -280h366l-3 -18h-386l55 287z" />
    <glyph glyph-name="lslash" unicode="&#x142;" horiz-adv-x="234" 
d="M77 0h-20l64 334l-95 -45l4 20l95 45l68 346h20l-66 -335l96 46l-3 -20l-96 -46z" />
    <glyph glyph-name="Nacute" unicode="&#x143;" horiz-adv-x="630" 
d="M496 0h-20l-293 665l-129 -665h-20l136 700h20l292 -665l130 665h20zM525 924l-141 -161h-22l141 161h22z" />
    <glyph glyph-name="nacute" unicode="&#x144;" horiz-adv-x="530" 
d="M42 0h-20l97 500h20l-28 -142q34 73 93.5 113.5t132.5 40.5q82 0 116.5 -54t15.5 -152l-59 -306h-20l59 306q18 91 -12 139.5t-105 48.5q-84 0 -150.5 -64t-90.5 -176zM431 725l-141 -161h-22l141 161h22z" />
    <glyph glyph-name="Ncommaaccent" unicode="&#x145;" horiz-adv-x="630" 
d="M496 0h-20l-293 665l-129 -665h-20l136 700h20l292 -665l130 665h20zM203 -218h-21l92 170h22z" />
    <glyph glyph-name="ncommaaccent" unicode="&#x146;" horiz-adv-x="530" 
d="M42 0h-20l97 500h20l-28 -142q34 73 93.5 113.5t132.5 40.5q82 0 116.5 -54t15.5 -152l-59 -306h-20l59 306q18 91 -12 139.5t-105 48.5q-84 0 -150.5 -64t-90.5 -176zM148 -218h-21l92 170h22z" />
    <glyph glyph-name="Ncaron" unicode="&#x147;" horiz-adv-x="630" 
d="M496 0h-20l-293 665l-129 -665h-20l136 700h20l292 -665l130 665h20zM422 763h-18l-99 161h23l88 -144l144 144h23z" />
    <glyph glyph-name="ncaron" unicode="&#x148;" horiz-adv-x="530" 
d="M42 0h-20l97 500h20l-28 -142q34 73 93.5 113.5t132.5 40.5q82 0 116.5 -54t15.5 -152l-59 -306h-20l59 306q18 91 -12 139.5t-105 48.5q-84 0 -150.5 -64t-90.5 -176zM333 564h-18l-99 161h23l88 -144l144 144h23z" />
    <glyph glyph-name="napostrophe" unicode="&#x149;" horiz-adv-x="530" 
d="M42 0h-20l97 500h20l-28 -142q34 73 93.5 113.5t132.5 40.5q82 0 116.5 -54t15.5 -152l-59 -306h-20l59 306q18 91 -12 139.5t-105 48.5q-84 0 -150.5 -64t-90.5 -176zM120 615l17 85h24l-17 -84q-9 -50 -29.5 -74t-56.5 -37l4 24q45 20 58 86z" />
    <glyph glyph-name="Eng" unicode="&#x14a;" horiz-adv-x="630" 
d="M632 700l-159 -817q-20 -101 -120 -101q-15 0 -21 1l4 17h20q80 0 98 87l22 113l-293 665l-129 -665h-20l136 700h20l292 -665l130 665h20z" />
    <glyph glyph-name="eng" unicode="&#x14b;" horiz-adv-x="529" 
d="M42 0h-20l97 500h20l-28 -142q34 73 93.5 113.5t132.5 40.5q82 0 116.5 -54t15.5 -152l-82 -423q-20 -101 -120 -101q-15 0 -21 1l4 17h20q80 0 98 87l81 419q18 91 -12 139.5t-105 48.5q-84 0 -150.5 -64t-90.5 -176z" />
    <glyph glyph-name="Omacron" unicode="&#x14c;" horiz-adv-x="630" 
d="M568 350q37 196 -16 278q-45 66 -153 66t-177 -66q-86 -81 -124 -278q-39 -195 15 -278q45 -66 153 -66t177 66q85 80 125 278zM78 350q38 203 131 290q77 72 194 72t166 -72q57 -85 19 -290q-40 -203 -132 -290q-76 -72 -194 -72q-116 0 -166 72q-58 86 -18 290z
M285 832l4 20h282l-4 -20h-282z" />
    <glyph glyph-name="omacron" unicode="&#x14d;" horiz-adv-x="508" 
d="M456 250q-25 -126 -88.5 -194t-166.5 -68t-140.5 68t-12.5 194t88.5 194t166.5 68t140.5 -68t12.5 -194zM436 250q48 244 -136 244t-232 -244q-47 -244 137 -244t231 244zM186 633l3 20h282l-3 -20h-282z" />
    <glyph glyph-name="Obreve" unicode="&#x14e;" horiz-adv-x="630" 
d="M568 350q37 196 -16 278q-45 66 -153 66t-177 -66q-86 -81 -124 -278q-39 -195 15 -278q45 -66 153 -66t177 66q85 80 125 278zM78 350q38 203 131 290q77 72 194 72t166 -72q57 -85 19 -290q-40 -203 -132 -290q-76 -72 -194 -72q-116 0 -166 72q-58 86 -18 290z
M413 765q-127 0 -107 148h20q-18 -130 91 -130t141 130h20q-36 -148 -165 -148z" />
    <glyph glyph-name="obreve" unicode="&#x14f;" horiz-adv-x="508" 
d="M456 250q-25 -126 -88.5 -194t-166.5 -68t-140.5 68t-12.5 194t88.5 194t166.5 68t140.5 -68t12.5 -194zM436 250q48 244 -136 244t-232 -244q-47 -244 137 -244t231 244zM314 568q-129 0 -107 148h20q-18 -130 90 -130q109 0 142 130h20q-38 -148 -165 -148z" />
    <glyph glyph-name="Ohungarumlaut" unicode="&#x150;" horiz-adv-x="630" 
d="M568 350q37 196 -16 278q-45 66 -153 66t-177 -66q-86 -81 -124 -278q-39 -195 15 -278q45 -66 153 -66t177 66q85 80 125 278zM78 350q38 203 131 290q77 72 194 72t166 -72q57 -85 19 -290q-40 -203 -132 -290q-76 -72 -194 -72q-116 0 -166 72q-58 86 -18 290z
M470 924l-141 -161h-22l141 161h22zM590 924l-141 -161h-22l141 161h22z" />
    <glyph glyph-name="ohungarumlaut" unicode="&#x151;" horiz-adv-x="508" 
d="M456 250q-25 -126 -88.5 -194t-166.5 -68t-140.5 68t-12.5 194t88.5 194t166.5 68t140.5 -68t12.5 -194zM436 250q48 244 -136 244t-232 -244q-47 -244 137 -244t231 244zM375 725l-141 -161h-22l141 161h22zM495 725l-141 -161h-22l141 161h22z" />
    <glyph glyph-name="OE" unicode="&#x152;" horiz-adv-x="942" 
d="M98 71q-58 87 -20 279q36 192 129 279q75 71 194 71h580l-4 -18h-361l-61 -314h325l-3 -18h-325l-65 -332h366l-3 -18h-585q-118 0 -167 71zM596 682h-199q-109 0 -178 -66q-85 -83 -121 -266q-36 -184 18 -266q42 -66 152 -66h199z" />
    <glyph glyph-name="oe" unicode="&#x153;" horiz-adv-x="896" 
d="M593 6q144 0 199 136h20q-26 -72 -84 -113t-139 -41t-122.5 43.5t-39.5 121.5q-28 -78 -87 -121.5t-139 -43.5q-103 0 -140.5 68t-12.5 194t88.5 194t166.5 68q80 0 121.5 -43.5t40.5 -121.5q29 78 87.5 121.5t138.5 43.5q103 0 140.5 -68t12.5 -194v-2h-388l-2 -10
q-42 -232 139 -232zM688 494q-180 0 -229 -228h368q38 228 -139 228zM436 250q48 244 -136 244t-232 -244q-47 -244 137 -244t231 244z" />
    <glyph glyph-name="Racute" unicode="&#x154;" horiz-adv-x="602" 
d="M498 0h-20q-5 28 0 64l13 100q10 71 -25.5 104.5t-123.5 33.5h-230l-58 -302h-20l136 700h248q107 0 149 -52.5t24 -146.5q-31 -158 -175 -190q57 -11 80.5 -45t14.5 -102l-13 -100q-4 -40 0 -64zM116 320h231q94 0 150.5 47.5t73.5 133.5t-21.5 133.5t-132.5 47.5h-231z
M498 924l-141 -161h-22l141 161h22z" />
    <glyph glyph-name="racute" unicode="&#x155;" horiz-adv-x="303" 
d="M297 493q-160 0 -207 -243l-48 -250h-20l97 500h20l-26 -133q54 145 187 145q24 0 33 -3l-3 -19q-12 3 -33 3zM335 725l-141 -161h-22l141 161h22z" />
    <glyph glyph-name="Rcommaaccent" unicode="&#x156;" horiz-adv-x="602" 
d="M498 0h-20q-5 28 0 64l13 100q10 71 -25.5 104.5t-123.5 33.5h-230l-58 -302h-20l136 700h248q107 0 149 -52.5t24 -146.5q-31 -158 -175 -190q57 -11 80.5 -45t14.5 -102l-13 -100q-4 -40 0 -64zM116 320h231q94 0 150.5 47.5t73.5 133.5t-21.5 133.5t-132.5 47.5h-231z
M186 -218h-21l92 170h22z" />
    <glyph glyph-name="rcommaaccent" unicode="&#x157;" horiz-adv-x="303" 
d="M297 493q-160 0 -207 -243l-48 -250h-20l97 500h20l-26 -133q54 145 187 145q24 0 33 -3l-3 -19q-12 3 -33 3zM-20 -218h-21l92 170h22z" />
    <glyph glyph-name="Rcaron" unicode="&#x158;" horiz-adv-x="602" 
d="M498 0h-20q-5 28 0 64l13 100q10 71 -25.5 104.5t-123.5 33.5h-230l-58 -302h-20l136 700h248q107 0 149 -52.5t24 -146.5q-31 -158 -175 -190q57 -11 80.5 -45t14.5 -102l-13 -100q-4 -40 0 -64zM116 320h231q94 0 150.5 47.5t73.5 133.5t-21.5 133.5t-132.5 47.5h-231z
M385 763h-18l-99 161h23l88 -144l144 144h23z" />
    <glyph glyph-name="rcaron" unicode="&#x159;" horiz-adv-x="303" 
d="M297 493q-160 0 -207 -243l-48 -250h-20l97 500h20l-26 -133q54 145 187 145q24 0 33 -3l-3 -19q-12 3 -33 3zM242 564h-18l-99 161h23l88 -144l144 144h23z" />
    <glyph glyph-name="Sacute" unicode="&#x15a;" horiz-adv-x="560" 
d="M236 6q95 0 159 48t79 121q26 135 -142 170l-87 18q-159 32 -132 172q16 77 82 127t165 50q100 0 146.5 -50t30.5 -127l-3 -20h-20l3 20q14 72 -28.5 115.5t-132.5 43.5q-89 0 -148.5 -43.5t-74.5 -115.5q-23 -125 121 -154l86 -18q182 -38 154 -188
q-16 -80 -85.5 -133.5t-176.5 -53.5t-155.5 53.5t-32.5 133.5l4 25h20l-4 -25q-15 -73 31 -121t141 -48zM484 924l-141 -161h-22l141 161h22z" />
    <glyph glyph-name="sacute" unicode="&#x15b;" horiz-adv-x="457" 
d="M417 384l-4 -21h-20l4 21q9 49 -24.5 79.5t-103.5 30.5t-116.5 -31t-55.5 -80q-9 -48 15 -72.5t91 -38.5l75 -15q69 -13 94 -44.5t14 -85.5q-12 -63 -70 -101t-138 -38t-123 38t-31 101l4 19h20l-4 -19q-10 -55 28.5 -88t109.5 -33t122.5 33t61.5 88q10 49 -12.5 74.5
t-87.5 38.5l-75 15q-71 14 -98 44.5t-16 84.5q11 55 63 91.5t132 36.5t118 -36.5t27 -91.5zM391 725l-141 -161h-22l141 161h22z" />
    <glyph glyph-name="Scircumflex" unicode="&#x15c;" horiz-adv-x="560" 
d="M236 6q95 0 159 48t79 121q26 135 -142 170l-87 18q-159 32 -132 172q16 77 82 127t165 50q100 0 146.5 -50t30.5 -127l-3 -20h-20l3 20q14 72 -28.5 115.5t-132.5 43.5q-89 0 -148.5 -43.5t-74.5 -115.5q-23 -125 121 -154l86 -18q182 -38 154 -188
q-16 -80 -85.5 -133.5t-176.5 -53.5t-155.5 53.5t-32.5 133.5l4 25h20l-4 -25q-15 -73 31 -121t141 -48zM394 924h18l99 -161h-23l-88 144l-144 -144h-23z" />
    <glyph glyph-name="scircumflex" unicode="&#x15d;" horiz-adv-x="457" 
d="M417 384l-4 -21h-20l4 21q9 49 -24.5 79.5t-103.5 30.5t-116.5 -31t-55.5 -80q-9 -48 15 -72.5t91 -38.5l75 -15q69 -13 94 -44.5t14 -85.5q-12 -63 -70 -101t-138 -38t-123 38t-31 101l4 19h20l-4 -19q-10 -55 28.5 -88t109.5 -33t122.5 33t61.5 88q10 49 -12.5 74.5
t-87.5 38.5l-75 15q-71 14 -98 44.5t-16 84.5q11 55 63 91.5t132 36.5t118 -36.5t27 -91.5zM304 725h18l99 -161h-23l-88 144l-144 -144h-23z" />
    <glyph glyph-name="Scedilla" unicode="&#x15e;" horiz-adv-x="560" 
d="M125 -208l14 16q27 -28 77 -28q40 0 65.5 18t31.5 50q7 37 -13 55.5t-61 18.5q-21 0 -43 -9l-10 11l45 64q-108 1 -155.5 54t-31.5 133l4 25h20l-4 -25q-15 -73 31 -121t141 -48t159 48t79 121q26 135 -142 170l-87 18q-159 32 -132 172q16 77 82 127t165 50
q100 0 146.5 -50t30.5 -127l-3 -20h-20l3 20q14 72 -28.5 115.5t-132.5 43.5q-89 0 -148.5 -43.5t-74.5 -115.5q-23 -125 121 -154l86 -18q182 -38 154 -188q-15 -76 -79 -128.5t-164 -57.5l-41 -58q16 8 38 8q47 0 70 -25t15 -66q-8 -39 -39.5 -62.5t-81.5 -23.5
q-58 0 -87 30z" />
    <glyph glyph-name="scedilla" unicode="&#x15f;" horiz-adv-x="450" 
d="M65 -208l14 16q27 -28 77 -28q40 0 65.5 18t31.5 50q7 37 -13 55.5t-61 18.5q-21 0 -43 -9l-10 11l45 64q-77 2 -118 40t-29 99l4 19h20l-4 -19q-10 -55 28.5 -88t109.5 -33t122.5 33t61.5 88q10 49 -12.5 74.5t-87.5 38.5l-75 15q-71 14 -98 44.5t-16 84.5
q11 55 63 91.5t132 36.5t118 -36.5t27 -91.5l-4 -21h-20l4 21q9 49 -24.5 79.5t-103.5 30.5t-116.5 -31t-55.5 -80q-9 -48 15 -72.5t91 -38.5l75 -15q69 -13 94 -44.5t14 -85.5q-12 -61 -65.5 -98t-129.5 -40l-41 -58q16 8 38 8q47 0 70 -25t15 -66q-8 -39 -39.5 -62.5
t-81.5 -23.5q-58 0 -87 30z" />
    <glyph glyph-name="Scaron" unicode="&#x160;" horiz-adv-x="560" 
d="M236 6q95 0 159 48t79 121q26 135 -142 170l-87 18q-159 32 -132 172q16 77 82 127t165 50q100 0 146.5 -50t30.5 -127l-3 -20h-20l3 20q14 72 -28.5 115.5t-132.5 43.5q-89 0 -148.5 -43.5t-74.5 -115.5q-23 -125 121 -154l86 -18q182 -38 154 -188
q-16 -80 -85.5 -133.5t-176.5 -53.5t-155.5 53.5t-32.5 133.5l4 25h20l-4 -25q-15 -73 31 -121t141 -48zM376 763h-18l-99 161h23l88 -144l144 144h23z" />
    <glyph glyph-name="scaron" unicode="&#x161;" horiz-adv-x="457" 
d="M417 384l-4 -21h-20l4 21q9 49 -24.5 79.5t-103.5 30.5t-116.5 -31t-55.5 -80q-9 -48 15 -72.5t91 -38.5l75 -15q69 -13 94 -44.5t14 -85.5q-12 -63 -70 -101t-138 -38t-123 38t-31 101l4 19h20l-4 -19q-10 -55 28.5 -88t109.5 -33t122.5 33t61.5 88q10 49 -12.5 74.5
t-87.5 38.5l-75 15q-71 14 -98 44.5t-16 84.5q11 55 63 91.5t132 36.5t118 -36.5t27 -91.5zM288 564h-18l-99 161h23l88 -144l144 144h23z" />
    <glyph glyph-name="Tcommaaccent" unicode="&#x162;" horiz-adv-x="500" 
d="M75 -208l14 16q27 -28 77 -28q40 0 65.5 18t31.5 50q7 37 -13 55.5t-61 18.5q-21 0 -43 -9l-9 11l54 76h-1l132 682h-222l4 18h464l-4 -18h-222l-132 -682l-50 -69q16 8 38 8q47 0 70 -25t15 -66q-8 -39 -39.5 -62.5t-81.5 -23.5q-58 0 -87 30z" />
    <glyph glyph-name="tcommaaccent" unicode="&#x163;" horiz-adv-x="325" 
d="M167 482l-69 -356q-13 -65 11.5 -90t85.5 -25h48l-4 -17q-18 -1 -47 -1q-31 0 -50 4l-47 -66q16 8 38 8q47 0 70 -25t15 -66q-8 -39 -39.5 -62.5t-81.5 -23.5q-59 0 -87 30l14 16q27 -28 77 -28q40 0 65.5 18t31.5 50q7 37 -13 55.5t-61 18.5q-21 0 -43 -9l-10 11l54 77
q-67 24 -47 127l69 354h-78l4 18h78l27 142h20l-27 -142h167l-4 -18h-167z" />
    <glyph glyph-name="Tcaron" unicode="&#x164;" horiz-adv-x="500" 
d="M100 682l4 18h464l-4 -18h-222l-132 -682h-20l132 682h-222zM357 763h-18l-99 161h23l88 -144l144 144h23z" />
    <glyph glyph-name="tcaron" unicode="&#x165;" horiz-adv-x="348" 
d="M167 482l-69 -356q-13 -65 11.5 -90t85.5 -25h48l-4 -17q-18 -1 -47 -1q-73 0 -101 30t-13 105l69 354h-78l4 18h78l27 142h20l-27 -142h167l-4 -18h-167zM405 627l17 85h24l-16 -84q-10 -50 -30.5 -74t-56.5 -37l5 24q45 21 57 86z" />
    <glyph glyph-name="Tbar" unicode="&#x166;" horiz-adv-x="500" 
d="M127 349l4 18h130l61 315h-222l4 18h464l-4 -18h-222l-61 -315h130l-4 -18h-130l-67 -349h-20l67 349h-130z" />
    <glyph glyph-name="tbar" unicode="&#x167;" horiz-adv-x="325" 
d="M50 277h57l40 205h-78l4 18h78l27 142h20l-27 -142h167l-4 -18h-167l-40 -205h144l-3 -18h-144l-26 -133q-13 -65 11.5 -90t85.5 -25h48l-4 -17q-18 -1 -47 -1q-73 0 -101 30t-13 105l26 131h-57z" />
    <glyph glyph-name="Utilde" unicode="&#x168;" horiz-adv-x="638" 
d="M270 6q116 0 181 65t89 189l86 440h20l-86 -442q-54 -270 -294 -270q-125 0 -169 71.5t-19 198.5l86 442h20l-86 -440q-50 -254 172 -254zM489 774q-23 0 -40 18t-25 39t-21.5 39t-32.5 18q-27 0 -44 -25t-27 -81h-20q11 61 33.5 92.5t63.5 31.5q23 0 40 -18t24.5 -39
t21 -39t32.5 -18q27 0 44 25t28 81h20q-12 -61 -34.5 -92.5t-62.5 -31.5z" />
    <glyph glyph-name="utilde" unicode="&#x169;" horiz-adv-x="530" 
d="M137 500l-60 -306q-17 -91 13 -139.5t105 -48.5q84 0 150 64t90 176l50 254h20l-97 -500h-20l27 142q-34 -73 -93.5 -113.5t-132.5 -40.5q-82 0 -116.5 54t-15.5 152l60 306h20zM396 575q-23 0 -40 18t-25 39t-21.5 39t-32.5 18q-27 0 -44 -25t-27 -81h-20
q12 61 34.5 92.5t62.5 31.5q23 0 40 -18t25 -39t21.5 -39t32.5 -18q27 0 44 25t27 81h20q-11 -61 -33.5 -92.5t-63.5 -31.5z" />
    <glyph glyph-name="Umacron" unicode="&#x16a;" horiz-adv-x="638" 
d="M270 6q116 0 181 65t89 189l86 440h20l-86 -442q-54 -270 -294 -270q-125 0 -169 71.5t-19 198.5l86 442h20l-86 -440q-50 -254 172 -254zM289 832l4 20h282l-4 -20h-282z" />
    <glyph glyph-name="umacron" unicode="&#x16b;" horiz-adv-x="530" 
d="M137 500l-60 -306q-17 -91 13 -139.5t105 -48.5q84 0 150 64t90 176l50 254h20l-97 -500h-20l27 142q-34 -73 -93.5 -113.5t-132.5 -40.5q-82 0 -116.5 54t-15.5 152l60 306h20zM197 633l3 20h282l-3 -20h-282z" />
    <glyph glyph-name="Ubreve" unicode="&#x16c;" horiz-adv-x="638" 
d="M270 6q116 0 181 65t89 189l86 440h20l-86 -442q-54 -270 -294 -270q-125 0 -169 71.5t-19 198.5l86 442h20l-86 -440q-50 -254 172 -254zM417 765q-127 0 -107 148h20q-18 -130 91 -130t141 130h20q-36 -148 -165 -148z" />
    <glyph glyph-name="ubreve" unicode="&#x16d;" horiz-adv-x="530" 
d="M137 500l-60 -306q-17 -91 13 -139.5t105 -48.5q84 0 150 64t90 176l50 254h20l-97 -500h-20l27 142q-34 -73 -93.5 -113.5t-132.5 -40.5q-82 0 -116.5 54t-15.5 152l60 306h20zM325 568q-129 0 -107 148h20q-18 -130 90 -130q110 0 142 130h20q-38 -148 -165 -148z" />
    <glyph glyph-name="Uring" unicode="&#x16e;" horiz-adv-x="638" 
d="M270 6q116 0 181 65t89 189l86 440h20l-86 -442q-54 -270 -294 -270q-125 0 -169 71.5t-19 198.5l86 442h20l-86 -440q-50 -254 172 -254zM514 843q8 40 -10.5 63t-54.5 23t-63.5 -23t-35.5 -63q-7 -40 11.5 -63t54.5 -23t63.5 23t34.5 63zM330 843q10 47 44 75.5
t79 28.5t68 -28.5t13 -75.5q-9 -47 -43 -75.5t-79 -28.5t-68 28.5t-14 75.5z" />
    <glyph glyph-name="uring" unicode="&#x16f;" horiz-adv-x="530" 
d="M137 500l-60 -306q-17 -91 13 -139.5t105 -48.5q84 0 150 64t90 176l50 254h20l-97 -500h-20l27 142q-34 -73 -93.5 -113.5t-132.5 -40.5q-82 0 -116.5 54t-15.5 152l60 306h20zM422 644q7 40 -11.5 63t-54.5 23t-63.5 -23t-34.5 -63q-8 -40 10.5 -63t54.5 -23t63.5 23
t35.5 63zM238 644q9 47 43 75.5t79 28.5t68 -28.5t14 -75.5q-10 -47 -44 -75.5t-79 -28.5t-68 28.5t-13 75.5z" />
    <glyph glyph-name="Uhungarumlaut" unicode="&#x170;" horiz-adv-x="638" 
d="M270 6q116 0 181 65t89 189l86 440h20l-86 -442q-54 -270 -294 -270q-125 0 -169 71.5t-19 198.5l86 442h20l-86 -440q-50 -254 172 -254zM474 924l-141 -161h-22l141 161h22zM594 924l-141 -161h-22l141 161h22z" />
    <glyph glyph-name="uhungarumlaut" unicode="&#x171;" horiz-adv-x="530" 
d="M137 500l-60 -306q-17 -91 13 -139.5t105 -48.5q84 0 150 64t90 176l50 254h20l-97 -500h-20l27 142q-34 -73 -93.5 -113.5t-132.5 -40.5q-82 0 -116.5 54t-15.5 152l60 306h20zM386 725l-141 -161h-22l141 161h22zM506 725l-141 -161h-22l141 161h22z" />
    <glyph glyph-name="Uogonek" unicode="&#x172;" horiz-adv-x="638" 
d="M270 6q116 0 181 65t89 189l86 440h20l-86 -442q-48 -243 -249 -267q-90 -43 -104 -112l-1 -5q-7 -37 12 -56t59 -19q50 0 90 29l8 -15q-44 -32 -101 -32q-50 0 -73 25t-15 68l1 4q6 31 30 60.5t59 49.5h-10q-125 0 -169 71.5t-19 198.5l86 442h20l-86 -440
q-50 -254 172 -254z" />
    <glyph glyph-name="uogonek" unicode="&#x173;" horiz-adv-x="530" 
d="M137 500l-60 -306q-17 -91 13 -139.5t105 -48.5q86 0 153 67.5t90 184.5l47 242h20l-97 -500q-57 -22 -88.5 -54t-37.5 -67l-1 -5q-7 -37 12 -56t59 -19q50 0 90 29l8 -15q-44 -32 -101 -32q-50 0 -73 25t-15 68l1 4q7 39 41.5 73.5t84.5 53.5l27 137
q-34 -73 -93.5 -113.5t-132.5 -40.5q-82 0 -116.5 54t-15.5 152l60 306h20z" />
    <glyph glyph-name="Wcircumflex" unicode="&#x174;" horiz-adv-x="914" 
d="M534 700h18l82 -665l326 665h22l-343 -700h-20l-83 665l-341 -665h-20l-71 700h22l66 -665zM577 924h18l99 -161h-23l-88 144l-144 -144h-23z" />
    <glyph glyph-name="wcircumflex" unicode="&#x175;" horiz-adv-x="774" 
d="M424 500h20l77 -471l259 471h23l-277 -500h-20l-78 471l-260 -471h-20l-83 500h23l75 -471zM468 725h18l99 -161h-23l-88 144l-144 -144h-23z" />
    <glyph glyph-name="Ycircumflex" unicode="&#x176;" horiz-adv-x="572" 
d="M293 294l324 406h23l-341 -424l-53 -276h-20l53 276l-175 424h23zM406 924h18l99 -161h-23l-88 144l-144 -144h-23z" />
    <glyph glyph-name="ycircumflex" unicode="&#x177;" horiz-adv-x="484" 
d="M102 -131l78 130l-111 501h23l104 -476l290 476h23l-390 -636q-32 -51 -57.5 -66.5t-69.5 -15.5q-8 0 -14 1l4 17h13q37 0 59.5 14t47.5 55zM323 725h18l99 -161h-23l-88 144l-144 -144h-23z" />
    <glyph glyph-name="Ydieresis" unicode="&#x178;" horiz-adv-x="572" 
d="M293 294l324 406h23l-341 -424l-53 -276h-20l53 276l-175 424h23zM495 857l-6 -32h-32l6 32h32zM341 857l-6 -32h-32l6 32h32z" />
    <glyph glyph-name="Zacute" unicode="&#x179;" horiz-adv-x="518" 
d="M1 18l524 664h-385l4 18h407l-4 -18l-524 -664h400l-3 -18h-422zM474 924l-141 -161h-22l141 161h22z" />
    <glyph glyph-name="zacute" unicode="&#x17a;" horiz-adv-x="434" 
d="M430 500l-4 -18l-406 -464h323l-3 -18h-346l3 18l406 464h-308l4 18h331zM398 725l-141 -161h-22l141 161h22z" />
    <glyph glyph-name="Zdotaccent" unicode="&#x17b;" horiz-adv-x="518" 
d="M1 18l524 664h-385l4 18h407l-4 -18l-524 -664h400l-3 -18h-422zM393 859l-7 -36h-36l7 36h36z" />
    <glyph glyph-name="zdotaccent" unicode="&#x17c;" horiz-adv-x="434" 
d="M430 500l-4 -18l-406 -464h323l-3 -18h-346l3 18l406 464h-308l4 18h331zM313 660l-7 -36h-36l7 36h36z" />
    <glyph glyph-name="Zcaron" unicode="&#x17d;" horiz-adv-x="518" 
d="M1 18l524 664h-385l4 18h407l-4 -18l-524 -664h400l-3 -18h-422zM366 763h-18l-99 161h23l88 -144l144 144h23z" />
    <glyph glyph-name="zcaron" unicode="&#x17e;" horiz-adv-x="434" 
d="M430 500l-4 -18l-406 -464h323l-3 -18h-346l3 18l406 464h-308l4 18h331zM285 564h-18l-99 161h23l88 -144l144 144h23z" />
    <glyph glyph-name="longs" unicode="&#x17f;" horiz-adv-x="315" 
d="M374 689h-43q-67 0 -95 -24.5t-42 -93.5l-110 -571h-20l93 482h-78l4 18h78l14 75q15 75 50 103.5t111 28.5q28 0 42 -1z" />
    <glyph glyph-name="uni0191" unicode="&#x191;" horiz-adv-x="496" 
d="M119 339l-88 -456q-20 -101 -119 -101q-15 0 -21 1l4 17h20q79 0 97 87l158 813h376l-4 -18h-356l-63 -325h325l-4 -18h-325z" />
    <glyph glyph-name="florin" unicode="&#x192;" horiz-adv-x="315" 
d="M177 482l-116 -599q-20 -101 -119 -101q-15 0 -21 1l4 17h20q79 0 97 87l115 595h-78l4 18h78l14 75q15 75 50 103.5t111 28.5q28 0 42 -1l-4 -17h-43q-67 0 -95 -24.5t-42 -93.5l-13 -71h157l-4 -18h-157z" />
    <glyph glyph-name="Aringacute" unicode="&#x1fa;" horiz-adv-x="580" 
d="M496 0l-37 192h-365l-110 -192h-22l387 668q-36 6 -53 33.5t-9 69.5q10 47 44 75.5t79 28.5t68 -28.5t13 -75.5q-8 -42 -36 -69.5t-66 -33.5l129 -668h-22zM369 667l-265 -457h351zM499 1009l-86 -113h-22l86 113h22zM471 771q8 40 -10.5 63t-54.5 23t-63.5 -23
t-35.5 -63q-7 -40 11.5 -63t54.5 -23t63.5 23t34.5 63z" />
    <glyph glyph-name="aringacute" unicode="&#x1fb;" horiz-adv-x="530" 
d="M48 250q25 126 88.5 194t166.5 68q71 0 111.5 -33.5t47.5 -97.5l23 119h20l-97 -500h-20l23 119q-65 -131 -210 -131q-103 0 -140.5 68t-12.5 194zM436 250q48 244 -136 244t-232 -244q-47 -244 137 -244t231 244zM422 644q7 40 -11.5 63t-54.5 23t-63.5 -23t-34.5 -63
q-8 -40 10.5 -63t54.5 -23t63.5 23t35.5 63zM238 644q9 47 43 75.5t79 28.5t68 -28.5t14 -75.5q-10 -47 -44 -75.5t-79 -28.5t-68 28.5t-13 75.5zM449 882l-86 -113h-22l86 113h22z" />
    <glyph glyph-name="AEacute" unicode="&#x1fc;" horiz-adv-x="852" 
d="M501 700h390l-4 -18h-361l-61 -314h325l-3 -18h-325l-65 -332h366l-3 -18h-386l37 192h-292l-152 -192h-22zM133 210h281l91 468zM761 924l-141 -161h-22l141 161h22z" />
    <glyph glyph-name="aeacute" unicode="&#x1fd;" horiz-adv-x="896" 
d="M593 6q144 0 199 136h20q-27 -73 -84.5 -113.5t-138.5 -40.5q-72 0 -112 34t-46 97l-23 -119h-20l23 119q-65 -131 -210 -131q-103 0 -140.5 68t-12.5 194t88.5 194t166.5 68q71 0 111.5 -33.5t47.5 -97.5l23 119h20l-23 -119q64 131 209 131q103 0 140.5 -68t12.5 -194
v-2h-388q-48 -242 137 -242zM436 250q48 244 -136 244t-232 -244q-47 -244 137 -244t231 244zM688 494q-178 0 -229 -228h368q39 228 -139 228zM619 725l-141 -161h-22l141 161h22z" />
    <glyph glyph-name="Oslashacute" unicode="&#x1fe;" horiz-adv-x="630" 
d="M42 -32h-22l75 94q-57 86 -17 288q38 203 131 290q77 72 194 72q107 0 156 -60l64 80h22l-75 -95q56 -87 18 -287q-40 -203 -132 -290q-76 -72 -194 -72q-108 0 -157 60zM98 350q-37 -189 10 -271l438 556q-45 59 -147 59q-108 0 -177 -66q-86 -81 -124 -278zM568 350
q36 187 -12 270l-438 -555q44 -59 148 -59q108 0 177 66q85 80 125 278zM525 924l-141 -161h-22l141 161h22z" />
    <glyph glyph-name="oslashacute" unicode="&#x1ff;" horiz-adv-x="508" 
d="M41 -38h-21l56 73q-57 65 -28 215q25 126 88.5 194t166.5 68q73 0 113 -35l47 61h21l-56 -73q57 -68 28 -215q-25 -126 -88.5 -194t-166.5 -68q-72 0 -113 35zM68 250q-27 -138 20 -199l315 410q-36 33 -103 33q-184 0 -232 -244zM436 250q28 139 -21 198l-315 -409
q36 -33 105 -33q184 0 231 244zM425 725l-141 -161h-22l141 161h22z" />
    <glyph glyph-name="Scommaaccent" unicode="&#x218;" horiz-adv-x="560" 
d="M236 6q95 0 159 48t79 121q26 135 -142 170l-87 18q-159 32 -132 172q16 77 82 127t165 50q100 0 146.5 -50t30.5 -127l-3 -20h-20l3 20q14 72 -28.5 115.5t-132.5 43.5q-89 0 -148.5 -43.5t-74.5 -115.5q-23 -125 121 -154l86 -18q182 -38 154 -188
q-16 -80 -85.5 -133.5t-176.5 -53.5t-155.5 53.5t-32.5 133.5l4 25h20l-4 -25q-15 -73 31 -121t141 -48zM167 -218h-21l92 170h22z" />
    <glyph glyph-name="scommaaccent" unicode="&#x219;" horiz-adv-x="457" 
d="M417 384l-4 -21h-20l4 21q9 49 -24.5 79.5t-103.5 30.5t-116.5 -31t-55.5 -80q-9 -48 15 -72.5t91 -38.5l75 -15q69 -13 94 -44.5t14 -85.5q-12 -63 -70 -101t-138 -38t-123 38t-31 101l4 19h20l-4 -19q-10 -55 28.5 -88t109.5 -33t122.5 33t61.5 88q10 49 -12.5 74.5
t-87.5 38.5l-75 15q-71 14 -98 44.5t-16 84.5q11 55 63 91.5t132 36.5t118 -36.5t27 -91.5zM113 -218h-21l92 170h22z" />
    <glyph glyph-name="uni021A" unicode="&#x21a;" horiz-adv-x="500" 
d="M100 682l4 18h464l-4 -18h-222l-132 -682h-20l132 682h-222zM128 -218h-21l92 170h22z" />
    <glyph glyph-name="uni021B" unicode="&#x21b;" horiz-adv-x="315" 
d="M167 482l-69 -356q-13 -65 11.5 -90t85.5 -25h48l-4 -17q-18 -1 -47 -1q-73 0 -101 30t-13 105l69 354h-78l4 18h78l27 142h20l-27 -142h167l-4 -18h-167zM65 -218h-21l92 170h22z" />
    <glyph glyph-name="dotlessj" unicode="&#x237;" horiz-adv-x="174" 
d="M144 500l-120 -617q-20 -101 -119 -101q-15 0 -21 1l4 17h20q79 0 97 87l119 613h20z" />
    <glyph glyph-name="apostrophe" unicode="&#x2bc;" horiz-adv-x="318" 
d="M222 645l16 85h24l-16 -84q-10 -50 -30 -74t-57 -37l5 24q45 20 58 86z" />
    <glyph glyph-name="circumflex" unicode="&#x2c6;" horiz-adv-x="318" 
d="M241 730h18l99 -161h-23l-88 144l-144 -144h-23z" />
    <glyph glyph-name="caron" unicode="&#x2c7;" horiz-adv-x="318" 
d="M228 569h-18l-99 161h23l88 -144l144 144h23z" />
    <glyph glyph-name="uni02C9" unicode="&#x2c9;" horiz-adv-x="318" 
d="M91 637l4 20h282l-4 -20h-282z" />
    <glyph glyph-name="breve" unicode="&#x2d8;" horiz-adv-x="318" 
d="M220 573q-129 0 -107 148h20q-18 -130 90 -130q109 0 142 130h20q-38 -148 -165 -148z" />
    <glyph glyph-name="dotaccent" unicode="&#x2d9;" horiz-adv-x="318" 
d="M256 665l-7 -36h-36l7 36h36z" />
    <glyph glyph-name="ring" unicode="&#x2da;" horiz-adv-x="318" 
d="M317 649q7 40 -11.5 63t-54.5 23t-63.5 -23t-34.5 -63q-8 -40 10.5 -63t54.5 -23t63.5 23t35.5 63zM133 649q9 47 43 75.5t79 28.5t68 -28.5t14 -75.5q-10 -47 -44 -75.5t-79 -28.5t-68 28.5t-13 75.5z" />
    <glyph glyph-name="ogonek" unicode="&#x2db;" horiz-adv-x="318" 
d="M98 0h32q-57 -22 -88.5 -54t-37.5 -67l-1 -5q-7 -37 12 -56t59 -19q50 0 90 29l8 -15q-44 -32 -101 -32q-50 0 -73 25t-15 68l1 4q7 36 38 69.5t76 52.5z" />
    <glyph glyph-name="tilde" unicode="&#x2dc;" horiz-adv-x="318" 
d="M290 581q-23 0 -40 18t-24.5 39t-21 39t-32.5 18q-27 0 -44 -25t-28 -81h-20q12 61 34.5 92.5t62.5 31.5q23 0 40 -18t25 -39t21.5 -39t32.5 -18q27 0 44 25t28 81h20q-12 -61 -34.5 -92.5t-63.5 -31.5z" />
    <glyph glyph-name="hungarumlaut" unicode="&#x2dd;" horiz-adv-x="318" 
d="M256 730l-141 -161h-22l141 161h22zM376 730l-141 -161h-22l141 161h22z" />
    <glyph glyph-name="gravecomb" unicode="&#x300;" horiz-adv-x="0" 
d="M-127 569l-79 161h22l79 -161h-22z" />
    <glyph glyph-name="acutecomb" unicode="&#x301;" horiz-adv-x="0" 
d="M-74 730l-141 -161h-22l141 161h22z" />
    <glyph glyph-name="uni0302" unicode="&#x302;" horiz-adv-x="0" 
d="M-149 730h18l98 -161h-22l-88 144l-144 -144h-23z" />
    <glyph glyph-name="tildecomb" unicode="&#x303;" horiz-adv-x="0" 
d="M-100 581q-23 0 -40 18t-24.5 39t-21 39t-32.5 18q-27 0 -44 -25t-28 -81h-20q12 61 34.5 92.5t62.5 31.5q23 0 40 -18t25 -39t21.5 -39t32.5 -18q27 0 43.5 24.5t27.5 81.5h20q-12 -61 -34.5 -92.5t-62.5 -31.5z" />
    <glyph glyph-name="uni0304" unicode="&#x304;" horiz-adv-x="0" 
d="M-298 638l3 20h281l-3 -20h-281z" />
    <glyph glyph-name="uni0306" unicode="&#x306;" horiz-adv-x="0" 
d="M-170 573q-129 0 -107 148h20q-18 -130 90 -130q109 0 141 130h20q-38 -148 -164 -148z" />
    <glyph glyph-name="uni0307" unicode="&#x307;" horiz-adv-x="0" 
d="M-134 665l-7 -36h-36l7 36h36z" />
    <glyph glyph-name="uni0308" unicode="&#x308;" horiz-adv-x="0" 
d="M-60 663l-6 -32h-32l6 32h32zM-214 663l-6 -32h-32l6 32h32z" />
    <glyph glyph-name="uni030A" unicode="&#x30a;" horiz-adv-x="0" 
d="M-73 649q7 40 -11.5 63t-54.5 23t-63.5 -23t-34.5 -63q-8 -40 10.5 -63t54.5 -23t63.5 23t35.5 63zM-257 649q9 47 43 75.5t79 28.5t67.5 -28t14.5 -76q-10 -47 -44 -75.5t-79 -28.5t-68 28.5t-13 75.5z" />
    <glyph glyph-name="uni030C" unicode="&#x30c;" horiz-adv-x="0" 
d="M-162 569h-18l-99 161h23l88 -144l143 144h23z" />
    <glyph glyph-name="uni0327" unicode="&#x327;" horiz-adv-x="0" 
d="M-421 -208l14 16q27 -28 77 -28q40 0 65.5 18t31.5 50q7 37 -13 55.5t-61 18.5q-21 0 -43 -9l-10 11l53 76h20l-49 -69q16 8 38 8q47 0 70 -25t15 -66q-8 -39 -39.5 -62.5t-81.5 -23.5q-58 0 -87 30z" />
    <glyph glyph-name="tonos" unicode="&#x384;" horiz-adv-x="318" 
d="M293 730l-102 -181h-20l102 181h20z" />
    <glyph glyph-name="dieresistonos" unicode="&#x385;" horiz-adv-x="318" 
d="M315 586l-6 -32h-32l6 32h32zM161 586l-6 -32h-32l6 32h32zM333 768l-91 -113h-21l91 113h21z" />
    <glyph glyph-name="Alphatonos" unicode="&#x386;" horiz-adv-x="580" 
d="M-16 0h-22l406 700h16l134 -700h-22l-37 192h-365zM455 210l-86 457l-265 -457h351zM264 700l-103 -181h-20l103 181h20z" />
    <glyph glyph-name="anoteleia" unicode="&#x387;" horiz-adv-x="272" 
d="M171 366l-16 -80h-28l16 80h28z" />
    <glyph glyph-name="Epsilontonos" unicode="&#x388;" horiz-adv-x="545" 
d="M67 0l136 700h381l-4 -18h-361l-61 -314h325l-3 -18h-325l-65 -332h366l-3 -18h-386zM163 700l-103 -181h-20l103 181h20z" />
    <glyph glyph-name="Etatonos" unicode="&#x389;" horiz-adv-x="653" 
d="M499 0l68 350h-412l-68 -350h-20l136 700h20l-65 -332h412l65 332h20l-136 -700h-20zM163 700l-103 -181h-20l103 181h20z" />
    <glyph glyph-name="Iotatonos" unicode="&#x38a;" horiz-adv-x="221" 
d="M223 700l-136 -700h-20l136 700h20zM163 700l-103 -181h-20l103 181h20z" />
    <glyph glyph-name="Omicrontonos" unicode="&#x38c;" horiz-adv-x="630" 
d="M568 350q37 196 -16 278q-45 66 -153 66t-177 -66q-86 -81 -124 -278q-39 -195 15 -278q45 -66 153 -66t177 66q85 80 125 278zM78 350q38 203 131 290q77 72 194 72t166 -72q57 -85 19 -290q-40 -203 -132 -290q-76 -72 -194 -72q-116 0 -166 72q-58 86 -18 290z
M164 700l-103 -181h-20l103 181h20z" />
    <glyph glyph-name="Upsilontonos" unicode="&#x38e;" horiz-adv-x="636" 
d="M357 294l324 406h23l-341 -424l-53 -276h-20l53 276l-175 424h23zM163 700l-103 -181h-20l103 181h20z" />
    <glyph glyph-name="Omegatonos" unicode="&#x38f;" horiz-adv-x="630" 
d="M403 712q117 0 166 -72q57 -85 19 -290q-26 -132 -77 -217t-139 -115h129l-3 -18h-177l3 18q56 13 98.5 44t70.5 78t45.5 97t29.5 113q37 196 -16 278q-45 66 -153 66t-177 -66q-86 -81 -124 -278q-12 -63 -14 -113t7.5 -97t39.5 -78t81 -44l-3 -18h-177l3 18h129
q-141 55 -86 332q38 203 131 290q77 72 194 72zM164 700l-103 -181h-20l103 181h20z" />
    <glyph glyph-name="iotadieresistonos" unicode="&#x390;" horiz-adv-x="171" 
d="M139 500l-86 -441q-5 -28 1 -38t30 -10h14l-4 -17q-7 -1 -18 -1q-31 0 -40.5 14.5t-3.5 48.5l87 444h20zM249 643l-6 -32h-32l6 32h32zM95 643l-6 -32h-32l6 32h32zM267 825l-91 -113h-21l91 113h21z" />
    <glyph glyph-name="Alpha" unicode="&#x391;" horiz-adv-x="580" 
d="M-16 0h-22l406 700h16l134 -700h-22l-37 192h-365zM455 210l-86 457l-265 -457h351z" />
    <glyph glyph-name="Beta" unicode="&#x392;" horiz-adv-x="590" 
d="M125 368h222q179 0 209 157t-148 157h-222zM280 0h-246l136 700h246q96 0 136 -45.5t24 -128.5q-27 -139 -155 -166q138 -23 108 -176q-18 -95 -80 -139.5t-169 -44.5zM509 184q16 81 -21.5 123.5t-144.5 42.5h-221l-65 -332h221q107 0 161 42.5t70 123.5z" />
    <glyph glyph-name="Gamma" unicode="&#x393;" horiz-adv-x="468" 
d="M170 700h372l-4 -18h-352l-132 -682h-20z" />
    <glyph glyph-name="uni0394" unicode="&#x394;" horiz-adv-x="580" 
d="M518 0h-556l406 700h16zM369 667l-375 -649h498z" />
    <glyph glyph-name="Epsilon" unicode="&#x395;" horiz-adv-x="512" 
d="M34 0l136 700h381l-4 -18h-361l-61 -314h325l-3 -18h-325l-65 -332h366l-3 -18h-386z" />
    <glyph glyph-name="Zeta" unicode="&#x396;" horiz-adv-x="518" 
d="M1 18l524 664h-385l4 18h407l-4 -18l-524 -664h400l-3 -18h-422z" />
    <glyph glyph-name="Eta" unicode="&#x397;" horiz-adv-x="620" 
d="M466 0l68 350h-412l-68 -350h-20l136 700h20l-65 -332h412l65 332h20l-136 -700h-20z" />
    <glyph glyph-name="Theta" unicode="&#x398;" horiz-adv-x="630" 
d="M568 350q37 196 -16 278q-45 66 -153 66t-177 -66q-86 -81 -124 -278q-39 -195 15 -278q45 -66 153 -66t177 66q85 80 125 278zM78 350q38 203 131 290q77 72 194 72t166 -72q57 -85 19 -290q-40 -203 -132 -290q-76 -72 -194 -72q-116 0 -166 72q-58 86 -18 290z
M217 341l3 18h228l-3 -18h-228z" />
    <glyph glyph-name="Iota" unicode="&#x399;" horiz-adv-x="188" 
d="M190 700l-136 -700h-20l136 700h20z" />
    <glyph glyph-name="Kappa" unicode="&#x39a;" horiz-adv-x="535" 
d="M590 700l-341 -341l236 -359h-26l-229 350h-108l-68 -350h-20l136 700h20l-65 -332h108l331 332h26z" />
    <glyph glyph-name="Lambda" unicode="&#x39b;" horiz-adv-x="580" 
d="M496 0l-127 667l-385 -667h-22l406 700h16l134 -700h-22z" />
    <glyph glyph-name="Mu" unicode="&#x39c;" horiz-adv-x="830" 
d="M376 0h-22l-173 654l-127 -654h-20l136 700h20l179 -679l443 679h20l-136 -700h-20l127 654z" />
    <glyph glyph-name="Nu" unicode="&#x39d;" horiz-adv-x="630" 
d="M496 0h-20l-293 665l-129 -665h-20l136 700h20l292 -665l130 665h20z" />
    <glyph glyph-name="Xi" unicode="&#x39e;" horiz-adv-x="533" 
d="M129 682l4 18h439l-4 -18h-439zM-8 0l3 18h449l-3 -18h-449zM101 350l3 18h367l-3 -18h-367z" />
    <glyph glyph-name="Omicron" unicode="&#x39f;" horiz-adv-x="630" 
d="M568 350q37 196 -16 278q-45 66 -153 66t-177 -66q-86 -81 -124 -278q-39 -195 15 -278q45 -66 153 -66t177 66q85 80 125 278zM78 350q38 203 131 290q77 72 194 72t166 -72q57 -85 19 -290q-40 -203 -132 -290q-76 -72 -194 -72q-116 0 -166 72q-58 86 -18 290z" />
    <glyph glyph-name="Pi" unicode="&#x3a0;" horiz-adv-x="620" 
d="M466 0l132 682h-412l-132 -682h-20l136 700h452l-136 -700h-20z" />
    <glyph glyph-name="Rho" unicode="&#x3a1;" horiz-adv-x="579" 
d="M112 300h227q94 0 153 50.5t77 140.5t-22 140.5t-134 50.5h-227zM332 282h-224l-54 -282h-20l136 700h244q107 0 150.5 -56t24.5 -153t-84.5 -153t-172.5 -56z" />
    <glyph glyph-name="Sigma" unicode="&#x3a3;" horiz-adv-x="507" 
d="M13 18l258 343l-129 321l4 18h405l-4 -18h-381l127 -317l-1 -8l-255 -339h381l-3 -18h-405z" />
    <glyph glyph-name="Tau" unicode="&#x3a4;" horiz-adv-x="500" 
d="M100 682l4 18h464l-4 -18h-222l-132 -682h-20l132 682h-222z" />
    <glyph glyph-name="Upsilon" unicode="&#x3a5;" horiz-adv-x="572" 
d="M293 294l324 406h23l-341 -424l-53 -276h-20l53 276l-175 424h23z" />
    <glyph glyph-name="Phi" unicode="&#x3a6;" horiz-adv-x="704" 
d="M680 350q-24 -125 -117 -184t-231 -60l-20 -106h-20l20 106q-138 1 -207 60t-45 184t116.5 184t230.5 60l21 106h20l-21 -106q138 -1 207.5 -60t45.5 -184zM660 350q22 117 -42 170.5t-195 55.5l-87 -452q281 5 324 226zM316 124l87 452q-281 -5 -323 -226
q-43 -221 236 -226z" />
    <glyph glyph-name="Chi" unicode="&#x3a7;" horiz-adv-x="571" 
d="M623 700l-306 -343l180 -357h-25l-172 339l-301 -339h-25l318 357l-172 343h25l162 -325l291 325h25z" />
    <glyph glyph-name="Psi" unicode="&#x3a8;" horiz-adv-x="680" 
d="M300 0h-20l29 153q-123 3 -175.5 73.5t-28.5 191.5l55 282h20l-55 -280q-23 -117 25 -182t163 -67l103 529h20l-103 -529q115 2 188 67t96 182l55 280h20l-55 -282q-24 -121 -104 -191.5t-204 -73.5z" />
    <glyph glyph-name="uni03A9" unicode="&#x3a9;" horiz-adv-x="630" 
d="M403 712q117 0 166 -72q57 -85 19 -290q-26 -132 -77 -217t-139 -115h129l-3 -18h-177l3 18q56 13 98.5 44t70.5 78t45.5 97t29.5 113q37 196 -16 278q-45 66 -153 66t-177 -66q-86 -81 -124 -278q-12 -63 -14 -113t7.5 -97t39.5 -78t81 -44l-3 -18h-177l3 18h129
q-141 55 -86 332q38 203 131 290q77 72 194 72z" />
    <glyph glyph-name="Iotadieresis" unicode="&#x3aa;" horiz-adv-x="188" 
d="M190 700l-136 -700h-20l136 700h20zM303 857l-6 -32h-32l6 32h32zM149 857l-6 -32h-32l6 32h32z" />
    <glyph glyph-name="Upsilondieresis" unicode="&#x3ab;" horiz-adv-x="572" 
d="M293 294l324 406h23l-341 -424l-53 -276h-20l53 276l-175 424h23zM495 857l-6 -32h-32l6 32h32zM341 857l-6 -32h-32l6 32h32z" />
    <glyph glyph-name="alphatonos" unicode="&#x3ac;" horiz-adv-x="530" 
d="M505 500l-86 -441q-5 -28 1 -38t30 -10h14l-4 -17q-7 -1 -18 -1q-31 0 -40.5 14.5t-3.5 48.5l13 63q-65 -131 -210 -131q-103 0 -140.5 68t-12.5 194t88.5 194t166.5 68q71 0 111.5 -33.5t47.5 -97.5l23 119h20zM436 250q48 244 -136 244t-232 -244q-47 -244 137 -244
t231 244zM447 725l-141 -161h-22l141 161h22z" />
    <glyph glyph-name="epsilontonos" unicode="&#x3ad;" horiz-adv-x="465" 
d="M237 262h57l-3 -18h-54q-78 0 -131 -31t-64 -88t30 -88t119 -31q77 0 131 33.5t65 91.5v2h20v-2q-13 -65 -72.5 -104t-147.5 -39q-89 0 -133.5 36.5t-31.5 100.5q10 52 51 85.5t103 42.5q-55 10 -79 43.5t-15 81.5q12 59 66.5 96.5t137.5 37.5t123.5 -37.5t28.5 -96.5
l-2 -11h-20l2 11q10 52 -25.5 84t-109.5 32t-122.5 -32t-58.5 -84t25 -84t110 -32zM404 725l-141 -161h-22l141 161h22z" />
    <glyph glyph-name="etatonos" unicode="&#x3ae;" horiz-adv-x="530" 
d="M42 0h-20l97 500h20l-28 -142q34 73 93.5 113.5t132.5 40.5q82 0 116.5 -54t15.5 -152l-102 -524h-20l102 524q18 91 -12 139.5t-105 48.5q-84 0 -150.5 -64t-90.5 -176zM431 725l-141 -161h-22l141 161h22z" />
    <glyph glyph-name="iotatonos" unicode="&#x3af;" horiz-adv-x="171" 
d="M139 500l-86 -441q-5 -28 1 -38t30 -10h14l-4 -17q-7 -1 -18 -1q-31 0 -40.5 14.5t-3.5 48.5l87 444h20zM273 725l-141 -161h-22l141 161h22z" />
    <glyph glyph-name="upsilondieresistonos" unicode="&#x3b0;" horiz-adv-x="518" 
d="M206 -12q-92 0 -132 53t-20 159l59 300h20l-59 -300q-37 -194 136 -194t210 194l59 300h20l-59 -300q-20 -105 -80.5 -158.5t-153.5 -53.5zM426 643l-6 -32h-32l6 32h32zM272 643l-6 -32h-32l6 32h32zM444 825l-91 -113h-21l91 113h21z" />
    <glyph glyph-name="alpha" unicode="&#x3b1;" horiz-adv-x="530" 
d="M505 500l-86 -441q-5 -28 1 -38t30 -10h14l-4 -17q-7 -1 -18 -1q-31 0 -40.5 14.5t-3.5 48.5l13 63q-65 -131 -210 -131q-103 0 -140.5 68t-12.5 194t88.5 194t166.5 68q71 0 111.5 -33.5t47.5 -97.5l23 119h20zM436 250q48 244 -136 244t-232 -244q-47 -244 137 -244
t231 244z" />
    <glyph glyph-name="beta" unicode="&#x3b2;" horiz-adv-x="534" 
d="M355 712q92 0 133.5 -53t23.5 -142q-11 -55 -49.5 -95t-97.5 -54q66 -16 96 -63.5t15 -124.5q-16 -85 -81 -138.5t-166 -53.5q-147 0 -166 123l-64 -329h-20l143 735q18 89 79.5 142t153.5 53zM233 6q90 0 149 48t74 126q15 76 -24 127.5t-126 51.5h-34l4 18h34
q76 0 123 41t59 99q16 83 -21.5 130t-119.5 47q-81 0 -137.5 -49.5t-72.5 -132.5l-63 -322q-15 -79 25.5 -131.5t129.5 -52.5z" />
    <glyph glyph-name="gamma" unicode="&#x3b3;" horiz-adv-x="484" 
d="M159 -218h-20l43 218l-113 500h23l105 -473l289 473h23l-307 -500z" />
    <glyph glyph-name="delta" unicode="&#x3b4;" horiz-adv-x="508" 
d="M184 700h323l-4 -18h-293l210 -208q66 -66 36 -224q-25 -126 -88.5 -194t-166.5 -68t-140.5 68t-12.5 194t88.5 194t166.5 68q41 0 61 -10l-184 180zM436 250q48 244 -136 244t-232 -244q-47 -244 137 -244t231 244z" />
    <glyph glyph-name="epsilon" unicode="&#x3b5;" horiz-adv-x="465" 
d="M237 262h57l-3 -18h-54q-78 0 -131 -31t-64 -88t30 -88t119 -31q77 0 131 33.5t65 91.5v2h20v-2q-13 -65 -72.5 -104t-147.5 -39q-89 0 -133.5 36.5t-31.5 100.5q10 52 51 85.5t103 42.5q-55 10 -79 43.5t-15 81.5q12 59 66.5 96.5t137.5 37.5t123.5 -37.5t28.5 -96.5
l-2 -11h-20l2 11q10 52 -25.5 84t-109.5 32t-122.5 -32t-58.5 -84t25 -84t110 -32z" />
    <glyph glyph-name="zeta" unicode="&#x3b6;" horiz-adv-x="428" 
d="M54 200q-19 -99 44 -147t222 -48q14 0 18 -3.5t2 -15.5q-13 -66 -93 -159l-16 5q77 95 89 155q-173 -1 -239.5 53.5t-46.5 159.5q27 138 147 274.5t267 207.5h-269l4 18h296l-4 -19q-154 -72 -274 -209t-147 -272z" />
    <glyph glyph-name="eta" unicode="&#x3b7;" horiz-adv-x="530" 
d="M42 0h-20l97 500h20l-28 -142q34 73 93.5 113.5t132.5 40.5q82 0 116.5 -54t15.5 -152l-102 -524h-20l102 524q18 91 -12 139.5t-105 48.5q-84 0 -150.5 -64t-90.5 -176z" />
    <glyph glyph-name="theta" unicode="&#x3b8;" horiz-adv-x="558" 
d="M518 350q-23 -117 -53 -184t-73 -110q-66 -68 -166 -68q-99 0 -140 68q-26 43 -29 106t19 188q22 117 52 184t73 110q66 68 166 68q99 0 140 -68q51 -85 11 -294zM216 633q-80 -78 -119 -274h402q36 192 -11 274q-37 61 -125 61q-86 0 -147 -61zM378 67q79 81 118 274
h-402q-36 -195 12 -274q37 -61 124 -61t148 61z" />
    <glyph glyph-name="iota" unicode="&#x3b9;" horiz-adv-x="171" 
d="M139 500l-86 -441q-5 -28 1 -38t30 -10h14l-4 -17q-7 -1 -18 -1q-31 0 -40.5 14.5t-3.5 48.5l87 444h20z" />
    <glyph glyph-name="kappa" unicode="&#x3ba;" horiz-adv-x="429" 
d="M42 0h-20l97 500h20l-45 -230h79l249 230h25l-258 -239l184 -261h-26l-178 252h-79z" />
    <glyph glyph-name="lambda" unicode="&#x3bb;" horiz-adv-x="464" 
d="M267 495l-28 130q-9 41 -26.5 55t-54.5 14h-13l4 17q6 1 14 1q44 0 64 -15.5t31 -66.5l144 -630h-23l-106 470l-288 -470h-23z" />
    <glyph glyph-name="uni03BC" unicode="&#x3bc;" horiz-adv-x="532" 
d="M139 500l-60 -306q-17 -91 13 -139.5t105 -48.5q86 0 153 67.5t90 184.5l47 242h20l-97 -500h-20l27 142q-34 -73 -93.5 -113.5t-132.5 -40.5q-56 0 -90.5 25.5t-41.5 74.5l-60 -306h-20l140 718h20z" />
    <glyph glyph-name="nu" unicode="&#x3bd;" horiz-adv-x="484" 
d="M182 0l-113 500h23l105 -473l289 473h23l-307 -500h-20z" />
    <glyph glyph-name="xi" unicode="&#x3be;" horiz-adv-x="449" 
d="M340 -13q-160 0 -242 58t-63 160q15 75 68.5 130t124.5 75q-50 8 -77.5 48t-15.5 99q13 67 66 111t135 44q81 0 116 -41.5t27 -103.5h-20q7 58 -26 92.5t-101 34.5q-70 0 -117.5 -36.5t-59.5 -100.5q-12 -59 18.5 -97t87.5 -38h100l-4 -18h-77q-73 0 -140.5 -57.5
t-83.5 -140.5q-19 -96 58.5 -148.5t225.5 -52.5q14 0 18 -3.5t2 -15.5q-13 -66 -93 -159l-16 5q77 95 89 155z" />
    <glyph glyph-name="omicron" unicode="&#x3bf;" horiz-adv-x="508" 
d="M456 250q-25 -126 -88.5 -194t-166.5 -68t-140.5 68t-12.5 194t88.5 194t166.5 68t140.5 -68t12.5 -194zM436 250q48 244 -136 244t-232 -244q-47 -244 137 -244t231 244z" />
    <glyph glyph-name="pi" unicode="&#x3c0;" horiz-adv-x="510" 
d="M171 482l-93 -482h-20l93 482h-86l4 18h466l-4 -18h-86l-93 -482h-20l93 482h-254z" />
    <glyph glyph-name="rho" unicode="&#x3c1;" horiz-adv-x="518" 
d="M-33 -218l91 468q25 126 88.5 194t166.5 68t140.5 -68t12.5 -194t-88.5 -194t-166.5 -68q-72 0 -112 34t-46 97l-66 -337h-20zM446 250q48 244 -136 244t-232 -244q-47 -244 137 -244t231 244z" />
    <glyph glyph-name="sigma1" unicode="&#x3c2;" horiz-adv-x="487" 
d="M303 512q84 0 126 -43.5t37 -123.5h-20q2 73 -35 111t-111 38q-185 0 -230 -234q-14 -60 -5 -103.5t29 -72.5t57 -46.5t78.5 -25t94.5 -7.5h13q14 0 18 -3.5t2 -15.5q-13 -66 -93 -159l-16 5q77 95 89 155h-17q-323 0 -270 273q23 118 87 185t166 67z" />
    <glyph glyph-name="sigma" unicode="&#x3c3;" horiz-adv-x="508" 
d="M524 482h-144q112 -43 75 -238q-23 -119 -87.5 -187.5t-166.5 -68.5t-139.5 68.5t-14.5 187.5t87.5 187.5t166.5 68.5h227zM435 244q22 113 -11.5 175.5t-126.5 62.5t-150.5 -62t-79.5 -176q-22 -113 11.5 -175.5t126.5 -62.5t150.5 62t79.5 176z" />
    <glyph glyph-name="tau" unicode="&#x3c4;" horiz-adv-x="433" 
d="M456 500l-4 -18h-188l-78 -403q-13 -68 47 -68h24l-4 -17q-7 -1 -28 -1q-75 0 -60 83l79 406h-177l4 18h385z" />
    <glyph glyph-name="upsilon" unicode="&#x3c5;" horiz-adv-x="518" 
d="M206 -12q-92 0 -132 53t-20 159l59 300h20l-59 -300q-37 -194 136 -194t210 194l59 300h20l-59 -300q-20 -105 -80.5 -158.5t-153.5 -53.5z" />
    <glyph glyph-name="phi" unicode="&#x3c6;" horiz-adv-x="678" 
d="M376 500h17q150 0 204 -61t28 -195t-101.5 -194t-227.5 -62l-40 -206h-20l40 206q-151 2 -203 62t-26 194q21 106 69 162.5t134 79.5v-18q-76 -20 -119.5 -71.5t-63.5 -152.5q-24 -126 22.5 -181t190.5 -57zM605 244q24 126 -22.5 181t-190.5 57l-92 -476
q144 2 212.5 57.5t92.5 180.5z" />
    <glyph glyph-name="chi" unicode="&#x3c7;" horiz-adv-x="474" 
d="M501 500l-275 -351l145 -367h-22l-137 349l-272 -349h-22l286 367l-137 351h22l130 -332l260 332h22z" />
    <glyph glyph-name="psi" unicode="&#x3c8;" horiz-adv-x="648" 
d="M241 -218h-20l40 206q-113 2 -170 56t-37 156l59 300h20l-59 -300q-19 -96 34 -144t157 -50l96 494h20l-96 -494q104 2 175 50t90 144l59 300h20l-59 -300q-20 -102 -97.5 -156t-191.5 -56z" />
    <glyph glyph-name="omega" unicode="&#x3c9;" horiz-adv-x="738" 
d="M340 113q-23 -60 -68 -92.5t-103 -32.5q-167 0 -120 246q24 124 104 266h20q-78 -137 -104 -266q-44 -228 104 -228q62 0 108 45t64 136l42 215h20l-42 -215q-18 -91 11 -136t91 -45q148 0 192 228q25 127 0 266h20q24 -140 0 -266q-47 -246 -216 -246q-58 0 -90 32.5
t-33 92.5z" />
    <glyph glyph-name="iotadieresis" unicode="&#x3ca;" horiz-adv-x="171" 
d="M139 500l-86 -441q-5 -28 1 -38t30 -10h14l-4 -17q-7 -1 -18 -1q-31 0 -40.5 14.5t-3.5 48.5l87 444h20zM252 658l-6 -32h-32l6 32h32zM98 658l-6 -32h-32l6 32h32z" />
    <glyph glyph-name="upsilondieresis" unicode="&#x3cb;" horiz-adv-x="518" 
d="M206 -12q-92 0 -132 53t-20 159l59 300h20l-59 -300q-37 -194 136 -194t210 194l59 300h20l-59 -300q-20 -105 -80.5 -158.5t-153.5 -53.5zM429 658l-6 -32h-32l6 32h32zM275 658l-6 -32h-32l6 32h32z" />
    <glyph glyph-name="omicrontonos" unicode="&#x3cc;" horiz-adv-x="508" 
d="M456 250q-25 -126 -88.5 -194t-166.5 -68t-140.5 68t-12.5 194t88.5 194t166.5 68t140.5 -68t12.5 -194zM436 250q48 244 -136 244t-232 -244q-47 -244 137 -244t231 244zM425 725l-141 -161h-22l141 161h22z" />
    <glyph glyph-name="upsilontonos" unicode="&#x3cd;" horiz-adv-x="518" 
d="M206 -12q-92 0 -132 53t-20 159l59 300h20l-59 -300q-37 -194 136 -194t210 194l59 300h20l-59 -300q-20 -105 -80.5 -158.5t-153.5 -53.5zM425 725l-141 -161h-22l141 161h22z" />
    <glyph glyph-name="omegatonos" unicode="&#x3ce;" horiz-adv-x="738" 
d="M340 113q-23 -60 -68 -92.5t-103 -32.5q-167 0 -120 246q24 124 104 266h20q-78 -137 -104 -266q-44 -228 104 -228q62 0 108 45t64 136l42 215h20l-42 -215q-18 -91 11 -136t91 -45q148 0 192 228q25 127 0 266h20q24 -140 0 -266q-47 -246 -216 -246q-58 0 -90 32.5
t-33 92.5zM535 725l-141 -161h-22l141 161h22z" />
    <glyph glyph-name="uni0400" unicode="&#x400;" horiz-adv-x="512" 
d="M34 0l136 700h381l-4 -18h-361l-61 -314h325l-3 -18h-325l-65 -332h366l-3 -18h-386zM404 763l-79 161h22l79 -161h-22z" />
    <glyph glyph-name="afii10023" unicode="&#x401;" horiz-adv-x="512" 
d="M34 0l136 700h381l-4 -18h-361l-61 -314h325l-3 -18h-325l-65 -332h366l-3 -18h-386zM483 857l-6 -32h-32l6 32h32zM329 857l-6 -32h-32l6 32h32z" />
    <glyph glyph-name="afii10051" unicode="&#x402;" horiz-adv-x="685" 
d="M283 376l-73 -376h-20l132 682h-222l4 18h464l-4 -18h-222l-55 -285q89 65 198 65q98 0 132 -47t15 -143l-29 -153q-14 -67 -44 -96.5t-85 -29.5q-17 0 -29 2l3 16h30q43 0 68 24.5t37 84.5l29 151q18 91 -12.5 132t-118.5 41q-108 0 -198 -68z" />
    <glyph glyph-name="afii10052" unicode="&#x403;" horiz-adv-x="468" 
d="M170 700h372l-4 -18h-352l-132 -682h-20zM469 924l-141 -161h-22l141 161h22z" />
    <glyph glyph-name="afii10053" unicode="&#x404;" horiz-adv-x="617" 
d="M78 350q38 203 131 290q77 72 194 72q111 0 162.5 -62.5t37.5 -173.5h-20q12 101 -34 159.5t-150 58.5q-108 0 -177 -66q-84 -80 -123 -269h278l-3 -18h-278q-36 -190 17 -269q45 -66 153 -66q104 0 172.5 58.5t95.5 159.5h20q-28 -111 -104.5 -173.5t-187.5 -62.5
q-116 0 -166 72q-58 86 -18 290z" />
    <glyph glyph-name="afii10054" unicode="&#x405;" horiz-adv-x="560" 
d="M236 6q95 0 159 48t79 121q26 135 -142 170l-87 18q-159 32 -132 172q16 77 82 127t165 50q100 0 146.5 -50t30.5 -127l-3 -20h-20l3 20q14 72 -28.5 115.5t-132.5 43.5q-89 0 -148.5 -43.5t-74.5 -115.5q-23 -125 121 -154l86 -18q182 -38 154 -188
q-16 -80 -85.5 -133.5t-176.5 -53.5t-155.5 53.5t-32.5 133.5l4 25h20l-4 -25q-15 -73 31 -121t141 -48z" />
    <glyph glyph-name="afii10055" unicode="&#x406;" horiz-adv-x="188" 
d="M190 700l-136 -700h-20l136 700h20z" />
    <glyph glyph-name="afii10056" unicode="&#x407;" horiz-adv-x="188" 
d="M190 700l-136 -700h-20l136 700h20zM303 857l-6 -32h-32l6 32h32zM149 857l-6 -32h-32l6 32h32z" />
    <glyph glyph-name="afii10057" unicode="&#x408;" horiz-adv-x="502" 
d="M173 -12q-97 0 -135 59.5t-17 165.5h20v-1q-19 -96 15 -151t121 -55q86 0 141.5 55t74.5 151l95 488h20l-95 -486q-21 -106 -82 -166t-158 -60z" />
    <glyph glyph-name="afii10058" unicode="&#x409;" horiz-adv-x="1001" 
d="M608 682h-402l-117 -601q-9 -47 -32.5 -67.5t-65.5 -20.5q-21 0 -28 1l4 17h24q34 0 52.5 16.5t26.5 56.5l120 616h442l-56 -288h217q91 0 134 -53t24 -153q-20 -100 -83.5 -153t-154.5 -53h-237zM499 18h210q87 0 145.5 48t76.5 140t-22 140t-127 48h-210z" />
    <glyph glyph-name="afii10059" unicode="&#x40a;" horiz-adv-x="981" 
d="M693 0h-237l68 350h-402l-68 -350h-20l136 700h20l-65 -332h402l65 332h20l-56 -288h217q91 0 134 -53t24 -153q-20 -100 -83.5 -153t-154.5 -53zM479 18h210q87 0 145.5 48t76.5 140t-22 140t-127 48h-210z" />
    <glyph glyph-name="afii10060" unicode="&#x40b;" horiz-adv-x="690" 
d="M580 0h-20l52 271q18 91 -12.5 132t-118.5 41q-108 0 -198 -68l-73 -376h-20l132 682h-222l4 18h464l-4 -18h-222l-55 -285q89 65 198 65q98 0 132 -47t15 -143z" />
    <glyph glyph-name="afii10061" unicode="&#x40c;" horiz-adv-x="535" 
d="M590 700l-341 -341l236 -359h-26l-229 350h-108l-68 -350h-20l136 700h20l-65 -332h108l331 332h26zM482 924l-141 -161h-22l141 161h22z" />
    <glyph glyph-name="uni040D" unicode="&#x40d;" horiz-adv-x="630" 
d="M54 0h-20l136 700h20l-130 -665l552 665h20l-136 -700h-20l129 665zM447 763l-79 161h22l79 -161h-22z" />
    <glyph glyph-name="afii10062" unicode="&#x40e;" horiz-adv-x="552" 
d="M167 63l89 131l-149 506h23l144 -479l329 479h22l-439 -646q-21 -31 -40 -42.5t-48 -11.5q-23 0 -30 1l3 18h30q19 0 33.5 9t32.5 35zM379 765q-127 0 -107 148h20q-18 -130 91 -130t141 130h20q-36 -148 -165 -148z" />
    <glyph glyph-name="afii10145" unicode="&#x40f;" horiz-adv-x="620" 
d="M469 18l133 682h20l-136 -700h-216l-24 -120h-20l24 120h-216l136 700h20l-133 -682h412z" />
    <glyph glyph-name="afii10017" unicode="&#x410;" horiz-adv-x="580" 
d="M-16 0h-22l406 700h16l134 -700h-22l-37 192h-365zM455 210l-86 457l-265 -457h351z" />
    <glyph glyph-name="afii10018" unicode="&#x411;" horiz-adv-x="559" 
d="M271 0h-237l136 700h393l-4 -18h-373l-52 -270h217q91 0 134 -53t24 -153q-20 -100 -83.5 -153t-154.5 -53zM57 18h210q87 0 145.5 48t76.5 140t-22 140t-127 48h-210z" />
    <glyph glyph-name="afii10019" unicode="&#x412;" horiz-adv-x="590" 
d="M125 368h222q179 0 209 157t-148 157h-222zM280 0h-246l136 700h246q96 0 136 -45.5t24 -128.5q-27 -139 -155 -166q138 -23 108 -176q-18 -95 -80 -139.5t-169 -44.5zM509 184q16 81 -21.5 123.5t-144.5 42.5h-221l-65 -332h221q107 0 161 42.5t70 123.5z" />
    <glyph glyph-name="afii10020" unicode="&#x413;" horiz-adv-x="469" 
d="M170 700h372l-4 -18h-352l-132 -682h-20z" />
    <glyph glyph-name="afii10021" unicode="&#x414;" horiz-adv-x="590" 
d="M212 682l-62 -319q-38 -195 -102 -345h384l129 664h-349zM130 365l66 335h389l-133 -682h67l-27 -138h-20l24 120h-514l-24 -120h-19l26 138h61q69 162 104 347z" />
    <glyph glyph-name="afii10022" unicode="&#x415;" horiz-adv-x="512" 
d="M34 0l136 700h381l-4 -18h-361l-61 -314h325l-3 -18h-325l-65 -332h366l-3 -18h-386z" />
    <glyph glyph-name="afii10024" unicode="&#x416;" horiz-adv-x="812" 
d="M366 0h-20l68 350h-114l-316 -350h-24l323 359l-156 341h24l152 -332h114l65 332h20l-65 -332h114l282 332h24l-290 -341l185 -359h-24l-180 350h-114z" />
    <glyph glyph-name="afii10025" unicode="&#x417;" horiz-adv-x="543" 
d="M215 380h77q82 0 141 44.5t73 112.5q13 68 -29 112.5t-124 44.5t-141 -44.5t-72 -112.5l-3 -16h-20l3 16q14 74 79.5 124.5t157.5 50.5t137.5 -50.5t31.5 -124.5q-13 -65 -61 -109t-109 -57q69 -14 102.5 -65.5t19.5 -120.5q-17 -87 -89 -142t-173 -55
q-102 0 -152.5 54.5t-33.5 141.5l4 17h20l-4 -17q-15 -77 32 -127.5t138 -50.5t157 50t81 128q15 77 -31.5 127.5t-137.5 50.5h-77z" />
    <glyph glyph-name="afii10026" unicode="&#x418;" horiz-adv-x="630" 
d="M54 0h-20l136 700h20l-130 -665l552 665h20l-136 -700h-20l129 665z" />
    <glyph glyph-name="afii10027" unicode="&#x419;" horiz-adv-x="630" 
d="M54 0h-20l136 700h20l-130 -665l552 665h20l-136 -700h-20l129 665zM413 765q-127 0 -107 148h20q-18 -130 91 -130t141 130h20q-36 -148 -165 -148z" />
    <glyph glyph-name="afii10028" unicode="&#x41a;" horiz-adv-x="535" 
d="M590 700l-341 -341l236 -359h-26l-229 350h-108l-68 -350h-20l136 700h20l-65 -332h108l331 332h26z" />
    <glyph glyph-name="afii10029" unicode="&#x41b;" horiz-adv-x="640" 
d="M70 84l120 616h452l-136 -700h-20l132 682h-412l-117 -601q-9 -47 -32.5 -67.5t-65.5 -20.5q-21 0 -28 1l4 17h24q34 0 52.5 16.5t26.5 56.5z" />
    <glyph glyph-name="afii10030" unicode="&#x41c;" horiz-adv-x="830" 
d="M376 0h-22l-173 654l-127 -654h-20l136 700h20l179 -679l443 679h20l-136 -700h-20l127 654z" />
    <glyph glyph-name="afii10031" unicode="&#x41d;" horiz-adv-x="620" 
d="M466 0l68 350h-412l-68 -350h-20l136 700h20l-65 -332h412l65 332h20l-136 -700h-20z" />
    <glyph glyph-name="afii10032" unicode="&#x41e;" horiz-adv-x="630" 
d="M568 350q37 196 -16 278q-45 66 -153 66t-177 -66q-86 -81 -124 -278q-39 -195 15 -278q45 -66 153 -66t177 66q85 80 125 278zM78 350q38 203 131 290q77 72 194 72t166 -72q57 -85 19 -290q-40 -203 -132 -290q-76 -72 -194 -72q-116 0 -166 72q-58 86 -18 290z" />
    <glyph glyph-name="afii10033" unicode="&#x41f;" horiz-adv-x="620" 
d="M466 0l132 682h-412l-132 -682h-20l136 700h452l-136 -700h-20z" />
    <glyph glyph-name="afii10034" unicode="&#x420;" horiz-adv-x="579" 
d="M112 300h227q94 0 153 50.5t77 140.5t-22 140.5t-134 50.5h-227zM332 282h-224l-54 -282h-20l136 700h244q107 0 150.5 -56t24.5 -153t-84.5 -153t-172.5 -56z" />
    <glyph glyph-name="afii10035" unicode="&#x421;" horiz-adv-x="617" 
d="M78 350q38 203 131 290q77 72 194 72q111 0 162.5 -62.5t37.5 -173.5h-20q12 101 -34 159.5t-150 58.5q-108 0 -177 -66q-86 -81 -124 -278q-39 -195 15 -278q45 -66 153 -66q104 0 172.5 58.5t95.5 159.5h20q-28 -111 -104.5 -173.5t-187.5 -62.5q-116 0 -166 72
q-58 86 -18 290z" />
    <glyph glyph-name="afii10036" unicode="&#x422;" horiz-adv-x="500" 
d="M100 682l4 18h464l-4 -18h-222l-132 -682h-20l132 682h-222z" />
    <glyph glyph-name="afii10037" unicode="&#x423;" horiz-adv-x="552" 
d="M167 63l89 131l-149 506h23l144 -479l329 479h22l-439 -646q-21 -31 -40 -42.5t-48 -11.5q-23 0 -30 1l3 18h30q19 0 33.5 9t32.5 35z" />
    <glyph glyph-name="afii10038" unicode="&#x424;" horiz-adv-x="704" 
d="M680 350q-24 -125 -117 -184t-231 -60l-20 -106h-20l20 106q-138 1 -207 60t-45 184t116.5 184t230.5 60l21 106h20l-21 -106q138 -1 207.5 -60t45.5 -184zM660 350q22 117 -42 170.5t-195 55.5l-87 -452q281 5 324 226zM316 124l87 452q-281 -5 -323 -226
q-43 -221 236 -226z" />
    <glyph glyph-name="afii10039" unicode="&#x425;" horiz-adv-x="571" 
d="M623 700l-306 -343l180 -357h-25l-172 339l-301 -339h-25l318 357l-172 343h25l162 -325l291 325h25z" />
    <glyph glyph-name="afii10040" unicode="&#x426;" horiz-adv-x="627" 
d="M489 18h67l-27 -138h-20l24 120h-499l136 700h20l-133 -682h412l133 682h20z" />
    <glyph glyph-name="afii10041" unicode="&#x427;" horiz-adv-x="598" 
d="M444 0l60 309q-105 -71 -238 -71q-196 0 -155 212l49 250h20l-49 -248q-19 -101 16 -148.5t125 -47.5q125 0 235 72l73 372h20l-136 -700h-20z" />
    <glyph glyph-name="afii10042" unicode="&#x428;" horiz-adv-x="944" 
d="M793 18l133 682h20l-136 -700h-776l136 700h20l-133 -682h358l133 682h20l-133 -682h358z" />
    <glyph glyph-name="afii10043" unicode="&#x429;" horiz-adv-x="951" 
d="M793 18l133 682h20l-133 -682h67l-27 -138h-20l24 120h-823l136 700h20l-133 -682h358l133 682h20l-133 -682h358z" />
    <glyph glyph-name="afii10044" unicode="&#x42a;" horiz-adv-x="675" 
d="M387 0h-237l132 682h-182l4 18h202l-56 -288h217q91 0 134 -53t24 -153q-20 -100 -83.5 -153t-154.5 -53zM173 18h210q87 0 145.5 48t76.5 140t-22 140t-127 48h-210z" />
    <glyph glyph-name="afii10045" unicode="&#x42b;" horiz-adv-x="710" 
d="M271 0h-237l136 700h20l-56 -288h217q91 0 134 -53t24 -153q-20 -100 -83.5 -153t-154.5 -53zM57 18h210q87 0 145.5 48t76.5 140t-22 140t-127 48h-210zM712 700l-136 -700h-20l136 700h20z" />
    <glyph glyph-name="afii10046" unicode="&#x42c;" horiz-adv-x="559" 
d="M271 0h-237l136 700h20l-56 -288h217q91 0 134 -53t24 -153q-20 -100 -83.5 -153t-154.5 -53zM57 18h210q87 0 145.5 48t76.5 140t-22 140t-127 48h-210z" />
    <glyph glyph-name="afii10047" unicode="&#x42d;" horiz-adv-x="617" 
d="M575 350q-40 -203 -132 -290q-77 -72 -194 -72q-111 0 -162.5 62.5t-37.5 173.5h20q-12 -101 34 -159.5t150 -58.5q108 0 177 66q83 78 123 269h-278l3 18h278q36 189 -17 269q-45 66 -153 66q-104 0 -172.5 -58.5t-95.5 -159.5h-20q28 111 104.5 173.5t187.5 62.5
q116 0 166 -72q57 -85 19 -290z" />
    <glyph glyph-name="afii10048" unicode="&#x42e;" horiz-adv-x="771" 
d="M190 700l-67 -341h97q40 196 130 281q77 72 194 72q116 0 166 -72q57 -85 19 -290q-40 -203 -132 -290q-77 -72 -194 -72t-166 72q-57 83 -20 281h-97l-66 -341h-20l136 700h20zM709 350q37 196 -16 278q-45 66 -153 66t-177 -66q-86 -81 -124 -278q-39 -195 15 -278
q45 -66 153 -66t177 66q85 80 125 278z" />
    <glyph glyph-name="afii10049" unicode="&#x42f;" horiz-adv-x="602" 
d="M24 0h-20q14 24 24 64l25 100q18 68 54.5 102t98.5 45q-132 32 -101 190q18 93 81 146t170 53h248l-136 -700h-20l58 302h-230q-88 0 -136 -33.5t-67 -104.5l-25 -100q-8 -35 -24 -64zM279 320h231l70 362h-231q-94 0 -150.5 -47.5t-73.5 -133.5t21.5 -133.5t132.5 -47.5
z" />
    <glyph glyph-name="afii10065" unicode="&#x430;" horiz-adv-x="530" 
d="M48 250q25 126 88.5 194t166.5 68q71 0 111.5 -33.5t47.5 -97.5l23 119h20l-97 -500h-20l23 119q-65 -131 -210 -131q-103 0 -140.5 68t-12.5 194zM436 250q48 244 -136 244t-232 -244q-47 -244 137 -244t231 244z" />
    <glyph glyph-name="afii10066" unicode="&#x431;" horiz-adv-x="514" 
d="M100 381q64 131 209 131q103 0 140.5 -68t12.5 -194t-88.5 -194t-166.5 -68q-119 0 -150 88q-14 38 -11.5 90.5t24.5 165.5q23 115 36 158q22 82 60 126q28 32 66.5 48t118.5 30l108 18l3 -18l-114 -19q-72 -12 -107.5 -26t-60.5 -44q-45 -54 -80 -224zM211 6
q184 0 231 244q48 244 -136 244t-232 -244q-47 -244 137 -244z" />
    <glyph glyph-name="afii10067" unicode="&#x432;" horiz-adv-x="482" 
d="M227 0h-205l97 500h192q87 0 119 -32t20 -96q-20 -98 -116 -116q104 -18 83 -124q-25 -132 -190 -132zM274 246h-185l-44 -228h185q70 0 112.5 26t54.5 88q12 61 -20.5 87.5t-102.5 26.5zM430 373q11 57 -18.5 83t-104.5 26h-172l-42 -218h172q75 0 114.5 26t50.5 83z
" />
    <glyph glyph-name="afii10068" unicode="&#x433;" horiz-adv-x="380" 
d="M405 482h-270l-93 -482h-20l97 500h290z" />
    <glyph glyph-name="afii10069" unicode="&#x434;" horiz-adv-x="482" 
d="M151 482l-46 -240q-27 -133 -63 -224h293l90 464h-274zM84 241l51 259h314l-94 -482h60l-25 -128h-20l22 110h-407l-22 -110h-19l24 128h52q41 99 64 223z" />
    <glyph glyph-name="afii10070" unicode="&#x435;" horiz-adv-x="508" 
d="M404 142h20q-27 -73 -84.5 -113.5t-138.5 -40.5q-103 0 -140.5 68t-12.5 194t88.5 194t166.5 68t140.5 -68t12.5 -194v-2h-388q-47 -242 137 -242q144 0 199 136zM300 494q-180 0 -229 -228h368q38 228 -139 228z" />
    <glyph glyph-name="afii10072" unicode="&#x436;" horiz-adv-x="644" 
d="M282 0h-20l48 252h-96l-229 -252h-24l238 261l-118 239h23l114 -230h96l45 230h20l-45 -230h96l204 230h23l-212 -239l138 -261h-24l-133 252h-96z" />
    <glyph glyph-name="afii10073" unicode="&#x437;" horiz-adv-x="470" 
d="M176 262h57q75 0 123 32t58 84t-25.5 84t-109.5 32t-122.5 -32t-58.5 -84l-2 -11h-20l2 11q12 59 66.5 96.5t137.5 37.5t123.5 -37.5t28.5 -96.5q-9 -48 -46.5 -81.5t-95.5 -43.5q57 -9 85.5 -42.5t18.5 -85.5q-13 -64 -71.5 -100.5t-147.5 -36.5q-88 0 -132.5 39
t-31.5 104v2h20v-2q-11 -58 30 -91.5t118 -33.5q78 0 131 31t64 88t-30 88t-119 31h-54z" />
    <glyph glyph-name="afii10074" unicode="&#x438;" horiz-adv-x="512" 
d="M467 500h20l-97 -500h-20l90 468l-418 -468h-20l97 500h20l-91 -468z" />
    <glyph glyph-name="afii10075" unicode="&#x439;" horiz-adv-x="512" 
d="M467 500h20l-97 -500h-20l90 468l-418 -468h-20l97 500h20l-91 -468zM316 568q-129 0 -107 148h20q-18 -130 90 -130q109 0 142 130h20q-38 -148 -165 -148z" />
    <glyph glyph-name="afii10076" unicode="&#x43a;" horiz-adv-x="429" 
d="M42 0h-20l97 500h20l-45 -230h79l249 230h25l-258 -239l184 -261h-26l-178 252h-79z" />
    <glyph glyph-name="afii10077" unicode="&#x43b;" horiz-adv-x="524" 
d="M51 69l84 431h364l-97 -500h-20l93 482h-324l-81 -416q-13 -73 -81 -73q-16 0 -23 1l4 17h19q27 0 41 12.5t21 45.5z" />
    <glyph glyph-name="afii10078" unicode="&#x43c;" horiz-adv-x="644" 
d="M282 0h-20l-132 457l-88 -457h-20l97 500h20l137 -476l323 476h20l-97 -500h-20l88 457z" />
    <glyph glyph-name="afii10079" unicode="&#x43d;" horiz-adv-x="508" 
d="M483 500l-97 -500h-20l48 248h-324l-48 -248h-20l97 500h20l-46 -234h324l46 234h20z" />
    <glyph glyph-name="afii10080" unicode="&#x43e;" horiz-adv-x="508" 
d="M456 250q-25 -126 -88.5 -194t-166.5 -68t-140.5 68t-12.5 194t88.5 194t166.5 68t140.5 -68t12.5 -194zM436 250q48 244 -136 244t-232 -244q-47 -244 137 -244t231 244z" />
    <glyph glyph-name="afii10081" unicode="&#x43f;" horiz-adv-x="508" 
d="M483 500l-97 -500h-20l93 482h-324l-93 -482h-20l97 500h364z" />
    <glyph glyph-name="afii10082" unicode="&#x440;" horiz-adv-x="530" 
d="M478 250q-25 -126 -88.5 -194t-166.5 -68q-72 0 -112 34t-46 97l-66 -337h-20l140 718h20l-23 -119q64 131 209 131q103 0 140.5 -68t12.5 -194zM458 250q48 244 -136 244t-232 -244q-47 -244 137 -244t231 244z" />
    <glyph glyph-name="afii10083" unicode="&#x441;" horiz-adv-x="499" 
d="M48 250q25 126 88.5 194t166.5 68q85 0 126.5 -44t36.5 -123h-20q3 71 -33.5 110t-112.5 39q-184 0 -232 -244q-47 -244 137 -244q76 0 128 39t76 110h20q-27 -79 -85 -123t-143 -44q-103 0 -140.5 68t-12.5 194z" />
    <glyph glyph-name="afii10084" unicode="&#x442;" horiz-adv-x="414" 
d="M240 482h-179l4 18h378l-4 -18h-179l-93 -482h-20z" />
    <glyph glyph-name="afii10085" unicode="&#x443;" horiz-adv-x="484" 
d="M102 -131l78 130l-111 501h23l104 -476l290 476h23l-390 -636q-32 -51 -57.5 -66.5t-69.5 -15.5q-8 0 -14 1l4 17h13q37 0 59.5 14t47.5 55z" />
    <glyph glyph-name="afii10086" unicode="&#x444;" horiz-adv-x="880" 
d="M40 250q25 126 88.5 194t166.5 68q71 0 111.5 -33.5t47.5 -97.5l62 319h20l-62 -319q64 131 209 131q103 0 140.5 -68t12.5 -194t-88.5 -194t-166.5 -68q-72 0 -112 34t-46 97l-66 -337h-20l66 337q-65 -131 -210 -131q-103 0 -140.5 68t-12.5 194zM816 250
q48 244 -136 244t-232 -244q-47 -244 137 -244t231 244zM428 250q48 244 -136 244t-232 -244q-47 -244 137 -244t231 244z" />
    <glyph glyph-name="afii10087" unicode="&#x445;" horiz-adv-x="444" 
d="M358 0l-140 239l-232 -239h-26l248 256l-141 244h26l132 -227l220 227h26l-237 -244l150 -256h-26z" />
    <glyph glyph-name="afii10088" unicode="&#x446;" horiz-adv-x="516" 
d="M22 0l97 500h20l-94 -482h324l94 482h20l-94 -482h60l-25 -128h-20l22 110h-404z" />
    <glyph glyph-name="afii10089" unicode="&#x447;" horiz-adv-x="490" 
d="M348 0l40 210q-34 -26 -83 -43t-97 -17q-81 0 -116 42t-19 126l36 182h20l-36 -182q-29 -150 118 -150q103 0 181 62l53 270h20l-97 -500h-20z" />
    <glyph glyph-name="afii10090" unicode="&#x448;" horiz-adv-x="758" 
d="M733 500l-97 -500h-614l97 500h20l-94 -482h277l94 482h20l-94 -482h277l94 482h20z" />
    <glyph glyph-name="afii10091" unicode="&#x449;" horiz-adv-x="766" 
d="M733 500l-94 -482h60l-25 -128h-20l22 110h-654l97 500h20l-94 -482h277l94 482h20l-94 -482h277l94 482h20z" />
    <glyph glyph-name="afii10092" unicode="&#x44a;" horiz-adv-x="523" 
d="M173 482h-112l4 18h132l-34 -174h170q84 0 117.5 -43.5t18.5 -119.5t-65.5 -119.5t-133.5 -43.5h-190zM449 163q14 69 -16.5 107t-104.5 38h-169l-56 -290h169q74 0 119 38t58 107z" />
    <glyph glyph-name="afii10093" unicode="&#x44b;" horiz-adv-x="595" 
d="M411 163q-15 -76 -65.5 -119.5t-133.5 -43.5h-190l97 500h20l-34 -174h170q84 0 117.5 -43.5t18.5 -119.5zM391 163q14 69 -16.5 107t-104.5 38h-169l-56 -290h169q74 0 119 38t58 107zM473 0h-20l97 500h20z" />
    <glyph glyph-name="afii10094" unicode="&#x44c;" horiz-adv-x="465" 
d="M411 163q-15 -76 -65.5 -119.5t-133.5 -43.5h-190l97 500h20l-34 -174h170q84 0 117.5 -43.5t18.5 -119.5zM391 163q14 69 -16.5 107t-104.5 38h-169l-56 -290h169q74 0 119 38t58 107z" />
    <glyph glyph-name="afii10095" unicode="&#x44d;" horiz-adv-x="499" 
d="M447 250q-25 -126 -88.5 -194t-166.5 -68q-85 0 -126 44t-36 123h20q-3 -71 33.5 -110t112.5 -39q181 0 229 235h-205l4 18h205q42 235 -138 235q-76 0 -128 -39t-76 -110h-20q26 79 84 123t143 44q103 0 140.5 -68t12.5 -194z" />
    <glyph glyph-name="afii10096" unicode="&#x44e;" horiz-adv-x="626" 
d="M574 250q-25 -126 -88.5 -194t-166.5 -68q-200 0 -155 253h-76l-46 -241h-20l97 500h20l-47 -241h76q25 121 88 187t165 66q103 0 140.5 -68t12.5 -194zM554 250q48 244 -136 244t-232 -244q-47 -244 137 -244t231 244z" />
    <glyph glyph-name="afii10097" unicode="&#x44f;" horiz-adv-x="493" 
d="M149 224q-48 11 -67 46t-9 87q14 71 66 107t131 36h198l-97 -500h-20l41 214h-188q-73 0 -105 -24.5t-46 -79.5l-17 -66q-6 -28 -15 -44h-19q11 27 15 46l18 70q12 48 39 74.5t75 33.5zM217 232h179l48 250h-179q-148 0 -172 -125q-12 -64 21.5 -94.5t102.5 -30.5z" />
    <glyph glyph-name="uni0450" unicode="&#x450;" horiz-adv-x="508" 
d="M404 142h20q-27 -73 -84.5 -113.5t-138.5 -40.5q-103 0 -140.5 68t-12.5 194t88.5 194t166.5 68t140.5 -68t12.5 -194v-2h-388q-47 -242 137 -242q144 0 199 136zM300 494q-180 0 -229 -228h368q38 228 -139 228zM342 564l-79 161h22l79 -161h-22z" />
    <glyph glyph-name="afii10071" unicode="&#x451;" horiz-adv-x="508" 
d="M404 142h20q-27 -73 -84.5 -113.5t-138.5 -40.5q-103 0 -140.5 68t-12.5 194t88.5 194t166.5 68t140.5 -68t12.5 -194v-2h-388q-47 -242 137 -242q144 0 199 136zM300 494q-180 0 -229 -228h368q38 228 -139 228zM424 658l-6 -32h-32l6 32h32zM270 658l-6 -32h-32l6 32
h32z" />
    <glyph glyph-name="afii10099" unicode="&#x452;" horiz-adv-x="529" 
d="M368 -113l81 419q18 91 -12 139.5t-105 48.5q-84 0 -150.5 -64t-90.5 -176l-49 -254h-20l115 595h-60l4 18h60l17 87h20l-17 -87h180l-4 -18h-180l-46 -237q34 73 93.5 113.5t132.5 40.5q82 0 116.5 -54t15.5 -152l-82 -423q-20 -101 -120 -101q-15 0 -21 1l4 17h20
q80 0 98 87z" />
    <glyph glyph-name="afii10100" unicode="&#x453;" horiz-adv-x="380" 
d="M405 482h-270l-93 -482h-20l97 500h290zM388 725l-141 -161h-22l141 161h22z" />
    <glyph glyph-name="afii10101" unicode="&#x454;" horiz-adv-x="499" 
d="M48 250q25 126 88.5 194t166.5 68q85 0 126.5 -44t36.5 -123h-20q3 71 -33.5 110t-112.5 39q-182 0 -230 -235h205l-4 -18h-205q-42 -235 139 -235q76 0 128 39t76 110h20q-27 -79 -85 -123t-143 -44q-103 0 -140.5 68t-12.5 194z" />
    <glyph glyph-name="afii10102" unicode="&#x455;" horiz-adv-x="457" 
d="M417 384l-4 -21h-20l4 21q9 49 -24.5 79.5t-103.5 30.5t-116.5 -31t-55.5 -80q-9 -48 15 -72.5t91 -38.5l75 -15q69 -13 94 -44.5t14 -85.5q-12 -63 -70 -101t-138 -38t-123 38t-31 101l4 19h20l-4 -19q-10 -55 28.5 -88t109.5 -33t122.5 33t61.5 88q10 49 -12.5 74.5
t-87.5 38.5l-75 15q-71 14 -98 44.5t-16 84.5q11 55 63 91.5t132 36.5t118 -36.5t27 -91.5z" />
    <glyph glyph-name="afii10103" unicode="&#x456;" horiz-adv-x="174" 
d="M47 0h-20l97 500h20zM167 620h-20l16 80h20z" />
    <glyph glyph-name="afii10104" unicode="&#x457;" horiz-adv-x="174" 
d="M47 0h-20l97 500h20zM257 658l-6 -32h-32l6 32h32zM103 658l-6 -32h-32l6 32h32z" />
    <glyph glyph-name="afii10105" unicode="&#x458;" horiz-adv-x="174" 
d="M144 500l-120 -617q-20 -101 -119 -101q-15 0 -21 1l4 17h20q79 0 97 87l119 613h20zM167 620h-20l16 80h20z" />
    <glyph glyph-name="afii10106" unicode="&#x459;" horiz-adv-x="815" 
d="M761 163q-15 -76 -65.5 -119.5t-133.5 -43.5h-190l93 482h-314l-81 -416q-13 -73 -81 -73q-16 0 -23 1l4 17h19q27 0 41 12.5t21 45.5l84 431h354l-34 -174h170q84 0 117.5 -43.5t18.5 -119.5zM741 163q14 69 -16.5 107t-104.5 38h-169l-56 -290h169q74 0 119 38t58 107z
" />
    <glyph glyph-name="afii10107" unicode="&#x45a;" horiz-adv-x="799" 
d="M745 163q-15 -76 -65.5 -119.5t-133.5 -43.5h-190l48 248h-314l-48 -248h-20l97 500h20l-46 -234h314l46 234h20l-34 -174h170q84 0 117.5 -43.5t18.5 -119.5zM725 163q14 69 -16.5 107t-104.5 38h-169l-56 -290h169q74 0 119 38t58 107z" />
    <glyph glyph-name="afii10108" unicode="&#x45b;" horiz-adv-x="529" 
d="M42 0h-20l115 595h-60l4 18h60l17 87h20l-17 -87h180l-4 -18h-180l-46 -237q34 73 93.5 113.5t132.5 40.5q82 0 116.5 -54t15.5 -152l-59 -306h-20l59 306q18 91 -12 139.5t-105 48.5q-84 0 -150.5 -64t-90.5 -176z" />
    <glyph glyph-name="afii10109" unicode="&#x45c;" horiz-adv-x="429" 
d="M42 0h-20l97 500h20l-45 -230h79l249 230h25l-258 -239l184 -261h-26l-178 252h-79zM390 725l-141 -161h-22l141 161h22z" />
    <glyph glyph-name="uni045D" unicode="&#x45d;" horiz-adv-x="512" 
d="M467 500h20l-97 -500h-20l90 468l-418 -468h-20l97 500h20l-91 -468zM349 564l-79 161h22l79 -161h-22z" />
    <glyph glyph-name="afii10110" unicode="&#x45e;" horiz-adv-x="484" 
d="M102 -131l78 130l-111 501h23l104 -476l290 476h23l-390 -636q-32 -51 -57.5 -66.5t-69.5 -15.5q-8 0 -14 1l4 17h13q37 0 59.5 14t47.5 55zM306 568q-129 0 -107 148h20q-18 -130 90 -130q109 0 142 130h20q-38 -148 -165 -148z" />
    <glyph glyph-name="afii10193" unicode="&#x45f;" horiz-adv-x="508" 
d="M483 500l-97 -500h-172l-22 -110h-20l22 110h-172l97 500h20l-94 -482h324l94 482h20z" />
    <glyph glyph-name="afii10050" unicode="&#x490;" horiz-adv-x="468" 
d="M170 700h352l27 140h20l-31 -158h-352l-132 -682h-20z" />
    <glyph glyph-name="afii10098" unicode="&#x491;" horiz-adv-x="380" 
d="M405 482h-270l-93 -482h-20l97 500h270l21 108h20z" />
    <glyph glyph-name="Wgrave" unicode="&#x1e80;" horiz-adv-x="914" 
d="M534 700h18l82 -665l326 665h22l-343 -700h-20l-83 665l-341 -665h-20l-71 700h22l66 -665zM579 763l-79 161h22l79 -161h-22z" />
    <glyph glyph-name="wgrave" unicode="&#x1e81;" horiz-adv-x="774" 
d="M424 500h20l77 -471l259 471h23l-277 -500h-20l-78 471l-260 -471h-20l-83 500h23l75 -471zM470 564l-79 161h22l79 -161h-22z" />
    <glyph glyph-name="Wacute" unicode="&#x1e82;" horiz-adv-x="914" 
d="M534 700h18l82 -665l326 665h22l-343 -700h-20l-83 665l-341 -665h-20l-71 700h22l66 -665zM672 924l-141 -161h-22l141 161h22z" />
    <glyph glyph-name="wacute" unicode="&#x1e83;" horiz-adv-x="774" 
d="M424 500h20l77 -471l259 471h23l-277 -500h-20l-78 471l-260 -471h-20l-83 500h23l75 -471zM563 725l-141 -161h-22l141 161h22z" />
    <glyph glyph-name="Wdieresis" unicode="&#x1e84;" horiz-adv-x="914" 
d="M534 700h18l82 -665l326 665h22l-343 -700h-20l-83 665l-341 -665h-20l-71 700h22l66 -665zM666 857l-6 -32h-32l6 32h32zM512 857l-6 -32h-32l6 32h32z" />
    <glyph glyph-name="wdieresis" unicode="&#x1e85;" horiz-adv-x="774" 
d="M424 500h20l77 -471l259 471h23l-277 -500h-20l-78 471l-260 -471h-20l-83 500h23l75 -471zM557 658l-6 -32h-32l6 32h32zM403 658l-6 -32h-32l6 32h32z" />
    <glyph glyph-name="Ygrave" unicode="&#x1ef2;" horiz-adv-x="572" 
d="M293 294l324 406h23l-341 -424l-53 -276h-20l53 276l-175 424h23zM413 763l-79 161h22l79 -161h-22z" />
    <glyph glyph-name="ygrave" unicode="&#x1ef3;" horiz-adv-x="484" 
d="M102 -131l78 130l-111 501h23l104 -476l290 476h23l-390 -636q-32 -51 -57.5 -66.5t-69.5 -15.5q-8 0 -14 1l4 17h13q37 0 59.5 14t47.5 55zM335 564l-79 161h22l79 -161h-22z" />
    <glyph glyph-name="thinspace" unicode="&#x2009;" horiz-adv-x="200" 
 />
    <glyph glyph-name="uni2010" unicode="&#x2010;" horiz-adv-x="392" 
d="M71 316l4 20h272l-4 -20h-272z" />
    <glyph glyph-name="figuredash" unicode="&#x2012;" horiz-adv-x="600" 
d="M561 316h-500l4 20h500z" />
    <glyph glyph-name="endash" unicode="&#x2013;" horiz-adv-x="500" 
d="M511 316h-500l4 20h500z" />
    <glyph glyph-name="emdash" unicode="&#x2014;" horiz-adv-x="1000" 
d="M1011 316h-1000l4 20h1000z" />
    <glyph glyph-name="afii00208" unicode="&#x2015;" horiz-adv-x="1000" 
d="M911 316h-800l4 20h800z" />
    <glyph glyph-name="uni2016" unicode="&#x2016;" horiz-adv-x="364" 
d="M32 -130l171 879h20l-171 -879h-20zM160 -130l171 879h20l-171 -879h-20z" />
    <glyph glyph-name="underscoredbl" unicode="&#x2017;" horiz-adv-x="620" 
d="M-30 -204l4 20h500l-4 -20h-500zM-5 -74l4 20h500l-4 -20h-500z" />
    <glyph glyph-name="quoteleft" unicode="&#x2018;" horiz-adv-x="272" 
d="M289 776l-5 -27q-22 -10 -35 -28.5t-20 -54.5l-17 -85h-28l17 84q17 89 88 111z" />
    <glyph glyph-name="quoteright" unicode="&#x2019;" horiz-adv-x="272" 
d="M145 581l6 27q22 10 35 28.5t20 54.5l16 85h28l-16 -84q-17 -90 -89 -111z" />
    <glyph glyph-name="quotesinglbase" unicode="&#x201a;" horiz-adv-x="272" 
d="M10 -115l5 27q22 10 35.5 28t20.5 55l16 85h28l-16 -84q-19 -90 -89 -111z" />
    <glyph glyph-name="quotereversed" unicode="&#x201b;" horiz-adv-x="272" 
d="M257 608l-6 -27q-62 21 -45 111l16 84h28l-16 -85q-13 -64 23 -83z" />
    <glyph glyph-name="quotedblleft" unicode="&#x201c;" horiz-adv-x="375" 
d="M289 776l-5 -27q-22 -10 -35 -28.5t-20 -54.5l-17 -85h-28l17 84q17 89 88 111zM392 776l-5 -27q-22 -10 -35 -28.5t-20 -54.5l-17 -85h-28l17 84q17 89 88 111z" />
    <glyph glyph-name="quotedblright" unicode="&#x201d;" horiz-adv-x="375" 
d="M145 581l6 27q22 10 35 28.5t20 54.5l16 85h28l-16 -84q-17 -90 -89 -111zM248 581l6 27q22 10 35 28.5t20 54.5l16 85h28l-16 -84q-17 -90 -89 -111z" />
    <glyph glyph-name="quotedblbase" unicode="&#x201e;" horiz-adv-x="375" 
d="M10 -115l5 27q22 10 35.5 28t20.5 55l16 85h28l-16 -84q-19 -90 -89 -111zM113 -115l5 27q22 10 35.5 28t20.5 55l16 85h28l-16 -84q-19 -90 -89 -111z" />
    <glyph glyph-name="uni201F" unicode="&#x201f;" horiz-adv-x="375" 
d="M257 608l-6 -27q-62 21 -45 111l16 84h28l-16 -85q-13 -64 23 -83zM360 608l-6 -27q-62 21 -45 111l16 84h28l-16 -85q-13 -64 23 -83z" />
    <glyph glyph-name="dagger" unicode="&#x2020;" horiz-adv-x="556" 
d="M538 580l-3 -18h-188l-135 -693h-20l135 693h-188l3 18h188l33 168h20l-33 -168h188z" />
    <glyph glyph-name="daggerdbl" unicode="&#x2021;" horiz-adv-x="556" 
d="M37 37l3 18h188l99 507h-188l3 18h188l33 168h20l-33 -168h188l-3 -18h-188l-99 -507h188l-3 -18h-188l-33 -168h-20l33 168h-188z" />
    <glyph glyph-name="bullet" unicode="&#x2022;" horiz-adv-x="362" 
d="M322 326q0 -54 -38.5 -92.5t-92.5 -38.5t-92.5 38.5t-38.5 92.5t38.5 92.5t92.5 38.5t92.5 -38.5t38.5 -92.5z" />
    <glyph glyph-name="onedotenleader" unicode="&#x2024;" horiz-adv-x="272" 
d="M115 80l-15 -80h-28l15 80h28z" />
    <glyph glyph-name="twodotenleader" unicode="&#x2025;" horiz-adv-x="544" 
d="M115 80l-15 -80h-28l15 80h28zM387 80l-15 -80h-28l15 80h28z" />
    <glyph glyph-name="ellipsis" unicode="&#x2026;" horiz-adv-x="816" 
d="M115 80l-15 -80h-28l15 80h28zM387 80l-15 -80h-28l15 80h28zM659 80l-15 -80h-28l15 80h28z" />
    <glyph glyph-name="perthousand" unicode="&#x2030;" horiz-adv-x="1076" 
d="M179 0l423 700h21l-423 -700h-21zM381 523q-36 -189 -169 -189q-131 0 -95 189t169 189q131 0 95 -189zM361 523q33 171 -79 171t-145 -171t79 -171t145 171zM420 177q36 189 169 189q131 0 95 -189t-169 -189q-131 0 -95 189zM440 177q-33 -171 79 -171t145 171t-79 171
t-145 -171zM730 177q36 189 169 189q131 0 95 -189t-169 -189q-131 0 -95 189zM750 177q-33 -171 79 -171t145 171t-79 171t-145 -171z" />
    <glyph glyph-name="minute" unicode="&#x2032;" horiz-adv-x="150" 
d="M77 478l103 222h21l-103 -222h-21z" />
    <glyph glyph-name="second" unicode="&#x2033;" horiz-adv-x="268" 
d="M77 478l103 222h21l-103 -222h-21zM195 478l103 222h21l-103 -222h-21z" />
    <glyph glyph-name="guilsinglleft" unicode="&#x2039;" horiz-adv-x="314" 
d="M301 442l-226 -130l176 -130l-4 -22l-191 142l4 20l246 142z" />
    <glyph glyph-name="guilsinglright" unicode="&#x203a;" horiz-adv-x="314" 
d="M33 182l226 130l-176 130l5 22l190 -142l-4 -20l-245 -142z" />
    <glyph glyph-name="exclamdbl" unicode="&#x203c;" horiz-adv-x="443" 
d="M230 700l-97 -488h-20l93 488h24zM111 80l-15 -80h-28l15 80h28zM409 700l-97 -488h-20l93 488h24zM290 80l-15 -80h-28l15 80h28z" />
    <glyph glyph-name="uni203E" unicode="&#x203e;" horiz-adv-x="318" 
d="M91 637l4 20h282l-4 -20h-282z" />
    <glyph glyph-name="fraction" unicode="&#x2044;" horiz-adv-x="103" 
d="M319 700l-478 -700h-21l478 700h21z" />
    <glyph glyph-name="zerosuperior" unicode="&#x2070;" 
d="M72 468q26 132 74 186t121 54t100 -54t1 -186q-25 -132 -73 -186t-121 -54t-100 54t-2 186zM348 468q22 126 2 174t-86 48t-107 -50t-65 -172q-22 -126 -1.5 -174t86.5 -48t107 50t64 172z" />
    <glyph glyph-name="uni2071" unicode="&#x2071;" 
d="M165 236l63 323h20l-63 -323h-20zM238 612l18 88h20l-18 -88h-20z" />
    <glyph glyph-name="foursuperior" unicode="&#x2074;" 
d="M74 360h214l60 307zM356 360l-3 -18h-48l-21 -106h-20l21 106h-237l3 18l304 340h20l-67 -340h48z" />
    <glyph glyph-name="fivesuperior" unicode="&#x2075;" 
d="M64 364h20q-7 -54 18 -84.5t78 -32.5q58 2 96 38t51 102q27 140 -89 140q-84 0 -124 -75h-20l60 248h230l-4 -18h-211l-47 -196q41 59 119 59q68 0 94 -42t12 -116q-14 -73 -59 -115.5t-112 -42.5q-61 0 -90.5 36.5t-21.5 98.5z" />
    <glyph glyph-name="sixsuperior" unicode="&#x2076;" 
d="M350 386q-14 -71 -62 -114.5t-112 -43.5q-37 0 -67 18t-42 54q-14 40 5 139q35 177 91 231q39 38 104 38q55 0 82.5 -31.5t25.5 -84.5h-20q0 98 -91 98q-64 0 -102 -49.5t-65 -180.5q21 36 58 60t82 24q64 0 95.5 -43.5t17.5 -114.5zM330 386q12 63 -14.5 101.5
t-81.5 38.5t-96.5 -38.5t-53.5 -101.5q-13 -63 13.5 -101.5t81.5 -38.5t96.5 38.5t54.5 101.5z" />
    <glyph glyph-name="sevensuperior" unicode="&#x2077;" 
d="M122 682l4 18h277l-4 -18l-253 -446h-21l253 446h-256z" />
    <glyph glyph-name="eightsuperior" unicode="&#x2078;" 
d="M267 708q62 0 92.5 -33t20.5 -84q-7 -39 -35 -68.5t-70 -39.5q44 -10 62.5 -43t9.5 -80q-11 -61 -58 -96.5t-115 -35.5t-101 35.5t-22 96.5q9 47 41 80t79 43q-38 10 -54 39.5t-9 68.5q10 51 53.5 84t105.5 33zM225 492q55 0 91 28t44 71q9 43 -16 71t-80 28t-91 -28
t-45 -71q-8 -43 17 -71t80 -28zM177 246q58 0 99 31t51 83t-19 83t-86 31t-99 -31t-52 -83t19.5 -83t86.5 -31z" />
    <glyph glyph-name="ninesuperior" unicode="&#x2079;" 
d="M91 550q14 71 62 114.5t112 43.5q37 0 67 -18t42 -54q14 -40 -5 -139q-35 -177 -91 -231q-39 -38 -104 -38q-55 0 -82.5 31.5t-25.5 84.5h20q0 -98 91 -98q64 0 102 49.5t65 180.5q-21 -36 -58 -60t-82 -24q-64 0 -95.5 43.5t-17.5 114.5zM111 550q-12 -63 14.5 -101.5
t81.5 -38.5t96.5 38.5t53.5 101.5q13 63 -13.5 101.5t-81.5 38.5t-96.5 -38.5t-54.5 -101.5z" />
    <glyph glyph-name="uni207A" unicode="&#x207a;" 
d="M210 324v135h-132v18h132v135h20v-135h132v-18h-132v-135h-20z" />
    <glyph glyph-name="uni207B" unicode="&#x207b;" 
d="M362 459h-284v18h284v-18z" />
    <glyph glyph-name="uni207C" unicode="&#x207c;" 
d="M362 529h-284v18h284v-18zM362 389h-284v18h284v-18z" />
    <glyph glyph-name="uni207D" unicode="&#x207d;" 
d="M173 468q23 119 53 184.5t66.5 90t93.5 24.5l-4 -18q-49 0 -81 -22t-59 -83.5t-49 -175.5q-30 -172 -11.5 -226.5t91.5 -54.5l-4 -18q-57 0 -83.5 24t-32 90.5t19.5 184.5z" />
    <glyph glyph-name="uni207E" unicode="&#x207e;" 
d="M267 468q-23 -119 -52.5 -184.5t-66 -90t-93.5 -24.5l4 18q49 0 81 22t58.5 84t48.5 175q25 113 20 175.5t-27.5 84t-71.5 21.5l4 18q57 0 83.5 -24t32 -90.5t-20.5 -184.5z" />
    <glyph glyph-name="uni207F" unicode="&#x207f;" 
d="M44 237l68 351h20l-18 -89q25 44 64.5 71t85.5 27q55 0 78 -32.5t11 -93.5l-45 -234h-20l45 234q10 53 -9.5 80.5t-66.5 27.5q-56 0 -101 -47.5t-56 -106.5l-36 -188h-20z" />
    <glyph glyph-name="zeroinferior" unicode="&#x2080;" 
d="M2 105q26 132 74 186t121 54t100 -54t1 -186t-74 -186t-121 -54t-100 54t-1 186zM278 105q22 126 1.5 174t-86.5 48t-106.5 -50t-64.5 -172q-22 -126 -1.5 -174t86.5 -48t106.5 50t64.5 172z" />
    <glyph glyph-name="oneinferior" unicode="&#x2081;" 
d="M128 -127h-20l86 444l-107 -46l4 20l107 46h20z" />
    <glyph glyph-name="twoinferior" unicode="&#x2082;" 
d="M283 201q11 55 -14 90.5t-78 35.5t-91 -35.5t-49 -90.5l-2 -9h-20l2 10q12 63 56.5 103t107.5 40t91.5 -40t16.5 -103q-6 -31 -20 -53.5t-48 -52.5l-230 -205h236l-3 -18h-261l3 18l246 219q46 42 57 91z" />
    <glyph glyph-name="threeinferior" unicode="&#x2083;" 
d="M253 -5q10 51 -17.5 81.5t-77.5 30.5h-48l4 18h48q44 0 79 27t44 74q10 47 -15.5 74t-76.5 27q-50 0 -86.5 -28.5t-45.5 -75.5l-2 -12h-20l2 12q10 52 53 87t103 35t89 -33.5t19 -85.5q-7 -37 -33 -68.5t-71 -41.5q90 -22 72 -121q-11 -55 -57 -92.5t-113 -37.5t-98 37.5
t-20 92.5l4 25h20l-4 -25q-10 -48 18 -80t84 -32t96 32t50 80z" />
    <glyph glyph-name="fourinferior" unicode="&#x2084;" 
d="M4 -3h214l60 307zM286 -3l-4 -18h-48l-20 -106h-20l20 106h-237l4 18l303 340h20l-66 -340h48z" />
    <glyph glyph-name="fiveinferior" unicode="&#x2085;" 
d="M-6 1h20q-7 -54 18 -84.5t77 -32.5q59 2 96.5 38t50.5 102q27 140 -89 140q-83 0 -123 -75h-20l59 248h230l-3 -18h-211l-48 -196q43 59 120 59q68 0 94 -42t11 -116q-14 -73 -59 -115.5t-112 -42.5q-61 0 -90 36.5t-21 98.5z" />
    <glyph glyph-name="sixinferior" unicode="&#x2086;" 
d="M279 23q-13 -71 -61 -114.5t-113 -43.5q-37 0 -67 18t-42 54q-14 40 5 139q34 176 91 231q39 38 105 38q55 0 82 -31.5t25 -84.5h-20q0 98 -91 98q-63 0 -101 -49.5t-66 -180.5q21 36 58.5 60t82.5 24q64 0 95 -43.5t17 -114.5zM259 23q12 63 -14.5 101.5t-81.5 38.5
t-96.5 -38.5t-53.5 -101.5t14.5 -101.5t81.5 -38.5t96.5 38.5t53.5 101.5z" />
    <glyph glyph-name="seveninferior" unicode="&#x2087;" 
d="M52 319l3 18h277l-3 -18l-253 -446h-21l253 446h-256z" />
    <glyph glyph-name="eightinferior" unicode="&#x2088;" 
d="M197 345q62 0 92.5 -33t20.5 -84q-8 -39 -35.5 -68.5t-69.5 -39.5q43 -10 62 -43t10 -80q-12 -61 -59 -96.5t-115 -35.5t-101 35.5t-21 96.5q9 47 40.5 80t79.5 43q-38 10 -54.5 39.5t-8.5 68.5q10 51 53.5 84t105.5 33zM155 129q55 0 90.5 28t44.5 71t-16.5 71t-80.5 28
t-90.5 -28t-44.5 -71t16.5 -71t80.5 -28zM107 -117q57 0 98.5 31t51.5 83t-19 83t-87 31q-57 0 -98.5 -31t-51.5 -83t19 -83t87 -31z" />
    <glyph glyph-name="nineinferior" unicode="&#x2089;" 
d="M21 187q13 71 61 114.5t113 43.5q37 0 66.5 -18t42.5 -54q13 -43 -5 -139q-34 -176 -91 -231q-39 -38 -105 -38q-55 0 -82 31.5t-25 84.5h20q-1 -48 22.5 -73t68.5 -25q63 0 101 49.5t65 180.5q-20 -36 -57.5 -60t-82.5 -24q-65 0 -95.5 43.5t-16.5 114.5zM41 187
q-12 -63 14.5 -101.5t81.5 -38.5t96.5 38.5t53.5 101.5t-14.5 101.5t-81.5 38.5t-96.5 -38.5t-53.5 -101.5z" />
    <glyph glyph-name="uni208A" unicode="&#x208a;" 
d="M145 -39v135h-132v18h132v135h20v-135h132v-18h-132v-135h-20z" />
    <glyph glyph-name="uni208B" unicode="&#x208b;" 
d="M297 96h-284v18h284v-18z" />
    <glyph glyph-name="uni208C" unicode="&#x208c;" 
d="M297 166h-284v18h284v-18zM297 26h-284v18h284v-18z" />
    <glyph glyph-name="uni208D" unicode="&#x208d;" 
d="M103 105q23 119 52.5 184.5t66 90t93.5 24.5l-3 -18q-49 0 -81 -22t-59 -83.5t-49 -175.5q-25 -113 -20 -175.5t27.5 -84t71.5 -21.5l-3 -18q-57 0 -83.5 24t-32.5 90.5t20 184.5z" />
    <glyph glyph-name="uni208E" unicode="&#x208e;" 
d="M197 105q-23 -119 -52.5 -184.5t-66 -90t-93.5 -24.5l3 18q49 0 81 22t59 83.5t49 175.5q25 113 20 175.5t-27.5 84t-71.5 21.5l3 18q57 0 83.5 -24t32.5 -90.5t-20 -184.5z" />
    <glyph glyph-name="uni2090" unicode="&#x2090;" 
d="M225 -123l12 66q-42 -78 -134 -78q-138 0 -103 185q37 185 175 185q92 0 104 -78l13 66h20l-32 -164l-2 -9l-33 -173h-20zM258 50q33 167 -86 167t-152 -167q-32 -167 87 -167t151 167z" />
    <glyph glyph-name="uni2091" unicode="&#x2091;" 
d="M107 -117q87 0 130 94h20q-49 -112 -154 -112q-138 0 -103 185q37 185 175 185q66 0 94 -45t9 -140v-2h-258q-32 -165 87 -165zM172 217q-113 0 -149 -151h238q25 151 -89 151z" />
    <glyph glyph-name="uni2092" unicode="&#x2092;" 
d="M0 50q37 185 175 185q66 0 94 -45t9 -140q-18 -95 -63.5 -140t-111.5 -45q-138 0 -103 185zM258 50q33 167 -86 167t-152 -167q-32 -167 87 -167t151 167z" />
    <glyph glyph-name="uni2093" unicode="&#x2093;" 
d="M308 223l-156 -171l99 -175h-24l-91 159l-151 -159h-24l167 175l-90 171h24l81 -155l141 155h24z" />
    <glyph glyph-name="uni2094" unicode="&#x2094;" 
d="M172 217q-88 0 -131 -94h-20q50 112 154 112q66 0 94 -45t9 -140q-18 -95 -63.5 -140t-111.5 -45q-138 0 -103 185l1 2h258q32 165 -87 165zM107 -117q113 0 148 151h-238q-24 -151 90 -151z" />
    <glyph glyph-name="uni20A0" unicode="&#x20a0;" horiz-adv-x="694" 
d="M253 212q61 0 101 25l49 253h295l-4 -18h-275l-41 -214h239l-4 -18h-239l-43 -222h280l-3 -18h-300l41 216q-38 -22 -100 -22q-105 0 -146 69.5t-17 189.5q23 120 91 189.5t173 69.5q81 0 123 -41t48 -110h-20q-6 62 -44 97.5t-111 35.5q-96 0 -157 -63t-83 -178
q-23 -115 13.5 -178t133.5 -63z" />
    <glyph glyph-name="colonmonetary" unicode="&#x20a1;" horiz-adv-x="617" 
d="M477 782l-15 -76q80 -16 116.5 -76t24.5 -154h-20q10 85 -21 141t-104 71l-131 -677q78 16 130.5 71.5t76.5 141.5h20q-24 -94 -84 -154t-147 -76l-14 -76h-20l14 72q-28 -2 -41 -2q-24 0 -42 3l-14 -73h-20l14 76q-68 15 -104 66q-58 86 -18 290q38 203 131 290
q56 51 130 66l15 76h20l-15 -73q21 3 44 3q14 0 40 -2l14 72h20zM113 72q32 -46 91 -59l131 674q-68 -15 -113 -59q-86 -81 -124 -278q-39 -195 15 -278zM266 6q14 0 40 2l133 683q-19 3 -40 3q-23 0 -43 -3l-133 -682q19 -3 43 -3z" />
    <glyph glyph-name="uni20A2" unicode="&#x20a2;" horiz-adv-x="617" 
d="M78 350q38 203 131 290q77 72 194 72q111 0 162.5 -62.5t37.5 -173.5h-20q12 101 -34 159.5t-150 58.5q-108 0 -177 -66q-86 -81 -124 -278q-39 -195 15 -278q37 -56 123 -65l75 388h20l-20 -106q43 118 158 118q23 0 37 -4l-4 -19q-18 4 -41 4q-131 0 -172 -208
l-33 -174h10q104 0 172.5 58.5t95.5 159.5h20q-28 -111 -104.5 -173.5t-187.5 -62.5q-116 0 -166 72q-58 86 -18 290z" />
    <glyph glyph-name="franc" unicode="&#x20a3;" horiz-adv-x="496" 
d="M356 308l-3 -18h-243l-56 -290h-20l56 290h-64l3 18h64l15 74h-64l3 18h64l59 300h376l-4 -18h-356l-55 -282h243l-3 -18h-243l-15 -74h243z" />
    <glyph glyph-name="lira" unicode="&#x20a4;" horiz-adv-x="513" 
d="M358 268l-4 -18h-208q-1 -13 -5 -39q-23 -118 -103 -193h380l-3 -18h-402l3 18q83 81 105 193q4 30 5 39h-68l4 18h65q0 36 -3 74h-48l3 18h43q-4 79 10 151q17 88 75 144.5t151 56.5t129 -56t19 -145l-2 -10h-20l2 9q16 85 -17 134.5t-115 49.5t-134 -49.5t-68 -134.5
q-13 -67 -9 -150h232l-3 -18h-227q2 -50 2 -74h211z" />
    <glyph glyph-name="uni20A6" unicode="&#x20a6;" horiz-adv-x="630" 
d="M30 313h64l15 74h-64l3 18h64l58 295h20l129 -295h235l58 295h20l-58 -295h64l-3 -18h-64l-15 -74h64l-3 -18h-64l-57 -295h-20l-130 295h-235l-57 -295h-20l57 295h-64zM368 295l114 -260l51 260h-165zM183 665l-51 -260h165zM327 387l32 -74h177l15 74h-224zM129 387
l-15 -74h223l-32 74h-176z" />
    <glyph glyph-name="peseta" unicode="&#x20a7;" horiz-adv-x="1091" 
d="M837 0h-198q-73 0 -101 30t-13 105l67 347h-71q-20 -93 -85.5 -146.5t-169.5 -53.5h-158l-54 -282h-20l136 700h178q104 0 148.5 -53.5t28.5 -146.5h71l27 142h20l-27 -142h157l-4 -18h-157l-68 -349q-13 -65 11.5 -90t85.5 -25h199q67 0 112 28.5t55 81.5
q11 51 -10.5 78t-84.5 41l-50 11q-75 17 -99 46.5t-14 83.5q11 55 60 89.5t119 34.5q73 0 107 -36.5t22 -97.5l-1 -5h-20l1 5q10 53 -20.5 84.5t-91.5 31.5q-58 0 -102 -29.5t-54 -77.5q-9 -45 12.5 -70.5t89.5 -40.5l50 -11q71 -16 94.5 -46.5t11.5 -90.5
q-12 -61 -63 -94.5t-127 -33.5zM112 300h161q94 0 153 50.5t77 140.5t-22 140.5t-134 50.5h-161z" />
    <glyph glyph-name="uni20A8" unicode="&#x20a8;" horiz-adv-x="923" 
d="M453 0h-20q-5 28 0 64l13 100q10 71 -25.5 104.5t-123.5 33.5h-185l-58 -302h-20l136 700h203q107 0 149 -52.5t24 -146.5q-31 -158 -175 -190q57 -11 80.5 -45t14.5 -102l-13 -100q-4 -40 0 -64zM116 320h186q94 0 150.5 47.5t73.5 133.5t-21.5 133.5t-132.5 47.5h-186z
M891 378l-3 -15h-20l3 14q10 55 -20 86t-93 31q-61 0 -105 -31t-52 -76q-10 -49 15 -75t88 -37l50 -9q66 -12 91.5 -46.5t13.5 -95.5q-11 -57 -62.5 -96.5t-129.5 -39.5t-113.5 39.5t-24.5 96.5l4 22h20l-4 -22q-10 -50 21.5 -84t100.5 -34t113.5 34.5t54.5 83.5
q10 55 -13 84t-81 40l-51 9q-69 12 -97 42.5t-16 88.5q10 52 58 88t122 36q76 0 109 -36.5t21 -97.5z" />
    <glyph glyph-name="uni20A9" unicode="&#x20a9;" horiz-adv-x="914" 
d="M27 295h117l-8 74h-95l4 18h90l-31 313h22l31 -313h216l161 313h18l39 -313h216l153 313h22l-154 -313h91l-4 -18h-96l-36 -74h118l-4 -18h-124l-134 -277h-20l-36 277h-247l-141 -277h-20l-29 277h-123zM536 665l-143 -278h177zM604 277l30 -242l118 242h-148zM168 277
l24 -242l124 242h-148zM383 369l-37 -74h235l-9 74h-189zM592 369l10 -74h160l35 74h-205zM159 369l7 -74h159l38 74h-204z" />
    <glyph glyph-name="afii57636" unicode="&#x20aa;" horiz-adv-x="827" 
d="M34 0l136 700h262q102 0 133 -50t10 -160l-45 -228h-20l44 226q20 104 -7.5 149t-120.5 45h-240l-132 -682h-20zM829 700l-136 -700h-262q-102 0 -133.5 50.5t-10.5 159.5l45 228h20l-44 -226q-20 -104 7.5 -149t120.5 -45h240l133 682h20z" />
    <glyph glyph-name="dong" unicode="&#x20ab;" horiz-adv-x="530" 
d="M583 595h-60l-115 -595h-20l23 119q-65 -131 -210 -131q-103 0 -140.5 68t-12.5 194t88.5 194t166.5 68q71 0 111.5 -33.5t47.5 -97.5l41 214h-180l4 18h180l17 87h20l-17 -87h60zM436 250q48 244 -136 244t-232 -244q-47 -244 137 -244t231 244zM362 -126h-291l4 18h291
z" />
    <glyph glyph-name="Euro" unicode="&#x20ac;" horiz-adv-x="617" 
d="M70 313l15 74h-48l3 18h49q41 161 120 235q77 72 194 72q111 0 162.5 -62.5t37.5 -173.5h-20q12 101 -34 159.5t-150 58.5q-108 0 -177 -66q-74 -70 -113 -223h260l-6 -18h-258l-15 -74h246l-6 -18h-242q-21 -152 25 -223q45 -66 153 -66q104 0 172.5 58.5t95.5 159.5h20
q-28 -111 -104.5 -173.5t-187.5 -62.5q-116 0 -166 72q-50 74 -28 235h-49l3 18h48z" />
    <glyph glyph-name="afii61248" unicode="&#x2105;" horiz-adv-x="899" 
d="M641 700l-342 -700h-21l342 700h21zM861 219q0 -110 -38.5 -168t-126.5 -58t-126.5 58t-38.5 168t38.5 168t126.5 58t126.5 -58t38.5 -168zM841 219q0 104 -33 156t-112 52t-112 -52t-33 -156t33 -156t112 -52t112 52t33 156zM58 481q0 110 38.5 168t126.5 58
q140 0 158 -143h-20q-16 125 -138 125q-79 0 -112 -52t-33 -156t33 -156t112 -52q122 0 138 125h20q-18 -143 -158 -143q-88 0 -126.5 58t-38.5 168z" />
    <glyph glyph-name="uni2109" unicode="&#x2109;" horiz-adv-x="798" 
d="M324 573q0 -59 -36 -97t-97 -38t-97 38t-36 97t36 97t97 38t97 -38t36 -97zM304 573q0 53 -32.5 85t-80.5 32t-80.5 -32t-32.5 -85t32.5 -85t80.5 -32t80.5 32t32.5 85zM396 0v700h376v-18h-356v-325h325v-18h-325v-339h-20z" />
    <glyph glyph-name="afii61289" unicode="&#x2113;" horiz-adv-x="463" 
d="M267 6q60 0 97 33.5t47 99.5l20 -4q-25 -147 -164 -147q-145 0 -165 157q-23 -8 -66 -17l-8 18q38 8 72 18q-1 9 -1 28v334q0 89 41 137.5t118 48.5t118 -48.5t41 -137.5v-8q0 -130 -74 -223.5t-222 -143.5q16 -145 146 -145zM258 694q-66 0 -102.5 -42.5t-36.5 -124.5
v-334q0 -15 1 -22q139 47 208 136t69 211v9q0 82 -36.5 124.5t-102.5 42.5z" />
    <glyph glyph-name="afii61352" unicode="&#x2116;" horiz-adv-x="853" 
d="M436 0l-322 658v-658h-20v700h20l322 -658v658h20v-700h-20zM515 0v18h300v-18h-300zM819 327q0 -204 -154 -204t-154 204t154 204t154 -204zM799 327q0 94 -32.5 140t-101.5 46t-101.5 -46t-32.5 -140t32.5 -140t101.5 -46t101.5 46t32.5 140z" />
    <glyph glyph-name="uni2117" unicode="&#x2117;" horiz-adv-x="732" 
d="M668 350q0 168 -75.5 256t-216.5 88t-216.5 -88t-75.5 -256t75.5 -256t216.5 -88t216.5 88t75.5 256zM64 350q0 178 79.5 270t232.5 92t232.5 -92t79.5 -270t-79.5 -270t-232.5 -92t-232.5 92t-79.5 270zM402 287h-122v-146h-20v418h142q67 0 104 -34.5t37 -101.5
t-37 -101.5t-104 -34.5zM280 307h120q57 0 90 30t33 86t-33 86t-90 30h-120v-232z" />
    <glyph glyph-name="uni2120" unicode="&#x2120;" horiz-adv-x="676" 
d="M487 366h-18l-129 286v-286h-20v334h20l138 -308l138 308h20v-334h-20v286zM270 611v-4h-20v4q0 77 -89 77q-42 0 -65.5 -18t-23.5 -49q0 -30 16 -45.5t59 -25.5l41 -9q51 -11 71.5 -33t20.5 -60q0 -37 -30 -62t-85 -25q-57 0 -86 25.5t-29 71.5v6h20v-6q0 -79 95 -79
q44 0 69.5 19.5t25.5 49.5q0 33 -17.5 49.5t-59.5 25.5l-41 9q-52 12 -71 32t-19 57q0 38 28.5 61.5t80.5 23.5q109 0 109 -95z" />
    <glyph glyph-name="uni2121" unicode="&#x2121;" horiz-adv-x="878" 
d="M697 266v-18h-348q0 -242 164 -242q124 0 154 137h20q-31 -155 -174 -155q-184 0 -184 262t184 262q178 0 184 -246zM513 494q-160 0 -164 -228h328q-6 228 -164 228zM28 682v18h364v-18h-172v-682h-20v682h-172zM811 0h-20v700h20v-700z" />
    <glyph glyph-name="trademark" unicode="&#x2122;" horiz-adv-x="646" 
d="M457 366h-18l-129 286v-286h-20v334h20l138 -308l138 308h20v-334h-20v286zM30 682v18h230v-18h-105v-316h-20v316h-105z" />
    <glyph glyph-name="Omega" unicode="&#x2126;" horiz-adv-x="630" 
d="M325 712q117 0 180 -72q75 -86 75 -290q0 -278 -151 -332h129v-18h-177v18q53 13 89.5 44t55.5 78t26.5 97t7.5 113q0 196 -70 278q-57 66 -165 66t-165 -66q-70 -82 -70 -278q0 -63 7.5 -113t26.5 -97t55.5 -78t89.5 -44v-18h-177v18h129q-151 54 -151 332q0 204 75 290
q63 72 180 72z" />
    <glyph glyph-name="estimated" unicode="&#x212e;" horiz-adv-x="756" 
d="M388 694q-112 0 -179 -55v-280h358v280q-67 55 -179 55zM388 6q172 0 257 140h22q-41 -73 -113 -115.5t-166 -42.5q-147 0 -237.5 100.5t-90.5 261.5t90.5 261.5t237.5 100.5q149 0 238.5 -102t89.5 -258v-11h-507v-277q30 -26 78.5 -42t100.5 -16z" />
    <glyph glyph-name="onethird" unicode="&#x2153;" horiz-adv-x="823" 
d="M740 122q10 51 -17 81.5t-77 30.5h-48l3 18h48q44 0 79.5 26.5t44.5 74.5q9 47 -16 74t-76 27q-50 0 -86.5 -28.5t-45.5 -75.5l-3 -12h-20l3 12q10 52 52.5 87t102.5 35t89.5 -34t19.5 -85q-7 -37 -33 -68.5t-71 -41.5q90 -23 71 -121q-10 -55 -56 -92.5t-113 -37.5
t-98 37.5t-21 92.5l5 25h20l-5 -25q-9 -48 18.5 -80t83.5 -32t96.5 32t49.5 80zM679 700l-478 -700h-21l478 700h21zM198 236h-20l87 444l-107 -46l4 20l107 46h20z" />
    <glyph glyph-name="twothirds" unicode="&#x2154;" horiz-adv-x="823" 
d="M679 700l-478 -700h-21l478 700h21zM740 122q10 51 -17 81.5t-77 30.5h-48l3 18h48q44 0 79.5 26.5t44.5 74.5q9 47 -16 74t-76 27q-50 0 -86.5 -28.5t-45.5 -75.5l-3 -12h-20l3 12q10 52 52.5 87t102.5 35t89.5 -34t19.5 -85q-7 -37 -33 -68.5t-71 -41.5q90 -23 71 -121
q-10 -55 -56 -92.5t-113 -37.5t-98 37.5t-21 92.5l5 25h20l-5 -25q-9 -48 18.5 -80t83.5 -32t96.5 32t49.5 80zM353 564q11 55 -13.5 90.5t-77.5 35.5t-91.5 -35.5t-49.5 -90.5l-2 -9h-20l2 10q12 63 56.5 103t107.5 40t91.5 -40t16.5 -103q-6 -32 -19.5 -54t-47.5 -52
l-230 -205h236l-4 -18h-261l4 18l245 219q48 44 57 91z" />
    <glyph glyph-name="onefifth" unicode="&#x2155;" horiz-adv-x="823" 
d="M481 127h20q-7 -54 18 -84.5t77 -32.5q59 2 97 38t51 102q27 140 -89 140q-84 0 -124 -75h-20l59 248h230l-3 -18h-211l-47 -196q41 59 119 59q68 0 94 -42t12 -116q-14 -73 -59 -115.5t-112 -42.5q-61 0 -90.5 36.5t-21.5 98.5zM679 700l-478 -700h-21l478 700h21z
M198 236h-20l87 444l-107 -46l4 20l107 46h20z" />
    <glyph glyph-name="twofifths" unicode="&#x2156;" horiz-adv-x="823" 
d="M679 700l-478 -700h-21l478 700h21zM481 127h20q-7 -54 18 -84.5t77 -32.5q59 2 97 38t51 102q27 140 -89 140q-84 0 -124 -75h-20l59 248h230l-3 -18h-211l-47 -196q41 59 119 59q68 0 94 -42t12 -116q-14 -73 -59 -115.5t-112 -42.5q-61 0 -90.5 36.5t-21.5 98.5z
M353 564q11 55 -13.5 90.5t-77.5 35.5t-91.5 -35.5t-49.5 -90.5l-2 -9h-20l2 10q12 63 56.5 103t107.5 40t91.5 -40t16.5 -103q-6 -32 -19.5 -54t-47.5 -52l-230 -205h236l-4 -18h-261l4 18l245 219q48 44 57 91z" />
    <glyph glyph-name="threefifths" unicode="&#x2157;" horiz-adv-x="823" 
d="M679 700l-478 -700h-21l478 700h21zM481 127h20q-7 -54 18 -84.5t77 -32.5q59 2 97 38t51 102q27 140 -89 140q-84 0 -124 -75h-20l59 248h230l-3 -18h-211l-47 -196q41 59 119 59q68 0 94 -42t12 -116q-14 -73 -59 -115.5t-112 -42.5q-61 0 -90.5 36.5t-21.5 98.5z
M323 358q10 51 -17 81.5t-77 30.5h-48l3 18h48q44 0 79.5 26.5t44.5 74.5q9 47 -16 74t-76 27q-50 0 -86.5 -28.5t-46.5 -75.5l-2 -12h-20l2 12q10 52 53 87t103 35t89.5 -34t19.5 -85q-7 -37 -33 -68.5t-71 -41.5q90 -23 71 -121q-11 -55 -56.5 -92.5t-112.5 -37.5
t-98.5 37.5t-20.5 92.5l5 25h20l-5 -25q-9 -48 18.5 -80t83.5 -32t96.5 32t49.5 80z" />
    <glyph glyph-name="fourfifths" unicode="&#x2158;" horiz-adv-x="823" 
d="M679 700l-478 -700h-21l478 700h21zM481 127h20q-7 -54 18 -84.5t77 -32.5q59 2 97 38t51 102q27 140 -89 140q-84 0 -124 -75h-20l59 248h230l-3 -18h-211l-47 -196q41 59 119 59q68 0 94 -42t12 -116q-14 -73 -59 -115.5t-112 -42.5q-61 0 -90.5 36.5t-21.5 98.5z
M74 360h214l60 307zM356 360l-3 -18h-48l-21 -106h-20l21 106h-237l3 18l304 340h20l-67 -340h48z" />
    <glyph glyph-name="onesixth" unicode="&#x2159;" horiz-adv-x="823" 
d="M767 150q-14 -71 -62 -114.5t-112 -43.5q-37 0 -67 18t-42 54q-14 40 5 139q35 177 91 231q39 38 104 38q55 0 82.5 -31.5t25.5 -84.5h-20q0 98 -91 98q-64 0 -102 -49.5t-65 -180.5q21 36 58 60t82 24q64 0 95.5 -43.5t17.5 -114.5zM747 150q12 63 -14.5 101.5
t-81.5 38.5t-96.5 -38.5t-53.5 -101.5q-13 -63 13.5 -101.5t81.5 -38.5t96.5 38.5t54.5 101.5zM679 700l-478 -700h-21l478 700h21zM198 236h-20l87 444l-107 -46l4 20l107 46h20z" />
    <glyph glyph-name="fivesixths" unicode="&#x215a;" horiz-adv-x="823" 
d="M679 700l-478 -700h-21l478 700h21zM767 150q-14 -71 -62 -114.5t-112 -43.5q-37 0 -67 18t-42 54q-14 40 5 139q35 177 91 231q39 38 104 38q55 0 82.5 -31.5t25.5 -84.5h-20q0 98 -91 98q-64 0 -102 -49.5t-65 -180.5q21 36 58 60t82 24q64 0 95.5 -43.5t17.5 -114.5z
M747 150q12 63 -14.5 101.5t-81.5 38.5t-96.5 -38.5t-53.5 -101.5q-13 -63 13.5 -101.5t81.5 -38.5t96.5 38.5t54.5 101.5zM64 364h20q-7 -54 18 -84.5t78 -32.5q58 2 96 38t51 102q27 140 -89 140q-84 0 -124 -75h-20l60 248h230l-4 -18h-211l-47 -196q41 59 119 59
q68 0 94 -42t12 -116q-14 -73 -59 -115.5t-112 -42.5q-61 0 -90.5 36.5t-21.5 98.5z" />
    <glyph glyph-name="oneeighth" unicode="&#x215b;" horiz-adv-x="823" 
d="M684 471q62 0 92.5 -33t20.5 -84q-7 -39 -35 -68.5t-70 -39.5q44 -10 62.5 -43t9.5 -80q-11 -61 -58 -96.5t-115 -35.5t-101 35.5t-22 96.5q9 47 41 80t79 43q-38 10 -54 39.5t-9 68.5q10 51 53.5 84t105.5 33zM642 255q55 0 91 28t44 71q9 43 -16 71t-80 28t-91 -28
t-45 -71q-8 -43 17 -71t80 -28zM594 9q58 0 99 31t51 83t-19 83t-86 31t-99 -31t-52 -83t19.5 -83t86.5 -31zM679 700l-478 -700h-21l478 700h21zM198 236h-20l87 444l-107 -46l4 20l107 46h20z" />
    <glyph glyph-name="threeeighths" unicode="&#x215c;" horiz-adv-x="823" 
d="M679 700l-478 -700h-21l478 700h21zM684 471q62 0 92.5 -33t20.5 -84q-7 -39 -35 -68.5t-70 -39.5q44 -10 62.5 -43t9.5 -80q-11 -61 -58 -96.5t-115 -35.5t-101 35.5t-22 96.5q9 47 41 80t79 43q-38 10 -54 39.5t-9 68.5q10 51 53.5 84t105.5 33zM642 255q55 0 91 28
t44 71q9 43 -16 71t-80 28t-91 -28t-45 -71q-8 -43 17 -71t80 -28zM594 9q58 0 99 31t51 83t-19 83t-86 31t-99 -31t-52 -83t19.5 -83t86.5 -31zM323 358q10 51 -17 81.5t-77 30.5h-48l3 18h48q44 0 79.5 26.5t44.5 74.5q9 47 -16 74t-76 27q-50 0 -86.5 -28.5t-46.5 -75.5
l-2 -12h-20l2 12q10 52 53 87t103 35t89.5 -34t19.5 -85q-7 -37 -33 -68.5t-71 -41.5q90 -23 71 -121q-11 -55 -56.5 -92.5t-112.5 -37.5t-98.5 37.5t-20.5 92.5l5 25h20l-5 -25q-9 -48 18.5 -80t83.5 -32t96.5 32t49.5 80z" />
    <glyph glyph-name="fiveeighths" unicode="&#x215d;" horiz-adv-x="823" 
d="M679 700l-478 -700h-21l478 700h21zM684 471q62 0 92.5 -33t20.5 -84q-7 -39 -35 -68.5t-70 -39.5q44 -10 62.5 -43t9.5 -80q-11 -61 -58 -96.5t-115 -35.5t-101 35.5t-22 96.5q9 47 41 80t79 43q-38 10 -54 39.5t-9 68.5q10 51 53.5 84t105.5 33zM642 255q55 0 91 28
t44 71q9 43 -16 71t-80 28t-91 -28t-45 -71q-8 -43 17 -71t80 -28zM594 9q58 0 99 31t51 83t-19 83t-86 31t-99 -31t-52 -83t19.5 -83t86.5 -31zM64 364h20q-7 -54 18 -84.5t78 -32.5q58 2 96 38t51 102q27 140 -89 140q-84 0 -124 -75h-20l60 248h230l-4 -18h-211l-47 -196
q41 59 119 59q68 0 94 -42t12 -116q-14 -73 -59 -115.5t-112 -42.5q-61 0 -90.5 36.5t-21.5 98.5z" />
    <glyph glyph-name="seveneighths" unicode="&#x215e;" horiz-adv-x="823" 
d="M679 700l-478 -700h-21l478 700h21zM684 471q62 0 92.5 -33t20.5 -84q-7 -39 -35 -68.5t-70 -39.5q44 -10 62.5 -43t9.5 -80q-11 -61 -58 -96.5t-115 -35.5t-101 35.5t-22 96.5q9 47 41 80t79 43q-38 10 -54 39.5t-9 68.5q10 51 53.5 84t105.5 33zM642 255q55 0 91 28
t44 71q9 43 -16 71t-80 28t-91 -28t-45 -71q-8 -43 17 -71t80 -28zM594 9q58 0 99 31t51 83t-19 83t-86 31t-99 -31t-52 -83t19.5 -83t86.5 -31zM122 682l4 18h277l-4 -18l-253 -446h-21l253 446h-256z" />
    <glyph glyph-name="uni215F" unicode="&#x215f;" horiz-adv-x="823" 
d="M679 700l-478 -700h-21l478 700h21zM198 236h-20l87 444l-107 -46l4 20l107 46h20z" />
    <glyph glyph-name="arrowleft" unicode="&#x2190;" horiz-adv-x="860" 
d="M834 342v-20h-688v-63l-100 73l100 73v-63h688z" />
    <glyph glyph-name="arrowup" unicode="&#x2191;" horiz-adv-x="860" 
d="M450 -38h-20v688h-63l73 100l73 -100h-63v-688z" />
    <glyph glyph-name="arrowright" unicode="&#x2192;" horiz-adv-x="860" 
d="M46 322v20h688v63l100 -73l-100 -73v63h-688z" />
    <glyph glyph-name="arrowdown" unicode="&#x2193;" horiz-adv-x="860" 
d="M430 750h20v-688h63l-73 -100l-73 100h63v688z" />
    <glyph glyph-name="arrowboth" unicode="&#x2194;" horiz-adv-x="860" 
d="M146 405v-63h588v63l100 -73l-100 -73v63h-588v-63l-100 73z" />
    <glyph glyph-name="arrowupdn" unicode="&#x2195;" horiz-adv-x="860" 
d="M367 62h63v588h-63l73 100l73 -100h-63v-588h63l-73 -100z" />
    <glyph glyph-name="arrowupdnbse" unicode="&#x21a8;" horiz-adv-x="860" 
d="M367 62h63v588h-63l73 100l73 -100h-63v-588h63l-73 -100zM372 -88v20h136v-20h-136z" />
    <glyph glyph-name="partialdiff" unicode="&#x2202;" horiz-adv-x="540" 
d="M293 454q69 0 115.5 -35t60.5 -95q6 74 6 131q0 127 -40 183t-120 56q-132 0 -177 -148h-21q21 78 72.5 122t127.5 44q89 0 134 -61t45 -191q0 -72 -9 -174q-10 -103 -27 -151q-25 -69 -78.5 -108t-130.5 -39q-87 0 -137 53.5t-50 146.5q0 121 63 193.5t166 72.5zM252 6
q92 0 150.5 66t58.5 179q0 87 -45.5 136t-123.5 49q-92 0 -149.5 -66t-57.5 -179q0 -88 45 -136.5t122 -48.5z" />
    <glyph glyph-name="Delta" unicode="&#x2206;" horiz-adv-x="580" 
d="M578 0h-556l270 700h16zM300 667l-249 -649h498z" />
    <glyph glyph-name="product" unicode="&#x220f;" horiz-adv-x="620" 
d="M526 -111v793h-412v-793h-20v811h452v-811h-20z" />
    <glyph glyph-name="summation" unicode="&#x2211;" horiz-adv-x="546" 
d="M70 -93l161 383l-161 392v18h426v-18h-405l158 -386v-12l-158 -377h405v-18h-426v18z" />
    <glyph glyph-name="minus" unicode="&#x2212;" horiz-adv-x="520" 
d="M70 317v18h400v-18h-400z" />
    <glyph glyph-name="uni2215" unicode="&#x2215;" horiz-adv-x="103" 
d="M243 700l-342 -700h-21l342 700h21z" />
    <glyph glyph-name="uni2219" unicode="&#x2219;" horiz-adv-x="272" 
d="M160 366v-80h-28v80h28z" />
    <glyph glyph-name="radical" unicode="&#x221a;" horiz-adv-x="516" 
d="M248 -111h-20l-206 375h21l192 -349l270 835h21z" />
    <glyph glyph-name="infinity" unicode="&#x221e;" horiz-adv-x="802" 
d="M401 331q-55 133 -164 133q-55 0 -95 -34t-40 -99t40 -99t95 -34q109 0 164 133zM411 311q-26 -65 -71.5 -98t-102.5 -33q-68 0 -111.5 41t-43.5 110t43.5 110t111.5 41q57 0 102.5 -33t71.5 -98q26 65 71.5 98t102.5 33q68 0 111.5 -41t43.5 -110t-43.5 -110t-111.5 -41
q-57 0 -102.5 33t-71.5 98zM421 331q55 -133 164 -133q55 0 95 34t40 99t-40 99t-95 34q-109 0 -164 -133z" />
    <glyph glyph-name="orthogonal" unicode="&#x221f;" horiz-adv-x="565" 
d="M551 18v-18h-445v575h20v-557h425z" />
    <glyph glyph-name="intersection" unicode="&#x2229;" horiz-adv-x="632" 
d="M326 617q111 0 171.5 -68.5t60.5 -200.5v-348h-20v347q0 124 -54 188t-158 64t-158 -64t-54 -188v-347h-20v348q0 132 60.5 200.5t171.5 68.5z" />
    <glyph glyph-name="integral" unicode="&#x222b;" horiz-adv-x="406" 
d="M46 -91h43q67 0 90.5 24.5t23.5 93.5v638q0 75 29 103.5t106 28.5q28 0 42 -1v-17h-43q-67 0 -90.5 -24.5t-23.5 -93.5v-638q0 -75 -29 -103.5t-106 -28.5q-28 0 -42 1v17z" />
    <glyph glyph-name="approxequal" unicode="&#x2248;" horiz-adv-x="520" 
d="M359 344q-38 0 -62 21t-34 46.5t-30.5 46.5t-52.5 21q-76 0 -76 -129h-20q0 73 25.5 110t70.5 37q38 0 62 -21t34 -46.5t30.5 -46.5t52.5 -21q76 0 76 129h20q0 -73 -25.5 -110t-70.5 -37zM359 155q-38 0 -62 21t-34 46.5t-30.5 46.5t-52.5 21q-76 0 -76 -129h-20
q0 73 25.5 110t70.5 37q38 0 62 -21t34 -46.5t30.5 -46.5t52.5 -21q76 0 76 129h20q0 -73 -25.5 -110t-70.5 -37z" />
    <glyph glyph-name="notequal" unicode="&#x2260;" horiz-adv-x="520" 
d="M70 407v18h248l90 150h20l-89 -150h131v-18h-142l-96 -162h238v-18h-249l-89 -150h-20l89 150h-131v18h141l97 162h-238z" />
    <glyph glyph-name="equivalence" unicode="&#x2261;" horiz-adv-x="520" 
d="M70 317v18h400v-18h-400zM70 467v18h400v-18h-400zM70 167v18h400v-18h-400z" />
    <glyph glyph-name="lessequal" unicode="&#x2264;" horiz-adv-x="520" 
d="M462 147l-384 199v20l384 199v-22l-361 -187l361 -187v-22zM70 0v18h400v-18h-400z" />
    <glyph glyph-name="greaterequal" unicode="&#x2265;" horiz-adv-x="520" 
d="M462 346l-384 -199v22l361 187l-361 187v22l384 -199v-20zM470 18v-18h-400v18h400z" />
    <glyph glyph-name="house" unicode="&#x2302;" horiz-adv-x="624" 
d="M574 348v-348h-504v348l252 288zM90 340v-322h464v322l-232 265z" />
    <glyph glyph-name="revlogicalnot" unicode="&#x2310;" horiz-adv-x="520" 
d="M470 335v-18h-380v-172h-20v190h400z" />
    <glyph glyph-name="uni2318" unicode="&#x2318;" horiz-adv-x="806" 
d="M314 420v110q0 49 -31.5 79.5t-85.5 30.5t-85.5 -30.5t-31.5 -79.5t31.5 -79.5t85.5 -30.5h117zM492 116v110h-158v-110q0 -57 -37.5 -92.5t-99.5 -35.5t-99.5 35.5t-37.5 92.5t37.5 92.5t99.5 35.5h117v158h-117q-62 0 -99.5 35.5t-37.5 92.5t37.5 92.5t99.5 35.5
t99.5 -35.5t37.5 -92.5v-110h158v110q0 57 37.5 92.5t99.5 35.5t99.5 -35.5t37.5 -92.5t-37.5 -92.5t-99.5 -35.5h-117v-158h117q62 0 99.5 -35.5t37.5 -92.5t-37.5 -92.5t-99.5 -35.5t-99.5 35.5t-37.5 92.5zM314 116v110h-117q-54 0 -85.5 -30.5t-31.5 -79.5t31.5 -79.5
t85.5 -30.5t85.5 30.5t31.5 79.5zM334 244h158v158h-158v-158zM512 530v-110h117q54 0 85.5 30.5t31.5 79.5t-31.5 79.5t-85.5 30.5t-85.5 -30.5t-31.5 -79.5zM512 226v-110q0 -49 31.5 -79.5t85.5 -30.5t85.5 30.5t31.5 79.5t-31.5 79.5t-85.5 30.5h-117z" />
    <glyph glyph-name="lozenge" unicode="&#x25ca;" horiz-adv-x="578" 
d="M543 302l-244 -459l-244 459l244 459zM519 302l-220 415l-220 -415l220 -415z" />
    <glyph glyph-name="H18533" unicode="&#x25cf;" horiz-adv-x="1000" 
d="M172 326q0 140 99 239t239 99t239 -99t99 -239t-99 -239t-239 -99t-239 99t-99 239z" />
    <glyph glyph-name="fi" horiz-adv-x="484" 
d="M374 689h-43q-67 0 -95 -24.5t-42 -93.5l-13 -71h157l-4 -18h-157l-93 -482h-20l93 482h-78l4 18h78l14 75q15 75 50 103.5t111 28.5q28 0 42 -1zM357 0h-20l97 500h20zM477 620h-20l16 80h20z" />
    <glyph glyph-name="fl" horiz-adv-x="484" 
d="M374 689h-43q-67 0 -95 -24.5t-42 -93.5l-13 -71h157l-4 -18h-157l-93 -482h-20l93 482h-78l4 18h78l14 75q15 75 50 103.5t111 28.5q28 0 42 -1zM357 0h-20l136 700h20z" />
    <glyph glyph-name="commaaccent" horiz-adv-x="318" 
d="M46 -218h-21l92 170h22z" />
    <glyph glyph-name="zero.tnum" horiz-adv-x="550" 
d="M508 350q-24 -121 -50.5 -187.5t-67.5 -107.5q-65 -67 -168 -67q-101 0 -142 67q-24 41 -25 106.5t23 188.5q23 121 49.5 187.5t67.5 107.5q65 67 168 67q101 0 142 -67q24 -41 25 -106.5t-22 -188.5zM488 350q41 211 -2 284q-37 60 -127 60q-89 0 -149 -60
q-71 -71 -112 -284q-42 -211 1 -284q37 -60 127 -60q89 0 149 60q71 71 113 284z" />
    <glyph glyph-name="one.tnum" horiz-adv-x="400" 
d="M216 0h-20l131 678l-211 -87l5 22l211 87h20z" />
    <glyph glyph-name="two.tnum" horiz-adv-x="520" 
d="M505 511q-9 -46 -32 -83t-71 -82l-353 -328h370l-3 -18h-396l3 18l366 340q80 74 96 152q15 79 -22 131.5t-121 52.5t-141 -52.5t-72 -131.5l-4 -19h-20l4 20q17 85 80 143t157 58t135 -58t24 -143z" />
    <glyph glyph-name="three.tnum" horiz-adv-x="508" 
d="M428 185q16 82 -21.5 130.5t-123.5 48.5h-66l4 18h72q75 0 123 45.5t60 110.5q14 69 -23.5 112.5t-114.5 43.5t-130.5 -43.5t-67.5 -112.5l-3 -17h-20l3 17q15 75 76 124.5t146 49.5t127 -49.5t27 -124.5q-12 -65 -53 -109.5t-101 -55.5q63 -9 92.5 -58t14.5 -127
q-18 -91 -85.5 -145.5t-162.5 -54.5t-141 57t-27 153l1 3h20l-1 -3q-17 -89 25 -140.5t127 -51.5q84 0 145.5 49t77.5 130z" />
    <glyph glyph-name="four.tnum" horiz-adv-x="503" 
d="M44 192h291l92 472zM459 192l-4 -18h-104l-33 -174h-20l33 174h-313l4 18l412 508h20l-99 -508h104z" />
    <glyph glyph-name="five.tnum" horiz-adv-x="512" 
d="M44 180h20q-7 -85 31.5 -129.5t116.5 -44.5q88 0 146 56t78 159q20 102 -16.5 158.5t-124.5 56.5q-115 0 -180 -116h-20l92 380h325l-4 -18h-305l-78 -321q64 93 174 93q96 0 137.5 -61t19.5 -172q-21 -110 -86.5 -171.5t-161.5 -61.5q-88 0 -130 50.5t-34 141.5z" />
    <glyph glyph-name="six.tnum" horiz-adv-x="536" 
d="M514 546h-22q5 75 -32.5 111.5t-104.5 36.5q-81 0 -135 -55q-41 -42 -68.5 -117t-52.5 -198q31 60 87.5 95t125.5 35q95 0 138.5 -62.5t22.5 -170.5t-89 -170.5t-163 -62.5q-106 0 -146 76q-20 38 -20.5 91t16.5 131q30 151 58.5 232t72.5 129q61 65 157 65
q78 0 119.5 -42t35.5 -124zM225 6q85 0 147 57t81 158q20 100 -20 157.5t-125 57.5t-147 -57t-82 -158q-19 -100 21 -157.5t125 -57.5z" />
    <glyph glyph-name="seven.tnum" horiz-adv-x="485" 
d="M120 682l4 18h395l-4 -18l-394 -682h-22l394 682h-373z" />
    <glyph glyph-name="eight.tnum" horiz-adv-x="523" 
d="M349 712q90 0 134.5 -48t29.5 -128q-12 -62 -55.5 -106.5t-107.5 -60.5q67 -14 98 -63t17 -123q-18 -92 -87.5 -143.5t-169.5 -51.5t-149.5 51.5t-31.5 143.5q14 73 64.5 122.5t122.5 63.5q-58 16 -83.5 60.5t-13.5 106.5q15 80 78.5 128t153.5 48zM284 378q79 0 137 43
t72 115t-27.5 115t-120.5 43t-136.5 -43t-71.5 -115t27 -115t120 -43zM212 6q89 0 153 47t80 130t-30 130t-135 47t-153 -47t-80 -130t30 -130t135 -47z" />
    <glyph glyph-name="nine.tnum" horiz-adv-x="541" 
d="M62 154h22q-5 -75 32.5 -111.5t104.5 -36.5q81 0 135 55q41 42 68.5 117t52.5 198q-31 -60 -87.5 -95t-125.5 -35q-95 0 -138.5 62.5t-22.5 170.5t89 170.5t163 62.5q106 0 146 -76q20 -38 20.5 -91t-16.5 -131q-30 -151 -58.5 -232t-72.5 -129q-61 -65 -157 -65
q-78 0 -119.5 42t-35.5 124zM351 694q-85 0 -147 -57t-81 -158q-20 -100 20 -157.5t125 -57.5t147 57t82 158q19 100 -21 157.5t-125 57.5z" />
    <glyph glyph-name="parenleft.case" horiz-adv-x="309" 
d="M114 351q37 192 76 290t83.5 130.5t117.5 32.5l-4 -18q-66 0 -106 -31.5t-76 -125.5t-71 -278q-36 -184 -37 -278t27 -125.5t94 -31.5l-3 -18q-73 0 -105 32.5t-32.5 130.5t36.5 290z" />
    <glyph glyph-name="parenright.case" horiz-adv-x="309" 
d="M231 351q-37 -192 -76 -290t-83.5 -130.5t-117.5 -32.5l3 18q66 0 106.5 31.5t76 125.5t71.5 278q35 184 36 278t-27 125.5t-94 31.5l4 18q73 0 105 -32.5t32.5 -130.5t-36.5 -290z" />
    <glyph glyph-name="hyphen.case" horiz-adv-x="392" 
d="M76 340l3 20h272l-3 -20h-272z" />
    <glyph glyph-name="at.case" horiz-adv-x="744" 
d="M523 558q133 0 149 -117q27 186 -18 263.5t-180 77.5q-152 0 -229 -96.5t-124 -336.5q-20 -105 -23 -181.5t9 -124.5t41 -76.5t66 -39t91 -10.5q76 0 141 34l4 -19q-71 -33 -148 -33q-58 0 -99 11.5t-72 41.5t-43.5 80.5t-10 129.5t23.5 187q48 247 132.5 349t243.5 102
t204 -102.5t-4 -348.5l-4 -22q-21 -109 -83 -170t-157 -61t-133 61t-17 170t83 170t157 61zM437 114q84 0 140 55t76 158t-15 158t-119 55t-140 -55t-76 -158t15 -158t119 -55z" />
    <glyph glyph-name="bracketleft.case" horiz-adv-x="326" 
d="M28 -88l171 876h182l-4 -18h-162l-163 -840h162l-4 -18h-182z" />
    <glyph glyph-name="bracketright.case" horiz-adv-x="326" 
d="M333 788l-171 -876h-182l4 18h162l163 840h-162l4 18h182z" />
    <glyph glyph-name="braceleft.case" horiz-adv-x="330" 
d="M64 341l3 18h18q62 0 75 66l40 203q16 85 57.5 122.5t109.5 37.5h18l-4 -18h-17q-59 0 -94 -31.5t-50 -109.5l-40 -203q-11 -61 -63 -76q46 -14 34 -76l-40 -203q-15 -78 8 -109.5t82 -31.5h17l-4 -18h-18q-68 0 -94.5 37.5t-10.5 122.5l40 203q13 66 -49 66h-18z" />
    <glyph glyph-name="braceright.case" horiz-adv-x="330" 
d="M301 359l-3 -18h-18q-62 0 -75 -66l-40 -203q-16 -85 -57.5 -122.5t-109.5 -37.5h-18l4 18h17q59 0 94 31.5t50 109.5l40 203q11 62 64 76q-47 14 -35 76l40 203q15 78 -8 109.5t-82 31.5h-17l4 18h18q68 0 94.5 -37.5t10.5 -122.5l-40 -203q-13 -66 49 -66h18z" />
    <glyph glyph-name="exclamdown.case" horiz-adv-x="264" 
d="M186 488l-92 -488h-24l96 488h20zM232 700l-16 -80h-28l16 80h28z" />
    <glyph glyph-name="guillemotleft.case" horiz-adv-x="493" 
d="M309 480l-226 -130l175 -130l-4 -22l-190 142l3 20l246 142zM488 480l-226 -130l175 -130l-4 -22l-190 142l3 20l246 142z" />
    <glyph glyph-name="periodcentered.case" horiz-adv-x="272" 
d="M175 390l-15 -80h-28l15 80h28z" />
    <glyph glyph-name="guillemotright.case" horiz-adv-x="493" 
d="M446 350l-176 130l4 22l190 -142l-3 -20l-246 -142l4 22zM267 350l-176 130l4 22l190 -142l-3 -20l-246 -142l4 22z" />
    <glyph glyph-name="questiondown.case" horiz-adv-x="514" 
d="M56 177q11 56 37 93.5t87 80.5q69 49 91 77.5t30 70.5l4 20h20l-4 -20q-9 -49 -33 -79t-97 -83q-55 -40 -80 -75.5t-35 -84.5q-15 -76 20 -123.5t115 -47.5t133 47.5t68 123.5l2 13h20l-2 -13q-16 -82 -75 -135.5t-150 -53.5t-129 53.5t-22 135.5zM323 620l16 80h24
l-16 -80h-24z" />
    <glyph glyph-name="endash.case" horiz-adv-x="500" 
d="M516 340h-500l3 20h500z" />
    <glyph glyph-name="emdash.case" horiz-adv-x="1000" 
d="M1016 340h-1000l3 20h1000z" />
    <glyph glyph-name="bullet.case" horiz-adv-x="362" 
d="M322 350q0 -54 -38.5 -92.5t-92.5 -38.5t-92.5 38.5t-38.5 92.5t38.5 92.5t92.5 38.5t92.5 -38.5t38.5 -92.5z" />
    <glyph glyph-name="guilsinglleft.case" horiz-adv-x="314" 
d="M309 480l-226 -130l175 -130l-4 -22l-190 142l3 20l246 142z" />
    <glyph glyph-name="guilsinglright.case" horiz-adv-x="314" 
d="M40 220l227 130l-176 130l4 22l190 -142l-3 -20l-246 -142z" />
    <glyph glyph-name="zero.numerator" 
d="M72 468q26 132 74 186t121 54t100 -54t1 -186q-25 -132 -73 -186t-121 -54t-100 54t-2 186zM348 468q22 126 2 174t-86 48t-107 -50t-65 -172q-22 -126 -1.5 -174t86.5 -48t107 50t64 172z" />
    <glyph glyph-name="one.numerator" 
d="M198 236h-20l87 444l-107 -46l4 20l107 46h20z" />
    <glyph glyph-name="two.numerator" 
d="M353 564q11 55 -13.5 90.5t-77.5 35.5t-91.5 -35.5t-49.5 -90.5l-2 -9h-20l2 10q12 63 56.5 103t107.5 40t91.5 -40t16.5 -103q-6 -32 -19.5 -54t-47.5 -52l-230 -205h236l-4 -18h-261l4 18l245 219q48 44 57 91z" />
    <glyph glyph-name="three.numerator" 
d="M323 358q10 51 -17 81.5t-77 30.5h-48l3 18h48q44 0 79.5 26.5t44.5 74.5q9 47 -16 74t-76 27q-50 0 -86.5 -28.5t-46.5 -75.5l-2 -12h-20l2 12q10 52 53 87t103 35t89.5 -34t19.5 -85q-7 -37 -33 -68.5t-71 -41.5q90 -23 71 -121q-11 -55 -56.5 -92.5t-112.5 -37.5
t-98.5 37.5t-20.5 92.5l5 25h20l-5 -25q-9 -48 18.5 -80t83.5 -32t96.5 32t49.5 80z" />
    <glyph glyph-name="four.numerator" 
d="M74 360h214l60 307zM356 360l-3 -18h-48l-21 -106h-20l21 106h-237l3 18l304 340h20l-67 -340h48z" />
    <glyph glyph-name="five.numerator" 
d="M64 364h20q-7 -54 18 -84.5t78 -32.5q58 2 96 38t51 102q27 140 -89 140q-84 0 -124 -75h-20l60 248h230l-4 -18h-211l-47 -196q41 59 119 59q68 0 94 -42t12 -116q-14 -73 -59 -115.5t-112 -42.5q-61 0 -90.5 36.5t-21.5 98.5z" />
    <glyph glyph-name="six.numerator" 
d="M350 386q-14 -71 -62 -114.5t-112 -43.5q-37 0 -67 18t-42 54q-14 40 5 139q35 177 91 231q39 38 104 38q55 0 82.5 -31.5t25.5 -84.5h-20q0 98 -91 98q-64 0 -102 -49.5t-65 -180.5q21 36 58 60t82 24q64 0 95.5 -43.5t17.5 -114.5zM330 386q12 63 -14.5 101.5
t-81.5 38.5t-96.5 -38.5t-53.5 -101.5q-13 -63 13.5 -101.5t81.5 -38.5t96.5 38.5t54.5 101.5z" />
    <glyph glyph-name="seven.numerator" 
d="M122 682l4 18h277l-4 -18l-253 -446h-21l253 446h-256z" />
    <glyph glyph-name="eight.numerator" 
d="M267 708q62 0 92.5 -33t20.5 -84q-7 -39 -35 -68.5t-70 -39.5q44 -10 62.5 -43t9.5 -80q-11 -61 -58 -96.5t-115 -35.5t-101 35.5t-22 96.5q9 47 41 80t79 43q-38 10 -54 39.5t-9 68.5q10 51 53.5 84t105.5 33zM225 492q55 0 91 28t44 71q9 43 -16 71t-80 28t-91 -28
t-45 -71q-8 -43 17 -71t80 -28zM177 246q58 0 99 31t51 83t-19 83t-86 31t-99 -31t-52 -83t19.5 -83t86.5 -31z" />
    <glyph glyph-name="nine.numerator" 
d="M91 550q14 71 62 114.5t112 43.5q37 0 67 -18t42 -54q14 -40 -5 -139q-35 -177 -91 -231q-39 -38 -104 -38q-55 0 -82.5 31.5t-25.5 84.5h20q0 -98 91 -98q64 0 102 49.5t65 180.5q-21 -36 -58 -60t-82 -24q-64 0 -95.5 43.5t-17.5 114.5zM111 550q-12 -63 14.5 -101.5
t81.5 -38.5t96.5 38.5t53.5 101.5q13 63 -13.5 101.5t-81.5 38.5t-96.5 -38.5t-54.5 -101.5z" />
    <glyph glyph-name="zero.denominator" 
d="M26 231q26 132 74 186t121 54t100 -54t1 -186t-73.5 -186t-120.5 -54t-100.5 54t-1.5 186zM302 231q22 126 2 174t-86 48t-107 -50t-65 -172q-22 -126 -1.5 -174t86.5 -48t107 50t64 172z" />
    <glyph glyph-name="one.denominator" 
d="M152 -1h-20l87 444l-107 -46l4 20l106 46h20z" />
    <glyph glyph-name="two.denominator" 
d="M307 327q11 55 -13.5 90.5t-77.5 35.5t-91.5 -35.5t-49.5 -90.5l-2 -9h-20l2 10q12 63 56.5 103t107.5 40t91.5 -40t16.5 -103q-6 -32 -19.5 -54t-47.5 -52l-230 -205h236l-4 -18h-261l4 18l245 219q48 44 57 91z" />
    <glyph glyph-name="three.denominator" 
d="M277 121q10 51 -17 81.5t-77 30.5h-48l3 18h48q44 0 79.5 26.5t44.5 74.5q9 47 -16 74t-76 27q-50 0 -86.5 -28.5t-46.5 -75.5l-2 -12h-20l2 12q10 52 53 87t103 35t89.5 -34t19.5 -85q-7 -37 -33 -68.5t-71 -41.5q90 -23 71 -121q-11 -55 -56.5 -92.5t-112.5 -37.5
t-98.5 37.5t-20.5 92.5l5 25h20l-5 -25q-9 -48 18.5 -80t83.5 -32t96.5 32t49.5 80z" />
    <glyph glyph-name="four.denominator" 
d="M28 123h214l60 307zM310 123l-3 -18h-48l-21 -106h-20l21 106h-237l3 18l303 340h20l-66 -340h48z" />
    <glyph glyph-name="five.denominator" 
d="M18 127h20q-7 -54 18 -84.5t77 -32.5q59 2 97 38t51 102q27 140 -89 140q-84 0 -124 -75h-20l59 248h230l-3 -18h-211l-47 -196q41 59 119 59q68 0 94 -42t12 -116q-14 -73 -59 -115.5t-112 -42.5q-61 0 -90.5 36.5t-21.5 98.5z" />
    <glyph glyph-name="six.denominator" 
d="M303 149q-13 -71 -60.5 -114.5t-112.5 -43.5q-37 0 -67 18t-42 54q-14 40 5 139q35 177 91 231q39 38 104 38q55 0 82.5 -31.5t25.5 -84.5h-20q0 98 -91 98q-64 0 -102 -49.5t-65 -180.5q21 36 58 60t82 24q65 0 95.5 -43.5t16.5 -114.5zM283 149q13 63 -13.5 101.5
t-81.5 38.5t-96.5 -38.5t-54.5 -101.5q-12 -63 14.5 -101.5t81.5 -38.5t96.5 38.5t53.5 101.5z" />
    <glyph glyph-name="seven.denominator" 
d="M76 445l3 18h277l-3 -18l-253 -446h-21l253 446h-256z" />
    <glyph glyph-name="eight.denominator" 
d="M221 471q62 0 92.5 -33t20.5 -84q-7 -39 -35 -68.5t-70 -39.5q44 -10 62.5 -43t9.5 -80q-11 -61 -58 -96.5t-115 -35.5t-101 35.5t-22 96.5q9 47 41 80t79 43q-38 10 -54 39.5t-9 68.5q10 51 53.5 84t105.5 33zM179 255q55 0 91 28t44 71q9 43 -16 71t-80 28t-91 -28
t-45 -71q-8 -43 17 -71t80 -28zM131 9q58 0 99 31t51 83t-19 83t-86 31t-99 -31t-52 -83t19.5 -83t86.5 -31z" />
    <glyph glyph-name="nine.denominator" 
d="M45 313q14 71 62 114.5t112 43.5q37 0 67 -18t42 -54q14 -40 -5 -139q-35 -177 -91 -231q-39 -38 -104 -38q-55 0 -82.5 31.5t-25.5 84.5h20q0 -98 91 -98q64 0 102 49.5t65 180.5q-21 -36 -58 -60t-82 -24q-64 0 -95.5 43.5t-17.5 114.5zM65 313q-12 -63 14.5 -101.5
t81.5 -38.5t96.5 38.5t53.5 101.5q13 63 -13.5 101.5t-81.5 38.5t-96.5 -38.5t-54.5 -101.5z" />
    </font>
</defs>
</svg>
