<?xml version="1.0" standalone="no"?>
<!DOCTYPE svg PUBLIC "-//W3C//DTD SVG 1.1//EN" "http://www.w3.org/Graphics/SVG/1.1/DTD/svg11.dtd" >
<svg xmlns="http://www.w3.org/2000/svg" xmlns:xlink="http://www.w3.org/1999/xlink" version="1.1">
<metadata>
Created by FontForge 20161013 at Thu Jan  8 20:47:47 2015
 By ,,,
Copyright (c) 2015 by S-Core Co., Ltd.. All rights reserved.
</metadata>
<defs>
<font id="CoreSansE-55Medium" horiz-adv-x="376" >
  <font-face 
    font-family="Core Sans E 55 Medium"
    font-weight="500"
    font-stretch="normal"
    units-per-em="1000"
    panose-1="2 11 6 3 3 3 2 2 2 4"
    ascent="800"
    descent="-200"
    x-height="500"
    cap-height="700"
    bbox="-397 -238 1095 1009"
    underline-thickness="24"
    underline-position="-255"
    unicode-range="U+0008-FB04"
  />
<missing-glyph horiz-adv-x="420" 
d="M390 0h-360v750h360v-750zM105 65h210v620h-210v-620z" />
    <glyph glyph-name="f_f" unicode="ff" horiz-adv-x="659" 
d="M639 613h-48q-41 0 -56.5 -14t-15.5 -48v-51h120v-94h-120v-406h-114v406h-190v-406h-114v406h-71v94h71v56q0 83 40.5 117t139.5 34q37 0 69 -6v-88h-53q-48 0 -65 -13t-17 -49v-51h190v56q0 82 39.5 116.5t130.5 34.5q36 0 64 -4v-90z" />
    <glyph glyph-name="f_i" unicode="fi" horiz-adv-x="594" 
d="M335 613h-48q-41 0 -56.5 -14t-15.5 -48v-51h120v-94h-120v-406h-114v406h-71v94h71v56q0 82 39.5 116.5t130.5 34.5q36 0 64 -4v-90zM415 590v110h114v-110h-114zM415 0v500h114v-500h-114z" />
    <glyph glyph-name="f_l" unicode="fl" horiz-adv-x="594" 
d="M335 613h-48q-41 0 -56.5 -14t-15.5 -48v-51h120v-94h-120v-406h-114v406h-71v94h71v56q0 82 39.5 116.5t130.5 34.5q36 0 64 -4v-90zM529 0h-114v700h114v-700z" />
    <glyph glyph-name="f_f_i" unicode="ffi" horiz-adv-x="898" 
d="M719 590v110h114v-110h-114zM719 0v500h114v-500h-114zM639 613h-48q-41 0 -56.5 -14t-15.5 -48v-51h120v-94h-120v-406h-114v406h-190v-406h-114v406h-71v94h71v56q0 83 40.5 117t139.5 34q37 0 69 -6v-88h-53q-48 0 -65 -13t-17 -49v-51h190v56q0 82 39.5 116.5
t130.5 34.5q36 0 64 -4v-90z" />
    <glyph glyph-name="f_f_l" unicode="ffl" horiz-adv-x="898" 
d="M833 0h-114v700h114v-700zM639 613h-48q-41 0 -56.5 -14t-15.5 -48v-51h120v-94h-120v-406h-114v406h-190v-406h-114v406h-71v94h71v56q0 83 40.5 117t139.5 34q37 0 69 -6v-88h-53q-48 0 -65 -13t-17 -49v-51h190v56q0 82 39.5 116.5t130.5 34.5q36 0 64 -4v-90z" />
    <glyph glyph-name=".notdef" horiz-adv-x="420" 
d="M390 0h-360v750h360v-750zM105 65h210v620h-210v-620z" />
    <glyph glyph-name=".null" horiz-adv-x="0" 
 />
    <glyph glyph-name=".null" horiz-adv-x="0" 
 />
    <glyph glyph-name=".null" horiz-adv-x="0" 
 />
    <glyph glyph-name="nonmarkingreturn" horiz-adv-x="333" 
 />
    <glyph glyph-name="CR" unicode="&#x9;" horiz-adv-x="237" 
 />
    <glyph glyph-name="CR" unicode="&#xd;" horiz-adv-x="237" 
 />
    <glyph glyph-name="space" unicode=" " horiz-adv-x="260" 
 />
    <glyph glyph-name="exclam" unicode="!" horiz-adv-x="314" 
d="M112 191l-12 388v121h114v-121l-12 -388h-90zM100 0v110h114v-110h-114z" />
    <glyph glyph-name="quotedbl" unicode="&#x22;" horiz-adv-x="422" 
d="M238 500v200h104v-200h-104zM80 500v200h104v-200h-104z" />
    <glyph glyph-name="numbersign" unicode="#" horiz-adv-x="668" 
d="M322 0l40 185h-128l-40 -185h-104l40 185h-96v90h115l33 150h-114v90h133l41 185h104l-41 -185h128l41 185h104l-41 -185h97v-90h-116l-33 -150h115v-90h-134l-40 -185h-104zM286 425l-33 -150h128l33 150h-128z" />
    <glyph glyph-name="dollar" unicode="$" horiz-adv-x="580" 
d="M332 -10v-77h-82v78q-94 10 -147 66t-53 141v12h120v-15q0 -37 21 -62.5t59 -35.5v214l-19 4q-86 18 -133.5 68t-47.5 131q0 78 52 133t148 63v77h82v-79q87 -12 134.5 -66t47.5 -128v-9h-120v9q0 65 -62 86v-192l28 -6q87 -18 133.5 -70t46.5 -134q0 -86 -55.5 -142
t-152.5 -66zM420 195q0 82 -88 102v-202q41 8 64.5 34.5t23.5 65.5zM170 514q0 -73 80 -93v184q-39 -7 -59.5 -31.5t-20.5 -59.5z" />
    <glyph glyph-name="percent" unicode="%" horiz-adv-x="814" 
d="M215 0l287 700h97l-287 -700h-97zM349 523q0 -106 -47 -153q-36 -36 -100 -36t-100 36q-47 47 -47 153t47 153q36 36 100 36t100 -36q47 -47 47 -153zM151 523q0 -66 15 -89q12 -18 36 -18t36 18q15 23 15 89t-15 89q-12 18 -36 18t-36 -18q-15 -23 -15 -89zM465 177
q0 106 47 153q36 36 100 36t100 -36q47 -47 47 -153t-47 -153q-36 -36 -100 -36t-100 36q-47 47 -47 153zM663 177q0 66 -15 89q-12 18 -36 18t-36 -18q-15 -23 -15 -89t15 -89q12 -18 36 -18t36 18q15 23 15 89z" />
    <glyph glyph-name="ampersand" unicode="&#x26;" horiz-adv-x="653" 
d="M479 347h116q-6 -132 -52 -216l115 -131h-139l-45 51q-69 -63 -189 -63q-108 0 -171.5 56t-63.5 150q0 127 123 198q-37 45 -54 81.5t-17 77.5q0 74 52 117.5t134 43.5t134 -43.5t52 -117.5v-24h-116v20q0 30 -18.5 47.5t-51.5 17.5t-51.5 -17.5t-18.5 -47.5
q0 -48 48 -101l192 -219q16 49 21 120zM166 196q0 -53 34 -80.5t86 -27.5q74 0 117 43l-169 192q-68 -50 -68 -127z" />
    <glyph glyph-name="quotesingle" unicode="'" horiz-adv-x="264" 
d="M80 500v200h104v-200h-104z" />
    <glyph glyph-name="parenleft" unicode="(" horiz-adv-x="329" 
d="M80 346q0 113 10 193t27.5 130.5t47 79.5t63.5 39.5t81 10.5v-101q-32 0 -51 -11.5t-35 -47.5t-22.5 -107t-6.5 -186t6.5 -186t22.5 -107t35 -47.5t51 -11.5v-101q-47 0 -81 10.5t-63.5 39.5t-47 79.5t-27.5 130.5t-10 193z" />
    <glyph glyph-name="parenright" unicode=")" horiz-adv-x="329" 
d="M249 346q0 -113 -10 -193t-27.5 -130.5t-47 -79.5t-63.5 -39.5t-81 -10.5v101q32 0 51 11.5t35 47.5t22.5 107t6.5 186t-6.5 186t-22.5 107t-35 47.5t-51 11.5v101q47 0 81 -10.5t63.5 -39.5t47 -79.5t27.5 -130.5t10 -193z" />
    <glyph glyph-name="asterisk" unicode="*" horiz-adv-x="514" 
d="M35 394l52 90l130 -91l-12 159h104l-13 -159l131 91l52 -90l-144 -68l144 -68l-52 -90l-131 90l13 -158h-104l12 158l-130 -90l-52 90l143 68z" />
    <glyph glyph-name="plus" unicode="+" horiz-adv-x="540" 
d="M50 279v94h168v179h104v-179h168v-94h-168v-179h-104v179h-168z" />
    <glyph glyph-name="comma" unicode="," horiz-adv-x="282" 
d="M204 126v-126q0 -50 -33 -81.5t-93 -33.5v54q63 5 63 61h-63v126h126z" />
    <glyph glyph-name="hyphen" unicode="-" horiz-adv-x="412" 
d="M50 276v100h312v-100h-312z" />
    <glyph glyph-name="period" unicode="." horiz-adv-x="282" 
d="M204 126v-126h-126v126h126z" />
    <glyph glyph-name="slash" unicode="/" horiz-adv-x="440" 
d="M440 783l-328 -876h-112l328 876h112z" />
    <glyph glyph-name="zero" unicode="0" horiz-adv-x="564" 
d="M517 350q0 -218 -76 -300q-57 -62 -159 -62t-159 62q-76 82 -76 300t76 300q57 62 159 62t159 -62q76 -82 76 -300zM401 350q0 178 -38 225q-30 37 -81 37t-81 -37q-38 -47 -38 -225t38 -225q30 -37 81 -37t81 37q38 47 38 225z" />
    <glyph glyph-name="one" unicode="1" horiz-adv-x="564" 
d="M390 0h-116v578l-160 -70v112l177 80h99v-700z" />
    <glyph glyph-name="two" unicode="2" horiz-adv-x="564" 
d="M64 481v20q0 91 58.5 151t159.5 60t159.5 -60t58.5 -151q0 -52 -14 -86t-53 -79l-205 -236h282v-100h-436v90l264 306q46 53 46 104q0 52 -27.5 82t-74.5 30t-74.5 -30t-27.5 -82v-19h-116z" />
    <glyph glyph-name="three" unicode="3" horiz-adv-x="564" 
d="M51 198v13h117v-6q0 -55 31.5 -86t80.5 -31t80.5 31t31.5 86t-31.5 86.5t-80.5 31.5h-72v97h72q41 0 66.5 26t25.5 70t-25.5 70t-66.5 26t-66.5 -26t-25.5 -70v-5h-116v15q0 82 55.5 134t152.5 52t152.5 -52t55.5 -134q0 -52 -28.5 -95t-75.5 -59q59 -17 92 -62t33 -112
q0 -96 -63.5 -153t-165.5 -57t-165.5 57t-63.5 153z" />
    <glyph glyph-name="four" unicode="4" horiz-adv-x="564" 
d="M162 244h166v280zM520 244v-100h-76v-144h-116v144h-285v100l271 456h130v-456h76z" />
    <glyph glyph-name="five" unicode="5" horiz-adv-x="564" 
d="M285 354q-55 0 -82 -44h-116l18 390h365v-100h-257l-10 -196q13 22 42.5 36t64.5 14q89 0 143.5 -60.5t54.5 -173.5q0 -109 -59.5 -170.5t-163.5 -61.5q-98 0 -157 54t-65 148h116q5 -50 33 -76t73 -26q50 0 78.5 34t28.5 99t-28.5 99t-78.5 34z" />
    <glyph glyph-name="six" unicode="6" horiz-adv-x="564" 
d="M500 536h-119q-15 76 -91 76q-58 0 -83.5 -53.5t-27.5 -168.5q32 64 125 64q94 0 152 -63t58 -170q0 -106 -64 -169.5t-163 -63.5q-108 0 -170 79q-58 72 -58 249q0 223 58 311q56 85 173 85q87 0 142 -45t68 -131zM398 221q0 62 -30 97.5t-81 35.5t-81 -35.5t-30 -97.5
t30 -97.5t81 -35.5t81 35.5t30 97.5z" />
    <glyph glyph-name="seven" unicode="7" horiz-adv-x="564" 
d="M65 600v100h435v-89l-229 -611h-122l232 600h-316z" />
    <glyph glyph-name="eight" unicode="8" horiz-adv-x="564" 
d="M282 323q-54 0 -88 -32t-34 -86q0 -53 33.5 -85t88.5 -32t88.5 32t33.5 85q0 54 -34 86t-88 32zM282 -12q-106 0 -172.5 57t-66.5 153q0 130 123 174q-46 18 -74 60t-28 94q0 82 58.5 134t159.5 52t159.5 -52t58.5 -134q0 -52 -28 -94t-74 -60q123 -44 123 -174
q0 -96 -66.5 -153t-172.5 -57zM282 420q46 0 74 26.5t28 69.5t-28 69.5t-74 26.5t-74 -26.5t-28 -69.5t28 -69.5t74 -26.5z" />
    <glyph glyph-name="nine" unicode="9" horiz-adv-x="564" 
d="M64 164h119q15 -76 91 -76q58 0 83.5 53.5t27.5 168.5q-32 -64 -125 -64q-94 0 -152 63t-58 170q0 106 64 169.5t163 63.5q108 0 170 -79q58 -72 58 -249q0 -223 -58 -311q-56 -85 -173 -85q-87 0 -142 45t-68 131zM166 479q0 -62 30 -97.5t81 -35.5t81 35.5t30 97.5
t-30 97.5t-81 35.5t-81 -35.5t-30 -97.5z" />
    <glyph glyph-name="colon" unicode=":" horiz-adv-x="282" 
d="M204 500v-126h-126v126h126zM204 126v-126h-126v126h126z" />
    <glyph glyph-name="semicolon" unicode=";" horiz-adv-x="282" 
d="M204 126v-126q0 -50 -33 -81.5t-93 -33.5v54q63 5 63 61h-63v126h126zM204 500v-126h-126v126h126z" />
    <glyph glyph-name="less" unicode="&#x3c;" horiz-adv-x="540" 
d="M482 97l-424 183v92l424 183v-104l-304 -125l304 -125v-104z" />
    <glyph glyph-name="equal" unicode="=" horiz-adv-x="540" 
d="M50 192v94h440v-94h-440zM50 366v94h440v-94h-440z" />
    <glyph glyph-name="greater" unicode="&#x3e;" horiz-adv-x="540" 
d="M482 280l-424 -183v104l304 125l-304 125v104l424 -183v-92z" />
    <glyph glyph-name="question" unicode="?" horiz-adv-x="531" 
d="M169 510h-114v3q0 89 55.5 144t152.5 55t152.5 -55t55.5 -144q0 -59 -20.5 -99.5t-66.5 -80.5q-40 -35 -54.5 -62t-14.5 -66v-24h-114v32q0 56 19 93t70 83q39 34 53 59.5t14 61.5q0 49 -26 75.5t-68 26.5t-68 -26.5t-26 -75.5zM201 0v110h114v-110h-114z" />
    <glyph glyph-name="at" unicode="@" horiz-adv-x="756" 
d="M378 623q-78 0 -120.5 -29t-64 -107.5t-21.5 -225.5q0 -91 8.5 -155t24 -104t42 -63t57 -31t74.5 -8q64 0 111 26l31 -82q-64 -33 -142 -33q-76 0 -129 19.5t-95.5 68t-63 138.5t-20.5 224q0 244 71.5 347.5t236.5 103.5t236.5 -103.5t71.5 -347.5q0 -122 -54 -187.5
t-154 -65.5q-99 0 -150.5 62t-51.5 169q0 112 49 171.5t133 59.5q92 0 120 -63q-11 120 -57.5 168t-142.5 48zM584 239q0 70 -24 103.5t-76 33.5t-76 -33.5t-24 -103.5t24 -103.5t76 -33.5t76 33.5t24 103.5z" />
    <glyph glyph-name="A" unicode="A" horiz-adv-x="616" 
d="M134 0h-124l227 700h142l227 -700h-124l-45 149h-259zM406 253l-98 332l-99 -332h197z" />
    <glyph glyph-name="B" unicode="B" horiz-adv-x="608" 
d="M190 412h117q62 0 92.5 21t30.5 71t-30.5 71t-92.5 21h-117v-184zM352 0h-282v700h262q218 0 218 -188q0 -113 -103 -147q57 -13 90 -57.5t33 -107.5q0 -200 -218 -200zM450 206q0 55 -30 79t-95 24h-135v-205h135q65 0 95 23.5t30 78.5z" />
    <glyph glyph-name="C" unicode="C" horiz-adv-x="638" 
d="M50 350q0 176 61 263q70 99 214 99q121 0 192 -68t76 -178h-120q-2 66 -41 104t-107 38q-78 0 -116 -56q-39 -58 -39 -202t39 -202q38 -56 116 -56q68 0 107 38t41 104h120q-5 -110 -76 -178t-192 -68q-144 0 -214 99q-61 87 -61 263z" />
    <glyph glyph-name="D" unicode="D" horiz-adv-x="644" 
d="M474 350q0 140 -42 198q-34 48 -119 48h-123v-492h123q85 0 119 48q42 58 42 198zM594 350q0 -84 -12 -147t-47 -113q-63 -90 -210 -90h-255v700h255q147 0 210 -90q35 -50 47 -113t12 -147z" />
    <glyph glyph-name="E" unicode="E" horiz-adv-x="541" 
d="M70 0v700h421v-104h-301v-185h265v-104h-265v-203h306v-104h-426z" />
    <glyph glyph-name="F" unicode="F" horiz-adv-x="516" 
d="M70 0v700h416v-104h-296v-195h265v-104h-265v-297h-120z" />
    <glyph glyph-name="G" unicode="G" horiz-adv-x="655" 
d="M50 350q0 176 61 263q70 99 214 99q121 0 192 -68t76 -178h-120q-2 66 -41 104t-107 38q-78 0 -116 -56q-39 -58 -39 -202t39 -202q38 -56 116 -56q81 0 119 53q30 41 30 103v20h-144v100h262v-368h-86l-18 86q-19 -44 -64.5 -71t-106.5 -27q-136 0 -206 99
q-61 87 -61 263z" />
    <glyph glyph-name="H" unicode="H" horiz-adv-x="632" 
d="M442 0v307h-252v-307h-120v700h120v-289h252v289h120v-700h-120z" />
    <glyph glyph-name="I" unicode="I" horiz-adv-x="260" 
d="M190 700v-700h-120v700h120z" />
    <glyph glyph-name="J" unicode="J" horiz-adv-x="538" 
d="M20 223h120q4 -131 106 -131q106 0 106 140v468h120v-486q0 -109 -60 -167.5t-167 -58.5q-106 0 -165.5 58.5t-59.5 167.5v9z" />
    <glyph glyph-name="K" unicode="K" horiz-adv-x="596" 
d="M570 700l-214 -341l245 -359h-134l-208 307h-69v-307h-120v700h120v-289h69l180 289h131z" />
    <glyph glyph-name="L" unicode="L" horiz-adv-x="512" 
d="M70 0v700h120v-596h306v-104h-426z" />
    <glyph glyph-name="M" unicode="M" horiz-adv-x="842" 
d="M476 0h-110l-178 467v-467h-118v700h132l219 -570l219 570h132v-700h-118v467z" />
    <glyph glyph-name="N" unicode="N" horiz-adv-x="642" 
d="M449 0l-261 491v-491h-118v700h123l261 -491v491h118v-700h-123z" />
    <glyph glyph-name="O" unicode="O" horiz-adv-x="650" 
d="M480 350q0 144 -39 202q-38 56 -116 56t-116 -56q-39 -58 -39 -202t39 -202q38 -56 116 -56t116 56q39 58 39 202zM50 350q0 176 61 263q70 99 214 99t214 -99q61 -87 61 -263t-61 -263q-70 -99 -214 -99t-214 99q-61 87 -61 263z" />
    <glyph glyph-name="P" unicode="P" horiz-adv-x="599" 
d="M190 362h141q59 0 89 30.5t30 86.5q0 117 -119 117h-141v-234zM348 258h-158v-258h-120v700h278q104 0 163 -58t59 -163q0 -106 -59 -163.5t-163 -57.5z" />
    <glyph glyph-name="Q" unicode="Q" horiz-adv-x="650" 
d="M50 350q0 176 61 263q70 99 214 99t214 -99q61 -87 61 -263q0 -154 -46 -239l79 -67l-63 -71l-77 65q-64 -50 -168 -50q-144 0 -214 99q-61 87 -61 263zM480 350q0 144 -39 202q-38 56 -116 56t-116 -56q-39 -58 -39 -202t39 -202q38 -56 116 -56q53 0 81 21l-85 73
l63 71l78 -67q18 55 18 160z" />
    <glyph glyph-name="R" unicode="R" horiz-adv-x="621" 
d="M444 62l-5 91q-3 55 -30.5 80t-85.5 25h-133v-258h-120v700h277q109 0 166 -55t57 -158q0 -138 -118 -176q52 -11 77 -45.5t29 -103.5l6 -98q3 -40 12 -64h-122q-9 26 -10 62zM190 362h138q122 0 122 117t-122 117h-138v-234z" />
    <glyph glyph-name="S" unicode="S" horiz-adv-x="580" 
d="M540 198q0 -94 -65.5 -152t-179.5 -58t-179.5 58t-65.5 152v12h120v-15q0 -47 34 -75t91 -28t91 28t34 75q0 82 -99 103l-90 19q-181 38 -181 197q0 85 60.5 141.5t171.5 56.5t171.5 -56.5t60.5 -141.5v-9h-120v9q0 42 -29.5 68t-82.5 26t-82.5 -26t-29.5 -68
q0 -40 24 -62t75 -33l90 -19q87 -18 134 -69t47 -133z" />
    <glyph glyph-name="T" unicode="T" horiz-adv-x="534" 
d="M15 596v104h504v-104h-192v-596h-120v596h-192z" />
    <glyph glyph-name="U" unicode="U" horiz-adv-x="652" 
d="M326 92q141 0 141 183v425h120v-442q0 -124 -67 -197t-194 -73t-194 73t-67 197v442h120v-425q0 -183 141 -183z" />
    <glyph glyph-name="V" unicode="V" horiz-adv-x="616" 
d="M308 145l174 555h124l-227 -700h-142l-227 700h124z" />
    <glyph glyph-name="W" unicode="W" horiz-adv-x="948" 
d="M673 150l136 550h124l-182 -700h-147l-130 515l-130 -515h-147l-182 700h124l136 -550l138 550h122z" />
    <glyph glyph-name="X" unicode="X" horiz-adv-x="608" 
d="M15 0l215 362l-200 338h132l142 -249l142 249h132l-201 -338l216 -362h-132l-157 272l-157 -272h-132z" />
    <glyph glyph-name="Y" unicode="Y" horiz-adv-x="606" 
d="M303 382l162 318h126l-228 -424v-276h-120v276l-228 424h126z" />
    <glyph glyph-name="Z" unicode="Z" horiz-adv-x="542" 
d="M40 94l312 502h-302v104h447v-94l-312 -502h317v-104h-462v94z" />
    <glyph glyph-name="bracketleft" unicode="[" horiz-adv-x="342" 
d="M80 -93v876h222v-99h-108v-678h108v-99h-222z" />
    <glyph glyph-name="backslash" unicode="\" horiz-adv-x="440" 
d="M328 -93l-328 876h112l328 -876h-112z" />
    <glyph glyph-name="bracketright" unicode="]" horiz-adv-x="342" 
d="M262 783v-876h-222v99h108v678h-108v99h222z" />
    <glyph glyph-name="asciicircum" unicode="^" horiz-adv-x="432" 
d="M266 700l146 -232h-112l-84 137l-84 -137h-112l146 232h100z" />
    <glyph glyph-name="underscore" unicode="_" horiz-adv-x="500" 
d="M0 -172v72h500v-72h-500z" />
    <glyph glyph-name="grave" unicode="`" horiz-adv-x="380" 
d="M203 569l-125 161h129l95 -161h-99z" />
    <glyph glyph-name="a" unicode="a" horiz-adv-x="532" 
d="M360 56q-11 -30 -47 -49t-89 -19q-86 0 -136 41.5t-50 117.5t50 117.5t136 41.5q49 0 86.5 -17.5t49.5 -49.5v82q0 97 -96 97q-84 0 -93 -67h-115q5 75 58.5 118t149.5 43q104 0 157 -50.5t53 -139.5v-253q0 -40 12 -69h-117q-7 17 -9 56zM256 75q104 0 104 72t-104 72
t-104 -72t104 -72z" />
    <glyph glyph-name="b" unicode="b" horiz-adv-x="550" 
d="M174 77v-77h-114v700h114v-277q14 41 50.5 65t87.5 24q93 0 144.5 -64.5t51.5 -197.5t-51.5 -197.5t-144.5 -64.5q-51 0 -87.5 24t-50.5 65zM284 82q60 0 85 43t25 125t-25 125t-85 43t-85 -43t-25 -125t25 -125t85 -43z" />
    <glyph glyph-name="c" unicode="c" horiz-adv-x="520" 
d="M42 250q0 127 56.5 194.5t167.5 67.5q95 0 151.5 -46t65.5 -131h-115q-4 39 -30.5 61t-71.5 22q-60 0 -85 -43t-25 -125t25 -125t85 -43q45 0 71.5 22t30.5 61h115q-9 -85 -65.5 -131t-151.5 -46q-111 0 -167.5 67.5t-56.5 194.5z" />
    <glyph glyph-name="d" unicode="d" horiz-adv-x="550" 
d="M376 0v77q-14 -41 -50.5 -65t-87.5 -24q-93 0 -144.5 64.5t-51.5 197.5t51.5 197.5t144.5 64.5q51 0 87.5 -24t50.5 -65v277h114v-700h-114zM266 82q60 0 85 43t25 125t-25 125t-85 43t-85 -43t-25 -125t25 -125t85 -43z" />
    <glyph glyph-name="e" unicode="e" horiz-adv-x="532" 
d="M490 215h-333q6 -133 109 -133q40 0 66 18.5t32 51.5h116q-14 -79 -69 -121.5t-145 -42.5q-111 0 -167.5 67.5t-56.5 194.5t56.5 194.5t167.5 67.5t167.5 -67.5t56.5 -194.5v-35zM158 299h216q-10 119 -108 119t-108 -119z" />
    <glyph glyph-name="f" unicode="f" horiz-adv-x="355" 
d="M335 613h-48q-41 0 -56.5 -14t-15.5 -48v-51h120v-94h-120v-406h-114v406h-71v94h71v56q0 82 39.5 116.5t130.5 34.5q36 0 64 -4v-90z" />
    <glyph glyph-name="g" unicode="g" horiz-adv-x="550" 
d="M376 250q0 83 -24.5 125.5t-85.5 42.5t-85.5 -42.5t-24.5 -125.5t24.5 -125.5t85.5 -42.5t85.5 42.5t24.5 125.5zM490 500v-516q0 -98 -52 -157t-163 -59q-91 0 -145 40t-65 114h116q11 -66 94 -66q53 0 77 29.5t24 88.5v103q-14 -41 -50.5 -65t-87.5 -24
q-93 0 -144.5 64.5t-51.5 197.5t51.5 197.5t144.5 64.5q51 0 87.5 -24t50.5 -65v77h114z" />
    <glyph glyph-name="h" unicode="h" horiz-adv-x="546" 
d="M488 315v-315h-114v313q0 105 -84 105q-52 0 -84 -36.5t-32 -102.5v-279h-114v700h114v-286q15 45 52 71.5t91 26.5q82 0 126.5 -51t44.5 -146z" />
    <glyph glyph-name="i" unicode="i" horiz-adv-x="244" 
d="M65 590v110h114v-110h-114zM65 0v500h114v-500h-114z" />
    <glyph glyph-name="j" unicode="j" horiz-adv-x="244" 
d="M65 -53v553h114v-566q0 -75 -43 -113.5t-124 -38.5q-31 0 -47 3v92h37q63 0 63 70zM65 590v110h114v-110h-114z" />
    <glyph glyph-name="k" unicode="k" horiz-adv-x="496" 
d="M60 0v700h114v-395h47l123 195h124l-155 -240l178 -260h-128l-143 217h-46v-217h-114z" />
    <glyph glyph-name="l" unicode="l" horiz-adv-x="244" 
d="M179 0h-114v700h114v-700z" />
    <glyph glyph-name="m" unicode="m" horiz-adv-x="840" 
d="M478 279v-279h-114v321q0 97 -79 97q-51 0 -81 -36t-30 -103v-279h-114v500h114v-86q32 98 138 98q115 0 151 -101q45 101 153 101q80 0 123 -51t43 -146v-315h-114v321q0 97 -79 97q-51 0 -81 -36t-30 -103z" />
    <glyph glyph-name="n" unicode="n" horiz-adv-x="546" 
d="M488 315v-315h-114v313q0 105 -84 105q-52 0 -84 -36.5t-32 -102.5v-279h-114v500h114v-86q15 45 52 71.5t91 26.5q82 0 126.5 -51t44.5 -146z" />
    <glyph glyph-name="o" unicode="o" horiz-adv-x="532" 
d="M266 82q60 0 85 43t25 125t-25 125t-85 43t-85 -43t-25 -125t25 -125t85 -43zM266 512q111 0 167.5 -67.5t56.5 -194.5t-56.5 -194.5t-167.5 -67.5t-167.5 67.5t-56.5 194.5t56.5 194.5t167.5 67.5z" />
    <glyph glyph-name="p" unicode="p" horiz-adv-x="550" 
d="M174 500v-77q14 41 50.5 65t87.5 24q93 0 144.5 -64.5t51.5 -197.5t-51.5 -197.5t-144.5 -64.5q-51 0 -87.5 24t-50.5 65v-295h-114v718h114zM284 82q60 0 85 43t25 125t-25 125t-85 43t-85 -43t-25 -125t25 -125t85 -43z" />
    <glyph glyph-name="q" unicode="q" horiz-adv-x="550" 
d="M376 423v77h114v-718h-114v295q-14 -41 -50.5 -65t-87.5 -24q-93 0 -144.5 64.5t-51.5 197.5t51.5 197.5t144.5 64.5q51 0 87.5 -24t50.5 -65zM266 82q60 0 85 43t25 125t-25 125t-85 43t-85 -43t-25 -125t25 -125t85 -43z" />
    <glyph glyph-name="r" unicode="r" horiz-adv-x="365" 
d="M304 418q-63 0 -96.5 -40t-33.5 -117v-261h-114v500h114v-88q14 51 46 75.5t89 24.5q26 0 41 -4l-2 -92q-16 2 -44 2z" />
    <glyph glyph-name="s" unicode="s" horiz-adv-x="487" 
d="M45 142v14h114v-14q0 -30 23.5 -47t63.5 -17t63.5 17t23.5 45t-15.5 42.5t-52.5 21.5l-52 9q-85 15 -125 51t-40 99q0 65 51.5 107t138.5 42q88 0 139 -40t51 -109v-10h-114v10q0 26 -19.5 42.5t-56.5 16.5q-36 0 -56 -16t-20 -40q0 -26 16.5 -39t55.5 -20l52 -9
q87 -15 124 -52t37 -104q0 -66 -55 -110t-146 -44q-92 0 -146.5 43t-54.5 111z" />
    <glyph glyph-name="t" unicode="t" horiz-adv-x="375" 
d="M210 406v-249q0 -42 16.5 -56t62.5 -14h51v-91q-22 -3 -71 -3q-93 0 -133 31.5t-40 110.5v271h-71v94h71v142h114v-142h130v-94h-130z" />
    <glyph glyph-name="u" unicode="u" horiz-adv-x="546" 
d="M58 185v315h114v-313q0 -105 84 -105q52 0 84 36.5t32 102.5v279h114v-500h-114v86q-15 -45 -52 -71.5t-91 -26.5q-82 0 -126.5 51t-44.5 146z" />
    <glyph glyph-name="v" unicode="v" horiz-adv-x="518" 
d="M325 0h-132l-178 500h119l125 -388l125 388h119z" />
    <glyph glyph-name="w" unicode="w" horiz-adv-x="808" 
d="M348 500h112l111 -373l106 373h116l-159 -500h-120l-110 382l-110 -382h-120l-159 500h116l106 -373z" />
    <glyph glyph-name="x" unicode="x" horiz-adv-x="484" 
d="M242 180l-108 -180h-124l164 257l-154 243h124l98 -166l98 166h124l-154 -243l164 -257h-124z" />
    <glyph glyph-name="y" unicode="y" horiz-adv-x="519" 
d="M181 -70l24 68l-190 502h119l128 -360l123 360h119l-219 -605q-24 -66 -61 -89.5t-100 -23.5q-34 0 -47 2v92h37q48 0 67 54z" />
    <glyph glyph-name="z" unicode="z" horiz-adv-x="458" 
d="M415 500v-84l-237 -322h244v-94h-386v84l237 322h-229v94h371z" />
    <glyph glyph-name="braceleft" unicode="{" horiz-adv-x="354" 
d="M120 59v166q0 70 -60 70h-20v100h20q60 0 60 70v166q0 79 39.5 115.5t121.5 36.5h33v-99h-20q-60 0 -60 -70v-163q0 -85 -73 -106q73 -21 73 -106v-163q0 -70 60 -70h20v-99h-33q-82 0 -121.5 36.5t-39.5 115.5z" />
    <glyph glyph-name="bar" unicode="|" horiz-adv-x="314" 
d="M100 -93v876h114v-876h-114z" />
    <glyph glyph-name="braceright" unicode="}" horiz-adv-x="354" 
d="M234 225v-166q0 -79 -39.5 -115.5t-121.5 -36.5h-33v99h20q60 0 60 70v163q0 85 73 106q-73 21 -73 106v163q0 70 -60 70h-20v99h33q82 0 121.5 -36.5t39.5 -115.5v-166q0 -70 60 -70h20v-100h-20q-60 0 -60 -70z" />
    <glyph glyph-name="asciitilde" unicode="~" horiz-adv-x="540" 
d="M352 250q-29 0 -53 9t-37 19.5t-29 19.5t-30 9q-39 0 -40 -51h-106q1 65 34 106t96 41q37 0 65 -14.5t47.5 -28.5t36.5 -14q39 0 40 51h106q-1 -65 -34 -106t-96 -41z" />
    <glyph glyph-name="uni00A0" unicode="&#xa0;" horiz-adv-x="260" 
 />
    <glyph glyph-name="exclamdown" unicode="&#xa1;" horiz-adv-x="314" 
d="M202 309l12 -388v-121h-114v121l12 388h90zM214 500v-110h-114v110h114z" />
    <glyph glyph-name="cent" unicode="&#xa2;" horiz-adv-x="520" 
d="M42 250q0 236 186 259v80h72v-79q80 -8 127.5 -53t55.5 -122h-115q-6 64 -68 79v-329q62 15 68 80h115q-8 -78 -55.5 -122.5t-127.5 -52.5v-79h-72v80q-92 10 -139 76.5t-47 182.5zM156 250q0 -139 72 -163v325q-72 -22 -72 -162z" />
    <glyph glyph-name="sterling" unicode="&#xa3;" horiz-adv-x="535" 
d="M211 363h170v-86h-153q1 -6 1 -16q0 -99 -68 -159h334v-102h-442v92q62 73 62 169q0 10 -1 16h-64v86h47q-24 70 -24 148q0 86 54.5 143.5t152.5 57.5t152.5 -57.5t54.5 -143.5v-20h-114v19q0 45 -24 71.5t-69 26.5t-69 -26.5t-24 -71.5q0 -77 24 -147z" />
    <glyph glyph-name="currency" unicode="&#xa4;" horiz-adv-x="638" 
d="M539 326q0 -66 -36 -119l90 -89l-74 -74l-93 92q-47 -26 -107 -26q-59 0 -108 26l-92 -92l-74 74l89 89q-35 54 -35 119q0 66 35 118l-89 90l74 74l92 -93q51 27 108 27q58 0 107 -27l93 93l74 -74l-90 -90q36 -52 36 -118zM435 326q0 57 -32.5 91.5t-83.5 34.5
t-83.5 -34.5t-32.5 -91.5t32.5 -91.5t83.5 -34.5t83.5 34.5t32.5 91.5z" />
    <glyph glyph-name="yen" unicode="&#xa5;" horiz-adv-x="606" 
d="M103 190v68h140v52h-140v68h106l-194 322h132l156 -285l156 285h132l-194 -322h106v-68h-140v-52h140v-68h-140v-190h-120v190h-140z" />
    <glyph glyph-name="brokenbar" unicode="&#xa6;" horiz-adv-x="314" 
d="M100 395v388h114v-388h-114zM100 -93v388h114v-388h-114z" />
    <glyph glyph-name="section" unicode="&#xa7;" horiz-adv-x="493" 
d="M254 367l-43 11q-55 -25 -55 -88q0 -40 19.5 -62t63.5 -33l43 -11q55 24 55 88q0 40 -19.5 62t-63.5 33zM251 -150q-85 0 -137.5 45t-52.5 117v6h114v-4q0 -33 20.5 -51.5t55.5 -18.5t55.5 18.5t20.5 51.5q0 32 -19 50t-64 29l-47 12q-155 40 -155 180q0 90 78 134
q-68 43 -68 131q0 72 52.5 117t137.5 45t137.5 -45t52.5 -117v-6h-114v4q0 33 -20.5 51.5t-55.5 18.5t-55.5 -18.5t-20.5 -51.5q0 -32 19 -50t64 -29l47 -12q155 -40 155 -180q0 -91 -78 -134q68 -43 68 -131q0 -72 -52.5 -117t-137.5 -45z" />
    <glyph glyph-name="dieresis" unicode="&#xa8;" horiz-adv-x="380" 
d="M157 708v-122h-118v122h118zM341 708v-122h-118v122h118z" />
    <glyph glyph-name="copyright" unicode="&#xa9;" horiz-adv-x="754" 
d="M377 712q158 0 245 -91.5t87 -270.5t-87 -270.5t-245 -91.5t-245 91.5t-87 270.5t87 270.5t245 91.5zM377 40q276 0 276 310t-276 310t-276 -310t276 -310zM219 350q0 73 11.5 113.5t38.5 67.5q36 36 109 36t109 -36q39 -39 47 -110h-85q-3 26 -14 45q-18 28 -57 28
t-57 -28q-18 -30 -18 -116t18 -116q18 -28 57 -28t57 28q11 19 14 45h85q-8 -71 -47 -110q-36 -36 -109 -36t-109 36q-27 27 -38.5 67.5t-11.5 113.5z" />
    <glyph glyph-name="ordfeminine" unicode="&#xaa;" horiz-adv-x="414" 
d="M157 588h-99q5 57 44 88.5t108 31.5q72 0 112 -35t40 -94v-195q0 -27 8 -51h-100q-6 13 -6 36q-22 -45 -98 -45q-56 0 -91.5 30t-35.5 86t35.5 86t91.5 30q76 0 98 -45v69q0 53 -54 53q-48 0 -53 -45zM138 440q0 -41 63 -41t63 41t-63 41t-63 -41z" />
    <glyph glyph-name="guillemotleft" unicode="&#xab;" horiz-adv-x="500" 
d="M248 384l-122 -72l122 -72v-90l-208 126v72l208 126v-90zM460 384l-122 -72l122 -72v-90l-208 126v72l208 126v-90z" />
    <glyph glyph-name="logicalnot" unicode="&#xac;" horiz-adv-x="540" 
d="M50 279v94h440v-248h-104v154h-336z" />
    <glyph glyph-name="uni00AD" unicode="&#xad;" horiz-adv-x="412" 
d="M50 276v100h312v-100h-312z" />
    <glyph glyph-name="registered" unicode="&#xae;" horiz-adv-x="754" 
d="M377 712q158 0 245 -91.5t87 -270.5t-87 -270.5t-245 -91.5t-245 91.5t-87 270.5t87 270.5t245 91.5zM377 40q276 0 276 310t-276 310t-276 -310t276 -310zM320 359h66q67 0 67 66q0 67 -67 67h-66v-133zM449 178l-3 48q-2 34 -20 49.5t-55 15.5h-51v-150h-85v418h163
q65 0 102.5 -34t37.5 -100q0 -40 -19.5 -67t-53.5 -37q32 -4 47.5 -25.5t18.5 -63.5l4 -53q2 -24 7 -38h-87q-4 13 -6 37z" />
    <glyph glyph-name="macron" unicode="&#xaf;" horiz-adv-x="380" 
d="M49 602v92h282v-92h-282z" />
    <glyph glyph-name="degree" unicode="&#xb0;" horiz-adv-x="346" 
d="M306 573q0 -60 -36 -97.5t-97 -37.5t-97 37.5t-36 97.5t36 97.5t97 37.5t97 -37.5t36 -97.5zM223 573q0 26 -13.5 41.5t-36.5 15.5t-36.5 -15.5t-13.5 -41.5t13.5 -41.5t36.5 -15.5t36.5 15.5t13.5 41.5z" />
    <glyph glyph-name="plusminus" unicode="&#xb1;" horiz-adv-x="540" 
d="M50 309v94h168v169h104v-169h168v-94h-168v-169h-104v169h-168zM50 0v94h440v-94h-440z" />
    <glyph glyph-name="twosuperior" unicode="&#xb2;" 
d="M35 549v16q0 66 41 104.5t111 38.5q67 0 109 -38.5t42 -104.5q0 -59 -54 -120l-107 -123h161v-86h-293v73l170 197q23 26 23 58q0 25 -13.5 39.5t-37.5 14.5q-25 0 -38.5 -14.5t-13.5 -39.5v-15h-100z" />
    <glyph glyph-name="threesuperior" unicode="&#xb3;" 
d="M30 372v17h100v-12q0 -30 15.5 -47.5t42.5 -17.5t42.5 17t15.5 46q0 63 -63 63h-35v84h35q53 0 53 51t-48 51q-23 0 -35.5 -13t-12.5 -36v-7h-98v16q0 56 40.5 90t105.5 34q66 0 106 -34.5t40 -91.5q0 -74 -67 -99q79 -23 79 -110q0 -64 -41.5 -104.5t-116.5 -40.5
q-74 0 -116 40.5t-42 103.5z" />
    <glyph glyph-name="acute" unicode="&#xb4;" horiz-adv-x="380" 
d="M302 730l-125 -161h-99l95 161h129z" />
    <glyph glyph-name="mu" unicode="&#xb5;" horiz-adv-x="548" 
d="M174 500v-313q0 -105 84 -105q52 0 84 36.5t32 102.5v279h114v-500h-114v86q-13 -44 -45 -71t-70 -27q-31 0 -53.5 15.5t-31.5 40.5v-262h-114v718h114z" />
    <glyph glyph-name="paragraph" unicode="&#xb6;" horiz-adv-x="565" 
d="M249 700h236v-831h-76v756h-45v-756h-76v398h-27q-95 0 -155.5 57.5t-60.5 156.5v7q0 100 54 156t150 56z" />
    <glyph glyph-name="periodcentered" unicode="&#xb7;" horiz-adv-x="282" 
d="M204 389v-126h-126v126h126z" />
    <glyph glyph-name="cedilla" unicode="&#xb8;" horiz-adv-x="380" 
d="M71 -202l33 63q32 -24 72 -24q45 0 45 30q0 32 -53 32q-24 0 -39 -5l-17 22l40 84h85l-22 -45q45 -4 69.5 -28.5t24.5 -62.5q0 -47 -34 -74.5t-91 -27.5q-65 0 -113 36z" />
    <glyph glyph-name="onesuperior" unicode="&#xb9;" 
d="M265 236h-100v369l-98 -45v88l115 52h83v-464z" />
    <glyph glyph-name="ordmasculine" unicode="&#xba;" horiz-adv-x="414" 
d="M207 324q-73 0 -114 37q-53 47 -53 154q0 109 53 156q41 37 114 37t114 -37q53 -47 53 -156q0 -107 -53 -154q-41 -37 -114 -37zM207 401q33 0 50 23q19 26 19 92t-19 92q-17 23 -50 23t-50 -23q-19 -26 -19 -92t19 -92q17 -23 50 -23z" />
    <glyph glyph-name="guillemotright" unicode="&#xbb;" horiz-adv-x="500" 
d="M374 312l-122 72v90l208 -126v-72l-208 -126v90zM162 312l-122 72v90l208 -126v-72l-208 -126v90z" />
    <glyph glyph-name="onequarter" unicode="&#xbc;" horiz-adv-x="932" 
d="M265 236h-100v369l-98 -45v88l115 52h83v-464zM676 170h90v155zM912 170v-84h-48v-86h-98v86h-191v77l177 301h112v-294h48zM686 700l-342 -700h-98l342 700h98z" />
    <glyph glyph-name="onehalf" unicode="&#xbd;" horiz-adv-x="932" 
d="M591 313v16q0 66 41 104.5t111 38.5q67 0 109 -38.5t42 -104.5q0 -59 -54 -120l-107 -123h161v-86h-293v73l170 197q23 26 23 58q0 25 -13.5 39.5t-37.5 14.5q-25 0 -38.5 -14.5t-13.5 -39.5v-15h-100zM686 700l-342 -700h-98l342 700h98zM265 236h-100v369l-98 -45v88
l115 52h83v-464z" />
    <glyph glyph-name="threequarters" unicode="&#xbe;" horiz-adv-x="932" 
d="M676 170h90v155zM912 170v-84h-48v-86h-98v86h-191v77l177 301h112v-294h48zM30 372v17h100v-12q0 -30 15.5 -47.5t42.5 -17.5t42.5 17t15.5 46q0 63 -63 63h-35v84h35q53 0 53 51t-48 51q-23 0 -35.5 -13t-12.5 -36v-7h-98v16q0 56 40.5 90t105.5 34q66 0 106 -34.5
t40 -91.5q0 -74 -67 -99q79 -23 79 -110q0 -64 -41.5 -104.5t-116.5 -40.5q-74 0 -116 40.5t-42 103.5zM686 700l-342 -700h-98l342 700h98z" />
    <glyph glyph-name="questiondown" unicode="&#xbf;" horiz-adv-x="531" 
d="M362 -10h114v-3q0 -89 -55.5 -144t-152.5 -55t-152.5 55t-55.5 144q0 59 20.5 99.5t66.5 80.5q40 35 54.5 62t14.5 66v24h114v-32q0 -56 -19 -93t-70 -83q-39 -34 -53 -59.5t-14 -61.5q0 -49 26 -75.5t68 -26.5t68 26.5t26 75.5zM330 500v-110h-114v110h114z" />
    <glyph glyph-name="Agrave" unicode="&#xc0;" horiz-adv-x="616" 
d="M134 0h-124l227 700h142l227 -700h-124l-45 149h-259zM406 253l-98 332l-99 -332h197zM291 763l-125 161h129l95 -161h-99z" />
    <glyph glyph-name="Aacute" unicode="&#xc1;" horiz-adv-x="616" 
d="M134 0h-124l227 700h142l227 -700h-124l-45 149h-259zM406 253l-98 332l-99 -332h197zM450 924l-125 -161h-99l95 161h129z" />
    <glyph glyph-name="Acircumflex" unicode="&#xc2;" horiz-adv-x="616" 
d="M134 0h-124l227 700h142l227 -700h-124l-45 149h-259zM406 253l-98 332l-99 -332h197zM357 924l116 -161h-99l-66 80l-66 -80h-99l116 161h98z" />
    <glyph glyph-name="Atilde" unicode="&#xc3;" horiz-adv-x="616" 
d="M134 0h-124l227 700h142l227 -700h-124l-45 149h-259zM406 253l-98 332l-99 -332h197zM372 775q-26 0 -45.5 11t-32.5 22t-22 11q-24 0 -24 -36h-98q0 124 95 124q26 0 45.5 -11t32.5 -22t22 -11q24 0 24 36h98q0 -124 -95 -124z" />
    <glyph glyph-name="Adieresis" unicode="&#xc4;" horiz-adv-x="616" 
d="M134 0h-124l227 700h142l227 -700h-124l-45 149h-259zM406 253l-98 332l-99 -332h197zM275 902v-122h-118v122h118zM459 902v-122h-118v122h118z" />
    <glyph glyph-name="Aring" unicode="&#xc5;" horiz-adv-x="616" 
d="M134 0h-124l227 700h142l227 -700h-124l-45 149h-259zM406 253l-98 332l-99 -332h197zM416 843q0 -49 -30 -76.5t-78 -27.5t-78 27.5t-30 76.5t30 76.5t78 27.5t78 -27.5t30 -76.5zM344 843q0 19 -9.5 29.5t-26.5 10.5q-36 0 -36 -40t36 -40q17 0 26.5 10.5t9.5 29.5z
" />
    <glyph glyph-name="AE" unicode="&#xc6;" horiz-adv-x="881" 
d="M410 0v149h-220l-73 -149h-132l354 700h492v-104h-301v-185h265v-104h-265v-203h306v-104h-426zM241 253h169v341z" />
    <glyph glyph-name="Ccedilla" unicode="&#xc7;" horiz-adv-x="638" 
d="M50 350q0 176 61 263q70 99 214 99q121 0 192 -68t76 -178h-120q-2 66 -41 104t-107 38q-78 0 -116 -56q-39 -58 -39 -202t39 -202q38 -56 116 -56q68 0 107 38t41 104h120q-5 -98 -61.5 -163t-153.5 -79l-18 -37q45 -4 69.5 -28.5t24.5 -62.5q0 -47 -34 -74.5t-91 -27.5
q-65 0 -113 36l33 63q31 -24 72 -24q45 0 45 30q0 32 -53 32q-24 0 -39 -5l-17 22l35 74q-120 10 -181 97t-61 263z" />
    <glyph glyph-name="Egrave" unicode="&#xc8;" horiz-adv-x="541" 
d="M70 0v700h421v-104h-301v-185h265v-104h-265v-203h306v-104h-426zM263 763l-125 161h129l95 -161h-99z" />
    <glyph glyph-name="Eacute" unicode="&#xc9;" horiz-adv-x="541" 
d="M70 0v700h421v-104h-301v-185h265v-104h-265v-203h306v-104h-426zM417 924l-125 -161h-99l95 161h129z" />
    <glyph glyph-name="Ecircumflex" unicode="&#xca;" horiz-adv-x="541" 
d="M70 0v700h421v-104h-301v-185h265v-104h-265v-203h306v-104h-426zM329 924l116 -161h-99l-66 80l-66 -80h-99l116 161h98z" />
    <glyph glyph-name="Edieresis" unicode="&#xcb;" horiz-adv-x="541" 
d="M70 0v700h421v-104h-301v-185h265v-104h-265v-203h306v-104h-426zM247 902v-122h-118v122h118zM431 902v-122h-118v122h118z" />
    <glyph glyph-name="Igrave" unicode="&#xcc;" horiz-adv-x="260" 
d="M190 700v-700h-120v700h120zM103 763l-125 161h129l95 -161h-99z" />
    <glyph glyph-name="Iacute" unicode="&#xcd;" horiz-adv-x="260" 
d="M190 700v-700h-120v700h120zM282 924l-125 -161h-99l95 161h129z" />
    <glyph glyph-name="Icircumflex" unicode="&#xce;" horiz-adv-x="260" 
d="M190 700v-700h-120v700h120zM179 924l116 -161h-99l-66 80l-66 -80h-99l116 161h98z" />
    <glyph glyph-name="Idieresis" unicode="&#xcf;" horiz-adv-x="260" 
d="M190 700v-700h-120v700h120zM97 902v-122h-118v122h118zM281 902v-122h-118v122h118z" />
    <glyph glyph-name="Eth" unicode="&#xd0;" horiz-adv-x="644" 
d="M10 393h60v307h255q147 0 210 -90q35 -50 47 -113t12 -147t-12 -147t-47 -113q-63 -90 -210 -90h-255v307h-60v86zM474 350q0 140 -42 198q-34 48 -119 48h-123v-203h115v-86h-115v-203h123q85 0 119 48q42 58 42 198z" />
    <glyph glyph-name="Ntilde" unicode="&#xd1;" horiz-adv-x="642" 
d="M449 0l-261 491v-491h-118v700h123l261 -491v491h118v-700h-123zM385 775q-26 0 -45.5 11t-32.5 22t-22 11q-24 0 -24 -36h-98q0 124 95 124q26 0 45.5 -11t32.5 -22t22 -11q24 0 24 36h98q0 -124 -95 -124z" />
    <glyph glyph-name="Ograve" unicode="&#xd2;" horiz-adv-x="650" 
d="M480 350q0 144 -39 202q-38 56 -116 56t-116 -56q-39 -58 -39 -202t39 -202q38 -56 116 -56t116 56q39 58 39 202zM50 350q0 176 61 263q70 99 214 99t214 -99q61 -87 61 -263t-61 -263q-70 -99 -214 -99t-214 99q-61 87 -61 263zM308 763l-125 161h129l95 -161h-99z" />
    <glyph glyph-name="Oacute" unicode="&#xd3;" horiz-adv-x="650" 
d="M480 350q0 144 -39 202q-38 56 -116 56t-116 -56q-39 -58 -39 -202t39 -202q38 -56 116 -56t116 56q39 58 39 202zM50 350q0 176 61 263q70 99 214 99t214 -99q61 -87 61 -263t-61 -263q-70 -99 -214 -99t-214 99q-61 87 -61 263zM467 924l-125 -161h-99l95 161h129z" />
    <glyph glyph-name="Ocircumflex" unicode="&#xd4;" horiz-adv-x="650" 
d="M480 350q0 144 -39 202q-38 56 -116 56t-116 -56q-39 -58 -39 -202t39 -202q38 -56 116 -56t116 56q39 58 39 202zM50 350q0 176 61 263q70 99 214 99t214 -99q61 -87 61 -263t-61 -263q-70 -99 -214 -99t-214 99q-61 87 -61 263zM374 924l116 -161h-99l-66 80l-66 -80
h-99l116 161h98z" />
    <glyph glyph-name="Otilde" unicode="&#xd5;" horiz-adv-x="650" 
d="M480 350q0 144 -39 202q-38 56 -116 56t-116 -56q-39 -58 -39 -202t39 -202q38 -56 116 -56t116 56q39 58 39 202zM50 350q0 176 61 263q70 99 214 99t214 -99q61 -87 61 -263t-61 -263q-70 -99 -214 -99t-214 99q-61 87 -61 263zM389 775q-26 0 -45.5 11t-32.5 22
t-22 11q-24 0 -24 -36h-98q0 124 95 124q26 0 46 -11t32.5 -22t21.5 -11q24 0 24 36h98q0 -124 -95 -124z" />
    <glyph glyph-name="Odieresis" unicode="&#xd6;" horiz-adv-x="650" 
d="M480 350q0 144 -39 202q-38 56 -116 56t-116 -56q-39 -58 -39 -202t39 -202q38 -56 116 -56t116 56q39 58 39 202zM50 350q0 176 61 263q70 99 214 99t214 -99q61 -87 61 -263t-61 -263q-70 -99 -214 -99t-214 99q-61 87 -61 263zM292 902v-122h-118v122h118zM476 902
v-122h-118v122h118z" />
    <glyph glyph-name="multiply" unicode="&#xd7;" horiz-adv-x="540" 
d="M403 121l-133 137l-133 -137l-69 67l135 138l-135 139l69 67l133 -137l133 137l69 -67l-135 -139l135 -138z" />
    <glyph glyph-name="Oslash" unicode="&#xd8;" horiz-adv-x="650" 
d="M496 732h87l-57 -102q2 -3 6.5 -8.5t6.5 -8.5q61 -87 61 -263t-61 -263q-70 -99 -214 -99q-83 0 -141 33l-30 -53h-87l57 102q-5 5 -13 17q-61 87 -61 263t61 263q70 99 214 99q81 0 141 -33zM480 350q0 111 -20 164l-222 -397q34 -25 87 -25q78 0 116 56q39 58 39 202z
M325 608q-78 0 -116 -56q-39 -58 -39 -202q0 -110 19 -164l223 396q-35 26 -87 26z" />
    <glyph glyph-name="Ugrave" unicode="&#xd9;" horiz-adv-x="652" 
d="M326 92q141 0 141 183v425h120v-442q0 -124 -67 -197t-194 -73t-194 73t-67 197v442h120v-425q0 -183 141 -183zM309 763l-125 161h129l95 -161h-99z" />
    <glyph glyph-name="Uacute" unicode="&#xda;" horiz-adv-x="652" 
d="M326 92q141 0 141 183v425h120v-442q0 -124 -67 -197t-194 -73t-194 73t-67 197v442h120v-425q0 -183 141 -183zM468 924l-125 -161h-99l95 161h129z" />
    <glyph glyph-name="Ucircumflex" unicode="&#xdb;" horiz-adv-x="652" 
d="M326 92q141 0 141 183v425h120v-442q0 -124 -67 -197t-194 -73t-194 73t-67 197v442h120v-425q0 -183 141 -183zM375 924l116 -161h-99l-66 80l-66 -80h-99l116 161h98z" />
    <glyph glyph-name="Udieresis" unicode="&#xdc;" horiz-adv-x="652" 
d="M326 92q141 0 141 183v425h120v-442q0 -124 -67 -197t-194 -73t-194 73t-67 197v442h120v-425q0 -183 141 -183zM293 902v-122h-118v122h118zM477 902v-122h-118v122h118z" />
    <glyph glyph-name="Yacute" unicode="&#xdd;" horiz-adv-x="606" 
d="M303 382l162 318h126l-228 -424v-276h-120v276l-228 424h126zM450 924l-125 -161h-99l95 161h129z" />
    <glyph glyph-name="Thorn" unicode="&#xde;" horiz-adv-x="599" 
d="M190 129v-129h-120v700h120v-129h158q104 0 163 -58t59 -163q0 -106 -59 -163.5t-163 -57.5h-158zM190 233h141q59 0 89 30.5t30 86.5q0 117 -119 117h-141v-234z" />
    <glyph glyph-name="germandbls" unicode="&#xdf;" horiz-adv-x="588" 
d="M555 175q0 -89 -58.5 -138t-160.5 -49q-49 0 -91 10v104q38 -10 82 -10q52 0 80 23.5t28 65.5q0 57 -41 89.5t-109 32.5h-18v100h27q53 0 79.5 27.5t26.5 74.5q0 44 -29.5 73.5t-80.5 29.5q-53 0 -81.5 -29.5t-28.5 -84.5v-494h-120v494q0 97 58.5 157.5t171.5 60.5
q111 0 170.5 -60t59.5 -144q0 -56 -32 -98.5t-86 -56.5q67 -11 110 -55.5t43 -122.5z" />
    <glyph glyph-name="agrave" unicode="&#xe0;" horiz-adv-x="532" 
d="M360 56q-11 -30 -47 -49t-89 -19q-86 0 -136 41.5t-50 117.5t50 117.5t136 41.5q49 0 86.5 -17.5t49.5 -49.5v82q0 97 -96 97q-84 0 -93 -67h-115q5 75 58.5 118t149.5 43q104 0 157 -50.5t53 -139.5v-253q0 -40 12 -69h-117q-7 17 -9 56zM256 75q104 0 104 72t-104 72
t-104 -72t104 -72zM259 564l-125 161h129l95 -161h-99z" />
    <glyph glyph-name="aacute" unicode="&#xe1;" horiz-adv-x="532" 
d="M360 56q-11 -30 -47 -49t-89 -19q-86 0 -136 41.5t-50 117.5t50 117.5t136 41.5q49 0 86.5 -17.5t49.5 -49.5v82q0 97 -96 97q-84 0 -93 -67h-115q5 75 58.5 118t149.5 43q104 0 157 -50.5t53 -139.5v-253q0 -40 12 -69h-117q-7 17 -9 56zM256 75q104 0 104 72t-104 72
t-104 -72t104 -72zM398 725l-125 -161h-99l95 161h129z" />
    <glyph glyph-name="acircumflex" unicode="&#xe2;" horiz-adv-x="532" 
d="M360 56q-11 -30 -47 -49t-89 -19q-86 0 -136 41.5t-50 117.5t50 117.5t136 41.5q49 0 86.5 -17.5t49.5 -49.5v82q0 97 -96 97q-84 0 -93 -67h-115q5 75 58.5 118t149.5 43q104 0 157 -50.5t53 -139.5v-253q0 -40 12 -69h-117q-7 17 -9 56zM256 75q104 0 104 72t-104 72
t-104 -72t104 -72zM317 725l116 -161h-99l-66 80l-66 -80h-99l116 161h98z" />
    <glyph glyph-name="atilde" unicode="&#xe3;" horiz-adv-x="532" 
d="M360 56q-11 -30 -47 -49t-89 -19q-86 0 -136 41.5t-50 117.5t50 117.5t136 41.5q49 0 86.5 -17.5t49.5 -49.5v82q0 97 -96 97q-84 0 -93 -67h-115q5 75 58.5 118t149.5 43q104 0 157 -50.5t53 -139.5v-253q0 -40 12 -69h-117q-7 17 -9 56zM256 75q104 0 104 72t-104 72
t-104 -72t104 -72zM332 576q-26 0 -46 11t-32.5 22t-21.5 11q-24 0 -24 -36h-98q0 124 95 124q26 0 45.5 -11t32.5 -22t22 -11q24 0 24 36h98q0 -124 -95 -124z" />
    <glyph glyph-name="adieresis" unicode="&#xe4;" horiz-adv-x="532" 
d="M360 56q-11 -30 -47 -49t-89 -19q-86 0 -136 41.5t-50 117.5t50 117.5t136 41.5q49 0 86.5 -17.5t49.5 -49.5v82q0 97 -96 97q-84 0 -93 -67h-115q5 75 58.5 118t149.5 43q104 0 157 -50.5t53 -139.5v-253q0 -40 12 -69h-117q-7 17 -9 56zM256 75q104 0 104 72t-104 72
t-104 -72t104 -72zM235 703v-122h-118v122h118zM419 703v-122h-118v122h118z" />
    <glyph glyph-name="aring" unicode="&#xe5;" horiz-adv-x="532" 
d="M360 56q-11 -30 -47 -49t-89 -19q-86 0 -136 41.5t-50 117.5t50 117.5t136 41.5q49 0 86.5 -17.5t49.5 -49.5v82q0 97 -96 97q-84 0 -93 -67h-115q5 75 58.5 118t149.5 43q104 0 157 -50.5t53 -139.5v-253q0 -40 12 -69h-117q-7 17 -9 56zM256 75q104 0 104 72t-104 72
t-104 -72t104 -72zM376 644q0 -49 -30 -76.5t-78 -27.5t-78 27.5t-30 76.5t30 76.5t78 27.5t78 -27.5t30 -76.5zM304 644q0 19 -9.5 29.5t-26.5 10.5q-36 0 -36 -40t36 -40q17 0 26.5 10.5t9.5 29.5z" />
    <glyph glyph-name="ae" unicode="&#xe6;" horiz-adv-x="850" 
d="M417 66q-20 -36 -67.5 -57t-110.5 -21q-97 0 -149 41t-52 118q0 76 50 117.5t136 41.5q49 0 86.5 -17.5t49.5 -49.5v82q0 97 -96 97q-84 0 -93 -67h-115q5 75 58.5 118t149.5 43q114 0 163 -78q51 78 157 78q111 0 167.5 -67.5t56.5 -194.5v-35h-333q6 -133 109 -133
q40 0 66 18.5t32 51.5h116q-14 -79 -69 -121.5t-145 -42.5q-115 0 -167 78zM476 299h216q-10 119 -108 119t-108 -119zM256 75q104 0 104 72t-104 72t-104 -72t104 -72z" />
    <glyph glyph-name="ccedilla" unicode="&#xe7;" horiz-adv-x="520" 
d="M42 250q0 127 56.5 194.5t167.5 67.5q95 0 151.5 -46t65.5 -131h-115q-4 39 -30.5 61t-71.5 22q-60 0 -85 -43t-25 -125t25 -125t85 -43q45 0 71.5 22t30.5 61h115q-8 -73 -50.5 -117.5t-114.5 -55.5l-18 -37q45 -4 69.5 -28.5t24.5 -62.5q0 -47 -34 -74.5t-91 -27.5
q-65 0 -113 36l33 63q31 -24 72 -24q45 0 45 30q0 32 -53 32q-24 0 -39 -5l-17 22l35 74q-94 10 -142 76.5t-48 183.5z" />
    <glyph glyph-name="egrave" unicode="&#xe8;" horiz-adv-x="532" 
d="M490 215h-333q6 -133 109 -133q40 0 66 18.5t32 51.5h116q-14 -79 -69 -121.5t-145 -42.5q-111 0 -167.5 67.5t-56.5 194.5t56.5 194.5t167.5 67.5t167.5 -67.5t56.5 -194.5v-35zM158 299h216q-10 119 -108 119t-108 -119zM254 564l-125 161h129l95 -161h-99z" />
    <glyph glyph-name="eacute" unicode="&#xe9;" horiz-adv-x="532" 
d="M490 215h-333q6 -133 109 -133q40 0 66 18.5t32 51.5h116q-14 -79 -69 -121.5t-145 -42.5q-111 0 -167.5 67.5t-56.5 194.5t56.5 194.5t167.5 67.5t167.5 -67.5t56.5 -194.5v-35zM158 299h216q-10 119 -108 119t-108 -119zM403 725l-125 -161h-99l95 161h129z" />
    <glyph glyph-name="ecircumflex" unicode="&#xea;" horiz-adv-x="532" 
d="M490 215h-333q6 -133 109 -133q40 0 66 18.5t32 51.5h116q-14 -79 -69 -121.5t-145 -42.5q-111 0 -167.5 67.5t-56.5 194.5t56.5 194.5t167.5 67.5t167.5 -67.5t56.5 -194.5v-35zM158 299h216q-10 119 -108 119t-108 -119zM315 725l116 -161h-99l-66 80l-66 -80h-99
l116 161h98z" />
    <glyph glyph-name="edieresis" unicode="&#xeb;" horiz-adv-x="532" 
d="M490 215h-333q6 -133 109 -133q40 0 66 18.5t32 51.5h116q-14 -79 -69 -121.5t-145 -42.5q-111 0 -167.5 67.5t-56.5 194.5t56.5 194.5t167.5 67.5t167.5 -67.5t56.5 -194.5v-35zM158 299h216q-10 119 -108 119t-108 -119zM233 703v-122h-118v122h118zM417 703v-122h-118
v122h118z" />
    <glyph glyph-name="igrave" unicode="&#xec;" horiz-adv-x="244" 
d="M65 0v500h114v-500h-114zM95 564l-125 161h129l95 -161h-99z" />
    <glyph glyph-name="iacute" unicode="&#xed;" horiz-adv-x="244" 
d="M65 0v500h114v-500h-114zM274 725l-125 -161h-99l95 161h129z" />
    <glyph glyph-name="icircumflex" unicode="&#xee;" horiz-adv-x="244" 
d="M65 0v500h114v-500h-114zM171 725l116 -161h-99l-66 80l-66 -80h-99l116 161h98z" />
    <glyph glyph-name="idieresis" unicode="&#xef;" horiz-adv-x="244" 
d="M65 0v500h114v-500h-114zM89 703v-122h-118v122h118zM273 703v-122h-118v122h118z" />
    <glyph glyph-name="eth" unicode="&#xf0;" horiz-adv-x="532" 
d="M421 677l-69 -41q138 -133 138 -386q0 -262 -224 -262t-224 262q0 134 54 198t145 64q71 0 101 -41q-22 63 -76 113l-86 -51l-29 47l67 40q-25 18 -67 35l62 69q53 -22 94 -51l85 51zM266 82q60 0 85 43t25 125t-25 125t-85 43t-85 -43t-25 -125t25 -125t85 -43z" />
    <glyph glyph-name="ntilde" unicode="&#xf1;" horiz-adv-x="546" 
d="M488 315v-315h-114v313q0 105 -84 105q-52 0 -84 -36.5t-32 -102.5v-279h-114v500h114v-86q15 45 52 71.5t91 26.5q82 0 126.5 -51t44.5 -146zM337 576q-26 0 -45.5 11t-32.5 22t-22 11q-24 0 -24 -36h-98q0 124 95 124q26 0 46 -11t32.5 -22t21.5 -11q24 0 24 36h98
q0 -124 -95 -124z" />
    <glyph glyph-name="ograve" unicode="&#xf2;" horiz-adv-x="532" 
d="M266 82q60 0 85 43t25 125t-25 125t-85 43t-85 -43t-25 -125t25 -125t85 -43zM266 512q111 0 167.5 -67.5t56.5 -194.5t-56.5 -194.5t-167.5 -67.5t-167.5 67.5t-56.5 194.5t56.5 194.5t167.5 67.5zM254 564l-125 161h129l95 -161h-99z" />
    <glyph glyph-name="oacute" unicode="&#xf3;" horiz-adv-x="532" 
d="M266 82q60 0 85 43t25 125t-25 125t-85 43t-85 -43t-25 -125t25 -125t85 -43zM266 512q111 0 167.5 -67.5t56.5 -194.5t-56.5 -194.5t-167.5 -67.5t-167.5 67.5t-56.5 194.5t56.5 194.5t167.5 67.5zM403 725l-125 -161h-99l95 161h129z" />
    <glyph glyph-name="ocircumflex" unicode="&#xf4;" horiz-adv-x="532" 
d="M266 82q60 0 85 43t25 125t-25 125t-85 43t-85 -43t-25 -125t25 -125t85 -43zM266 512q111 0 167.5 -67.5t56.5 -194.5t-56.5 -194.5t-167.5 -67.5t-167.5 67.5t-56.5 194.5t56.5 194.5t167.5 67.5zM315 725l116 -161h-99l-66 80l-66 -80h-99l116 161h98z" />
    <glyph glyph-name="otilde" unicode="&#xf5;" horiz-adv-x="532" 
d="M266 82q60 0 85 43t25 125t-25 125t-85 43t-85 -43t-25 -125t25 -125t85 -43zM266 512q111 0 167.5 -67.5t56.5 -194.5t-56.5 -194.5t-167.5 -67.5t-167.5 67.5t-56.5 194.5t56.5 194.5t167.5 67.5zM330 576q-26 0 -46 11t-32.5 22t-21.5 11q-24 0 -24 -36h-98
q0 124 95 124q26 0 45.5 -11t32.5 -22t22 -11q24 0 24 36h98q0 -124 -95 -124z" />
    <glyph glyph-name="odieresis" unicode="&#xf6;" horiz-adv-x="532" 
d="M266 82q60 0 85 43t25 125t-25 125t-85 43t-85 -43t-25 -125t25 -125t85 -43zM266 512q111 0 167.5 -67.5t56.5 -194.5t-56.5 -194.5t-167.5 -67.5t-167.5 67.5t-56.5 194.5t56.5 194.5t167.5 67.5zM233 703v-122h-118v122h118zM417 703v-122h-118v122h118z" />
    <glyph glyph-name="divide" unicode="&#xf7;" horiz-adv-x="540" 
d="M50 279v94h440v-94h-440zM329 552v-118h-118v118h118zM211 100v118h118v-118h-118z" />
    <glyph glyph-name="oslash" unicode="&#xf8;" horiz-adv-x="532" 
d="M266 512q54 0 96 -17l24 43h76l-43 -79q71 -66 71 -209q0 -127 -56.5 -194.5t-167.5 -67.5q-54 0 -97 17l-23 -43h-76l43 78q-71 65 -71 210q0 127 56.5 194.5t167.5 67.5zM156 250q0 -66 14 -105l145 263q-20 10 -49 10q-60 0 -85 -43t-25 -125zM266 82q60 0 85 43
t25 125q0 67 -15 104l-144 -263q19 -9 49 -9z" />
    <glyph glyph-name="ugrave" unicode="&#xf9;" horiz-adv-x="546" 
d="M58 185v315h114v-313q0 -105 84 -105q52 0 84 36.5t32 102.5v279h114v-500h-114v86q-15 -45 -52 -71.5t-91 -26.5q-82 0 -126.5 51t-44.5 146zM256 564l-125 161h129l95 -161h-99z" />
    <glyph glyph-name="uacute" unicode="&#xfa;" horiz-adv-x="546" 
d="M58 185v315h114v-313q0 -105 84 -105q52 0 84 36.5t32 102.5v279h114v-500h-114v86q-15 -45 -52 -71.5t-91 -26.5q-82 0 -126.5 51t-44.5 146zM415 725l-125 -161h-99l95 161h129z" />
    <glyph glyph-name="ucircumflex" unicode="&#xfb;" horiz-adv-x="546" 
d="M58 185v315h114v-313q0 -105 84 -105q52 0 84 36.5t32 102.5v279h114v-500h-114v86q-15 -45 -52 -71.5t-91 -26.5q-82 0 -126.5 51t-44.5 146zM321 725l116 -161h-99l-66 80l-66 -80h-99l116 161h98z" />
    <glyph glyph-name="udieresis" unicode="&#xfc;" horiz-adv-x="546" 
d="M58 185v315h114v-313q0 -105 84 -105q52 0 84 36.5t32 102.5v279h114v-500h-114v86q-15 -45 -52 -71.5t-91 -26.5q-82 0 -126.5 51t-44.5 146zM239 703v-122h-118v122h118zM423 703v-122h-118v122h118z" />
    <glyph glyph-name="yacute" unicode="&#xfd;" horiz-adv-x="519" 
d="M181 -70l24 68l-190 502h119l128 -360l123 360h119l-219 -605q-24 -66 -61 -89.5t-100 -23.5q-34 0 -47 2v92h37q48 0 67 54zM401 725l-125 -161h-99l95 161h129z" />
    <glyph glyph-name="thorn" unicode="&#xfe;" horiz-adv-x="550" 
d="M174 77v-295h-114v918h114v-277q14 41 50.5 65t87.5 24q93 0 144.5 -64.5t51.5 -197.5t-51.5 -197.5t-144.5 -64.5q-51 0 -87.5 24t-50.5 65zM174 250q0 -83 24.5 -125.5t85.5 -42.5t85.5 42.5t24.5 125.5t-24.5 125.5t-85.5 42.5t-85.5 -42.5t-24.5 -125.5z" />
    <glyph glyph-name="ydieresis" unicode="&#xff;" horiz-adv-x="519" 
d="M181 -70l24 68l-190 502h119l128 -360l123 360h119l-219 -605q-24 -66 -61 -89.5t-100 -23.5q-34 0 -47 2v92h37q48 0 67 54zM229 703v-122h-118v122h118zM413 703v-122h-118v122h118z" />
    <glyph glyph-name="Amacron" unicode="&#x100;" horiz-adv-x="616" 
d="M134 0h-124l227 700h142l227 -700h-124l-45 149h-259zM406 253l-98 332l-99 -332h197zM167 797v92h282v-92h-282z" />
    <glyph glyph-name="amacron" unicode="&#x101;" horiz-adv-x="532" 
d="M360 56q-11 -30 -47 -49t-89 -19q-86 0 -136 41.5t-50 117.5t50 117.5t136 41.5q49 0 86.5 -17.5t49.5 -49.5v82q0 97 -96 97q-84 0 -93 -67h-115q5 75 58.5 118t149.5 43q104 0 157 -50.5t53 -139.5v-253q0 -40 12 -69h-117q-7 17 -9 56zM256 75q104 0 104 72t-104 72
t-104 -72t104 -72zM127 598v92h282v-92h-282z" />
    <glyph glyph-name="Abreve" unicode="&#x102;" horiz-adv-x="616" 
d="M134 0h-124l227 700h142l227 -700h-124l-45 149h-259zM406 253l-98 332l-99 -332h197zM308 765q-67 0 -110 39.5t-47 108.5h98q3 -64 59 -64t59 64h98q-4 -69 -47 -108.5t-110 -39.5z" />
    <glyph glyph-name="abreve" unicode="&#x103;" horiz-adv-x="532" 
d="M360 56q-11 -30 -47 -49t-89 -19q-86 0 -136 41.5t-50 117.5t50 117.5t136 41.5q49 0 86.5 -17.5t49.5 -49.5v82q0 97 -96 97q-84 0 -93 -67h-115q5 75 58.5 118t149.5 43q104 0 157 -50.5t53 -139.5v-253q0 -40 12 -69h-117q-7 17 -9 56zM256 75q104 0 104 72t-104 72
t-104 -72t104 -72zM268 568q-67 0 -110 39.5t-47 108.5h98q3 -64 59 -64t59 64h98q-4 -69 -47 -108.5t-110 -39.5z" />
    <glyph glyph-name="Aogonek" unicode="&#x104;" horiz-adv-x="616" 
d="M482 0l-45 149h-259l-44 -149h-124l227 700h142l227 -700h-36q-75 -45 -75 -95v-5q0 -17 13 -29t37 -12q38 0 61 22l39 -59q-38 -41 -108 -41q-60 0 -94 26.5t-34 74.5v8q0 32 19.5 62t53.5 48zM406 253l-98 332l-99 -332h197z" />
    <glyph glyph-name="aogonek" unicode="&#x105;" horiz-adv-x="532" 
d="M360 56q-11 -30 -47 -49t-89 -19q-86 0 -136 41.5t-50 117.5t50 117.5t136 41.5q49 0 86.5 -17.5t49.5 -49.5v82q0 97 -96 97q-84 0 -93 -67h-115q5 75 58.5 118t149.5 43q104 0 157 -50.5t53 -139.5v-253q0 -40 12 -69h-29q-75 -45 -75 -95v-5q0 -17 13 -29t37 -12
q38 0 61 22l39 -59q-38 -41 -108 -41q-60 0 -94 26.5t-34 74.5v8q0 32 20 63.5t53 46.5q-7 17 -9 56zM256 75q104 0 104 72t-104 72t-104 -72t104 -72z" />
    <glyph glyph-name="Cacute" unicode="&#x106;" horiz-adv-x="638" 
d="M50 350q0 -176 61 -263q70 -99 214 -99q121 0 192 68t76 178h-120q-2 -66 -41 -104t-107 -38q-78 0 -116 56q-39 58 -39 202t39 202q38 56 116 56q68 0 107 -38t41 -104h120q-5 110 -76 178t-192 68q-144 0 -214 -99q-61 -87 -61 -263zM451 924l-125 -161h-99l95 161h129
z" />
    <glyph glyph-name="cacute" unicode="&#x107;" horiz-adv-x="520" 
d="M42 250q0 -127 56.5 -194.5t167.5 -67.5q95 0 151.5 46t65.5 131h-115q-4 -39 -30.5 -61t-71.5 -22q-60 0 -85 43t-25 125t25 125t85 43q45 0 71.5 -22t30.5 -61h115q-9 85 -65.5 131t-151.5 46q-111 0 -167.5 -67.5t-56.5 -194.5zM395 725l-125 -161h-99l95 161h129z
" />
    <glyph glyph-name="Ccircumflex" unicode="&#x108;" horiz-adv-x="638" 
d="M50 350q0 -176 61 -263q70 -99 214 -99q121 0 192 68t76 178h-120q-2 -66 -41 -104t-107 -38q-78 0 -116 56q-39 58 -39 202t39 202q38 56 116 56q68 0 107 -38t41 -104h120q-5 110 -76 178t-192 68q-144 0 -214 -99q-61 -87 -61 -263zM370 924l116 -161h-99l-66 80
l-66 -80h-99l116 161h98z" />
    <glyph glyph-name="ccircumflex" unicode="&#x109;" horiz-adv-x="520" 
d="M42 250q0 -127 56.5 -194.5t167.5 -67.5q95 0 151.5 46t65.5 131h-115q-4 -39 -30.5 -61t-71.5 -22q-60 0 -85 43t-25 125t25 125t85 43q45 0 71.5 -22t30.5 -61h115q-9 85 -65.5 131t-151.5 46q-111 0 -167.5 -67.5t-56.5 -194.5zM310 725l116 -161h-99l-66 80l-66 -80
h-99l116 161h98z" />
    <glyph glyph-name="Cdotaccent" unicode="&#x10a;" horiz-adv-x="638" 
d="M50 350q0 -176 61 -263q70 -99 214 -99q121 0 192 68t76 178h-120q-2 -66 -41 -104t-107 -38q-78 0 -116 56q-39 58 -39 202t39 202q38 56 116 56q68 0 107 -38t41 -104h120q-5 110 -76 178t-192 68q-144 0 -214 -99q-61 -87 -61 -263zM380 902v-122h-118v122h118z" />
    <glyph glyph-name="cdotaccent" unicode="&#x10b;" horiz-adv-x="520" 
d="M42 250q0 -127 56.5 -194.5t167.5 -67.5q95 0 151.5 46t65.5 131h-115q-4 -39 -30.5 -61t-71.5 -22q-60 0 -85 43t-25 125t25 125t85 43q45 0 71.5 -22t30.5 -61h115q-9 85 -65.5 131t-151.5 46q-111 0 -167.5 -67.5t-56.5 -194.5zM320 703v-122h-118v122h118z" />
    <glyph glyph-name="Ccaron" unicode="&#x10c;" horiz-adv-x="638" 
d="M50 350q0 -176 61 -263q70 -99 214 -99q121 0 192 68t76 178h-120q-2 -66 -41 -104t-107 -38q-78 0 -116 56q-39 58 -39 202t39 202q38 56 116 56q68 0 107 -38t41 -104h120q-5 110 -76 178t-192 68q-144 0 -214 -99q-61 -87 -61 -263zM486 924l-116 -161h-98l-116 161
h99l66 -80l66 80h99z" />
    <glyph glyph-name="ccaron" unicode="&#x10d;" horiz-adv-x="520" 
d="M42 250q0 -127 56.5 -194.5t167.5 -67.5q95 0 151.5 46t65.5 131h-115q-4 -39 -30.5 -61t-71.5 -22q-60 0 -85 43t-25 125t25 125t85 43q45 0 71.5 -22t30.5 -61h115q-9 85 -65.5 131t-151.5 46q-111 0 -167.5 -67.5t-56.5 -194.5zM426 725l-116 -161h-98l-116 161h99
l66 -80l66 80h99z" />
    <glyph glyph-name="Dcaron" unicode="&#x10e;" horiz-adv-x="644" 
d="M474 350q0 140 -42 198q-34 48 -119 48h-123v-492h123q85 0 119 48q42 58 42 198zM594 350q0 -84 -12 -147t-47 -113q-63 -90 -210 -90h-255v700h255q147 0 210 -90q35 -50 47 -113t12 -147zM454 924l-116 -161h-98l-116 161h99l66 -80l66 80h99z" />
    <glyph glyph-name="dcaron" unicode="&#x10f;" horiz-adv-x="648" 
d="M376 0v77q-14 -41 -50.5 -65t-87.5 -24q-93 0 -144.5 64.5t-51.5 197.5t51.5 197.5t144.5 64.5q51 0 87.5 -24t50.5 -65v277h114v-700h-114zM266 82q60 0 85 43t25 125t-25 125t-85 43t-85 -43t-25 -125t25 -125t85 -43zM648 700v-116q0 -102 -118 -114v49q31 5 44.5 20
t13.5 45h-58v116h118z" />
    <glyph glyph-name="Dcroat" unicode="&#x110;" horiz-adv-x="644" 
d="M10 393h60v307h255q147 0 210 -90q35 -50 47 -113t12 -147t-12 -147t-47 -113q-63 -90 -210 -90h-255v307h-60v86zM474 350q0 140 -42 198q-34 48 -119 48h-123v-203h115v-86h-115v-203h123q85 0 119 48q42 58 42 198z" />
    <glyph glyph-name="dcroat" unicode="&#x111;" horiz-adv-x="550" 
d="M250 567v74h126v59h114v-59h55v-74h-55v-567h-114v77q-14 -41 -50.5 -65t-87.5 -24q-93 0 -144.5 64.5t-51.5 197.5t51.5 197.5t144.5 64.5q51 0 87.5 -24t50.5 -65v144h-126zM266 82q60 0 85 43t25 125t-25 125t-85 43t-85 -43t-25 -125t25 -125t85 -43z" />
    <glyph glyph-name="Emacron" unicode="&#x112;" horiz-adv-x="541" 
d="M70 0v700h421v-104h-301v-185h265v-104h-265v-203h306v-104h-426zM139 797v92h282v-92h-282z" />
    <glyph glyph-name="emacron" unicode="&#x113;" horiz-adv-x="532" 
d="M490 215h-333q6 -133 109 -133q40 0 66 18.5t32 51.5h116q-14 -79 -69 -121.5t-145 -42.5q-111 0 -167.5 67.5t-56.5 194.5t56.5 194.5t167.5 67.5t167.5 -67.5t56.5 -194.5v-35zM158 299h216q-10 119 -108 119t-108 -119zM125 598v92h282v-92h-282z" />
    <glyph glyph-name="Ebreve" unicode="&#x114;" horiz-adv-x="541" 
d="M70 0v700h421v-104h-301v-185h265v-104h-265v-203h306v-104h-426zM280 765q-67 0 -110 39.5t-47 108.5h98q3 -64 59 -64t59 64h98q-4 -69 -47 -108.5t-110 -39.5z" />
    <glyph glyph-name="ebreve" unicode="&#x115;" horiz-adv-x="532" 
d="M490 215h-333q6 -133 109 -133q40 0 66 18.5t32 51.5h116q-14 -79 -69 -121.5t-145 -42.5q-111 0 -167.5 67.5t-56.5 194.5t56.5 194.5t167.5 67.5t167.5 -67.5t56.5 -194.5v-35zM158 299h216q-10 119 -108 119t-108 -119zM266 568q-67 0 -110 39.5t-47 108.5h98
q3 -64 59 -64t59 64h98q-4 -69 -47 -108.5t-110 -39.5z" />
    <glyph glyph-name="Edotaccent" unicode="&#x116;" horiz-adv-x="541" 
d="M70 0v700h421v-104h-301v-185h265v-104h-265v-203h306v-104h-426zM339 902v-122h-118v122h118z" />
    <glyph glyph-name="edotaccent" unicode="&#x117;" horiz-adv-x="532" 
d="M490 215h-333q6 -133 109 -133q40 0 66 18.5t32 51.5h116q-14 -79 -69 -121.5t-145 -42.5q-111 0 -167.5 67.5t-56.5 194.5t56.5 194.5t167.5 67.5t167.5 -67.5t56.5 -194.5v-35zM158 299h216q-10 119 -108 119t-108 -119zM325 703v-122h-118v122h118z" />
    <glyph glyph-name="Eogonek" unicode="&#x118;" horiz-adv-x="541" 
d="M496 0h-61q-75 -45 -75 -95v-5q0 -17 13 -29t37 -12q38 0 61 22l39 -59q-38 -41 -108 -41q-60 0 -94 26.5t-34 74.5v8q0 32 19.5 62t53.5 48h-277v700h421v-104h-301v-185h265v-104h-265v-203h306v-104z" />
    <glyph glyph-name="eogonek" unicode="&#x119;" horiz-adv-x="532" 
d="M490 215h-333q6 -133 109 -133q40 0 66 18.5t32 51.5h116q-21 -126 -144 -156q-68 -44 -68 -91v-5q0 -17 13 -29t37 -12q38 0 61 22l39 -59q-38 -41 -108 -41q-59 0 -93.5 26.5t-34.5 70.5v8q0 26 15 54.5t42 48.5q-197 17 -197 261q0 127 56.5 194.5t167.5 67.5
t167.5 -67.5t56.5 -194.5v-35zM158 299h216q-10 119 -108 119t-108 -119z" />
    <glyph glyph-name="Ecaron" unicode="&#x11a;" horiz-adv-x="541" 
d="M70 0v700h421v-104h-301v-185h265v-104h-265v-203h306v-104h-426zM445 924l-116 -161h-98l-116 161h99l66 -80l66 80h99z" />
    <glyph glyph-name="ecaron" unicode="&#x11b;" horiz-adv-x="532" 
d="M490 215h-333q6 -133 109 -133q40 0 66 18.5t32 51.5h116q-14 -79 -69 -121.5t-145 -42.5q-111 0 -167.5 67.5t-56.5 194.5t56.5 194.5t167.5 67.5t167.5 -67.5t56.5 -194.5v-35zM158 299h216q-10 119 -108 119t-108 -119zM431 725l-116 -161h-98l-116 161h99l66 -80
l66 80h99z" />
    <glyph glyph-name="Gcircumflex" unicode="&#x11c;" horiz-adv-x="655" 
d="M50 350q0 -176 61 -263q70 -99 206 -99q61 0 106.5 27t64.5 71l18 -86h86v368h-262v-100h144v-20q0 -62 -30 -103q-38 -53 -119 -53q-78 0 -116 56q-39 58 -39 202t39 202q38 56 116 56q68 0 107 -38t41 -104h120q-5 110 -76 178t-192 68q-144 0 -214 -99
q-61 -87 -61 -263zM375 924l116 -161h-99l-66 80l-66 -80h-99l116 161h98z" />
    <glyph glyph-name="gcircumflex" unicode="&#x11d;" horiz-adv-x="550" 
d="M376 250q0 83 -24.5 125.5t-85.5 42.5t-85.5 -42.5t-24.5 -125.5t24.5 -125.5t85.5 -42.5t85.5 42.5t24.5 125.5zM490 500v-516q0 -98 -52 -157t-163 -59q-91 0 -145 40t-65 114h116q11 -66 94 -66q53 0 77 29.5t24 88.5v103q-14 -41 -50.5 -65t-87.5 -24
q-93 0 -144.5 64.5t-51.5 197.5t51.5 197.5t144.5 64.5q51 0 87.5 -24t50.5 -65v77h114zM329 725l116 -161h-99l-66 80l-66 -80h-99l116 161h98z" />
    <glyph glyph-name="Gbreve" unicode="&#x11e;" horiz-adv-x="655" 
d="M50 350q0 -176 61 -263q70 -99 206 -99q61 0 106.5 27t64.5 71l18 -86h86v368h-262v-100h144v-20q0 -62 -30 -103q-38 -53 -119 -53q-78 0 -116 56q-39 58 -39 202t39 202q38 56 116 56q68 0 107 -38t41 -104h120q-5 110 -76 178t-192 68q-144 0 -214 -99
q-61 -87 -61 -263zM325 765q-67 0 -110 39.5t-47 108.5h98q3 -64 59 -64t59 64h98q-4 -69 -47 -108.5t-110 -39.5z" />
    <glyph glyph-name="gbreve" unicode="&#x11f;" horiz-adv-x="550" 
d="M376 250q0 83 -24.5 125.5t-85.5 42.5t-85.5 -42.5t-24.5 -125.5t24.5 -125.5t85.5 -42.5t85.5 42.5t24.5 125.5zM490 500v-516q0 -98 -52 -157t-163 -59q-91 0 -145 40t-65 114h116q11 -66 94 -66q53 0 77 29.5t24 88.5v103q-14 -41 -50.5 -65t-87.5 -24
q-93 0 -144.5 64.5t-51.5 197.5t51.5 197.5t144.5 64.5q51 0 87.5 -24t50.5 -65v77h114zM280 568q-67 0 -110 39.5t-47 108.5h98q3 -64 59 -64t59 64h98q-4 -69 -47 -108.5t-110 -39.5z" />
    <glyph glyph-name="Gdotaccent" unicode="&#x120;" horiz-adv-x="655" 
d="M50 350q0 -176 61 -263q70 -99 206 -99q61 0 106.5 27t64.5 71l18 -86h86v368h-262v-100h144v-20q0 -62 -30 -103q-38 -53 -119 -53q-78 0 -116 56q-39 58 -39 202t39 202q38 56 116 56q68 0 107 -38t41 -104h120q-5 110 -76 178t-192 68q-144 0 -214 -99
q-61 -87 -61 -263zM384 902v-122h-118v122h118z" />
    <glyph glyph-name="gdotaccent" unicode="&#x121;" horiz-adv-x="550" 
d="M376 250q0 83 -24.5 125.5t-85.5 42.5t-85.5 -42.5t-24.5 -125.5t24.5 -125.5t85.5 -42.5t85.5 42.5t24.5 125.5zM490 500v-516q0 -98 -52 -157t-163 -59q-91 0 -145 40t-65 114h116q11 -66 94 -66q53 0 77 29.5t24 88.5v103q-14 -41 -50.5 -65t-87.5 -24
q-93 0 -144.5 64.5t-51.5 197.5t51.5 197.5t144.5 64.5q51 0 87.5 -24t50.5 -65v77h114zM339 703v-122h-118v122h118z" />
    <glyph glyph-name="Gcommaaccent" unicode="&#x122;" horiz-adv-x="655" 
d="M50 350q0 176 61 263q70 99 214 99q121 0 192 -68t76 -178h-120q-2 66 -41 104t-107 38q-78 0 -116 -56q-39 -58 -39 -202t39 -202q38 -56 116 -56q81 0 119 53q30 41 30 103v20h-144v100h262v-368h-86l-18 86q-19 -44 -64.5 -71t-106.5 -27q-136 0 -206 99
q-61 87 -61 263zM358 -218h-90l38 170h115z" />
    <glyph glyph-name="gcommaaccent" unicode="&#x123;" horiz-adv-x="550" 
d="M376 250q0 83 -24.5 125.5t-85.5 42.5t-85.5 -42.5t-24.5 -125.5t24.5 -125.5t85.5 -42.5t85.5 42.5t24.5 125.5zM490 500v-516q0 -98 -52 -157t-163 -59q-91 0 -145 40t-65 114h116q11 -66 94 -66q53 0 77 29.5t24 88.5v103q-14 -41 -50.5 -65t-87.5 -24
q-93 0 -144.5 64.5t-51.5 197.5t51.5 197.5t144.5 64.5q51 0 87.5 -24t50.5 -65v77h114zM281 724h90l-38 -170h-115z" />
    <glyph glyph-name="Hcircumflex" unicode="&#x124;" horiz-adv-x="632" 
d="M442 0v307h-252v-307h-120v700h120v-289h252v289h120v-700h-120zM365 924l116 -161h-99l-66 80l-66 -80h-99l116 161h98z" />
    <glyph glyph-name="hcircumflex" unicode="&#x125;" horiz-adv-x="546" 
d="M488 315v-315h-114v313q0 105 -84 105q-52 0 -84 -36.5t-32 -102.5v-279h-114v700h114v-286q15 45 52 71.5t91 26.5q82 0 126.5 -51t44.5 -146zM166 924l116 -161h-99l-66 80l-66 -80h-99l116 161h98z" />
    <glyph glyph-name="Hbar" unicode="&#x126;" horiz-adv-x="632" 
d="M442 0v307h-252v-307h-120v516h-60v86h60v98h120v-98h252v98h120v-98h60v-86h-60v-516h-120zM190 411h252v105h-252v-105z" />
    <glyph glyph-name="hbar" unicode="&#x127;" horiz-adv-x="546" 
d="M300 641v-74h-126v-153q15 45 52 71.5t91 26.5q82 0 126.5 -51t44.5 -146v-315h-114v313q0 105 -84 105q-52 0 -84 -36.5t-32 -102.5v-279h-114v567h-55v74h55v59h114v-59h126z" />
    <glyph glyph-name="Itilde" unicode="&#x128;" horiz-adv-x="260" 
d="M190 700v-700h-120v700h120zM194 775q-26 0 -45.5 11t-32.5 22t-22 11q-24 0 -24 -36h-98q0 124 95 124q26 0 45.5 -11t32.5 -22t22 -11q24 0 24 36h98q0 -124 -95 -124z" />
    <glyph glyph-name="itilde" unicode="&#x129;" horiz-adv-x="244" 
d="M65 0v500h114v-500h-114zM186 576q-26 0 -45.5 11t-32.5 22t-22 11q-24 0 -24 -36h-98q0 124 95 124q26 0 45.5 -11t32.5 -22t22 -11q24 0 24 36h98q0 -124 -95 -124z" />
    <glyph glyph-name="Imacron" unicode="&#x12a;" horiz-adv-x="260" 
d="M190 700v-700h-120v700h120zM-11 797v92h282v-92h-282z" />
    <glyph glyph-name="imacron" unicode="&#x12b;" horiz-adv-x="244" 
d="M65 0v500h114v-500h-114zM-19 598v92h282v-92h-282z" />
    <glyph glyph-name="Ibreve" unicode="&#x12c;" horiz-adv-x="260" 
d="M190 700v-700h-120v700h120zM130 765q-67 0 -110 39.5t-47 108.5h98q3 -64 59 -64t59 64h98q-4 -69 -47 -108.5t-110 -39.5z" />
    <glyph glyph-name="ibreve" unicode="&#x12d;" horiz-adv-x="244" 
d="M65 0v500h114v-500h-114zM122 568q-67 0 -110 39.5t-47 108.5h98q3 -64 59 -64t59 64h98q-4 -69 -47 -108.5t-110 -39.5z" />
    <glyph glyph-name="Iogonek" unicode="&#x12e;" horiz-adv-x="260" 
d="M190 700v-700q-75 -45 -75 -95v-5q0 -17 13 -29t37 -12q38 0 61 22l39 -59q-38 -41 -108 -41q-59 0 -93.5 26.5t-34.5 70.5v8q0 29 19.5 61.5t53.5 52.5h-32v700h120z" />
    <glyph glyph-name="iogonek" unicode="&#x12f;" horiz-adv-x="244" 
d="M179 500v-500q-75 -45 -75 -95v-5q0 -17 13 -29t37 -12q38 0 61 22l39 -59q-38 -41 -108 -41q-59 0 -93.5 26.5t-34.5 70.5v8q0 29 19.5 61.5t53.5 52.5h-26v500h114zM65 590v110h114v-110h-114z" />
    <glyph glyph-name="Idotaccent" unicode="&#x130;" horiz-adv-x="260" 
d="M190 700v-700h-120v700h120zM189 902v-122h-118v122h118z" />
    <glyph glyph-name="dotlessi" unicode="&#x131;" horiz-adv-x="244" 
d="M65 0v500h114v-500h-114z" />
    <glyph glyph-name="IJ" unicode="&#x132;" horiz-adv-x="798" 
d="M190 700v-700h-120v700h120zM280 223h120q4 -131 106 -131q106 0 106 140v468h120v-486q0 -109 -60 -167.5t-167 -58.5q-106 0 -165.5 58.5t-59.5 167.5v9z" />
    <glyph glyph-name="ij" unicode="&#x133;" horiz-adv-x="488" 
d="M65 590v110h114v-110h-114zM65 0v500h114v-500h-114zM309 -53v553h114v-566q0 -75 -43 -113.5t-124 -38.5q-30 0 -47 3v92h37q63 0 63 70zM309 590v110h114v-110h-114z" />
    <glyph glyph-name="Jcircumflex" unicode="&#x134;" horiz-adv-x="538" 
d="M20 223h120q4 -131 106 -131q106 0 106 140v468h120v-486q0 -109 -60 -167.5t-167 -58.5q-106 0 -165.5 58.5t-59.5 167.5v9zM461 924l116 -161h-99l-66 80l-66 -80h-99l116 161h98z" />
    <glyph glyph-name="jcircumflex" unicode="&#x135;" horiz-adv-x="244" 
d="M65 -53v553h114v-566q0 -75 -43 -113.5t-124 -38.5q-31 0 -47 3v94q14 -2 37 -2q63 0 63 70zM171 725l116 -161h-99l-66 80l-66 -80h-99l116 161h98z" />
    <glyph glyph-name="Kcommaaccent" unicode="&#x136;" horiz-adv-x="596" 
d="M570 700l-214 -341l245 -359h-134l-208 307h-69v-307h-120v700h120v-289h69l180 289h131zM317 -218h-90l38 170h115z" />
    <glyph glyph-name="kcommaaccent" unicode="&#x137;" horiz-adv-x="496" 
d="M60 0v700h114v-395h47l123 195h124l-155 -240l178 -260h-128l-143 217h-46v-217h-114zM258 -218h-90l38 170h115z" />
    <glyph glyph-name="kgreenlandic" unicode="&#x138;" horiz-adv-x="496" 
d="M60 0v500h114v-195h47l123 195h124l-155 -240l178 -260h-128l-143 217h-46v-217h-114z" />
    <glyph glyph-name="Lacute" unicode="&#x139;" horiz-adv-x="512" 
d="M70 0v700h120v-596h306v-104h-426zM282 924l-125 -161h-99l95 161h129z" />
    <glyph glyph-name="lacute" unicode="&#x13a;" horiz-adv-x="244" 
d="M179 0h-114v700h114v-700zM274 924l-125 -161h-99l95 161h129z" />
    <glyph glyph-name="Lcommaaccent" unicode="&#x13b;" horiz-adv-x="512" 
d="M70 0v700h120v-596h306v-104h-426zM292 -218h-90l38 170h115z" />
    <glyph glyph-name="lcommaaccent" unicode="&#x13c;" horiz-adv-x="244" 
d="M179 0h-114v700h114v-700zM126 -218h-90l38 170h115z" />
    <glyph glyph-name="Lcaron" unicode="&#x13d;" horiz-adv-x="512" 
d="M70 0v700h120v-596h306v-104h-426zM436 700v-116q0 -102 -118 -114v49q31 5 44.5 20t13.5 45h-58v116h118z" />
    <glyph glyph-name="lcaron" unicode="&#x13e;" horiz-adv-x="337" 
d="M179 0h-114v700h114v-700zM337 700v-116q0 -102 -118 -114v49q31 5 44.5 20t13.5 45h-58v116h118z" />
    <glyph glyph-name="Ldot" unicode="&#x13f;" horiz-adv-x="512" 
d="M70 0v700h120v-596h306v-104h-426zM416 438v-122h-118v122h118z" />
    <glyph glyph-name="ldot" unicode="&#x140;" horiz-adv-x="367" 
d="M179 0h-114v700h114v-700zM357 438v-122h-118v122h118z" />
    <glyph glyph-name="Lslash" unicode="&#x141;" horiz-adv-x="512" 
d="M70 239l-60 -31v94l60 31v367h120v-303l172 91v-94l-172 -91v-199h306v-104h-426v239z" />
    <glyph glyph-name="lslash" unicode="&#x142;" horiz-adv-x="304" 
d="M209 0h-114v279l-75 -39v82l75 39v339h114v-280l75 40v-82l-75 -40v-338z" />
    <glyph glyph-name="Nacute" unicode="&#x143;" horiz-adv-x="642" 
d="M449 0l-261 491v-491h-118v700h123l261 -491v491h118v-700h-123zM463 924l-125 -161h-99l95 161h129z" />
    <glyph glyph-name="nacute" unicode="&#x144;" horiz-adv-x="546" 
d="M488 315v-315h-114v313q0 105 -84 105q-52 0 -84 -36.5t-32 -102.5v-279h-114v500h114v-86q15 45 52 71.5t91 26.5q82 0 126.5 -51t44.5 -146zM420 725l-125 -161h-99l95 161h129z" />
    <glyph glyph-name="Ncommaaccent" unicode="&#x145;" horiz-adv-x="642" 
d="M449 0l-261 491v-491h-118v700h123l261 -491v491h118v-700h-123zM345 -218h-90l38 170h115z" />
    <glyph glyph-name="ncommaaccent" unicode="&#x146;" horiz-adv-x="546" 
d="M488 315v-315h-114v313q0 105 -84 105q-52 0 -84 -36.5t-32 -102.5v-279h-114v500h114v-86q15 45 52 71.5t91 26.5q82 0 126.5 -51t44.5 -146zM285 -218h-90l38 170h115z" />
    <glyph glyph-name="Ncaron" unicode="&#x147;" horiz-adv-x="642" 
d="M449 0l-261 491v-491h-118v700h123l261 -491v491h118v-700h-123zM486 924l-116 -161h-98l-116 161h99l66 -80l66 80h99z" />
    <glyph glyph-name="ncaron" unicode="&#x148;" horiz-adv-x="546" 
d="M488 315v-315h-114v313q0 105 -84 105q-52 0 -84 -36.5t-32 -102.5v-279h-114v500h114v-86q15 45 52 71.5t91 26.5q82 0 126.5 -51t44.5 -146zM438 725l-116 -161h-98l-116 161h99l66 -80l66 80h99z" />
    <glyph glyph-name="napostrophe" unicode="&#x149;" horiz-adv-x="586" 
d="M528 315v-315h-114v313q0 105 -84 105q-52 0 -84 -36.5t-32 -102.5v-279h-114v500h114v-86q15 45 52 71.5t91 26.5q82 0 126.5 -51t44.5 -146zM128 700v-116q0 -102 -118 -114v49q31 5 44.5 20t13.5 45h-58v116h118z" />
    <glyph glyph-name="Eng" unicode="&#x14a;" horiz-adv-x="642" 
d="M449 0l-261 491v-491h-118v700h123l261 -491v491h118v-766q0 -75 -43 -113.5t-124 -38.5q-31 0 -47 3v101h34q57 0 57 62v52z" />
    <glyph glyph-name="eng" unicode="&#x14b;" horiz-adv-x="546" 
d="M374 -61v374q0 105 -84 105q-52 0 -84 -36.5t-32 -102.5v-279h-114v500h114v-86q15 45 52 71.5t91 26.5q82 0 126.5 -51t44.5 -146v-381q0 -75 -43 -113.5t-124 -38.5q-31 0 -47 3v92h37q63 0 63 62z" />
    <glyph glyph-name="Omacron" unicode="&#x14c;" horiz-adv-x="650" 
d="M480 350q0 144 -39 202q-38 56 -116 56t-116 -56q-39 -58 -39 -202t39 -202q38 -56 116 -56t116 56q39 58 39 202zM50 350q0 176 61 263q70 99 214 99t214 -99q61 -87 61 -263t-61 -263q-70 -99 -214 -99t-214 99q-61 87 -61 263zM184 797v92h282v-92h-282z" />
    <glyph glyph-name="omacron" unicode="&#x14d;" horiz-adv-x="532" 
d="M266 82q60 0 85 43t25 125t-25 125t-85 43t-85 -43t-25 -125t25 -125t85 -43zM266 512q111 0 167.5 -67.5t56.5 -194.5t-56.5 -194.5t-167.5 -67.5t-167.5 67.5t-56.5 194.5t56.5 194.5t167.5 67.5zM125 598v92h282v-92h-282z" />
    <glyph glyph-name="Obreve" unicode="&#x14e;" horiz-adv-x="650" 
d="M480 350q0 144 -39 202q-38 56 -116 56t-116 -56q-39 -58 -39 -202t39 -202q38 -56 116 -56t116 56q39 58 39 202zM50 350q0 176 61 263q70 99 214 99t214 -99q61 -87 61 -263t-61 -263q-70 -99 -214 -99t-214 99q-61 87 -61 263zM325 765q-67 0 -110 39.5t-47 108.5h98
q3 -64 59 -64t59 64h98q-4 -69 -47 -108.5t-110 -39.5z" />
    <glyph glyph-name="obreve" unicode="&#x14f;" horiz-adv-x="532" 
d="M266 82q60 0 85 43t25 125t-25 125t-85 43t-85 -43t-25 -125t25 -125t85 -43zM266 512q111 0 167.5 -67.5t56.5 -194.5t-56.5 -194.5t-167.5 -67.5t-167.5 67.5t-56.5 194.5t56.5 194.5t167.5 67.5zM266 568q-67 0 -110 39.5t-47 108.5h98q3 -64 59 -64t59 64h98
q-4 -69 -47 -108.5t-110 -39.5z" />
    <glyph glyph-name="Ohungarumlaut" unicode="&#x150;" horiz-adv-x="650" 
d="M480 350q0 144 -39 202q-38 56 -116 56t-116 -56q-39 -58 -39 -202t39 -202q38 -56 116 -56t116 56q39 58 39 202zM50 350q0 176 61 263q70 99 214 99t214 -99q61 -87 61 -263t-61 -263q-70 -99 -214 -99t-214 99q-61 87 -61 263zM371 924l-105 -161h-90l80 161h115z
M535 924l-130 -161h-90l105 161h115z" />
    <glyph glyph-name="ohungarumlaut" unicode="&#x151;" horiz-adv-x="532" 
d="M266 82q60 0 85 43t25 125t-25 125t-85 43t-85 -43t-25 -125t25 -125t85 -43zM266 512q111 0 167.5 -67.5t56.5 -194.5t-56.5 -194.5t-167.5 -67.5t-167.5 67.5t-56.5 194.5t56.5 194.5t167.5 67.5zM317 725l-105 -161h-90l80 161h115zM481 725l-130 -161h-90l105 161
h115z" />
    <glyph glyph-name="OE" unicode="&#x152;" horiz-adv-x="915" 
d="M50 350q0 84 12 147t47 113q63 90 210 90h546v-104h-301v-185h265v-104h-265v-203h306v-104h-551q-147 0 -210 90q-35 50 -47 113t-12 147zM170 350q0 -140 42 -198q34 -48 119 -48h113v492h-113q-85 0 -119 -48q-42 -58 -42 -198z" />
    <glyph glyph-name="oe" unicode="&#x153;" horiz-adv-x="866" 
d="M600 418q-98 0 -108 -119h216q-10 119 -108 119zM266 82q60 0 85 43t25 125t-25 125t-85 43t-85 -43t-25 -125t25 -125t85 -43zM604 -12q-61 0 -105.5 24t-65.5 65q-21 -41 -65.5 -65t-105.5 -24q-107 0 -163.5 67.5t-56.5 194.5t56.5 194.5t163.5 67.5q61 0 105.5 -24
t65.5 -65q21 41 65.5 65t105.5 24q107 0 163.5 -67.5t56.5 -194.5v-35h-333q6 -133 109 -133q40 0 66 18.5t32 51.5h116q-13 -79 -68 -121.5t-142 -42.5z" />
    <glyph glyph-name="Racute" unicode="&#x154;" horiz-adv-x="621" 
d="M444 62l-5 91q-3 55 -30.5 80t-85.5 25h-133v-258h-120v700h277q109 0 166 -55t57 -158q0 -138 -118 -176q52 -11 77 -45.5t29 -103.5l6 -98q3 -40 12 -64h-122q-9 26 -10 62zM190 362h138q122 0 122 117t-122 117h-138v-234zM432 924l-125 -161h-99l95 161h129z" />
    <glyph glyph-name="racute" unicode="&#x155;" horiz-adv-x="365" 
d="M304 418q-63 0 -96.5 -40t-33.5 -117v-261h-114v500h114v-88q14 51 46 75.5t89 24.5q26 0 41 -4l-2 -92q-16 2 -44 2zM334 725l-125 -161h-99l95 161h129z" />
    <glyph glyph-name="Rcommaaccent" unicode="&#x156;" horiz-adv-x="621" 
d="M444 62l-5 91q-3 55 -30.5 80t-85.5 25h-133v-258h-120v700h277q109 0 166 -55t57 -158q0 -138 -118 -176q52 -11 77 -45.5t29 -103.5l6 -98q3 -40 12 -64h-122q-9 26 -10 62zM190 362h138q122 0 122 117t-122 117h-138v-234zM321 -218h-90l38 170h115z" />
    <glyph glyph-name="rcommaaccent" unicode="&#x157;" horiz-adv-x="365" 
d="M304 418q-63 0 -96.5 -40t-33.5 -117v-261h-114v500h114v-88q14 51 46 75.5t89 24.5q26 0 41 -4l-2 -92q-16 2 -44 2zM128 -218h-90l38 170h115z" />
    <glyph glyph-name="Rcaron" unicode="&#x158;" horiz-adv-x="621" 
d="M444 62l-5 91q-3 55 -30.5 80t-85.5 25h-133v-258h-120v700h277q109 0 166 -55t57 -158q0 -138 -118 -176q52 -11 77 -45.5t29 -103.5l6 -98q3 -40 12 -64h-122q-9 26 -10 62zM190 362h138q122 0 122 117t-122 117h-138v-234zM451 924l-116 -161h-98l-116 161h99l66 -80
l66 80h99z" />
    <glyph glyph-name="rcaron" unicode="&#x159;" horiz-adv-x="365" 
d="M304 418q-63 0 -96.5 -40t-33.5 -117v-261h-114v500h114v-88q14 51 46 75.5t89 24.5q26 0 41 -4l-2 -92q-16 2 -44 2zM367 725l-116 -161h-98l-116 161h99l66 -80l66 80h99z" />
    <glyph glyph-name="Sacute" unicode="&#x15a;" horiz-adv-x="580" 
d="M540 198q0 -94 -65.5 -152t-179.5 -58t-179.5 58t-65.5 152v12h120v-15q0 -47 34 -75t91 -28t91 28t34 75q0 82 -99 103l-90 19q-181 38 -181 197q0 85 60.5 141.5t171.5 56.5t171.5 -56.5t60.5 -141.5v-9h-120v9q0 42 -29.5 68t-82.5 26t-82.5 -26t-29.5 -68
q0 -40 24 -62t75 -33l90 -19q87 -18 134 -69t47 -133zM412 924l-125 -161h-99l95 161h129z" />
    <glyph glyph-name="sacute" unicode="&#x15b;" horiz-adv-x="487" 
d="M45 142v14h114v-14q0 -30 23.5 -47t63.5 -17t63.5 17t23.5 45t-15.5 42.5t-52.5 21.5l-52 9q-85 15 -125 51t-40 99q0 65 51.5 107t138.5 42q88 0 139 -40t51 -109v-10h-114v10q0 26 -19.5 42.5t-56.5 16.5q-36 0 -56 -16t-20 -40q0 -26 16.5 -39t55.5 -20l52 -9
q87 -15 124 -52t37 -104q0 -66 -55 -110t-146 -44q-92 0 -146.5 43t-54.5 111zM363 725l-125 -161h-99l95 161h129z" />
    <glyph glyph-name="Scircumflex" unicode="&#x15c;" horiz-adv-x="580" 
d="M540 198q0 -94 -65.5 -152t-179.5 -58t-179.5 58t-65.5 152v12h120v-15q0 -47 34 -75t91 -28t91 28t34 75q0 82 -99 103l-90 19q-181 38 -181 197q0 85 60.5 141.5t171.5 56.5t171.5 -56.5t60.5 -141.5v-9h-120v9q0 42 -29.5 68t-82.5 26t-82.5 -26t-29.5 -68
q0 -40 24 -62t75 -33l90 -19q87 -18 134 -69t47 -133zM329 924l116 -161h-99l-66 80l-66 -80h-99l116 161h98z" />
    <glyph glyph-name="scircumflex" unicode="&#x15d;" horiz-adv-x="487" 
d="M45 142v14h114v-14q0 -30 23.5 -47t63.5 -17t63.5 17t23.5 45t-15.5 42.5t-52.5 21.5l-52 9q-85 15 -125 51t-40 99q0 65 51.5 107t138.5 42q88 0 139 -40t51 -109v-10h-114v10q0 26 -19.5 42.5t-56.5 16.5q-36 0 -56 -16t-20 -40q0 -26 16.5 -39t55.5 -20l52 -9
q87 -15 124 -52t37 -104q0 -66 -55 -110t-146 -44q-92 0 -146.5 43t-54.5 111zM282 725l116 -161h-99l-66 80l-66 -80h-99l116 161h98z" />
    <glyph glyph-name="Scedilla" unicode="&#x15e;" horiz-adv-x="580" 
d="M540 198q0 -81 -49 -136t-137 -69l-18 -38q45 -4 69.5 -28.5t24.5 -62.5q0 -47 -34 -74.5t-91 -27.5q-65 0 -113 36l33 63q31 -24 72 -24q45 0 45 30q0 32 -53 32q-24 0 -39 -5l-17 22l34 73q-102 7 -159.5 63.5t-57.5 145.5v12h120v-15q0 -47 34 -75t91 -28t91 28t34 75
q0 82 -99 103l-90 19q-181 38 -181 197q0 85 60.5 141.5t171.5 56.5t171.5 -56.5t60.5 -141.5v-9h-120v9q0 42 -29.5 68t-82.5 26t-82.5 -26t-29.5 -68q0 -40 24 -62t75 -33l90 -19q87 -18 134 -69t47 -133z" />
    <glyph glyph-name="scedilla" unicode="&#x15f;" horiz-adv-x="476" 
d="M42 142v14h114v-14q0 -30 23.5 -47t63.5 -17t63.5 17t23.5 45t-15.5 42.5t-52.5 21.5l-52 9q-85 15 -125 51t-40 99q0 65 51.5 107t138.5 42q88 0 139 -40t51 -109v-10h-114v10q0 26 -19.5 42.5t-56.5 16.5q-36 0 -56 -16t-20 -40q0 -26 16.5 -39t55.5 -20l52 -9
q87 -15 124 -52t37 -104q0 -55 -40 -96t-108 -53l-18 -38q45 -4 69.5 -28.5t24.5 -62.5q0 -47 -34 -74.5t-91 -27.5q-65 0 -113 36l33 63q32 -24 72 -24q45 0 45 30q0 32 -53 32q-24 0 -39 -5l-17 22l35 74q-78 7 -123 49t-45 103z" />
    <glyph glyph-name="Scaron" unicode="&#x160;" horiz-adv-x="580" 
d="M540 198q0 -94 -65.5 -152t-179.5 -58t-179.5 58t-65.5 152v12h120v-15q0 -47 34 -75t91 -28t91 28t34 75q0 82 -99 103l-90 19q-181 38 -181 197q0 85 60.5 141.5t171.5 56.5t171.5 -56.5t60.5 -141.5v-9h-120v9q0 42 -29.5 68t-82.5 26t-82.5 -26t-29.5 -68
q0 -40 24 -62t75 -33l90 -19q87 -18 134 -69t47 -133zM445 924l-116 -161h-98l-116 161h99l66 -80l66 80h99z" />
    <glyph glyph-name="scaron" unicode="&#x161;" horiz-adv-x="487" 
d="M45 142v14h114v-14q0 -30 23.5 -47t63.5 -17t63.5 17t23.5 45t-15.5 42.5t-52.5 21.5l-52 9q-85 15 -125 51t-40 99q0 65 51.5 107t138.5 42q88 0 139 -40t51 -109v-10h-114v10q0 26 -19.5 42.5t-56.5 16.5q-36 0 -56 -16t-20 -40q0 -26 16.5 -39t55.5 -20l52 -9
q87 -15 124 -52t37 -104q0 -66 -55 -110t-146 -44q-92 0 -146.5 43t-54.5 111zM404 725l-116 -161h-98l-116 161h99l66 -80l66 80h99z" />
    <glyph glyph-name="Tcommaaccent" unicode="&#x162;" horiz-adv-x="534" 
d="M143 -202l33 63q31 -24 72 -24q45 0 45 30q0 32 -53 32q-24 0 -39 -5l-17 22l40 84h-17v596h-192v104h504v-104h-192v-596h-18l-22 -45q45 -4 69.5 -28.5t24.5 -62.5q0 -47 -34 -74.5t-91 -27.5q-65 0 -113 36z" />
    <glyph glyph-name="tcommaaccent" unicode="&#x163;" horiz-adv-x="375" 
d="M94 -202l33 63q31 -24 72 -24q45 0 45 30q0 32 -53 32q-24 0 -39 -5l-17 22l42 88q-42 13 -61.5 44t-19.5 87v271h-71v94h71v142h114v-142h130v-94h-130v-249q0 -42 16.5 -56t62.5 -14h51v-91q-22 -3 -71 -3h-13l-18 -38q45 -4 69.5 -28.5t24.5 -62.5q0 -47 -34 -74.5
t-91 -27.5q-65 0 -113 36z" />
    <glyph glyph-name="Tcaron" unicode="&#x164;" horiz-adv-x="534" 
d="M15 596v104h504v-104h-192v-596h-120v596h-192zM432 924l-116 -161h-98l-116 161h99l66 -80l66 80h99z" />
    <glyph glyph-name="tcaron" unicode="&#x165;" horiz-adv-x="466" 
d="M210 406v-249q0 -42 16.5 -56t62.5 -14h51v-91q-22 -3 -71 -3q-93 0 -133 31.5t-40 110.5v271h-71v94h71v142h114v-142h130v-94h-130zM466 712v-116q0 -102 -118 -114v49q31 5 44.5 20t13.5 45h-58v116h118z" />
    <glyph glyph-name="Tbar" unicode="&#x166;" horiz-adv-x="534" 
d="M207 315h-100v86h100v195h-192v104h504v-104h-192v-195h100v-86h-100v-315h-120v315z" />
    <glyph glyph-name="tbar" unicode="&#x167;" horiz-adv-x="375" 
d="M36 305h60v101h-71v94h71v142h114v-142h130v-94h-130v-101h102v-74h-102v-74q0 -42 16.5 -56t62.5 -14h51v-91q-22 -3 -71 -3q-93 0 -133 31.5t-40 110.5v96h-60v74z" />
    <glyph glyph-name="Utilde" unicode="&#x168;" horiz-adv-x="652" 
d="M326 92q141 0 141 183v425h120v-442q0 -124 -67 -197t-194 -73t-194 73t-67 197v442h120v-425q0 -183 141 -183zM390 775q-26 0 -46 11t-32.5 22t-21.5 11q-24 0 -24 -36h-98q0 124 95 124q26 0 45.5 -11t32.5 -22t22 -11q24 0 24 36h98q0 -124 -95 -124z" />
    <glyph glyph-name="utilde" unicode="&#x169;" horiz-adv-x="546" 
d="M58 185v315h114v-313q0 -105 84 -105q52 0 84 36.5t32 102.5v279h114v-500h-114v86q-15 -45 -52 -71.5t-91 -26.5q-82 0 -126.5 51t-44.5 146zM336 576q-26 0 -46 11t-32.5 22t-21.5 11q-24 0 -24 -36h-98q0 124 95 124q26 0 45.5 -11t32.5 -22t22 -11q24 0 24 36h98
q0 -124 -95 -124z" />
    <glyph glyph-name="Umacron" unicode="&#x16a;" horiz-adv-x="652" 
d="M326 92q141 0 141 183v425h120v-442q0 -124 -67 -197t-194 -73t-194 73t-67 197v442h120v-425q0 -183 141 -183zM185 797v92h282v-92h-282z" />
    <glyph glyph-name="umacron" unicode="&#x16b;" horiz-adv-x="546" 
d="M58 185v315h114v-313q0 -105 84 -105q52 0 84 36.5t32 102.5v279h114v-500h-114v86q-15 -45 -52 -71.5t-91 -26.5q-82 0 -126.5 51t-44.5 146zM131 598v92h282v-92h-282z" />
    <glyph glyph-name="Ubreve" unicode="&#x16c;" horiz-adv-x="652" 
d="M326 92q141 0 141 183v425h120v-442q0 -124 -67 -197t-194 -73t-194 73t-67 197v442h120v-425q0 -183 141 -183zM326 765q-67 0 -110 39.5t-47 108.5h98q3 -64 59 -64t59 64h98q-4 -69 -47 -108.5t-110 -39.5z" />
    <glyph glyph-name="ubreve" unicode="&#x16d;" horiz-adv-x="546" 
d="M58 185v315h114v-313q0 -105 84 -105q52 0 84 36.5t32 102.5v279h114v-500h-114v86q-15 -45 -52 -71.5t-91 -26.5q-82 0 -126.5 51t-44.5 146zM272 568q-67 0 -110 39.5t-47 108.5h98q3 -64 59 -64t59 64h98q-4 -69 -47 -108.5t-110 -39.5z" />
    <glyph glyph-name="Uring" unicode="&#x16e;" horiz-adv-x="652" 
d="M326 92q141 0 141 183v425h120v-442q0 -124 -67 -197t-194 -73t-194 73t-67 197v442h120v-425q0 -183 141 -183zM434 843q0 -49 -30 -76.5t-78 -27.5t-78 27.5t-30 76.5t30 76.5t78 27.5t78 -27.5t30 -76.5zM362 843q0 19 -9.5 29.5t-26.5 10.5q-36 0 -36 -40t36 -40
q17 0 26.5 10.5t9.5 29.5z" />
    <glyph glyph-name="uring" unicode="&#x16f;" horiz-adv-x="546" 
d="M58 185v315h114v-313q0 -105 84 -105q52 0 84 36.5t32 102.5v279h114v-500h-114v86q-15 -45 -52 -71.5t-91 -26.5q-82 0 -126.5 51t-44.5 146zM380 644q0 -49 -30 -76.5t-78 -27.5t-78 27.5t-30 76.5t30 76.5t78 27.5t78 -27.5t30 -76.5zM308 644q0 19 -9.5 29.5
t-26.5 10.5q-36 0 -36 -40t36 -40q17 0 26.5 10.5t9.5 29.5z" />
    <glyph glyph-name="Uhungarumlaut" unicode="&#x170;" horiz-adv-x="652" 
d="M326 92q141 0 141 183v425h120v-442q0 -124 -67 -197t-194 -73t-194 73t-67 197v442h120v-425q0 -183 141 -183zM382 924l-105 -161h-90l80 161h115zM546 924l-130 -161h-90l105 161h115z" />
    <glyph glyph-name="uhungarumlaut" unicode="&#x171;" horiz-adv-x="546" 
d="M58 185v315h114v-313q0 -105 84 -105q52 0 84 36.5t32 102.5v279h114v-500h-114v86q-15 -45 -52 -71.5t-91 -26.5q-82 0 -126.5 51t-44.5 146zM320 725l-105 -161h-90l80 161h115zM484 725l-130 -161h-90l105 161h115z" />
    <glyph glyph-name="Uogonek" unicode="&#x172;" horiz-adv-x="652" 
d="M326 92q141 0 141 183v425h120v-442q0 -104 -47.5 -173t-139.5 -89q-67 -43 -67 -91v-5q0 -17 13 -29t37 -12q38 0 61 22l39 -59q-38 -41 -108 -41q-60 0 -94 26.5t-34 74.5v8q0 57 54 99q-116 7 -176 79t-60 190v442h120v-425q0 -183 141 -183z" />
    <glyph glyph-name="uogonek" unicode="&#x173;" horiz-adv-x="546" 
d="M486 0h-26q-75 -45 -75 -95v-5q0 -17 13 -29t37 -12q38 0 61 22l39 -59q-38 -41 -108 -41q-60 0 -94 26.5t-34 74.5v8q0 32 19.5 61.5t53.5 48.5v86q-15 -45 -52 -71.5t-91 -26.5q-82 0 -126.5 51t-44.5 146v315h114v-313q0 -105 84 -105q52 0 84 36.5t32 102.5v279h114
v-500z" />
    <glyph glyph-name="Wcircumflex" unicode="&#x174;" horiz-adv-x="948" 
d="M673 150l136 550h124l-182 -700h-147l-130 515l-130 -515h-147l-182 700h124l136 -550l138 550h122zM523 924l116 -161h-99l-66 80l-66 -80h-99l116 161h98z" />
    <glyph glyph-name="wcircumflex" unicode="&#x175;" horiz-adv-x="808" 
d="M348 500h112l111 -373l106 373h116l-159 -500h-120l-110 382l-110 -382h-120l-159 500h116l106 -373zM453 725l116 -161h-99l-66 80l-66 -80h-99l116 161h98z" />
    <glyph glyph-name="Ycircumflex" unicode="&#x176;" horiz-adv-x="606" 
d="M303 382l162 318h126l-228 -424v-276h-120v276l-228 424h126zM352 924l116 -161h-99l-66 80l-66 -80h-99l116 161h98z" />
    <glyph glyph-name="ycircumflex" unicode="&#x177;" horiz-adv-x="519" 
d="M181 -70l24 68l-190 502h119l128 -360l123 360h119l-219 -605q-24 -66 -61 -89.5t-100 -23.5q-34 0 -47 2v92h37q48 0 67 54zM311 725l116 -161h-99l-66 80l-66 -80h-99l116 161h98z" />
    <glyph glyph-name="Ydieresis" unicode="&#x178;" horiz-adv-x="606" 
d="M303 382l162 318h126l-228 -424v-276h-120v276l-228 424h126zM270 902v-122h-118v122h118zM454 902v-122h-118v122h118z" />
    <glyph glyph-name="Zacute" unicode="&#x179;" horiz-adv-x="542" 
d="M40 94l312 502h-302v104h447v-94l-312 -502h317v-104h-462v94zM418 924l-125 -161h-99l95 161h129z" />
    <glyph glyph-name="zacute" unicode="&#x17a;" horiz-adv-x="458" 
d="M415 500v-84l-237 -322h244v-94h-386v84l237 322h-229v94h371zM377 725l-125 -161h-99l95 161h129z" />
    <glyph glyph-name="Zdotaccent" unicode="&#x17b;" horiz-adv-x="542" 
d="M40 94l312 502h-302v104h447v-94l-312 -502h317v-104h-462v94zM335 902v-122h-118v122h118z" />
    <glyph glyph-name="zdotaccent" unicode="&#x17c;" horiz-adv-x="458" 
d="M415 500v-84l-237 -322h244v-94h-386v84l237 322h-229v94h371zM295 703v-122h-118v122h118z" />
    <glyph glyph-name="Zcaron" unicode="&#x17d;" horiz-adv-x="542" 
d="M40 94l312 502h-302v104h447v-94l-312 -502h317v-104h-462v94zM441 924l-116 -161h-98l-116 161h99l66 -80l66 80h99z" />
    <glyph glyph-name="zcaron" unicode="&#x17e;" horiz-adv-x="458" 
d="M415 500v-84l-237 -322h244v-94h-386v84l237 322h-229v94h371zM402 725l-116 -161h-98l-116 161h99l66 -80l66 80h99z" />
    <glyph glyph-name="longs" unicode="&#x17f;" horiz-adv-x="355" 
d="M335 613h-48q-41 0 -56.5 -14t-15.5 -48v-551h-114v406h-71v94h71v56q0 82 39.5 116.5t130.5 34.5q36 0 64 -4v-90z" />
    <glyph glyph-name="uni0191" unicode="&#x191;" horiz-adv-x="516" 
d="M70 -52v752h416v-104h-296v-195h265v-104h-265v-363q0 -75 -43 -113.5t-124 -38.5q-30 0 -47 3v101h37q57 0 57 62z" />
    <glyph glyph-name="florin" unicode="&#x192;" horiz-adv-x="355" 
d="M101 -61v467h-71v94h71v56q0 82 39.5 116.5t130.5 34.5q36 0 64 -4v-90h-48q-41 0 -56.5 -14t-15.5 -48v-51h120v-94h-120v-472q0 -75 -43 -113.5t-124 -38.5q-30 0 -47 3v92h37q63 0 63 62z" />
    <glyph glyph-name="Aringacute" unicode="&#x1fa;" horiz-adv-x="616" 
d="M482 0l-45 149h-258l-45 -149h-124l227 689q-37 27 -37 82q0 49 30 76.5t78 27.5t78 -27.5t30 -76.5q0 -55 -37 -82l227 -689h-124zM308 576l-98 -323h195zM423 1009l-84 -113h-85l52 113h117zM344 771q0 19 -9.5 29.5t-26.5 10.5q-36 0 -36 -40t36 -40q17 0 26.5 10.5
t9.5 29.5z" />
    <glyph glyph-name="aringacute" unicode="&#x1fb;" horiz-adv-x="532" 
d="M376 644q0 -49 -30 -76.5t-78 -27.5t-78 27.5t-30 76.5t30 76.5t78 27.5t78 -27.5t30 -76.5zM304 644q0 19 -9.5 29.5t-26.5 10.5q-36 0 -36 -40t36 -40q17 0 26.5 10.5t9.5 29.5zM383 882l-84 -113h-85l52 113h117zM360 56q-11 -30 -47 -49t-89 -19q-86 0 -136 41.5
t-50 117.5t50 117.5t136 41.5q49 0 86.5 -17.5t49.5 -49.5v82q0 97 -96 97q-84 0 -93 -67h-115q5 75 58.5 118t149.5 43q104 0 157 -50.5t53 -139.5v-253q0 -40 12 -69h-117q-7 17 -9 56zM256 75q104 0 104 72t-104 72t-104 -72t104 -72z" />
    <glyph glyph-name="AEacute" unicode="&#x1fc;" horiz-adv-x="881" 
d="M410 0v149h-220l-73 -149h-132l354 700h492v-104h-301v-185h265v-104h-265v-203h306v-104h-426zM241 253h169v341zM690 924l-125 -161h-99l95 161h129z" />
    <glyph glyph-name="aeacute" unicode="&#x1fd;" horiz-adv-x="850" 
d="M417 66q-20 -36 -67.5 -57t-110.5 -21q-97 0 -149 41t-52 118q0 76 50 117.5t136 41.5q49 0 86.5 -17.5t49.5 -49.5v82q0 97 -96 97q-84 0 -93 -67h-115q5 75 58.5 118t149.5 43q114 0 163 -78q51 78 157 78q111 0 167.5 -67.5t56.5 -194.5v-35h-333q6 -133 109 -133
q40 0 66 18.5t32 51.5h116q-14 -79 -69 -121.5t-145 -42.5q-115 0 -167 78zM476 299h216q-10 119 -108 119t-108 -119zM256 75q104 0 104 72t-104 72t-104 -72t104 -72zM572 725l-125 -161h-99l95 161h129z" />
    <glyph glyph-name="Oslashacute" unicode="&#x1fe;" horiz-adv-x="650" 
d="M496 732h87l-57 -102q2 -3 6.5 -8.5t6.5 -8.5q61 -87 61 -263t-61 -263q-70 -99 -214 -99q-83 0 -141 33l-30 -53h-87l57 102q-5 5 -13 17q-61 87 -61 263t61 263q70 99 214 99q81 0 141 -33zM480 350q0 111 -20 164l-222 -397q34 -25 87 -25q78 0 116 56q39 58 39 202z
M325 608q-78 0 -116 -56q-39 -58 -39 -202q0 -110 19 -164l223 396q-35 26 -87 26zM467 924l-125 -161h-99l95 161h129z" />
    <glyph glyph-name="oslashacute" unicode="&#x1ff;" horiz-adv-x="532" 
d="M266 512q54 0 96 -17l24 43h76l-43 -79q71 -66 71 -209q0 -127 -56.5 -194.5t-167.5 -67.5q-54 0 -97 17l-23 -43h-76l43 78q-71 65 -71 210q0 127 56.5 194.5t167.5 67.5zM156 250q0 -66 14 -105l145 263q-20 10 -49 10q-60 0 -85 -43t-25 -125zM266 82q60 0 85 43
t25 125q0 67 -15 104l-144 -263q19 -9 49 -9zM403 725l-125 -161h-99l95 161h129z" />
    <glyph glyph-name="Scommaaccent" unicode="&#x218;" horiz-adv-x="580" 
d="M540 198q0 -94 -65.5 -152t-179.5 -58t-179.5 58t-65.5 152v12h120v-15q0 -47 34 -75t91 -28t91 28t34 75q0 82 -99 103l-90 19q-181 38 -181 197q0 85 60.5 141.5t171.5 56.5t171.5 -56.5t60.5 -141.5v-9h-120v9q0 42 -29.5 68t-82.5 26t-82.5 -26t-29.5 -68
q0 -40 24 -62t75 -33l90 -19q87 -18 134 -69t47 -133zM320 -218h-90l38 170h115z" />
    <glyph glyph-name="scommaaccent" unicode="&#x219;" horiz-adv-x="487" 
d="M45 142v14h114v-14q0 -30 23.5 -47t63.5 -17t63.5 17t23.5 45t-15.5 42.5t-52.5 21.5l-52 9q-85 15 -125 51t-40 99q0 65 51.5 107t138.5 42q88 0 139 -40t51 -109v-10h-114v10q0 26 -19.5 42.5t-56.5 16.5q-36 0 -56 -16t-20 -40q0 -26 16.5 -39t55.5 -20l52 -9
q87 -15 124 -52t37 -104q0 -66 -55 -110t-146 -44q-92 0 -146.5 43t-54.5 111zM263 -218h-90l38 170h115z" />
    <glyph glyph-name="uni021A" unicode="&#x21a;" horiz-adv-x="534" 
d="M15 596v104h504v-104h-192v-596h-120v596h-192zM271 -218h-90l38 170h115z" />
    <glyph glyph-name="uni021B" unicode="&#x21b;" horiz-adv-x="365" 
d="M205 406v-249q0 -42 16.5 -56t62.5 -14h51v-91q-23 -3 -71 -3q-93 0 -133 31.5t-40 110.5v271h-71v94h71v142h114v-142h130v-94h-130zM211 -218h-90l38 170h115z" />
    <glyph glyph-name="dotlessj" unicode="&#x237;" horiz-adv-x="244" 
d="M65 -53v553h114v-566q0 -75 -43 -113.5t-124 -38.5q-31 0 -47 3v94q14 -2 37 -2q63 0 63 70z" />
    <glyph glyph-name="apostrophe" unicode="&#x2bc;" horiz-adv-x="380" 
d="M249 730v-116q0 -102 -118 -114v49q31 5 44.5 20t13.5 45h-58v116h118z" />
    <glyph glyph-name="circumflex" unicode="&#x2c6;" horiz-adv-x="380" 
d="M239 730l116 -161h-99l-66 80l-66 -80h-99l116 161h98z" />
    <glyph glyph-name="caron" unicode="&#x2c7;" horiz-adv-x="380" 
d="M355 730l-116 -161h-98l-116 161h99l66 -80l66 80h99z" />
    <glyph glyph-name="uni02C9" unicode="&#x2c9;" horiz-adv-x="380" 
d="M49 602v92h282v-92h-282z" />
    <glyph glyph-name="breve" unicode="&#x2d8;" horiz-adv-x="380" 
d="M190 573q-67 0 -110 39.5t-47 108.5h98q3 -64 59 -64t59 64h98q-4 -69 -47 -108.5t-110 -39.5z" />
    <glyph glyph-name="dotaccent" unicode="&#x2d9;" horiz-adv-x="380" 
d="M249 708v-122h-118v122h118z" />
    <glyph glyph-name="ring" unicode="&#x2da;" horiz-adv-x="380" 
d="M298 649q0 -49 -30 -76.5t-78 -27.5t-78 27.5t-30 76.5t30 76.5t78 27.5t78 -27.5t30 -76.5zM226 649q0 19 -9.5 29.5t-26.5 10.5q-36 0 -36 -40t36 -40q17 0 26.5 10.5t9.5 29.5z" />
    <glyph glyph-name="ogonek" unicode="&#x2db;" horiz-adv-x="380" 
d="M145 0h88q-75 -45 -75 -95v-5q0 -17 13 -29t37 -12q38 0 61 22l39 -59q-38 -41 -108 -41q-60 0 -94 26.5t-34 74.5v8q0 32 19.5 62t53.5 48z" />
    <glyph glyph-name="tilde" unicode="&#x2dc;" horiz-adv-x="380" 
d="M253 582q-26 0 -45.5 11t-32.5 22t-22 11q-24 0 -24 -36h-98q0 124 95 124q26 0 46 -11t32.5 -22t21.5 -11q24 0 24 36h98q0 -124 -95 -124z" />
    <glyph glyph-name="hungarumlaut" unicode="&#x2dd;" horiz-adv-x="380" 
d="M205 730l-105 -161h-90l80 161h115zM369 730l-130 -161h-90l105 161h115z" />
    <glyph glyph-name="gravecomb" unicode="&#x300;" horiz-adv-x="0" 
d="M-219 569l-125 161h129l95 -161h-99z" />
    <glyph glyph-name="acutecomb" unicode="&#x301;" horiz-adv-x="0" 
d="M-120 730l-125 -161h-99l95 161h129z" />
    <glyph glyph-name="uni0302" unicode="&#x302;" horiz-adv-x="0" 
d="M-183 730l116 -161h-99l-66 80l-66 -80h-99l116 161h98z" />
    <glyph glyph-name="tildecomb" unicode="&#x303;" horiz-adv-x="0" 
d="M-169 582q-26 0 -45.5 11t-32.5 22t-22 11q-24 0 -24 -36h-98q0 124 95 124q26 0 46 -11t32.5 -22t21.5 -11q24 0 24 36h98q0 -124 -95 -124z" />
    <glyph glyph-name="uni0304" unicode="&#x304;" horiz-adv-x="0" 
d="M-373 603v92h282v-92h-282z" />
    <glyph glyph-name="uni0306" unicode="&#x306;" horiz-adv-x="0" 
d="M-232 573q-67 0 -110 39.5t-47 108.5h98q3 -64 59 -64t59 64h98q-4 -69 -47 -108.5t-110 -39.5z" />
    <glyph glyph-name="uni0307" unicode="&#x307;" horiz-adv-x="0" 
d="M-173 708v-122h-118v122h118z" />
    <glyph glyph-name="uni0308" unicode="&#x308;" horiz-adv-x="0" 
d="M-265 708v-122h-118v122h118zM-81 708v-122h-118v122h118z" />
    <glyph glyph-name="uni030A" unicode="&#x30a;" horiz-adv-x="0" 
d="M-124 649q0 -49 -30 -76.5t-78 -27.5t-78 27.5t-30 76.5t30 76.5t78 27.5t78 -27.5t30 -76.5zM-196 649q0 19 -9.5 29.5t-26.5 10.5q-36 0 -36 -40t36 -40q17 0 26.5 10.5t9.5 29.5z" />
    <glyph glyph-name="uni030C" unicode="&#x30c;" horiz-adv-x="0" 
d="M-67 730l-116 -161h-98l-116 161h99l66 -80l66 80h99z" />
    <glyph glyph-name="uni0327" unicode="&#x327;" horiz-adv-x="0" 
d="M-351 -202l33 63q32 -24 72 -24q45 0 45 30q0 32 -53 32q-24 0 -39 -5l-17 22l40 84h85l-22 -45q45 -4 69.5 -28.5t24.5 -62.5q0 -47 -34 -74.5t-91 -27.5q-65 0 -113 36z" />
    <glyph glyph-name="tonos" unicode="&#x384;" horiz-adv-x="380" 
d="M275 730l-81 -181h-89l58 181h112z" />
    <glyph glyph-name="dieresistonos" unicode="&#x385;" horiz-adv-x="380" 
d="M157 629v-118h-118v118h118zM341 629v-118h-118v118h118zM316 768l-84 -113h-85l52 113h117z" />
    <glyph glyph-name="Alphatonos" unicode="&#x386;" horiz-adv-x="616" 
d="M134 0h-124l227 700h142l227 -700h-124l-45 149h-259zM406 253l-98 332l-99 -332h197zM184 700l-81 -181h-89l58 181h112z" />
    <glyph glyph-name="anoteleia" unicode="&#x387;" horiz-adv-x="282" 
d="M204 389v-126h-126v126h126z" />
    <glyph glyph-name="Epsilontonos" unicode="&#x388;" horiz-adv-x="651" 
d="M180 0v700h421v-104h-301v-185h265v-104h-265v-203h306v-104h-426zM150 700l-81 -181h-89l58 181h112z" />
    <glyph glyph-name="Etatonos" unicode="&#x389;" horiz-adv-x="742" 
d="M552 0v307h-252v-307h-120v700h120v-289h252v289h120v-700h-120zM150 700l-81 -181h-89l58 181h112z" />
    <glyph glyph-name="Iotatonos" unicode="&#x38a;" horiz-adv-x="370" 
d="M300 700v-700h-120v700h120zM150 700l-81 -181h-89l58 181h112z" />
    <glyph glyph-name="Omicrontonos" unicode="&#x38c;" horiz-adv-x="705" 
d="M535 350q0 144 -39 202q-38 56 -116 56t-116 -56q-39 -58 -39 -202t39 -202q38 -56 116 -56t116 56q39 58 39 202zM105 350q0 176 61 263q70 99 214 99t214 -99q61 -87 61 -263t-61 -263q-70 -99 -214 -99t-214 99q-61 87 -61 263zM150 700l-81 -181h-89l58 181h112z" />
    <glyph glyph-name="Upsilontonos" unicode="&#x38e;" horiz-adv-x="756" 
d="M453 382l162 318h126l-228 -424v-276h-120v276l-228 424h126zM150 700l-81 -181h-89l58 181h112z" />
    <glyph glyph-name="Omegatonos" unicode="&#x38f;" horiz-adv-x="705" 
d="M380 712q147 0 214 -99q61 -90 61 -249q0 -98 -31.5 -165.5t-85.5 -94.5h105v-104h-233v104q64 25 94.5 83.5t30.5 162.5q0 144 -39 202q-38 56 -116 56t-116 -56q-39 -58 -39 -202q0 -104 30.5 -162.5t94.5 -83.5v-104h-233v104h105q-54 27 -85.5 94.5t-31.5 165.5
q0 159 61 249q67 99 214 99zM150 700l-81 -181h-89l58 181h112z" />
    <glyph glyph-name="iotadieresistonos" unicode="&#x390;" horiz-adv-x="261" 
d="M60 117v383h114v-371q0 -22 8.5 -31t28.5 -9h15v-93q-16 -3 -46 -3q-65 0 -92.5 25.5t-27.5 98.5zM84 686v-118h-118v118h118zM268 686v-118h-118v118h118zM243 825l-84 -113h-85l52 113h117z" />
    <glyph glyph-name="Alpha" unicode="&#x391;" horiz-adv-x="616" 
d="M134 0h-124l227 700h142l227 -700h-124l-45 149h-259zM406 253l-98 332l-99 -332h197z" />
    <glyph glyph-name="Beta" unicode="&#x392;" horiz-adv-x="608" 
d="M190 412h117q62 0 92.5 21t30.5 71t-30.5 71t-92.5 21h-117v-184zM352 0h-282v700h262q218 0 218 -188q0 -113 -103 -147q57 -13 90 -57.5t33 -107.5q0 -200 -218 -200zM450 206q0 55 -30 79t-95 24h-135v-205h135q65 0 95 23.5t30 78.5z" />
    <glyph glyph-name="Gamma" unicode="&#x393;" horiz-adv-x="502" 
d="M70 700h422v-104h-302v-596h-120v700z" />
    <glyph glyph-name="uni0394" unicode="&#x394;" horiz-adv-x="616" 
d="M606 0h-596l227 700h142zM451 104l-143 481l-143 -481h286z" />
    <glyph glyph-name="Epsilon" unicode="&#x395;" horiz-adv-x="541" 
d="M70 0v700h421v-104h-301v-185h265v-104h-265v-203h306v-104h-426z" />
    <glyph glyph-name="Zeta" unicode="&#x396;" horiz-adv-x="542" 
d="M40 94l312 502h-302v104h447v-94l-312 -502h317v-104h-462v94z" />
    <glyph glyph-name="Eta" unicode="&#x397;" horiz-adv-x="632" 
d="M442 0v307h-252v-307h-120v700h120v-289h252v289h120v-700h-120z" />
    <glyph glyph-name="Theta" unicode="&#x398;" horiz-adv-x="650" 
d="M221 303v94h208v-94h-208zM480 350q0 144 -39 202q-38 56 -116 56t-116 -56q-39 -58 -39 -202t39 -202q38 -56 116 -56t116 56q39 58 39 202zM50 350q0 176 61 263q70 99 214 99t214 -99q61 -87 61 -263t-61 -263q-70 -99 -214 -99t-214 99q-61 87 -61 263z" />
    <glyph glyph-name="Iota" unicode="&#x399;" horiz-adv-x="260" 
d="M190 700v-700h-120v700h120z" />
    <glyph glyph-name="Kappa" unicode="&#x39a;" horiz-adv-x="596" 
d="M570 700l-214 -341l245 -359h-134l-208 307h-69v-307h-120v700h120v-289h69l180 289h131z" />
    <glyph glyph-name="Lambda" unicode="&#x39b;" horiz-adv-x="616" 
d="M482 0l-174 585l-174 -585h-124l227 700h142l227 -700h-124z" />
    <glyph glyph-name="Mu" unicode="&#x39c;" horiz-adv-x="842" 
d="M476 0h-110l-178 467v-467h-118v700h132l219 -570l219 570h132v-700h-118v467z" />
    <glyph glyph-name="Nu" unicode="&#x39d;" horiz-adv-x="642" 
d="M449 0l-261 491v-491h-118v700h123l261 -491v491h118v-700h-123z" />
    <glyph glyph-name="Xi" unicode="&#x39e;" horiz-adv-x="579" 
d="M50 596v104h479v-104h-479zM45 0v104h489v-104h-489zM86 307v104h407v-104h-407z" />
    <glyph glyph-name="Omicron" unicode="&#x39f;" horiz-adv-x="650" 
d="M480 350q0 144 -39 202q-38 56 -116 56t-116 -56q-39 -58 -39 -202t39 -202q38 -56 116 -56t116 56q39 58 39 202zM50 350q0 176 61 263q70 99 214 99t214 -99q61 -87 61 -263t-61 -263q-70 -99 -214 -99t-214 99q-61 87 -61 263z" />
    <glyph glyph-name="Pi" unicode="&#x3a0;" horiz-adv-x="632" 
d="M442 0v596h-252v-596h-120v700h492v-700h-120z" />
    <glyph glyph-name="Rho" unicode="&#x3a1;" horiz-adv-x="599" 
d="M190 362h141q59 0 89 30.5t30 86.5q0 117 -119 117h-141v-234zM348 258h-158v-258h-120v700h278q104 0 163 -58t59 -163q0 -106 -59 -163.5t-163 -57.5z" />
    <glyph glyph-name="Sigma" unicode="&#x3a3;" horiz-adv-x="530" 
d="M50 106l171 255l-171 234v105h445v-104h-303l155 -214v-43l-156 -235h304v-104h-445v106z" />
    <glyph glyph-name="Tau" unicode="&#x3a4;" horiz-adv-x="534" 
d="M15 596v104h504v-104h-192v-596h-120v596h-192z" />
    <glyph glyph-name="Upsilon" unicode="&#x3a5;" horiz-adv-x="606" 
d="M303 382l162 318h126l-228 -424v-276h-120v276l-228 424h126z" />
    <glyph glyph-name="Phi" unicode="&#x3a6;" horiz-adv-x="730" 
d="M425 700v-106q128 -9 199 -70t71 -174t-71.5 -175t-198.5 -70v-105h-120v105q-127 8 -198.5 70t-71.5 175t71 174t199 70v106h120zM155 350q0 -66 40 -102t110 -39v281q-70 -2 -110 -38t-40 -102zM575 350q0 66 -40 102t-110 38v-281q70 3 110 39t40 102z" />
    <glyph glyph-name="Chi" unicode="&#x3a7;" horiz-adv-x="608" 
d="M15 0l215 362l-200 338h132l142 -249l142 249h132l-201 -338l216 -362h-132l-157 272l-157 -272h-132z" />
    <glyph glyph-name="Psi" unicode="&#x3a8;" horiz-adv-x="692" 
d="M406 153v-153h-120v153q-109 15 -167.5 86t-58.5 180v281h120v-267q0 -150 106 -173v440h120v-440q106 24 106 173v267h120v-281q0 -109 -58.5 -180t-167.5 -86z" />
    <glyph glyph-name="uni03A9" unicode="&#x3a9;" horiz-adv-x="650" 
d="M325 712q147 0 214 -99q61 -90 61 -249q0 -98 -31.5 -165.5t-85.5 -94.5h105v-104h-233v104q64 25 94.5 83.5t30.5 162.5q0 144 -39 202q-38 56 -116 56t-116 -56q-39 -58 -39 -202q0 -104 30.5 -162.5t94.5 -83.5v-104h-233v104h105q-54 27 -85.5 94.5t-31.5 165.5
q0 159 61 249q67 99 214 99z" />
    <glyph glyph-name="Iotadieresis" unicode="&#x3aa;" horiz-adv-x="260" 
d="M190 700v-700h-120v700h120zM97 902v-122h-118v122h118zM281 902v-122h-118v122h118z" />
    <glyph glyph-name="Upsilondieresis" unicode="&#x3ab;" horiz-adv-x="606" 
d="M303 382l162 318h126l-228 -424v-276h-120v276l-228 424h126zM270 902v-122h-118v122h118zM454 902v-122h-118v122h118z" />
    <glyph glyph-name="alphatonos" unicode="&#x3ac;" horiz-adv-x="560" 
d="M376 77q-14 -41 -50.5 -65t-87.5 -24q-93 0 -144.5 64.5t-51.5 197.5t51.5 197.5t144.5 64.5q51 0 87.5 -24t50.5 -65v77h114v-371q0 -22 8.5 -31t28.5 -9h15v-93q-16 -3 -46 -3q-62 0 -88.5 18.5t-31.5 65.5zM266 82q60 0 85 43t25 125t-25 125t-85 43t-85 -43t-25 -125
t25 -125t85 -43zM423 725l-125 -161h-99l95 161h129z" />
    <glyph glyph-name="epsilontonos" unicode="&#x3ad;" horiz-adv-x="489" 
d="M249 304h77v-92h-74q-46 0 -72 -17.5t-26 -48.5t26 -48.5t72 -17.5q45 0 71.5 17t26.5 46v4h114v-7q0 -69 -56 -110.5t-156 -41.5t-156 41.5t-56 110.5q0 47 28 78.5t74 39.5q-39 9 -65 39t-26 69q0 64 50.5 105t147.5 41q98 0 148 -41.5t50 -108.5v-9h-114v9
q0 26 -21 42t-63 16t-63 -16t-21 -42t21 -42t63 -16zM386 725l-125 -161h-99l95 161h129z" />
    <glyph glyph-name="etatonos" unicode="&#x3ae;" horiz-adv-x="546" 
d="M488 315v-533h-114v531q0 105 -84 105q-52 0 -84 -36.5t-32 -102.5v-279h-114v500h114v-86q15 45 52 71.5t91 26.5q82 0 126.5 -51t44.5 -146zM420 725l-125 -161h-99l95 161h129z" />
    <glyph glyph-name="iotatonos" unicode="&#x3af;" horiz-adv-x="261" 
d="M60 117v383h114v-371q0 -22 8.5 -31t28.5 -9h15v-93q-16 -3 -46 -3q-65 0 -92.5 25.5t-27.5 98.5zM269 725l-125 -161h-99l95 161h129z" />
    <glyph glyph-name="upsilondieresistonos" unicode="&#x3b0;" horiz-adv-x="536" 
d="M268 -12q-101 0 -157 50t-56 147v315h114v-313q0 -105 99 -105t99 105v313h114v-315q0 -97 -56 -147t-157 -50zM235 686v-118h-118v118h118zM419 686v-118h-118v118h118zM394 825l-84 -113h-85l52 113h117z" />
    <glyph glyph-name="alpha" unicode="&#x3b1;" horiz-adv-x="560" 
d="M376 77q-14 -41 -50.5 -65t-87.5 -24q-93 0 -144.5 64.5t-51.5 197.5t51.5 197.5t144.5 64.5q51 0 87.5 -24t50.5 -65v77h114v-371q0 -22 8.5 -31t28.5 -9h15v-93q-16 -3 -46 -3q-62 0 -88.5 18.5t-31.5 65.5zM266 82q60 0 85 43t25 125t-25 125t-85 43t-85 -43t-25 -125
t25 -125t85 -43z" />
    <glyph glyph-name="beta" unicode="&#x3b2;" horiz-adv-x="565" 
d="M500 514q0 -56 -31 -95.5t-87 -50.5q64 -6 106 -51.5t42 -116.5q0 -100 -59 -156t-149 -56q-117 0 -148 89v-295h-114v712q0 103 57 160.5t163 57.5q104 0 162 -55t58 -143zM386 509q0 51 -28 80t-78 29q-106 0 -106 -129v-273q0 -134 121 -134q59 0 90 32t31 92
q0 54 -36 84.5t-100 30.5h-24v94h24q51 0 78.5 25t27.5 69z" />
    <glyph glyph-name="gamma" unicode="&#x3b3;" horiz-adv-x="518" 
d="M316 -218h-114v208l-187 510h119l125 -373l125 373h119l-187 -510v-208z" />
    <glyph glyph-name="delta" unicode="&#x3b4;" horiz-adv-x="532" 
d="M90 606v94h363v-94h-205l160 -135q82 -69 82 -221q0 -262 -224 -262t-224 262q0 119 47 183t131 71zM266 82q60 0 85 43t25 125t-25 125t-85 43t-85 -43t-25 -125t25 -125t85 -43z" />
    <glyph glyph-name="epsilon" unicode="&#x3b5;" horiz-adv-x="489" 
d="M249 304h77v-92h-74q-46 0 -72 -17.5t-26 -48.5t26 -48.5t72 -17.5q45 0 71.5 17t26.5 46v4h114v-7q0 -69 -56 -110.5t-156 -41.5t-156 41.5t-56 110.5q0 47 28 78.5t74 39.5q-39 9 -65 39t-26 69q0 64 50.5 105t147.5 41q98 0 148 -41.5t50 -108.5v-9h-114v9
q0 26 -21 42t-63 16t-63 -16t-21 -42t21 -42t63 -16z" />
    <glyph glyph-name="zeta" unicode="&#x3b6;" horiz-adv-x="455" 
d="M373 78q30 -1 41 -11.5t11 -35.5q0 -38 -23 -95t-59 -109l-83 26q41 81 54 136q-137 1 -206.5 55.5t-69.5 155.5q0 118 69 223.5t190 182.5h-208v94h336v-97q-139 -88 -206 -184.5t-67 -209.5q0 -67 48 -97.5t173 -33.5z" />
    <glyph glyph-name="eta" unicode="&#x3b7;" horiz-adv-x="546" 
d="M488 315v-533h-114v531q0 105 -84 105q-52 0 -84 -36.5t-32 -102.5v-279h-114v500h114v-86q15 45 52 71.5t91 26.5q82 0 126.5 -51t44.5 -146z" />
    <glyph glyph-name="theta" unicode="&#x3b8;" horiz-adv-x="578" 
d="M530 350q0 -195 -57 -278.5t-184 -83.5t-184 83.5t-57 278.5t57 278.5t184 83.5t184 -83.5t57 -278.5zM201 577q-35 -52 -39 -180h253q-4 123 -33 172t-93 49q-60 0 -88 -41zM377 123q34 52 38 180h-253q4 -124 33.5 -172.5t93.5 -48.5q60 0 88 41z" />
    <glyph glyph-name="iota" unicode="&#x3b9;" horiz-adv-x="261" 
d="M60 117v383h114v-371q0 -22 8.5 -31t28.5 -9h15v-93q-16 -3 -46 -3q-65 0 -92.5 25.5t-27.5 98.5z" />
    <glyph glyph-name="kappa" unicode="&#x3ba;" horiz-adv-x="496" 
d="M60 0v500h114v-195h47l123 195h124l-155 -240l178 -260h-128l-143 217h-46v-217h-114z" />
    <glyph glyph-name="lambda" unicode="&#x3bb;" horiz-adv-x="489" 
d="M190 498l-24 66q-19 54 -67 54h-37v92q13 2 47 2q63 0 100 -23.5t61 -89.5l219 -599h-119l-126 357l-125 -357h-119z" />
    <glyph glyph-name="uni03BC" unicode="&#x3bc;" horiz-adv-x="548" 
d="M174 500v-313q0 -105 84 -105q52 0 84 36.5t32 102.5v279h114v-500h-114v86q-13 -44 -45 -71t-70 -27q-31 0 -53.5 15.5t-31.5 40.5v-262h-114v718h114z" />
    <glyph glyph-name="nu" unicode="&#x3bd;" horiz-adv-x="518" 
d="M325 0h-132l-178 500h119l125 -388l125 388h119z" />
    <glyph glyph-name="xi" unicode="&#x3be;" horiz-adv-x="476" 
d="M445 31q0 -38 -23 -95t-59 -109l-83 26q41 81 54 136q-139 1 -217.5 57.5t-78.5 158.5q0 74 43.5 127t114.5 76q-58 12 -92.5 48.5t-34.5 92.5q0 72 49 117.5t142 45.5q91 0 139.5 -43t51.5 -112h-115q-9 61 -76 61q-77 0 -77 -79t97 -79h61v-94h-35q-62 0 -108 -42
t-46 -105q0 -68 56 -103.5t185 -37.5q30 -1 41 -11.5t11 -35.5z" />
    <glyph glyph-name="omicron" unicode="&#x3bf;" horiz-adv-x="532" 
d="M266 82q60 0 85 43t25 125t-25 125t-85 43t-85 -43t-25 -125t25 -125t85 -43zM266 512q111 0 167.5 -67.5t56.5 -194.5t-56.5 -194.5t-167.5 -67.5t-167.5 67.5t-56.5 194.5t56.5 194.5t167.5 67.5z" />
    <glyph glyph-name="pi" unicode="&#x3c0;" horiz-adv-x="566" 
d="M215 406v-406h-114v406h-71v94h506v-94h-71v-406h-114v406h-136z" />
    <glyph glyph-name="rho" unicode="&#x3c1;" horiz-adv-x="540" 
d="M498 250q0 -133 -51.5 -197.5t-144.5 -64.5q-51 0 -87.5 24t-50.5 65v-295h-114v468q0 262 224 262t224 -262zM274 82q60 0 85 43t25 125t-25 125t-85 43t-85 -43t-25 -125t25 -125t85 -43z" />
    <glyph glyph-name="sigma1" unicode="&#x3c2;" horiz-adv-x="513" 
d="M266 418q-110 0 -110 -148q0 -106 54 -147.5t186 -44.5q30 -1 41 -11.5t11 -35.5q0 -34 -24.5 -99t-57.5 -105l-83 26q40 78 54 136q-141 6 -218 72t-77 209q0 115 59 178.5t165 63.5q95 0 151.5 -46t65.5 -131h-115q-4 39 -30.5 61t-71.5 22z" />
    <glyph glyph-name="sigma" unicode="&#x3c3;" horiz-adv-x="540" 
d="M523 406h-119q39 -11 62.5 -52.5t23.5 -109.5q0 -126 -57 -191t-167 -65t-167 65t-57 191t57 191t167 65h257v-94zM266 82q60 0 85 40.5t25 121.5t-25 121.5t-85 40.5t-85 -40.5t-25 -121.5t25 -121.5t85 -40.5z" />
    <glyph glyph-name="tau" unicode="&#x3c4;" horiz-adv-x="455" 
d="M274 406v-264q0 -33 12.5 -44t46.5 -11h26v-91q-24 -3 -53 -3q-81 0 -113.5 30t-32.5 112v271h-150v94h425v-94h-161z" />
    <glyph glyph-name="upsilon" unicode="&#x3c5;" horiz-adv-x="536" 
d="M268 -12q-101 0 -157 50t-56 147v315h114v-313q0 -105 99 -105t99 105v313h114v-315q0 -97 -56 -147t-157 -50z" />
    <glyph glyph-name="phi" unicode="&#x3c6;" horiz-adv-x="702" 
d="M218 493l17 -93q-42 -11 -60.5 -46t-18.5 -110q0 -94 31.5 -128t106.5 -34v418h109q137 0 197 -64t60 -192q0 -127 -58.5 -191t-193.5 -65v-206h-114v206q-135 1 -193.5 65t-58.5 191q0 109 41.5 170.5t134.5 78.5zM546 244q0 93 -31.5 127t-106.5 35v-324q75 0 106.5 34
t31.5 128z" />
    <glyph glyph-name="chi" unicode="&#x3c7;" horiz-adv-x="494" 
d="M372 -218l-125 270l-125 -270h-122l178 369l-168 349h122l115 -251l115 251h122l-168 -349l178 -369h-122z" />
    <glyph glyph-name="psi" unicode="&#x3c8;" horiz-adv-x="666" 
d="M390 -218h-114v209q-106 9 -163.5 66.5t-57.5 152.5v290h114v-288q0 -53 27 -86t80 -39v413h114v-413q53 6 80 39t27 86v288h114v-290q0 -95 -58 -152.5t-163 -66.5v-209z" />
    <glyph glyph-name="omega" unicode="&#x3c9;" horiz-adv-x="760" 
d="M323 402h114v-169q0 -81 19 -116t63 -35t63 35t19 116q0 121 -52 267h116q50 -139 50 -266q0 -246 -186 -246q-120 0 -149 111q-29 -111 -149 -111q-186 0 -186 246q0 127 50 266h116q-52 -146 -52 -267q0 -81 19 -116t63 -35t63 35t19 116v169z" />
    <glyph glyph-name="iotadieresis" unicode="&#x3ca;" horiz-adv-x="261" 
d="M84 703v-122h-118v122h118zM268 703v-122h-118v122h118zM60 117v383h114v-371q0 -22 8.5 -31t28.5 -9h15v-93q-16 -3 -46 -3q-65 0 -92.5 25.5t-27.5 98.5z" />
    <glyph glyph-name="upsilondieresis" unicode="&#x3cb;" horiz-adv-x="536" 
d="M268 -12q-101 0 -157 50t-56 147v315h114v-313q0 -105 99 -105t99 105v313h114v-315q0 -97 -56 -147t-157 -50zM235 703v-122h-118v122h118zM419 703v-122h-118v122h118z" />
    <glyph glyph-name="omicrontonos" unicode="&#x3cc;" horiz-adv-x="532" 
d="M266 82q60 0 85 43t25 125t-25 125t-85 43t-85 -43t-25 -125t25 -125t85 -43zM266 512q111 0 167.5 -67.5t56.5 -194.5t-56.5 -194.5t-167.5 -67.5t-167.5 67.5t-56.5 194.5t56.5 194.5t167.5 67.5zM403 725l-125 -161h-99l95 161h129z" />
    <glyph glyph-name="upsilontonos" unicode="&#x3cd;" horiz-adv-x="536" 
d="M268 -12q-101 0 -157 50t-56 147v315h114v-313q0 -105 99 -105t99 105v313h114v-315q0 -97 -56 -147t-157 -50zM410 725l-125 -161h-99l95 161h129z" />
    <glyph glyph-name="omegatonos" unicode="&#x3ce;" horiz-adv-x="760" 
d="M323 402h114v-169q0 -81 19 -116t63 -35t63 35t19 116q0 121 -52 267h116q50 -139 50 -266q0 -246 -186 -246q-120 0 -149 111q-29 -111 -149 -111q-186 0 -186 246q0 127 50 266h116q-52 -146 -52 -267q0 -81 19 -116t63 -35t63 35t19 116v169zM512 725l-125 -161h-99
l95 161h129z" />
    <glyph glyph-name="uni0400" unicode="&#x400;" horiz-adv-x="541" 
d="M70 0v700h421v-104h-301v-185h265v-104h-265v-203h306v-104h-426zM263 763l-125 161h129l95 -161h-99z" />
    <glyph glyph-name="afii10023" unicode="&#x401;" horiz-adv-x="541" 
d="M70 0v700h421v-104h-301v-185h265v-104h-265v-203h306v-104h-426zM247 902v-122h-118v122h118zM431 902v-122h-118v122h118z" />
    <glyph glyph-name="afii10051" unicode="&#x402;" horiz-adv-x="712" 
d="M547 159v94q0 105 -94 105q-79 0 -126 -42v-316h-120v596h-192v104h504v-104h-192v-179q58 45 145 45q195 0 195 -197v-120q0 -75 -43 -113.5t-124 -38.5q-31 0 -47 3v101h37q57 0 57 62z" />
    <glyph glyph-name="afii10052" unicode="&#x403;" horiz-adv-x="502" 
d="M70 700h422v-104h-302v-596h-120v700zM415 924l-125 -161h-99l95 161h129z" />
    <glyph glyph-name="afii10053" unicode="&#x404;" horiz-adv-x="638" 
d="M50 350q0 176 61 263q70 99 214 99q121 0 192 -68t76 -178h-120q-2 66 -41 104t-107 38q-78 0 -116 -56q-34 -49 -38 -150h207v-104h-207q4 -101 38 -150q38 -56 116 -56q68 0 107 38t41 104h120q-5 -110 -76 -178t-192 -68q-144 0 -214 99q-61 87 -61 263z" />
    <glyph glyph-name="afii10054" unicode="&#x405;" horiz-adv-x="580" 
d="M540 198q0 -94 -65.5 -152t-179.5 -58t-179.5 58t-65.5 152v12h120v-15q0 -47 34 -75t91 -28t91 28t34 75q0 82 -99 103l-90 19q-181 38 -181 197q0 85 60.5 141.5t171.5 56.5t171.5 -56.5t60.5 -141.5v-9h-120v9q0 42 -29.5 68t-82.5 26t-82.5 -26t-29.5 -68
q0 -40 24 -62t75 -33l90 -19q87 -18 134 -69t47 -133z" />
    <glyph glyph-name="afii10055" unicode="&#x406;" horiz-adv-x="260" 
d="M190 700v-700h-120v700h120z" />
    <glyph glyph-name="afii10056" unicode="&#x407;" horiz-adv-x="260" 
d="M190 700v-700h-120v700h120zM97 902v-122h-118v122h118zM281 902v-122h-118v122h118z" />
    <glyph glyph-name="afii10057" unicode="&#x408;" horiz-adv-x="538" 
d="M20 223h120q4 -131 106 -131q106 0 106 140v468h120v-486q0 -109 -60 -167.5t-167 -58.5q-106 0 -165.5 58.5t-59.5 167.5v9z" />
    <glyph glyph-name="afii10058" unicode="&#x409;" horiz-adv-x="972" 
d="M582 700v-288h127q228 0 228 -206t-228 -206h-247v596h-232v-431q0 -100 -38.5 -136t-130.5 -36q-29 0 -51 3v101h31q38 0 53.5 14.5t15.5 55.5v533h472zM582 308v-204h112q64 0 93.5 24.5t29.5 77.5t-29.5 77.5t-93.5 24.5h-112z" />
    <glyph glyph-name="afii10059" unicode="&#x40a;" horiz-adv-x="942" 
d="M552 700v-288h127q228 0 228 -206t-228 -206h-247v307h-242v-307h-120v700h120v-289h242v289h120zM552 308v-204h112q64 0 93.5 24.5t29.5 77.5t-29.5 77.5t-93.5 24.5h-112z" />
    <glyph glyph-name="afii10060" unicode="&#x40b;" horiz-adv-x="717" 
d="M667 265v-265h-120v253q0 105 -94 105q-79 0 -126 -42v-316h-120v596h-192v104h504v-104h-192v-179q58 45 145 45q195 0 195 -197z" />
    <glyph glyph-name="afii10061" unicode="&#x40c;" horiz-adv-x="596" 
d="M570 700l-214 -341l245 -359h-134l-208 307h-69v-307h-120v700h120v-289h69l180 289h131zM443 924l-125 -161h-99l95 161h129z" />
    <glyph glyph-name="uni040D" unicode="&#x40d;" horiz-adv-x="642" 
d="M193 0l261 491v-491h118v700h-123l-261 -491v491h-118v-700h123zM314 763l-125 161h129l95 -161h-99z" />
    <glyph glyph-name="afii10062" unicode="&#x40e;" horiz-adv-x="596" 
d="M179 0q-33 0 -49 2v102h34q27 0 42 10t26 37l12 28l-226 521h126l161 -372l155 372h126l-236 -569q-31 -76 -67 -103.5t-104 -27.5zM302 765q-67 0 -110 39.5t-47 108.5h98q3 -64 59 -64t59 64h98q-4 -69 -47 -108.5t-110 -39.5z" />
    <glyph glyph-name="afii10145" unicode="&#x40f;" horiz-adv-x="632" 
d="M442 104v596h120v-700h-186v-120h-120v120h-186v700h120v-596h252z" />
    <glyph glyph-name="afii10017" unicode="&#x410;" horiz-adv-x="616" 
d="M134 0h-124l227 700h142l227 -700h-124l-45 149h-259zM406 253l-98 332l-99 -332h197z" />
    <glyph glyph-name="afii10018" unicode="&#x411;" horiz-adv-x="580" 
d="M503 700v-104h-313v-184h127q228 0 228 -206t-228 -206h-247v700h433zM190 308v-204h112q64 0 93.5 24.5t29.5 77.5t-29.5 77.5t-93.5 24.5h-112z" />
    <glyph glyph-name="afii10019" unicode="&#x412;" horiz-adv-x="608" 
d="M190 412h117q62 0 92.5 21t30.5 71t-30.5 71t-92.5 21h-117v-184zM352 0h-282v700h262q218 0 218 -188q0 -113 -103 -147q57 -13 90 -57.5t33 -107.5q0 -200 -218 -200zM450 206q0 55 -30 79t-95 24h-135v-205h135q65 0 95 23.5t30 78.5z" />
    <glyph glyph-name="afii10020" unicode="&#x413;" horiz-adv-x="502" 
d="M70 700h422v-104h-302v-596h-120v700z" />
    <glyph glyph-name="afii10021" unicode="&#x414;" horiz-adv-x="642" 
d="M622 104v-224h-120v120h-370v-120h-120v224h69q32 124 32 308v288h434v-596h75zM205 104h222v492h-194v-193q0 -183 -28 -299z" />
    <glyph glyph-name="afii10022" unicode="&#x415;" horiz-adv-x="541" 
d="M70 0v700h421v-104h-301v-185h265v-104h-265v-203h306v-104h-426z" />
    <glyph glyph-name="afii10024" unicode="&#x416;" horiz-adv-x="886" 
d="M223 359l-187 341h130l155 -289h62v289h120v-289h62l155 289h130l-187 -341l218 -359h-135l-181 307h-62v-307h-120v307h-62l-181 -307h-135z" />
    <glyph glyph-name="afii10025" unicode="&#x417;" horiz-adv-x="573" 
d="M40 200v11h121v-6q0 -52 33 -82.5t90 -30.5t90 30.5t33 82.5q0 56 -33.5 85.5t-94.5 29.5h-82v103h82q108 0 108 93q0 41 -26.5 66.5t-76.5 25.5t-76.5 -25.5t-26.5 -66.5v-5h-120v13q0 82 58.5 135t164.5 53t164.5 -53t58.5 -135q0 -60 -30 -99.5t-82 -52.5
q63 -14 98 -58.5t35 -113.5q0 -96 -66.5 -154t-177.5 -58t-177.5 58t-66.5 154z" />
    <glyph glyph-name="afii10026" unicode="&#x418;" horiz-adv-x="642" 
d="M454 491l-261 -491h-123v700h118v-491l261 491h123v-700h-118v491z" />
    <glyph glyph-name="afii10027" unicode="&#x419;" horiz-adv-x="642" 
d="M193 0l261 491v-491h118v700h-123l-261 -491v491h-118v-700h123zM321 765q-67 0 -110 39.5t-47 108.5h98q3 -64 59 -64t59 64h98q-4 -69 -47 -108.5t-110 -39.5z" />
    <glyph glyph-name="afii10028" unicode="&#x41a;" horiz-adv-x="596" 
d="M570 700l-214 -341l245 -359h-134l-208 307h-69v-307h-120v700h120v-289h69l180 289h131z" />
    <glyph glyph-name="afii10029" unicode="&#x41b;" horiz-adv-x="662" 
d="M110 167v533h482v-700h-120v596h-242v-431q0 -100 -38.5 -136t-130.5 -36q-29 0 -51 3v101h31q38 0 53.5 14.5t15.5 55.5z" />
    <glyph glyph-name="afii10030" unicode="&#x41c;" horiz-adv-x="842" 
d="M476 0h-110l-178 467v-467h-118v700h132l219 -570l219 570h132v-700h-118v467z" />
    <glyph glyph-name="afii10031" unicode="&#x41d;" horiz-adv-x="632" 
d="M442 0v307h-252v-307h-120v700h120v-289h252v289h120v-700h-120z" />
    <glyph glyph-name="afii10032" unicode="&#x41e;" horiz-adv-x="650" 
d="M480 350q0 144 -39 202q-38 56 -116 56t-116 -56q-39 -58 -39 -202t39 -202q38 -56 116 -56t116 56q39 58 39 202zM50 350q0 176 61 263q70 99 214 99t214 -99q61 -87 61 -263t-61 -263q-70 -99 -214 -99t-214 99q-61 87 -61 263z" />
    <glyph glyph-name="afii10033" unicode="&#x41f;" horiz-adv-x="632" 
d="M442 0v596h-252v-596h-120v700h492v-700h-120z" />
    <glyph glyph-name="afii10034" unicode="&#x420;" horiz-adv-x="599" 
d="M190 362h141q59 0 89 30.5t30 86.5q0 117 -119 117h-141v-234zM348 258h-158v-258h-120v700h278q104 0 163 -58t59 -163q0 -106 -59 -163.5t-163 -57.5z" />
    <glyph glyph-name="afii10035" unicode="&#x421;" horiz-adv-x="638" 
d="M50 350q0 176 61 263q70 99 214 99q121 0 192 -68t76 -178h-120q-2 66 -41 104t-107 38q-78 0 -116 -56q-39 -58 -39 -202t39 -202q38 -56 116 -56q68 0 107 38t41 104h120q-5 -110 -76 -178t-192 -68q-144 0 -214 99q-61 87 -61 263z" />
    <glyph glyph-name="afii10036" unicode="&#x422;" horiz-adv-x="534" 
d="M15 596v104h504v-104h-192v-596h-120v596h-192z" />
    <glyph glyph-name="afii10037" unicode="&#x423;" horiz-adv-x="596" 
d="M179 0q-33 0 -49 2v102h34q27 0 42 10t26 37l12 28l-226 521h126l161 -372l155 372h126l-236 -569q-31 -76 -67 -103.5t-104 -27.5z" />
    <glyph glyph-name="afii10038" unicode="&#x424;" horiz-adv-x="730" 
d="M425 700v-106q128 -9 199 -70t71 -174t-71.5 -175t-198.5 -70v-105h-120v105q-127 8 -198.5 70t-71.5 175t71 174t199 70v106h120zM155 350q0 -66 40 -102t110 -39v281q-70 -2 -110 -38t-40 -102zM575 350q0 66 -40 102t-110 38v-281q70 3 110 39t40 102z" />
    <glyph glyph-name="afii10039" unicode="&#x425;" horiz-adv-x="608" 
d="M15 0l215 362l-200 338h132l142 -249l142 249h132l-201 -338l216 -362h-132l-157 272l-157 -272h-132z" />
    <glyph glyph-name="afii10040" unicode="&#x426;" horiz-adv-x="657" 
d="M517 -120v120h-447v700h120v-596h252v596h120v-596h75v-224h-120z" />
    <glyph glyph-name="afii10041" unicode="&#x427;" horiz-adv-x="610" 
d="M420 0v285q-26 -21 -68.5 -34t-86.5 -13q-105 0 -155 50.5t-50 156.5v255h120v-243q0 -63 24 -89t80 -26q90 0 136 44v314h120v-700h-120z" />
    <glyph glyph-name="afii10042" unicode="&#x428;" horiz-adv-x="956" 
d="M766 104v596h120v-700h-816v700h120v-596h228v596h120v-596h228z" />
    <glyph glyph-name="afii10043" unicode="&#x429;" horiz-adv-x="981" 
d="M841 0h-771v700h120v-596h228v596h120v-596h228v596h120v-596h75v-224h-120v120z" />
    <glyph glyph-name="afii10044" unicode="&#x42a;" horiz-adv-x="697" 
d="M15 596v104h292v-288h127q228 0 228 -206t-228 -206h-247v596h-172zM307 308v-204h112q64 0 93.5 24.5t29.5 77.5t-29.5 77.5t-93.5 24.5h-112z" />
    <glyph glyph-name="afii10045" unicode="&#x42b;" horiz-adv-x="812" 
d="M742 700v-700h-120v700h120zM190 700v-288h127q228 0 228 -206t-228 -206h-247v700h120zM190 308v-204h112q64 0 93.5 24.5t29.5 77.5t-29.5 77.5t-93.5 24.5h-112z" />
    <glyph glyph-name="afii10046" unicode="&#x42c;" horiz-adv-x="580" 
d="M190 700v-288h127q228 0 228 -206t-228 -206h-247v700h120zM190 308v-204h112q64 0 93.5 24.5t29.5 77.5t-29.5 77.5t-93.5 24.5h-112z" />
    <glyph glyph-name="afii10047" unicode="&#x42d;" horiz-adv-x="638" 
d="M588 350q0 -176 -61 -263q-70 -99 -214 -99q-121 0 -192 68t-76 178h120q2 -66 41 -104t107 -38q78 0 116 56q34 49 38 150h-207v104h207q-4 101 -38 150q-38 56 -116 56q-68 0 -107 -38t-41 -104h-120q5 110 76 178t192 68q144 0 214 -99q61 -87 61 -263z" />
    <glyph glyph-name="afii10048" unicode="&#x42e;" horiz-adv-x="862" 
d="M190 298v-298h-120v700h120v-298h73q7 135 60 211q70 99 214 99t214 -99q61 -87 61 -263t-61 -263q-70 -99 -214 -99t-214 99q-53 74 -60 211h-73zM692 350q0 144 -39 202q-38 56 -116 56t-116 -56q-39 -58 -39 -202t39 -202q38 -56 116 -56t116 56q39 58 39 202z" />
    <glyph glyph-name="afii10049" unicode="&#x42f;" horiz-adv-x="621" 
d="M182 153l-5 -91q-1 -36 -10 -62h-122q9 24 12 64l6 98q4 69 29 103.5t77 45.5q-118 38 -118 176q0 103 57 158t166 55h277v-700h-120v258h-133q-58 0 -85.5 -25t-30.5 -80zM293 362h138v234h-138q-122 0 -122 -117t122 -117z" />
    <glyph glyph-name="afii10065" unicode="&#x430;" horiz-adv-x="532" 
d="M360 56q-11 -30 -47 -49t-89 -19q-86 0 -136 41.5t-50 117.5t50 117.5t136 41.5q49 0 86.5 -17.5t49.5 -49.5v82q0 97 -96 97q-84 0 -93 -67h-115q5 75 58.5 118t149.5 43q104 0 157 -50.5t53 -139.5v-253q0 -40 12 -69h-117q-7 17 -9 56zM256 75q104 0 104 72t-104 72
t-104 -72t104 -72z" />
    <glyph glyph-name="afii10066" unicode="&#x431;" horiz-adv-x="537" 
d="M161 250q0 -83 24.5 -125.5t85.5 -42.5t85.5 42.5t24.5 125.5t-24.5 125.5t-85.5 42.5t-85.5 -42.5t-24.5 -125.5zM47 310q0 148 17.5 220.5t59 105.5t129.5 49l147 27l32 -95l-161 -29q-66 -12 -88 -43.5t-22 -121.5q14 41 51 65t90 24q91 0 142 -64.5t51 -197.5
q0 -262 -224 -262q-117 0 -170.5 74t-53.5 248z" />
    <glyph glyph-name="afii10067" unicode="&#x432;" horiz-adv-x="502" 
d="M295 0h-235v500h227q86 0 127.5 -36.5t41.5 -101.5q0 -79 -74 -103q88 -22 88 -112q0 -147 -175 -147zM282 211h-108v-120h108q74 0 74 60t-74 60zM174 301h101q35 0 50.5 13t15.5 41t-15.5 41t-50.5 13h-101v-108z" />
    <glyph glyph-name="afii10068" unicode="&#x433;" horiz-adv-x="410" 
d="M390 406h-216v-406h-114v500h330v-94z" />
    <glyph glyph-name="afii10069" unicode="&#x434;" horiz-adv-x="528" 
d="M513 94v-204h-114v110h-275v-110h-114v204h58q20 96 20 224v182h364v-406h61zM183 94h155v312h-136v-98q0 -123 -19 -214z" />
    <glyph glyph-name="afii10070" unicode="&#x435;" horiz-adv-x="532" 
d="M490 215h-333q6 -133 109 -133q40 0 66 18.5t32 51.5h116q-14 -79 -69 -121.5t-145 -42.5q-111 0 -167.5 67.5t-56.5 194.5t56.5 194.5t167.5 67.5t167.5 -67.5t56.5 -194.5v-35zM158 299h216q-10 119 -108 119t-108 -119z" />
    <glyph glyph-name="afii10072" unicode="&#x436;" horiz-adv-x="724" 
d="M305 305v195h114v-195h47l105 195h120l-133 -240l156 -260h-124l-125 217h-46v-217h-114v217h-46l-125 -217h-124l156 260l-133 240h120l105 -195h47z" />
    <glyph glyph-name="afii10073" unicode="&#x437;" horiz-adv-x="494" 
d="M168 304h77q42 0 63 16t21 42t-21 42t-63 16t-63 -16t-21 -42v-9h-114v9q0 67 50 108.5t148 41.5q97 0 147.5 -41t50.5 -105q0 -39 -26 -69t-65 -39q46 -8 74 -39.5t28 -78.5q0 -69 -56 -110.5t-156 -41.5t-156 41.5t-56 110.5v7h114v-4q0 -29 26.5 -46t71.5 -17
q46 0 72 17.5t26 48.5t-26 48.5t-72 17.5h-74v92z" />
    <glyph glyph-name="afii10074" unicode="&#x438;" horiz-adv-x="528" 
d="M174 187l187 313h107v-500h-114v313l-187 -313h-107v500h114v-313z" />
    <glyph glyph-name="afii10075" unicode="&#x439;" horiz-adv-x="528" 
d="M174 187l187 313h107v-500h-114v313l-187 -313h-107v500h114v-313zM269 568q-67 0 -110 39.5t-47 108.5h98q3 -64 59 -64t59 64h98q-4 -69 -47 -108.5t-110 -39.5z" />
    <glyph glyph-name="afii10076" unicode="&#x43a;" horiz-adv-x="496" 
d="M60 0v500h114v-195h47l123 195h124l-155 -240l178 -260h-128l-143 217h-46v-217h-114z" />
    <glyph glyph-name="afii10077" unicode="&#x43b;" horiz-adv-x="553" 
d="M493 500v-500h-114v406h-166v-256q0 -87 -38.5 -122t-123.5 -35q-20 0 -36 2v93h26q31 0 44.5 15t13.5 52v345h394z" />
    <glyph glyph-name="afii10078" unicode="&#x43c;" horiz-adv-x="661" 
d="M163 500l167 -377l168 377h103v-500h-110v265l-117 -265h-87l-117 265v-265h-110v500h103z" />
    <glyph glyph-name="afii10079" unicode="&#x43d;" horiz-adv-x="524" 
d="M464 500v-500h-114v210h-176v-210h-114v500h114v-196h176v196h114z" />
    <glyph glyph-name="afii10080" unicode="&#x43e;" horiz-adv-x="532" 
d="M266 82q60 0 85 43t25 125t-25 125t-85 43t-85 -43t-25 -125t25 -125t85 -43zM266 512q111 0 167.5 -67.5t56.5 -194.5t-56.5 -194.5t-167.5 -67.5t-167.5 67.5t-56.5 194.5t56.5 194.5t167.5 67.5z" />
    <glyph glyph-name="afii10081" unicode="&#x43f;" horiz-adv-x="524" 
d="M464 500v-500h-114v406h-176v-406h-114v500h404z" />
    <glyph glyph-name="afii10082" unicode="&#x440;" horiz-adv-x="550" 
d="M174 500v-77q14 41 50.5 65t87.5 24q93 0 144.5 -64.5t51.5 -197.5t-51.5 -197.5t-144.5 -64.5q-51 0 -87.5 24t-50.5 65v-295h-114v718h114zM284 82q60 0 85 43t25 125t-25 125t-85 43t-85 -43t-25 -125t25 -125t85 -43z" />
    <glyph glyph-name="afii10083" unicode="&#x441;" horiz-adv-x="520" 
d="M42 250q0 127 56.5 194.5t167.5 67.5q95 0 151.5 -46t65.5 -131h-115q-4 39 -30.5 61t-71.5 22q-60 0 -85 -43t-25 -125t25 -125t85 -43q45 0 71.5 22t30.5 61h115q-9 -85 -65.5 -131t-151.5 -46q-111 0 -167.5 67.5t-56.5 194.5z" />
    <glyph glyph-name="afii10084" unicode="&#x442;" horiz-adv-x="458" 
d="M172 406h-152v94h418v-94h-152v-406h-114v406z" />
    <glyph glyph-name="afii10085" unicode="&#x443;" horiz-adv-x="519" 
d="M181 -70l24 68l-190 502h119l128 -360l123 360h119l-219 -605q-24 -66 -61 -89.5t-100 -23.5q-34 0 -47 2v92h37q48 0 67 54z" />
    <glyph glyph-name="afii10086" unicode="&#x444;" horiz-adv-x="866" 
d="M490 77v-295h-114v295q-14 -41 -50.5 -65t-87.5 -24q-93 0 -144.5 64.5t-51.5 197.5t51.5 197.5t144.5 64.5q51 0 87.5 -24t50.5 -65v277h114v-277q14 41 50.5 65t87.5 24q93 0 144.5 -64.5t51.5 -197.5t-51.5 -197.5t-144.5 -64.5q-51 0 -87.5 24t-50.5 65zM266 82
q60 0 85 43t25 125t-25 125t-85 43t-85 -43t-25 -125t25 -125t85 -43zM600 82q60 0 85 43t25 125t-25 125t-85 43t-85 -43t-25 -125t25 -125t85 -43z" />
    <glyph glyph-name="afii10087" unicode="&#x445;" horiz-adv-x="482" 
d="M242 180l-108 -180h-124l164 257l-154 243h124l98 -166l98 166h124l-154 -243l164 -257h-124z" />
    <glyph glyph-name="afii10088" unicode="&#x446;" horiz-adv-x="540" 
d="M525 94v-204h-114v110h-351v500h114v-406h176v406h114v-406h61z" />
    <glyph glyph-name="afii10089" unicode="&#x447;" horiz-adv-x="506" 
d="M332 0v183q-47 -33 -116 -33q-84 0 -125 40.5t-41 127.5v182h114v-174q0 -44 17 -63t56 -19q61 0 95 32v224h114v-500h-114z" />
    <glyph glyph-name="afii10090" unicode="&#x448;" horiz-adv-x="774" 
d="M714 500v-500h-654v500h114v-406h156v406h114v-406h156v406h114z" />
    <glyph glyph-name="afii10091" unicode="&#x449;" horiz-adv-x="790" 
d="M714 500v-406h61v-204h-114v110h-601v500h114v-406h156v406h114v-406h156v406h114z" />
    <glyph glyph-name="afii10092" unicode="&#x44a;" horiz-adv-x="582" 
d="M370 0h-218v406h-132v94h246v-174h104q86 0 133 -42t47 -121t-47 -121t-133 -42zM436 163q0 69 -80 69h-90v-138h90q80 0 80 69z" />
    <glyph glyph-name="afii10093" unicode="&#x44b;" horiz-adv-x="695" 
d="M278 0h-218v500h114v-174h104q86 0 133 -42t47 -121t-47 -121t-133 -42zM344 163q0 69 -80 69h-90v-138h90q80 0 80 69zM521 0v500h114v-500h-114z" />
    <glyph glyph-name="afii10094" unicode="&#x44c;" horiz-adv-x="490" 
d="M278 0h-218v500h114v-174h104q86 0 133 -42t47 -121t-47 -121t-133 -42zM344 163q0 69 -80 69h-90v-138h90q80 0 80 69z" />
    <glyph glyph-name="afii10095" unicode="&#x44d;" horiz-adv-x="520" 
d="M478 250q0 -127 -56.5 -194.5t-167.5 -67.5q-95 0 -151.5 46t-65.5 131h115q4 -39 30.5 -61t71.5 -22q97 0 108 123h-139v90h139q-11 123 -108 123q-45 0 -71.5 -22t-30.5 -61h-115q9 85 65.5 131t151.5 46q111 0 167.5 -67.5t56.5 -194.5z" />
    <glyph glyph-name="afii10096" unicode="&#x44e;" horiz-adv-x="723" 
d="M457 512q224 0 224 -262t-224 -262q-202 0 -222 215h-61v-203h-114v500h114v-203h61q20 215 222 215zM457 82q60 0 85 43t25 125t-25 125t-85 43t-85 -43t-25 -125t25 -125t85 -43z" />
    <glyph glyph-name="afii10097" unicode="&#x44f;" horiz-adv-x="514" 
d="M169 110l-4 -66q-2 -29 -7 -44h-113q6 23 7 46l4 70q6 92 83 107q-92 28 -92 131q0 71 45.5 108.5t133.5 37.5h228v-500h-114v176h-90q-76 0 -81 -66zM161 338q0 -68 78 -68h101v136h-101q-78 0 -78 -68z" />
    <glyph glyph-name="uni0450" unicode="&#x450;" horiz-adv-x="532" 
d="M490 215h-333q6 -133 109 -133q40 0 66 18.5t32 51.5h116q-14 -79 -69 -121.5t-145 -42.5q-111 0 -167.5 67.5t-56.5 194.5t56.5 194.5t167.5 67.5t167.5 -67.5t56.5 -194.5v-35zM158 299h216q-10 119 -108 119t-108 -119zM254 564l-125 161h129l95 -161h-99z" />
    <glyph glyph-name="afii10071" unicode="&#x451;" horiz-adv-x="532" 
d="M490 215h-333q6 -133 109 -133q40 0 66 18.5t32 51.5h116q-14 -79 -69 -121.5t-145 -42.5q-111 0 -167.5 67.5t-56.5 194.5t56.5 194.5t167.5 67.5t167.5 -67.5t56.5 -194.5v-35zM158 299h216q-10 119 -108 119t-108 -119zM233 703v-122h-118v122h118zM417 703v-122h-118
v122h118z" />
    <glyph glyph-name="afii10099" unicode="&#x452;" horiz-adv-x="546" 
d="M374 -61v374q0 105 -84 105q-52 0 -84 -36.5t-32 -102.5v-279h-114v567h-55v74h55v59h114v-59h126v-74h-126v-153q15 45 52 71.5t91 26.5q82 0 126.5 -51t44.5 -146v-381q0 -75 -43 -113.5t-124 -38.5q-31 0 -47 3v92h37q63 0 63 62z" />
    <glyph glyph-name="afii10100" unicode="&#x453;" horiz-adv-x="410" 
d="M390 406h-216v-406h-114v500h330v-94zM361 725l-125 -161h-99l95 161h129z" />
    <glyph glyph-name="afii10101" unicode="&#x454;" horiz-adv-x="520" 
d="M42 250q0 127 56.5 194.5t167.5 67.5q95 0 151.5 -46t65.5 -131h-115q-4 39 -30.5 61t-71.5 22q-97 0 -108 -123h139v-90h-139q11 -123 108 -123q45 0 71.5 22t30.5 61h115q-9 -85 -65.5 -131t-151.5 -46q-111 0 -167.5 67.5t-56.5 194.5z" />
    <glyph glyph-name="afii10102" unicode="&#x455;" horiz-adv-x="487" 
d="M45 142v14h114v-14q0 -30 23.5 -47t63.5 -17t63.5 17t23.5 45t-15.5 42.5t-52.5 21.5l-52 9q-85 15 -125 51t-40 99q0 65 51.5 107t138.5 42q88 0 139 -40t51 -109v-10h-114v10q0 26 -19.5 42.5t-56.5 16.5q-36 0 -56 -16t-20 -40q0 -26 16.5 -39t55.5 -20l52 -9
q87 -15 124 -52t37 -104q0 -66 -55 -110t-146 -44q-92 0 -146.5 43t-54.5 111z" />
    <glyph glyph-name="afii10103" unicode="&#x456;" horiz-adv-x="244" 
d="M65 590v110h114v-110h-114zM65 0v500h114v-500h-114z" />
    <glyph glyph-name="afii10104" unicode="&#x457;" horiz-adv-x="244" 
d="M65 0v500h114v-500h-114zM89 703v-122h-118v122h118zM273 703v-122h-118v122h118z" />
    <glyph glyph-name="afii10105" unicode="&#x458;" horiz-adv-x="244" 
d="M65 -53v553h114v-566q0 -75 -43 -113.5t-124 -38.5q-31 0 -47 3v92h37q63 0 63 70zM65 590v110h114v-110h-114z" />
    <glyph glyph-name="afii10106" unicode="&#x459;" horiz-adv-x="799" 
d="M587 0h-218v406h-156v-256q0 -87 -38.5 -122t-123.5 -35q-20 0 -36 2v93h26q31 0 44.5 15t13.5 52v345h384v-174h104q86 0 133 -42t47 -121t-47 -121t-133 -42zM653 163q0 69 -80 69h-90v-138h90q80 0 80 69z" />
    <glyph glyph-name="afii10107" unicode="&#x45a;" horiz-adv-x="770" 
d="M558 0h-218v210h-166v-210h-114v500h114v-196h166v196h114v-174h104q86 0 133 -42t47 -121t-47 -121t-133 -42zM624 163q0 69 -80 69h-90v-138h90q80 0 80 69z" />
    <glyph glyph-name="afii10108" unicode="&#x45b;" horiz-adv-x="546" 
d="M300 641v-74h-126v-153q15 45 52 71.5t91 26.5q82 0 126.5 -51t44.5 -146v-315h-114v313q0 105 -84 105q-52 0 -84 -36.5t-32 -102.5v-279h-114v567h-55v74h55v59h114v-59h126z" />
    <glyph glyph-name="afii10109" unicode="&#x45c;" horiz-adv-x="496" 
d="M60 0v500h114v-195h47l123 195h124l-155 -240l178 -260h-128l-143 217h-46v-217h-114zM394 725l-125 -161h-99l95 161h129z" />
    <glyph glyph-name="uni045D" unicode="&#x45d;" horiz-adv-x="528" 
d="M174 187l187 313h107v-500h-114v313l-187 -313h-107v500h114v-313zM262 564l-125 161h129l95 -161h-99z" />
    <glyph glyph-name="afii10110" unicode="&#x45e;" horiz-adv-x="519" 
d="M181 -70l24 68l-190 502h119l128 -360l123 360h119l-219 -605q-24 -66 -61 -89.5t-100 -23.5q-34 0 -47 2v92h37q48 0 67 54zM262 568q-67 0 -110 39.5t-47 108.5h98q3 -64 59 -64t59 64h98q-4 -69 -47 -108.5t-110 -39.5z" />
    <glyph glyph-name="afii10193" unicode="&#x45f;" horiz-adv-x="524" 
d="M60 0v500h114v-406h176v406h114v-500h-145v-110h-114v110h-145z" />
    <glyph glyph-name="afii10050" unicode="&#x490;" horiz-adv-x="502" 
d="M492 596h-302v-596h-120v700h302v140h120v-244z" />
    <glyph glyph-name="afii10098" unicode="&#x491;" horiz-adv-x="410" 
d="M390 406h-216v-406h-114v500h216v108h114v-202z" />
    <glyph glyph-name="Wgrave" unicode="&#x1e80;" horiz-adv-x="948" 
d="M673 150l136 550h124l-182 -700h-147l-130 515l-130 -515h-147l-182 700h124l136 -550l138 550h122zM447 763l-125 161h129l95 -161h-99z" />
    <glyph glyph-name="wgrave" unicode="&#x1e81;" horiz-adv-x="808" 
d="M348 500h112l111 -373l106 373h116l-159 -500h-120l-110 382l-110 -382h-120l-159 500h116l106 -373zM382 564l-125 161h129l95 -161h-99z" />
    <glyph glyph-name="Wacute" unicode="&#x1e82;" horiz-adv-x="948" 
d="M673 150l136 550h124l-182 -700h-147l-130 515l-130 -515h-147l-182 700h124l136 -550l138 550h122zM626 924l-125 -161h-99l95 161h129z" />
    <glyph glyph-name="wacute" unicode="&#x1e83;" horiz-adv-x="808" 
d="M348 500h112l111 -373l106 373h116l-159 -500h-120l-110 382l-110 -382h-120l-159 500h116l106 -373zM551 725l-125 -161h-99l95 161h129z" />
    <glyph glyph-name="Wdieresis" unicode="&#x1e84;" horiz-adv-x="948" 
d="M673 150l136 550h124l-182 -700h-147l-130 515l-130 -515h-147l-182 700h124l136 -550l138 550h122zM441 902v-122h-118v122h118zM625 902v-122h-118v122h118z" />
    <glyph glyph-name="wdieresis" unicode="&#x1e85;" horiz-adv-x="808" 
d="M348 500h112l111 -373l106 373h116l-159 -500h-120l-110 382l-110 -382h-120l-159 500h116l106 -373zM371 703v-122h-118v122h118zM555 703v-122h-118v122h118z" />
    <glyph glyph-name="Ygrave" unicode="&#x1ef2;" horiz-adv-x="606" 
d="M303 382l162 318h126l-228 -424v-276h-120v276l-228 424h126zM281 763l-125 161h129l95 -161h-99z" />
    <glyph glyph-name="ygrave" unicode="&#x1ef3;" horiz-adv-x="519" 
d="M181 -70l24 68l-190 502h119l128 -360l123 360h119l-219 -605q-24 -66 -61 -89.5t-100 -23.5q-34 0 -47 2v92h37q48 0 67 54zM228 564l-125 161h129l95 -161h-99z" />
    <glyph glyph-name="thinspace" unicode="&#x2009;" horiz-adv-x="200" 
 />
    <glyph glyph-name="uni2010" unicode="&#x2010;" horiz-adv-x="412" 
d="M50 276v100h312v-100h-312z" />
    <glyph glyph-name="figuredash" unicode="&#x2012;" horiz-adv-x="600" 
d="M550 276h-500v100h500v-100z" />
    <glyph glyph-name="endash" unicode="&#x2013;" horiz-adv-x="500" 
d="M500 276h-500v100h500v-100z" />
    <glyph glyph-name="emdash" unicode="&#x2014;" horiz-adv-x="1000" 
d="M1000 276h-1000v100h1000v-100z" />
    <glyph glyph-name="afii00208" unicode="&#x2015;" horiz-adv-x="1000" 
d="M900 276h-800v100h800v-100z" />
    <glyph glyph-name="uni2016" unicode="&#x2016;" horiz-adv-x="432" 
d="M90 -130v879h92v-879h-92zM250 -130v879h92v-879h-92z" />
    <glyph glyph-name="underscoredbl" unicode="&#x2017;" horiz-adv-x="600" 
d="M50 -234v80h500v-80h-500zM50 -104v80h500v-80h-500z" />
    <glyph glyph-name="quoteleft" unicode="&#x2018;" horiz-adv-x="282" 
d="M78 535v126q0 50 33 81.5t93 33.5v-54q-63 -4 -63 -61h63v-126h-126z" />
    <glyph glyph-name="quoteright" unicode="&#x2019;" horiz-adv-x="282" 
d="M204 776v-126q0 -50 -33 -81.5t-93 -33.5v54q63 5 63 61h-63v126h126z" />
    <glyph glyph-name="quotesinglbase" unicode="&#x201a;" horiz-adv-x="282" 
d="M204 126v-126q0 -50 -33 -81.5t-93 -33.5v54q63 5 63 61h-63v126h126z" />
    <glyph glyph-name="quotereversed" unicode="&#x201b;" horiz-adv-x="282" 
d="M78 650v126h126v-126h-63q0 -56 63 -61v-54q-60 2 -93 33.5t-33 81.5z" />
    <glyph glyph-name="quotedblleft" unicode="&#x201c;" horiz-adv-x="460" 
d="M78 535v126q0 50 33 81.5t93 33.5v-54q-63 -4 -63 -61h63v-126h-126zM256 535v126q0 50 33 81.5t93 33.5v-54q-63 -4 -63 -61h63v-126h-126z" />
    <glyph glyph-name="quotedblright" unicode="&#x201d;" horiz-adv-x="460" 
d="M204 776v-126q0 -50 -33 -81.5t-93 -33.5v54q63 5 63 61h-63v126h126zM382 776v-126q0 -50 -33 -81.5t-93 -33.5v54q63 5 63 61h-63v126h126z" />
    <glyph glyph-name="quotedblbase" unicode="&#x201e;" horiz-adv-x="460" 
d="M204 126v-126q0 -50 -33 -81.5t-93 -33.5v54q63 5 63 61h-63v126h126zM382 126v-126q0 -50 -33 -81.5t-93 -33.5v54q63 5 63 61h-63v126h126z" />
    <glyph glyph-name="uni201F" unicode="&#x201f;" horiz-adv-x="460" 
d="M78 650v126h126v-126h-63q0 -56 63 -61v-54q-60 2 -93 33.5t-33 81.5zM256 650v126h126v-126h-63q0 -56 63 -61v-54q-60 2 -93 33.5t-33 81.5z" />
    <glyph glyph-name="dagger" unicode="&#x2020;" horiz-adv-x="556" 
d="M496 580v-94h-166v-617h-104v617h-166v94h166v168h104v-168h166z" />
    <glyph glyph-name="daggerdbl" unicode="&#x2021;" horiz-adv-x="556" 
d="M60 37v94h166v355h-166v94h166v168h104v-168h166v-94h-166v-355h166v-94h-166v-168h-104v168h-166z" />
    <glyph glyph-name="bullet" unicode="&#x2022;" horiz-adv-x="362" 
d="M312 326q0 -54 -38.5 -92.5t-92.5 -38.5t-92.5 38.5t-38.5 92.5t38.5 92.5t92.5 38.5t92.5 -38.5t38.5 -92.5z" />
    <glyph glyph-name="onedotenleader" unicode="&#x2024;" horiz-adv-x="282" 
d="M204 126v-126h-126v126h126z" />
    <glyph glyph-name="twodotenleader" unicode="&#x2025;" horiz-adv-x="564" 
d="M204 126v-126h-126v126h126zM486 126v-126h-126v126h126z" />
    <glyph glyph-name="ellipsis" unicode="&#x2026;" horiz-adv-x="846" 
d="M204 126v-126h-126v126h126zM486 126v-126h-126v126h126zM768 126v-126h-126v126h126z" />
    <glyph glyph-name="perthousand" unicode="&#x2030;" horiz-adv-x="1150" 
d="M215 0l287 700h97l-287 -700h-97zM349 523q0 -106 -47 -153q-36 -36 -100 -36t-100 36q-47 47 -47 153t47 153q36 36 100 36t100 -36q47 -47 47 -153zM151 523q0 -66 15 -89q12 -18 36 -18t36 18q15 23 15 89t-15 89q-12 18 -36 18t-36 -18q-15 -23 -15 -89zM465 177
q0 106 47 153q36 36 100 36t100 -36q47 -47 47 -153t-47 -153q-36 -36 -100 -36t-100 36q-47 47 -47 153zM663 177q0 66 -15 89q-12 18 -36 18t-36 -18q-15 -23 -15 -89t15 -89q12 -18 36 -18t36 18q15 23 15 89zM801 177q0 106 47 153q36 36 100 36t100 -36q47 -47 47 -153
t-47 -153q-36 -36 -100 -36t-100 36q-47 47 -47 153zM999 177q0 66 -15 89q-12 18 -36 18t-36 -18q-15 -23 -15 -89t15 -89q12 -18 36 -18t36 18q15 23 15 89z" />
    <glyph glyph-name="minute" unicode="&#x2032;" horiz-adv-x="209" 
d="M25 478l46 222h113l-72 -222h-87z" />
    <glyph glyph-name="second" unicode="&#x2033;" horiz-adv-x="367" 
d="M25 478l46 222h113l-72 -222h-87zM183 478l46 222h113l-72 -222h-87z" />
    <glyph glyph-name="guilsinglleft" unicode="&#x2039;" horiz-adv-x="288" 
d="M248 384l-122 -72l122 -72v-90l-208 126v72l208 126v-90z" />
    <glyph glyph-name="guilsinglright" unicode="&#x203a;" horiz-adv-x="288" 
d="M162 312l-122 72v90l208 -126v-72l-208 -126v90z" />
    <glyph glyph-name="exclamdbl" unicode="&#x203c;" horiz-adv-x="523" 
d="M112 191l-12 388v121h114v-121l-12 -388h-90zM100 0v110h114v-110h-114zM321 191l-12 388v121h114v-121l-12 -388h-90zM309 0v110h114v-110h-114z" />
    <glyph glyph-name="uni203E" unicode="&#x203e;" horiz-adv-x="380" 
d="M49 602v92h282v-92h-282z" />
    <glyph glyph-name="fraction" unicode="&#x2044;" horiz-adv-x="180" 
d="M310 700l-342 -700h-98l342 700h98z" />
    <glyph glyph-name="zerosuperior" unicode="&#x2070;" 
d="M252 468q0 99 -20 131q-15 25 -44 25t-44 -25q-20 -32 -20 -131t20 -131q15 -25 44 -25t44 25q20 32 20 131zM26 468q0 139 47 193q41 47 115 47t115 -47q47 -54 47 -193t-47 -193q-41 -47 -115 -47t-115 47q-47 54 -47 193z" />
    <glyph glyph-name="uni2071" unicode="&#x2071;" 
d="M139 236v323h98v-323h-98zM139 612v88h98v-88h-98z" />
    <glyph glyph-name="foursuperior" unicode="&#x2074;" 
d="M120 406h90v155zM356 406v-84h-48v-86h-98v86h-191v77l177 301h112v-294h48z" />
    <glyph glyph-name="fivesuperior" unicode="&#x2075;" 
d="M33 370h98q3 -27 18 -42t39 -15q26 0 41 19.5t15 54.5t-15 54.5t-41 19.5q-35 0 -51 -29h-89l12 268h258v-84h-169l-5 -99q23 28 68 28q61 0 95.5 -43.5t34.5 -115.5q0 -73 -40.5 -115t-113.5 -42q-70 0 -110 38t-45 103z" />
    <glyph glyph-name="sixsuperior" unicode="&#x2076;" 
d="M336 586h-99q-8 42 -48 42q-32 0 -45 -25t-13 -92q23 34 75 34q65 0 102 -43t37 -116t-40.5 -115.5t-116.5 -42.5q-83 0 -122 59q-34 50 -34 168q0 143 39 199q38 54 118 54q60 0 98 -32.5t49 -89.5zM188 461q-59 0 -59 -75q0 -35 15.5 -54.5t43.5 -19.5t43.5 19.5
t15.5 54.5t-15.5 55t-43.5 20z" />
    <glyph glyph-name="sevensuperior" unicode="&#x2077;" 
d="M36 614v86h305v-69l-149 -395h-104l147 378h-199z" />
    <glyph glyph-name="eightsuperior" unicode="&#x2078;" 
d="M188 228q-75 0 -118.5 40.5t-43.5 103.5q0 87 79 115q-31 11 -49 38t-18 59q0 56 40.5 90t109.5 34t109.5 -34t40.5 -90q0 -32 -18 -59t-49 -38q79 -28 79 -115q0 -63 -43.5 -103.5t-118.5 -40.5zM188 442q-28 0 -45 -17.5t-17 -47.5t17.5 -47.5t44.5 -17.5t44.5 17.5
t17.5 47.5t-17 47.5t-45 17.5zM188 526q23 0 37.5 13.5t14.5 35.5t-14.5 35.5t-37.5 13.5t-37.5 -13.5t-14.5 -35.5t14.5 -35.5t37.5 -13.5z" />
    <glyph glyph-name="ninesuperior" unicode="&#x2079;" 
d="M40 350h99q8 -42 48 -42q32 0 45 25t13 92q-23 -34 -75 -34q-65 0 -102 43t-37 116t40.5 115.5t116.5 42.5q83 0 122 -59q34 -50 34 -168q0 -143 -39 -199q-37 -54 -118 -54q-60 0 -98 32.5t-49 89.5zM188 475q59 0 59 75q0 35 -15.5 54.5t-43.5 19.5t-43.5 -19.5
t-15.5 -54.5t15.5 -55t43.5 -20z" />
    <glyph glyph-name="uni207A" unicode="&#x207a;" 
d="M143 314v114h-107v80h107v114h90v-114h107v-80h-107v-114h-90z" />
    <glyph glyph-name="uni207B" unicode="&#x207b;" 
d="M340 428h-304v80h304v-80z" />
    <glyph glyph-name="uni207C" unicode="&#x207c;" 
d="M340 502h-304v80h304v-80zM340 354h-304v80h304v-80z" />
    <glyph glyph-name="uni207D" unicode="&#x207d;" 
d="M130 468q0 122 20.5 188.5t56.5 88.5t99 22v-80q-33 0 -50 -14.5t-26.5 -62.5t-9.5 -142t9.5 -142t26.5 -62.5t50 -14.5v-80q-63 0 -99 22t-56.5 88.5t-20.5 188.5z" />
    <glyph glyph-name="uni207E" unicode="&#x207e;" 
d="M246 468q0 -122 -20.5 -188.5t-56.5 -88.5t-99 -22v80q33 0 50 14.5t26.5 62.5t9.5 142t-9.5 142t-26.5 62.5t-50 14.5v80q63 0 99 -22t56.5 -88.5t20.5 -188.5z" />
    <glyph glyph-name="uni207F" unicode="&#x207f;" 
d="M42 237v351h94v-57q9 30 33 48t60 18q49 0 77 -30t28 -89v-241h-94v231q0 51 -42 51q-28 0 -45 -19t-17 -54v-209h-94z" />
    <glyph glyph-name="zeroinferior" unicode="&#x2080;" 
d="M252 105q0 99 -20 131q-15 25 -44 25t-44 -25q-20 -32 -20 -131t20 -131q15 -25 44 -25t44 25q20 32 20 131zM26 105q0 139 47 193q41 47 115 47t115 -47q47 -54 47 -193t-47 -193q-41 -47 -115 -47t-115 47q-47 54 -47 193z" />
    <glyph glyph-name="oneinferior" unicode="&#x2081;" 
d="M265 -127h-100v369l-98 -45v88l115 52h83v-464z" />
    <glyph glyph-name="twoinferior" unicode="&#x2082;" 
d="M35 186v16q0 66 41 104.5t111 38.5q67 0 109 -38.5t42 -104.5q0 -59 -54 -120l-107 -123h161v-86h-293v73l170 197q23 26 23 58q0 25 -13.5 39.5t-37.5 14.5q-25 0 -38.5 -14.5t-13.5 -39.5v-15h-100z" />
    <glyph glyph-name="threeinferior" unicode="&#x2083;" 
d="M30 9v17h100v-12q0 -30 15.5 -47.5t42.5 -17.5t42.5 17t15.5 46q0 63 -63 63h-35v84h35q53 0 53 51t-48 51q-23 0 -35.5 -13t-12.5 -36v-7h-98v16q0 56 40.5 90t105.5 34q66 0 106 -34.5t40 -91.5q0 -74 -67 -99q79 -23 79 -110q0 -64 -41.5 -104.5t-116.5 -40.5
q-74 0 -116 40.5t-42 103.5z" />
    <glyph glyph-name="fourinferior" unicode="&#x2084;" 
d="M120 43h90v155zM356 43v-84h-48v-86h-98v86h-191v77l177 301h112v-294h48z" />
    <glyph glyph-name="fiveinferior" unicode="&#x2085;" 
d="M33 7h98q3 -27 18 -42t39 -15q26 0 41 19.5t15 54.5t-15 54.5t-41 19.5q-35 0 -51 -29h-89l12 268h258v-84h-169l-5 -99q23 28 68 28q61 0 95.5 -43.5t34.5 -115.5q0 -73 -40.5 -115t-113.5 -42q-70 0 -110 38t-45 103z" />
    <glyph glyph-name="sixinferior" unicode="&#x2086;" 
d="M336 223h-99q-8 42 -48 42q-32 0 -45 -25t-13 -92q23 34 75 34q65 0 102 -43t37 -116t-40.5 -115.5t-116.5 -42.5q-83 0 -122 59q-34 50 -34 168q0 143 39 199q38 54 118 54q60 0 98 -32.5t49 -89.5zM188 98q-59 0 -59 -75q0 -35 15.5 -54.5t43.5 -19.5t43.5 19.5
t15.5 54.5t-15.5 55t-43.5 20z" />
    <glyph glyph-name="seveninferior" unicode="&#x2087;" 
d="M36 251v86h305v-69l-149 -395h-104l147 378h-199z" />
    <glyph glyph-name="eightinferior" unicode="&#x2088;" 
d="M188 -135q-75 0 -118.5 40.5t-43.5 103.5q0 87 79 115q-31 11 -49 38t-18 59q0 56 40.5 90t109.5 34t109.5 -34t40.5 -90q0 -32 -18 -59t-49 -38q79 -28 79 -115q0 -63 -43.5 -103.5t-118.5 -40.5zM188 79q-28 0 -45 -17.5t-17 -47.5t17.5 -47.5t44.5 -17.5t44.5 17.5
t17.5 47.5t-17 47.5t-45 17.5zM188 163q23 0 37.5 13.5t14.5 35.5t-14.5 35.5t-37.5 13.5t-37.5 -13.5t-14.5 -35.5t14.5 -35.5t37.5 -13.5z" />
    <glyph glyph-name="nineinferior" unicode="&#x2089;" 
d="M40 -13h99q8 -42 48 -42q32 0 45 25t13 92q-23 -34 -75 -34q-65 0 -102 43t-37 116t40.5 115.5t116.5 42.5q83 0 122 -59q34 -50 34 -168q0 -143 -39 -199q-37 -54 -118 -54q-60 0 -98 32.5t-49 89.5zM188 112q59 0 59 75q0 35 -15.5 54.5t-43.5 19.5t-43.5 -19.5
t-15.5 -54.5t15.5 -55t43.5 -20z" />
    <glyph glyph-name="uni208A" unicode="&#x208a;" 
d="M143 -49v114h-107v80h107v114h90v-114h107v-80h-107v-114h-90z" />
    <glyph glyph-name="uni208B" unicode="&#x208b;" 
d="M340 65h-304v80h304v-80z" />
    <glyph glyph-name="uni208C" unicode="&#x208c;" 
d="M340 139h-304v80h304v-80zM340 -9h-304v80h304v-80z" />
    <glyph glyph-name="uni208D" unicode="&#x208d;" 
d="M130 105q0 122 20.5 188.5t56.5 88.5t99 22v-80q-33 0 -50 -14.5t-26.5 -62.5t-9.5 -142t9.5 -142t26.5 -62.5t50 -14.5v-80q-63 0 -99 22t-56.5 88.5t-20.5 188.5z" />
    <glyph glyph-name="uni208E" unicode="&#x208e;" 
d="M246 105q0 -122 -20.5 -188.5t-56.5 -88.5t-99 -22v80q33 0 50 14.5t26.5 62.5t9.5 142t-9.5 142t-26.5 62.5t-50 14.5v80q63 0 99 -22t56.5 -88.5t20.5 -188.5z" />
    <glyph glyph-name="uni2090" unicode="&#x2090;" 
d="M240 -96q-18 -40 -84 -40q-55 0 -89.5 30t-34.5 83t34 83t90 30q66 0 84 -40v50q0 61 -51 61q-42 0 -49 -40h-95q6 52 42.5 83t101.5 31q70 0 107.5 -36.5t37.5 -97.5v-179q0 -27 9 -49h-97q-5 12 -6 31zM183 -62q57 0 57 39t-57 39t-57 -39t57 -39z" />
    <glyph glyph-name="uni2091" unicode="&#x2091;" 
d="M341 51v-27h-217q5 -83 64 -83q46 0 56 42h90q-27 -118 -146 -118q-79 0 -116 51t-37 135q0 82 37.5 133t115.5 51t115.5 -51t37.5 -133zM188 159q-56 0 -63 -69h126q-7 69 -63 69z" />
    <glyph glyph-name="uni2092" unicode="&#x2092;" 
d="M188 -135q-78 0 -115.5 51t-37.5 135q0 83 37.5 133.5t115.5 50.5t115.5 -50.5t37.5 -133.5q0 -84 -37.5 -135t-115.5 -51zM188 -59q38 0 51.5 29.5t13.5 79.5t-13.5 79.5t-51.5 29.5t-51.5 -29.5t-13.5 -79.5t13.5 -79.5t51.5 -29.5z" />
    <glyph glyph-name="uni2093" unicode="&#x2093;" 
d="M27 -123l108 181l-98 165h92l59 -102l59 102h92l-99 -165l109 -181h-96l-65 117l-65 -117h-96z" />
    <glyph glyph-name="uni2094" unicode="&#x2094;" 
d="M35 49v27h217q-5 83 -64 83q-46 0 -56 -42h-90q27 118 146 118q79 0 116 -51t37 -135q0 -82 -37.5 -133t-115.5 -51t-115.5 51t-37.5 133zM188 -59q56 0 63 69h-126q7 -69 63 -69z" />
    <glyph glyph-name="uni20A0" unicode="&#x20a0;" horiz-adv-x="720" 
d="M478 551h-117q-24 67 -97 67q-61 0 -85.5 -42.5t-24.5 -122.5q0 -86 27 -125.5t90 -39.5q59 0 89 27v175h325v-94h-211v-100h175v-94h-175v-108h216v-94h-330v214q-34 -20 -92 -20q-228 0 -228 259q0 126 56 192.5t168 66.5q175 0 214 -161z" />
    <glyph glyph-name="colonmonetary" unicode="&#x20a1;" horiz-adv-x="638" 
d="M345 -82v71q-7 -1 -20 -1q-18 0 -26 1v-71h-57v80q-84 22 -131 89q-61 87 -61 263t61 263q48 68 131 89v80h57v-71q8 1 26 1q13 0 20 -1v71h57v-79q87 -20 137 -83t54 -154h-120q-3 89 -71 125v-483q68 36 71 126h120q-4 -91 -54 -154.5t-137 -82.5v-79h-57zM209 148
q13 -20 33 -33v470q-20 -13 -33 -33q-39 -58 -39 -202t39 -202zM325 92q13 0 20 1v514q-5 1 -20 1q-10 0 -26 -2v-512q12 -2 26 -2z" />
    <glyph glyph-name="uni20A2" unicode="&#x20a2;" horiz-adv-x="638" 
d="M50 350q0 176 61 263q70 99 214 99q121 0 192 -68t76 -178h-120q-2 66 -41 104t-107 38q-78 0 -116 -56q-39 -58 -39 -202t39 -202q22 -32 56 -46v292h101v-70q7 43 31 61.5t67 18.5q17 0 23 -2l-2 -90q-9 1 -30 1q-89 0 -89 -115v-102q102 22 107 138h120
q-5 -110 -76 -178t-192 -68q-144 0 -214 99q-61 87 -61 263z" />
    <glyph glyph-name="franc" unicode="&#x20a3;" horiz-adv-x="517" 
d="M190 439h177v-68h-177v-52h177v-68h-177v-251h-120v251h-60v68h60v52h-60v68h60v261h416v-104h-296v-157z" />
    <glyph glyph-name="lira" unicode="&#x20a4;" horiz-adv-x="535" 
d="M227 286h154v-60h-154q-9 -73 -66 -124h334v-102h-442v92q50 59 60 134h-63v60h63q-2 20 -7 38h-56v60h41q-18 65 -18 127q0 86 54.5 143.5t152.5 57.5t152.5 -57.5t54.5 -143.5v-20h-114v19q0 45 -24 71.5t-69 26.5t-69 -26.5t-24 -71.5q0 -61 18 -126h176v-60h-161
q5 -18 7 -38z" />
    <glyph glyph-name="uni20A6" unicode="&#x20a6;" horiz-adv-x="642" 
d="M572 429h60v-60h-60v-38h60v-60h-60v-271h-122l-136 271h-124v-271h-120v271h-60v60h60v38h-60v60h60v271h122l136 -271h124v271h120v-271zM358 369l19 -38h75v38h-94zM190 369v-38h94l-19 38h-75zM407 271l45 -90v90h-45zM235 429l-45 90v-90h45z" />
    <glyph glyph-name="peseta" unicode="&#x20a7;" horiz-adv-x="1123" 
d="M913 0h-208q-93 0 -133 31.5t-40 110.5v264h-58q-20 -68 -75 -106t-132 -38h-77v-262h-120v700h197q92 0 151.5 -54t65.5 -146h48v142h114v-142h120v-41q47 53 136 53q79 0 124.5 -41t45.5 -108v-10h-114v11q0 24 -15 40t-41 16t-41 -16t-15 -38q0 -26 15.5 -40t51.5 -22
l28 -6q82 -17 116 -51.5t34 -98.5q0 -67 -45 -107.5t-133 -40.5zM646 406v-244q0 -42 16.5 -56t62.5 -14h183q69 0 69 54q0 28 -14.5 40.5t-57.5 21.5l-34 7q-139 29 -139 148q0 20 5 43h-91zM190 366h50q60 0 92.5 30t32.5 85q0 56 -32.5 85.5t-92.5 29.5h-50v-230z" />
    <glyph glyph-name="uni20A8" unicode="&#x20a8;" horiz-adv-x="973" 
d="M404 62l-5 91q-3 56 -32 80.5t-94 24.5h-83v-258h-120v700h237q109 0 166 -55t57 -158q0 -138 -115 -176q50 -11 74.5 -45.5t28.5 -103.5l6 -98q3 -40 12 -64h-122q-9 26 -10 62zM190 362h98q122 0 122 117t-122 117h-98v-234zM569 142v14h114v-14q0 -29 20 -45.5
t52 -16.5q33 0 52.5 16.5t19.5 43.5q0 29 -17.5 45.5t-59.5 23.5l-34 6q-144 26 -144 148q0 66 47 107.5t128 41.5q82 0 128.5 -41t46.5 -108v-10h-114v11q0 24 -16 40t-45 16t-45 -15.5t-16 -38.5q0 -49 72 -62l33 -6q76 -14 113 -51.5t37 -104.5t-50 -110.5t-136 -43.5
t-136 43.5t-50 110.5z" />
    <glyph glyph-name="uni20A9" unicode="&#x20a9;" horiz-adv-x="948" 
d="M20 357v60h69l-74 283h123l70 -283h133l72 283h122l72 -283h132l71 283h123l-74 -283h69v-60h-85l-13 -50h98v-60h-113l-64 -247h-147l-63 247h-134l-63 -247h-147l-64 247h-113v60h97l-13 50h-84zM435 357l-13 -50h103l-12 50h-78zM622 357l13 -50h77l12 50h-102z
M223 357l13 -50h77l12 50h-102zM474 510l-24 -93h47zM251 247l23 -93l23 93h-46zM674 154l23 93h-47z" />
    <glyph glyph-name="afii57636" unicode="&#x20aa;" horiz-adv-x="854" 
d="M70 0v700h288q228 0 228 -238v-200h-120v190q0 75 -27.5 109.5t-89.5 34.5h-159v-596h-120zM784 700v-700h-288q-228 0 -228 238v200h120v-190q0 -75 27.5 -109.5t89.5 -34.5h159v596h120z" />
    <glyph glyph-name="dong" unicode="&#x20ab;" horiz-adv-x="550" 
d="M250 567v74h126v59h114v-59h55v-74h-55v-567h-114v77q-14 -41 -50.5 -65t-87.5 -24q-93 0 -144.5 64.5t-51.5 197.5t51.5 197.5t144.5 64.5q51 0 87.5 -24t50.5 -65v144h-126zM143 -78h321v-79h-321v79zM266 82q60 0 85 43t25 125t-25 125t-85 43t-85 -43t-25 -125
t25 -125t85 -43z" />
    <glyph glyph-name="Euro" unicode="&#x20ac;" horiz-adv-x="638" 
d="M50 379h-38v60h42q10 107 57 174q70 99 214 99q121 0 192 -68t76 -178h-120q-2 66 -41 104t-107 38q-78 0 -116 -56q-28 -40 -35 -113h193l-10 -60h-187v-58h177l-10 -60h-163q7 -73 35 -113q38 -56 116 -56q68 0 107 38t41 104h120q-5 -110 -76 -178t-192 -68
q-144 0 -214 99q-47 67 -57 174h-42v60h38v58z" />
    <glyph glyph-name="afii61248" unicode="&#x2105;" horiz-adv-x="960" 
d="M700 700l-342 -700h-98l342 700h98zM920 219q0 -110 -40.5 -168t-134.5 -58t-134.5 58t-40.5 168t40.5 168t134.5 58t134.5 -58t40.5 -168zM668 219q0 -69 16.5 -103.5t60.5 -34.5t60.5 34.5t16.5 103.5t-16.5 103.5t-60.5 34.5t-60.5 -34.5t-16.5 -103.5zM40 481
q0 110 40.5 168t134.5 58q157 0 170 -153h-99q-8 65 -71 65q-44 0 -60.5 -34.5t-16.5 -103.5t16.5 -103.5t60.5 -34.5q63 0 71 65h99q-13 -153 -170 -153q-94 0 -134.5 58t-40.5 168z" />
    <glyph glyph-name="uni2109" unicode="&#x2109;" horiz-adv-x="804" 
d="M306 573q0 -60 -36 -97.5t-97 -37.5t-97 37.5t-36 97.5t36 97.5t97 37.5t97 -37.5t36 -97.5zM223 573q0 26 -13.5 41.5t-36.5 15.5t-36.5 -15.5t-13.5 -41.5t13.5 -41.5t36.5 -15.5t36.5 15.5t13.5 41.5zM358 0v700h416v-104h-296v-195h265v-104h-265v-297h-120z" />
    <glyph glyph-name="afii61289" unicode="&#x2113;" horiz-adv-x="522" 
d="M305 86q55 0 69 67l113 -22q-14 -70 -61.5 -106.5t-120.5 -36.5q-76 0 -124.5 41t-61.5 116q-44 -12 -67 -17l-37 94q56 13 100 28v276q0 89 46.5 137.5t132.5 48.5t132.5 -48.5t46.5 -137.5v-8q0 -106 -63 -190.5t-179 -140.5q6 -101 74 -101zM357 518v9q0 87 -63 87
t-63 -87v-223q126 80 126 214z" />
    <glyph glyph-name="afii61352" unicode="&#x2116;" horiz-adv-x="900" 
d="M371 0l-187 439v-439h-114v700h101l187 -439v439h114v-700h-101zM855 327q0 -101 -38.5 -152.5t-125.5 -51.5t-125.5 51.5t-38.5 152.5t38.5 152.5t125.5 51.5t125.5 -51.5t38.5 -152.5zM753 327q0 62 -13.5 89t-48.5 27t-48.5 -27t-13.5 -89t13.5 -89t48.5 -27t48.5 27
t13.5 89zM531 0v88h320v-88h-320z" />
    <glyph glyph-name="uni2117" unicode="&#x2117;" horiz-adv-x="754" 
d="M377 712q158 0 245 -91.5t87 -270.5t-87 -270.5t-245 -91.5t-245 91.5t-87 270.5t87 270.5t245 91.5zM377 40q276 0 276 310t-276 310t-276 -310t276 -310zM325 364h66q67 0 67 64t-67 64h-66v-128zM403 297h-78v-156h-85v418h163q66 0 103 -32.5t37 -98.5t-37 -98.5
t-103 -32.5z" />
    <glyph glyph-name="uni2120" unicode="&#x2120;" horiz-adv-x="693" 
d="M282 465q0 -49 -33 -76.5t-92 -27.5q-58 0 -91.5 28t-33.5 75v4h82v-5q0 -16 12 -25t31 -9t31 9t12 25q0 28 -40 36l-25 5q-54 11 -79 35.5t-25 66.5q0 45 31 72.5t88 27.5t88 -27.5t31 -71.5v-4h-82v5q0 13 -9.5 21.5t-27.5 8.5t-27.5 -8.5t-9.5 -21.5q0 -28 45 -37
l25 -5q99 -21 99 -101zM505 366h-50l-67 154v-154h-76v334h68l100 -235l100 235h68v-334h-76v154z" />
    <glyph glyph-name="uni2121" unicode="&#x2121;" horiz-adv-x="987" 
d="M743 215h-273q2 -72 21.5 -102.5t58.5 -30.5q59 0 72 70h115q-16 -87 -62.5 -125.5t-124.5 -38.5q-96 0 -145 60t-49 202t49 202t145 60t145 -60t49 -202q0 -24 -1 -35zM15 596v104h404v-104h-142v-596h-120v596h-142zM922 0h-114v700h114v-700zM550 418
q-37 0 -56.5 -27.5t-22.5 -91.5h157q-3 64 -22 91.5t-56 27.5z" />
    <glyph glyph-name="trademark" unicode="&#x2122;" horiz-adv-x="665" 
d="M10 632v68h250v-68h-84v-266h-82v266h-84zM477 366h-50l-67 154v-154h-76v334h68l100 -235l100 235h68v-334h-76v154z" />
    <glyph glyph-name="Omega" unicode="&#x2126;" horiz-adv-x="650" 
d="M325 712q147 0 214 -99q61 -90 61 -249q0 -98 -31.5 -165.5t-85.5 -94.5h105v-104h-233v104q64 25 94.5 83.5t30.5 162.5q0 144 -39 202q-38 56 -116 56t-116 -56q-39 -58 -39 -202q0 -104 30.5 -162.5t94.5 -83.5v-104h-233v104h105q-54 27 -85.5 94.5t-31.5 165.5
q0 159 61 249q67 99 214 99z" />
    <glyph glyph-name="estimated" unicode="&#x212e;" horiz-adv-x="756" 
d="M557 375v219q-27 32 -75.5 50t-103.5 18t-103.5 -18t-75.5 -50v-219h358zM378 38q146 0 215 108h64q-41 -73 -113 -115.5t-166 -42.5q-147 0 -237.5 100.5t-90.5 261.5t90.5 261.5t237.5 100.5q149 0 238.5 -102t89.5 -258v-27h-507v-219q27 -32 75.5 -50t103.5 -18z" />
    <glyph glyph-name="onethird" unicode="&#x2153;" horiz-adv-x="932" 
d="M586 136v17h100v-12q0 -30 15.5 -47.5t42.5 -17.5t42.5 17t15.5 46q0 63 -63 63h-35v84h35q53 0 53 51t-48 51q-23 0 -35.5 -13t-12.5 -36v-7h-98v16q0 56 40.5 90t105.5 34q66 0 106 -34.5t40 -91.5q0 -74 -67 -99q79 -23 79 -110q0 -64 -41.5 -104.5t-116.5 -40.5
q-74 0 -116 40.5t-42 103.5zM686 700l-342 -700h-98l342 700h98zM265 236h-100v369l-98 -45v88l115 52h83v-464z" />
    <glyph glyph-name="twothirds" unicode="&#x2154;" horiz-adv-x="932" 
d="M686 700l-342 -700h-98l342 700h98zM35 549v16q0 66 41 104.5t111 38.5q67 0 109 -38.5t42 -104.5q0 -59 -54 -120l-107 -123h161v-86h-293v73l170 197q23 26 23 58q0 25 -13.5 39.5t-37.5 14.5q-25 0 -38.5 -14.5t-13.5 -39.5v-15h-100zM586 136v17h100v-12
q0 -30 15.5 -47.5t42.5 -17.5t42.5 17t15.5 46q0 63 -63 63h-35v84h35q53 0 53 51t-48 51q-23 0 -35.5 -13t-12.5 -36v-7h-98v16q0 56 40.5 90t105.5 34q66 0 106 -34.5t40 -91.5q0 -74 -67 -99q79 -23 79 -110q0 -64 -41.5 -104.5t-116.5 -40.5q-74 0 -116 40.5t-42 103.5z
" />
    <glyph glyph-name="onefifth" unicode="&#x2155;" horiz-adv-x="932" 
d="M589 133h98q3 -27 18 -42t39 -15q26 0 41 19.5t15 54.5t-15 54.5t-41 19.5q-35 0 -51 -29h-89l12 268h258v-84h-169l-5 -99q23 28 68 28q61 0 95.5 -43.5t34.5 -115.5q0 -73 -40.5 -115t-113.5 -42q-70 0 -110 38t-45 103zM686 700l-342 -700h-98l342 700h98zM265 236
h-100v369l-98 -45v88l115 52h83v-464z" />
    <glyph glyph-name="twofifths" unicode="&#x2156;" horiz-adv-x="932" 
d="M686 700l-342 -700h-98l342 700h98zM35 549v16q0 66 41 104.5t111 38.5q67 0 109 -38.5t42 -104.5q0 -59 -54 -120l-107 -123h161v-86h-293v73l170 197q23 26 23 58q0 25 -13.5 39.5t-37.5 14.5q-25 0 -38.5 -14.5t-13.5 -39.5v-15h-100zM589 133h98q3 -27 18 -42t39 -15
q26 0 41 19.5t15 54.5t-15 54.5t-41 19.5q-35 0 -51 -29h-89l12 268h258v-84h-169l-5 -99q23 28 68 28q61 0 95.5 -43.5t34.5 -115.5q0 -73 -40.5 -115t-113.5 -42q-70 0 -110 38t-45 103z" />
    <glyph glyph-name="threefifths" unicode="&#x2157;" horiz-adv-x="932" 
d="M686 700l-342 -700h-98l342 700h98zM30 372v17h100v-12q0 -30 15.5 -47.5t42.5 -17.5t42.5 17t15.5 46q0 63 -63 63h-35v84h35q53 0 53 51t-48 51q-23 0 -35.5 -13t-12.5 -36v-7h-98v16q0 56 40.5 90t105.5 34q66 0 106 -34.5t40 -91.5q0 -74 -67 -99q79 -23 79 -110
q0 -64 -41.5 -104.5t-116.5 -40.5q-74 0 -116 40.5t-42 103.5zM589 133h98q3 -27 18 -42t39 -15q26 0 41 19.5t15 54.5t-15 54.5t-41 19.5q-35 0 -51 -29h-89l12 268h258v-84h-169l-5 -99q23 28 68 28q61 0 95.5 -43.5t34.5 -115.5q0 -73 -40.5 -115t-113.5 -42
q-70 0 -110 38t-45 103z" />
    <glyph glyph-name="fourfifths" unicode="&#x2158;" horiz-adv-x="932" 
d="M686 700l-342 -700h-98l342 700h98zM120 406h90v155zM356 406v-84h-48v-86h-98v86h-191v77l177 301h112v-294h48zM589 133h98q3 -27 18 -42t39 -15q26 0 41 19.5t15 54.5t-15 54.5t-41 19.5q-35 0 -51 -29h-89l12 268h258v-84h-169l-5 -99q23 28 68 28q61 0 95.5 -43.5
t34.5 -115.5q0 -73 -40.5 -115t-113.5 -42q-70 0 -110 38t-45 103z" />
    <glyph glyph-name="onesixth" unicode="&#x2159;" horiz-adv-x="932" 
d="M892 350h-99q-8 42 -48 42q-32 0 -45 -25t-13 -92q23 34 75 34q65 0 102 -43t37 -116t-40.5 -115.5t-116.5 -42.5q-83 0 -122 59q-34 50 -34 168q0 143 39 199q37 54 118 54q60 0 98 -32.5t49 -89.5zM744 225q-59 0 -59 -75q0 -35 15.5 -54.5t43.5 -19.5t43.5 19.5
t15.5 54.5t-15.5 55t-43.5 20zM686 700l-342 -700h-98l342 700h98zM265 236h-100v369l-98 -45v88l115 52h83v-464z" />
    <glyph glyph-name="fivesixths" unicode="&#x215a;" horiz-adv-x="932" 
d="M686 700l-342 -700h-98l342 700h98zM33 370h98q3 -27 18 -42t39 -15q26 0 41 19.5t15 54.5t-15 54.5t-41 19.5q-35 0 -51 -29h-89l12 268h258v-84h-169l-5 -99q23 28 68 28q61 0 95.5 -43.5t34.5 -115.5q0 -73 -40.5 -115t-113.5 -42q-70 0 -110 38t-45 103zM892 350h-99
q-8 42 -48 42q-32 0 -45 -25t-13 -92q23 34 75 34q65 0 102 -43t37 -116t-40.5 -115.5t-116.5 -42.5q-83 0 -122 59q-34 50 -34 168q0 143 39 199q37 54 118 54q60 0 98 -32.5t49 -89.5zM744 225q-59 0 -59 -75q0 -35 15.5 -54.5t43.5 -19.5t43.5 19.5t15.5 54.5t-15.5 55
t-43.5 20z" />
    <glyph glyph-name="oneeighth" unicode="&#x215b;" horiz-adv-x="932" 
d="M744 -9q-75 0 -118.5 40.5t-43.5 103.5q0 87 79 115q-31 11 -49 38t-18 59q0 56 40.5 90t109.5 34t109.5 -34t40.5 -90q0 -32 -18 -59t-49 -38q79 -28 79 -115q0 -63 -43.5 -103.5t-118.5 -40.5zM744 205q-28 0 -45 -17.5t-17 -47.5t17.5 -47.5t44.5 -17.5t44.5 17.5
t17.5 47.5t-17 47.5t-45 17.5zM744 289q23 0 37.5 13.5t14.5 35.5t-14.5 35.5t-37.5 13.5t-37.5 -13.5t-14.5 -35.5t14.5 -35.5t37.5 -13.5zM686 700l-342 -700h-98l342 700h98zM265 236h-100v369l-98 -45v88l115 52h83v-464z" />
    <glyph glyph-name="threeeighths" unicode="&#x215c;" horiz-adv-x="932" 
d="M686 700l-342 -700h-98l342 700h98zM30 372v17h100v-12q0 -30 15.5 -47.5t42.5 -17.5t42.5 17t15.5 46q0 63 -63 63h-35v84h35q53 0 53 51t-48 51q-23 0 -35.5 -13t-12.5 -36v-7h-98v16q0 56 40.5 90t105.5 34q66 0 106 -34.5t40 -91.5q0 -74 -67 -99q79 -23 79 -110
q0 -64 -41.5 -104.5t-116.5 -40.5q-74 0 -116 40.5t-42 103.5zM744 -9q-75 0 -118.5 40.5t-43.5 103.5q0 87 79 115q-31 11 -49 38t-18 59q0 56 40.5 90t109.5 34t109.5 -34t40.5 -90q0 -32 -18 -59t-49 -38q79 -28 79 -115q0 -63 -43.5 -103.5t-118.5 -40.5zM744 205
q-28 0 -45 -17.5t-17 -47.5t17.5 -47.5t44.5 -17.5t44.5 17.5t17.5 47.5t-17 47.5t-45 17.5zM744 289q23 0 37.5 13.5t14.5 35.5t-14.5 35.5t-37.5 13.5t-37.5 -13.5t-14.5 -35.5t14.5 -35.5t37.5 -13.5z" />
    <glyph glyph-name="fiveeighths" unicode="&#x215d;" horiz-adv-x="932" 
d="M686 700l-342 -700h-98l342 700h98zM33 370h98q3 -27 18 -42t39 -15q26 0 41 19.5t15 54.5t-15 54.5t-41 19.5q-35 0 -51 -29h-89l12 268h258v-84h-169l-5 -99q23 28 68 28q61 0 95.5 -43.5t34.5 -115.5q0 -73 -40.5 -115t-113.5 -42q-70 0 -110 38t-45 103zM744 -9
q-75 0 -118.5 40.5t-43.5 103.5q0 87 79 115q-31 11 -49 38t-18 59q0 56 40.5 90t109.5 34t109.5 -34t40.5 -90q0 -32 -18 -59t-49 -38q79 -28 79 -115q0 -63 -43.5 -103.5t-118.5 -40.5zM744 205q-28 0 -45 -17.5t-17 -47.5t17.5 -47.5t44.5 -17.5t44.5 17.5t17.5 47.5
t-17 47.5t-45 17.5zM744 289q23 0 37.5 13.5t14.5 35.5t-14.5 35.5t-37.5 13.5t-37.5 -13.5t-14.5 -35.5t14.5 -35.5t37.5 -13.5z" />
    <glyph glyph-name="seveneighths" unicode="&#x215e;" horiz-adv-x="932" 
d="M686 700l-342 -700h-98l342 700h98zM36 614v86h305v-69l-149 -395h-104l147 378h-199zM744 -9q-75 0 -118.5 40.5t-43.5 103.5q0 87 79 115q-31 11 -49 38t-18 59q0 56 40.5 90t109.5 34t109.5 -34t40.5 -90q0 -32 -18 -59t-49 -38q79 -28 79 -115q0 -63 -43.5 -103.5
t-118.5 -40.5zM744 205q-28 0 -45 -17.5t-17 -47.5t17.5 -47.5t44.5 -17.5t44.5 17.5t17.5 47.5t-17 47.5t-45 17.5zM744 289q23 0 37.5 13.5t14.5 35.5t-14.5 35.5t-37.5 13.5t-37.5 -13.5t-14.5 -35.5t14.5 -35.5t37.5 -13.5z" />
    <glyph glyph-name="uni215F" unicode="&#x215f;" horiz-adv-x="932" 
d="M686 700l-342 -700h-98l342 700h98zM265 236h-100v369l-98 -45v88l115 52h83v-464z" />
    <glyph glyph-name="arrowleft" unicode="&#x2190;" horiz-adv-x="860" 
d="M824 379v-94h-565v-116l-223 163l223 163v-116h565z" />
    <glyph glyph-name="arrowup" unicode="&#x2191;" horiz-adv-x="860" 
d="M477 -38h-94v565h-116l163 223l163 -223h-116v-565z" />
    <glyph glyph-name="arrowright" unicode="&#x2192;" horiz-adv-x="860" 
d="M36 285v94h565v116l223 -163l-223 -163v116h-565z" />
    <glyph glyph-name="arrowdown" unicode="&#x2193;" horiz-adv-x="860" 
d="M383 750h94v-565h116l-163 -223l-163 223h116v565z" />
    <glyph glyph-name="arrowboth" unicode="&#x2194;" horiz-adv-x="860" 
d="M259 495v-116h342v116l223 -163l-223 -163v116h-342v-116l-223 163z" />
    <glyph glyph-name="arrowupdn" unicode="&#x2195;" horiz-adv-x="860" 
d="M267 185h116v342h-116l163 223l163 -223h-116v-342h116l-163 -223z" />
    <glyph glyph-name="arrowupdnbse" unicode="&#x21a8;" horiz-adv-x="860" 
d="M267 185h116v342h-116l163 223l163 -223h-116v-342h116l-153 -209h143v-64h-306v64h143z" />
    <glyph glyph-name="partialdiff" unicode="&#x2202;" horiz-adv-x="560" 
d="M206 536h-119q53 176 226 176q103 0 152.5 -67.5t49.5 -206.5q0 -231 -63.5 -340.5t-201.5 -109.5q-93 0 -149 59t-56 162q0 114 62.5 179.5t161.5 65.5q98 0 127 -64q2 42 2 60q0 82 -22.5 122t-71.5 40q-70 0 -98 -76zM261 88q58 0 90.5 42.5t32.5 109.5q0 54 -26.5 84
t-73.5 30q-58 0 -90.5 -42.5t-32.5 -109.5q0 -54 26.5 -84t73.5 -30z" />
    <glyph glyph-name="Delta" unicode="&#x2206;" horiz-adv-x="616" 
d="M606 0h-596l227 700h142zM451 104l-143 481l-143 -481h286z" />
    <glyph glyph-name="product" unicode="&#x220f;" horiz-adv-x="652" 
d="M452 -111v707h-252v-707h-120v811h492v-811h-120z" />
    <glyph glyph-name="summation" unicode="&#x2211;" horiz-adv-x="566" 
d="M50 -12l167 302l-167 307v103h466v-104h-333l158 -290v-32l-156 -281h331v-104h-466v99z" />
    <glyph glyph-name="minus" unicode="&#x2212;" horiz-adv-x="540" 
d="M50 279v94h440v-94h-440z" />
    <glyph glyph-name="uni2215" unicode="&#x2215;" horiz-adv-x="180" 
d="M310 700l-342 -700h-98l342 700h98z" />
    <glyph glyph-name="uni2219" unicode="&#x2219;" horiz-adv-x="282" 
d="M204 389v-126h-126v126h126z" />
    <glyph glyph-name="radical" unicode="&#x221a;" horiz-adv-x="554" 
d="M309 -111h-126l-173 375h128l97 -231l199 717h120z" />
    <glyph glyph-name="infinity" unicode="&#x221e;" horiz-adv-x="778" 
d="M160 331q0 -29 18.5 -47t48.5 -18q57 0 103 65q-46 65 -103 65q-30 0 -48.5 -18t-18.5 -47zM618 331q0 29 -18.5 47t-48.5 18q-57 0 -103 -65q46 -65 103 -65q30 0 48.5 18t18.5 47zM389 275q-66 -95 -166 -95q-76 0 -119.5 40.5t-43.5 110.5t43.5 110.5t119.5 40.5
q100 0 166 -95q66 95 166 95q76 0 119.5 -40.5t43.5 -110.5t-43.5 -110.5t-119.5 -40.5q-100 0 -166 95z" />
    <glyph glyph-name="orthogonal" unicode="&#x221f;" horiz-adv-x="585" 
d="M565 104v-104h-485v575h120v-471h365z" />
    <glyph glyph-name="intersection" unicode="&#x2229;" horiz-adv-x="644" 
d="M322 617q119 0 185.5 -69t66.5 -201v-347h-120v335q0 94 -32 136t-100 42t-100 -42t-32 -136v-335h-120v347q0 132 66.5 201t185.5 69z" />
    <glyph glyph-name="integral" unicode="&#x222b;" horiz-adv-x="414" 
d="M384 703h-48q-41 0 -56.5 -14t-15.5 -48v-599q0 -82 -39.5 -116.5t-130.5 -34.5q-36 0 -64 4v90h48q41 0 56.5 14t15.5 48v599q0 82 39.5 116.5t130.5 34.5q36 0 64 -4v-90z" />
    <glyph glyph-name="approxequal" unicode="&#x2248;" horiz-adv-x="540" 
d="M352 344q-29 0 -53 9t-37 19.5t-29 19.5t-30 9q-39 0 -40 -51h-106q1 65 34 106t96 41q37 0 65 -14.5t47.5 -28.5t36.5 -14q39 0 40 51h106q-1 -65 -34 -106t-96 -41zM352 155q-37 0 -65 14.5t-47.5 28.5t-36.5 14q-39 0 -40 -51h-106q1 65 34 106t96 41q29 0 53 -9
t37 -19.5t29 -19.5t30 -9q39 0 40 51h106q-1 -65 -34 -106t-96 -41z" />
    <glyph glyph-name="notequal" unicode="&#x2260;" horiz-adv-x="540" 
d="M234 192l-64 -115h-78l64 115h-106v94h158l45 80h-203v94h255l65 115h78l-65 -115h107v-94h-159l-45 -80h204v-94h-256z" />
    <glyph glyph-name="equivalence" unicode="&#x2261;" horiz-adv-x="540" 
d="M50 117v94h440v-94h-440zM50 441v94h440v-94h-440zM50 279v94h440v-94h-440z" />
    <glyph glyph-name="lessequal" unicode="&#x2264;" horiz-adv-x="540" 
d="M482 134l-424 176v92l424 176v-104l-293 -118l293 -118v-104zM50 0v94h440v-94h-440z" />
    <glyph glyph-name="greaterequal" unicode="&#x2265;" horiz-adv-x="540" 
d="M482 310l-424 -176v104l293 118l-293 118v104l424 -176v-92zM490 94v-94h-440v94h440z" />
    <glyph glyph-name="house" unicode="&#x2302;" horiz-adv-x="624" 
d="M180 104h264v206l-132 150l-132 -150v-206zM564 0h-504v348l252 288l252 -288v-348z" />
    <glyph glyph-name="revlogicalnot" unicode="&#x2310;" horiz-adv-x="540" 
d="M490 373v-94h-336v-154h-104v248h440z" />
    <glyph glyph-name="uni2318" unicode="&#x2318;" horiz-adv-x="806" 
d="M554 382v-118h55q69 0 108 -38t39 -100t-39 -100t-108 -38t-108 38t-39 100v56h-118v-56q0 -62 -39 -100t-108 -38t-108 38t-39 100t39 100t108 38h55v118h-55q-69 0 -108 38t-39 100t39 100t108 38t108 -38t39 -100v-56h118v56q0 62 39 100t108 38t108 -38t39 -100
t-39 -100t-108 -38h-55zM344 264h118v118h-118v-118zM609 182h-55v-56q0 -26 15 -41t40 -15t40 15t15 41t-15 41t-40 15zM554 464h55q25 0 40 15t15 41t-15 41t-40 15t-40 -15t-15 -41v-56zM197 464h55v56q0 26 -15 41t-40 15t-40 -15t-15 -41t15 -41t40 -15zM252 182h-55
q-25 0 -40 -15t-15 -41t15 -41t40 -15t40 15t15 41v56z" />
    <glyph glyph-name="lozenge" unicode="&#x25ca;" horiz-adv-x="578" 
d="M533 302l-244 -459l-244 459l244 459zM410 302l-121 227l-121 -227l121 -227z" />
    <glyph glyph-name="H18533" unicode="&#x25cf;" horiz-adv-x="1000" 
d="M162 326q0 140 99 239t239 99t239 -99t99 -239t-99 -239t-239 -99t-239 99t-99 239z" />
    <glyph glyph-name="fi" horiz-adv-x="594" 
d="M335 613h-48q-41 0 -56.5 -14t-15.5 -48v-51h120v-94h-120v-406h-114v406h-71v94h71v56q0 82 39.5 116.5t130.5 34.5q36 0 64 -4v-90zM415 590v110h114v-110h-114zM415 0v500h114v-500h-114z" />
    <glyph glyph-name="fl" horiz-adv-x="594" 
d="M335 613h-48q-41 0 -56.5 -14t-15.5 -48v-51h120v-94h-120v-406h-114v406h-71v94h71v56q0 82 39.5 116.5t130.5 34.5q36 0 64 -4v-90zM529 0h-114v700h114v-700z" />
    <glyph glyph-name="commaaccent" horiz-adv-x="380" 
d="M203 -218h-90l38 170h115z" />
    <glyph glyph-name="zero.tnum" horiz-adv-x="570" 
d="M520 350q0 -218 -76 -300q-57 -62 -159 -62t-159 62q-76 82 -76 300t76 300q57 62 159 62t159 -62q76 -82 76 -300zM404 350q0 178 -38 225q-30 37 -81 37t-81 -37q-38 -47 -38 -225t38 -225q30 -37 81 -37t81 37q38 47 38 225z" />
    <glyph glyph-name="one.tnum" horiz-adv-x="431" 
d="M321 0h-116v578l-160 -70v112l177 80h99v-700z" />
    <glyph glyph-name="two.tnum" horiz-adv-x="541" 
d="M50 481v20q0 91 58.5 151t159.5 60t159.5 -60t58.5 -151q0 -52 -14 -86t-53 -79l-205 -236h282v-100h-436v90l264 306q46 53 46 104q0 52 -27.5 82t-74.5 30t-74.5 -30t-27.5 -82v-19h-116z" />
    <glyph glyph-name="three.tnum" horiz-adv-x="533" 
d="M35 198v13h117v-6q0 -55 31.5 -86t80.5 -31t80.5 31t31.5 86t-31.5 86.5t-80.5 31.5h-72v97h72q41 0 66.5 26t25.5 70t-25.5 70t-66.5 26t-66.5 -26t-25.5 -70v-5h-116v15q0 82 55.5 134t152.5 52t152.5 -52t55.5 -134q0 -52 -28.5 -95t-75.5 -59q59 -17 92 -62t33 -112
q0 -96 -63.5 -153t-165.5 -57t-165.5 57t-63.5 153z" />
    <glyph glyph-name="four.tnum" horiz-adv-x="532" 
d="M144 244h166v280zM502 244v-100h-76v-144h-116v144h-285v100l271 456h130v-456h76z" />
    <glyph glyph-name="five.tnum" horiz-adv-x="530" 
d="M267 354q-55 0 -82 -44h-116l18 390h365v-100h-257l-10 -196q13 22 42.5 36t64.5 14q89 0 143.5 -60.5t54.5 -173.5q0 -109 -59.5 -170.5t-163.5 -61.5q-98 0 -157 54t-65 148h116q5 -50 33 -76t73 -26q50 0 78.5 34t28.5 99t-28.5 99t-78.5 34z" />
    <glyph glyph-name="six.tnum" horiz-adv-x="555" 
d="M496 536h-119q-15 76 -91 76q-58 0 -83.5 -53.5t-27.5 -168.5q32 64 125 64q94 0 152 -63t58 -170q0 -106 -64 -169.5t-163 -63.5q-108 0 -170 79q-58 72 -58 249q0 223 58 311q56 85 173 85q87 0 142 -45t68 -131zM394 221q0 62 -30 97.5t-81 35.5t-81 -35.5t-30 -97.5
t30 -97.5t81 -35.5t81 35.5t30 97.5z" />
    <glyph glyph-name="seven.tnum" horiz-adv-x="510" 
d="M35 600v100h435v-89l-229 -611h-122l232 600h-316z" />
    <glyph glyph-name="eight.tnum" horiz-adv-x="548" 
d="M274 323q-54 0 -88 -32t-34 -86q0 -53 33.5 -85t88.5 -32t88.5 32t33.5 85q0 54 -34 86t-88 32zM274 -12q-106 0 -172.5 57t-66.5 153q0 130 123 174q-46 18 -74 60t-28 94q0 82 58.5 134t159.5 52t159.5 -52t58.5 -134q0 -52 -28 -94t-74 -60q123 -44 123 -174
q0 -96 -66.5 -153t-172.5 -57zM274 420q46 0 74 26.5t28 69.5t-28 69.5t-74 26.5t-74 -26.5t-28 -69.5t28 -69.5t74 -26.5z" />
    <glyph glyph-name="nine.tnum" horiz-adv-x="560" 
d="M64 164h119q15 -76 91 -76q58 0 83.5 53.5t27.5 168.5q-32 -64 -125 -64q-94 0 -152 63t-58 170q0 106 64 169.5t163 63.5q108 0 170 -79q58 -72 58 -249q0 -223 -58 -311q-56 -85 -173 -85q-87 0 -142 45t-68 131zM166 479q0 -62 30 -97.5t81 -35.5t81 35.5t30 97.5
t-30 97.5t-81 35.5t-81 -35.5t-30 -97.5z" />
    <glyph glyph-name="parenleft.case" horiz-adv-x="329" 
d="M80 351q0 113 10 193t27.5 130.5t47 79.5t63.5 39.5t81 10.5v-101q-32 0 -51 -11.5t-35 -47.5t-22.5 -107t-6.5 -186t6.5 -186t22.5 -107t35 -47.5t51 -11.5v-101q-47 0 -81 10.5t-63.5 39.5t-47 79.5t-27.5 130.5t-10 193z" />
    <glyph glyph-name="parenright.case" horiz-adv-x="329" 
d="M249 351q0 -113 -10 -193t-27.5 -130.5t-47 -79.5t-63.5 -39.5t-81 -10.5v101q32 0 51 11.5t35 47.5t22.5 107t6.5 186t-6.5 186t-22.5 107t-35 47.5t-51 11.5v101q47 0 81 -10.5t63.5 -39.5t47 -79.5t27.5 -130.5t10 -193z" />
    <glyph glyph-name="hyphen.case" horiz-adv-x="412" 
d="M50 300v100h312v-100h-312z" />
    <glyph glyph-name="at.case" horiz-adv-x="756" 
d="M378 711q-78 0 -120.5 -29t-64 -107.5t-21.5 -225.5q0 -91 8.5 -155t24 -104t42 -63t57 -31t74.5 -8q64 0 111 26l31 -82q-64 -33 -142 -33q-76 0 -129 19.5t-95.5 68t-63 138.5t-20.5 224q0 244 71.5 347.5t236.5 103.5t236.5 -103.5t71.5 -347.5q0 -122 -54 -187.5
t-154 -65.5q-99 0 -150.5 62t-51.5 169q0 112 49 171.5t133 59.5q92 0 120 -63q-11 120 -57.5 168t-142.5 48zM584 327q0 70 -24 103.5t-76 33.5t-76 -33.5t-24 -103.5t24 -103.5t76 -33.5t76 33.5t24 103.5z" />
    <glyph glyph-name="bracketleft.case" horiz-adv-x="342" 
d="M80 -88v876h222v-99h-108v-678h108v-99h-222z" />
    <glyph glyph-name="bracketright.case" horiz-adv-x="342" 
d="M262 788v-876h-222v99h108v678h-108v99h222z" />
    <glyph glyph-name="braceleft.case" horiz-adv-x="354" 
d="M120 64v166q0 70 -60 70h-20v100h20q60 0 60 70v166q0 79 39.5 115.5t121.5 36.5h33v-99h-20q-60 0 -60 -70v-163q0 -85 -73 -106q73 -21 73 -106v-163q0 -70 60 -70h20v-99h-33q-82 0 -121.5 36.5t-39.5 115.5z" />
    <glyph glyph-name="braceright.case" horiz-adv-x="354" 
d="M234 230v-166q0 -79 -39.5 -115.5t-121.5 -36.5h-33v99h20q60 0 60 70v163q0 85 73 106q-73 21 -73 106v163q0 70 -60 70h-20v99h33q82 0 121.5 -36.5t39.5 -115.5v-166q0 -70 60 -70h20v-100h-20q-60 0 -60 -70z" />
    <glyph glyph-name="exclamdown.case" horiz-adv-x="314" 
d="M100 121l12 388h90l12 -388v-121h-114v121zM100 590v110h114v-110h-114z" />
    <glyph glyph-name="guillemotleft.case" horiz-adv-x="500" 
d="M248 422l-122 -72l122 -72v-90l-208 126v72l208 126v-90zM460 422l-122 -72l122 -72v-90l-208 126v72l208 126v-90z" />
    <glyph glyph-name="periodcentered.case" horiz-adv-x="282" 
d="M204 413v-126h-126v126h126z" />
    <glyph glyph-name="guillemotright.case" horiz-adv-x="500" 
d="M374 350l-122 72v90l208 -126v-72l-208 -126v90zM162 350l-122 72v90l208 -126v-72l-208 -126v90z" />
    <glyph glyph-name="questiondown.case" horiz-adv-x="519" 
d="M354 190h114v-3q0 -89 -55.5 -144t-152.5 -55t-152.5 55t-55.5 144q0 59 20.5 99.5t66.5 80.5q40 35 54.5 62t14.5 66v24h114v-32q0 -56 -19 -93t-70 -83q-39 -34 -53 -59.5t-14 -61.5q0 -49 26 -75.5t68 -26.5t68 26.5t26 75.5zM322 700v-110h-114v110h114z" />
    <glyph glyph-name="endash.case" horiz-adv-x="500" 
d="M500 300h-500v100h500v-100z" />
    <glyph glyph-name="emdash.case" horiz-adv-x="1000" 
d="M1000 300h-1000v100h1000v-100z" />
    <glyph glyph-name="bullet.case" horiz-adv-x="362" 
d="M312 350q0 -54 -38.5 -92.5t-92.5 -38.5t-92.5 38.5t-38.5 92.5t38.5 92.5t92.5 38.5t92.5 -38.5t38.5 -92.5z" />
    <glyph glyph-name="guilsinglleft.case" horiz-adv-x="288" 
d="M248 422l-122 -72l122 -72v-90l-208 126v72l208 126v-90z" />
    <glyph glyph-name="guilsinglright.case" horiz-adv-x="288" 
d="M162 350l-122 72v90l208 -126v-72l-208 -126v90z" />
    <glyph glyph-name="zero.numerator" 
d="M252 468q0 99 -20 131q-15 25 -44 25t-44 -25q-20 -32 -20 -131t20 -131q15 -25 44 -25t44 25q20 32 20 131zM26 468q0 139 47 193q41 47 115 47t115 -47q47 -54 47 -193t-47 -193q-41 -47 -115 -47t-115 47q-47 54 -47 193z" />
    <glyph glyph-name="one.numerator" 
d="M265 236h-100v369l-98 -45v88l115 52h83v-464z" />
    <glyph glyph-name="two.numerator" 
d="M35 549v16q0 66 41 104.5t111 38.5q67 0 109 -38.5t42 -104.5q0 -59 -54 -120l-107 -123h161v-86h-293v73l170 197q23 26 23 58q0 25 -13.5 39.5t-37.5 14.5q-25 0 -38.5 -14.5t-13.5 -39.5v-15h-100z" />
    <glyph glyph-name="three.numerator" 
d="M30 372v17h100v-12q0 -30 15.5 -47.5t42.5 -17.5t42.5 17t15.5 46q0 63 -63 63h-35v84h35q53 0 53 51t-48 51q-23 0 -35.5 -13t-12.5 -36v-7h-98v16q0 56 40.5 90t105.5 34q66 0 106 -34.5t40 -91.5q0 -74 -67 -99q79 -23 79 -110q0 -64 -41.5 -104.5t-116.5 -40.5
q-74 0 -116 40.5t-42 103.5z" />
    <glyph glyph-name="four.numerator" 
d="M120 406h90v155zM356 406v-84h-48v-86h-98v86h-191v77l177 301h112v-294h48z" />
    <glyph glyph-name="five.numerator" 
d="M33 370h98q3 -27 18 -42t39 -15q26 0 41 19.5t15 54.5t-15 54.5t-41 19.5q-35 0 -51 -29h-89l12 268h258v-84h-169l-5 -99q23 28 68 28q61 0 95.5 -43.5t34.5 -115.5q0 -73 -40.5 -115t-113.5 -42q-70 0 -110 38t-45 103z" />
    <glyph glyph-name="six.numerator" 
d="M336 586h-99q-8 42 -48 42q-32 0 -45 -25t-13 -92q23 34 75 34q65 0 102 -43t37 -116t-40.5 -115.5t-116.5 -42.5q-83 0 -122 59q-34 50 -34 168q0 143 39 199q38 54 118 54q60 0 98 -32.5t49 -89.5zM188 461q-59 0 -59 -75q0 -35 15.5 -54.5t43.5 -19.5t43.5 19.5
t15.5 54.5t-15.5 55t-43.5 20z" />
    <glyph glyph-name="seven.numerator" 
d="M36 614v86h305v-69l-149 -395h-104l147 378h-199z" />
    <glyph glyph-name="eight.numerator" 
d="M188 228q-75 0 -118.5 40.5t-43.5 103.5q0 87 79 115q-31 11 -49 38t-18 59q0 56 40.5 90t109.5 34t109.5 -34t40.5 -90q0 -32 -18 -59t-49 -38q79 -28 79 -115q0 -63 -43.5 -103.5t-118.5 -40.5zM188 442q-28 0 -45 -17.5t-17 -47.5t17.5 -47.5t44.5 -17.5t44.5 17.5
t17.5 47.5t-17 47.5t-45 17.5zM188 526q23 0 37.5 13.5t14.5 35.5t-14.5 35.5t-37.5 13.5t-37.5 -13.5t-14.5 -35.5t14.5 -35.5t37.5 -13.5z" />
    <glyph glyph-name="nine.numerator" 
d="M40 350h99q8 -42 48 -42q32 0 45 25t13 92q-23 -34 -75 -34q-65 0 -102 43t-37 116t40.5 115.5t116.5 42.5q83 0 122 -59q34 -50 34 -168q0 -143 -39 -199q-37 -54 -118 -54q-60 0 -98 32.5t-49 89.5zM188 475q59 0 59 75q0 35 -15.5 54.5t-43.5 19.5t-43.5 -19.5
t-15.5 -54.5t15.5 -55t43.5 -20z" />
    <glyph glyph-name="zero.denominator" 
d="M252 231q0 99 -20 131q-15 25 -44 25t-44 -25q-20 -32 -20 -131t20 -131q15 -25 44 -25t44 25q20 32 20 131zM26 231q0 139 47 193q41 47 115 47t115 -47q47 -54 47 -193t-47 -193q-41 -47 -115 -47t-115 47q-47 54 -47 193z" />
    <glyph glyph-name="one.denominator" 
d="M265 -1h-100v369l-98 -45v88l115 52h83v-464z" />
    <glyph glyph-name="two.denominator" 
d="M35 312v16q0 66 41 104.5t111 38.5q67 0 109 -38.5t42 -104.5q0 -59 -54 -120l-107 -123h161v-86h-293v73l170 197q23 26 23 58q0 25 -13.5 39.5t-37.5 14.5q-25 0 -38.5 -14.5t-13.5 -39.5v-15h-100z" />
    <glyph glyph-name="three.denominator" 
d="M30 135v17h100v-12q0 -30 15.5 -47.5t42.5 -17.5t42.5 17t15.5 46q0 63 -63 63h-35v84h35q53 0 53 51t-48 51q-23 0 -35.5 -13t-12.5 -36v-7h-98v16q0 56 40.5 90t105.5 34q66 0 106 -34.5t40 -91.5q0 -74 -67 -99q79 -23 79 -110q0 -64 -41.5 -104.5t-116.5 -40.5
q-74 0 -116 40.5t-42 103.5z" />
    <glyph glyph-name="four.denominator" 
d="M120 169h90v155zM356 169v-84h-48v-86h-98v86h-191v77l177 301h112v-294h48z" />
    <glyph glyph-name="five.denominator" 
d="M33 133h98q3 -27 18 -42t39 -15q26 0 41 19.5t15 54.5t-15 54.5t-41 19.5q-35 0 -51 -29h-89l12 268h258v-84h-169l-5 -99q23 28 68 28q61 0 95.5 -43.5t34.5 -115.5q0 -73 -40.5 -115t-113.5 -42q-70 0 -110 38t-45 103z" />
    <glyph glyph-name="six.denominator" 
d="M336 349h-99q-8 42 -48 42q-32 0 -45 -25t-13 -92q23 34 75 34q65 0 102 -43t37 -116t-40.5 -115.5t-116.5 -42.5q-83 0 -122 59q-34 50 -34 168q0 143 39 199q38 54 118 54q60 0 98 -32.5t49 -89.5zM188 224q-59 0 -59 -75q0 -35 15.5 -54.5t43.5 -19.5t43.5 19.5
t15.5 54.5t-15.5 55t-43.5 20z" />
    <glyph glyph-name="seven.denominator" 
d="M36 377v86h305v-69l-149 -395h-104l147 378h-199z" />
    <glyph glyph-name="eight.denominator" 
d="M188 -9q-75 0 -118.5 40.5t-43.5 103.5q0 87 79 115q-31 11 -49 38t-18 59q0 56 40.5 90t109.5 34t109.5 -34t40.5 -90q0 -32 -18 -59t-49 -38q79 -28 79 -115q0 -63 -43.5 -103.5t-118.5 -40.5zM188 205q-28 0 -45 -17.5t-17 -47.5t17.5 -47.5t44.5 -17.5t44.5 17.5
t17.5 47.5t-17 47.5t-45 17.5zM188 289q23 0 37.5 13.5t14.5 35.5t-14.5 35.5t-37.5 13.5t-37.5 -13.5t-14.5 -35.5t14.5 -35.5t37.5 -13.5z" />
    <glyph glyph-name="nine.denominator" 
d="M40 113h99q8 -42 48 -42q32 0 45 25t13 92q-23 -34 -75 -34q-65 0 -102 43t-37 116t40.5 115.5t116.5 42.5q83 0 122 -59q34 -50 34 -168q0 -143 -39 -199q-37 -54 -118 -54q-60 0 -98 32.5t-49 89.5zM188 238q59 0 59 75q0 35 -15.5 54.5t-43.5 19.5t-43.5 -19.5
t-15.5 -54.5t15.5 -55t43.5 -20z" />
    </font>
</defs>
</svg>
