<?xml version="1.0" standalone="no"?>
<!DOCTYPE svg PUBLIC "-//W3C//DTD SVG 1.1//EN" "http://www.w3.org/Graphics/SVG/1.1/DTD/svg11.dtd" >
<svg xmlns="http://www.w3.org/2000/svg" xmlns:xlink="http://www.w3.org/1999/xlink" version="1.1">
<metadata>
Created by FontForge 20161013 at Tue May 27 19:02:55 2014
 By ,,,
Core Sans A 55 Medium Italic
</metadata>
<defs>
<font id="CoreSansA55Medium-Italic" horiz-adv-x="420" >
  <font-face 
    font-family="Core Sans A 55 Medium"
    font-weight="400"
    font-style="italic"
    font-stretch="normal"
    units-per-em="1000"
    panose-1="2 11 6 3 3 3 2 2 2 4"
    ascent="800"
    descent="-200"
    x-height="518"
    cap-height="700"
    bbox="-466 -267 1081 1005"
    underline-thickness="24"
    underline-position="-255"
    slope="-11"
    unicode-range="U+0008-FB04"
  />
<missing-glyph horiz-adv-x="500" 
d="M440 0h-360v750h360v-750zM155 65h210v620h-210v-620z" />
    <glyph glyph-name="f_f" unicode="ff" horiz-adv-x="685" 
d="M692 730q42 0 70 -4l-18 -93q-26 3 -53 3q-46 0 -67 -19t-30 -60l-8 -39h125l-18 -94h-125l-124 -636h-118l124 636h-195l-124 -636h-118l124 636h-91l18 94h91l9 45q17 87 68.5 127t146.5 40q42 0 70 -4l-18 -93q-25 3 -53 3q-46 0 -67 -19t-30 -60l-8 -39h195l9 45
q17 87 68.5 127t146.5 40z" />
    <glyph glyph-name="f_i" unicode="fi" horiz-adv-x="614" 
d="M374 0l82 424h-201l-124 -636h-118l124 636h-91l18 94h91l9 45q17 87 68 127t147 40q37 0 63 -3l-18 -94q-22 3 -48 3q-45 0 -65.5 -19t-29.5 -60l-8 -39h319l-100 -518h-118zM635 667q-6 -31 -31 -51.5t-56 -20.5q-27 0 -44 16t-17 41q0 35 27.5 61t61.5 26
q27 0 43.5 -16t16.5 -42q0 -9 -1 -14z" />
    <glyph glyph-name="f_l" unicode="fl" horiz-adv-x="604" 
d="M375 730q62 0 127 -17l3 17h118l-141 -730h-118l121 625q-55 11 -109 11q-45 0 -65.5 -19t-29.5 -60l-8 -39h124l-18 -94h-124l-124 -636h-118l124 636h-91l18 94h91l9 45q17 87 67 127t144 40z" />
    <glyph glyph-name="f_f_i" unicode="ffi" horiz-adv-x="927" 
d="M687 0l82 424h-201l-124 -636h-118l124 636h-195l-124 -636h-118l124 636h-91l18 94h91l9 45q17 87 68.5 127t146.5 40q42 0 70 -4l-18 -93q-25 3 -53 3q-46 0 -67 -19t-30 -60l-8 -39h195l9 45q17 87 68 127t147 40q38 0 63 -3l-18 -94q-23 3 -48 3q-45 0 -65.5 -19
t-29.5 -60l-8 -39h319l-100 -518h-118zM948 667q-6 -31 -31 -51.5t-56 -20.5q-27 0 -44 16t-17 41q0 35 27.5 61t61.5 26q27 0 43.5 -16t16.5 -42q0 -9 -1 -14z" />
    <glyph glyph-name="f_f_l" unicode="ffl" horiz-adv-x="917" 
d="M688 730q62 0 127 -17l3 17h118l-141 -730h-118l121 625q-55 11 -109 11q-45 0 -65.5 -19t-29.5 -60l-8 -39h124l-18 -94h-124l-124 -636h-118l124 636h-195l-124 -636h-118l124 636h-91l18 94h91l9 45q17 87 68.5 127t146.5 40q42 0 70 -4l-18 -93q-25 3 -53 3
q-46 0 -67 -19t-30 -60l-8 -39h195l9 45q17 87 67 127t144 40z" />
    <glyph glyph-name=".notdef" horiz-adv-x="500" 
d="M440 0h-360v750h360v-750zM155 65h210v620h-210v-620z" />
    <glyph glyph-name=".null" horiz-adv-x="0" 
 />
    <glyph glyph-name=".null" horiz-adv-x="0" 
 />
    <glyph glyph-name=".null" horiz-adv-x="0" 
 />
    <glyph glyph-name="nonmarkingreturn" horiz-adv-x="333" 
 />
    <glyph glyph-name="CR" unicode="&#x9;" horiz-adv-x="237" 
 />
    <glyph glyph-name="CR" unicode="&#xd;" horiz-adv-x="237" 
 />
    <glyph glyph-name="space" unicode=" " horiz-adv-x="300" 
 />
    <glyph glyph-name="exclam" unicode="!" horiz-adv-x="300" 
d="M39 61q6 31 31.5 52t55.5 21q26 0 42 -16.5t16 -41.5q0 -35 -26.5 -61.5t-60.5 -26.5q-26 0 -43 16.5t-17 41.5q0 5 2 15zM93 182l42 342l35 176h132l-35 -176l-90 -342h-84z" />
    <glyph glyph-name="quotedbl" unicode="&#x22;" horiz-adv-x="512" 
d="M142 422l40 278h121l-7 -32l-74 -246h-80zM341 422l40 278h121l-7 -32l-74 -246h-80z" />
    <glyph glyph-name="numbersign" unicode="#" horiz-adv-x="706" 
d="M362 535h151l62 165h111l-62 -165h102l-18 -93h-118l-66 -181h109l-18 -93h-125l-60 -168h-111l60 168h-151l-60 -168h-111l60 168h-102l18 93h118l66 181h-108l18 93h124l61 165h111zM479 442h-151l-66 -181h151z" />
    <glyph glyph-name="dollar" unicode="$" horiz-adv-x="612" 
d="M210 -98l18 88q-151 16 -224 121l104 70q52 -73 140 -85l42 215q-3 0 -4 1q-92 27 -134 67.5t-42 100.5q0 99 71.5 163.5t186.5 68.5l17 88h67l-18 -92q116 -19 175 -107l-99 -66q-37 51 -97 66l-37 -192q96 -31 140.5 -71t44.5 -102q0 -106 -75 -173.5t-192 -73.5
l-17 -87h-67zM429 184q2 8 2 23q0 27 -18 46t-60 36l-38 -193q46 6 76.5 29.5t37.5 58.5zM242 526q-2 -14 -2 -20q0 -47 73 -76l34 175q-92 -9 -105 -79z" />
    <glyph glyph-name="percent" unicode="%" horiz-adv-x="895" 
d="M804 666l-619 -680l-59 47l619 680zM455 528q-15 -79 -69 -129t-129 -50q-63 0 -98 36.5t-35 97.5q0 94 59 159t144 65q63 0 97.5 -36.5t34.5 -97.5q0 -24 -4 -45zM229 528q-4 -19 -4 -36q0 -55 49 -55q42 0 63.5 39t21.5 88q0 55 -49 55q-63 0 -81 -91zM801 171
q-15 -79 -69 -129t-129 -50q-63 0 -98 36.5t-35 97.5q0 94 59 159t144 65q63 0 97.5 -36.5t34.5 -97.5q0 -24 -4 -45zM575 171q-4 -19 -4 -36q0 -55 49 -55q42 0 63.5 39t21.5 88q0 55 -49 55q-63 0 -81 -91z" />
    <glyph glyph-name="ampersand" unicode="&#x26;" horiz-adv-x="661" 
d="M436 0l-26 39q-90 -51 -189 -51q-89 0 -141.5 41t-52.5 110q0 137 169 229q-41 71 -41 128q0 95 65.5 155.5t165.5 60.5q69 0 113 -37t44 -101q0 -134 -183 -233l94 -140q51 53 87 112l91 -46q-53 -85 -121 -151l78 -116h-153zM256 93q48 0 99 30l-105 161
q-54 -33 -74 -61t-20 -63q0 -31 25 -49t75 -18zM366 611q-39 0 -63 -29.5t-24 -73.5q0 -37 29 -86q112 56 112 133q0 25 -14.5 40.5t-39.5 15.5z" />
    <glyph glyph-name="quotesingle" unicode="'" horiz-adv-x="303" 
d="M137 422l40 278h121l-7 -32l-74 -246h-80z" />
    <glyph glyph-name="parenleft" unicode="(" horiz-adv-x="375" 
d="M106 310q47 247 243 443l70 -38q-217 -251 -217 -543q0 -139 60 -267l-85 -38q-85 139 -85 306q0 64 14 137z" />
    <glyph glyph-name="parenright" unicode=")" horiz-adv-x="375" 
d="M289 310q-49 -249 -243 -443l-71 38q218 250 218 542q0 141 -61 268l86 38q84 -137 84 -307q0 -68 -13 -136z" />
    <glyph glyph-name="asterisk" unicode="*" horiz-adv-x="550" 
d="M336 554l-10 -152l125 85l52 -89l-136 -66l136 -67l-52 -89l-125 85l10 -151h-102l10 151l-125 -85l-52 89l136 67l-136 66l52 89l125 -85l-10 152h102z" />
    <glyph glyph-name="plus" unicode="+" horiz-adv-x="616" 
d="M263 82v203h-196v93h196v202h110v-202h196v-93h-196v-203h-110z" />
    <glyph glyph-name="comma" unicode="," horiz-adv-x="308" 
d="M-35 -133l132 277l105 -38l-160 -265z" />
    <glyph glyph-name="hyphen" unicode="-" horiz-adv-x="404" 
d="M351 281h-290l20 101h290z" />
    <glyph glyph-name="period" unicode="." horiz-adv-x="308" 
d="M43 61q6 31 31.5 52t55.5 21q26 0 42 -16.5t16 -41.5q0 -35 -26.5 -61.5t-60.5 -26.5q-26 0 -43 16.5t-17 41.5q0 5 2 15z" />
    <glyph glyph-name="slash" unicode="/" horiz-adv-x="518" 
d="M604 711l-588 -839l-78 53l586 838z" />
    <glyph glyph-name="zero" unicode="0" horiz-adv-x="616" 
d="M588 350q-32 -163 -118.5 -262.5t-214.5 -99.5q-102 0 -153 64.5t-51 175.5q0 52 13 122q31 163 117.5 262.5t214.5 99.5q102 0 153 -65t51 -177q0 -57 -12 -120zM190 350q-13 -64 -13 -116q0 -140 99 -140q135 0 186 256q12 64 12 115q0 141 -99 141q-136 0 -185 -256z
" />
    <glyph glyph-name="one" unicode="1" horiz-adv-x="616" 
d="M232 0l108 559l-138 -87l-56 78l236 150h110l-136 -700h-124z" />
    <glyph glyph-name="two" unicode="2" horiz-adv-x="616" 
d="M387 712q91 0 142.5 -41.5t51.5 -118.5q0 -97 -87 -202.5t-274 -245.5h289l-20 -104h-464l18 93q88 63 149.5 112t127 109.5t99.5 115t34 100.5q0 76 -92 76q-88 0 -169 -79l-73 64q56 56 126.5 88.5t141.5 32.5z" />
    <glyph glyph-name="three" unicode="3" horiz-adv-x="616" 
d="M397 712q87 0 139 -39t52 -107q0 -72 -44.5 -126.5t-104.5 -74.5q107 -35 107 -135q0 -103 -82.5 -172.5t-210.5 -69.5q-165 0 -235 115l99 70q51 -79 147 -79q68 0 111.5 33.5t43.5 92.5q0 46 -37.5 68.5t-100.5 22.5h-66l20 104h65q67 0 112 33t45 89q0 33 -23.5 51
t-66.5 18q-85 0 -160 -70l-71 68q117 108 261 108z" />
    <glyph glyph-name="four" unicode="4" horiz-adv-x="616" 
d="M340 140h-327l19 99l426 461h115l-89 -456h89l-20 -104h-89l-27 -140h-124zM411 509l-244 -265h193z" />
    <glyph glyph-name="five" unicode="5" horiz-adv-x="616" 
d="M144 311l-22 16l73 373h407l-21 -104h-283l-32 -166q42 11 91 11q89 0 140 -46.5t51 -129.5q0 -116 -80.5 -196.5t-212.5 -80.5q-158 0 -225 113l99 70q50 -77 140 -77q63 0 107 41.5t44 104.5q0 45 -32.5 70t-90.5 25q-78 0 -153 -24z" />
    <glyph glyph-name="six" unicode="6" horiz-adv-x="616" 
d="M392 606q-127 0 -180 -208q78 59 166 59q86 0 135.5 -49t49.5 -131q0 -125 -85.5 -207t-209.5 -82q-207 0 -207 223q0 57 13 123q37 192 123.5 285t209.5 93q141 0 195 -111l-100 -59q-36 64 -110 64zM334 353q-75 0 -144 -57q-6 -42 -6 -73q0 -129 102 -129
q67 0 108.5 44.5t41.5 121.5q0 45 -26 69t-76 24z" />
    <glyph glyph-name="seven" unicode="7" horiz-adv-x="616" 
d="M605 598l-381 -598h-132l380 596h-343l21 104h475z" />
    <glyph glyph-name="eight" unicode="8" horiz-adv-x="616" 
d="M128 523q16 83 88 136t178 53q93 0 145.5 -42.5t52.5 -110.5q0 -59 -34.5 -111t-92.5 -84q92 -55 92 -140q0 -103 -87 -169t-216 -66q-104 0 -163.5 43.5t-59.5 120.5q0 71 40.5 129t111.5 94q-58 48 -58 115q0 15 3 32zM161 195q-2 -12 -2 -18q0 -39 32 -60.5t85 -21.5
q66 0 109 28.5t43 79.5q0 34 -31.5 56.5t-129.5 67.5q-89 -48 -106 -132zM461 514q2 16 2 22q0 33 -23.5 51.5t-64.5 18.5q-52 0 -87 -27t-35 -70q0 -28 28 -51.5t97 -51.5q71 40 83 108z" />
    <glyph glyph-name="nine" unicode="9" horiz-adv-x="616" 
d="M439 302q-78 -59 -166 -59q-86 0 -135.5 49t-49.5 131q0 125 85.5 207t209.5 82q99 0 153 -54.5t54 -168.5q0 -57 -13 -123q-38 -195 -130 -286.5t-221 -91.5q-121 0 -185 79l94 76q37 -49 112 -49q136 0 192 208zM317 347q75 0 144 57q6 40 6 72q0 130 -102 130
q-67 0 -108.5 -44.5t-41.5 -121.5q0 -45 26 -69t76 -24z" />
    <glyph glyph-name="colon" unicode=":" horiz-adv-x="308" 
d="M43 61q6 31 31.5 52t55.5 21q26 0 42 -16.5t16 -41.5q0 -35 -26.5 -61.5t-60.5 -26.5q-26 0 -43 16.5t-17 41.5q0 5 2 15zM120 457q6 31 31.5 52t55.5 21q26 0 42 -16.5t16 -41.5q0 -35 -26.5 -61.5t-60.5 -26.5q-26 0 -43 16.5t-17 41.5q0 5 2 15z" />
    <glyph glyph-name="semicolon" unicode=";" horiz-adv-x="308" 
d="M120 457q6 31 31.5 52t55.5 21q26 0 42 -16.5t16 -41.5q0 -35 -26.5 -61.5t-60.5 -26.5q-26 0 -43 16.5t-17 41.5q0 5 2 15zM-49 -133l132 277l105 -38l-160 -265z" />
    <glyph glyph-name="less" unicode="&#x3c;" horiz-adv-x="616" 
d="M112 293v76l362 229l50 -87l-290 -180l290 -180l-50 -87z" />
    <glyph glyph-name="equal" unicode="=" horiz-adv-x="616" 
d="M569 402h-502v92h502v-92zM569 169h-502v92h502v-92z" />
    <glyph glyph-name="greater" unicode="&#x3e;" horiz-adv-x="616" 
d="M524 369v-76l-362 -229l-50 87l290 180l-290 180l50 87z" />
    <glyph glyph-name="question" unicode="?" horiz-adv-x="546" 
d="M354 712q86 0 134 -36.5t48 -103.5q0 -140 -158 -232q-42 -24 -60 -48t-26 -65l-9 -45h-124l10 53q21 113 131 176q59 33 83 64t24 70q0 29 -22 45t-62 16q-76 0 -145 -66l-68 66q48 48 113 77t131 29zM125 61q6 31 31.5 52t55.5 21q26 0 42 -16.5t16 -41.5
q0 -35 -26.5 -61.5t-60.5 -26.5q-26 0 -43 16.5t-17 41.5q0 5 2 15z" />
    <glyph glyph-name="at" unicode="@" horiz-adv-x="963" 
d="M259 271q20 100 81.5 161.5t155.5 61.5q75 0 120 -56l8 44h105l-55 -286q-3 -12 -3 -21q0 -45 43 -45q52 0 86.5 69.5t34.5 170.5q0 124 -77 200.5t-201 76.5q-78 0 -154 -34.5t-135 -94t-95.5 -147t-36.5 -185.5q0 -129 76 -207.5t200 -78.5q60 0 124 20.5t115 56.5
l26 -57q-124 -84 -277 -84q-159 0 -248.5 93.5t-89.5 243.5q0 142 67 266t184.5 198.5t256.5 74.5q158 0 249 -92.5t91 -237.5q0 -132 -62.5 -230t-167.5 -98q-92 0 -113 62q-73 -68 -158 -68q-78 0 -117.5 42.5t-39.5 116.5q0 32 7 64zM444 130q64 0 123 56l33 169
q-40 56 -102 56q-68 0 -104 -54t-36 -140q0 -87 86 -87z" />
    <glyph glyph-name="A" unicode="A" horiz-adv-x="698" 
d="M362 700h146l121 -700h-133l-24 160h-285l-85 -160h-133zM411 579l-168 -315h214z" />
    <glyph glyph-name="B" unicode="B" horiz-adv-x="640" 
d="M27 0l136 700h250q100 0 153.5 -41t53.5 -110q0 -62 -35 -111.5t-95 -68.5q51 -13 78 -46t27 -82q0 -110 -82.5 -175.5t-220.5 -65.5h-265zM266 596l-35 -184h118q141 0 141 116q0 68 -106 68h-118zM171 104h131q166 0 166 126q0 78 -127 78h-131z" />
    <glyph glyph-name="C" unicode="C" horiz-adv-x="694" 
d="M61 350q32 162 142.5 262t260.5 100q95 0 161 -40.5t94 -111.5l-112 -55q-48 101 -159 101q-106 0 -187.5 -92t-81.5 -238q0 -87 46 -134.5t124 -47.5q111 0 197 101l92 -55q-55 -71 -137.5 -111.5t-177.5 -40.5q-127 0 -199 73t-72 198q0 43 9 91z" />
    <glyph glyph-name="D" unicode="D" horiz-adv-x="698" 
d="M269 0h-242l136 700h242q133 0 205 -69.5t72 -191.5q0 -193 -119 -316t-294 -123zM266 596l-95 -492h110q114 0 193.5 85t79.5 233q0 85 -46.5 129.5t-131.5 44.5h-110z" />
    <glyph glyph-name="E" unicode="E" horiz-adv-x="578" 
d="M27 0l136 700h452l-21 -104h-328l-35 -184h293l-21 -104h-293l-39 -204h337l-20 -104h-461z" />
    <glyph glyph-name="F" unicode="F" horiz-adv-x="548" 
d="M27 0l136 700h452l-21 -104h-328l-39 -204h293l-21 -104h-293l-55 -288h-124z" />
    <glyph glyph-name="G" unicode="G" horiz-adv-x="720" 
d="M61 350q31 162 141.5 262t254.5 100q197 0 261 -151l-113 -55q-45 100 -165 100q-101 0 -180.5 -93.5t-79.5 -237.5q0 -85 48 -133t128 -48q107 0 166 62l22 116h-158l21 104h278l-52 -265q-118 -123 -300 -123q-130 0 -205.5 75t-75.5 201q0 41 9 86z" />
    <glyph glyph-name="H" unicode="H" horiz-adv-x="718" 
d="M27 0l136 700h124l-54 -278h316l54 278h124l-136 -700h-124l61 318h-316l-61 -318h-124z" />
    <glyph glyph-name="I" unicode="I" horiz-adv-x="288" 
d="M168 700h124l-136 -700h-124z" />
    <glyph glyph-name="J" unicode="J" horiz-adv-x="592" 
d="M236 94q60 0 99 40t53 110l89 456h124l-88 -453q-24 -120 -100.5 -189.5t-193.5 -69.5q-82 0 -137.5 37t-78.5 106l111 55q31 -92 122 -92z" />
    <glyph glyph-name="K" unicode="K" horiz-adv-x="644" 
d="M690 700l-280 -288l175 -412h-137l-130 317l-132 -136l-35 -181h-124l136 700h124l-67 -344l328 344h142z" />
    <glyph glyph-name="L" unicode="L" horiz-adv-x="548" 
d="M27 0l136 700h124l-116 -596h328l-20 -104h-452z" />
    <glyph glyph-name="M" unicode="M" horiz-adv-x="864" 
d="M444 127h-76l-124 356l-93 -483h-124l136 700h122l150 -423l316 423h122l-136 -700h-124l93 483z" />
    <glyph glyph-name="N" unicode="N" horiz-adv-x="720" 
d="M27 0l136 700h120l226 -494l96 494h124l-136 -700h-120l-226 494l-96 -494h-124z" />
    <glyph glyph-name="O" unicode="O" horiz-adv-x="730" 
d="M705 350q-31 -157 -137.5 -259.5t-255.5 -102.5q-125 0 -193 74t-68 195q0 122 52 226.5t145 166.5t205 62q125 0 193 -74.5t68 -196.5q0 -45 -9 -91zM579 350q8 45 8 77q0 84 -40.5 131.5t-114.5 47.5q-103 0 -178 -94t-75 -241q0 -84 40.5 -130.5t113.5 -46.5
q90 0 156.5 69t89.5 187z" />
    <glyph glyph-name="P" unicode="P" horiz-adv-x="613" 
d="M622 475q-21 -110 -104 -167t-211 -57h-108l-48 -251h-124l136 700h232q112 0 172 -43.5t60 -128.5q0 -29 -5 -53zM496 475q3 17 3 31q0 90 -132 90h-101l-46 -241h101q152 0 175 120z" />
    <glyph glyph-name="Q" unicode="Q" horiz-adv-x="730" 
d="M705 350q-29 -144 -123 -245l74 -101l-96 -76l-76 102q-79 -42 -172 -42q-125 0 -193 74t-68 195q0 122 52 226.5t145 166.5t205 62q125 0 193 -74.5t68 -196.5q0 -45 -9 -91zM579 350q8 45 8 77q0 84 -40.5 131.5t-114.5 47.5q-103 0 -178 -94t-75 -241
q0 -84 40.5 -130.5t113.5 -46.5q47 0 90 20l-76 105l97 76l72 -99q45 64 63 154z" />
    <glyph glyph-name="R" unicode="R" horiz-adv-x="650" 
d="M633 489q-15 -74 -62 -124t-121 -70l131 -295h-136l-117 279h-123l-54 -279h-124l136 700h244q112 0 171.5 -41t59.5 -121q0 -21 -5 -49zM507 489q3 15 3 28q0 79 -123 79h-121l-41 -213h121q73 0 111.5 25.5t49.5 80.5z" />
    <glyph glyph-name="S" unicode="S" horiz-adv-x="612" 
d="M286 94q66 0 106 32.5t40 82.5q0 35 -32 57t-114 46q-92 27 -134 67.5t-42 100.5q0 102 75.5 167t195.5 65q154 0 228 -111l-99 -66q-52 71 -141 71q-62 0 -95.5 -27t-33.5 -73q0 -30 27.5 -51.5t95.5 -41.5q104 -31 151.5 -71.5t47.5 -105.5q0 -111 -82 -179.5
t-208 -68.5q-181 0 -268 123l104 70q62 -87 178 -87z" />
    <glyph glyph-name="T" unicode="T" horiz-adv-x="582" 
d="M179 0l115 596h-210l21 104h544l-21 -104h-210l-115 -596h-124z" />
    <glyph glyph-name="U" unicode="U" horiz-adv-x="732" 
d="M313 -12q-113 0 -176.5 54.5t-63.5 158.5q0 40 8 77l82 422h124l-82 -422q-7 -38 -7 -60q0 -124 136 -124q165 0 201 184l82 422h124l-82 -422q-28 -141 -121 -215.5t-225 -74.5z" />
    <glyph glyph-name="V" unicode="V" horiz-adv-x="698" 
d="M238 700l88 -559l306 559h133l-393 -700h-146l-121 700h133z" />
    <glyph glyph-name="W" unicode="W" horiz-adv-x="1014" 
d="M527 700h132l31 -535l262 535h129l-342 -700h-154l-30 508l-226 -508h-154l-70 700h129l54 -535z" />
    <glyph glyph-name="X" unicode="X" horiz-adv-x="638" 
d="M435 0l-115 267l-217 -267h-138l298 363l-144 337h138l101 -239l195 239h138l-276 -337l158 -363h-138z" />
    <glyph glyph-name="Y" unicode="Y" horiz-adv-x="634" 
d="M329 0h-124l53 276l-158 424h134l109 -308l229 308h134l-324 -424z" />
    <glyph glyph-name="Z" unicode="Z" horiz-adv-x="579" 
d="M0 99l453 496h-338l21 105h488l-20 -99l-453 -496h367l-20 -105h-517z" />
    <glyph glyph-name="bracketleft" unicode="[" horiz-adv-x="418" 
d="M39 -130l171 880h284l-17 -87h-174l-137 -707h174l-17 -86h-284z" />
    <glyph glyph-name="backslash" unicode="\" horiz-adv-x="518" 
d="M351 -128l-261 839l99 52l262 -838z" />
    <glyph glyph-name="bracketright" unicode="]" horiz-adv-x="418" 
d="M398 750l-171 -880h-283l16 86h174l137 707h-174l17 87h284z" />
    <glyph glyph-name="asciicircum" unicode="^" horiz-adv-x="626" 
d="M277 702h92l190 -291l-85 -57l-151 221l-151 -221l-85 57z" />
    <glyph glyph-name="underscore" unicode="_" horiz-adv-x="500" 
d="M-83 -170l14 68h499l-14 -68h-499z" />
    <glyph glyph-name="grave" unicode="`" horiz-adv-x="396" 
d="M310 554l-135 129l81 65l114 -143z" />
    <glyph glyph-name="a" unicode="a" horiz-adv-x="609" 
d="M44 259q24 125 97.5 198t179.5 73q91 0 143 -62l10 50h118l-100 -518h-118l9 50q-77 -62 -168 -62q-87 0 -133 50t-46 140q0 42 8 81zM332 433q-77 0 -126 -64.5t-49 -170.5q0 -113 107 -113q77 0 137 55l46 238q-18 26 -49.5 40.5t-65.5 14.5z" />
    <glyph glyph-name="b" unicode="b" horiz-adv-x="609" 
d="M565 259q-24 -125 -97.5 -198t-179.5 -73q-90 0 -144 62l-9 -50h-118l141 730h118l-51 -262q78 62 169 62q87 0 133 -50t46 -140q0 -35 -8 -81zM345 433q-77 0 -137 -55l-46 -238q18 -26 49.5 -40.5t65.5 -14.5q77 0 125.5 64.5t48.5 170.5q0 113 -106 113z" />
    <glyph glyph-name="c" unicode="c" horiz-adv-x="546" 
d="M38 259q24 121 108 196t201 75q151 0 201 -126l-100 -48q-37 78 -115 78q-74 0 -127.5 -63t-53.5 -165q0 -58 30 -90t83 -32q78 0 145 78l82 -48q-100 -126 -251 -126q-100 0 -155 55t-55 149q0 33 7 67z" />
    <glyph glyph-name="d" unicode="d" horiz-adv-x="609" 
d="M44 259q24 125 97.5 198t179.5 73q91 0 143 -62l51 262h118l-141 -730h-118l9 50q-77 -62 -168 -62q-87 0 -133 50t-46 140q0 42 8 81zM332 433q-77 0 -126 -64.5t-49 -170.5q0 -113 107 -113q77 0 137 55l46 238q-18 26 -49.5 40.5t-65.5 14.5z" />
    <glyph glyph-name="e" unicode="e" horiz-adv-x="567" 
d="M273 84q74 0 142 66l71 -59q-97 -103 -231 -103q-103 0 -163 56.5t-60 152.5q0 136 93 234.5t240 98.5q89 0 140 -39.5t51 -101.5q0 -85 -70 -139.5t-181 -54.5q-94 0 -154 39q-2 -18 -2 -28q0 -56 33.5 -89t90.5 -33zM343 434q-115 0 -168 -116q57 -27 131 -27
q133 0 133 83q0 27 -24.5 43.5t-71.5 16.5z" />
    <glyph glyph-name="f" unicode="f" horiz-adv-x="372" 
d="M379 730q42 0 70 -4l-18 -93q-25 3 -53 3q-46 0 -67 -19t-30 -60l-8 -39h125l-18 -94h-125l-124 -636h-118l124 636h-91l18 94h91l9 45q17 87 68.5 127t146.5 40z" />
    <glyph glyph-name="g" unicode="g" horiz-adv-x="609" 
d="M464 468l10 50h118l-96 -496q-23 -119 -98.5 -182.5t-190.5 -63.5q-150 0 -213 107l96 57q44 -73 129 -73q58 0 101 35.5t55 103.5l8 44q-77 -62 -168 -62q-87 0 -133 50t-46 140q0 155 82.5 253.5t202.5 98.5q91 0 143 -62zM332 433q-77 0 -126 -64.5t-49 -170.5
q0 -113 107 -113q77 0 137 55l46 238q-18 26 -49.5 40.5t-65.5 14.5z" />
    <glyph glyph-name="h" unicode="h" horiz-adv-x="605" 
d="M358 434q-41 0 -83 -20.5t-70 -49.5l-70 -364h-118l141 730h118l-52 -272q85 72 188 72q71 0 110.5 -36.5t39.5 -105.5q0 -22 -5 -52l-65 -336h-118l62 319q4 17 4 37q0 78 -82 78z" />
    <glyph glyph-name="i" unicode="i" horiz-adv-x="262" 
d="M22 0l100 518h118l-100 -518h-118zM283 667q-6 -31 -31 -51.5t-56 -20.5q-27 0 -44 16t-17 41q0 35 27.5 61t61.5 26q27 0 43.5 -16t16.5 -42q0 -9 -1 -14z" />
    <glyph glyph-name="j" unicode="j" horiz-adv-x="262" 
d="M-97 -224q-29 0 -47 3l18 94q13 -1 44 -1q43 0 64.5 21t30.5 65l109 560h118l-106 -547q-20 -102 -73.5 -148.5t-157.5 -46.5zM283 667q-6 -31 -31 -51.5t-56 -20.5q-27 0 -44 16t-17 41q0 35 27.5 61t61.5 26q27 0 43.5 -16t16.5 -42q0 -9 -1 -14z" />
    <glyph glyph-name="k" unicode="k" horiz-adv-x="553" 
d="M158 730h118l-86 -443l245 231h137l-215 -200l141 -318h-130l-99 236l-108 -102l-26 -134h-118z" />
    <glyph glyph-name="l" unicode="l" horiz-adv-x="262" 
d="M22 0l141 730h118l-141 -730h-118z" />
    <glyph glyph-name="m" unicode="m" horiz-adv-x="897" 
d="M207 375l-72 -375h-118l100 518h118l-10 -52q83 64 171 64q101 0 127 -77q97 77 196 77q67 0 101.5 -33.5t34.5 -98.5q0 -28 -6 -59l-65 -339h-118l62 320q5 27 5 44q0 70 -71 70q-33 0 -69.5 -18t-63.5 -46q-1 -19 -7 -47l-62 -323h-118l62 320q5 28 5 45q0 69 -71 69
q-70 0 -131 -59z" />
    <glyph glyph-name="n" unicode="n" horiz-adv-x="605" 
d="M358 434q-41 0 -83 -20.5t-70 -49.5l-70 -364h-118l100 518h118l-11 -60q85 72 188 72q71 0 110.5 -36.5t39.5 -105.5q0 -22 -5 -52l-65 -336h-118l62 319q4 17 4 37q0 78 -82 78z" />
    <glyph glyph-name="o" unicode="o" horiz-adv-x="592" 
d="M554 259q-24 -122 -109 -196.5t-202 -74.5q-100 0 -156 54.5t-56 148.5q0 146 92.5 242.5t225.5 96.5q100 0 156 -55t56 -150q0 -26 -7 -66zM434 259q6 29 6 54q0 57 -28.5 89t-81.5 32q-74 0 -126 -64t-52 -166q0 -57 28.5 -88.5t81.5 -31.5q65 0 110.5 47t61.5 128z
" />
    <glyph glyph-name="p" unicode="p" horiz-adv-x="609" 
d="M565 259q-24 -125 -97.5 -198t-179.5 -73q-90 0 -144 62l-51 -262h-118l142 730h118l-10 -50q78 62 169 62q87 0 133 -50t46 -140q0 -35 -8 -81zM277 85q77 0 125.5 64.5t48.5 170.5q0 113 -106 113q-77 0 -137 -55l-46 -238q18 -26 49.5 -40.5t65.5 -14.5z" />
    <glyph glyph-name="q" unicode="q" horiz-adv-x="609" 
d="M44 259q24 125 97.5 198t179.5 73q91 0 143 -62l10 50h118l-142 -730h-118l51 262q-77 -62 -168 -62q-87 0 -133 50t-46 140q0 42 8 81zM264 85q77 0 137 55l46 238q-18 26 -49.5 40.5t-65.5 14.5q-77 0 -126 -64.5t-49 -170.5q0 -113 107 -113z" />
    <glyph glyph-name="r" unicode="r" horiz-adv-x="388" 
d="M426 528l-19 -98q-20 2 -42 2q-45 0 -88.5 -21t-73.5 -57l-68 -354h-118l100 518h118l-12 -63q70 75 171 75q12 0 32 -2z" />
    <glyph glyph-name="s" unicode="s" horiz-adv-x="511" 
d="M77 361q0 74 62 121.5t160 47.5q127 0 192 -82l-91 -64q-36 50 -110 50q-84 0 -84 -55q0 -18 22.5 -32.5t82.5 -33.5q72 -22 107.5 -55t35.5 -83q0 -84 -65 -135.5t-171 -51.5q-154 0 -223 100l95 66q55 -70 137 -70q98 0 98 68q0 23 -21.5 38t-76.5 31q-82 24 -116 56
t-34 84z" />
    <glyph glyph-name="t" unicode="t" horiz-adv-x="375" 
d="M231 -12q-78 0 -114 29t-36 93q0 29 7 63l49 251h-91l18 94h91l30 155h118l-30 -155h124l-18 -94h-124l-50 -255q-4 -24 -4 -31q0 -28 16 -41t53 -13q31 0 43 1l-18 -94q-30 -3 -64 -3z" />
    <glyph glyph-name="u" unicode="u" horiz-adv-x="598" 
d="M246 -12q-94 0 -146 42t-52 126q0 29 6 62l58 300h118l-58 -301q-4 -19 -4 -39q0 -47 26 -70.5t71 -23.5q53 0 93 34t52 99l58 301h118l-58 -300q-22 -114 -96.5 -172t-185.5 -58z" />
    <glyph glyph-name="v" unicode="v" horiz-adv-x="551" 
d="M291 0h-130l-97 518h124l62 -390l213 390h124z" />
    <glyph glyph-name="w" unicode="w" horiz-adv-x="820" 
d="M407 518h106l38 -367l182 367h123l-270 -518h-120l-37 357l-175 -357h-120l-70 518h124l39 -367z" />
    <glyph glyph-name="x" unicode="x" horiz-adv-x="530" 
d="M343 0l-91 194l-165 -194h-127l231 270l-114 248h127l78 -171l144 171h127l-210 -248l127 -270h-127z" />
    <glyph glyph-name="y" unicode="y" horiz-adv-x="546" 
d="M50 -212l122 216l-108 514h121l74 -361l202 361h121l-411 -730h-121z" />
    <glyph glyph-name="z" unicode="z" horiz-adv-x="476" 
d="M-26 0l17 90l339 334h-258l18 94h402l-17 -90l-339 -334h284l-18 -94h-428z" />
    <glyph glyph-name="braceleft" unicode="{" horiz-adv-x="400" 
d="M109 1l32 165q2 16 2 22q0 37 -23 57.5t-60 20.5l17 87q42 0 76.5 27t43.5 73l21 112q18 99 59.5 142t125.5 43h73l-17 -88h-68q-44 0 -53 -46l-28 -145q-14 -71 -42 -108.5t-89 -52.5q76 -21 76 -97q0 -27 -8 -65l-28 -145q-2 -10 -2 -14q0 -31 37 -31h68l-17 -88h-73
q-127 0 -127 95q0 19 4 36z" />
    <glyph glyph-name="bar" unicode="|" horiz-adv-x="301" 
d="M116 -200v969h89v-969h-89z" />
    <glyph glyph-name="braceright" unicode="}" horiz-adv-x="400" 
d="M223 166l-32 -165q-25 -131 -175 -131h-72l16 88h68q44 0 53 45l28 145q13 71 42 109t90 53q-76 20 -76 98q0 29 7 63l28 145q1 5 1 14q0 32 -36 32h-68l17 88h73q65 0 93.5 -25.5t28.5 -80.5q0 -34 -9 -79l-21 -112q-3 -13 -3 -24q0 -35 23 -55.5t60 -20.5l-17 -87
q-43 0 -76.5 -27t-42.5 -73z" />
    <glyph glyph-name="asciitilde" unicode="~" horiz-adv-x="616" 
d="M486 400l99 -16q-11 -66 -53 -107.5t-101 -41.5q-64 0 -130 44q-50 33 -84 33q-50 0 -67 -62l-99 16q11 66 53 107.5t101 41.5q64 0 130 -44q49 -33 84 -33q50 0 67 62z" />
    <glyph glyph-name="uni00A0" unicode="&#xa0;" horiz-adv-x="300" 
 />
    <glyph glyph-name="exclamdown" unicode="&#xa1;" horiz-adv-x="300" 
d="M260 457q-6 -31 -31 -52t-55 -21q-26 0 -43 16.5t-17 41.5q0 35 27.5 61.5t61.5 26.5q26 0 42 -16.5t16 -41.5q0 -10 -1 -15zM207 336l-43 -342l-34 -176h-132l34 176l91 342h84z" />
    <glyph glyph-name="cent" unicode="&#xa2;" horiz-adv-x="546" 
d="M38 259q21 111 95 184.5t180 84.5l17 88h67l-17 -88q124 -15 168 -124l-100 -48q-30 64 -87 75l-67 -345q62 11 116 76l82 -48q-87 -109 -216 -124l-18 -88h-67l18 88q-85 9 -131.5 62.5t-46.5 138.5q0 34 7 68zM158 259q-6 -29 -6 -53q0 -97 76 -117l66 340
q-51 -13 -87 -57.5t-49 -112.5z" />
    <glyph glyph-name="sterling" unicode="&#xa3;" horiz-adv-x="599" 
d="M428 712q63 0 115.5 -25.5t79.5 -70.5l-99 -67q-16 26 -45.5 41.5t-62.5 15.5q-109 0 -130 -109l-20 -103h196l-13 -65h-196l-13 -71q-18 -102 -90 -154h390l-20 -104h-532l18 96q90 58 107 147l16 86h-78l13 65h78l20 105q20 105 89 159t177 54z" />
    <glyph glyph-name="currency" unicode="&#xa4;" horiz-adv-x="718" 
d="M590 332q0 -62 -29 -112l90 -91l-74 -76l-90 92q-52 -33 -118 -33t-118 33l-90 -92l-74 76l90 91q-29 50 -29 112t29 112l-90 91l74 76l90 -92q52 33 118 33t118 -33l90 92l74 -76l-90 -91q29 -50 29 -112zM486 332q0 57 -32 92t-85 35t-85 -35t-32 -92t32 -92t85 -35
t85 35t32 92z" />
    <glyph glyph-name="yen" unicode="&#xa5;" horiz-adv-x="634" 
d="M329 0h-124l29 152h-199l12 60h199l12 63h-199l12 60h165l-136 365h134l109 -308l229 308h134l-279 -365h166l-12 -60h-199l-12 -63h199l-12 -60h-199z" />
    <glyph glyph-name="brokenbar" unicode="&#xa6;" horiz-adv-x="301" 
d="M116 224h89v-326h-89v326zM116 690h89v-327h-89v327z" />
    <glyph glyph-name="section" unicode="&#xa7;" horiz-adv-x="510" 
d="M69 299q17 93 120 134q-73 36 -73 101q0 76 65 127t162 51q120 0 178 -79l-85 -57q-32 46 -103 46q-40 0 -67 -19.5t-27 -48.5q0 -22 24.5 -38.5t79.5 -33.5q67 -21 97.5 -51.5t30.5 -75.5q0 -55 -33.5 -98.5t-88.5 -65.5q72 -33 72 -104q0 -80 -66 -133.5t-170 -53.5
q-135 0 -194 90l86 59q44 -60 119 -60q48 0 74.5 23t26.5 56q0 22 -20 38t-69 29q-143 39 -143 132q0 10 4 32zM254 227q44 10 71 37.5t27 65.5q0 50 -69 67q-43 -8 -71 -37t-28 -67q0 -50 70 -66z" />
    <glyph glyph-name="dieresis" unicode="&#xa8;" horiz-adv-x="396" 
d="M108 647q5 26 27.5 44.5t48.5 18.5q22 0 36.5 -14.5t14.5 -35.5q0 -30 -23 -53t-53 -23q-23 0 -37.5 14.5t-14.5 36.5q0 8 1 12zM312 647q5 26 27.5 44.5t48.5 18.5q22 0 36.5 -14.5t14.5 -35.5q0 -30 -23 -53t-53 -23q-23 0 -37.5 14.5t-14.5 36.5q0 8 1 12z" />
    <glyph glyph-name="copyright" unicode="&#xa9;" horiz-adv-x="826" 
d="M61 350q0 150 106 256t256 106t256 -106t106 -256t-106 -256t-256 -106t-256 106t-106 256zM729 350q0 129 -89.5 219.5t-216.5 90.5t-216.5 -90.5t-89.5 -219.5t89.5 -219.5t216.5 -90.5t216.5 90.5t89.5 219.5zM318 350q0 -63 30.5 -100.5t84.5 -37.5q63 0 104 60
l70 -36q-57 -103 -178 -103q-92 0 -148.5 61t-56.5 156t56.5 156t148.5 61q121 0 178 -103l-70 -36q-41 60 -104 60q-54 0 -84.5 -37.5t-30.5 -100.5z" />
    <glyph glyph-name="ordfeminine" unicode="&#xaa;" horiz-adv-x="450" 
d="M92 513q18 88 71 141.5t128 53.5q54 0 94 -33l4 24h97l-72 -370h-97l5 24q-53 -33 -106 -33q-63 0 -96.5 37.5t-33.5 101.5q0 25 6 54zM191 513q-4 -19 -4 -39q0 -74 66 -74q49 0 84 31l33 166q-24 31 -72 31q-42 0 -69.5 -31t-37.5 -84z" />
    <glyph glyph-name="guillemotleft" unicode="&#xab;" horiz-adv-x="598" 
d="M54 290l8 44l250 159l38 -66l-187 -115l142 -115l-63 -66zM287 290l8 44l250 159l38 -66l-187 -115l142 -115l-63 -66z" />
    <glyph glyph-name="logicalnot" unicode="&#xac;" horiz-adv-x="616" 
d="M62 354v93h502v-287h-109v194h-393z" />
    <glyph glyph-name="uni00AD" unicode="&#xad;" horiz-adv-x="404" 
d="M351 281h-290l20 101h290z" />
    <glyph glyph-name="registered" unicode="&#xae;" horiz-adv-x="826" 
d="M61 350q0 150 106 256t256 106t256 -106t106 -256t-106 -256t-256 -106t-256 106t-106 256zM117 350q0 -129 89.5 -219.5t216.5 -90.5t216.5 90.5t89.5 219.5t-89.5 219.5t-216.5 90.5t-216.5 -90.5t-89.5 -219.5zM588 432q0 -86 -85 -115l108 -176h-95l-94 164h-66v-164
h-85v417h157q74 0 117 -33t43 -93zM501 432q0 60 -79 60h-66v-119h66q79 0 79 59z" />
    <glyph glyph-name="macron" unicode="&#xaf;" horiz-adv-x="396" 
d="M116 607l16 80h298l-16 -80h-298z" />
    <glyph glyph-name="degree" unicode="&#xb0;" horiz-adv-x="400" 
d="M348 576q0 -59 -39 -97.5t-99 -38.5t-99 38.5t-39 97.5t39 97.5t99 38.5t99 -38.5t39 -97.5zM273 576q0 28 -17.5 46t-45.5 18t-45.5 -18t-17.5 -46t17.5 -46t45.5 -18t45.5 18t17.5 46z" />
    <glyph glyph-name="plusminus" unicode="&#xb1;" horiz-adv-x="616" 
d="M263 136v196h-196v93h196v196h110v-196h196v-93h-196v-196h-110zM569 0h-502v92h502v-92z" />
    <glyph glyph-name="twosuperior" unicode="&#xb2;" 
d="M269 625q-47 0 -93 -43l-57 50q79 76 175 76q57 0 90 -28.5t33 -77.5q0 -116 -222 -285h172l-15 -80h-307l13 69q112 80 185.5 153.5t73.5 121.5q0 19 -12.5 31.5t-35.5 12.5z" />
    <glyph glyph-name="threesuperior" unicode="&#xb3;" 
d="M204 308q39 0 64 22.5t25 54.5q0 55 -86 55h-45l14 74h45q45 0 71.5 20t26.5 54q0 40 -46 40q-52 0 -89 -40l-56 49q73 71 165 71q58 0 91.5 -27t33.5 -73q0 -45 -26.5 -79.5t-67.5 -50.5q64 -27 64 -89q0 -66 -55.5 -113t-139.5 -47q-106 0 -144 78l76 48q22 -47 79 -47
z" />
    <glyph glyph-name="acute" unicode="&#xb4;" horiz-adv-x="396" 
d="M385 683l-185 -129l-40 51l170 143z" />
    <glyph glyph-name="mu" unicode="&#xb5;" horiz-adv-x="609" 
d="M247 -12q-73 0 -107 42l-47 -242h-118l142 730h118l-73 -377q28 -55 108 -55q36 0 71.5 15t59.5 42l73 375h118l-100 -518h-118l7 41q-55 -53 -134 -53z" />
    <glyph glyph-name="paragraph" unicode="&#xb6;" horiz-adv-x="597" 
d="M51 484q0 100 62.5 158t160.5 58h245v-831h-91v745h-43v-745h-94v399h-17q-98 0 -160.5 58t-62.5 158z" />
    <glyph glyph-name="periodcentered" unicode="&#xb7;" horiz-adv-x="308" 
d="M100 350q6 31 31 52t55 21q26 0 42.5 -16.5t16.5 -42.5q0 -35 -27 -61t-61 -26q-26 0 -42.5 16t-16.5 42q0 5 2 15z" />
    <glyph glyph-name="cedilla" unicode="&#xb8;" horiz-adv-x="396" 
d="M84 -168q24 0 40 11t16 31q0 38 -76 40l-5 9l51 77h86l-31 -45q65 -18 65 -75q0 -46 -41 -82t-111 -36q-60 0 -99 37l55 53q18 -20 50 -20z" />
    <glyph glyph-name="onesuperior" unicode="&#xb9;" 
d="M254 591l-77 -49l-43 60l153 99h82l-90 -464h-93z" />
    <glyph glyph-name="ordmasculine" unicode="&#xba;" horiz-adv-x="450" 
d="M464 515q-17 -84 -80 -138.5t-147 -54.5q-72 0 -114 41t-42 108q0 99 68 168t163 69q72 0 114 -41.5t42 -109.5q0 -22 -4 -42zM367 515q3 18 3 34q0 39 -19 60.5t-54 21.5q-48 0 -83 -42t-35 -109q0 -38 19.5 -59.5t53.5 -21.5q42 0 73.5 31t41.5 85z" />
    <glyph glyph-name="guillemotright" unicode="&#xbb;" horiz-adv-x="598" 
d="M564 334l-8 -44l-250 -159l-37 66l186 115l-141 115l62 66zM331 334l-8 -44l-250 -159l-37 66l186 115l-141 115l62 66z" />
    <glyph glyph-name="onequarter" unicode="&#xbc;" horiz-adv-x="1014" 
d="M748 715l61 -37l-507 -693l-61 37zM801 94h-212l15 76l265 293h95l-55 -288h54l-16 -81h-54l-18 -94h-92zM847 330l-140 -155h110zM254 591l-77 -49l-43 60l153 99h82l-90 -464h-93z" />
    <glyph glyph-name="onehalf" unicode="&#xbd;" horiz-adv-x="1014" 
d="M748 715l61 -37l-507 -693l-61 37zM817 388q-47 0 -93 -43l-57 50q79 76 175 76q57 0 90 -28.5t33 -77.5q0 -116 -222 -285h172l-15 -80h-307l13 69q112 80 185.5 153.5t73.5 121.5q0 19 -12.5 31.5t-35.5 12.5zM254 591l-77 -49l-43 60l153 99h82l-90 -464h-93z" />
    <glyph glyph-name="threequarters" unicode="&#xbe;" horiz-adv-x="1014" 
d="M748 715l61 -37l-507 -693l-61 37zM801 94h-212l15 76l265 293h95l-55 -288h54l-16 -81h-54l-18 -94h-92zM847 330l-140 -155h110zM204 308q39 0 64 22.5t25 54.5q0 55 -86 55h-45l14 74h45q45 0 71.5 20t26.5 54q0 40 -46 40q-52 0 -89 -40l-56 49q73 71 165 71
q58 0 91.5 -27t33.5 -73q0 -45 -26.5 -79.5t-67.5 -50.5q64 -27 64 -89q0 -66 -55.5 -113t-139.5 -47q-106 0 -144 78l76 48q22 -47 79 -47z" />
    <glyph glyph-name="questiondown" unicode="&#xbf;" horiz-adv-x="546" 
d="M192 -194q-86 0 -134 36.5t-48 103.5q0 140 158 232q41 24 59.5 48t26.5 65l9 45h124l-10 -53q-21 -111 -132 -176q-59 -34 -82.5 -64.5t-23.5 -70.5q0 -29 21.5 -44.5t61.5 -15.5q77 0 145 66l68 -66q-48 -48 -112.5 -77t-130.5 -29zM420 457q-6 -31 -31 -52t-55 -21
q-26 0 -43 16.5t-17 41.5q0 35 27.5 61.5t61.5 26.5q26 0 42 -16.5t16 -41.5q0 -10 -1 -15z" />
    <glyph glyph-name="Agrave" unicode="&#xc0;" horiz-adv-x="698" 
d="M508 700h-146l-393 -700h133l85 160h285l24 -160h133zM243 264l168 315l46 -315h-214zM465 748l-135 129l81 65l114 -143z" />
    <glyph glyph-name="Aacute" unicode="&#xc1;" horiz-adv-x="698" 
d="M362 700h146l121 -700h-133l-24 160h-285l-85 -160h-133zM411 579l-168 -315h214zM608 877l-185 -129l-40 51l170 143z" />
    <glyph glyph-name="Acircumflex" unicode="&#xc2;" horiz-adv-x="698" 
d="M362 700h146l121 -700h-133l-24 160h-285l-85 -160h-133zM411 579l-168 -315h214zM554 748l-91 97l-129 -97l-45 44l156 135h68l102 -135z" />
    <glyph glyph-name="Atilde" unicode="&#xc3;" horiz-adv-x="698" 
d="M508 700h-146l-393 -700h133l85 160h285l24 -160h133zM243 264l168 315l46 -315h-214zM355 784l-72 10q42 115 127 115q40 0 74 -28q24 -20 43 -20q28 0 43 42l72 -10q-42 -115 -127 -115q-37 0 -68.5 24t-48.5 24q-28 0 -43 -42z" />
    <glyph glyph-name="Adieresis" unicode="&#xc4;" horiz-adv-x="698" 
d="M508 700h-146l-393 -700h133l85 160h285l24 -160h133zM243 264l168 315l46 -315h-214zM297 841q5 26 27 44.5t48 18.5q23 0 37.5 -14.5t14.5 -36.5q0 -30 -23.5 -52.5t-52.5 -22.5q-23 0 -37.5 14.5t-14.5 36.5q0 8 1 12zM501 841q5 26 27 44.5t48 18.5q23 0 37.5 -14.5
t14.5 -36.5q0 -30 -23.5 -52.5t-52.5 -22.5q-23 0 -37.5 14.5t-14.5 36.5q0 8 1 12z" />
    <glyph glyph-name="Aring" unicode="&#xc5;" horiz-adv-x="698" 
d="M508 700h-146l-393 -700h133l85 160h285l24 -160h133zM243 264l168 315l46 -315h-214zM572 843q-8 -45 -46 -76t-84 -31q-41 0 -66.5 24.5t-25.5 62.5q0 51 40.5 89t92.5 38q40 0 65.5 -24t25.5 -62q0 -7 -2 -21zM422 843q-1 -3 -1 -9q0 -15 9 -24t24 -9q20 0 34.5 15
t14.5 37q0 14 -8.5 23t-23.5 9q-17 0 -31 -11.5t-18 -30.5z" />
    <glyph glyph-name="AE" unicode="&#xc6;" horiz-adv-x="892" 
d="M802 0h-408l30 158h-212l-109 -158h-135l497 700h464l-21 -104h-275l-35 -184h240l-21 -104h-240l-39 -204h284zM506 581l-222 -319h160z" />
    <glyph glyph-name="Ccedilla" unicode="&#xc7;" horiz-adv-x="694" 
d="M61 350q32 162 142.5 262t260.5 100q95 0 161 -40.5t94 -111.5l-112 -55q-48 101 -159 101q-106 0 -187.5 -92t-81.5 -238q0 -87 46 -134.5t124 -47.5q111 0 197 101l92 -55q-100 -127 -259 -148l-25 -37q65 -18 65 -75q0 -46 -41 -82t-111 -36q-60 0 -99 37l55 53
q18 -20 50 -20q24 0 40 11t16 31q0 38 -76 40l-5 9l43 67q-113 9 -176 80.5t-63 188.5q0 43 9 91z" />
    <glyph glyph-name="Egrave" unicode="&#xc8;" horiz-adv-x="578" 
d="M27 0l136 700h452l-21 -104h-328l-35 -184h293l-21 -104h-293l-39 -204h337l-20 -104h-461zM432 748l-135 129l81 65l114 -143z" />
    <glyph glyph-name="Eacute" unicode="&#xc9;" horiz-adv-x="578" 
d="M27 0l136 700h452l-21 -104h-328l-35 -184h293l-21 -104h-293l-39 -204h337l-20 -104h-461zM551 877l-185 -129l-40 51l170 143z" />
    <glyph glyph-name="Ecircumflex" unicode="&#xca;" horiz-adv-x="578" 
d="M27 0l136 700h452l-21 -104h-328l-35 -184h293l-21 -104h-293l-39 -204h337l-20 -104h-461zM511 748l-91 97l-129 -97l-45 44l156 135h68l102 -135z" />
    <glyph glyph-name="Edieresis" unicode="&#xcb;" horiz-adv-x="578" 
d="M27 0l136 700h452l-21 -104h-328l-35 -184h293l-21 -104h-293l-39 -204h337l-20 -104h-461zM255 841q5 26 27 44.5t48 18.5q23 0 37.5 -14.5t14.5 -36.5q0 -30 -23.5 -52.5t-52.5 -22.5q-23 0 -37.5 14.5t-14.5 36.5q0 8 1 12zM459 841q5 26 27 44.5t48 18.5
q23 0 37.5 -14.5t14.5 -36.5q0 -30 -23.5 -52.5t-52.5 -22.5q-23 0 -37.5 14.5t-14.5 36.5q0 8 1 12z" />
    <glyph glyph-name="Igrave" unicode="&#xcc;" horiz-adv-x="288" 
d="M168 700h124l-136 -700h-124zM238 748l-135 129l81 65l114 -143z" />
    <glyph glyph-name="Iacute" unicode="&#xcd;" horiz-adv-x="288" 
d="M168 700h124l-136 -700h-124zM425 877l-185 -129l-40 51l170 143z" />
    <glyph glyph-name="Icircumflex" unicode="&#xce;" horiz-adv-x="288" 
d="M168 700h124l-136 -700h-124zM349 748l-91 97l-129 -97l-45 44l156 135h68l102 -135z" />
    <glyph glyph-name="Idieresis" unicode="&#xcf;" horiz-adv-x="288" 
d="M168 700h124l-136 -700h-124zM92 841q5 26 27 44.5t48 18.5q23 0 37.5 -14.5t14.5 -36.5q0 -30 -23.5 -52.5t-52.5 -22.5q-23 0 -37.5 14.5t-14.5 36.5q0 8 1 12zM296 841q5 26 27 44.5t48 18.5q23 0 37.5 -14.5t14.5 -36.5q0 -30 -23.5 -52.5t-52.5 -22.5
q-23 0 -37.5 14.5t-14.5 36.5q0 8 1 12z" />
    <glyph glyph-name="Eth" unicode="&#xd0;" horiz-adv-x="698" 
d="M269 0h-242l60 312h-74l15 76h74l61 312h242q133 0 205 -69.5t72 -191.5q0 -193 -119 -316t-294 -123zM211 312l-40 -208h110q114 0 193.5 85t79.5 233q0 85 -46.5 129.5t-131.5 44.5h-110l-40 -208h149l-15 -76h-149z" />
    <glyph glyph-name="Ntilde" unicode="&#xd1;" horiz-adv-x="720" 
d="M27 0l136 700h120l226 -494l96 494h124l-136 -700h-120l-226 494l-96 -494h-124zM366 784l-72 10q42 115 127 115q40 0 74 -28q24 -20 43 -20q28 0 43 42l72 -10q-42 -115 -127 -115q-37 0 -68.5 24t-48.5 24q-28 0 -43 -42z" />
    <glyph glyph-name="Ograve" unicode="&#xd2;" horiz-adv-x="730" 
d="M705 350q-31 -157 -137.5 -259.5t-255.5 -102.5q-125 0 -193 74t-68 195q0 122 52 226.5t145 166.5t205 62q125 0 193 -74.5t68 -196.5q0 -45 -9 -91zM579 350q8 45 8 77q0 84 -40.5 131.5t-114.5 47.5q-103 0 -178 -94t-75 -241q0 -84 40.5 -130.5t113.5 -46.5
q90 0 156.5 69t89.5 187zM485 748l-135 129l81 65l114 -143z" />
    <glyph glyph-name="Oacute" unicode="&#xd3;" horiz-adv-x="730" 
d="M705 350q-31 -157 -137.5 -259.5t-255.5 -102.5q-125 0 -193 74t-68 195q0 122 52 226.5t145 166.5t205 62q125 0 193 -74.5t68 -196.5q0 -45 -9 -91zM579 350q8 45 8 77q0 84 -40.5 131.5t-114.5 47.5q-103 0 -178 -94t-75 -241q0 -84 40.5 -130.5t113.5 -46.5
q90 0 156.5 69t89.5 187zM620 877l-185 -129l-40 51l170 143z" />
    <glyph glyph-name="Ocircumflex" unicode="&#xd4;" horiz-adv-x="730" 
d="M705 350q-31 -157 -137.5 -259.5t-255.5 -102.5q-125 0 -193 74t-68 195q0 122 52 226.5t145 166.5t205 62q125 0 193 -74.5t68 -196.5q0 -45 -9 -91zM579 350q8 45 8 77q0 84 -40.5 131.5t-114.5 47.5q-103 0 -178 -94t-75 -241q0 -84 40.5 -130.5t113.5 -46.5
q90 0 156.5 69t89.5 187zM570 748l-91 97l-129 -97l-45 44l156 135h68l102 -135z" />
    <glyph glyph-name="Otilde" unicode="&#xd5;" horiz-adv-x="730" 
d="M705 350q-31 -157 -137.5 -259.5t-255.5 -102.5q-125 0 -193 74t-68 195q0 122 52 226.5t145 166.5t205 62q125 0 193 -74.5t68 -196.5q0 -45 -9 -91zM579 350q8 45 8 77q0 84 -40.5 131.5t-114.5 47.5q-103 0 -178 -94t-75 -241q0 -84 40.5 -130.5t113.5 -46.5
q90 0 156.5 69t89.5 187zM371 784l-72 10q42 115 127 115q40 0 74 -28q24 -20 43 -20q28 0 43 42l72 -10q-42 -115 -127 -115q-37 0 -68.5 24t-48.5 24q-28 0 -43 -42z" />
    <glyph glyph-name="Odieresis" unicode="&#xd6;" horiz-adv-x="730" 
d="M705 350q-31 -157 -137.5 -259.5t-255.5 -102.5q-125 0 -193 74t-68 195q0 122 52 226.5t145 166.5t205 62q125 0 193 -74.5t68 -196.5q0 -45 -9 -91zM579 350q8 45 8 77q0 84 -40.5 131.5t-114.5 47.5q-103 0 -178 -94t-75 -241q0 -84 40.5 -130.5t113.5 -46.5
q90 0 156.5 69t89.5 187zM313 841q5 26 27 44.5t48 18.5q23 0 37.5 -14.5t14.5 -36.5q0 -30 -23.5 -52.5t-52.5 -22.5q-23 0 -37.5 14.5t-14.5 36.5q0 8 1 12zM517 841q5 26 27 44.5t48 18.5q23 0 37.5 -14.5t14.5 -36.5q0 -30 -23.5 -52.5t-52.5 -22.5q-23 0 -37.5 14.5
t-14.5 36.5q0 8 1 12z" />
    <glyph glyph-name="multiply" unicode="&#xd7;" horiz-adv-x="616" 
d="M391 332l153 -153l-73 -73l-153 153l-153 -153l-73 73l153 153l-153 153l73 73l153 -153l153 153l73 -73z" />
    <glyph glyph-name="Oslash" unicode="&#xd8;" horiz-adv-x="730" 
d="M19 2l80 86q-48 68 -48 168q0 122 52 226.5t145 167t205 62.5q103 0 170 -54l75 80l48 -40l-80 -87q48 -71 48 -172q0 -121 -52.5 -224.5t-145.5 -165t-204 -61.5q-104 0 -171 54l-74 -80zM187 350q-9 -44 -9 -81q0 -44 13 -81l349 378q-40 40 -108 40q-90 0 -156.5 -69
t-88.5 -187zM579 350q8 45 8 78q0 44 -13 83l-349 -378q41 -39 108 -39q90 0 156.5 69t89.5 187z" />
    <glyph glyph-name="Ugrave" unicode="&#xd9;" horiz-adv-x="732" 
d="M313 -12q132 0 225 74.5t121 215.5l82 422h-124l-82 -422q-36 -184 -201 -184q-136 0 -136 124q0 22 7 60l82 422h-124l-82 -422q-8 -37 -8 -77q0 -104 63.5 -158.5t176.5 -54.5zM469 748l-135 129l81 65l114 -143z" />
    <glyph glyph-name="Uacute" unicode="&#xda;" horiz-adv-x="732" 
d="M313 -12q-113 0 -176.5 54.5t-63.5 158.5q0 40 8 77l82 422h124l-82 -422q-7 -38 -7 -60q0 -124 136 -124q165 0 201 184l82 422h124l-82 -422q-28 -141 -121 -215.5t-225 -74.5zM638 877l-185 -129l-40 51l170 143z" />
    <glyph glyph-name="Ucircumflex" unicode="&#xdb;" horiz-adv-x="732" 
d="M313 -12q-113 0 -176.5 54.5t-63.5 158.5q0 40 8 77l82 422h124l-82 -422q-7 -38 -7 -60q0 -124 136 -124q165 0 201 184l82 422h124l-82 -422q-28 -141 -121 -215.5t-225 -74.5zM571 748l-91 97l-129 -97l-45 44l156 135h68l102 -135z" />
    <glyph glyph-name="Udieresis" unicode="&#xdc;" horiz-adv-x="732" 
d="M313 -12q132 0 225 74.5t121 215.5l82 422h-124l-82 -422q-36 -184 -201 -184q-136 0 -136 124q0 22 7 60l82 422h-124l-82 -422q-8 -37 -8 -77q0 -104 63.5 -158.5t176.5 -54.5zM314 841q5 26 27 44.5t48 18.5q23 0 37.5 -14.5t14.5 -36.5q0 -30 -23.5 -52.5
t-52.5 -22.5q-23 0 -37.5 14.5t-14.5 36.5q0 8 1 12zM518 841q5 26 27 44.5t48 18.5q23 0 37.5 -14.5t14.5 -36.5q0 -30 -23.5 -52.5t-52.5 -22.5q-23 0 -37.5 14.5t-14.5 36.5q0 8 1 12z" />
    <glyph glyph-name="Yacute" unicode="&#xdd;" horiz-adv-x="634" 
d="M329 0h-124l53 276l-158 424h134l109 -308l229 308h134l-324 -424zM582 877l-185 -129l-40 51l170 143z" />
    <glyph glyph-name="Thorn" unicode="&#xde;" horiz-adv-x="613" 
d="M598 354q-21 -110 -103.5 -167t-210.5 -57h-108l-25 -130h-124l136 700h124l-24 -121h108q112 0 172 -43.5t60 -128.5q0 -29 -5 -53zM472 354q3 18 3 33q0 88 -131 88h-101l-47 -241h101q152 0 175 120z" />
    <glyph glyph-name="germandbls" unicode="&#xdf;" horiz-adv-x="596" 
d="M294 319l20 104q51 0 85 32t34 84q0 30 -19.5 48.5t-55.5 18.5q-94 0 -117 -116l-95 -490h-124l92 476q22 114 90.5 175t175.5 61q84 0 132.5 -43.5t48.5 -108.5q0 -63 -37 -113t-98 -74q131 -32 131 -147q0 -110 -72.5 -174t-174.5 -64q-76 0 -127 34l60 92
q25 -22 65 -22q52 0 87.5 33.5t35.5 94.5q0 47 -37 72.5t-100 26.5z" />
    <glyph glyph-name="agrave" unicode="&#xe0;" horiz-adv-x="609" 
d="M44 259q-8 -39 -8 -81q0 -90 46 -140t133 -50q91 0 168 62l-9 -50h118l100 518h-118l-10 -50q-52 62 -143 62q-106 0 -179.5 -73t-97.5 -198zM332 433q34 0 65.5 -14.5t49.5 -40.5l-46 -238q-60 -55 -137 -55q-107 0 -107 113q0 106 49 170.5t126 64.5zM401 574l-135 129
l81 65l114 -143z" />
    <glyph glyph-name="aacute" unicode="&#xe1;" horiz-adv-x="609" 
d="M44 259q24 125 97.5 198t179.5 73q91 0 143 -62l10 50h118l-100 -518h-118l9 50q-77 -62 -168 -62q-87 0 -133 50t-46 140q0 42 8 81zM332 433q-77 0 -126 -64.5t-49 -170.5q0 -113 107 -113q77 0 137 55l46 238q-18 26 -49.5 40.5t-65.5 14.5zM510 703l-185 -129l-40 51
l170 143z" />
    <glyph glyph-name="acircumflex" unicode="&#xe2;" horiz-adv-x="609" 
d="M44 259q24 125 97.5 198t179.5 73q91 0 143 -62l10 50h118l-100 -518h-118l9 50q-77 -62 -168 -62q-87 0 -133 50t-46 140q0 42 8 81zM332 433q-77 0 -126 -64.5t-49 -170.5q0 -113 107 -113q77 0 137 55l46 238q-18 26 -49.5 40.5t-65.5 14.5zM480 574l-91 97l-129 -97
l-44 44l155 135h68l103 -135z" />
    <glyph glyph-name="atilde" unicode="&#xe3;" horiz-adv-x="609" 
d="M44 259q-8 -39 -8 -81q0 -90 46 -140t133 -50q91 0 168 62l-9 -50h118l100 518h-118l-10 -50q-52 62 -143 62q-106 0 -179.5 -73t-97.5 -198zM332 433q34 0 65.5 -14.5t49.5 -40.5l-46 -238q-60 -55 -137 -55q-107 0 -107 113q0 106 49 170.5t126 64.5zM281 610l-72 10
q42 115 127 115q40 0 74 -28q24 -20 43 -20q28 0 43 42l72 -10q-42 -115 -127 -115q-37 0 -68.5 24t-48.5 24q-28 0 -43 -42z" />
    <glyph glyph-name="adieresis" unicode="&#xe4;" horiz-adv-x="609" 
d="M44 259q-8 -39 -8 -81q0 -90 46 -140t133 -50q91 0 168 62l-9 -50h118l100 518h-118l-10 -50q-52 62 -143 62q-106 0 -179.5 -73t-97.5 -198zM332 433q34 0 65.5 -14.5t49.5 -40.5l-46 -238q-60 -55 -137 -55q-107 0 -107 113q0 106 49 170.5t126 64.5zM223 667
q5 26 27 44.5t48 18.5q23 0 37.5 -14.5t14.5 -36.5q0 -30 -23.5 -52.5t-52.5 -22.5q-23 0 -37.5 14.5t-14.5 36.5q0 8 1 12zM427 667q5 26 27 44.5t48 18.5q23 0 37.5 -14.5t14.5 -36.5q0 -30 -23.5 -52.5t-52.5 -22.5q-23 0 -37.5 14.5t-14.5 36.5q0 8 1 12z" />
    <glyph glyph-name="aring" unicode="&#xe5;" horiz-adv-x="609" 
d="M44 259q-8 -39 -8 -81q0 -90 46 -140t133 -50q91 0 168 62l-9 -50h118l100 518h-118l-10 -50q-52 62 -143 62q-106 0 -179.5 -73t-97.5 -198zM332 433q34 0 65.5 -14.5t49.5 -40.5l-46 -238q-60 -55 -137 -55q-107 0 -107 113q0 106 49 170.5t126 64.5zM499 669
q-9 -45 -47 -76t-84 -31q-41 0 -66 24t-25 62q0 51 40 89.5t92 38.5q41 0 66.5 -24.5t25.5 -62.5q0 -6 -2 -20zM349 669q-1 -4 -1 -10q0 -32 32 -32q20 0 35 14.5t15 36.5q0 15 -9 24t-24 9q-18 0 -31.5 -12t-16.5 -30z" />
    <glyph glyph-name="ae" unicode="&#xe6;" horiz-adv-x="910" 
d="M228 84q84 0 153 57q-6 19 -6 41q-46 48 -119 48q-53 0 -87 -22.5t-34 -65.5q0 -58 93 -58zM598 -12q-127 0 -185 81q-102 -81 -229 -81q-79 0 -124.5 37.5t-45.5 98.5q0 86 68 144t163 58q93 0 142 -52l10 51q3 17 3 32q0 76 -100 76q-73 0 -142 -48l-54 68
q104 77 232 77q125 0 164 -77q84 77 208 77q89 0 140 -39.5t51 -101.5q0 -85 -70 -139.5t-181 -54.5q-94 0 -154 39q-2 -9 -2 -28q0 -56 33.5 -89t90.5 -33q74 0 142 66l71 -59q-97 -103 -231 -103zM686 434q-115 0 -168 -116q57 -27 131 -27q133 0 133 83q0 27 -24.5 43.5
t-71.5 16.5z" />
    <glyph glyph-name="ccedilla" unicode="&#xe7;" horiz-adv-x="546" 
d="M190 -168q24 0 40 11t16 31q0 38 -76 40l-5 9l44 67q-85 9 -131.5 62.5t-46.5 138.5q0 145 91.5 242t224.5 97q151 0 201 -126l-100 -48q-37 78 -115 78q-74 0 -127.5 -63t-53.5 -165q0 -58 30 -90t83 -32q78 0 145 78l82 -48q-80 -100 -196 -121l-25 -38q65 -18 65 -75
q0 -46 -41 -82t-111 -36q-60 0 -99 37l55 53q18 -20 50 -20z" />
    <glyph glyph-name="egrave" unicode="&#xe8;" horiz-adv-x="567" 
d="M273 84q74 0 142 66l71 -59q-97 -103 -231 -103q-103 0 -163 56.5t-60 152.5q0 136 93 234.5t240 98.5q89 0 140 -39.5t51 -101.5q0 -85 -70 -139.5t-181 -54.5q-94 0 -154 39q-2 -14 -2 -28q0 -56 33.5 -89t90.5 -33zM343 434q-115 0 -168 -116q57 -27 131 -27
q133 0 133 83q0 27 -24.5 43.5t-71.5 16.5zM386 574l-135 129l81 65l114 -143z" />
    <glyph glyph-name="eacute" unicode="&#xe9;" horiz-adv-x="567" 
d="M513 703l-185 -129l-40 51l170 143zM273 84q74 0 142 66l71 -59q-97 -103 -231 -103q-103 0 -163 56.5t-60 152.5q0 136 93 234.5t240 98.5q89 0 140 -39.5t51 -101.5q0 -85 -70 -139.5t-181 -54.5q-94 0 -154 39q-2 -14 -2 -28q0 -56 33.5 -89t90.5 -33zM343 434
q-115 0 -168 -116q57 -27 131 -27q133 0 133 83q0 27 -24.5 43.5t-71.5 16.5z" />
    <glyph glyph-name="ecircumflex" unicode="&#xea;" horiz-adv-x="567" 
d="M469 574l-91 97l-129 -97l-44 44l155 135h68l103 -135zM273 84q74 0 142 66l71 -59q-97 -103 -231 -103q-103 0 -163 56.5t-60 152.5q0 136 93 234.5t240 98.5q89 0 140 -39.5t51 -101.5q0 -85 -70 -139.5t-181 -54.5q-94 0 -154 39q-2 -14 -2 -28q0 -56 33.5 -89
t90.5 -33zM343 434q-115 0 -168 -116q57 -27 131 -27q133 0 133 83q0 27 -24.5 43.5t-71.5 16.5z" />
    <glyph glyph-name="edieresis" unicode="&#xeb;" horiz-adv-x="567" 
d="M215 667q5 26 27 44.5t48 18.5q23 0 37.5 -14.5t14.5 -36.5q0 -30 -23.5 -52.5t-52.5 -22.5q-23 0 -37.5 14.5t-14.5 36.5q0 8 1 12zM419 667q5 26 27 44.5t48 18.5q23 0 37.5 -14.5t14.5 -36.5q0 -30 -23.5 -52.5t-52.5 -22.5q-23 0 -37.5 14.5t-14.5 36.5q0 8 1 12z
M273 84q74 0 142 66l71 -59q-97 -103 -231 -103q-103 0 -163 56.5t-60 152.5q0 136 93 234.5t240 98.5q89 0 140 -39.5t51 -101.5q0 -85 -70 -139.5t-181 -54.5q-94 0 -154 39q-2 -14 -2 -28q0 -56 33.5 -89t90.5 -33zM343 434q-115 0 -168 -116q57 -27 131 -27
q133 0 133 83q0 27 -24.5 43.5t-71.5 16.5z" />
    <glyph glyph-name="igrave" unicode="&#xec;" horiz-adv-x="263" 
d="M22 0l100 518h118l-100 -518h-118zM193 574l-135 129l81 65l114 -143z" />
    <glyph glyph-name="iacute" unicode="&#xed;" horiz-adv-x="263" 
d="M22 0l100 518h118l-100 -518h-118zM376 703l-185 -129l-40 51l170 143z" />
    <glyph glyph-name="icircumflex" unicode="&#xee;" horiz-adv-x="263" 
d="M22 0l100 518h118l-100 -518h-118zM302 574l-91 97l-129 -97l-44 44l155 135h68l103 -135z" />
    <glyph glyph-name="idieresis" unicode="&#xef;" horiz-adv-x="263" 
d="M22 0l100 518h118l-100 -518h-118zM45 667q5 26 27 44.5t48 18.5q23 0 37.5 -14.5t14.5 -36.5q0 -30 -23.5 -52.5t-52.5 -22.5q-23 0 -37.5 14.5t-14.5 36.5q0 8 1 12zM249 667q5 26 27 44.5t48 18.5q23 0 37.5 -14.5t14.5 -36.5q0 -30 -23.5 -52.5t-52.5 -22.5
q-23 0 -37.5 14.5t-14.5 36.5q0 8 1 12z" />
    <glyph glyph-name="eth" unicode="&#xf0;" horiz-adv-x="576" 
d="M224 581l105 33q-38 17 -86 28l20 88q122 -19 193 -75l144 47l12 -63l-107 -35q50 -70 50 -176q0 -46 -11 -107q-31 -157 -112.5 -245t-206.5 -88q-90 0 -141 48.5t-51 137.5q0 146 81.5 232t193.5 86q83 0 133 -52q-3 80 -47 129l-158 -51zM307 397q-63 0 -108 -57.5
t-45 -147.5q0 -51 24 -79.5t68 -28.5q138 0 187 252q-43 61 -126 61z" />
    <glyph glyph-name="ntilde" unicode="&#xf1;" horiz-adv-x="605" 
d="M358 434q-41 0 -83 -20.5t-70 -49.5l-70 -364h-118l100 518h118l-11 -60q85 72 188 72q71 0 110.5 -36.5t39.5 -105.5q0 -22 -5 -52l-65 -336h-118l62 319q4 17 4 37q0 78 -82 78zM274 610l-72 10q42 115 127 115q40 0 74 -28q24 -20 43 -20q28 0 43 42l72 -10
q-42 -115 -127 -115q-37 0 -68.5 24t-48.5 24q-28 0 -43 -42z" />
    <glyph glyph-name="ograve" unicode="&#xf2;" horiz-adv-x="592" 
d="M554 259q-24 -122 -109 -196.5t-202 -74.5q-100 0 -156 54.5t-56 148.5q0 146 92.5 242.5t225.5 96.5q100 0 156 -55t56 -150q0 -26 -7 -66zM434 259q6 29 6 54q0 57 -28.5 89t-81.5 32q-74 0 -126 -64t-52 -166q0 -57 28.5 -88.5t81.5 -31.5q65 0 110.5 47t61.5 128z
M386 574l-135 129l81 65l114 -143z" />
    <glyph glyph-name="oacute" unicode="&#xf3;" horiz-adv-x="592" 
d="M554 259q-24 -122 -109 -196.5t-202 -74.5q-100 0 -156 54.5t-56 148.5q0 146 92.5 242.5t225.5 96.5q100 0 156 -55t56 -150q0 -26 -7 -66zM434 259q6 29 6 54q0 57 -28.5 89t-81.5 32q-74 0 -126 -64t-52 -166q0 -57 28.5 -88.5t81.5 -31.5q65 0 110.5 47t61.5 128z
M513 703l-185 -129l-40 51l170 143z" />
    <glyph glyph-name="ocircumflex" unicode="&#xf4;" horiz-adv-x="592" 
d="M554 259q-24 -122 -109 -196.5t-202 -74.5q-100 0 -156 54.5t-56 148.5q0 146 92.5 242.5t225.5 96.5q100 0 156 -55t56 -150q0 -26 -7 -66zM434 259q6 29 6 54q0 57 -28.5 89t-81.5 32q-74 0 -126 -64t-52 -166q0 -57 28.5 -88.5t81.5 -31.5q65 0 110.5 47t61.5 128z
M467 574l-91 97l-129 -97l-44 44l155 135h68l103 -135z" />
    <glyph glyph-name="otilde" unicode="&#xf5;" horiz-adv-x="592" 
d="M554 259q-24 -122 -109 -196.5t-202 -74.5q-100 0 -156 54.5t-56 148.5q0 146 92.5 242.5t225.5 96.5q100 0 156 -55t56 -150q0 -26 -7 -66zM434 259q6 29 6 54q0 57 -28.5 89t-81.5 32q-74 0 -126 -64t-52 -166q0 -57 28.5 -88.5t81.5 -31.5q65 0 110.5 47t61.5 128z
M268 610l-72 10q42 115 127 115q40 0 74 -28q24 -20 43 -20q28 0 43 42l72 -10q-42 -115 -127 -115q-37 0 -68.5 24t-48.5 24q-28 0 -43 -42z" />
    <glyph glyph-name="odieresis" unicode="&#xf6;" horiz-adv-x="592" 
d="M554 259q-24 -122 -109 -196.5t-202 -74.5q-100 0 -156 54.5t-56 148.5q0 146 92.5 242.5t225.5 96.5q100 0 156 -55t56 -150q0 -26 -7 -66zM434 259q6 29 6 54q0 57 -28.5 89t-81.5 32q-74 0 -126 -64t-52 -166q0 -57 28.5 -88.5t81.5 -31.5q65 0 110.5 47t61.5 128z
M210 667q5 26 27 44.5t48 18.5q23 0 37.5 -14.5t14.5 -36.5q0 -30 -23.5 -52.5t-52.5 -22.5q-23 0 -37.5 14.5t-14.5 36.5q0 8 1 12zM414 667q5 26 27 44.5t48 18.5q23 0 37.5 -14.5t14.5 -36.5q0 -30 -23.5 -52.5t-52.5 -22.5q-23 0 -37.5 14.5t-14.5 36.5q0 8 1 12z" />
    <glyph glyph-name="divide" unicode="&#xf7;" horiz-adv-x="616" 
d="M569 285h-502v93h502v-93zM249 532q0 28 20.5 48.5t48.5 20.5t48.5 -20.5t20.5 -48.5t-20.5 -48.5t-48.5 -20.5t-48.5 20.5t-20.5 48.5zM249 131q0 -29 20.5 -49t48.5 -20t48.5 20t20.5 49t-20.5 49t-48.5 20t-48.5 -20t-20.5 -49z" />
    <glyph glyph-name="oslash" unicode="&#xf8;" horiz-adv-x="592" 
d="M10 -2l60 64q-39 51 -39 129q0 146 92.5 242.5t225.5 96.5q74 0 126 -32l58 62l49 -40l-61 -64q40 -52 40 -131q0 -145 -93.5 -241t-224.5 -96q-77 0 -127 32l-58 -62zM158 259q-6 -30 -6 -56q0 -27 6 -46l239 257q-26 20 -67 20q-65 0 -110.5 -47t-61.5 -128zM434 259
q6 29 6 54q0 18 -6 48l-240 -258q27 -19 68 -19q65 0 110.5 47t61.5 128z" />
    <glyph glyph-name="ugrave" unicode="&#xf9;" horiz-adv-x="598" 
d="M246 -12q-94 0 -146 42t-52 126q0 29 6 62l58 300h118l-58 -301q-4 -19 -4 -39q0 -47 26 -70.5t71 -23.5q53 0 93 34t52 99l58 301h118l-58 -300q-22 -114 -96.5 -172t-185.5 -58zM377 574l-135 129l81 65l114 -143z" />
    <glyph glyph-name="uacute" unicode="&#xfa;" horiz-adv-x="598" 
d="M246 -12q-94 0 -146 42t-52 126q0 29 6 62l58 300h118l-58 -301q-4 -19 -4 -39q0 -47 26 -70.5t71 -23.5q53 0 93 34t52 99l58 301h118l-58 -300q-22 -114 -96.5 -172t-185.5 -58zM528 703l-185 -129l-40 51l170 143z" />
    <glyph glyph-name="ucircumflex" unicode="&#xfb;" horiz-adv-x="598" 
d="M246 -12q-94 0 -146 42t-52 126q0 29 6 62l58 300h118l-58 -301q-4 -19 -4 -39q0 -47 26 -70.5t71 -23.5q53 0 93 34t52 99l58 301h118l-58 -300q-22 -114 -96.5 -172t-185.5 -58zM470 574l-91 97l-129 -97l-44 44l155 135h68l103 -135z" />
    <glyph glyph-name="udieresis" unicode="&#xfc;" horiz-adv-x="598" 
d="M246 -12q-94 0 -146 42t-52 126q0 29 6 62l58 300h118l-58 -301q-4 -19 -4 -39q0 -47 26 -70.5t71 -23.5q53 0 93 34t52 99l58 301h118l-58 -300q-22 -114 -96.5 -172t-185.5 -58zM213 667q5 26 27 44.5t48 18.5q23 0 37.5 -14.5t14.5 -36.5q0 -30 -23.5 -52.5
t-52.5 -22.5q-23 0 -37.5 14.5t-14.5 36.5q0 8 1 12zM417 667q5 26 27 44.5t48 18.5q23 0 37.5 -14.5t14.5 -36.5q0 -30 -23.5 -52.5t-52.5 -22.5q-23 0 -37.5 14.5t-14.5 36.5q0 8 1 12z" />
    <glyph glyph-name="yacute" unicode="&#xfd;" horiz-adv-x="546" 
d="M50 -212l122 216l-108 514h121l74 -361l202 361h121l-411 -730h-121zM499 703l-185 -129l-40 51l170 143z" />
    <glyph glyph-name="thorn" unicode="&#xfe;" horiz-adv-x="609" 
d="M565 259q-24 -125 -97.5 -198t-179.5 -73q-90 0 -144 62l-51 -262h-118l183 942h118l-51 -262q78 62 169 62q87 0 133 -50t46 -140q0 -35 -8 -81zM345 433q-77 0 -137 -55l-46 -238q18 -26 49.5 -40.5t65.5 -14.5q77 0 125.5 64.5t48.5 170.5q0 113 -106 113z" />
    <glyph glyph-name="ydieresis" unicode="&#xff;" horiz-adv-x="546" 
d="M50 -212l122 216l-108 514h121l74 -361l202 361h121l-411 -730h-121zM192 667q5 26 27 44.5t48 18.5q23 0 37.5 -14.5t14.5 -36.5q0 -30 -23.5 -52.5t-52.5 -22.5q-23 0 -37.5 14.5t-14.5 36.5q0 8 1 12zM396 667q5 26 27 44.5t48 18.5q23 0 37.5 -14.5t14.5 -36.5
q0 -30 -23.5 -52.5t-52.5 -22.5q-23 0 -37.5 14.5t-14.5 36.5q0 8 1 12z" />
    <glyph glyph-name="Amacron" unicode="&#x100;" horiz-adv-x="698" 
d="M508 700h-146l-393 -700h133l85 160h285l24 -160h133zM243 264l168 315l46 -315h-214zM305 801l16 80h298l-16 -80h-298z" />
    <glyph glyph-name="amacron" unicode="&#x101;" horiz-adv-x="609" 
d="M44 259q-8 -39 -8 -81q0 -90 46 -140t133 -50q91 0 168 62l-9 -50h118l100 518h-118l-10 -50q-52 62 -143 62q-106 0 -179.5 -73t-97.5 -198zM332 433q34 0 65.5 -14.5t49.5 -40.5l-46 -238q-60 -55 -137 -55q-107 0 -107 113q0 106 49 170.5t126 64.5zM231 627l16 80
h298l-16 -80h-298z" />
    <glyph glyph-name="Abreve" unicode="&#x102;" horiz-adv-x="698" 
d="M362 700h146l121 -700h-133l-24 160h-285l-85 -160h-133zM411 579l-168 -315h214zM447 763q-65 0 -98.5 36.5t-37.5 100.5l80 18q7 -79 71 -79q62 0 101 79l72 -18q-27 -64 -75 -100.5t-113 -36.5z" />
    <glyph glyph-name="abreve" unicode="&#x103;" horiz-adv-x="609" 
d="M44 259q24 125 97.5 198t179.5 73q91 0 143 -62l10 50h118l-100 -518h-118l9 50q-77 -62 -168 -62q-87 0 -133 50t-46 140q0 42 8 81zM332 433q-77 0 -126 -64.5t-49 -170.5q0 -113 107 -113q77 0 137 55l46 238q-18 26 -49.5 40.5t-65.5 14.5zM373 591q-65 0 -98.5 36.5
t-36.5 100.5l80 18q7 -79 70 -79t102 79l72 -18q-28 -64 -76 -100.5t-113 -36.5z" />
    <glyph glyph-name="Aogonek" unicode="&#x104;" horiz-adv-x="698" 
d="M508 700l121 -700q-82 -56 -82 -112q0 -34 35 -34q26 0 48 20l35 -53q-53 -40 -116 -40q-45 0 -70.5 23t-25.5 59q0 37 25 74t65 63h-47l-24 160h-285l-85 -160h-133l393 700h146zM411 579l-168 -315h214z" />
    <glyph glyph-name="aogonek" unicode="&#x105;" horiz-adv-x="609" 
d="M592 518l-100 -518q-82 -56 -82 -112q0 -34 35 -34q26 0 48 20l35 -53q-53 -40 -116 -40q-45 0 -70.5 23t-25.5 59q0 37 25 74t65 63h-32l9 50q-77 -62 -168 -62q-87 0 -133 50t-46 140q0 155 82.5 253.5t202.5 98.5q91 0 143 -62l10 50h118zM332 433q-77 0 -126 -64.5
t-49 -170.5q0 -113 107 -113q77 0 137 55l46 238q-18 26 -49.5 40.5t-65.5 14.5z" />
    <glyph glyph-name="Cacute" unicode="&#x106;" horiz-adv-x="694" 
d="M618 877l-185 -129l-40 51l170 143zM61 350q32 162 142.5 262t260.5 100q95 0 161 -40.5t94 -111.5l-112 -55q-48 101 -159 101q-106 0 -187.5 -92t-81.5 -238q0 -87 46 -134.5t124 -47.5q111 0 197 101l92 -55q-55 -71 -137.5 -111.5t-177.5 -40.5q-127 0 -199 73
t-72 198q0 43 9 91z" />
    <glyph glyph-name="cacute" unicode="&#x107;" horiz-adv-x="546" 
d="M38 259q24 121 108 196t201 75q151 0 201 -126l-100 -48q-37 78 -115 78q-74 0 -127.5 -63t-53.5 -165q0 -58 30 -90t83 -32q78 0 145 78l82 -48q-100 -126 -251 -126q-100 0 -155 55t-55 149q0 33 7 67zM486 703l-185 -129l-40 51l170 143z" />
    <glyph glyph-name="Ccircumflex" unicode="&#x108;" horiz-adv-x="694" 
d="M573 748l-91 97l-129 -97l-45 44l156 135h68l102 -135zM61 350q32 162 142.5 262t260.5 100q95 0 161 -40.5t94 -111.5l-112 -55q-48 101 -159 101q-106 0 -187.5 -92t-81.5 -238q0 -87 46 -134.5t124 -47.5q111 0 197 101l92 -55q-55 -71 -137.5 -111.5t-177.5 -40.5
q-127 0 -199 73t-72 198q0 43 9 91z" />
    <glyph glyph-name="ccircumflex" unicode="&#x109;" horiz-adv-x="546" 
d="M38 259q24 121 108 196t201 75q151 0 201 -126l-100 -48q-37 78 -115 78q-74 0 -127.5 -63t-53.5 -165q0 -58 30 -90t83 -32q78 0 145 78l82 -48q-100 -126 -251 -126q-100 0 -155 55t-55 149q0 33 7 67zM452 574l-91 97l-129 -97l-44 44l155 135h68l103 -135z" />
    <glyph glyph-name="Cdotaccent" unicode="&#x10a;" horiz-adv-x="694" 
d="M410 841q5 26 27 44.5t48 18.5q23 0 37.5 -14.5t14.5 -36.5q0 -30 -23.5 -52.5t-52.5 -22.5q-23 0 -37.5 14.5t-14.5 36.5q0 8 1 12zM61 350q-9 -48 -9 -91q0 -125 72 -198t199 -73q95 0 177.5 40.5t137.5 111.5l-92 55q-86 -101 -197 -101q-78 0 -124 47.5t-46 134.5
q0 146 81.5 238t187.5 92q111 0 159 -101l112 55q-28 71 -94 111.5t-161 40.5q-150 0 -260.5 -100t-142.5 -262z" />
    <glyph glyph-name="cdotaccent" unicode="&#x10b;" horiz-adv-x="546" 
d="M38 259q-7 -34 -7 -67q0 -94 55 -149t155 -55q151 0 251 126l-82 48q-67 -78 -145 -78q-53 0 -83 32t-30 90q0 102 53.5 165t127.5 63q78 0 115 -78l100 48q-50 126 -201 126q-117 0 -201 -75t-108 -196zM293 667q5 26 27 44.5t48 18.5q23 0 37.5 -14.5t14.5 -36.5
q0 -30 -23.5 -52.5t-52.5 -22.5q-23 0 -37.5 14.5t-14.5 36.5q0 8 1 12z" />
    <glyph glyph-name="Ccaron" unicode="&#x10c;" horiz-adv-x="694" 
d="M478 842l129 97l44 -44l-155 -135h-68l-103 135l62 44zM61 350q-9 -48 -9 -91q0 -125 72 -198t199 -73q95 0 177.5 40.5t137.5 111.5l-92 55q-86 -101 -197 -101q-78 0 -124 47.5t-46 134.5q0 146 81.5 238t187.5 92q111 0 159 -101l112 55q-28 71 -94 111.5t-161 40.5
q-150 0 -260.5 -100t-142.5 -262z" />
    <glyph glyph-name="ccaron" unicode="&#x10d;" horiz-adv-x="546" 
d="M38 259q-7 -34 -7 -67q0 -94 55 -149t155 -55q151 0 251 126l-82 48q-67 -78 -145 -78q-53 0 -83 32t-30 90q0 102 53.5 165t127.5 63q78 0 115 -78l100 48q-50 126 -201 126q-117 0 -201 -75t-108 -196zM364 668l129 97l45 -44l-156 -135h-68l-102 135l61 44z" />
    <glyph glyph-name="Dcaron" unicode="&#x10e;" horiz-adv-x="698" 
d="M27 0h242q175 0 294 123t119 316q0 122 -72 191.5t-205 69.5h-242zM171 104l95 492h110q85 0 131.5 -44.5t46.5 -129.5q0 -148 -79.5 -233t-193.5 -85h-110zM408 842l129 97l44 -44l-155 -135h-68l-103 135l62 44z" />
    <glyph glyph-name="dcaron" unicode="&#x10f;" horiz-adv-x="729" 
d="M44 259q-8 -39 -8 -81q0 -90 46 -140t133 -50q91 0 168 62l-9 -50h118l141 730h-118l-51 -262q-52 62 -143 62q-106 0 -179.5 -73t-97.5 -198zM332 433q34 0 65.5 -14.5t49.5 -40.5l-46 -238q-60 -55 -137 -55q-107 0 -107 113q0 106 49 170.5t126 64.5zM628 500l114 242
l87 -31l-136 -231z" />
    <glyph glyph-name="Dcroat" unicode="&#x110;" horiz-adv-x="698" 
d="M269 0h-242l60 312h-74l15 76h74l61 312h242q133 0 205 -69.5t72 -191.5q0 -193 -119 -316t-294 -123zM211 312l-40 -208h110q114 0 193.5 85t79.5 233q0 85 -46.5 129.5t-131.5 44.5h-110l-40 -208h149l-15 -76h-149z" />
    <glyph glyph-name="dcroat" unicode="&#x111;" horiz-adv-x="609" 
d="M488 590h-196l14 73h196l13 67h118l-13 -67h62l-14 -73h-62l-114 -590h-118l9 50q-77 -62 -168 -62q-87 0 -133 50t-46 140q0 155 82.5 253.5t202.5 98.5q91 0 143 -62zM332 433q-77 0 -126 -64.5t-49 -170.5q0 -113 107 -113q77 0 137 55l46 238q-18 26 -49.5 40.5
t-65.5 14.5z" />
    <glyph glyph-name="Emacron" unicode="&#x112;" horiz-adv-x="578" 
d="M27 0l136 700h452l-21 -104h-328l-35 -184h293l-21 -104h-293l-39 -204h337l-20 -104h-461zM263 801l16 80h298l-16 -80h-298z" />
    <glyph glyph-name="emacron" unicode="&#x113;" horiz-adv-x="567" 
d="M220 627l16 80h298l-16 -80h-298zM273 84q74 0 142 66l71 -59q-97 -103 -231 -103q-103 0 -163 56.5t-60 152.5q0 136 93 234.5t240 98.5q89 0 140 -39.5t51 -101.5q0 -85 -70 -139.5t-181 -54.5q-94 0 -154 39q-2 -14 -2 -28q0 -56 33.5 -89t90.5 -33zM343 434
q-115 0 -168 -116q57 -27 131 -27q133 0 133 83q0 27 -24.5 43.5t-71.5 16.5z" />
    <glyph glyph-name="Ebreve" unicode="&#x114;" horiz-adv-x="578" 
d="M27 0l136 700h452l-21 -104h-328l-35 -184h293l-21 -104h-293l-39 -204h337l-20 -104h-461zM404 763q-65 0 -98.5 36.5t-37.5 100.5l80 18q7 -79 71 -79q62 0 101 79l72 -18q-27 -64 -75 -100.5t-113 -36.5z" />
    <glyph glyph-name="ebreve" unicode="&#x115;" horiz-adv-x="567" 
d="M361 591q-65 0 -98.5 36.5t-36.5 100.5l80 18q7 -79 70 -79t102 79l72 -18q-28 -64 -76 -100.5t-113 -36.5zM273 84q74 0 142 66l71 -59q-97 -103 -231 -103q-103 0 -163 56.5t-60 152.5q0 136 93 234.5t240 98.5q89 0 140 -39.5t51 -101.5q0 -85 -70 -139.5t-181 -54.5
q-94 0 -154 39q-2 -14 -2 -28q0 -56 33.5 -89t90.5 -33zM343 434q-115 0 -168 -116q57 -27 131 -27q133 0 133 83q0 27 -24.5 43.5t-71.5 16.5z" />
    <glyph glyph-name="Edotaccent" unicode="&#x116;" horiz-adv-x="578" 
d="M27 0l136 700h452l-21 -104h-328l-35 -184h293l-21 -104h-293l-39 -204h337l-20 -104h-461zM356 841q5 26 27 44.5t48 18.5q23 0 37.5 -14.5t14.5 -36.5q0 -30 -23.5 -52.5t-52.5 -22.5q-23 0 -37.5 14.5t-14.5 36.5q0 8 1 12z" />
    <glyph glyph-name="edotaccent" unicode="&#x117;" horiz-adv-x="567" 
d="M313 667q5 26 27 44.5t48 18.5q23 0 37.5 -14.5t14.5 -36.5q0 -30 -23.5 -52.5t-52.5 -22.5q-23 0 -37.5 14.5t-14.5 36.5q0 8 1 12zM273 84q74 0 142 66l71 -59q-97 -103 -231 -103q-103 0 -163 56.5t-60 152.5q0 136 93 234.5t240 98.5q89 0 140 -39.5t51 -101.5
q0 -85 -70 -139.5t-181 -54.5q-94 0 -154 39q-2 -14 -2 -28q0 -56 33.5 -89t90.5 -33zM343 434q-115 0 -168 -116q57 -27 131 -27q133 0 133 83q0 27 -24.5 43.5t-71.5 16.5z" />
    <glyph glyph-name="Eogonek" unicode="&#x118;" horiz-adv-x="578" 
d="M27 0l136 700h452l-21 -104h-328l-35 -184h293l-21 -104h-293l-39 -204h337l-20 -104h-53q-82 -56 -82 -112q0 -34 35 -34q26 0 48 20l35 -53q-53 -40 -116 -40q-45 0 -70.5 23t-25.5 59q0 37 25 74t65 63h-322z" />
    <glyph glyph-name="eogonek" unicode="&#x119;" horiz-adv-x="567" 
d="M273 84q74 0 142 66l71 -59q-74 -79 -174 -97q-70 -55 -70 -106q0 -34 35 -34q26 0 48 20l35 -53q-53 -40 -116 -40q-45 0 -70.5 23t-25.5 59q0 33 20.5 67.5t53.5 59.5q-89 8 -139.5 63.5t-50.5 143.5q0 136 93 234.5t240 98.5q89 0 140 -39.5t51 -101.5
q0 -85 -70 -139.5t-181 -54.5q-94 0 -154 39q-2 -14 -2 -28q0 -56 33.5 -89t90.5 -33zM343 434q-115 0 -168 -116q57 -27 131 -27q133 0 133 83q0 27 -24.5 43.5t-71.5 16.5z" />
    <glyph glyph-name="Ecaron" unicode="&#x11a;" horiz-adv-x="578" 
d="M27 0l136 700h452l-21 -104h-328l-35 -184h293l-21 -104h-293l-39 -204h337l-20 -104h-461zM420 842l129 97l44 -44l-155 -135h-68l-103 135l62 44z" />
    <glyph glyph-name="ecaron" unicode="&#x11b;" horiz-adv-x="567" 
d="M377 668l129 97l45 -44l-156 -135h-68l-102 135l61 44zM273 84q74 0 142 66l71 -59q-97 -103 -231 -103q-103 0 -163 56.5t-60 152.5q0 136 93 234.5t240 98.5q89 0 140 -39.5t51 -101.5q0 -85 -70 -139.5t-181 -54.5q-94 0 -154 39q-2 -14 -2 -28q0 -56 33.5 -89
t90.5 -33zM343 434q-115 0 -168 -116q57 -27 131 -27q133 0 133 83q0 27 -24.5 43.5t-71.5 16.5z" />
    <glyph glyph-name="Gcircumflex" unicode="&#x11c;" horiz-adv-x="720" 
d="M571 748l-91 97l-129 -97l-45 44l156 135h68l102 -135zM61 350q31 162 141.5 262t254.5 100q197 0 261 -151l-113 -55q-45 100 -165 100q-101 0 -180.5 -93.5t-79.5 -237.5q0 -85 48 -133t128 -48q107 0 166 62l22 116h-158l21 104h278l-52 -265q-118 -123 -300 -123
q-130 0 -205.5 75t-75.5 201q0 41 9 86z" />
    <glyph glyph-name="gcircumflex" unicode="&#x11d;" horiz-adv-x="609" 
d="M464 468l10 50h118l-96 -496q-23 -119 -98.5 -182.5t-190.5 -63.5q-150 0 -213 107l96 57q44 -73 129 -73q58 0 101 35.5t55 103.5l8 44q-77 -62 -168 -62q-87 0 -133 50t-46 140q0 155 82.5 253.5t202.5 98.5q91 0 143 -62zM332 433q-77 0 -126 -64.5t-49 -170.5
q0 -113 107 -113q77 0 137 55l46 238q-18 26 -49.5 40.5t-65.5 14.5zM478 574l-91 97l-129 -97l-44 44l155 135h68l103 -135z" />
    <glyph glyph-name="Gbreve" unicode="&#x11e;" horiz-adv-x="720" 
d="M464 763q-65 0 -98.5 36.5t-37.5 100.5l80 18q7 -79 71 -79q62 0 101 79l72 -18q-27 -64 -75 -100.5t-113 -36.5zM61 350q31 162 141.5 262t254.5 100q197 0 261 -151l-113 -55q-45 100 -165 100q-101 0 -180.5 -93.5t-79.5 -237.5q0 -85 48 -133t128 -48q107 0 166 62
l22 116h-158l21 104h278l-52 -265q-118 -123 -300 -123q-130 0 -205.5 75t-75.5 201q0 41 9 86z" />
    <glyph glyph-name="gbreve" unicode="&#x11f;" horiz-adv-x="609" 
d="M464 468l10 50h118l-96 -496q-23 -119 -98.5 -182.5t-190.5 -63.5q-150 0 -213 107l96 57q44 -73 129 -73q58 0 101 35.5t55 103.5l8 44q-77 -62 -168 -62q-87 0 -133 50t-46 140q0 155 82.5 253.5t202.5 98.5q91 0 143 -62zM332 433q-77 0 -126 -64.5t-49 -170.5
q0 -113 107 -113q77 0 137 55l46 238q-18 26 -49.5 40.5t-65.5 14.5zM371 591q-65 0 -98.5 36.5t-36.5 100.5l80 18q7 -79 70 -79t102 79l72 -18q-28 -64 -76 -100.5t-113 -36.5z" />
    <glyph glyph-name="Gdotaccent" unicode="&#x120;" horiz-adv-x="720" 
d="M416 841q5 26 27 44.5t48 18.5q23 0 37.5 -14.5t14.5 -36.5q0 -30 -23.5 -52.5t-52.5 -22.5q-23 0 -37.5 14.5t-14.5 36.5q0 8 1 12zM61 350q31 162 141.5 262t254.5 100q197 0 261 -151l-113 -55q-45 100 -165 100q-101 0 -180.5 -93.5t-79.5 -237.5q0 -85 48 -133
t128 -48q107 0 166 62l22 116h-158l21 104h278l-52 -265q-118 -123 -300 -123q-130 0 -205.5 75t-75.5 201q0 41 9 86z" />
    <glyph glyph-name="gdotaccent" unicode="&#x121;" horiz-adv-x="609" 
d="M474 518l-10 -50q-52 62 -143 62q-120 0 -202.5 -98.5t-82.5 -253.5q0 -90 46 -140t133 -50q91 0 168 62l-8 -44q-12 -68 -55 -103.5t-101 -35.5q-85 0 -129 73l-96 -57q63 -107 213 -107q115 0 190.5 63.5t98.5 182.5l96 496h-118zM332 433q34 0 65.5 -14.5t49.5 -40.5
l-46 -238q-60 -55 -137 -55q-107 0 -107 113q0 106 49 170.5t126 64.5zM323 667q5 26 27 44.5t48 18.5q23 0 37.5 -14.5t14.5 -36.5q0 -30 -23.5 -52.5t-52.5 -22.5q-23 0 -37.5 14.5t-14.5 36.5q0 8 1 12z" />
    <glyph glyph-name="Gcommaaccent" unicode="&#x122;" horiz-adv-x="720" 
d="M214 -243l97 201l83 -30l-115 -195zM61 350q31 162 141.5 262t254.5 100q197 0 261 -151l-113 -55q-45 100 -165 100q-101 0 -180.5 -93.5t-79.5 -237.5q0 -85 48 -133t128 -48q107 0 166 62l22 116h-158l21 104h278l-52 -265q-118 -123 -300 -123q-130 0 -205.5 75
t-75.5 201q0 41 9 86z" />
    <glyph glyph-name="gcommaaccent" unicode="&#x123;" horiz-adv-x="609" 
d="M474 518l-10 -50q-52 62 -143 62q-120 0 -202.5 -98.5t-82.5 -253.5q0 -90 46 -140t133 -50q91 0 168 62l-8 -44q-12 -68 -55 -103.5t-101 -35.5q-85 0 -129 73l-96 -57q63 -107 213 -107q115 0 190.5 63.5t98.5 182.5l96 496h-118zM332 433q34 0 65.5 -14.5t49.5 -40.5
l-46 -238q-60 -55 -137 -55q-107 0 -107 113q0 106 49 170.5t126 64.5zM489 780l-97 -201l-82 30l115 195z" />
    <glyph glyph-name="Hcircumflex" unicode="&#x124;" horiz-adv-x="718" 
d="M27 0l136 700h124l-54 -278h316l54 278h124l-136 -700h-124l61 318h-316l-61 -318h-124zM564 748l-91 97l-129 -97l-45 44l156 135h68l102 -135z" />
    <glyph glyph-name="hcircumflex" unicode="&#x125;" horiz-adv-x="605" 
d="M358 434q-41 0 -83 -20.5t-70 -49.5l-70 -364h-118l141 730h118l-52 -272q85 72 188 72q71 0 110.5 -36.5t39.5 -105.5q0 -22 -5 -52l-65 -336h-118l62 319q4 26 4 37q0 78 -82 78zM332 748l-91 97l-129 -97l-45 44l156 135h68l102 -135z" />
    <glyph glyph-name="Hbar" unicode="&#x126;" horiz-adv-x="718" 
d="M754 531h-60l-103 -531h-124l61 318h-316l-61 -318h-124l103 531h-60l14 76h60l19 93h124l-19 -93h316l19 93h124l-19 -93h60zM233 422h316l21 109h-316z" />
    <glyph glyph-name="hbar" unicode="&#x127;" horiz-adv-x="605" 
d="M445 590h-196l-25 -132q85 72 188 72q71 0 110.5 -36.5t39.5 -105.5q0 -22 -5 -52l-65 -336h-118l62 319q4 17 4 37q0 78 -82 78q-41 0 -83 -20.5t-70 -49.5l-70 -364h-118l114 590h-62l14 73h62l13 67h118l-13 -67h196z" />
    <glyph glyph-name="Itilde" unicode="&#x128;" horiz-adv-x="288" 
d="M168 700h124l-136 -700h-124zM150 784l-72 10q42 115 127 115q40 0 74 -28q24 -20 43 -20q28 0 43 42l72 -10q-42 -115 -127 -115q-37 0 -68.5 24t-48.5 24q-28 0 -43 -42z" />
    <glyph glyph-name="itilde" unicode="&#x129;" horiz-adv-x="263" 
d="M22 0l100 518h118l-100 -518h-118zM103 610l-72 10q42 115 127 115q40 0 74 -28q24 -20 43 -20q28 0 43 42l72 -10q-42 -115 -127 -115q-37 0 -68.5 24t-48.5 24q-28 0 -43 -42z" />
    <glyph glyph-name="Imacron" unicode="&#x12a;" horiz-adv-x="288" 
d="M168 700h124l-136 -700h-124zM100 801l16 80h298l-16 -80h-298z" />
    <glyph glyph-name="imacron" unicode="&#x12b;" horiz-adv-x="263" 
d="M22 0l100 518h118l-100 -518h-118zM53 627l16 80h298l-16 -80h-298z" />
    <glyph glyph-name="Ibreve" unicode="&#x12c;" horiz-adv-x="288" 
d="M168 700h124l-136 -700h-124zM242 763q-65 0 -98.5 36.5t-37.5 100.5l80 18q7 -79 71 -79q62 0 101 79l72 -18q-27 -64 -75 -100.5t-113 -36.5z" />
    <glyph glyph-name="ibreve" unicode="&#x12d;" horiz-adv-x="263" 
d="M22 0l100 518h118l-100 -518h-118zM195 591q-65 0 -98.5 36.5t-36.5 100.5l80 18q7 -79 70 -79t102 79l72 -18q-28 -64 -76 -100.5t-113 -36.5z" />
    <glyph glyph-name="Iogonek" unicode="&#x12e;" horiz-adv-x="288" 
d="M70 0h-38l136 700h124l-136 -700q-82 -56 -82 -112q0 -34 35 -34q26 0 48 20l35 -53q-53 -40 -116 -40q-45 0 -70.5 23t-25.5 59q0 37 25 74t65 63z" />
    <glyph glyph-name="iogonek" unicode="&#x12f;" horiz-adv-x="262" 
d="M22 0l100 518h118l-100 -518q-82 -56 -82 -112q0 -34 35 -34q26 0 48 20l35 -53q-53 -40 -116 -40q-45 0 -70.5 23t-25.5 59q0 37 25 74t65 63h-32zM283 667q-6 -31 -31 -51.5t-56 -20.5q-27 0 -44 16t-17 41q0 35 27.5 61t61.5 26q27 0 43.5 -16t16.5 -42q0 -9 -1 -14z
" />
    <glyph glyph-name="Idotaccent" unicode="&#x130;" horiz-adv-x="287" 
d="M168 700h124l-136 -700h-124zM193 841q5 26 27 44.5t48 18.5q23 0 37.5 -14.5t14.5 -36.5q0 -30 -23.5 -52.5t-52.5 -22.5q-23 0 -37.5 14.5t-14.5 36.5q0 8 1 12z" />
    <glyph glyph-name="dotlessi" unicode="&#x131;" horiz-adv-x="262" 
d="M22 0l100 518h118l-100 -518h-118z" />
    <glyph glyph-name="IJ" unicode="&#x132;" horiz-adv-x="872" 
d="M168 700h124l-136 -700h-124zM516 94q60 0 99 40t53 110l89 456h124l-88 -453q-24 -120 -100.5 -189.5t-193.5 -69.5q-82 0 -137.5 37t-78.5 106l111 55q31 -92 122 -92z" />
    <glyph glyph-name="ij" unicode="&#x133;" horiz-adv-x="522" 
d="M22 0l100 518h118l-100 -518h-118zM283 667q-6 -31 -31 -51.5t-56 -20.5q-27 0 -44 16t-17 41q0 35 27.5 61t61.5 26q27 0 43.5 -16t16.5 -42q0 -9 -1 -14zM162 -224q-29 0 -47 3l18 94q13 -1 44 -1q43 0 65 21t31 65l109 560h118l-106 -547q-20 -102 -74 -148.5
t-158 -46.5zM543 667q-6 -31 -31 -51.5t-56 -20.5q-27 0 -44 16t-17 41q0 35 27.5 61t61.5 26q27 0 43.5 -16t16.5 -42q0 -9 -1 -14z" />
    <glyph glyph-name="Jcircumflex" unicode="&#x134;" horiz-adv-x="592" 
d="M236 94q60 0 99 40t53 110l89 456h124l-88 -453q-24 -120 -100.5 -189.5t-193.5 -69.5q-82 0 -137.5 37t-78.5 106l111 55q31 -92 122 -92zM658 748l-91 97l-129 -97l-45 44l156 135h68l102 -135z" />
    <glyph glyph-name="jcircumflex" unicode="&#x135;" horiz-adv-x="262" 
d="M-97 -224q-29 0 -47 3l18 94q13 -1 44 -1q43 0 64.5 21t30.5 65l109 560h118l-106 -547q-20 -102 -73.5 -148.5t-157.5 -46.5zM302 574l-91 97l-129 -97l-44 44l155 135h68l103 -135z" />
    <glyph glyph-name="Kcommaaccent" unicode="&#x136;" horiz-adv-x="644" 
d="M690 700l-280 -288l175 -412h-137l-130 317l-132 -136l-35 -181h-124l136 700h124l-67 -344l328 344h142zM152 -243l97 201l83 -30l-115 -195z" />
    <glyph glyph-name="kcommaaccent" unicode="&#x137;" horiz-adv-x="553" 
d="M158 730h118l-86 -443l245 231h137l-215 -200l141 -318h-130l-99 236l-108 -102l-26 -134h-118zM105 -243l97 201l83 -30l-115 -195z" />
    <glyph glyph-name="kgreenlandic" unicode="&#x138;" horiz-adv-x="553" 
d="M117 518h118l-45 -231l245 231h137l-215 -200l141 -318h-130l-99 236l-108 -102l-26 -134h-118z" />
    <glyph glyph-name="Lacute" unicode="&#x139;" horiz-adv-x="548" 
d="M27 0l136 700h124l-116 -596h328l-20 -104h-452zM418 877l-185 -129l-40 51l170 143z" />
    <glyph glyph-name="lacute" unicode="&#x13a;" horiz-adv-x="262" 
d="M22 0l141 730h118l-141 -730h-118zM411 877l-185 -129l-40 51l170 143z" />
    <glyph glyph-name="Lcommaaccent" unicode="&#x13b;" horiz-adv-x="548" 
d="M27 0l136 700h124l-116 -596h328l-20 -104h-452zM125 -243l97 201l83 -30l-115 -195z" />
    <glyph glyph-name="lcommaaccent" unicode="&#x13c;" horiz-adv-x="262" 
d="M22 0l141 730h118l-141 -730h-118zM-57 -243l96 201l83 -30l-115 -195z" />
    <glyph glyph-name="Lcaron" unicode="&#x13d;" horiz-adv-x="548" 
d="M27 0l136 700h124l-116 -596h328l-20 -104h-452zM376 500l114 242l87 -31l-136 -231z" />
    <glyph glyph-name="lcaron" unicode="&#x13e;" horiz-adv-x="375" 
d="M22 0l141 730h118l-141 -730h-118zM274 500l114 242l87 -31l-136 -231z" />
    <glyph glyph-name="Ldot" unicode="&#x13f;" horiz-adv-x="548" 
d="M27 0l136 700h124l-116 -596h328l-20 -104h-452zM351 377q5 26 27 44.5t48 18.5q23 0 37.5 -14.5t14.5 -36.5q0 -30 -23.5 -52.5t-52.5 -22.5q-23 0 -37.5 14.5t-14.5 36.5q0 8 1 12z" />
    <glyph glyph-name="ldot" unicode="&#x140;" horiz-adv-x="451" 
d="M27 0l141 730h118l-141 -730h-118zM320 377q5 26 27 44.5t48 18.5q23 0 37.5 -14.5t14.5 -36.5q0 -30 -23.5 -52.5t-52.5 -22.5q-23 0 -37.5 14.5t-14.5 36.5q0 8 1 12z" />
    <glyph glyph-name="Lslash" unicode="&#x141;" horiz-adv-x="548" 
d="M530 519l-314 -182l-45 -233h328l-20 -104h-452l49 256l-78 -45l-26 62l121 70l70 357h124l-54 -276l271 157z" />
    <glyph glyph-name="lslash" unicode="&#x142;" horiz-adv-x="386" 
d="M84 0l59 306l-120 -69l-27 60l164 94l65 339h118l-51 -262l121 70l26 -60l-163 -95l-74 -383h-118z" />
    <glyph glyph-name="Nacute" unicode="&#x143;" horiz-adv-x="720" 
d="M27 0l136 700h120l226 -494l96 494h124l-136 -700h-120l-226 494l-96 -494h-124zM630 877l-185 -129l-40 51l170 143z" />
    <glyph glyph-name="nacute" unicode="&#x144;" horiz-adv-x="605" 
d="M358 434q-41 0 -83 -20.5t-70 -49.5l-70 -364h-118l100 518h118l-11 -60q85 72 188 72q71 0 110.5 -36.5t39.5 -105.5q0 -22 -5 -52l-65 -336h-118l62 319q4 17 4 37q0 78 -82 78zM526 703l-185 -129l-40 51l170 143z" />
    <glyph glyph-name="Ncommaaccent" unicode="&#x145;" horiz-adv-x="720" 
d="M27 0l136 700h120l226 -494l96 494h124l-136 -700h-120l-226 494l-96 -494h-124zM193 -243l97 201l83 -30l-115 -195z" />
    <glyph glyph-name="ncommaaccent" unicode="&#x146;" horiz-adv-x="605" 
d="M358 434q-41 0 -83 -20.5t-70 -49.5l-70 -364h-118l100 518h118l-11 -60q85 72 188 72q71 0 110.5 -36.5t39.5 -105.5q0 -22 -5 -52l-65 -336h-118l62 319q4 17 4 37q0 78 -82 78zM115 -243l97 201l83 -30l-115 -195z" />
    <glyph glyph-name="Ncaron" unicode="&#x147;" horiz-adv-x="720" 
d="M27 0l136 700h120l226 -494l96 494h124l-136 -700h-120l-226 494l-96 -494h-124zM473 842l129 97l44 -44l-155 -135h-68l-103 135l62 44z" />
    <glyph glyph-name="ncaron" unicode="&#x148;" horiz-adv-x="605" 
d="M358 434q-41 0 -83 -20.5t-70 -49.5l-70 -364h-118l100 518h118l-11 -60q85 72 188 72q71 0 110.5 -36.5t39.5 -105.5q0 -22 -5 -52l-65 -336h-118l62 319q4 17 4 37q0 78 -82 78zM381 668l129 97l45 -44l-156 -135h-68l-102 135l61 44z" />
    <glyph glyph-name="napostrophe" unicode="&#x149;" horiz-adv-x="668" 
d="M421 434q-41 0 -83 -20.5t-70 -49.5l-70 -364h-118l100 518h118l-11 -60q85 72 188 72q71 0 110.5 -36.5t39.5 -105.5q0 -22 -5 -52l-65 -336h-118l62 319q4 17 4 37q0 78 -82 78zM35 500l114 242l87 -31l-136 -231z" />
    <glyph glyph-name="Eng" unicode="&#x14a;" horiz-adv-x="720" 
d="M460 -42l10 49l-223 487l-96 -494h-124l136 700h120l226 -493l96 493h124l-142 -729q-20 -102 -74 -148.5t-158 -46.5q-29 0 -47 3l18 94q13 -1 44 -1q41 0 61 20t29 66z" />
    <glyph glyph-name="eng" unicode="&#x14b;" horiz-adv-x="605" 
d="M365 -42l71 361q4 17 4 37q0 78 -82 78q-41 0 -83 -20.5t-70 -49.5l-70 -364h-118l100 518h118l-11 -60q85 72 188 72q71 0 110.5 -36.5t39.5 -105.5q0 -22 -5 -52l-71 -365q-20 -102 -74 -148.5t-158 -46.5q-29 0 -47 3l18 94q13 -1 44 -1q43 0 65 21t31 65z" />
    <glyph glyph-name="Omacron" unicode="&#x14c;" horiz-adv-x="730" 
d="M705 350q-31 -157 -137.5 -259.5t-255.5 -102.5q-125 0 -193 74t-68 195q0 122 52 226.5t145 166.5t205 62q125 0 193 -74.5t68 -196.5q0 -45 -9 -91zM579 350q8 45 8 77q0 84 -40.5 131.5t-114.5 47.5q-103 0 -178 -94t-75 -241q0 -84 40.5 -130.5t113.5 -46.5
q90 0 156.5 69t89.5 187zM321 801l16 80h298l-16 -80h-298z" />
    <glyph glyph-name="omacron" unicode="&#x14d;" horiz-adv-x="592" 
d="M554 259q-24 -122 -109 -196.5t-202 -74.5q-100 0 -156 54.5t-56 148.5q0 146 92.5 242.5t225.5 96.5q100 0 156 -55t56 -150q0 -26 -7 -66zM434 259q6 29 6 54q0 57 -28.5 89t-81.5 32q-74 0 -126 -64t-52 -166q0 -57 28.5 -88.5t81.5 -31.5q65 0 110.5 47t61.5 128z
M218 627l16 80h298l-16 -80h-298z" />
    <glyph glyph-name="Obreve" unicode="&#x14e;" horiz-adv-x="730" 
d="M705 350q-31 -157 -137.5 -259.5t-255.5 -102.5q-125 0 -193 74t-68 195q0 122 52 226.5t145 166.5t205 62q125 0 193 -74.5t68 -196.5q0 -45 -9 -91zM579 350q8 45 8 77q0 84 -40.5 131.5t-114.5 47.5q-103 0 -178 -94t-75 -241q0 -84 40.5 -130.5t113.5 -46.5
q90 0 156.5 69t89.5 187zM463 763q-65 0 -98.5 36.5t-37.5 100.5l80 18q7 -79 71 -79q62 0 101 79l72 -18q-27 -64 -75 -100.5t-113 -36.5z" />
    <glyph glyph-name="obreve" unicode="&#x14f;" horiz-adv-x="592" 
d="M554 259q-24 -122 -109 -196.5t-202 -74.5q-100 0 -156 54.5t-56 148.5q0 146 92.5 242.5t225.5 96.5q100 0 156 -55t56 -150q0 -26 -7 -66zM434 259q6 29 6 54q0 57 -28.5 89t-81.5 32q-74 0 -126 -64t-52 -166q0 -57 28.5 -88.5t81.5 -31.5q65 0 110.5 47t61.5 128z
M360 591q-65 0 -98.5 36.5t-36.5 100.5l80 18q7 -79 70 -79t102 79l72 -18q-28 -64 -76 -100.5t-113 -36.5z" />
    <glyph glyph-name="Ohungarumlaut" unicode="&#x150;" horiz-adv-x="730" 
d="M705 350q-31 -157 -137.5 -259.5t-255.5 -102.5q-125 0 -193 74t-68 195q0 122 52 226.5t145 166.5t205 62q125 0 193 -74.5t68 -196.5q0 -45 -9 -91zM579 350q8 45 8 77q0 84 -40.5 131.5t-114.5 47.5q-103 0 -178 -94t-75 -241q0 -84 40.5 -130.5t113.5 -46.5
q90 0 156.5 69t89.5 187zM655 936l56 -64l-180 -130l-47 50zM461 936l60 -61l-152 -133l-48 48z" />
    <glyph glyph-name="ohungarumlaut" unicode="&#x151;" horiz-adv-x="592" 
d="M537 762l55 -64l-180 -130l-46 50zM343 762l59 -61l-152 -133l-48 48zM554 259q-24 -122 -109 -196.5t-202 -74.5q-100 0 -156 54.5t-56 148.5q0 146 92.5 242.5t225.5 96.5q100 0 156 -55t56 -150q0 -26 -7 -66zM434 259q6 29 6 54q0 57 -28.5 89t-81.5 32
q-74 0 -126 -64t-52 -166q0 -57 28.5 -88.5t81.5 -31.5q65 0 110.5 47t61.5 128z" />
    <glyph glyph-name="OE" unicode="&#x152;" horiz-adv-x="862" 
d="M458 700h441l-21 -104h-275l-35 -184h240l-21 -104h-240l-39 -204h284l-20 -104h-450q-130 0 -200.5 68.5t-70.5 188.5q0 195 116.5 319t290.5 124zM187 350q-8 -36 -8 -74q0 -84 45 -128t123 -44h37l95 492h-37q-94 0 -163 -63.5t-92 -182.5z" />
    <glyph glyph-name="oe" unicode="&#x153;" horiz-adv-x="963" 
d="M432 251l3 16q4 21 4 46q0 58 -28 89.5t-81 31.5q-74 0 -126 -64t-52 -166q0 -57 28.5 -88.5t81.5 -31.5q63 0 108 44.5t62 122.5zM651 -12q-137 0 -190 93q-87 -93 -218 -93q-100 0 -156 54.5t-56 148.5q0 146 92.5 242.5t225.5 96.5q130 0 181 -93q93 93 231 93
q89 0 140 -39.5t51 -101.5q0 -85 -70 -139.5t-181 -54.5q-94 0 -154 39q-2 -10 -2 -28q0 -56 33.5 -89t90.5 -33q74 0 142 66l71 -59q-97 -103 -231 -103zM739 434q-115 0 -168 -116q57 -27 131 -27q133 0 133 83q0 27 -24.5 43.5t-71.5 16.5z" />
    <glyph glyph-name="Racute" unicode="&#x154;" horiz-adv-x="650" 
d="M633 489q-15 -74 -62 -124t-121 -70l131 -295h-136l-117 279h-123l-54 -279h-124l136 700h244q112 0 171.5 -41t59.5 -121q0 -21 -5 -49zM507 489q3 15 3 28q0 79 -123 79h-121l-41 -213h121q73 0 111.5 25.5t49.5 80.5zM527 877l-185 -129l-40 51l170 143z" />
    <glyph glyph-name="racute" unicode="&#x155;" horiz-adv-x="388" 
d="M426 528l-19 -98q-20 2 -42 2q-45 0 -88.5 -21t-73.5 -57l-68 -354h-118l100 518h118l-12 -63q70 75 171 75q12 0 32 -2zM414 703l-185 -129l-40 51l170 143z" />
    <glyph glyph-name="Rcommaaccent" unicode="&#x156;" horiz-adv-x="650" 
d="M633 489q-15 -74 -62 -124t-121 -70l131 -295h-136l-117 279h-123l-54 -279h-124l136 700h244q112 0 171.5 -41t59.5 -121q0 -21 -5 -49zM507 489q3 15 3 28q0 79 -123 79h-121l-41 -213h121q73 0 111.5 25.5t49.5 80.5zM149 -243l97 201l83 -30l-115 -195z" />
    <glyph glyph-name="rcommaaccent" unicode="&#x157;" horiz-adv-x="388" 
d="M426 528l-19 -98q-20 2 -42 2q-45 0 -88.5 -21t-73.5 -57l-68 -354h-118l100 518h118l-12 -63q70 75 171 75q12 0 32 -2zM-64 -243l96 201l83 -30l-115 -195z" />
    <glyph glyph-name="Rcaron" unicode="&#x158;" horiz-adv-x="650" 
d="M633 489q-15 -74 -62 -124t-121 -70l131 -295h-136l-117 279h-123l-54 -279h-124l136 700h244q112 0 171.5 -41t59.5 -121q0 -21 -5 -49zM507 489q3 15 3 28q0 79 -123 79h-121l-41 -213h121q73 0 111.5 25.5t49.5 80.5zM407 842l129 97l44 -44l-155 -135h-68l-103 135
l62 44z" />
    <glyph glyph-name="rcaron" unicode="&#x159;" horiz-adv-x="388" 
d="M426 528l-19 -98q-20 2 -42 2q-45 0 -88.5 -21t-73.5 -57l-68 -354h-118l100 518h118l-12 -63q70 75 171 75q12 0 32 -2zM292 668l129 97l45 -44l-156 -135h-68l-102 135l61 44z" />
    <glyph glyph-name="Sacute" unicode="&#x15a;" horiz-adv-x="612" 
d="M286 94q66 0 106 32.5t40 82.5q0 35 -32 57t-114 46q-92 27 -134 67.5t-42 100.5q0 102 75.5 167t195.5 65q154 0 228 -111l-99 -66q-52 71 -141 71q-62 0 -95.5 -27t-33.5 -73q0 -30 27.5 -51.5t95.5 -41.5q104 -31 151.5 -71.5t47.5 -105.5q0 -111 -82 -179.5
t-208 -68.5q-181 0 -268 123l104 70q62 -87 178 -87zM542 877l-185 -129l-40 51l170 143z" />
    <glyph glyph-name="sacute" unicode="&#x15b;" horiz-adv-x="511" 
d="M462 703l-185 -129l-40 51l170 143zM77 361q0 74 62 121.5t160 47.5q127 0 192 -82l-91 -64q-36 50 -110 50q-84 0 -84 -55q0 -18 22.5 -32.5t82.5 -33.5q72 -22 107.5 -55t35.5 -83q0 -84 -65 -135.5t-171 -51.5q-154 0 -223 100l95 66q55 -70 137 -70q98 0 98 68
q0 23 -21.5 38t-76.5 31q-82 24 -116 56t-34 84z" />
    <glyph glyph-name="Scircumflex" unicode="&#x15c;" horiz-adv-x="612" 
d="M286 94q66 0 106 32.5t40 82.5q0 35 -32 57t-114 46q-92 27 -134 67.5t-42 100.5q0 102 75.5 167t195.5 65q154 0 228 -111l-99 -66q-52 71 -141 71q-62 0 -95.5 -27t-33.5 -73q0 -30 27.5 -51.5t95.5 -41.5q104 -31 151.5 -71.5t47.5 -105.5q0 -111 -82 -179.5
t-208 -68.5q-181 0 -268 123l104 70q62 -87 178 -87zM505 748l-91 97l-129 -97l-45 44l156 135h68l102 -135z" />
    <glyph glyph-name="scircumflex" unicode="&#x15d;" horiz-adv-x="511" 
d="M419 574l-91 97l-129 -97l-44 44l155 135h68l103 -135zM77 361q0 74 62 121.5t160 47.5q127 0 192 -82l-91 -64q-36 50 -110 50q-84 0 -84 -55q0 -18 22.5 -32.5t82.5 -33.5q72 -22 107.5 -55t35.5 -83q0 -84 -65 -135.5t-171 -51.5q-154 0 -223 100l95 66
q55 -70 137 -70q98 0 98 68q0 23 -21.5 38t-76.5 31q-82 24 -116 56t-34 84z" />
    <glyph glyph-name="Scedilla" unicode="&#x15e;" horiz-adv-x="612" 
d="M205 -168q24 0 40 11t16 31q0 38 -76 40l-5 9l44 68q-147 14 -220 120l104 70q62 -87 178 -87q66 0 106 32.5t40 82.5q0 35 -32 57t-114 46q-92 27 -134 67.5t-42 100.5q0 102 75.5 167t195.5 65q154 0 228 -111l-99 -66q-52 71 -141 71q-62 0 -95.5 -27t-33.5 -73
q0 -30 27.5 -51.5t95.5 -41.5q104 -31 151.5 -71.5t47.5 -105.5q0 -102 -71 -169t-181 -77l-24 -35q65 -18 65 -75q0 -46 -41 -82t-111 -36q-60 0 -99 37l55 53q18 -20 50 -20z" />
    <glyph glyph-name="scedilla" unicode="&#x15f;" horiz-adv-x="511" 
d="M77 361q0 74 62 121.5t160 47.5q127 0 192 -82l-91 -64q-36 50 -110 50q-84 0 -84 -55q0 -18 22.5 -32.5t82.5 -33.5q72 -22 107.5 -55t35.5 -83q0 -75 -52 -124.5t-140 -59.5l-23 -36q65 -18 65 -75q0 -46 -41 -82t-111 -36q-60 0 -99 37l55 53q18 -20 50 -20
q24 0 40 11t16 31q0 38 -76 40l-5 9l44 67q-123 12 -182 98l95 66q55 -70 137 -70q98 0 98 68q0 23 -21.5 38t-76.5 31q-82 24 -116 56t-34 84z" />
    <glyph glyph-name="Scaron" unicode="&#x160;" horiz-adv-x="612" 
d="M286 94q66 0 106 32.5t40 82.5q0 35 -32 57t-114 46q-92 27 -134 67.5t-42 100.5q0 102 75.5 167t195.5 65q154 0 228 -111l-99 -66q-52 71 -141 71q-62 0 -95.5 -27t-33.5 -73q0 -30 27.5 -51.5t95.5 -41.5q104 -31 151.5 -71.5t47.5 -105.5q0 -111 -82 -179.5
t-208 -68.5q-181 0 -268 123l104 70q62 -87 178 -87zM406 842l129 97l44 -44l-155 -135h-68l-103 135l62 44z" />
    <glyph glyph-name="scaron" unicode="&#x161;" horiz-adv-x="511" 
d="M326 668l129 97l45 -44l-156 -135h-68l-102 135l61 44zM77 361q0 74 62 121.5t160 47.5q127 0 192 -82l-91 -64q-36 50 -110 50q-84 0 -84 -55q0 -18 22.5 -32.5t82.5 -33.5q72 -22 107.5 -55t35.5 -83q0 -84 -65 -135.5t-171 -51.5q-154 0 -223 100l95 66
q55 -70 137 -70q98 0 98 68q0 23 -21.5 38t-76.5 31q-82 24 -116 56t-34 84z" />
    <glyph glyph-name="Tcommaaccent" unicode="&#x162;" horiz-adv-x="582" 
d="M179 0l115 596h-210l21 104h544l-21 -104h-210l-115 -596h-15l-31 -45q65 -18 65 -75q0 -46 -41 -82t-111 -36q-60 0 -99 37l55 53q18 -20 50 -20q24 0 40 11t16 31q0 38 -76 40l-5 9l51 77h-23z" />
    <glyph glyph-name="tcommaaccent" unicode="&#x163;" horiz-adv-x="375" 
d="M107 -168q24 0 40 11t16 31q0 38 -76 40l-5 9l53 82q-54 28 -54 105q0 29 7 63l49 251h-91l18 94h91l30 155h118l-30 -155h124l-18 -94h-124l-50 -255q-4 -24 -4 -31q0 -28 16 -41t53 -13q31 0 43 1l-18 -94q-30 -3 -64 -3q-14 0 -21 1l-22 -34q65 -18 65 -75
q0 -46 -41 -82t-111 -36q-60 0 -99 37l55 53q18 -20 50 -20z" />
    <glyph glyph-name="Tcaron" unicode="&#x164;" horiz-adv-x="582" 
d="M179 0l115 596h-210l21 104h544l-21 -104h-210l-115 -596h-124zM404 842l129 97l44 -44l-155 -135h-68l-103 135l43 44z" />
    <glyph glyph-name="tcaron" unicode="&#x165;" horiz-adv-x="515" 
d="M231 -12q-78 0 -114 29t-36 93q0 29 7 63l49 251h-91l18 94h91l30 155h118l-30 -155h124l-18 -94h-124l-50 -255q-4 -24 -4 -31q0 -28 16 -41t53 -13q31 0 43 1l-18 -94q-30 -3 -64 -3zM414 500l114 242l87 -31l-136 -231z" />
    <glyph glyph-name="Tbar" unicode="&#x166;" horiz-adv-x="582" 
d="M254 386l40 210h-210l21 104h544l-21 -104h-210l-40 -210h144l-15 -76h-144l-60 -310h-124l60 310h-144l15 76h144z" />
    <glyph glyph-name="tbar" unicode="&#x167;" horiz-adv-x="375" 
d="M45 324h72l20 100h-91l18 94h91l30 155h118l-30 -155h124l-18 -94h-124l-20 -100h106l-14 -73h-106l-16 -82q-4 -24 -4 -31q0 -28 16 -41t53 -13q31 0 43 1l-18 -94q-30 -3 -64 -3q-78 0 -114 29t-36 93q0 29 7 63l15 78h-72z" />
    <glyph glyph-name="Utilde" unicode="&#x168;" horiz-adv-x="732" 
d="M313 -12q132 0 225 74.5t121 215.5l82 422h-124l-82 -422q-36 -184 -201 -184q-136 0 -136 124q0 22 7 60l82 422h-124l-82 -422q-8 -37 -8 -77q0 -104 63.5 -158.5t176.5 -54.5zM372 784l-72 10q42 115 127 115q40 0 74 -28q24 -20 43 -20q28 0 43 42l72 -10
q-42 -115 -127 -115q-37 0 -68.5 24t-48.5 24q-28 0 -43 -42z" />
    <glyph glyph-name="utilde" unicode="&#x169;" horiz-adv-x="598" 
d="M246 -12q-94 0 -146 42t-52 126q0 29 6 62l58 300h118l-58 -301q-4 -19 -4 -39q0 -47 26 -70.5t71 -23.5q53 0 93 34t52 99l58 301h118l-58 -300q-22 -114 -96.5 -172t-185.5 -58zM271 610l-72 10q42 115 127 115q40 0 74 -28q24 -20 43 -20q28 0 43 42l72 -10
q-42 -115 -127 -115q-37 0 -68.5 24t-48.5 24q-28 0 -43 -42z" />
    <glyph glyph-name="Umacron" unicode="&#x16a;" horiz-adv-x="732" 
d="M313 -12q132 0 225 74.5t121 215.5l82 422h-124l-82 -422q-36 -184 -201 -184q-136 0 -136 124q0 22 7 60l82 422h-124l-82 -422q-8 -37 -8 -77q0 -104 63.5 -158.5t176.5 -54.5zM322 801l16 80h298l-16 -80h-298z" />
    <glyph glyph-name="umacron" unicode="&#x16b;" horiz-adv-x="598" 
d="M246 -12q-94 0 -146 42t-52 126q0 29 6 62l58 300h118l-58 -301q-4 -19 -4 -39q0 -47 26 -70.5t71 -23.5q53 0 93 34t52 99l58 301h118l-58 -300q-22 -114 -96.5 -172t-185.5 -58zM221 627l16 80h298l-16 -80h-298z" />
    <glyph glyph-name="Ubreve" unicode="&#x16c;" horiz-adv-x="732" 
d="M313 -12q-113 0 -176.5 54.5t-63.5 158.5q0 40 8 77l82 422h124l-82 -422q-7 -38 -7 -60q0 -124 136 -124q165 0 201 184l82 422h124l-82 -422q-28 -141 -121 -215.5t-225 -74.5zM464 763q-65 0 -98.5 36.5t-37.5 100.5l80 18q7 -79 71 -79q62 0 101 79l72 -18
q-27 -64 -75 -100.5t-113 -36.5z" />
    <glyph glyph-name="ubreve" unicode="&#x16d;" horiz-adv-x="598" 
d="M246 -12q-94 0 -146 42t-52 126q0 29 6 62l58 300h118l-58 -301q-4 -19 -4 -39q0 -47 26 -70.5t71 -23.5q53 0 93 34t52 99l58 301h118l-58 -300q-22 -114 -96.5 -172t-185.5 -58zM363 591q-65 0 -98.5 36.5t-36.5 100.5l80 18q7 -79 70 -79t102 79l72 -18
q-28 -64 -76 -100.5t-113 -36.5z" />
    <glyph glyph-name="Uring" unicode="&#x16e;" horiz-adv-x="732" 
d="M313 -12q132 0 225 74.5t121 215.5l82 422h-124l-82 -422q-36 -184 -201 -184q-136 0 -136 124q0 22 7 60l82 422h-124l-82 -422q-8 -37 -8 -77q0 -104 63.5 -158.5t176.5 -54.5zM589 843q-8 -45 -46 -76t-84 -31q-41 0 -66.5 24.5t-25.5 62.5q0 51 40.5 89t92.5 38
q40 0 65.5 -24t25.5 -62q0 -7 -2 -21zM439 843q-1 -3 -1 -9q0 -15 9 -24t24 -9q20 0 34.5 15t14.5 37q0 14 -8.5 23t-23.5 9q-17 0 -31 -11.5t-18 -30.5z" />
    <glyph glyph-name="uring" unicode="&#x16f;" horiz-adv-x="598" 
d="M246 -12q-94 0 -146 42t-52 126q0 29 6 62l58 300h118l-58 -301q-4 -19 -4 -39q0 -47 26 -70.5t71 -23.5q53 0 93 34t52 99l58 301h118l-58 -300q-22 -114 -96.5 -172t-185.5 -58zM489 669q-9 -45 -47 -76t-84 -31q-41 0 -66 24t-25 62q0 51 40 89.5t92 38.5
q41 0 66.5 -24.5t25.5 -62.5q0 -6 -2 -20zM339 669q-1 -4 -1 -10q0 -32 32 -32q20 0 35 14.5t15 36.5q0 15 -9 24t-24 9q-18 0 -31.5 -12t-16.5 -30z" />
    <glyph glyph-name="Uhungarumlaut" unicode="&#x170;" horiz-adv-x="732" 
d="M313 -12q132 0 225 74.5t121 215.5l82 422h-124l-82 -422q-36 -184 -201 -184q-136 0 -136 124q0 22 7 60l82 422h-124l-82 -422q-8 -37 -8 -77q0 -104 63.5 -158.5t176.5 -54.5zM661 936l56 -64l-180 -130l-47 50zM467 936l60 -61l-152 -133l-48 48z" />
    <glyph glyph-name="uhungarumlaut" unicode="&#x171;" horiz-adv-x="598" 
d="M246 -12q-94 0 -146 42t-52 126q0 29 6 62l58 300h118l-58 -301q-4 -19 -4 -39q0 -47 26 -70.5t71 -23.5q53 0 93 34t52 99l58 301h118l-58 -300q-22 -114 -96.5 -172t-185.5 -58zM547 762l55 -64l-180 -130l-46 50zM353 762l59 -61l-152 -133l-48 48z" />
    <glyph glyph-name="Uogonek" unicode="&#x172;" horiz-adv-x="732" 
d="M81 278l82 422h124l-82 -422q-7 -38 -7 -60q0 -124 136 -124q165 0 201 184l82 422h124l-82 -422q-24 -125 -101 -198t-188 -88q-70 -50 -70 -104q0 -34 35 -34q26 0 48 20l35 -53q-53 -40 -116 -40q-45 0 -70.5 23t-25.5 59q0 33 20 66.5t53 59.5q-97 8 -151.5 62
t-54.5 150q0 32 8 77z" />
    <glyph glyph-name="uogonek" unicode="&#x173;" horiz-adv-x="598" 
d="M528 218q-18 -94 -72.5 -150.5t-136.5 -72.5q-75 -54 -75 -107q0 -34 35 -34q26 0 48 20l35 -53q-53 -40 -116 -40q-45 0 -70.5 23t-25.5 59q0 67 73 126q-84 5 -130 46.5t-46 120.5q0 30 7 62l58 300h118l-58 -301q-4 -19 -4 -39q0 -47 26 -70.5t71 -23.5q53 0 93 34
t52 99l58 301h118z" />
    <glyph glyph-name="Wcircumflex" unicode="&#x174;" horiz-adv-x="1014" 
d="M527 700h132l31 -535l262 535h129l-342 -700h-154l-30 508l-226 -508h-154l-70 700h129l54 -535zM712 748l-91 97l-129 -97l-45 44l156 135h68l102 -135z" />
    <glyph glyph-name="wcircumflex" unicode="&#x175;" horiz-adv-x="820" 
d="M407 518h106l38 -367l182 367h123l-270 -518h-120l-37 357l-175 -357h-120l-70 518h124l39 -367zM581 574l-91 97l-129 -97l-44 44l155 135h68l103 -135z" />
    <glyph glyph-name="Ycircumflex" unicode="&#x176;" horiz-adv-x="634" 
d="M329 0h-124l53 276l-158 424h134l109 -308l229 308h134l-324 -424zM522 748l-91 97l-129 -97l-45 44l156 135h68l102 -135z" />
    <glyph glyph-name="ycircumflex" unicode="&#x177;" horiz-adv-x="546" 
d="M50 -212l122 216l-108 514h121l74 -361l202 361h121l-411 -730h-121zM450 574l-91 97l-129 -97l-44 44l155 135h68l103 -135z" />
    <glyph glyph-name="Ydieresis" unicode="&#x178;" horiz-adv-x="634" 
d="M329 0h-124l53 276l-158 424h134l109 -308l229 308h134l-324 -424zM265 841q5 26 27 44.5t48 18.5q23 0 37.5 -14.5t14.5 -36.5q0 -30 -23.5 -52.5t-52.5 -22.5q-23 0 -37.5 14.5t-14.5 36.5q0 8 1 12zM469 841q5 26 27 44.5t48 18.5q23 0 37.5 -14.5t14.5 -36.5
q0 -30 -23.5 -52.5t-52.5 -22.5q-23 0 -37.5 14.5t-14.5 36.5q0 8 1 12z" />
    <glyph glyph-name="Zacute" unicode="&#x179;" horiz-adv-x="579" 
d="M0 99l453 496h-338l21 105h488l-20 -99l-453 -496h367l-20 -105h-517zM544 877l-185 -129l-40 51l170 143z" />
    <glyph glyph-name="zacute" unicode="&#x17a;" horiz-adv-x="476" 
d="M-26 0l17 90l339 334h-258l18 94h402l-17 -90l-339 -334h284l-18 -94h-428zM458 703l-185 -129l-40 51l170 143z" />
    <glyph glyph-name="Zdotaccent" unicode="&#x17b;" horiz-adv-x="579" 
d="M0 99l453 496h-338l21 105h488l-20 -99l-453 -496h367l-20 -105h-517zM339 841q5 26 27 44.5t48 18.5q23 0 37.5 -14.5t14.5 -36.5q0 -30 -23.5 -52.5t-52.5 -22.5q-23 0 -37.5 14.5t-14.5 36.5q0 8 1 12z" />
    <glyph glyph-name="zdotaccent" unicode="&#x17c;" horiz-adv-x="476" 
d="M-26 0l17 90l339 334h-258l18 94h402l-17 -90l-339 -334h284l-18 -94h-428zM257 667q5 26 27 44.5t48 18.5q23 0 37.5 -14.5t14.5 -36.5q0 -30 -23.5 -52.5t-52.5 -22.5q-23 0 -37.5 14.5t-14.5 36.5q0 8 1 12z" />
    <glyph glyph-name="Zcaron" unicode="&#x17d;" horiz-adv-x="579" 
d="M0 99l453 496h-338l21 105h488l-20 -99l-453 -496h367l-20 -105h-517zM407 842l129 97l44 -44l-155 -135h-68l-103 135l62 44z" />
    <glyph glyph-name="zcaron" unicode="&#x17e;" horiz-adv-x="476" 
d="M-26 0l17 90l339 334h-258l18 94h402l-17 -90l-339 -334h284l-18 -94h-428zM325 668l129 97l45 -44l-156 -135h-68l-102 135l61 44z" />
    <glyph glyph-name="longs" unicode="&#x17f;" horiz-adv-x="372" 
d="M379 730q42 0 70 -4l-18 -93q-25 3 -53 3q-46 0 -67.5 -19t-29.5 -60l-108 -557h-118l82 424h-91l18 94h91l9 45q17 87 68.5 127t146.5 40z" />
    <glyph glyph-name="uni0191" unicode="&#x191;" horiz-adv-x="548" 
d="M206 288l-61 -317q-20 -102 -73.5 -148.5t-157.5 -46.5q-29 0 -47 3l18 94q13 -1 44 -1q40 0 60 20.5t29 65.5l145 742h452l-21 -104h-328l-39 -204h293l-21 -104h-293z" />
    <glyph glyph-name="florin" unicode="&#x192;" horiz-adv-x="372" 
d="M379 730q42 0 70 -4l-18 -93q-25 3 -53 3q-46 0 -67 -19t-30 -60l-8 -39h125l-18 -94h-125l-94 -482q-17 -87 -68.5 -127t-145.5 -40q-42 0 -69 4l18 93q24 -3 52 -3q45 0 66.5 19t29.5 60l93 476h-91l18 94h91l9 45q17 87 68.5 127t146.5 40z" />
    <glyph glyph-name="Aringacute" unicode="&#x1fa;" horiz-adv-x="698" 
d="M552 738q-7 -39 -40 -70l117 -668h-133l-24 160h-285l-85 -160h-133l374 668q-13 20 -13 48q0 52 40.5 90.5t92.5 38.5q40 0 65.5 -24t25.5 -62q0 -7 -2 -21zM411 579l-168 -315h214zM407 902l154 103l39 -64l-164 -87zM402 738q-1 -4 -1 -10q0 -14 9 -23t24 -9
q19 0 34 15t15 37q0 14 -9 23t-24 9q-17 0 -30.5 -11.5t-17.5 -30.5z" />
    <glyph glyph-name="aringacute" unicode="&#x1fb;" horiz-adv-x="609" 
d="M44 259q-8 -39 -8 -81q0 -90 46 -140t133 -50q91 0 168 62l-9 -50h118l100 518h-118l-10 -50q-52 62 -143 62q-106 0 -179.5 -73t-97.5 -198zM332 433q34 0 65.5 -14.5t49.5 -40.5l-46 -238q-60 -55 -137 -55q-107 0 -107 113q0 106 49 170.5t126 64.5zM499 669
q-9 -45 -47 -76t-84 -31q-41 0 -66 24t-25 62q0 51 40 89.5t92 38.5q41 0 66.5 -24.5t25.5 -62.5q0 -6 -2 -20zM349 669q-1 -4 -1 -10q0 -32 32 -32q20 0 35 14.5t15 36.5q0 15 -9 24t-24 9q-18 0 -31.5 -12t-16.5 -30zM353 833l154 103l40 -64l-165 -87z" />
    <glyph glyph-name="AEacute" unicode="&#x1fc;" horiz-adv-x="892" 
d="M802 0h-408l30 158h-212l-109 -158h-135l497 700h464l-21 -104h-275l-35 -184h240l-21 -104h-240l-39 -204h284zM506 581l-222 -319h160zM807 877l-185 -129l-40 51l170 143z" />
    <glyph glyph-name="aeacute" unicode="&#x1fd;" horiz-adv-x="910" 
d="M228 84q84 0 153 57q-6 19 -6 41q-46 48 -119 48q-53 0 -87 -22.5t-34 -65.5q0 -58 93 -58zM598 -12q-127 0 -185 81q-102 -81 -229 -81q-79 0 -124.5 37.5t-45.5 98.5q0 86 68 144t163 58q93 0 142 -52l10 51q3 17 3 32q0 76 -100 76q-73 0 -142 -48l-54 68
q104 77 232 77q125 0 164 -77q84 77 208 77q89 0 140 -39.5t51 -101.5q0 -85 -70 -139.5t-181 -54.5q-94 0 -154 39q-2 -10 -2 -28q0 -56 33.5 -89t90.5 -33q74 0 142 66l71 -59q-97 -103 -231 -103zM686 434q-115 0 -168 -116q57 -27 131 -27q133 0 133 83q0 27 -24.5 43.5
t-71.5 16.5zM703 703l-185 -129l-40 51l170 143z" />
    <glyph glyph-name="Oslashacute" unicode="&#x1fe;" horiz-adv-x="730" 
d="M19 2l80 86q-48 68 -48 168q0 122 52 226.5t145 167t205 62.5q103 0 170 -54l75 80l48 -40l-80 -87q48 -71 48 -172q0 -121 -52.5 -224.5t-145.5 -165t-204 -61.5q-104 0 -171 54l-74 -80zM187 350q-9 -44 -9 -81q0 -44 13 -81l349 378q-40 40 -108 40q-90 0 -156.5 -69
t-88.5 -187zM579 350q8 45 8 78q0 44 -13 83l-349 -378q41 -39 108 -39q90 0 156.5 69t89.5 187zM620 877l-185 -129l-40 51l170 143z" />
    <glyph glyph-name="oslashacute" unicode="&#x1ff;" horiz-adv-x="592" 
d="M10 -2l60 64q-39 51 -39 129q0 146 92.5 242.5t225.5 96.5q74 0 126 -32l58 62l49 -40l-61 -64q40 -52 40 -131q0 -145 -93.5 -241t-224.5 -96q-77 0 -127 32l-58 -62zM158 259q-6 -30 -6 -56q0 -27 6 -46l239 257q-26 20 -67 20q-65 0 -110.5 -47t-61.5 -128zM434 259
q6 29 6 54q0 18 -6 48l-240 -258q27 -19 68 -19q65 0 110.5 47t61.5 128zM513 703l-185 -129l-40 51l170 143z" />
    <glyph glyph-name="Scommaaccent" unicode="&#x218;" horiz-adv-x="612" 
d="M286 94q66 0 106 32.5t40 82.5q0 35 -32 57t-114 46q-92 27 -134 67.5t-42 100.5q0 102 75.5 167t195.5 65q154 0 228 -111l-99 -66q-52 71 -141 71q-62 0 -95.5 -27t-33.5 -73q0 -30 27.5 -51.5t95.5 -41.5q104 -31 151.5 -71.5t47.5 -105.5q0 -111 -82 -179.5
t-208 -68.5q-181 0 -268 123l104 70q62 -87 178 -87zM139 -243l97 201l83 -30l-115 -195z" />
    <glyph glyph-name="scommaaccent" unicode="&#x219;" horiz-adv-x="511" 
d="M92 -243l97 201l83 -30l-115 -195zM77 361q0 74 62 121.5t160 47.5q127 0 192 -82l-91 -64q-36 50 -110 50q-84 0 -84 -55q0 -18 22.5 -32.5t82.5 -33.5q72 -22 107.5 -55t35.5 -83q0 -84 -65 -135.5t-171 -51.5q-154 0 -223 100l95 66q55 -70 137 -70q98 0 98 68
q0 23 -21.5 38t-76.5 31q-82 24 -116 56t-34 84z" />
    <glyph glyph-name="uni021A" unicode="&#x21a;" horiz-adv-x="582" 
d="M179 0l115 596h-210l21 104h544l-21 -104h-210l-115 -596h-124zM97 -243l97 201l83 -30l-115 -195z" />
    <glyph glyph-name="uni021B" unicode="&#x21b;" horiz-adv-x="375" 
d="M231 -12q-78 0 -114 29t-36 93q0 29 7 63l49 251h-91l18 94h91l30 155h118l-30 -155h124l-18 -94h-124l-50 -255q-4 -24 -4 -31q0 -28 16 -41t53 -13q31 0 43 1l-18 -94q-30 -3 -64 -3zM41 -243l97 201l83 -30l-115 -195z" />
    <glyph glyph-name="dotlessj" unicode="&#x237;" horiz-adv-x="262" 
d="M-97 -224q-29 0 -47 3l18 94q13 -1 44 -1q43 0 64.5 21t30.5 65l109 560h118l-106 -547q-20 -102 -73.5 -148.5t-157.5 -46.5z" />
    <glyph glyph-name="apostrophe" unicode="&#x2bc;" horiz-adv-x="396" 
d="M166 508l114 242l87 -31l-136 -231z" />
    <glyph glyph-name="circumflex" unicode="&#x2c6;" horiz-adv-x="396" 
d="M365 554l-91 97l-129 -97l-44 44l155 135h68l103 -135z" />
    <glyph glyph-name="caron" unicode="&#x2c7;" horiz-adv-x="396" 
d="M273 648l129 97l45 -44l-155 -135h-68l-103 135l61 44z" />
    <glyph glyph-name="uni02C9" unicode="&#x2c9;" horiz-adv-x="396" 
d="M116 607l16 80h298l-16 -80h-298z" />
    <glyph glyph-name="breve" unicode="&#x2d8;" horiz-adv-x="396" 
d="M258 571q-65 0 -98.5 36.5t-36.5 100.5l80 18q7 -79 70 -79t102 79l72 -18q-28 -64 -76 -100.5t-113 -36.5z" />
    <glyph glyph-name="dotaccent" unicode="&#x2d9;" horiz-adv-x="396" 
d="M210 647q5 26 27.5 44.5t48.5 18.5q22 0 36.5 -14.5t14.5 -35.5q0 -30 -23 -53t-53 -23q-23 0 -37.5 14.5t-14.5 36.5q0 8 1 12z" />
    <glyph glyph-name="ring" unicode="&#x2da;" horiz-adv-x="396" 
d="M384 649q-9 -45 -47 -76t-84 -31q-41 0 -66 24t-25 62q0 51 40 89.5t92 38.5q41 0 66.5 -24.5t25.5 -62.5q0 -6 -2 -20zM234 649q-1 -4 -1 -10q0 -32 32 -32q19 0 34.5 15t15.5 37q0 14 -9 23t-24 9q-17 0 -30.5 -11.5t-17.5 -30.5z" />
    <glyph glyph-name="ogonek" unicode="&#x2db;" horiz-adv-x="396" 
d="M124 0h86q-82 -56 -82 -112q0 -34 35 -34q26 0 48 20l35 -53q-53 -40 -116 -40q-45 0 -70.5 23t-25.5 59q0 37 25 74t65 63z" />
    <glyph glyph-name="tilde" unicode="&#x2dc;" horiz-adv-x="396" 
d="M167 591l-72 10q42 115 127 115q40 0 74 -28q24 -20 43 -20q28 0 43 42l72 -10q-42 -115 -127 -115q-37 0 -68.5 24t-48.5 24q-28 0 -43 -42z" />
    <glyph glyph-name="hungarumlaut" unicode="&#x2dd;" horiz-adv-x="396" 
d="M411 742l55 -64l-180 -130l-46 50zM217 742l59 -61l-152 -133l-48 48z" />
    <glyph glyph-name="gravecomb" unicode="&#x300;" horiz-adv-x="0" 
d="M-159 554l-135 129l81 65l114 -143z" />
    <glyph glyph-name="acutecomb" unicode="&#x301;" horiz-adv-x="0" 
d="M-45 683l-184 -129l-40 51l170 143z" />
    <glyph glyph-name="uni0302" unicode="&#x302;" horiz-adv-x="0" 
d="M-85 554l-91 97l-129 -97l-44 44l155 135h68l102 -135z" />
    <glyph glyph-name="tildecomb" unicode="&#x303;" horiz-adv-x="0" 
d="M-284 591l-72 10q42 115 127 115q40 0 74 -28q24 -20 43 -20q28 0 43 42l72 -10q-42 -115 -127 -115q-37 0 -68.5 24t-48.5 24q-28 0 -43 -42z" />
    <glyph glyph-name="uni0304" unicode="&#x304;" horiz-adv-x="0" 
d="M-331 607l16 80h297l-16 -80h-297z" />
    <glyph glyph-name="uni0306" unicode="&#x306;" horiz-adv-x="0" 
d="M-192 571q-65 0 -98.5 36.5t-36.5 100.5l80 18q7 -79 70 -79t102 79l71 -18q-60 -137 -188 -137z" />
    <glyph glyph-name="uni0307" unicode="&#x307;" horiz-adv-x="0" 
d="M-240 647q5 26 27.5 44.5t48.5 18.5q22 0 36.5 -14.5t14.5 -35.5q0 -30 -23 -53t-53 -23q-23 0 -37.5 14.5t-14.5 36.5q0 8 1 12z" />
    <glyph glyph-name="uni0308" unicode="&#x308;" horiz-adv-x="0" 
d="M-341 647q5 26 27.5 44.5t48.5 18.5q22 0 36.5 -14.5t14.5 -35.5q0 -30 -23 -53t-53 -23q-23 0 -37.5 14.5t-14.5 36.5q0 8 1 12zM-137 647q5 26 27.5 44.5t48.5 18.5q22 0 36 -14.5t14 -35.5q0 -30 -22.5 -53t-52.5 -23q-23 0 -37.5 14.5t-14.5 36.5q0 8 1 12z" />
    <glyph glyph-name="uni030A" unicode="&#x30a;" horiz-adv-x="0" 
d="M-66 649q-9 -45 -47 -76t-84 -31q-41 0 -66 24t-25 62q0 51 40 89.5t92 38.5q41 0 66.5 -24.5t25.5 -62.5q0 -6 -2 -20zM-216 649q-1 -4 -1 -10q0 -32 32 -32q19 0 34.5 15t15.5 37q0 14 -9 23t-24 9q-17 0 -30.5 -11.5t-17.5 -30.5z" />
    <glyph glyph-name="uni030C" unicode="&#x30c;" horiz-adv-x="0" 
d="M-176 648l128 97l45 -44l-154 -135h-68l-103 135l61 44z" />
    <glyph glyph-name="uni0327" unicode="&#x327;" horiz-adv-x="0" 
d="M-361 -168q24 0 40 11t16 31q0 38 -76 40l-5 9l50 77h86l-30 -45q65 -18 65 -75q0 -46 -41 -82t-111 -36q-60 0 -99 37l55 53q18 -20 50 -20z" />
    <glyph glyph-name="uni03A9" unicode="&#x3a9;" horiz-adv-x="730" 
d="M375 605q-91 0 -143.5 -68.5t-52.5 -170.5q0 -163 143 -264v-102h-261v104h122q-130 98 -130 273q0 146 86 240.5t236 94.5t236 -94.5t86 -240.5q0 -175 -130 -273h122v-104h-261v102q143 101 143 264q0 102 -52.5 170.5t-143.5 68.5z" />
    <glyph glyph-name="uni0400" unicode="&#x400;" horiz-adv-x="578" 
d="M27 0l136 700h452l-21 -104h-328l-35 -184h293l-21 -104h-293l-39 -204h337l-20 -104h-461zM432 748l-135 129l81 65l114 -143z" />
    <glyph glyph-name="afii10023" unicode="&#x401;" horiz-adv-x="578" 
d="M27 0l136 700h452l-21 -104h-328l-35 -184h293l-21 -104h-293l-39 -204h337l-20 -104h-461zM255 841q5 26 27 44.5t48 18.5q23 0 37.5 -14.5t14.5 -36.5q0 -30 -23.5 -52.5t-52.5 -22.5q-23 0 -37.5 14.5t-14.5 36.5q0 8 1 12zM459 841q5 26 27 44.5t48 18.5
q23 0 37.5 -14.5t14.5 -36.5q0 -30 -23.5 -52.5t-52.5 -22.5q-23 0 -37.5 14.5t-14.5 36.5q0 8 1 12z" />
    <glyph glyph-name="afii10051" unicode="&#x402;" horiz-adv-x="772" 
d="M179 0l115 596h-210l21 104h544l-21 -104h-210l-37 -191q80 52 166 52t134.5 -44.5t48.5 -121.5q0 -123 -81 -207t-201 -84h-24l20 104h15q62 0 101.5 47.5t39.5 111.5q0 90 -99 90q-79 0 -138 -42l-60 -311h-124z" />
    <glyph glyph-name="afii10052" unicode="&#x403;" horiz-adv-x="552" 
d="M548 877l-185 -129l-40 51l170 143zM27 0l136 700h456l-21 -104h-332l-115 -596h-124z" />
    <glyph glyph-name="afii10053" unicode="&#x404;" horiz-adv-x="694" 
d="M200 402h300l-21 -104h-300q-1 -8 -1 -22q0 -88 46.5 -135t124.5 -47q111 0 197 101l92 -55q-55 -71 -137.5 -111.5t-177.5 -40.5q-127 0 -199 73t-72 198q0 97 33.5 182t89.5 144t131.5 93t157.5 34q95 0 161 -40.5t94 -111.5l-112 -55q-48 101 -159 101
q-83 0 -150 -53.5t-98 -150.5z" />
    <glyph glyph-name="afii10054" unicode="&#x405;" horiz-adv-x="612" 
d="M286 94q66 0 106 32.5t40 82.5q0 35 -32 57t-114 46q-92 27 -134 67.5t-42 100.5q0 102 75.5 167t195.5 65q154 0 228 -111l-99 -66q-52 71 -141 71q-62 0 -95.5 -27t-33.5 -73q0 -30 27.5 -51.5t95.5 -41.5q104 -31 151.5 -71.5t47.5 -105.5q0 -111 -82 -179.5
t-208 -68.5q-181 0 -268 123l104 70q62 -87 178 -87z" />
    <glyph glyph-name="afii10055" unicode="&#x406;" horiz-adv-x="288" 
d="M168 700h124l-136 -700h-124z" />
    <glyph glyph-name="afii10056" unicode="&#x407;" horiz-adv-x="288" 
d="M168 700h124l-136 -700h-124zM92 841q5 26 27 44.5t48 18.5q23 0 37.5 -14.5t14.5 -36.5q0 -30 -23.5 -52.5t-52.5 -22.5q-23 0 -37.5 14.5t-14.5 36.5q0 8 1 12zM296 841q5 26 27 44.5t48 18.5q23 0 37.5 -14.5t14.5 -36.5q0 -30 -23.5 -52.5t-52.5 -22.5
q-23 0 -37.5 14.5t-14.5 36.5q0 8 1 12z" />
    <glyph glyph-name="afii10057" unicode="&#x408;" horiz-adv-x="592" 
d="M236 94q60 0 99 40t53 110l89 456h124l-88 -453q-24 -120 -100.5 -189.5t-193.5 -69.5q-82 0 -137.5 37t-78.5 106l111 55q31 -92 122 -92z" />
    <glyph glyph-name="afii10058" unicode="&#x409;" horiz-adv-x="1036" 
d="M724 700l-54 -278h116q99 0 153.5 -43t54.5 -121q0 -116 -82 -187t-208 -71h-240l115 595h-247l-83 -428q-18 -92 -75 -135.5t-159 -43.5q-22 0 -48 2l20 103q22 -3 43 -3q44 0 66 21t31 65l102 524h495zM865 211q3 15 3 27q0 80 -117 80h-102l-41 -214h102
q134 0 155 107z" />
    <glyph glyph-name="afii10059" unicode="&#x40a;" horiz-adv-x="1018" 
d="M652 422h116q99 0 153.5 -43t54.5 -121q0 -116 -82 -187t-208 -71h-240l61 318h-295l-61 -318h-124l136 700h124l-54 -278h295l54 278h124zM847 211q3 15 3 27q0 80 -117 80h-102l-41 -214h102q134 0 155 107z" />
    <glyph glyph-name="afii10060" unicode="&#x40b;" horiz-adv-x="792" 
d="M179 0l115 596h-210l21 104h544l-21 -104h-210l-37 -191q80 52 168 52t134 -42t46 -124q0 -34 -7 -69l-43 -222h-124l40 210q6 29 6 52q0 91 -103 91q-76 0 -135 -42l-60 -311h-124z" />
    <glyph glyph-name="afii10061" unicode="&#x40c;" horiz-adv-x="644" 
d="M690 700l-280 -288l175 -412h-137l-130 317l-132 -136l-35 -181h-124l136 700h124l-67 -344l328 344h142zM583 877l-185 -129l-40 51l170 143z" />
    <glyph glyph-name="uni040D" unicode="&#x40d;" horiz-adv-x="720" 
d="M476 748l-135 129l81 65l114 -143zM163 700l-136 -700h120l418 494l-96 -494h124l136 700h-120l-418 -494l96 494h-124z" />
    <glyph glyph-name="afii10062" unicode="&#x40e;" horiz-adv-x="632" 
d="M337 341l237 359h129l-459 -700h-129l138 211l-150 489h129zM412 763q-65 0 -98.5 36.5t-37.5 100.5l80 18q7 -79 71 -79q62 0 101 79l72 -18q-27 -64 -75 -100.5t-113 -36.5z" />
    <glyph glyph-name="afii10145" unicode="&#x40f;" horiz-adv-x="718" 
d="M171 104h316l116 596h124l-136 -700h-220l-24 -120h-124l24 120h-220l136 700h124z" />
    <glyph glyph-name="afii10017" unicode="&#x410;" horiz-adv-x="698" 
d="M362 700h146l121 -700h-133l-24 160h-285l-85 -160h-133zM411 579l-168 -315h214z" />
    <glyph glyph-name="afii10018" unicode="&#x411;" horiz-adv-x="599" 
d="M163 700h424l-21 -104h-300l-33 -174h116q99 0 153.5 -43t54.5 -121q0 -116 -82 -187t-208 -71h-240zM428 211q3 15 3 27q0 80 -117 80h-102l-41 -214h102q134 0 155 107z" />
    <glyph glyph-name="afii10019" unicode="&#x412;" horiz-adv-x="640" 
d="M27 0l136 700h250q100 0 153.5 -41t53.5 -110q0 -62 -35 -111.5t-95 -68.5q51 -13 78 -46t27 -82q0 -110 -82.5 -175.5t-220.5 -65.5h-265zM266 596l-35 -184h118q141 0 141 116q0 68 -106 68h-118zM171 104h131q166 0 166 126q0 78 -127 78h-131z" />
    <glyph glyph-name="afii10020" unicode="&#x413;" horiz-adv-x="552" 
d="M27 0l136 700h456l-21 -104h-332l-115 -596h-124z" />
    <glyph glyph-name="afii10021" unicode="&#x414;" horiz-adv-x="652" 
d="M602 104l-44 -224h-124l24 120h-366l-24 -120h-123l43 224h62q87 171 148 477l24 119h417l-116 -596h79zM175 104h224l95 492h-169q-56 -287 -150 -492z" />
    <glyph glyph-name="afii10022" unicode="&#x415;" horiz-adv-x="578" 
d="M27 0l136 700h452l-21 -104h-328l-35 -184h293l-21 -104h-293l-39 -204h337l-20 -104h-461z" />
    <glyph glyph-name="afii10024" unicode="&#x416;" horiz-adv-x="941" 
d="M430 369l65 331h123l-65 -331l295 331h139l-261 -284l156 -416h-143l-106 314l-115 -124l-36 -190h-123l36 190l-66 124l-227 -314h-143l316 416l-149 284h139z" />
    <glyph glyph-name="afii10025" unicode="&#x417;" horiz-adv-x="568" 
d="M372 712q87 0 139 -39t52 -107q0 -72 -44.5 -126.5t-104.5 -74.5q107 -35 107 -135q0 -103 -82.5 -172.5t-210.5 -69.5q-165 0 -235 115l99 70q51 -79 147 -79q68 0 111.5 33.5t43.5 92.5q0 46 -38 68.5t-100 22.5h-66l20 104h65q67 0 112 33t45 89q0 33 -23.5 51
t-66.5 18q-86 0 -158 -68l-71 68q115 106 259 106z" />
    <glyph glyph-name="afii10026" unicode="&#x418;" horiz-adv-x="720" 
d="M27 0l136 700h124l-96 -494l418 494h120l-136 -700h-124l96 494l-418 -494h-120z" />
    <glyph glyph-name="afii10027" unicode="&#x419;" horiz-adv-x="720" 
d="M458 763q-65 0 -98.5 36.5t-37.5 100.5l80 18q7 -79 71 -79q62 0 101 79l72 -18q-27 -64 -75 -100.5t-113 -36.5zM27 0l136 700h124l-96 -494l418 494h120l-136 -700h-124l96 494l-418 -494h-120z" />
    <glyph glyph-name="afii10028" unicode="&#x41a;" horiz-adv-x="644" 
d="M690 700l-280 -288l175 -412h-137l-130 317l-132 -136l-35 -181h-124l136 700h124l-67 -344l328 344h142z" />
    <glyph glyph-name="afii10029" unicode="&#x41b;" horiz-adv-x="735" 
d="M608 0h-123l115 595h-268l-74 -381q-24 -122 -76.5 -174t-166.5 -52q-29 0 -48 3l20 102q22 -3 43 -3q44 0 66 21t31 65l102 524h515z" />
    <glyph glyph-name="afii10030" unicode="&#x41c;" horiz-adv-x="864" 
d="M444 127h-76l-124 356l-93 -483h-124l136 700h122l150 -423l316 423h122l-136 -700h-124l93 483z" />
    <glyph glyph-name="afii10031" unicode="&#x41d;" horiz-adv-x="718" 
d="M27 0l136 700h124l-54 -278h316l54 278h124l-136 -700h-124l61 318h-316l-61 -318h-124z" />
    <glyph glyph-name="afii10032" unicode="&#x41e;" horiz-adv-x="730" 
d="M705 350q-31 -157 -137.5 -259.5t-255.5 -102.5q-125 0 -193 74t-68 195q0 122 52 226.5t145 166.5t205 62q125 0 193 -74.5t68 -196.5q0 -45 -9 -91zM579 350q8 45 8 77q0 84 -40.5 131.5t-114.5 47.5q-103 0 -178 -94t-75 -241q0 -84 40.5 -130.5t113.5 -46.5
q90 0 156.5 69t89.5 187z" />
    <glyph glyph-name="afii10033" unicode="&#x41f;" horiz-adv-x="718" 
d="M727 700l-136 -700h-124l115 595h-316l-115 -595h-124l136 700h564z" />
    <glyph glyph-name="afii10034" unicode="&#x420;" horiz-adv-x="613" 
d="M622 475q-21 -110 -104 -167t-211 -57h-108l-48 -251h-124l136 700h232q112 0 172 -43.5t60 -128.5q0 -29 -5 -53zM496 475q3 17 3 31q0 90 -132 90h-101l-46 -241h101q152 0 175 120z" />
    <glyph glyph-name="afii10035" unicode="&#x421;" horiz-adv-x="694" 
d="M61 350q32 162 142.5 262t260.5 100q95 0 161 -40.5t94 -111.5l-112 -55q-48 101 -159 101q-106 0 -187.5 -92t-81.5 -238q0 -87 46 -134.5t124 -47.5q111 0 197 101l92 -55q-55 -71 -137.5 -111.5t-177.5 -40.5q-127 0 -199 73t-72 198q0 43 9 91z" />
    <glyph glyph-name="afii10036" unicode="&#x422;" horiz-adv-x="582" 
d="M179 0l115 596h-210l21 104h544l-21 -104h-210l-115 -596h-124z" />
    <glyph glyph-name="afii10037" unicode="&#x423;" horiz-adv-x="632" 
d="M337 341l237 359h129l-459 -700h-129l138 211l-150 489h129z" />
    <glyph glyph-name="afii10038" unicode="&#x424;" horiz-adv-x="746" 
d="M385 0h-124l19 101q-107 6 -168 57.5t-61 138.5q0 130 93 211.5t233 90.5l20 101h124l-20 -101q108 -7 169 -58.5t61 -139.5q0 -129 -93.5 -210.5t-233.5 -89.5zM480 493l-55 -287q75 3 127.5 50t52.5 126q0 51 -33 79.5t-92 31.5zM301 206l55 287q-76 -3 -128 -50.5
t-52 -126.5q0 -51 33.5 -79.5t91.5 -30.5z" />
    <glyph glyph-name="afii10039" unicode="&#x425;" horiz-adv-x="638" 
d="M435 0l-115 267l-217 -267h-138l298 363l-144 337h138l101 -239l195 239h138l-276 -337l158 -363h-138z" />
    <glyph glyph-name="afii10040" unicode="&#x426;" horiz-adv-x="736" 
d="M171 104h312l116 596h124l-116 -596h79l-44 -224h-123l24 120h-516l136 700h124z" />
    <glyph glyph-name="afii10041" unicode="&#x427;" horiz-adv-x="635" 
d="M508 0h-124l56 292q-77 -51 -167 -51q-88 0 -134.5 41.5t-46.5 122.5q0 34 7 69l44 226h124l-42 -214q-6 -28 -6 -51q0 -46 25.5 -68t79.5 -22q80 0 135 42l61 313h124z" />
    <glyph glyph-name="afii10042" unicode="&#x428;" horiz-adv-x="874" 
d="M171 104h174l116 596h124l-116 -596h174l116 596h124l-136 -700h-720l136 700h124z" />
    <glyph glyph-name="afii10043" unicode="&#x429;" horiz-adv-x="896" 
d="M703 0h-676l136 700h124l-116 -596h174l116 596h124l-116 -596h174l116 596h124l-116 -596h79l-44 -224h-123z" />
    <glyph glyph-name="afii10044" unicode="&#x42a;" horiz-adv-x="703" 
d="M391 700l-54 -278h116q99 0 153.5 -43t54.5 -121q0 -116 -82 -187t-208 -71h-240l115 595h-162l21 105h286zM532 211q3 15 3 27q0 80 -117 80h-102l-41 -214h102q134 0 155 107z" />
    <glyph glyph-name="afii10045" unicode="&#x42b;" horiz-adv-x="840" 
d="M725 700h124l-136 -700h-124zM163 700h124l-54 -278h116q99 0 153.5 -43t54.5 -121q0 -116 -82 -187t-208 -71h-240zM428 211q3 15 3 27q0 80 -117 80h-102l-41 -214h102q134 0 155 107z" />
    <glyph glyph-name="afii10046" unicode="&#x42c;" horiz-adv-x="599" 
d="M163 700h124l-54 -278h116q99 0 153.5 -43t54.5 -121q0 -116 -82 -187t-208 -71h-240zM428 211q3 15 3 27q0 80 -117 80h-102l-41 -214h102q134 0 155 107z" />
    <glyph glyph-name="afii10047" unicode="&#x42d;" horiz-adv-x="698" 
d="M254 402h300v20q0 88 -46 136t-124 48q-111 0 -197 -101l-92 55q55 71 137.5 111.5t177.5 40.5q127 0 199.5 -73t72.5 -198q0 -194 -121.5 -323.5t-291.5 -129.5q-95 0 -161 40.5t-94 111.5l112 55q48 -101 159 -101q83 0 150 53t98 151h-300z" />
    <glyph glyph-name="afii10048" unicode="&#x42e;" horiz-adv-x="874" 
d="M444 350q-13 -64 -13 -116q0 -140 102 -140q138 0 189 256q12 64 12 114q0 142 -102 142q-139 0 -188 -256zM229 402h100q38 142 120.5 226t203.5 84q106 0 157.5 -64.5t51.5 -176.5q0 -51 -13 -121q-32 -163 -118.5 -262.5t-218.5 -99.5q-105 0 -157 64.5t-52 175.5
q0 29 5 69h-100l-57 -297h-124l136 700h124z" />
    <glyph glyph-name="afii10049" unicode="&#x42f;" horiz-adv-x="650" 
d="M107 489q20 102 103 156.5t205 54.5h244l-136 -700h-123l54 279h-124l-225 -279h-136l246 297q-113 40 -113 147q0 18 5 45zM232 489q-3 -15 -3 -28q0 -81 126 -81h118l43 219h-118q-145 0 -166 -110z" />
    <glyph glyph-name="afii10065" unicode="&#x430;" horiz-adv-x="609" 
d="M44 259q24 125 97.5 198t179.5 73q91 0 143 -62l10 50h118l-100 -518h-118l9 50q-77 -62 -168 -62q-87 0 -133 50t-46 140q0 42 8 81zM332 433q-77 0 -126 -64.5t-49 -170.5q0 -113 107 -113q77 0 137 55l46 238q-18 26 -49.5 40.5t-65.5 14.5z" />
    <glyph glyph-name="afii10066" unicode="&#x431;" horiz-adv-x="574" 
d="M368 499q80 0 125.5 -47.5t45.5 -133.5q0 -148 -85.5 -239t-206.5 -91q-99 0 -149.5 58t-50.5 163q0 52 12 112q39 200 167 302.5t386 117.5l-30 -96q-145 -7 -240 -59t-131 -141q64 54 157 54zM180 339q-14 -76 -14 -122q0 -133 101 -133q61 0 106 59.5t45 152.5
q0 51 -23.5 79t-66.5 28q-82 0 -148 -64z" />
    <glyph glyph-name="afii10067" unicode="&#x432;" horiz-adv-x="537" 
d="M237 0h-220l100 518h210q171 0 171 -109q0 -49 -24.5 -84t-64.5 -50q72 -25 72 -96q0 -84 -63 -131.5t-181 -47.5zM379 369q1 5 1 14q0 41 -75 41h-88l-22 -111h88q86 0 96 56zM361 158q2 12 2 16q0 50 -85 50h-100l-25 -130h100q96 0 108 64z" />
    <glyph glyph-name="afii10068" unicode="&#x433;" horiz-adv-x="462" 
d="M475 424h-258l-82 -424h-118l100 518h376z" />
    <glyph glyph-name="afii10069" unicode="&#x434;" horiz-adv-x="588" 
d="M536 94l-40 -204h-118l22 110h-313l-22 -110h-117l39 204h64q70 140 102 303l23 121h366l-82 -424h76zM170 94h172l64 330h-130l-13 -64q-28 -136 -93 -266z" />
    <glyph glyph-name="afii10070" unicode="&#x435;" horiz-adv-x="567" 
d="M273 84q74 0 142 66l71 -59q-97 -103 -231 -103q-103 0 -163 56.5t-60 152.5q0 136 93 234.5t240 98.5q89 0 140 -39.5t51 -101.5q0 -85 -70 -139.5t-181 -54.5q-94 0 -154 39q-2 -14 -2 -28q0 -56 33.5 -89t90.5 -33zM343 434q-115 0 -168 -116q57 -27 131 -27
q133 0 133 83q0 27 -24.5 43.5t-71.5 16.5z" />
    <glyph glyph-name="afii10072" unicode="&#x436;" horiz-adv-x="799" 
d="M390 518h118l-45 -232l219 232h136l-202 -200l128 -318h-128l-88 231l-94 -93l-26 -138h-118l26 138l-58 93l-175 -231h-129l250 318l-124 200h136l129 -232z" />
    <glyph glyph-name="afii10073" unicode="&#x437;" horiz-adv-x="502" 
d="M273 438q-67 0 -132 -47l-60 62q98 77 217 77q79 0 126 -31.5t47 -85.5q0 -51 -31 -87.5t-80 -55.5q83 -26 83 -102q0 -78 -69.5 -129.5t-180.5 -51.5q-140 0 -213 82l86 66q58 -56 140 -56q53 0 85 22t32 59q0 32 -31.5 49t-83.5 17h-63l17 87h56q56 0 93 20.5t37 55.5
q0 23 -20 36t-55 13z" />
    <glyph glyph-name="afii10074" unicode="&#x438;" horiz-adv-x="618" 
d="M501 0h-118l67 349l-316 -349h-117l100 518h118l-68 -349l317 349h117z" />
    <glyph glyph-name="afii10075" unicode="&#x439;" horiz-adv-x="618" 
d="M501 0h-118l67 349l-316 -349h-117l100 518h118l-68 -349l317 349h117zM373 591q-65 0 -98.5 36.5t-36.5 100.5l80 18q7 -79 70 -79t102 79l72 -18q-28 -64 -76 -100.5t-113 -36.5z" />
    <glyph glyph-name="afii10076" unicode="&#x43a;" horiz-adv-x="553" 
d="M117 518h118l-45 -231l245 231h137l-215 -200l141 -318h-130l-99 236l-108 -102l-26 -134h-118z" />
    <glyph glyph-name="afii10077" unicode="&#x43b;" horiz-adv-x="618" 
d="M190 518h411l-100 -518h-118l82 423h-175l-50 -256q-19 -94 -72 -136.5t-153 -42.5q-29 0 -48 3l18 96q24 -3 44 -3q42 0 63.5 21.5t30.5 65.5z" />
    <glyph glyph-name="afii10078" unicode="&#x43c;" horiz-adv-x="724" 
d="M302 108l-104 221l-63 -329h-118l100 518h113l128 -281l236 281h113l-100 -518h-118l63 329l-190 -221h-60z" />
    <glyph glyph-name="afii10079" unicode="&#x43d;" horiz-adv-x="605" 
d="M198 329h235l37 189h118l-100 -518h-118l45 235h-235l-45 -235h-118l100 518h118z" />
    <glyph glyph-name="afii10080" unicode="&#x43e;" horiz-adv-x="592" 
d="M554 259q-24 -122 -109 -196.5t-202 -74.5q-100 0 -156 54.5t-56 148.5q0 146 92.5 242.5t225.5 96.5q100 0 156 -55t56 -150q0 -26 -7 -66zM434 259q6 29 6 54q0 57 -28.5 89t-81.5 32q-74 0 -126 -64t-52 -166q0 -57 28.5 -88.5t81.5 -31.5q65 0 110.5 47t61.5 128z
" />
    <glyph glyph-name="afii10081" unicode="&#x43f;" horiz-adv-x="588" 
d="M435 424h-218l-82 -424h-118l100 518h454l-100 -518h-118z" />
    <glyph glyph-name="afii10082" unicode="&#x440;" horiz-adv-x="609" 
d="M565 259q-24 -125 -97.5 -198t-179.5 -73q-90 0 -144 62l-51 -262h-118l142 730h118l-10 -50q78 62 169 62q87 0 133 -50t46 -140q0 -35 -8 -81zM277 85q77 0 125.5 64.5t48.5 170.5q0 113 -106 113q-77 0 -137 -55l-46 -238q18 -26 49.5 -40.5t65.5 -14.5z" />
    <glyph glyph-name="afii10083" unicode="&#x441;" horiz-adv-x="546" 
d="M38 259q24 121 108 196t201 75q151 0 201 -126l-100 -48q-37 78 -115 78q-74 0 -127.5 -63t-53.5 -165q0 -58 30 -90t83 -32q78 0 145 78l82 -48q-100 -126 -251 -126q-100 0 -155 55t-55 149q0 33 7 67z" />
    <glyph glyph-name="afii10084" unicode="&#x442;" horiz-adv-x="512" 
d="M147 0l82 424h-181l18 94h480l-18 -94h-181l-82 -424h-118z" />
    <glyph glyph-name="afii10085" unicode="&#x443;" horiz-adv-x="547" 
d="M50 -212l122 216l-108 514h121l74 -361l202 361h121l-411 -730h-121z" />
    <glyph glyph-name="afii10086" unicode="&#x444;" horiz-adv-x="930" 
d="M671 433q-62 0 -123 -51l-48 -244q39 -54 107 -54q76 0 121 67t45 176q0 106 -102 106zM327 433q-79 0 -125 -66t-46 -177q0 -106 99 -106q68 0 127 54l48 244q-41 51 -103 51zM314 -212l51 259q-79 -59 -159 -59q-85 0 -128 48t-43 136q0 160 79 259t199 99
q81 0 134 -61l50 261h118l-50 -261q76 61 158 61q85 0 128.5 -48t43.5 -136q0 -159 -79 -258.5t-198 -99.5q-79 0 -135 59l-51 -259h-118z" />
    <glyph glyph-name="afii10087" unicode="&#x445;" horiz-adv-x="530" 
d="M343 0l-91 194l-165 -194h-127l231 270l-114 248h127l78 -171l144 171h127l-210 -248l127 -270h-127z" />
    <glyph glyph-name="afii10088" unicode="&#x446;" horiz-adv-x="619" 
d="M489 94h78l-40 -204h-118l22 110h-414l100 518h118l-82 -424h218l82 424h118z" />
    <glyph glyph-name="afii10089" unicode="&#x447;" horiz-adv-x="558" 
d="M269 267q62 0 112 37l41 214h118l-100 -518h-118l42 218q-69 -45 -139 -45q-78 0 -121 36t-43 109q0 26 6 57l28 143h118l-26 -136q-5 -28 -5 -44q0 -39 21.5 -55t65.5 -16z" />
    <glyph glyph-name="afii10090" unicode="&#x448;" horiz-adv-x="750" 
d="M402 94h131l82 424h118l-100 -518h-616l100 518h118l-82 -424h131l82 424h118z" />
    <glyph glyph-name="afii10091" unicode="&#x449;" horiz-adv-x="782" 
d="M594 0h-577l100 518h118l-82 -424h131l82 424h118l-82 -424h131l82 424h118l-82 -424h79l-40 -204h-118z" />
    <glyph glyph-name="afii10092" unicode="&#x44a;" horiz-adv-x="595" 
d="M299 0h-201l82 423h-140l18 95h258l-36 -186h83q92 0 140 -33t48 -96q0 -96 -68.5 -149.5t-183.5 -53.5zM263 238l-28 -144h81q54 0 84.5 22.5t30.5 66.5q0 55 -87 55h-81z" />
    <glyph glyph-name="afii10093" unicode="&#x44b;" horiz-adv-x="744" 
d="M509 0l100 518h118l-100 -518h-118zM17 0h201q115 0 183.5 53.5t68.5 149.5q0 63 -48 96t-140 33h-83l36 186h-118zM154 94l28 144h81q87 0 87 -55q0 -44 -30.5 -66.5t-84.5 -22.5h-81z" />
    <glyph glyph-name="afii10094" unicode="&#x44c;" horiz-adv-x="513" 
d="M218 0h-201l100 518h118l-36 -186h83q92 0 140 -33t48 -96q0 -96 -68.5 -149.5t-183.5 -53.5zM182 238l-28 -144h81q54 0 84.5 22.5t30.5 66.5q0 55 -87 55h-81z" />
    <glyph glyph-name="afii10095" unicode="&#x44d;" horiz-adv-x="546" 
d="M196 306h198q0 61 -29 94.5t-84 33.5q-79 0 -145 -78l-82 48q99 126 251 126q100 0 155 -55.5t55 -148.5q0 -144 -92 -241t-224 -97q-76 0 -127 33t-74 93l100 48q36 -78 115 -78q55 0 97.5 33t64.5 94h-197z" />
    <glyph glyph-name="afii10096" unicode="&#x44e;" horiz-adv-x="758" 
d="M602 259q6 33 6 62q0 54 -22.5 83.5t-64.5 29.5q-62 0 -109 -66.5t-47 -170.5q0 -54 23 -83.5t65 -29.5q53 0 93 46.5t56 128.5zM117 518h118l-41 -212h72q32 101 105 162.5t169 61.5q90 0 138.5 -54t48.5 -145q0 -144 -85.5 -243.5t-207.5 -99.5q-90 0 -138.5 53.5
t-48.5 144.5q0 17 1 26h-72l-41 -212h-118z" />
    <glyph glyph-name="afii10097" unicode="&#x44f;" horiz-adv-x="556" 
d="M358 195h-110l-159 -195h-130l180 213q-73 30 -73 110q0 87 65 141t172 54h236l-100 -518h-118zM268 290h109l26 133h-109q-49 0 -78.5 -22t-29.5 -58q0 -53 82 -53z" />
    <glyph glyph-name="uni0450" unicode="&#x450;" horiz-adv-x="567" 
d="M386 574l-135 129l81 65l114 -143zM273 84q74 0 142 66l71 -59q-97 -103 -231 -103q-103 0 -163 56.5t-60 152.5q0 136 93 234.5t240 98.5q89 0 140 -39.5t51 -101.5q0 -85 -70 -139.5t-181 -54.5q-94 0 -154 39q-2 -14 -2 -28q0 -56 33.5 -89t90.5 -33zM343 434
q-115 0 -168 -116q57 -27 131 -27q133 0 133 83q0 27 -24.5 43.5t-71.5 16.5z" />
    <glyph glyph-name="afii10071" unicode="&#x451;" horiz-adv-x="567" 
d="M215 667q5 26 27 44.5t48 18.5q23 0 37.5 -14.5t14.5 -36.5q0 -30 -23.5 -52.5t-52.5 -22.5q-23 0 -37.5 14.5t-14.5 36.5q0 8 1 12zM419 667q5 26 27 44.5t48 18.5q23 0 37.5 -14.5t14.5 -36.5q0 -30 -23.5 -52.5t-52.5 -22.5q-23 0 -37.5 14.5t-14.5 36.5q0 8 1 12z
M273 84q74 0 142 66l71 -59q-97 -103 -231 -103q-103 0 -163 56.5t-60 152.5q0 136 93 234.5t240 98.5q89 0 140 -39.5t51 -101.5q0 -85 -70 -139.5t-181 -54.5q-94 0 -154 39q-2 -14 -2 -28q0 -56 33.5 -89t90.5 -33zM343 434q-115 0 -168 -116q57 -27 131 -27
q133 0 133 83q0 27 -24.5 43.5t-71.5 16.5z" />
    <glyph glyph-name="afii10099" unicode="&#x452;" horiz-adv-x="605" 
d="M445 590h-196l-25 -132q85 72 188 72q71 0 110.5 -36.5t39.5 -105.5q0 -22 -5 -52l-65 -336q-23 -121 -74 -172t-164 -51q-23 0 -47 2l18 96q30 -2 44 -2q44 0 66 21t31 65l70 360q4 17 4 37q0 78 -82 78q-41 0 -83 -20.5t-70 -49.5l-70 -364h-118l114 590h-62l14 73h62
l13 67h118l-13 -67h196z" />
    <glyph glyph-name="afii10100" unicode="&#x453;" horiz-adv-x="462" 
d="M475 424h-258l-82 -424h-118l100 518h376zM465 703l-185 -129l-40 51l170 143z" />
    <glyph glyph-name="afii10101" unicode="&#x454;" horiz-adv-x="546" 
d="M170 306h198l-18 -95h-197q0 -127 112 -127q78 0 145 78l82 -48q-100 -126 -251 -126q-100 0 -155 55t-55 149q0 144 92 241t224 97q151 0 201 -126l-100 -48q-37 78 -115 78q-55 0 -98 -33.5t-65 -94.5z" />
    <glyph glyph-name="afii10102" unicode="&#x455;" horiz-adv-x="511" 
d="M77 361q0 74 62 121.5t160 47.5q127 0 192 -82l-91 -64q-36 50 -110 50q-84 0 -84 -55q0 -18 22.5 -32.5t82.5 -33.5q72 -22 107.5 -55t35.5 -83q0 -84 -65 -135.5t-171 -51.5q-154 0 -223 100l95 66q55 -70 137 -70q98 0 98 68q0 23 -21.5 38t-76.5 31q-82 24 -116 56
t-34 84z" />
    <glyph glyph-name="afii10103" unicode="&#x456;" horiz-adv-x="262" 
d="M22 0l100 518h118l-100 -518h-118zM283 667q-6 -31 -31 -51.5t-56 -20.5q-27 0 -44 16t-17 41q0 35 27.5 61t61.5 26q27 0 43.5 -16t16.5 -42q0 -9 -1 -14z" />
    <glyph glyph-name="afii10104" unicode="&#x457;" horiz-adv-x="262" 
d="M22 0l100 518h118l-100 -518h-118zM45 667q5 26 27 44.5t48 18.5q23 0 37.5 -14.5t14.5 -36.5q0 -30 -23.5 -52.5t-52.5 -22.5q-23 0 -37.5 14.5t-14.5 36.5q0 8 1 12zM249 667q5 26 27 44.5t48 18.5q23 0 37.5 -14.5t14.5 -36.5q0 -30 -23.5 -52.5t-52.5 -22.5
q-23 0 -37.5 14.5t-14.5 36.5q0 8 1 12z" />
    <glyph glyph-name="afii10105" unicode="&#x458;" horiz-adv-x="262" 
d="M-97 -224q-29 0 -47 3l18 94q13 -1 44 -1q43 0 64.5 21t30.5 65l109 560h118l-106 -547q-20 -102 -73.5 -148.5t-157.5 -46.5zM283 667q-6 -31 -31 -51.5t-56 -20.5q-27 0 -44 16t-17 41q0 35 27.5 61t61.5 26q27 0 43.5 -16t16.5 -42q0 -9 -1 -14z" />
    <glyph glyph-name="afii10106" unicode="&#x459;" horiz-adv-x="874" 
d="M579 0h-201l82 423h-170l-50 -256q-18 -92 -73 -135.5t-152 -43.5q-29 0 -48 3l18 96q24 -3 44 -3q42 0 63.5 21.5t30.5 65.5l67 347h406l-36 -186h83q92 0 140 -33t48 -96q0 -96 -68.5 -149.5t-183.5 -53.5zM543 238l-28 -144h81q54 0 84.5 22.5t30.5 66.5q0 55 -87 55
h-81z" />
    <glyph glyph-name="afii10107" unicode="&#x45a;" horiz-adv-x="839" 
d="M544 0h-201l45 234h-208l-45 -234h-118l100 518h118l-37 -189h208l37 189h118l-36 -186h83q92 0 140 -33t48 -96q0 -96 -68.5 -149.5t-183.5 -53.5zM508 238l-28 -144h81q54 0 84.5 22.5t30.5 66.5q0 55 -87 55h-81z" />
    <glyph glyph-name="afii10108" unicode="&#x45b;" horiz-adv-x="605" 
d="M445 590h-196l-25 -132q85 72 188 72q71 0 110.5 -36.5t39.5 -105.5q0 -22 -5 -52l-65 -336h-118l62 319q4 17 4 37q0 78 -82 78q-41 0 -83 -20.5t-70 -49.5l-70 -364h-118l114 590h-62l14 73h62l13 67h118l-13 -67h196z" />
    <glyph glyph-name="afii10109" unicode="&#x45c;" horiz-adv-x="553" 
d="M117 518h118l-45 -231l245 231h137l-215 -200l141 -318h-130l-99 236l-108 -102l-26 -134h-118zM495 703l-185 -129l-40 51l170 143z" />
    <glyph glyph-name="uni045D" unicode="&#x45d;" horiz-adv-x="618" 
d="M501 0h-118l67 349l-316 -349h-117l100 518h118l-68 -349l317 349h117zM395 574l-135 129l81 65l114 -143z" />
    <glyph glyph-name="afii10110" unicode="&#x45e;" horiz-adv-x="546" 
d="M50 -212l122 216l-108 514h121l74 -361l202 361h121l-411 -730h-121zM337 591q-65 0 -98.5 36.5t-36.5 100.5l80 18q7 -79 70 -79t102 79l72 -18q-28 -64 -76 -100.5t-113 -36.5z" />
    <glyph glyph-name="afii10193" unicode="&#x45f;" horiz-adv-x="588" 
d="M281 -110h-118l22 110h-168l100 518h118l-82 -424h218l82 424h118l-100 -518h-168z" />
    <glyph glyph-name="afii10050" unicode="&#x490;" horiz-adv-x="552" 
d="M27 0l136 700h332l23 123h124l-44 -227h-332l-115 -596h-124z" />
    <glyph glyph-name="afii10098" unicode="&#x491;" horiz-adv-x="462" 
d="M475 424h-258l-82 -424h-118l100 518h258l26 132h118z" />
    <glyph glyph-name="Wgrave" unicode="&#x1e80;" horiz-adv-x="1014" 
d="M659 700h-132l-239 -535l-54 535h-129l70 -700h154l226 508l30 -508h154l342 700h-129l-262 -535zM607 748l-135 129l81 65l114 -143z" />
    <glyph glyph-name="wgrave" unicode="&#x1e81;" horiz-adv-x="820" 
d="M407 518h106l38 -367l182 367h123l-270 -518h-120l-37 357l-175 -357h-120l-70 518h124l39 -367zM476 574l-135 129l81 65l114 -143z" />
    <glyph glyph-name="Wacute" unicode="&#x1e82;" horiz-adv-x="1014" 
d="M527 700h132l31 -535l262 535h129l-342 -700h-154l-30 508l-226 -508h-154l-70 700h129l54 -535zM782 877l-185 -129l-40 51l170 143z" />
    <glyph glyph-name="wacute" unicode="&#x1e83;" horiz-adv-x="820" 
d="M407 518h106l38 -367l182 367h123l-270 -518h-120l-37 357l-175 -357h-120l-70 518h124l39 -367zM651 703l-185 -129l-40 51l170 143z" />
    <glyph glyph-name="Wdieresis" unicode="&#x1e84;" horiz-adv-x="1014" 
d="M455 841q5 26 27 44.5t48 18.5q23 0 37.5 -14.5t14.5 -36.5q0 -30 -23.5 -52.5t-52.5 -22.5q-23 0 -37.5 14.5t-14.5 36.5q0 8 1 12zM659 841q5 26 27 44.5t48 18.5q23 0 37.5 -14.5t14.5 -36.5q0 -30 -23.5 -52.5t-52.5 -22.5q-23 0 -37.5 14.5t-14.5 36.5q0 8 1 12z
M659 700h-132l-239 -535l-54 535h-129l70 -700h154l226 508l30 -508h154l342 700h-129l-262 -535z" />
    <glyph glyph-name="wdieresis" unicode="&#x1e85;" horiz-adv-x="820" 
d="M407 518h106l38 -367l182 367h123l-270 -518h-120l-37 357l-175 -357h-120l-70 518h124l39 -367zM324 667q5 26 27 44.5t48 18.5q23 0 37.5 -14.5t14.5 -36.5q0 -30 -23.5 -52.5t-52.5 -22.5q-23 0 -37.5 14.5t-14.5 36.5q0 8 1 12zM528 667q5 26 27 44.5t48 18.5
q23 0 37.5 -14.5t14.5 -36.5q0 -30 -23.5 -52.5t-52.5 -22.5q-23 0 -37.5 14.5t-14.5 36.5q0 8 1 12z" />
    <glyph glyph-name="Ygrave" unicode="&#x1ef2;" horiz-adv-x="634" 
d="M329 0h-124l53 276l-158 424h134l109 -308l229 308h134l-324 -424zM453 748l-135 129l81 65l114 -143z" />
    <glyph glyph-name="ygrave" unicode="&#x1ef3;" horiz-adv-x="546" 
d="M50 -212l122 216l-108 514h121l74 -361l202 361h121l-411 -730h-121zM354 574l-135 129l81 65l114 -143z" />
    <glyph glyph-name="thinspace" unicode="&#x2009;" horiz-adv-x="200" 
 />
    <glyph glyph-name="uni2010" unicode="&#x2010;" horiz-adv-x="404" 
d="M351 281h-290l20 101h290z" />
    <glyph glyph-name="figuredash" unicode="&#x2012;" horiz-adv-x="599" 
d="M564 285h-519l18 93h519z" />
    <glyph glyph-name="endash" unicode="&#x2013;" horiz-adv-x="500" 
d="M505 285h-500l18 93h500z" />
    <glyph glyph-name="emdash" unicode="&#x2014;" horiz-adv-x="1000" 
d="M1005 285h-1000l18 93h1000z" />
    <glyph glyph-name="afii00208" unicode="&#x2015;" horiz-adv-x="1000" 
d="M907 285h-804l18 93h804z" />
    <glyph glyph-name="uni2016" unicode="&#x2016;" horiz-adv-x="456" 
d="M21 -130l171 879h90l-171 -879h-90zM193 -130l171 879h90l-171 -879h-90z" />
    <glyph glyph-name="underscoredbl" unicode="&#x2017;" horiz-adv-x="603" 
d="M-45 -221l15 80h507l-15 -80h-507zM-23 -107l15 80h507l-15 -80h-507z" />
    <glyph glyph-name="quoteleft" unicode="&#x2018;" horiz-adv-x="308" 
d="M366 761l-132 -277l-105 38l160 265z" />
    <glyph glyph-name="quoteright" unicode="&#x2019;" horiz-adv-x="308" 
d="M90 510l132 277l105 -38l-160 -265z" />
    <glyph glyph-name="quotesinglbase" unicode="&#x201a;" horiz-adv-x="308" 
d="M-35 -133l132 277l105 -38l-160 -265z" />
    <glyph glyph-name="quotereversed" unicode="&#x201b;" horiz-adv-x="308" 
d="M290 787l26 -277l-87 -26l-58 265z" />
    <glyph glyph-name="quotedblleft" unicode="&#x201c;" horiz-adv-x="491" 
d="M366 761l-132 -277l-105 38l160 265zM549 761l-132 -277l-105 38l160 265z" />
    <glyph glyph-name="quotedblright" unicode="&#x201d;" horiz-adv-x="491" 
d="M90 510l132 277l105 -38l-160 -265zM273 510l132 277l105 -38l-160 -265z" />
    <glyph glyph-name="quotedblbase" unicode="&#x201e;" horiz-adv-x="491" 
d="M-35 -133l132 277l105 -38l-160 -265zM148 -133l132 277l105 -38l-160 -265z" />
    <glyph glyph-name="uni201F" unicode="&#x201f;" horiz-adv-x="491" 
d="M290 787l26 -277l-87 -26l-58 265zM473 787l26 -277l-87 -26l-58 265z" />
    <glyph glyph-name="dagger" unicode="&#x2020;" horiz-adv-x="587" 
d="M572 580l-18 -96h-158l-120 -615h-118l120 615h-157l18 96h157l33 168h118l-33 -168h158z" />
    <glyph glyph-name="daggerdbl" unicode="&#x2021;" horiz-adv-x="587" 
d="M485 133l-18 -96h-158l-33 -168h-118l33 168h-157l18 96h157l69 351h-157l18 96h157l33 168h118l-33 -168h158l-18 -96h-158l-69 -351h158z" />
    <glyph glyph-name="bullet" unicode="&#x2022;" horiz-adv-x="448" 
d="M99 331q0 58 38.5 97t96.5 39t96.5 -39t38.5 -97q0 -59 -38.5 -97.5t-96.5 -38.5t-96.5 38.5t-38.5 97.5z" />
    <glyph glyph-name="onedotenleader" unicode="&#x2024;" horiz-adv-x="308" 
d="M43 61q6 31 31.5 52t55.5 21q26 0 42 -16.5t16 -41.5q0 -35 -26.5 -61.5t-60.5 -26.5q-26 0 -43 16.5t-17 41.5q0 5 2 15z" />
    <glyph glyph-name="twodotenleader" unicode="&#x2025;" horiz-adv-x="616" 
d="M43 61q6 31 31.5 52t55.5 21q26 0 42 -16.5t16 -41.5q0 -35 -26.5 -61.5t-60.5 -26.5q-26 0 -43 16.5t-17 41.5q0 5 2 15zM351 61q6 31 31.5 52t55.5 21q26 0 42 -16.5t16 -41.5q0 -35 -26.5 -61.5t-60.5 -26.5q-26 0 -43 16.5t-17 41.5q0 5 2 15z" />
    <glyph glyph-name="ellipsis" unicode="&#x2026;" horiz-adv-x="924" 
d="M43 61q6 31 31.5 52t55.5 21q26 0 42 -16.5t16 -41.5q0 -35 -26.5 -61.5t-60.5 -26.5q-26 0 -43 16.5t-17 41.5q0 5 2 15zM659 61q6 31 31.5 52t55.5 21q26 0 42 -16.5t16 -41.5q0 -35 -26.5 -61.5t-60.5 -26.5q-26 0 -43 16.5t-17 41.5q0 5 2 15zM351 61q6 31 31.5 52
t55.5 21q26 0 42 -16.5t16 -41.5q0 -35 -26.5 -61.5t-60.5 -26.5q-26 0 -43 16.5t-17 41.5q0 5 2 15z" />
    <glyph glyph-name="perthousand" unicode="&#x2030;" horiz-adv-x="1147" 
d="M116 33l559 680l59 -47l-559 -680zM410 171q16 80 68.5 129.5t122.5 49.5q58 0 91.5 -35.5t33.5 -96.5q0 -96 -58 -161t-137 -65q-59 0 -92.5 35.5t-33.5 96.5q0 20 5 47zM621 171q4 19 4 37q0 55 -41 55q-30 0 -54 -34t-24 -94q0 -55 42 -55q55 0 73 91zM229 528
q-4 -19 -4 -37q0 -54 41 -54q30 0 53.5 33.5t23.5 94.5q0 54 -41 54q-55 0 -73 -91zM129 528q16 80 68.5 129.5t121.5 49.5q58 0 91.5 -36t33.5 -96q0 -96 -58 -161t-137 -65q-59 0 -92 36t-33 97q0 19 5 46zM742 171q16 80 68.5 129.5t122.5 49.5q58 0 91.5 -35.5
t33.5 -96.5q0 -96 -58 -161t-137 -65q-59 0 -92.5 35.5t-33.5 96.5q0 20 5 47zM953 171q4 19 4 37q0 55 -41 55q-30 0 -54 -34t-24 -94q0 -55 42 -55q55 0 73 91z" />
    <glyph glyph-name="minute" unicode="&#x2032;" horiz-adv-x="330" 
d="M109 441l124 266l103 -35l-153 -254z" />
    <glyph glyph-name="second" unicode="&#x2033;" horiz-adv-x="531" 
d="M109 441l124 266l103 -35l-153 -254zM310 441l124 266l103 -35l-153 -254z" />
    <glyph glyph-name="guilsinglleft" unicode="&#x2039;" horiz-adv-x="365" 
d="M54 290l8 44l250 159l38 -66l-187 -115l142 -115l-63 -66z" />
    <glyph glyph-name="guilsinglright" unicode="&#x203a;" horiz-adv-x="365" 
d="M331 334l-8 -44l-250 -159l-37 66l186 115l-141 115l62 66z" />
    <glyph glyph-name="exclamdbl" unicode="&#x203c;" horiz-adv-x="518" 
d="M39 61q6 31 31.5 52t55.5 21q26 0 42 -16.5t16 -41.5q0 -35 -26.5 -61.5t-60.5 -26.5q-26 0 -43 16.5t-17 41.5q0 5 2 15zM93 182l42 342l35 176h132l-35 -176l-90 -342h-84zM257 61q6 31 31.5 52t55.5 21q26 0 42 -16.5t16 -41.5q0 -35 -26.5 -61.5t-60.5 -26.5
q-26 0 -43 16.5t-17 41.5q0 5 2 15zM311 182l42 342l35 176h132l-35 -176l-90 -342h-84z" />
    <glyph glyph-name="uni203E" unicode="&#x203e;" horiz-adv-x="396" 
d="M116 607l16 80h298l-16 -80h-298z" />
    <glyph glyph-name="fraction" unicode="&#x2044;" horiz-adv-x="199" 
d="M340 715l61 -37l-506 -693l-61 37z" />
    <glyph glyph-name="zerosuperior" unicode="&#x2070;" 
d="M430 469q-21 -108 -80.5 -173.5t-145.5 -65.5q-69 0 -104.5 43.5t-35.5 118.5q0 131 66.5 223.5t166.5 92.5q69 0 105 -43.5t36 -119.5q0 -33 -8 -76zM333 469q8 43 8 71q0 85 -57 85q-54 0 -88.5 -67.5t-34.5 -163.5q0 -81 59 -81q81 0 113 156z" />
    <glyph glyph-name="uni2071" unicode="&#x2071;" 
d="M160 237l64 331h92l-64 -331h-92zM342 662q-4 -22 -22.5 -38t-41.5 -16q-20 0 -32.5 12.5t-12.5 31.5q0 25 20 44.5t46 19.5q20 0 32 -12t12 -31q0 -7 -1 -11z" />
    <glyph glyph-name="foursuperior" unicode="&#x2074;" 
d="M253 331h-212l15 76l266 293h95l-56 -288h54l-16 -81h-54l-18 -94h-92zM299 567l-140 -155h110z" />
    <glyph glyph-name="fivesuperior" unicode="&#x2075;" 
d="M135 440l-21 14l48 246h276l-16 -80h-187l-18 -94q28 6 56 6q58 0 92.5 -32t34.5 -87q0 -78 -56 -131t-143 -53q-98 0 -147 66l75 55q31 -39 88 -39q36 0 60.5 25.5t24.5 60.5q0 27 -19 42t-53 15q-48 0 -95 -14z" />
    <glyph glyph-name="sixsuperior" unicode="&#x2076;" 
d="M290 628q-32 0 -59 -29.5t-41 -87.5q49 34 98 34q57 0 89.5 -32.5t32.5 -87.5q0 -84 -57.5 -140t-141.5 -56q-65 0 -102 39t-37 115q0 30 8 73q25 127 83.5 189.5t139.5 62.5q98 0 135 -77l-74 -44q-22 41 -74 41zM255 464q-42 0 -83 -32q-3 -23 -3 -40q0 -82 56 -82
q38 0 63 27t25 71q0 26 -15.5 41t-42.5 15z" />
    <glyph glyph-name="sevensuperior" unicode="&#x2077;" 
d="M436 619l-238 -382h-104l239 381h-203l16 82h306z" />
    <glyph glyph-name="eightsuperior" unicode="&#x2078;" 
d="M64 371q14 71 89 114q-39 28 -39 75q0 66 51.5 107t126.5 41q61 0 96 -27.5t35 -76.5q0 -39 -21 -73t-56 -55q54 -35 54 -86q0 -70 -57 -116t-138 -46q-66 0 -105 30.5t-39 83.5q0 14 3 29zM303 361q1 4 1 11q0 19 -14.5 32.5t-48.5 29.5l-28 13q-56 -38 -56 -90
q0 -24 17 -37t46 -13q31 0 54.5 15.5t28.5 38.5zM210 585q-1 -4 -1 -11q0 -30 46 -52l27 -13q47 32 47 80q0 41 -53 41q-26 0 -44 -13t-22 -32z" />
    <glyph glyph-name="ninesuperior" unicode="&#x2079;" 
d="M207 308q74 0 103 115q-46 -32 -95 -32q-57 0 -91 33t-34 89q0 83 58 139t141 56q65 0 102 -38.5t37 -112.5q0 -31 -8 -74q-48 -254 -227 -254q-83 0 -126 55l69 56q26 -32 71 -32zM246 472q43 0 81 32q4 21 4 44q0 78 -56 78q-37 0 -62.5 -27.5t-25.5 -70.5
q0 -26 15.5 -41t43.5 -15z" />
    <glyph glyph-name="uni207A" unicode="&#x207a;" 
d="M202 309v125h-124v73h124v125h86v-125h124v-73h-124v-125h-86z" />
    <glyph glyph-name="uni207B" unicode="&#x207b;" 
d="M412 434h-334v73h334v-73z" />
    <glyph glyph-name="uni207C" unicode="&#x207c;" 
d="M412 506h-334v73h334v-73zM412 362h-334v73h334v-73z" />
    <glyph glyph-name="uni207D" unicode="&#x207d;" 
d="M174 469q29 153 151 290l58 -29q-137 -168 -137 -354q0 -83 36 -168l-70 -29q-47 94 -47 200q0 45 9 90z" />
    <glyph glyph-name="uni207E" unicode="&#x207e;" 
d="M328 469q-31 -155 -152 -290l-58 29q137 166 137 354q0 87 -36 168l70 29q47 -93 47 -201q0 -49 -8 -89z" />
    <glyph glyph-name="uni207F" unicode="&#x207f;" 
d="M265 498q-39 0 -71 -30l-44 -231h-94l64 332h94l-6 -30q52 38 107 38q41 0 63.5 -23t22.5 -64q0 -15 -3 -33l-42 -220h-94l40 209q2 12 2 16q0 36 -39 36z" />
    <glyph glyph-name="zeroinferior" unicode="&#x2080;" 
d="M360 106q-21 -108 -80.5 -173.5t-145.5 -65.5q-69 0 -104.5 43.5t-35.5 118.5q0 131 66.5 223.5t166.5 92.5q69 0 105 -43.5t36 -119.5q0 -33 -8 -76zM263 106q8 43 8 71q0 85 -57 85q-54 0 -88.5 -67.5t-34.5 -163.5q0 -81 59 -81q81 0 113 156z" />
    <glyph glyph-name="oneinferior" unicode="&#x2081;" 
d="M184 228l-78 -49l-43 60l153 99h82l-90 -464h-93z" />
    <glyph glyph-name="twoinferior" unicode="&#x2082;" 
d="M201 262q-47 0 -93 -43l-56 50q79 76 175 76q57 0 89.5 -28t32.5 -77q0 -118 -221 -286h172l-16 -80h-307l13 69q111 78 185.5 152t74.5 121q0 20 -13 33t-36 13z" />
    <glyph glyph-name="threeinferior" unicode="&#x2083;" 
d="M134 -55q39 0 63.5 22.5t24.5 54.5q0 55 -86 55h-45l15 74h45q44 0 71 20t27 54q0 40 -47 40q-50 0 -89 -40l-55 49q73 71 165 71q58 0 91.5 -26.5t33.5 -73.5q0 -45 -27 -79.5t-67 -50.5q63 -26 63 -88q0 -67 -55.5 -114t-139.5 -47q-105 0 -143 78l75 48q24 -47 80 -47
z" />
    <glyph glyph-name="fourinferior" unicode="&#x2084;" 
d="M182 -32h-212l15 76l266 293h95l-56 -288h54l-16 -81h-54l-18 -94h-92zM228 204l-140 -155h110z" />
    <glyph glyph-name="fiveinferior" unicode="&#x2085;" 
d="M64 77l-21 14l48 246h276l-16 -80h-187l-18 -94q28 6 56 6q58 0 93 -32t35 -86q0 -78 -56.5 -131.5t-143.5 -53.5q-96 0 -147 66l75 55q32 -39 88 -39q35 0 60.5 25.5t25.5 59.5q0 27 -19.5 42.5t-53.5 15.5q-48 0 -95 -14z" />
    <glyph glyph-name="sixinferior" unicode="&#x2086;" 
d="M219 265q-32 0 -58.5 -29.5t-41.5 -87.5q49 34 99 34q56 0 88.5 -32.5t32.5 -87.5q0 -84 -57.5 -140t-141.5 -56q-65 0 -101.5 38.5t-36.5 113.5q0 32 8 75q25 127 83.5 189.5t139.5 62.5q97 0 135 -77l-75 -44q-22 41 -74 41zM184 101q-43 0 -82 -32q-3 -22 -3 -41
q0 -81 55 -81q38 0 63 27t25 71q0 26 -15.5 41t-42.5 15z" />
    <glyph glyph-name="seveninferior" unicode="&#x2087;" 
d="M365 256l-238 -382h-104l239 381h-203l16 82h306z" />
    <glyph glyph-name="eightinferior" unicode="&#x2088;" 
d="M-7 8q14 71 89 114q-38 27 -38 76q0 65 52 106t126 41q61 0 96 -27.5t35 -74.5q0 -40 -21 -74.5t-57 -55.5q54 -34 54 -87q0 -69 -57 -115t-138 -46q-66 0 -105 30.5t-39 83.5q0 14 3 29zM232 -2q1 4 1 12q0 19 -14.5 32t-48.5 29l-27 13q-57 -38 -57 -90
q0 -23 17.5 -36.5t46.5 -13.5q31 0 54 15.5t28 38.5zM140 222q-2 -8 -2 -12q1 -31 46 -51l28 -13q47 34 47 80q0 41 -54 41q-26 0 -43.5 -13t-21.5 -32z" />
    <glyph glyph-name="nineinferior" unicode="&#x2089;" 
d="M137 -55q73 0 102 115q-46 -32 -95 -32q-57 0 -90.5 32.5t-33.5 87.5q0 84 57.5 140.5t141.5 56.5q65 0 101.5 -38.5t36.5 -113.5q0 -35 -7 -73q-50 -254 -228 -254q-83 0 -126 55l69 56q26 -32 72 -32zM176 109q43 0 81 32q3 24 3 43q0 79 -55 79q-37 0 -63 -27t-26 -69
q0 -27 15.5 -42.5t44.5 -15.5z" />
    <glyph glyph-name="uni208A" unicode="&#x208a;" 
d="M137 -54v125h-124v73h124v125h86v-125h124v-73h-124v-125h-86z" />
    <glyph glyph-name="uni208B" unicode="&#x208b;" 
d="M347 71h-334v73h334v-73z" />
    <glyph glyph-name="uni208C" unicode="&#x208c;" 
d="M347 143h-334v73h334v-73zM347 -1h-334v73h334v-73z" />
    <glyph glyph-name="uni208D" unicode="&#x208d;" 
d="M103 106q31 155 151 290l59 -29q-138 -167 -138 -354q0 -83 36 -168l-69 -29q-48 93 -48 201q0 44 9 89z" />
    <glyph glyph-name="uni208E" unicode="&#x208e;" 
d="M257 106q-29 -153 -151 -290l-59 29q137 166 137 354q0 86 -35 168l69 29q48 -98 48 -201q0 -44 -9 -89z" />
    <glyph glyph-name="uni2090" unicode="&#x2090;" 
d="M-9 46q16 81 65.5 130.5t119.5 49.5q50 0 86 -31l5 23h90l-67 -344h-90l4 23q-47 -31 -98 -31q-58 0 -89 34.5t-31 94.5q0 21 5 51zM83 46q-4 -17 -4 -36q0 -70 61 -70q44 0 78 29l30 154q-23 29 -67 29q-38 0 -63.5 -29t-34.5 -77z" />
    <glyph glyph-name="uni2091" unicode="&#x2091;" 
d="M206 155q-75 0 -101 -74q37 -12 76 -12q78 0 78 49q0 17 -14 27t-39 10zM143 -133q-67 0 -105.5 37.5t-38.5 101.5q0 90 62 154.5t160 64.5q60 0 94 -26.5t34 -67.5q0 -58 -46.5 -92t-118.5 -34q-54 0 -92 24q-1 -5 -1 -15q0 -35 18 -55t51 -20q52 0 88 39l51 -44
q-67 -67 -156 -67z" />
    <glyph glyph-name="uni2092" unicode="&#x2092;" 
d="M345 46q-15 -79 -72.5 -129t-138.5 -50q-70 0 -108.5 37.5t-38.5 99.5q0 94 62.5 157.5t153.5 63.5q69 0 107.5 -37t38.5 -99q0 -23 -4 -43zM86 46q-3 -15 -3 -29q0 -35 17.5 -55.5t47.5 -20.5q41 0 73 38.5t32 96.5q0 35 -17.5 55t-46.5 20q-36 0 -64.5 -29t-38.5 -76z
" />
    <glyph glyph-name="uni2093" unicode="&#x2093;" 
d="M157 -13l-102 -112h-105l162 175l-87 167h102l54 -104l96 104h102l-153 -167l95 -175h-106z" />
    <glyph glyph-name="uni2094" unicode="&#x2094;" 
d="M131 -63q75 0 101 74q-38 12 -76 12q-78 0 -78 -49q0 -37 53 -37zM194 225q67 0 105.5 -38t38.5 -102q0 -90 -62 -154t-160 -64q-60 0 -94.5 27t-34.5 68q0 57 46.5 91t118.5 34q56 0 93 -24q1 5 1 15q0 35 -18 55t-51 20q-52 0 -88 -39l-51 44q67 67 156 67z" />
    <glyph glyph-name="uni20A0" unicode="&#x20a0;" horiz-adv-x="778" 
d="M77 458q22 114 101 184t188 70q66 0 113 -28.5t68 -78.5l-91 -51q-35 65 -106 65q-68 0 -118 -57.5t-50 -147.5q0 -54 29 -85t76 -31q77 0 127 47l28 145h335l-17 -87h-227l-21 -109h210l-17 -87h-210l-24 -120h234l-16 -87h-342l46 240q-55 -35 -130 -35q-88 0 -140 53
t-52 141q0 27 6 59z" />
    <glyph glyph-name="colonmonetary" unicode="&#x20a1;" horiz-adv-x="694" 
d="M61 350q31 160 138.5 259t255.5 102l37 77l54 -17l-30 -63q26 -3 47 -10l44 90l54 -17l-46 -95q75 -40 104 -116l-112 -55q-18 38 -44 62l-229 -473h15q111 0 197 101l92 -55q-55 -71 -137.5 -111.5t-177.5 -40.5q-15 0 -39 2l-29 -59l-55 17l26 53q-20 5 -44 17l-42 -87
l-55 17l49 102q-83 72 -83 207q0 46 10 93zM187 350q-8 -36 -8 -75q0 -53 19 -94l203 420q-78 -16 -136 -80.5t-78 -170.5zM466 605l-229 -475q18 -15 40 -24l236 490q-21 7 -47 9z" />
    <glyph glyph-name="uni20A2" unicode="&#x20a2;" horiz-adv-x="694" 
d="M257 116l61 312h99l-11 -57q66 68 158 68q20 0 30 -1l-17 -85q-14 2 -38 2q-42 0 -82.5 -19.5t-67.5 -52.5l-37 -189q108 1 194 101l92 -55q-55 -71 -137.5 -111.5t-177.5 -40.5q-127 0 -199 73t-72 198q0 97 33.5 182t89.5 144t131.5 93t157.5 34q95 0 161 -40.5
t94 -111.5l-112 -55q-48 101 -159 101q-106 0 -187.5 -90t-81.5 -242q0 -113 78 -158z" />
    <glyph glyph-name="franc" unicode="&#x20a3;" horiz-adv-x="548" 
d="M56 452h58l49 248h452l-21 -104h-328l-28 -144h276l-11 -60h-276l-14 -70h276l-12 -60h-276l-50 -262h-124l50 262h-58l12 60h58l14 70h-58z" />
    <glyph glyph-name="lira" unicode="&#x20a4;" horiz-adv-x="599" 
d="M149 430l13 69q20 105 89.5 159t176.5 54q63 0 115.5 -25.5t79.5 -70.5l-99 -67q-16 26 -45.5 41.5t-62.5 15.5q-109 0 -130 -109l-13 -67h195l-12 -60h-195l-13 -70h195l-12 -60h-196q-21 -90 -85 -136h390l-20 -104h-532l18 96q88 55 106 144h-78l12 60h78l13 70h-78
l12 60h78z" />
    <glyph glyph-name="uni20A6" unicode="&#x20a6;" horiz-adv-x="724" 
d="M24 312h65l15 75h-65l11 60h65l50 253h123l110 -253h165l50 253h118l-50 -253h65l-11 -60h-65l-15 -75h65l-12 -60h-65l-48 -252h-123l-112 252h-165l-48 -252h-118l48 252h-65zM222 387l-15 -75h127l-33 75h-79zM425 387l33 -75h79l15 75h-127zM246 512l-13 -65h41z
M484 252l29 -64l12 64h-41z" />
    <glyph glyph-name="peseta" unicode="&#x20a7;" horiz-adv-x="1084" 
d="M707 673l-30 -155h163l-2 -10q42 22 91 22q96 0 147 -76l-85 -53q-23 37 -68 37q-29 0 -49.5 -17.5t-20.5 -46.5q0 -20 16.5 -35t57.5 -32q101 -42 101 -122q0 -85 -60 -135t-149 -50h-177q-75 0 -106.5 30.5t-31.5 96.5q0 45 14 117l35 179h-56q-32 -83 -108 -127.5
t-178 -44.5h-25l-48 -251h-111l136 700h136q102 0 160.5 -44.5t58.5 -127.5v-10h53l30 155h106zM744 385q5 23 13 38h-98l-32 -161q-16 -78 -16 -111q0 -32 14.5 -45.5t48.5 -13.5h154q38 0 61 19.5t23 54.5q0 42 -70 67q-101 37 -101 119q0 15 3 33zM403 475q3 18 3 33
q0 90 -131 90h-21l-48 -245h21q152 0 176 122z" />
    <glyph glyph-name="uni20A8" unicode="&#x20a8;" horiz-adv-x="1056" 
d="M603 489q-14 -72 -60.5 -120t-117.5 -69l112 -300h-136l-98 279h-99l-54 -279h-123l136 700h216q111 0 170 -42.5t59 -121.5q0 -19 -5 -47zM478 489q3 13 3 26q0 84 -124 84h-91l-43 -219h91q142 0 164 109zM544 86l90 61q58 -69 142 -69q45 0 72.5 23t27.5 52
q0 24 -22 39.5t-76 31.5q-81 23 -116 55.5t-35 77.5q0 72 62 122.5t163 50.5q117 0 185 -81l-83 -58q-48 49 -113 49q-40 0 -65.5 -17t-25.5 -43q0 -19 21.5 -33.5t74.5 -30.5q76 -23 114.5 -55.5t38.5 -84.5q0 -82 -68.5 -135t-169.5 -53q-146 0 -217 98z" />
    <glyph glyph-name="uni20A9" unicode="&#x20a9;" horiz-adv-x="1014" 
d="M886 303h117l-11 -60h-135l-118 -243h-154l-15 243h-133l-108 -243h-154l-25 243h-133l11 60h116l-7 66h-96l12 60h79l-27 271h129l27 -271h144l122 271h132l15 -271h145l133 271h129l-133 -271h80l-12 -60h-98zM266 369l7 -66h75l30 66h-112zM677 369l4 -66h75l33 66
h-112zM492 369l-29 -66h103l-3 66h-71zM685 243l5 -78l38 78h-43zM280 243l8 -78l34 78h-42zM555 508l-35 -79h40z" />
    <glyph glyph-name="afii57636" unicode="&#x20aa;" horiz-adv-x="882" 
d="M27 0l136 700h273q99 0 153.5 -51t54.5 -150q0 -39 -9 -86l-31 -156h-109l28 144q10 49 10 88q0 66 -31 92.5t-93 26.5h-156l-118 -608h-108zM891 700l-136 -700h-273q-100 0 -154.5 51t-54.5 150q0 39 9 86l31 156h109l-28 -144q-10 -49 -10 -87q0 -67 31 -93.5
t93 -26.5h156l119 608h108z" />
    <glyph glyph-name="dong" unicode="&#x20ab;" horiz-adv-x="610" 
d="M41 244q23 119 95.5 187.5t178.5 68.5q90 0 144 -62l23 122h-195l15 73h195l13 67h118l-13 -67h63l-15 -73h-63l-108 -560h-118l9 50q-77 -62 -168 -62q-88 0 -135 48t-47 134q0 31 8 74zM326 403q-77 0 -124 -57.5t-47 -154.5q0 -106 109 -106q77 0 137 55l40 208
q-18 26 -49.5 40.5t-65.5 14.5zM455 -81l-14 -73h-380l14 73h380z" />
    <glyph glyph-name="Euro" unicode="&#x20ac;" horiz-adv-x="724" 
d="M80 257h-62l12 61h55q3 28 13 63h-55l11 61h62q49 124 150 197t228 73q95 0 161 -40.5t94 -111.5l-112 -55q-48 101 -159 101q-73 0 -135.5 -42.5t-98.5 -121.5h262l-29 -61h-253q-10 -35 -13 -63h235l-31 -61h-206q6 -79 51.5 -121t118.5 -42q111 0 197 101l92 -55
q-55 -71 -137.5 -111.5t-177.5 -40.5q-127 0 -199 72.5t-74 196.5z" />
    <glyph glyph-name="afii61248" unicode="&#x2105;" horiz-adv-x="1051" 
d="M682 715l68 -37l-373 -693l-68 37zM39 482q0 -102 59 -164t157 -62q126 0 189 106l-83 44q-42 -60 -104 -60q-51 0 -80 36.5t-29 99.5t29 99.5t80 36.5q62 0 104 -60l83 44q-63 106 -189 106q-98 0 -157 -62t-59 -164zM1032 215q0 -99 -58.5 -162t-155.5 -63t-155.5 63
t-58.5 162t58.5 162t155.5 63t155.5 -63t58.5 -162zM923 215q0 61 -29 98t-76 37t-76 -37t-29 -98t29 -98t76 -37t76 37t29 98z" />
    <glyph glyph-name="uni2109" unicode="&#x2109;" horiz-adv-x="818" 
d="M357 0v700h452v-104h-328v-204h293v-104h-293v-288h-124zM296 576q0 -59 -39 -97.5t-99 -38.5t-99 38.5t-39 97.5t39 97.5t99 38.5t99 -38.5t39 -97.5zM221 576q0 28 -17.5 46t-45.5 18t-45.5 -18t-17.5 -46t17.5 -46t45.5 -18t45.5 18t17.5 46z" />
    <glyph glyph-name="afii61289" unicode="&#x2113;" horiz-adv-x="532" 
d="M351 -12q-92 0 -158 72q-54 -22 -113 -32l-32 101q53 12 88 25q-45 105 -45 246q0 147 58.5 229t156.5 82q81 0 125.5 -63t44.5 -168q0 -116 -48.5 -210.5t-136.5 -156.5q29 -27 66 -27q43 0 73 30l61 -76q-50 -52 -140 -52zM211 403q0 -108 27 -194q118 91 118 277
q0 127 -56 127q-38 0 -63.5 -56.5t-25.5 -153.5z" />
    <glyph glyph-name="afii61352" unicode="&#x2116;" horiz-adv-x="973" 
d="M87 0v700h119l191 -477v477h110v-700h-119l-191 477v-477h-110zM944 80v-80h-390v80h390zM667 328q0 -57 22 -87t60 -30t60 30t22 87t-22 87t-60 30t-60 -30t-22 -87zM564 328q0 92 49.5 148.5t135.5 56.5t135.5 -56.5t49.5 -148.5t-49.5 -148.5t-135.5 -56.5
t-135.5 56.5t-49.5 148.5z" />
    <glyph glyph-name="uni2117" unicode="&#x2117;" horiz-adv-x="826" 
d="M61 350q0 150 106 256t256 106t256 -106t106 -256t-106 -256t-256 -106t-256 106t-106 256zM117 350q0 -129 89.5 -219.5t216.5 -90.5t216.5 90.5t89.5 219.5t-89.5 219.5t-216.5 90.5t-216.5 -90.5t-89.5 -219.5zM522 414q0 78 -82 78h-63v-156h63q82 0 82 78zM607 414
q0 -68 -44 -106t-120 -38h-66v-140h-88v427h154q76 0 120 -37.5t44 -105.5z" />
    <glyph glyph-name="uni2120" unicode="&#x2120;" horiz-adv-x="695" 
d="M160 430q19 0 31.5 8t12.5 23q0 18 -14 30.5t-50 23.5q-95 29 -95 99q0 39 31 64.5t82 25.5q69 0 114 -50l-46 -38q-29 29 -63 29q-41 0 -41 -30q0 -23 46 -39q61 -22 86.5 -45t25.5 -65q0 -43 -33 -69t-87 -26q-78 0 -127 56l49 41q38 -38 78 -38zM459 429l-69 132v-185
h-74v324h75l95 -183l95 183h75v-324h-74v185l-69 -132h-54z" />
    <glyph glyph-name="uni2121" unicode="&#x2121;" horiz-adv-x="1012" 
d="M181 0v600h-152v100h422v-100h-152v-600h-118zM486 304h174q-1 61 -25 96.5t-63 35.5q-38 0 -61.5 -35.5t-24.5 -96.5zM835 0v730h115v-730h-115zM676 146l83 -58q-62 -100 -175 -100q-104 0 -159 78.5t-55 192.5q0 122 55 196.5t147 74.5q96 0 150 -75.5t54 -198.5
q0 -25 -2 -38h-288q2 -59 29 -96.5t72 -37.5q59 0 89 62z" />
    <glyph glyph-name="trademark" unicode="&#x2122;" horiz-adv-x="681" 
d="M111 376v266h-92v58h259v-58h-92v-266h-75zM446 429l-69 132v-185h-74v324h75l95 -183l95 183h75v-324h-74v185l-69 -132h-54z" />
    <glyph glyph-name="Omega" unicode="&#x2126;" horiz-adv-x="730" 
d="M375 605q-91 0 -143.5 -68.5t-52.5 -170.5q0 -163 143 -264v-102h-261v104h122q-130 98 -130 273q0 146 86 240.5t236 94.5t236 -94.5t86 -240.5q0 -175 -130 -273h122v-104h-261v102q143 101 143 264q0 102 -52.5 170.5t-143.5 68.5z" />
    <glyph glyph-name="estimated" unicode="&#x212e;" horiz-adv-x="736" 
d="M412 40q112 0 191 68l42 -40q-101 -80 -234 -80q-184 0 -271 99.5t-87 262.5q0 154 88.5 258t242.5 104q148 0 233.5 -105t85.5 -263v-24h-484v-223q69 -57 193 -57zM381 658q-98 0 -162 -58v-226h323v228q-64 56 -161 56z" />
    <glyph glyph-name="onethird" unicode="&#x2153;" horiz-adv-x="1014" 
d="M748 715l61 -37l-507 -693l-61 37zM752 71q39 0 64 22.5t25 54.5q0 55 -86 55h-45l14 74h45q45 0 71.5 20t26.5 54q0 40 -46 40q-52 0 -89 -40l-56 49q73 71 165 71q58 0 91.5 -27t33.5 -73q0 -45 -26.5 -79.5t-67.5 -50.5q64 -27 64 -89q0 -66 -55.5 -113t-139.5 -47
q-106 0 -144 78l75 48q24 -47 80 -47zM254 591l-77 -49l-43 60l153 99h82l-90 -464h-93z" />
    <glyph glyph-name="twothirds" unicode="&#x2154;" horiz-adv-x="1014" 
d="M748 715l61 -37l-507 -693l-61 37zM752 71q39 0 64 22.5t25 54.5q0 55 -86 55h-45l14 74h45q45 0 71.5 20t26.5 54q0 40 -46 40q-52 0 -89 -40l-56 49q73 71 165 71q58 0 91.5 -27t33.5 -73q0 -45 -26.5 -79.5t-67.5 -50.5q64 -27 64 -89q0 -66 -55.5 -113t-139.5 -47
q-106 0 -144 78l75 48q24 -47 80 -47zM269 625q-47 0 -93 -43l-57 50q79 76 175 76q57 0 90 -28.5t33 -77.5q0 -116 -222 -285h172l-15 -80h-307l13 69q112 80 185.5 153.5t73.5 121.5q0 19 -12.5 31.5t-35.5 12.5z" />
    <glyph glyph-name="onefifth" unicode="&#x2155;" horiz-adv-x="1014" 
d="M748 715l61 -37l-507 -693l-61 37zM683 203l-21 14l47 246h276l-15 -80h-187l-18 -94q27 6 56 6q58 0 92.5 -32t34.5 -87q0 -78 -56 -131t-143 -53q-98 0 -147 66l74 55q32 -39 89 -39q36 0 60.5 25.5t24.5 60.5q0 27 -19 42t-53 15q-48 0 -95 -14zM254 591l-77 -49
l-43 60l153 99h82l-90 -464h-93z" />
    <glyph glyph-name="twofifths" unicode="&#x2156;" horiz-adv-x="1014" 
d="M748 715l61 -37l-507 -693l-61 37zM683 203l-21 14l47 246h276l-15 -80h-187l-18 -94q27 6 56 6q58 0 92.5 -32t34.5 -87q0 -78 -56 -131t-143 -53q-98 0 -147 66l74 55q32 -39 89 -39q36 0 60.5 25.5t24.5 60.5q0 27 -19 42t-53 15q-48 0 -95 -14zM269 625
q-47 0 -93 -43l-57 50q79 76 175 76q57 0 90 -28.5t33 -77.5q0 -116 -222 -285h172l-15 -80h-307l13 69q112 80 185.5 153.5t73.5 121.5q0 19 -12.5 31.5t-35.5 12.5z" />
    <glyph glyph-name="threefifths" unicode="&#x2157;" horiz-adv-x="1014" 
d="M748 715l61 -37l-507 -693l-61 37zM683 203l-21 14l47 246h276l-15 -80h-187l-18 -94q27 6 56 6q58 0 92.5 -32t34.5 -87q0 -78 -56 -131t-143 -53q-98 0 -147 66l74 55q32 -39 89 -39q36 0 60.5 25.5t24.5 60.5q0 27 -19 42t-53 15q-48 0 -95 -14zM204 308q39 0 64 22.5
t25 54.5q0 55 -86 55h-45l14 74h45q45 0 71.5 20t26.5 54q0 40 -46 40q-52 0 -89 -40l-56 49q73 71 165 71q58 0 91.5 -27t33.5 -73q0 -45 -26.5 -79.5t-67.5 -50.5q64 -27 64 -89q0 -66 -55.5 -113t-139.5 -47q-106 0 -144 78l76 48q22 -47 79 -47z" />
    <glyph glyph-name="fourfifths" unicode="&#x2158;" horiz-adv-x="1014" 
d="M748 715l61 -37l-507 -693l-61 37zM683 203l-21 14l47 246h276l-15 -80h-187l-18 -94q27 6 56 6q58 0 92.5 -32t34.5 -87q0 -78 -56 -131t-143 -53q-98 0 -147 66l74 55q32 -39 89 -39q36 0 60.5 25.5t24.5 60.5q0 27 -19 42t-53 15q-48 0 -95 -14zM253 331h-212l15 76
l266 293h95l-56 -288h54l-16 -81h-54l-18 -94h-92zM299 567l-140 -155h110z" />
    <glyph glyph-name="onesixth" unicode="&#x2159;" horiz-adv-x="1014" 
d="M748 715l61 -37l-507 -693l-61 37zM838 391q-32 0 -59 -29.5t-41 -87.5q49 34 98 34q57 0 89.5 -32.5t32.5 -87.5q0 -84 -57.5 -140t-141.5 -56q-65 0 -102 39t-37 115q0 30 8 73q25 127 83.5 189.5t139.5 62.5q98 0 135 -77l-74 -44q-22 41 -74 41zM803 227
q-42 0 -83 -32q-3 -23 -3 -40q0 -82 56 -82q38 0 63 27t25 71q0 26 -15.5 41t-42.5 15zM254 591l-77 -49l-43 60l153 99h82l-90 -464h-93z" />
    <glyph glyph-name="fivesixths" unicode="&#x215a;" horiz-adv-x="1014" 
d="M748 715l61 -37l-507 -693l-61 37zM838 391q-32 0 -59 -29.5t-41 -87.5q49 34 98 34q57 0 89.5 -32.5t32.5 -87.5q0 -84 -57.5 -140t-141.5 -56q-65 0 -102 39t-37 115q0 30 8 73q25 127 83.5 189.5t139.5 62.5q98 0 135 -77l-74 -44q-22 41 -74 41zM803 227
q-42 0 -83 -32q-3 -23 -3 -40q0 -82 56 -82q38 0 63 27t25 71q0 26 -15.5 41t-42.5 15zM135 440l-21 14l48 246h276l-16 -80h-187l-18 -94q28 6 56 6q58 0 92.5 -32t34.5 -87q0 -78 -56 -131t-143 -53q-98 0 -147 66l75 55q31 -39 88 -39q36 0 60.5 25.5t24.5 60.5
q0 27 -19 42t-53 15q-48 0 -95 -14z" />
    <glyph glyph-name="oneeighth" unicode="&#x215b;" horiz-adv-x="1014" 
d="M748 715l61 -37l-507 -693l-61 37zM612 134q14 72 89 114q-39 28 -39 75q0 66 51.5 107t126.5 41q61 0 96 -27.5t35 -76.5q0 -39 -21 -73t-56 -55q54 -35 54 -86q0 -70 -57 -116t-138 -46q-66 0 -105 30t-39 83q0 14 3 30zM851 124q1 4 1 11q0 19 -14.5 32.5t-48.5 29.5
l-28 13q-56 -37 -56 -90q0 -24 17 -37t46 -13q31 0 54.5 15.5t28.5 38.5zM758 348q-1 -4 -1 -11q0 -30 46 -52l27 -13q47 32 47 80q0 41 -53 41q-26 0 -44 -13t-22 -32zM254 591l-77 -49l-43 60l153 99h82l-90 -464h-93z" />
    <glyph glyph-name="threeeighths" unicode="&#x215c;" horiz-adv-x="1014" 
d="M748 715l61 -37l-507 -693l-61 37zM612 134q14 72 89 114q-39 28 -39 75q0 66 51.5 107t126.5 41q61 0 96 -27.5t35 -76.5q0 -39 -21 -73t-56 -55q54 -35 54 -86q0 -70 -57 -116t-138 -46q-66 0 -105 30t-39 83q0 14 3 30zM851 124q1 4 1 11q0 19 -14.5 32.5t-48.5 29.5
l-28 13q-56 -37 -56 -90q0 -24 17 -37t46 -13q31 0 54.5 15.5t28.5 38.5zM758 348q-1 -4 -1 -11q0 -30 46 -52l27 -13q47 32 47 80q0 41 -53 41q-26 0 -44 -13t-22 -32zM204 308q39 0 64 22.5t25 54.5q0 55 -86 55h-45l14 74h45q45 0 71.5 20t26.5 54q0 40 -46 40
q-52 0 -89 -40l-56 49q73 71 165 71q58 0 91.5 -27t33.5 -73q0 -45 -26.5 -79.5t-67.5 -50.5q64 -27 64 -89q0 -66 -55.5 -113t-139.5 -47q-106 0 -144 78l76 48q22 -47 79 -47z" />
    <glyph glyph-name="fiveeighths" unicode="&#x215d;" horiz-adv-x="1014" 
d="M748 715l61 -37l-507 -693l-61 37zM612 134q14 72 89 114q-39 28 -39 75q0 66 51.5 107t126.5 41q61 0 96 -27.5t35 -76.5q0 -39 -21 -73t-56 -55q54 -35 54 -86q0 -70 -57 -116t-138 -46q-66 0 -105 30t-39 83q0 14 3 30zM851 124q1 4 1 11q0 19 -14.5 32.5t-48.5 29.5
l-28 13q-56 -37 -56 -90q0 -24 17 -37t46 -13q31 0 54.5 15.5t28.5 38.5zM758 348q-1 -4 -1 -11q0 -30 46 -52l27 -13q47 32 47 80q0 41 -53 41q-26 0 -44 -13t-22 -32zM135 440l-21 14l48 246h276l-16 -80h-187l-18 -94q28 6 56 6q58 0 92.5 -32t34.5 -87q0 -78 -56 -131
t-143 -53q-98 0 -147 66l75 55q31 -39 88 -39q36 0 60.5 25.5t24.5 60.5q0 27 -19 42t-53 15q-48 0 -95 -14z" />
    <glyph glyph-name="seveneighths" unicode="&#x215e;" horiz-adv-x="1014" 
d="M748 715l61 -37l-507 -693l-61 37zM612 134q14 72 89 114q-39 28 -39 75q0 66 51.5 107t126.5 41q61 0 96 -27.5t35 -76.5q0 -39 -21 -73t-56 -55q54 -35 54 -86q0 -70 -57 -116t-138 -46q-66 0 -105 30t-39 83q0 14 3 30zM851 124q1 4 1 11q0 19 -14.5 32.5t-48.5 29.5
l-28 13q-56 -37 -56 -90q0 -24 17 -37t46 -13q31 0 54.5 15.5t28.5 38.5zM758 348q-1 -4 -1 -11q0 -30 46 -52l27 -13q47 32 47 80q0 41 -53 41q-26 0 -44 -13t-22 -32zM436 619l-238 -382h-104l239 381h-203l16 82h306z" />
    <glyph glyph-name="uni215F" unicode="&#x215f;" horiz-adv-x="1014" 
d="M748 715l61 -37l-507 -693l-61 37zM254 591l-77 -49l-43 60l153 99h82l-90 -464h-93z" />
    <glyph glyph-name="arrowleft" unicode="&#x2190;" horiz-adv-x="860" 
d="M834 380v-97h-598l43 -158l-233 207l233 206l-43 -158h598z" />
    <glyph glyph-name="arrowup" unicode="&#x2191;" horiz-adv-x="860" 
d="M489 559v-597h-98v597l-158 -43l207 234l207 -234z" />
    <glyph glyph-name="arrowright" unicode="&#x2192;" horiz-adv-x="860" 
d="M46 283v97h597l-43 158l234 -206l-234 -207l43 158h-597z" />
    <glyph glyph-name="arrowdown" unicode="&#x2193;" horiz-adv-x="860" 
d="M489 750v-597l158 43l-207 -234l-207 234l158 -43v597h98z" />
    <glyph glyph-name="arrowboth" unicode="&#x2194;" horiz-adv-x="860" 
d="M643 283h-407l43 -158l-233 207l233 206l-43 -158h407l-43 158l234 -206l-234 -207z" />
    <glyph glyph-name="arrowupdn" unicode="&#x2195;" horiz-adv-x="860" 
d="M489 559v-406l158 43l-207 -234l-207 234l158 -43v406l-158 -43l207 234l207 -234z" />
    <glyph glyph-name="arrowupdnbse" unicode="&#x21a8;" horiz-adv-x="860" 
d="M489 559v-406l158 43l-186 -210h180v-74h-403v74h181l-186 210l158 -43v406l-158 -43l207 234l207 -234z" />
    <glyph glyph-name="partialdiff" unicode="&#x2202;" horiz-adv-x="593" 
d="M290 606q-74 0 -122 -64l-89 59q77 111 217 111q123 0 191 -93t68 -285q0 -177 -69 -261.5t-192 -84.5q-110 0 -177 64.5t-67 168.5q0 105 62 170.5t163 65.5q87 0 155 -59q-12 208 -140 208zM299 353q-60 0 -91.5 -34t-31.5 -96q0 -129 121 -129q127 0 135 202
q-59 57 -133 57z" />
    <glyph glyph-name="Delta" unicode="&#x2206;" horiz-adv-x="671" 
d="M326 709h39l297 -680l-19 -29h-595l-19 29zM184 105h323l-162 390z" />
    <glyph glyph-name="product" unicode="&#x220f;" horiz-adv-x="712" 
d="M645 740v-851h-124v746h-310v-746h-124v851h558z" />
    <glyph glyph-name="summation" unicode="&#x2211;" horiz-adv-x="613" 
d="M48 -12l216 342l-216 307v103h546v-104h-406l196 -287v-40l-195 -316h405v-104h-546v99z" />
    <glyph glyph-name="minus" unicode="&#x2212;" horiz-adv-x="616" 
d="M569 285h-502v93h502v-93z" />
    <glyph glyph-name="uni2215" unicode="&#x2215;" horiz-adv-x="199" 
d="M262 715l68 -37l-373 -693l-68 37z" />
    <glyph glyph-name="uni2219" unicode="&#x2219;" horiz-adv-x="308" 
d="M92 350q0 31 21 52t51 21t51 -21t21 -52t-21 -52t-51 -21t-51 21t-21 52z" />
    <glyph glyph-name="radical" unicode="&#x221a;" horiz-adv-x="622" 
d="M402 0h-62l-162 302h-72v73h124l123 -227l151 622h91z" />
    <glyph glyph-name="infinity" unicode="&#x221e;" horiz-adv-x="784" 
d="M164 331q0 -31 16.5 -49t49.5 -18q59 0 120 67q-61 67 -120 67q-33 0 -49.5 -18t-16.5 -49zM402 392q83 86 177 86q72 0 115 -40.5t43 -106.5t-43 -106.5t-115 -40.5q-94 0 -177 86q-83 -86 -177 -86q-72 0 -115 40.5t-43 106.5t43 106.5t115 40.5q94 0 177 -86zM640 331
q0 31 -16.5 49t-49.5 18q-59 0 -120 -67q61 -67 120 -67q33 0 49.5 18t16.5 49z" />
    <glyph glyph-name="orthogonal" unicode="&#x221f;" horiz-adv-x="650" 
d="M641 95v-95h-535v575h118v-480h417z" />
    <glyph glyph-name="intersection" unicode="&#x2229;" horiz-adv-x="775" 
d="M398 617q144 0 217.5 -92t73.5 -247v-278h-116v256q0 133 -45 199.5t-130 66.5t-130.5 -66.5t-45.5 -199.5v-256h-116v278q0 155 73.5 247t218.5 92z" />
    <glyph glyph-name="integral" unicode="&#x222b;" horiz-adv-x="418" 
d="M343 750q42 0 70 -4v-93q-25 3 -53 3q-46 0 -64 -19t-18 -60v-630q0 -86 -44 -126.5t-139 -40.5q-42 0 -70 4v93q25 -3 53 -3q46 0 64 19t18 60v630q0 86 44 126.5t139 40.5z" />
    <glyph glyph-name="approxequal" unicode="&#x2248;" horiz-adv-x="616" 
d="M486 502l99 -16q-11 -66 -53 -107.5t-101 -41.5q-64 0 -130 44q-50 33 -84 33q-50 0 -67 -62l-99 16q11 66 53 107.5t101 41.5q64 0 130 -44q49 -33 84 -33q50 0 67 62zM486 313l99 -16q-11 -66 -53 -107.5t-101 -41.5q-64 0 -130 44q-50 33 -84 33q-50 0 -67 -62l-99 16
q11 66 53 107.5t101 41.5q64 0 130 -44q49 -33 84 -33q50 0 67 62z" />
    <glyph glyph-name="notequal" unicode="&#x2260;" horiz-adv-x="617" 
d="M108 51l70 118h-111v92h166l85 141h-251v92h306l94 156l61 -37l-71 -119h112v-92h-167l-85 -141h252v-92h-307l-92 -155z" />
    <glyph glyph-name="equivalence" unicode="&#x2261;" horiz-adv-x="617" 
d="M569 465h-502v92h502v-92zM569 285h-502v92h502v-92zM569 106h-502v92h502v-92z" />
    <glyph glyph-name="lessequal" unicode="&#x2264;" horiz-adv-x="617" 
d="M569 0h-502v92h502v-92zM67 421l466 203l36 -94l-349 -150l349 -150l-36 -94l-466 203v82z" />
    <glyph glyph-name="greaterequal" unicode="&#x2265;" horiz-adv-x="617" 
d="M569 0h-502v92h502v-92zM103 624l466 -203v-82l-466 -203l-36 94l349 150l-349 150z" />
    <glyph glyph-name="house" unicode="&#x2302;" horiz-adv-x="706" 
d="M210 294v-213h306v213l-153 172zM106 0v328l257 288l257 -288v-328h-514z" />
    <glyph glyph-name="revlogicalnot" unicode="&#x2310;" horiz-adv-x="616" 
d="M574 447v-93h-393v-194h-109v287h502z" />
    <glyph glyph-name="uni2318" unicode="&#x2318;" horiz-adv-x="918" 
d="M528 269v113h-118v-113h118zM275 461h42v43q0 72 -58 72q-26 0 -41.5 -16t-15.5 -41q0 -58 73 -58zM317 190h-42q-73 0 -73 -58q0 -25 15.5 -41t41.5 -16q58 0 58 72v43zM528 461v45q0 69 40 110t112 41q70 0 111 -39t41 -99q0 -67 -45 -102t-118 -35h-48v-113h48
q73 0 118 -35t45 -102q0 -60 -41 -99t-111 -39q-72 0 -112 41t-40 110v45h-118v-45q0 -69 -40 -110t-112 -41q-70 0 -111 39t-41 99q0 67 45 102t118 35h48v113h-48q-73 0 -118 35t-45 102q0 60 41 99t111 39q72 0 112 -41t40 -110v-45h118zM621 461h42q31 0 52 15.5
t21 42.5q0 25 -15.5 41t-41.5 16q-58 0 -58 -72v-43zM663 190h-42v-43q0 -72 58 -72q26 0 41.5 16t15.5 41q0 58 -73 58z" />
    <glyph glyph-name="lozenge" unicode="&#x25ca;" horiz-adv-x="562" 
d="M535 302l-244 -459l-244 459l244 459zM151 302l140 -269l140 269l-140 268z" />
    <glyph glyph-name="H18533" unicode="&#x25cf;" horiz-adv-x="1000" 
d="M172 326q0 140 99 239t239 99t239 -99t99 -239t-99 -239t-239 -99t-239 99t-99 239z" />
    <glyph glyph-name="fi" horiz-adv-x="614" 
d="M374 0l82 424h-201l-124 -636h-118l124 636h-91l18 94h91l9 45q17 87 68 127t147 40q37 0 63 -3l-18 -94q-22 3 -48 3q-45 0 -65.5 -19t-29.5 -60l-8 -39h319l-100 -518h-118zM635 667q-6 -31 -31 -51.5t-56 -20.5q-27 0 -44 16t-17 41q0 35 27.5 61t61.5 26
q27 0 43.5 -16t16.5 -42q0 -9 -1 -14z" />
    <glyph glyph-name="fl" horiz-adv-x="604" 
d="M375 730q62 0 127 -17l3 17h118l-141 -730h-118l121 625q-55 11 -109 11q-45 0 -65.5 -19t-29.5 -60l-8 -39h124l-18 -94h-124l-124 -636h-118l124 636h-91l18 94h91l9 45q17 87 67 127t144 40z" />
    <glyph glyph-name="commaaccent" horiz-adv-x="396" 
d="M27 -243l97 201l83 -30l-115 -195z" />
    <glyph glyph-name="zero.tnum" horiz-adv-x="616" 
d="M588 350q-32 -163 -118.5 -262.5t-214.5 -99.5q-102 0 -153 64.5t-51 175.5q0 52 13 122q31 163 117.5 262.5t214.5 99.5q102 0 153 -65t51 -177q0 -57 -12 -120zM190 350q-13 -64 -13 -116q0 -140 99 -140q135 0 186 256q12 64 12 115q0 141 -99 141q-136 0 -185 -256z
" />
    <glyph glyph-name="one.tnum" horiz-adv-x="440" 
d="M153 0l108 559l-138 -87l-56 78l236 150h110l-136 -700h-124z" />
    <glyph glyph-name="two.tnum" horiz-adv-x="557" 
d="M357 712q91 0 142.5 -41.5t51.5 -118.5q0 -97 -87 -202.5t-274 -245.5h289l-20 -104h-464l18 93q88 63 149.5 112t127 109.5t99.5 115t34 100.5q0 76 -92 76q-88 0 -169 -79l-73 64q56 56 126.5 88.5t141.5 32.5z" />
    <glyph glyph-name="three.tnum" horiz-adv-x="578" 
d="M364 712q87 0 139 -39t52 -107q0 -72 -44.5 -126.5t-104.5 -74.5q107 -35 107 -135q0 -103 -82.5 -172.5t-210.5 -69.5q-165 0 -235 115l99 70q51 -79 147 -79q68 0 111.5 33.5t43.5 92.5q0 46 -38 68.5t-100 22.5h-66l20 104h65q67 0 112 33t45 89q0 33 -23.5 51
t-66.5 18q-85 0 -160 -70l-71 68q117 108 261 108z" />
    <glyph glyph-name="four.tnum" horiz-adv-x="583" 
d="M329 140h-327l19 99l426 461h115l-89 -456h89l-20 -104h-89l-27 -140h-124zM400 509l-244 -265h193z" />
    <glyph glyph-name="five.tnum" horiz-adv-x="571" 
d="M115 311l-22 16l73 373h407l-21 -104h-283l-32 -166q42 11 91 11q89 0 140 -46.5t51 -129.5q0 -116 -80.5 -196.5t-212.5 -80.5q-158 0 -225 113l99 70q50 -77 140 -77q63 0 107 41.5t44 104.5q0 45 -32.5 70t-90.5 25q-78 0 -153 -24z" />
    <glyph glyph-name="six.tnum" horiz-adv-x="596" 
d="M382 606q-127 0 -180 -208q78 59 166 59q86 0 135.5 -49t49.5 -131q0 -125 -85.5 -207t-209.5 -82q-207 0 -207 223q0 57 13 123q37 192 123.5 285t209.5 93q141 0 195 -111l-100 -59q-36 64 -110 64zM324 353q-75 0 -144 -57q-6 -42 -6 -73q0 -129 102 -129
q67 0 108.5 44.5t41.5 121.5q0 45 -26 69t-76 24z" />
    <glyph glyph-name="seven.tnum" horiz-adv-x="553" 
d="M581 598l-381 -598h-132l380 596h-343l21 104h475z" />
    <glyph glyph-name="eight.tnum" horiz-adv-x="617" 
d="M129 523q16 83 88 136t178 53q93 0 145.5 -42.5t52.5 -110.5q0 -59 -34.5 -111t-92.5 -84q92 -55 92 -140q0 -103 -87 -169t-216 -66q-104 0 -163.5 43.5t-59.5 120.5q0 71 40.5 129t111.5 94q-58 48 -58 115q0 15 3 32zM162 195q-2 -12 -2 -18q0 -39 32 -60.5t85 -21.5
q66 0 109 28.5t43 79.5q0 34 -31.5 56.5t-129.5 67.5q-89 -48 -106 -132zM462 514q2 16 2 22q0 33 -23.5 51.5t-64.5 18.5q-52 0 -87 -27t-35 -70q0 -28 28 -51.5t97 -51.5q71 40 83 108z" />
    <glyph glyph-name="nine.tnum" horiz-adv-x="596" 
d="M429 302q-78 -59 -166 -59q-86 0 -135.5 49t-49.5 131q0 125 85.5 207t209.5 82q99 0 153 -54.5t54 -168.5q0 -57 -13 -123q-38 -195 -130 -286.5t-221 -91.5q-121 0 -185 79l94 76q37 -49 112 -49q136 0 192 208zM307 347q75 0 144 57q6 40 6 72q0 130 -102 130
q-67 0 -108.5 -44.5t-41.5 -121.5q0 -45 26 -69t76 -24z" />
    <glyph glyph-name="parenleft.case" horiz-adv-x="375" 
d="M114 350q48 249 243 443l70 -38q-217 -253 -217 -545q0 -142 60 -265l-86 -38q-84 137 -84 305q0 65 14 138z" />
    <glyph glyph-name="parenright.case" horiz-adv-x="375" 
d="M297 350q-49 -250 -244 -443l-70 38q218 254 218 542q0 141 -61 268l86 38q84 -137 84 -308q0 -69 -13 -135z" />
    <glyph glyph-name="hyphen.case" horiz-adv-x="404" 
d="M355 299h-290l19 101h290z" />
    <glyph glyph-name="at.case" horiz-adv-x="963" 
d="M274 347q20 100 81 161.5t155 61.5q76 0 120 -56l9 44h105l-56 -286q-2 -14 -2 -20q0 -46 43 -46q52 0 86.5 69.5t34.5 170.5q0 123 -77.5 200t-200.5 77q-79 0 -155 -34.5t-135 -94.5t-95 -147.5t-36 -185.5q0 -129 76 -207t200 -78q129 0 239 77l26 -57
q-125 -84 -278 -84q-159 0 -248 93t-89 243q0 143 67 267t184.5 198.5t256.5 74.5q157 0 248 -92t91 -236q0 -85 -25.5 -159t-79 -122.5t-124.5 -48.5q-92 0 -113 62q-73 -68 -158 -68q-78 0 -117.5 42.5t-39.5 116.5q0 32 7 64zM459 206q64 0 122 56l33 169q-38 56 -101 56
q-68 0 -104 -54t-36 -140q0 -87 86 -87z" />
    <glyph glyph-name="bracketleft.case" horiz-adv-x="418" 
d="M47 -90l171 880h284l-17 -87h-174l-137 -707h174l-17 -86h-284z" />
    <glyph glyph-name="bracketright.case" horiz-adv-x="418" 
d="M406 790l-171 -880h-284l17 86h174l137 707h-174l17 87h284z" />
    <glyph glyph-name="braceleft.case" horiz-adv-x="400" 
d="M116 41l33 165q2 16 2 22q0 37 -23 57.5t-60 20.5l17 87q43 0 76.5 27t42.5 73l22 112q19 100 60 142.5t125 42.5h73l-17 -88h-68q-44 0 -53 -46l-28 -145q-14 -71 -42 -108.5t-89 -52.5q40 -12 57.5 -35.5t17.5 -62.5q0 -30 -7 -64l-28 -145q-2 -10 -2 -14q0 -31 37 -31
h68l-17 -88h-73q-128 0 -128 96q0 18 4 35z" />
    <glyph glyph-name="braceright.case" horiz-adv-x="400" 
d="M231 206l-33 -165q-27 -131 -174 -131h-73l17 88h68q44 0 53 45l28 145q13 71 42 109t90 53q-76 20 -76 98q0 29 7 63l28 145q1 5 1 14q0 32 -36 32h-68l17 88h73q65 0 93.5 -25.5t28.5 -80.5q0 -34 -9 -79l-22 -112q-2 -8 -2 -23q0 -36 23 -56.5t60 -20.5l-17 -87
q-43 0 -76.5 -27t-42.5 -73z" />
    <glyph glyph-name="exclamdown.case" horiz-adv-x="300" 
d="M68 175l90 343h85l-43 -343l-34 -175h-132zM152 639q6 31 31 52t55 21q26 0 42.5 -16.5t16.5 -42.5q0 -34 -27 -60t-60 -26q-26 0 -43 16.5t-17 41.5q0 4 2 14z" />
    <glyph glyph-name="guillemotleft.case" horiz-adv-x="598" 
d="M61 328l9 44l250 159l37 -66l-186 -115l141 -115l-63 -66zM294 328l9 44l250 159l37 -66l-186 -115l141 -115l-63 -66z" />
    <glyph glyph-name="periodcentered.case" horiz-adv-x="308" 
d="M100 350q6 31 31 52t55 21q26 0 42.5 -16.5t16.5 -42.5q0 -35 -27 -61t-61 -26q-26 0 -42.5 16t-16.5 42q0 5 2 15z" />
    <glyph glyph-name="guillemotright.case" horiz-adv-x="598" 
d="M572 372l-9 -44l-250 -159l-37 66l187 115l-142 115l63 66zM339 372l-9 -44l-250 -159l-37 66l187 115l-142 115l63 66z" />
    <glyph glyph-name="questiondown.case" horiz-adv-x="546" 
d="M227 -13q-86 0 -134 36.5t-48 103.5q0 139 158 232q42 25 60 48.5t26 64.5l9 45h124l-10 -53q-21 -111 -132 -176q-59 -34 -82.5 -64.5t-23.5 -69.5q0 -61 84 -61q76 0 144 66l69 -66q-48 -48 -113 -77t-131 -29zM456 638q-6 -31 -31.5 -52t-55.5 -21q-26 0 -42.5 16
t-16.5 42q0 35 27 61.5t61 26.5q26 0 42.5 -17t16.5 -43q0 -9 -1 -13z" />
    <glyph glyph-name="endash.case" horiz-adv-x="500" 
d="M508 303h-500l18 93h500z" />
    <glyph glyph-name="emdash.case" horiz-adv-x="1000" 
d="M1008 303h-1000l18 93h1000z" />
    <glyph glyph-name="bullet.case" horiz-adv-x="448" 
d="M99 349q0 58 38.5 97t96.5 39t96.5 -39t38.5 -97q0 -59 -38.5 -97.5t-96.5 -38.5t-96.5 38.5t-38.5 97.5z" />
    <glyph glyph-name="guilsinglleft.case" horiz-adv-x="365" 
d="M61 328l9 44l250 159l37 -66l-186 -115l141 -115l-63 -66z" />
    <glyph glyph-name="guilsinglright.case" horiz-adv-x="365" 
d="M339 372l-9 -44l-250 -159l-37 66l187 115l-142 115l63 66z" />
    <glyph glyph-name="zero.numerator" 
d="M430 469q-21 -108 -80.5 -173.5t-145.5 -65.5q-69 0 -104.5 43.5t-35.5 118.5q0 131 66.5 223.5t166.5 92.5q69 0 105 -43.5t36 -119.5q0 -33 -8 -76zM333 469q8 43 8 71q0 85 -57 85q-54 0 -88.5 -67.5t-34.5 -163.5q0 -81 59 -81q81 0 113 156z" />
    <glyph glyph-name="one.numerator" 
d="M254 591l-77 -49l-43 60l153 99h82l-90 -464h-93z" />
    <glyph glyph-name="two.numerator" 
d="M269 625q-47 0 -93 -43l-57 50q79 76 175 76q57 0 90 -28.5t33 -77.5q0 -116 -222 -285h172l-15 -80h-307l13 69q112 80 185.5 153.5t73.5 121.5q0 19 -12.5 31.5t-35.5 12.5z" />
    <glyph glyph-name="three.numerator" 
d="M204 308q39 0 64 22.5t25 54.5q0 55 -86 55h-45l14 74h45q45 0 71.5 20t26.5 54q0 40 -46 40q-52 0 -89 -40l-56 49q73 71 165 71q58 0 91.5 -27t33.5 -73q0 -45 -26.5 -79.5t-67.5 -50.5q64 -27 64 -89q0 -66 -55.5 -113t-139.5 -47q-106 0 -144 78l76 48q22 -47 79 -47
z" />
    <glyph glyph-name="four.numerator" 
d="M253 331h-212l15 76l266 293h95l-56 -288h54l-16 -81h-54l-18 -94h-92zM299 567l-140 -155h110z" />
    <glyph glyph-name="five.numerator" 
d="M135 440l-21 14l48 246h276l-16 -80h-187l-18 -94q28 6 56 6q58 0 92.5 -32t34.5 -87q0 -78 -56 -131t-143 -53q-98 0 -147 66l75 55q31 -39 88 -39q36 0 60.5 25.5t24.5 60.5q0 27 -19 42t-53 15q-48 0 -95 -14z" />
    <glyph glyph-name="six.numerator" 
d="M290 628q-32 0 -59 -29.5t-41 -87.5q49 34 98 34q57 0 89.5 -32.5t32.5 -87.5q0 -84 -57.5 -140t-141.5 -56q-65 0 -102 39t-37 115q0 30 8 73q25 127 83.5 189.5t139.5 62.5q98 0 135 -77l-74 -44q-22 41 -74 41zM255 464q-42 0 -83 -32q-3 -23 -3 -40q0 -82 56 -82
q38 0 63 27t25 71q0 26 -15.5 41t-42.5 15z" />
    <glyph glyph-name="seven.numerator" 
d="M436 619l-238 -382h-104l239 381h-203l16 82h306z" />
    <glyph glyph-name="eight.numerator" 
d="M64 371q14 71 89 114q-39 28 -39 75q0 66 51.5 107t126.5 41q61 0 96 -27.5t35 -76.5q0 -39 -21 -73t-56 -55q54 -35 54 -86q0 -70 -57 -116t-138 -46q-66 0 -105 30.5t-39 83.5q0 14 3 29zM303 361q1 4 1 11q0 19 -14.5 32.5t-48.5 29.5l-28 13q-56 -38 -56 -90
q0 -24 17 -37t46 -13q31 0 54.5 15.5t28.5 38.5zM210 585q-1 -4 -1 -11q0 -30 46 -52l27 -13q47 32 47 80q0 41 -53 41q-26 0 -44 -13t-22 -32z" />
    <glyph glyph-name="nine.numerator" 
d="M207 308q74 0 103 115q-46 -32 -95 -32q-57 0 -91 33t-34 89q0 83 58 139t141 56q65 0 102 -38.5t37 -112.5q0 -31 -8 -74q-48 -254 -227 -254q-83 0 -126 55l69 56q26 -32 71 -32zM246 472q43 0 81 32q4 21 4 44q0 78 -56 78q-37 0 -62.5 -27.5t-25.5 -70.5
q0 -26 15.5 -41t43.5 -15z" />
    <glyph glyph-name="zero.denominator" 
d="M384 232q-21 -108 -80.5 -173.5t-145.5 -65.5q-69 0 -104.5 43.5t-35.5 118.5q0 131 66.5 223.5t166.5 92.5q69 0 105 -43.5t36 -119.5q0 -33 -8 -76zM287 232q8 43 8 71q0 85 -57 85q-54 0 -88.5 -67.5t-34.5 -163.5q0 -81 59 -81q81 0 113 156z" />
    <glyph glyph-name="one.denominator" 
d="M208 354l-77 -49l-44 60l154 99h82l-90 -464h-93z" />
    <glyph glyph-name="two.denominator" 
d="M223 388q-47 0 -93 -43l-57 50q79 76 175 76q57 0 90 -28.5t33 -77.5q0 -116 -222 -285h172l-15 -80h-307l13 69q112 80 185.5 153.5t73.5 121.5q0 19 -12.5 31.5t-35.5 12.5z" />
    <glyph glyph-name="three.denominator" 
d="M158 71q39 0 64 22.5t25 54.5q0 55 -86 55h-45l14 74h45q45 0 71.5 20t26.5 54q0 40 -46 40q-52 0 -89 -40l-56 49q73 71 165 71q58 0 91.5 -27t33.5 -73q0 -45 -26.5 -79.5t-67.5 -50.5q64 -27 64 -89q0 -66 -55.5 -113t-139.5 -47q-106 0 -144 78l75 48q24 -47 80 -47z
" />
    <glyph glyph-name="four.denominator" 
d="M207 94h-212l15 76l265 293h95l-55 -288h54l-16 -81h-54l-18 -94h-92zM253 330l-140 -155h110z" />
    <glyph glyph-name="five.denominator" 
d="M89 203l-21 14l47 246h276l-15 -80h-187l-18 -94q27 6 56 6q58 0 92.5 -32t34.5 -87q0 -78 -56 -131t-143 -53q-98 0 -147 66l74 55q32 -39 89 -39q36 0 60.5 25.5t24.5 60.5q0 27 -19 42t-53 15q-48 0 -95 -14z" />
    <glyph glyph-name="six.denominator" 
d="M244 391q-32 0 -59 -29.5t-41 -87.5q49 34 98 34q57 0 89.5 -32.5t32.5 -87.5q0 -84 -57.5 -140t-141.5 -56q-65 0 -102 39t-37 115q0 30 8 73q25 127 83.5 189.5t139.5 62.5q98 0 135 -77l-74 -44q-22 41 -74 41zM209 227q-42 0 -83 -32q-3 -23 -3 -40q0 -82 56 -82
q38 0 63 27t25 71q0 26 -15.5 41t-42.5 15z" />
    <glyph glyph-name="seven.denominator" 
d="M390 382l-238 -382h-104l239 381h-203l15 82h306z" />
    <glyph glyph-name="eight.denominator" 
d="M18 134q14 72 89 114q-39 28 -39 75q0 66 51.5 107t126.5 41q61 0 96 -27.5t35 -76.5q0 -39 -21 -73t-56 -55q54 -35 54 -86q0 -70 -57 -116t-138 -46q-66 0 -105 30t-39 83q0 14 3 30zM257 124q1 4 1 11q0 19 -14.5 32.5t-48.5 29.5l-28 13q-56 -37 -56 -90
q0 -24 17 -37t46 -13q31 0 54.5 15.5t28.5 38.5zM164 348q-1 -4 -1 -11q0 -30 46 -52l27 -13q47 32 47 80q0 41 -53 41q-26 0 -44 -13t-22 -32z" />
    <glyph glyph-name="nine.denominator" 
d="M161 71q74 0 103 115q-46 -32 -96 -32q-57 0 -90.5 33t-33.5 88q0 83 58 139.5t141 56.5q65 0 102 -38.5t37 -112.5q0 -31 -8 -74q-48 -254 -227 -254q-83 0 -126 55l69 56q24 -32 71 -32zM200 235q43 0 81 32q4 21 4 44q0 78 -56 78q-37 0 -62.5 -27.5t-25.5 -70.5
q0 -26 15.5 -41t43.5 -15z" />
    </font>
</defs>
</svg>
