<?xml version="1.0" standalone="no"?>
<!DOCTYPE svg PUBLIC "-//W3C//DTD SVG 1.1//EN" "http://www.w3.org/Graphics/SVG/1.1/DTD/svg11.dtd" >
<svg xmlns="http://www.w3.org/2000/svg" xmlns:xlink="http://www.w3.org/1999/xlink" version="1.1">
<metadata>
Created by FontForge 20161013 at Thu Jan  8 20:47:46 2015
 By ,,,
Copyright (c) 2015 by S-Core Co., Ltd.. All rights reserved.
</metadata>
<defs>
<font id="CoreSansE-55MediumIt" horiz-adv-x="376" >
  <font-face 
    font-family="Core Sans E 55 Medium"
    font-weight="500"
    font-style="italic"
    font-stretch="normal"
    units-per-em="1000"
    panose-1="2 11 6 3 3 3 2 2 2 4"
    ascent="800"
    descent="-200"
    x-height="500"
    cap-height="700"
    bbox="-440 -238 1095.31 1009"
    underline-thickness="24"
    underline-position="-255"
    slope="-11"
    unicode-range="U+0008-FB04"
  />
<missing-glyph horiz-adv-x="420" 
d="M400 0h-360v750h360v-750zM115 65h210v620h-210v-620z" />
    <glyph glyph-name="f_f" unicode="ff" horiz-adv-x="659" 
d="M708 613h-48q-41 0 -59.5 -14t-24.5 -48l-10 -51h120l-19 -94h-120l-78 -406h-114l78 406h-190l-78 -406h-114l78 406h-71l19 94h71l11 56q16 83 63 117t146 34q38 0 68 -6l-17 -88h-53q-48 0 -67.5 -13t-26.5 -49l-10 -51h190l11 56q16 82 62 116.5t137 34.5q36 0 63 -4
z" />
    <glyph glyph-name="f_i" unicode="fi" horiz-adv-x="594" 
d="M404 613h-48q-41 0 -59.5 -14t-24.5 -48l-10 -51h120l-19 -94h-120l-78 -406h-114l78 406h-71l19 94h71l11 56q16 82 62 116.5t137 34.5q36 0 63 -4zM479 590l22 110h114l-22 -110h-114zM365 0l97 500h114l-97 -500h-114z" />
    <glyph glyph-name="f_l" unicode="fl" horiz-adv-x="594" 
d="M404 613h-48q-41 0 -59.5 -14t-24.5 -48l-10 -51h120l-19 -94h-120l-78 -406h-114l78 406h-71l19 94h71l11 56q16 82 62 116.5t137 34.5q36 0 63 -4zM479 0h-114l136 700h114z" />
    <glyph glyph-name="f_f_i" unicode="ffi" horiz-adv-x="898" 
d="M783 590l22 110h114l-22 -110h-114zM669 0l97 500h114l-97 -500h-114zM708 613h-48q-41 0 -59.5 -14t-24.5 -48l-10 -51h120l-19 -94h-120l-78 -406h-114l78 406h-190l-78 -406h-114l78 406h-71l19 94h71l11 56q16 83 63 117t146 34q38 0 68 -6l-17 -88h-53
q-48 0 -67.5 -13t-26.5 -49l-10 -51h190l11 56q16 82 62 116.5t137 34.5q36 0 63 -4z" />
    <glyph glyph-name="f_f_l" unicode="ffl" horiz-adv-x="898" 
d="M783 0h-114l136 700h114zM708 613h-48q-41 0 -59.5 -14t-24.5 -48l-10 -51h120l-19 -94h-120l-78 -406h-114l78 406h-190l-78 -406h-114l78 406h-71l19 94h71l11 56q16 83 63 117t146 34q38 0 68 -6l-17 -88h-53q-48 0 -67.5 -13t-26.5 -49l-10 -51h190l11 56
q16 82 62 116.5t137 34.5q36 0 63 -4z" />
    <glyph glyph-name=".notdef" horiz-adv-x="420" 
d="M400 0h-360v750h360v-750zM115 65h210v620h-210v-620z" />
    <glyph glyph-name=".null" horiz-adv-x="0" 
 />
    <glyph glyph-name=".null" horiz-adv-x="0" 
 />
    <glyph glyph-name=".null" horiz-adv-x="0" 
 />
    <glyph glyph-name="nonmarkingreturn" horiz-adv-x="333" 
 />
    <glyph glyph-name="CR" unicode="&#x9;" horiz-adv-x="237" 
 />
    <glyph glyph-name="CR" unicode="&#xd;" horiz-adv-x="237" 
 />
    <glyph glyph-name="space" unicode=" " horiz-adv-x="260" 
 />
    <glyph glyph-name="exclam" unicode="!" horiz-adv-x="314" 
d="M99 191l63 388l24 121h114l-24 -121l-87 -388h-90zM50 0l21 110h114l-21 -110h-114z" />
    <glyph glyph-name="quotedbl" unicode="&#x22;" horiz-adv-x="422" 
d="M285 500l39 200h104l-39 -200h-104zM127 500l39 200h104l-39 -200h-104z" />
    <glyph glyph-name="numbersign" unicode="#" horiz-adv-x="668" 
d="M272 0l75 185h-128l-75 -185h-104l75 185h-96l18 90h115l62 150h-114l18 90h133l77 185h104l-77 -185h128l77 185h104l-77 -185h97l-18 -90h-116l-62 -150h115l-18 -90h-134l-75 -185h-104zM318 425l-62 -150h128l62 150h-128z" />
    <glyph glyph-name="dollar" unicode="$" horiz-adv-x="580" 
d="M280 -10l-15 -77h-82l15 78q-93 10 -135 66t-25 141l2 12h120l-3 -15q-7 -37 9.5 -62.5t51.5 -35.5l42 214l-18 4q-83 18 -120.5 68t-22.5 131q16 78 78.5 133t160.5 63l14 77h82l-15 -79q85 -12 122 -66t22 -128l-1 -9h-120l1 9q13 65 -45 86l-37 -192l27 -6
q83 -18 119.5 -70t20.5 -134q-17 -86 -83 -142t-165 -66zM407 195q9 41 -7 66t-61 36l-39 -202q43 8 71.5 34.5t35.5 65.5zM219 514q-13 -73 62 -93l36 184q-40 -7 -65.5 -31.5t-32.5 -59.5z" />
    <glyph glyph-name="percent" unicode="%" horiz-adv-x="814" 
d="M165 0l423 700h97l-423 -700h-97zM400 523q-21 -107 -77 -153q-42 -36 -107 -36q-63 0 -93 36q-38 48 -17 153q21 107 77 153q43 36 107 36t93 -36q38 -48 17 -153zM202 523q-13 -66 -2 -89q9 -18 32 -18q25 0 40 18q19 23 32 89t2 89q-7 18 -32 18q-24 0 -40 -18
q-19 -23 -32 -89zM449 177q21 107 77 153q43 36 107 36t93 -36q38 -48 17 -153q-21 -107 -77 -153q-43 -36 -107 -36t-93 36q-38 48 -17 153zM647 177q13 66 2 89q-7 18 -32 18q-23 0 -40 -18q-19 -23 -32 -89t-2 -89q7 -18 32 -18q23 0 40 18q19 23 32 89z" />
    <glyph glyph-name="ampersand" unicode="&#x26;" horiz-adv-x="653" 
d="M496 347h116q-32 -132 -94 -216l90 -131h-139l-36 51q-81 -63 -201 -63q-108 0 -160.5 56t-34.5 150q26 128 162 198q-29 45 -38.5 81.5t-1.5 77.5q14 74 74.5 117.5t142.5 43.5t125.5 -43.5t29.5 -117.5l-5 -24h-116l4 20q6 30 -9.5 47.5t-48.5 17.5t-54.5 -17.5
t-27.5 -47.5q-9 -48 28 -101l150 -219q26 51 44 120zM154 196q-11 -53 18 -80.5t81 -27.5q73 0 125 43l-132 192q-78 -50 -92 -127z" />
    <glyph glyph-name="quotesingle" unicode="'" horiz-adv-x="264" 
d="M127 500l39 200h104l-39 -200h-104z" />
    <glyph glyph-name="parenleft" unicode="(" horiz-adv-x="329" 
d="M97 346q22 113 47.5 193t53 130.5t62.5 79.5t71 39.5t83 10.5l-20 -101q-43 0 -69.5 -22t-55.5 -100t-58 -230q-30 -152 -31.5 -230t16.5 -100t61 -22l-19 -101q-47 0 -79 10.5t-55.5 39.5t-31.5 79.5t-2.5 130.5t27.5 193z" />
    <glyph glyph-name="parenright" unicode=")" horiz-adv-x="329" 
d="M266 346q-22 -113 -47.5 -193t-53 -130.5t-62.5 -79.5t-70.5 -39.5t-82.5 -10.5l18 101q43 0 69.5 22t55.5 100t59 230q29 152 30.5 230t-16.5 100t-61 22l20 101q47 0 79 -10.5t55.5 -39.5t31.5 -79.5t2.5 -130.5t-27.5 -193z" />
    <glyph glyph-name="asterisk" unicode="*" horiz-adv-x="514" 
d="M45 394l52 90l130 -91l-12 159h104l-13 -159l131 91l52 -90l-144 -68l144 -68l-52 -90l-131 90l13 -158h-104l12 158l-130 -90l-52 90l143 68z" />
    <glyph glyph-name="plus" unicode="+" horiz-adv-x="540" 
d="M60 279v94h168v179h104v-179h168v-94h-168v-179h-104v179h-168z" />
    <glyph glyph-name="comma" unicode="," horiz-adv-x="282" 
d="M178 126l-24 -126q-10 -50 -49.5 -81.5t-99.5 -33.5l11 54q63 5 75 61h-63l24 126h126z" />
    <glyph glyph-name="hyphen" unicode="-" horiz-adv-x="412" 
d="M53 276l20 100h312l-20 -100h-312z" />
    <glyph glyph-name="period" unicode="." horiz-adv-x="282" 
d="M178 126l-24 -126h-126l24 126h126z" />
    <glyph glyph-name="slash" unicode="/" horiz-adv-x="440" 
d="M542 783l-499 -876h-111l498 876h112z" />
    <glyph glyph-name="zero" unicode="0" horiz-adv-x="564" 
d="M535 350q-42 -218 -135 -300q-70 -62 -171 -62q-102 0 -147 62q-60 82 -17 300q41 218 134 300q70 62 171 62q102 0 147 -62q31 -42 35.5 -111t-17.5 -189zM419 350q34 176 5 225q-22 37 -74 37q-51 0 -88 -37q-26 -26 -44 -76.5t-37 -148.5q-19 -96 -20.5 -147.5
t14.5 -77.5q22 -37 74 -37q51 0 88 37q26 26 44 76.5t38 148.5z" />
    <glyph glyph-name="one" unicode="1" horiz-adv-x="564" 
d="M340 0h-116l112 578l-174 -70l22 112l193 80h99z" />
    <glyph glyph-name="two" unicode="2" horiz-adv-x="564" 
d="M107 481l4 20q18 91 88 151t171 60t148 -60t29 -151q-10 -52 -31 -86t-68 -79l-251 -236h282l-19 -100h-436l17 90l323 306q56 52 67 104q10 52 -12 82t-69 30t-80 -30t-43 -82l-4 -19h-116z" />
    <glyph glyph-name="three" unicode="3" horiz-adv-x="564" 
d="M39 198l3 13h117l-2 -6q-10 -55 15.5 -86t74.5 -31t86.5 31t47.5 86q11 55 -14.5 86.5t-74.5 31.5h-72l19 97h72q41 0 71.5 26t39.5 70q8 44 -12.5 70t-61.5 26t-71.5 -26t-38.5 -70l-1 -5h-116l3 15q15 82 81 134t163 52t142 -52t30 -134q-11 -52 -47.5 -95t-86.5 -59
q56 -17 80 -62t11 -112q-19 -96 -93.5 -153t-176.5 -57t-154.5 57t-33.5 153z" />
    <glyph glyph-name="four" unicode="4" horiz-adv-x="564" 
d="M159 244h166l54 280zM517 244l-20 -100h-76l-27 -144h-116l27 144h-285l20 100l360 456h130l-89 -456h76z" />
    <glyph glyph-name="five" unicode="5" horiz-adv-x="564" 
d="M303 354q-54 0 -90 -44h-116l94 390h365l-20 -100h-257l-48 -196q17 22 49.5 36t67.5 14q89 0 131.5 -60.5t20.5 -173.5q-21 -109 -92.5 -170.5t-175.5 -61.5q-98 0 -146.5 54t-36.5 148h116q-4 -49 19 -75.5t68 -26.5q50 0 84.5 34t47.5 99t-8.5 99t-72.5 34z" />
    <glyph glyph-name="six" unicode="6" horiz-adv-x="564" 
d="M554 536h-119q0 76 -77 76q-58 0 -93.5 -53.5t-60.5 -168.5q45 64 138 64q94 0 139.5 -63t24.5 -170q-21 -106 -97 -169.5t-175 -63.5q-108 0 -154 79q-44 72 -10 249q43 222 118 311q73 85 190 85q86 0 133 -45t43 -131zM390 221q13 62 -10.5 97.5t-74.5 35.5
t-87.5 -35.5t-49.5 -97.5q-12 -62 11.5 -97.5t74.5 -35.5t87.5 35.5t48.5 97.5z" />
    <glyph glyph-name="seven" unicode="7" horiz-adv-x="564" 
d="M131 600l20 100h435l-18 -89l-347 -611h-122l348 600h-316z" />
    <glyph glyph-name="eight" unicode="8" horiz-adv-x="564" 
d="M294 323q-54 0 -94.5 -32t-50.5 -86q-10 -53 17.5 -85t82.5 -32q54 0 94 31.5t50 85.5t-17.5 86t-81.5 32zM229 -12q-106 0 -161.5 57t-36.5 153q12 65 53.5 109t103.5 65q-43 18 -63 60t-9 94q15 82 84 134t170 52t149 -52t33 -134q-11 -52 -47 -94t-85 -60
q114 -43 89 -174q-19 -96 -96.5 -153t-183.5 -57zM313 420q46 0 79.5 26.5t41.5 69.5t-15 69.5t-69 26.5t-79 -26.5t-41 -69.5t14.5 -69.5t68.5 -26.5z" />
    <glyph glyph-name="nine" unicode="9" horiz-adv-x="564" 
d="M45 164h119q0 -76 77 -76q58 0 93.5 53.5t60.5 168.5q-45 -64 -138 -64q-94 0 -139.5 63t-24.5 170q21 106 97 169.5t175 63.5q107 0 155 -79q43 -72 9 -249q-43 -222 -118 -311q-73 -85 -190 -85q-86 0 -133 45t-43 131zM209 479q-13 -62 10.5 -97.5t74.5 -35.5
t87.5 35.5t49.5 97.5q12 62 -11.5 97.5t-74.5 35.5t-87.5 -35.5t-48.5 -97.5z" />
    <glyph glyph-name="colon" unicode=":" horiz-adv-x="282" 
d="M251 500l-25 -126h-126l25 126h126zM178 126l-24 -126h-126l24 126h126z" />
    <glyph glyph-name="semicolon" unicode=";" horiz-adv-x="282" 
d="M178 126l-24 -126q-10 -50 -49.5 -81.5t-99.5 -33.5l11 54q63 5 75 61h-63l24 126h126zM251 500l-25 -126h-126l25 126h126z" />
    <glyph glyph-name="less" unicode="&#x3c;" horiz-adv-x="540" 
d="M492 97l-424 183v92l424 183v-104l-304 -125l304 -125v-104z" />
    <glyph glyph-name="equal" unicode="=" horiz-adv-x="540" 
d="M60 192v94h440v-94h-440zM60 366v94h440v-94h-440z" />
    <glyph glyph-name="greater" unicode="&#x3e;" horiz-adv-x="540" 
d="M492 280l-424 -183v104l304 125l-304 125v104l424 -183v-92z" />
    <glyph glyph-name="question" unicode="?" horiz-adv-x="531" 
d="M218 510h-114v3q18 89 84 144t163 55t142 -55t27 -144q-12 -59 -40.5 -99.5t-81.5 -80.5q-46 -35 -66 -62t-28 -66l-4 -24h-114l6 32q11 56 37 93t86 83q45 34 64.5 59.5t26.5 61.5q9 49 -12 75.5t-63 26.5t-73 -26.5t-40 -75.5zM151 0l21 110h114l-21 -110h-114z" />
    <glyph glyph-name="at" unicode="@" horiz-adv-x="756" 
d="M449 623q-78 0 -126 -29t-85 -107.5t-66 -225.5q-18 -91 -21.5 -155t4 -104t29.5 -63t51 -31t73 -8q64 0 116 26l15 -82q-71 -33 -148 -33q-60 0 -103 11.5t-77 42t-49 80.5t-14 129t22 187q48 244 139.5 347.5t256.5 103.5t216.5 -103.5t3.5 -347.5q-24 -122 -91 -187.5
t-166 -65.5t-138.5 62t-18.5 169q22 112 82.5 171.5t144.5 59.5q91 0 108 -63q12 120 -25 168t-133 48zM580 239q14 70 -3.5 103.5t-69.5 33.5t-82.5 -33.5t-44.5 -103.5t3.5 -103.5t69.5 -33.5t82.5 33.5t44.5 103.5z" />
    <glyph glyph-name="A" unicode="A" horiz-adv-x="616" 
d="M84 0h-124l363 700h142l91 -700h-124l-17 149h-259zM405 253l-34 332l-163 -332h197z" />
    <glyph glyph-name="B" unicode="B" horiz-adv-x="608" 
d="M220 412h117q62 0 96.5 21t43.5 71q10 50 -16.5 71t-88.5 21h-117zM302 0h-282l136 700h262q217 0 181 -188q-23 -114 -132 -147q55 -13 79.5 -57.5t11.5 -107.5q-39 -200 -256 -200zM440 206q10 55 -15 79t-90 24h-135l-40 -205h135q65 0 99.5 23.5t45.5 78.5z" />
    <glyph glyph-name="C" unicode="C" horiz-adv-x="638" 
d="M68 350q34 177 112 263q89 99 233 99q121 0 179 -68t41 -178h-120q11 66 -20.5 104t-99.5 38q-77 0 -127 -56q-50 -57 -78 -202t-1 -202q27 -56 105 -56q68 0 114.5 38t61.5 104h120q-26 -110 -110.5 -178t-205.5 -68q-143 0 -195 99q-44 89 -9 263z" />
    <glyph glyph-name="D" unicode="D" horiz-adv-x="644" 
d="M492 350q26 139 -4 198q-24 48 -110 48h-123l-95 -492h123q84 0 128 48q53 58 81 198zM612 350q-17 -85 -41 -147.5t-69 -112.5q-81 -90 -227 -90h-255l136 700h255q147 0 192 -90q18 -34 23 -80t0.5 -85.5t-14.5 -94.5z" />
    <glyph glyph-name="E" unicode="E" horiz-adv-x="541" 
d="M20 0l136 700h421l-21 -104h-301l-36 -185h265l-20 -104h-265l-39 -203h306l-20 -104h-426z" />
    <glyph glyph-name="F" unicode="F" horiz-adv-x="516" 
d="M20 0l136 700h416l-21 -104h-296l-38 -195h265l-20 -104h-265l-57 -297h-120z" />
    <glyph glyph-name="G" unicode="G" horiz-adv-x="655" 
d="M68 350q34 177 112 263q89 99 233 99q121 0 179 -68t41 -178h-120q11 66 -20.5 104t-99.5 38q-77 0 -127 -56q-50 -57 -78 -202t-1 -202q27 -56 105 -56q81 0 130 53q38 42 50 103l4 20h-144l19 100h262l-71 -368h-86l-2 86q-28 -44 -78.5 -71t-111.5 -27q-135 0 -187 99
q-44 89 -9 263z" />
    <glyph glyph-name="H" unicode="H" horiz-adv-x="632" 
d="M392 0l59 307h-252l-59 -307h-120l136 700h120l-57 -289h252l57 289h120l-136 -700h-120z" />
    <glyph glyph-name="I" unicode="I" horiz-adv-x="260" 
d="M276 700l-136 -700h-120l136 700h120z" />
    <glyph glyph-name="J" unicode="J" horiz-adv-x="538" 
d="M13 223h120q-22 -131 80 -131q106 0 134 140l91 468h120l-95 -486q-21 -109 -92.5 -167.5t-178.5 -58.5q-105 0 -153.5 58.5t-27.5 167.5z" />
    <glyph glyph-name="K" unicode="K" horiz-adv-x="596" 
d="M656 700l-281 -341l176 -359h-134l-149 307h-69l-59 -307h-120l136 700h120l-57 -289h69l237 289h131z" />
    <glyph glyph-name="L" unicode="L" horiz-adv-x="512" 
d="M20 0l136 700h120l-116 -596h306l-20 -104h-426z" />
    <glyph glyph-name="M" unicode="M" horiz-adv-x="842" 
d="M426 0h-110l-88 467l-90 -467h-118l136 700h132l108 -570l330 570h132l-136 -700h-118l90 467z" />
    <glyph glyph-name="N" unicode="N" horiz-adv-x="642" 
d="M399 0l-166 491l-95 -491h-118l136 700h123l165 -491l96 491h118l-136 -700h-123z" />
    <glyph glyph-name="O" unicode="O" horiz-adv-x="650" 
d="M498 350q28 143 0 202q-27 56 -105 56q-77 0 -127 -56q-50 -57 -78 -202t-1 -202q27 -56 105 -56q77 0 127 56q51 58 79 202zM68 350q34 177 112 263q89 99 233 99q145 0 195 -99q43 -88 10 -263q-36 -178 -113 -263q-88 -99 -233 -99q-143 0 -195 99q-44 89 -9 263z" />
    <glyph glyph-name="P" unicode="P" horiz-adv-x="599" 
d="M210 362h141q118 0 142 117q11 57 -13.5 87t-83.5 30h-141zM348 258h-158l-50 -258h-120l136 700h278q104 0 151.5 -58t27.5 -163q-21 -106 -91 -163.5t-174 -57.5z" />
    <glyph glyph-name="Q" unicode="Q" horiz-adv-x="650" 
d="M68 350q34 177 112 263q89 99 233 99q145 0 195 -99q43 -88 10 -263q-32 -156 -93 -239l66 -67l-77 -71l-64 65q-73 -50 -178 -50q-143 0 -195 99q-44 89 -9 263zM498 350q28 143 0 202q-27 56 -105 56q-77 0 -127 -56q-50 -57 -78 -202t-1 -202q27 -56 105 -56
q54 0 85 21l-70 73l76 71l65 -67q29 53 50 160z" />
    <glyph glyph-name="R" unicode="R" horiz-adv-x="621" 
d="M406 62l12 91q8 55 -14.5 80t-80.5 25h-133l-50 -258h-120l136 700h277q109 0 155 -55t26 -158q-27 -138 -152 -176q50 -11 68 -45.5t9 -103.5l-13 -98q-4 -40 0 -64h-122q-4 22 2 62zM210 362h138q122 0 145 117q22 117 -100 117h-138z" />
    <glyph glyph-name="S" unicode="S" horiz-adv-x="580" 
d="M528 198q-18 -94 -95 -152t-191 -58t-168 58t-36 152l2 12h120l-3 -15q-9 -47 19.5 -75t85.5 -28t96.5 28t48.5 75q17 82 -79 103l-86 19q-173 38 -143 197q17 85 88.5 141.5t182.5 56.5t160.5 -56.5t32.5 -141.5l-1 -9h-120l1 9q8 42 -16 68t-77 26t-88 -26t-43 -68
q-7 -40 12.5 -62t68.5 -33l86 -19q174 -38 142 -202z" />
    <glyph glyph-name="T" unicode="T" horiz-adv-x="534" 
d="M80 596l21 104h504l-21 -104h-192l-115 -596h-120l115 596h-192z" />
    <glyph glyph-name="U" unicode="U" horiz-adv-x="652" 
d="M293 92q141 0 177 183l83 425h120l-86 -442q-25 -124 -106 -197t-208 -73t-180 73t-28 197l86 442h120l-83 -425q-36 -183 105 -183z" />
    <glyph glyph-name="V" unicode="V" horiz-adv-x="616" 
d="M286 145l282 555h124l-363 -700h-142l-91 700h124z" />
    <glyph glyph-name="W" unicode="W" horiz-adv-x="948" 
d="M652 150l243 550h124l-318 -700h-147l-30 515l-230 -515h-147l-46 700h124l29 -550l245 550h122z" />
    <glyph glyph-name="X" unicode="X" horiz-adv-x="608" 
d="M-35 0l285 362l-134 338h132l93 -249l191 249h132l-267 -338l146 -362h-132l-105 272l-209 -272h-132z" />
    <glyph glyph-name="Y" unicode="Y" horiz-adv-x="606" 
d="M327 382l224 318h126l-311 -424l-53 -276h-120l53 276l-145 424h126z" />
    <glyph glyph-name="Z" unicode="Z" horiz-adv-x="542" 
d="M8 94l409 502h-302l21 104h447l-19 -94l-409 -502h317l-20 -104h-462z" />
    <glyph glyph-name="bracketleft" unicode="[" horiz-adv-x="342" 
d="M11 -93l171 876h222l-20 -99h-108l-131 -678h108l-20 -99h-222z" />
    <glyph glyph-name="backslash" unicode="\" horiz-adv-x="440" 
d="M259 -93l-157 876h112l157 -876h-112z" />
    <glyph glyph-name="bracketright" unicode="]" horiz-adv-x="342" 
d="M364 783l-171 -876h-222l20 99h108l131 678h-108l20 99h222z" />
    <glyph glyph-name="asciicircum" unicode="^" horiz-adv-x="432" 
d="M276 700l146 -232h-112l-84 137l-84 -137h-112l146 232h100z" />
    <glyph glyph-name="underscore" unicode="_" horiz-adv-x="500" 
d="M-83 -172l14 72h499l-14 -72h-499z" />
    <glyph glyph-name="grave" unicode="`" horiz-adv-x="380" 
d="M263 569l-94 161h129l64 -161h-99z" />
    <glyph glyph-name="a" unicode="a" horiz-adv-x="550" 
d="M326 0l14 77q-21 -41 -62.5 -65t-92.5 -24q-93 0 -131.5 64.5t-13.5 197.5q26 133 90 197.5t157 64.5q51 0 83 -24t38 -65l15 77h114l-97 -500h-114zM231 82q60 0 93.5 43t49.5 125q18 76 0.5 122t-77.5 46t-93.5 -43t-49.5 -125q-18 -76 -0.5 -122t77.5 -46z" />
    <glyph glyph-name="b" unicode="b" horiz-adv-x="550" 
d="M138 77l-14 -77h-114l136 700h114l-54 -277q21 41 62.5 65t92.5 24q93 0 132 -64.5t13 -197.5q-25 -133 -89.5 -197.5t-157.5 -64.5q-51 0 -83 24t-38 65zM249 82q60 0 93.5 43t49.5 125q18 76 0.5 122t-77.5 46t-93.5 -43t-49.5 -125q-18 -76 -0.5 -122t77.5 -46z" />
    <glyph glyph-name="c" unicode="c" horiz-adv-x="520" 
d="M40 250q25 127 94.5 194.5t180.5 67.5q95 0 142.5 -46t40.5 -131h-115q4 39 -18.5 61t-67.5 22q-60 0 -93.5 -43t-49.5 -125q-18 -76 -0.5 -122t77.5 -46q45 0 76.5 22t42.5 61h115q-26 -85 -91.5 -131t-160.5 -46q-111 0 -154.5 67.5t-18.5 194.5z" />
    <glyph glyph-name="d" unicode="d" horiz-adv-x="550" 
d="M326 0l14 77q-21 -41 -62.5 -65t-92.5 -24q-93 0 -131.5 64.5t-13.5 197.5q26 133 90 197.5t157 64.5q51 0 83 -24t38 -65l54 277h114l-136 -700h-114zM231 82q60 0 93.5 43t49.5 125q18 76 0.5 122t-77.5 46t-93.5 -43t-49.5 -125q-18 -76 -0.5 -122t77.5 -46z" />
    <glyph glyph-name="e" unicode="e" horiz-adv-x="532" 
d="M481 215h-333q-19 -133 83 -133q40 0 69.5 18.5t42.5 51.5h116q-29 -79 -92.5 -121.5t-153.5 -42.5q-111 0 -154.5 67.5t-18.5 194.5t94.5 194.5t180.5 67.5t154.5 -67.5t18.5 -194.5zM166 299h216q13 119 -85 119q-99 0 -131 -119z" />
    <glyph glyph-name="f" unicode="f" horiz-adv-x="355" 
d="M404 613h-48q-41 0 -59.5 -14t-24.5 -48l-10 -51h120l-19 -94h-120l-78 -406h-114l78 406h-71l19 94h71l11 56q16 82 62 116.5t137 34.5q36 0 63 -4z" />
    <glyph glyph-name="g" unicode="g" horiz-adv-x="550" 
d="M374 250q18 76 1 122t-78 46t-94 -42.5t-49 -125.5q-18 -76 -1 -122t78 -46t94 42.5t49 125.5zM537 500l-101 -516q-18 -98 -82 -157t-175 -59q-91 0 -137.5 40t-42.5 114h116q-1 -33 19.5 -49.5t62.5 -16.5q101 0 123 118l20 103q-21 -41 -62.5 -65t-92.5 -24
q-93 0 -131.5 64.5t-13.5 197.5q26 133 90 197.5t157 64.5q51 0 83 -24t38 -65l15 77h114z" />
    <glyph glyph-name="h" unicode="h" horiz-adv-x="546" 
d="M499 315l-61 -315h-114l60 313q21 105 -63 105q-52 0 -91.5 -36.5t-51.5 -102.5l-54 -279h-114l136 700h114l-56 -286q23 45 65.5 71.5t96.5 26.5q82 0 116.5 -51t16.5 -146z" />
    <glyph glyph-name="i" unicode="i" horiz-adv-x="244" 
d="M129 590l22 110h114l-22 -110h-114zM15 0l97 500h114l-97 -500h-114z" />
    <glyph glyph-name="j" unicode="j" horiz-adv-x="244" 
d="M4 -53l108 553h114l-110 -566q-15 -75 -65 -113.5t-131 -38.5q-31 0 -46 3l18 92h37q62 0 75 70zM129 590l22 110h114l-22 -110h-114z" />
    <glyph glyph-name="k" unicode="k" horiz-adv-x="496" 
d="M10 0l136 700h114l-77 -395h47l161 195h124l-202 -240l128 -260h-128l-101 217h-46l-42 -217h-114z" />
    <glyph glyph-name="l" unicode="l" horiz-adv-x="244" 
d="M129 0h-114l136 700h114z" />
    <glyph glyph-name="m" unicode="m" horiz-adv-x="840" 
d="M482 279l-54 -279h-114l62 321q19 97 -60 97q-51 0 -88.5 -36t-49.5 -103l-54 -279h-114l97 500h114l-17 -86q50 98 157 98q56 0 90 -26t41 -75q65 101 173 101q80 0 113 -51t15 -146l-61 -315h-114l62 321q19 97 -60 97q-51 0 -88.5 -36t-49.5 -103z" />
    <glyph glyph-name="n" unicode="n" horiz-adv-x="546" 
d="M499 315l-61 -315h-114l60 313q21 105 -63 105q-52 0 -91.5 -36.5t-51.5 -102.5l-54 -279h-114l97 500h114l-17 -86q23 45 65.5 71.5t96.5 26.5q82 0 116.5 -51t16.5 -146z" />
    <glyph glyph-name="o" unicode="o" horiz-adv-x="532" 
d="M231 82q60 0 93.5 43t49.5 125q18 76 0.5 122t-77.5 46t-93.5 -43t-49.5 -125q-18 -76 -0.5 -122t77.5 -46zM315 512q111 0 154.5 -67.5t18.5 -194.5t-94.5 -194.5t-180.5 -67.5t-154.5 67.5t-18.5 194.5t94.5 194.5t180.5 67.5z" />
    <glyph glyph-name="p" unicode="p" horiz-adv-x="550" 
d="M221 500l-15 -77q21 41 62.5 65t92.5 24q93 0 132 -64.5t13 -197.5q-25 -133 -89.5 -197.5t-157.5 -64.5q-51 0 -83 24t-38 65l-57 -295h-114l140 718h114zM249 82q60 0 93.5 43t49.5 125q18 76 0.5 122t-77.5 46t-93.5 -43t-49.5 -125q-18 -76 -0.5 -122t77.5 -46z" />
    <glyph glyph-name="q" unicode="q" horiz-adv-x="550" 
d="M408 423l15 77h114l-140 -718h-114l57 295q-21 -41 -62.5 -65t-92.5 -24q-93 0 -131.5 64.5t-13.5 197.5q26 133 90 197.5t157 64.5q51 0 83 -24t38 -65zM231 82q60 0 93.5 43t49.5 125q18 76 0.5 122t-77.5 46t-93.5 -43t-49.5 -125q-18 -76 -0.5 -122t77.5 -46z" />
    <glyph glyph-name="r" unicode="r" horiz-adv-x="365" 
d="M335 418q-63 0 -104.5 -40t-56.5 -117l-50 -261h-114l97 500h114l-17 -88q46 100 154 100q27 0 40 -4l-20 -92q-14 2 -43 2z" />
    <glyph glyph-name="s" unicode="s" horiz-adv-x="487" 
d="M22 142l3 14h114l-3 -14q-6 -30 14.5 -47t60.5 -17t67 17t32 45t-7.5 42.5t-48.5 21.5l-50 9q-82 15 -115 51t-21 99q13 65 72.5 107t146.5 42q88 0 131.5 -40.5t29.5 -108.5l-2 -10h-114l2 10q5 26 -11 42.5t-53 16.5t-60 -16t-27 -40q-5 -26 9 -39t51 -20l50 -9
q85 -15 114.5 -52t16.5 -104q-13 -66 -76.5 -110t-154.5 -44q-92 0 -138 43t-33 111z" />
    <glyph glyph-name="t" unicode="t" horiz-adv-x="375" 
d="M238 406l-48 -249q-8 -42 5.5 -56t59.5 -14h51l-17 -91q-24 -3 -72 -3q-93 0 -126.5 31.5t-18.5 110.5l52 271h-71l19 94h71l27 142h114l-27 -142h130l-19 -94h-130z" />
    <glyph glyph-name="u" unicode="u" horiz-adv-x="546" 
d="M43 185l62 315h114l-61 -313q-21 -105 63 -105q52 0 91.5 36.5t51.5 102.5l55 279h114l-97 -500h-114l16 86q-23 -45 -65.5 -71.5t-96.5 -26.5q-82 0 -116.5 51t-16.5 146z" />
    <glyph glyph-name="v" unicode="v" horiz-adv-x="518" 
d="M275 0h-132l-81 500h119l49 -388l201 388h119z" />
    <glyph glyph-name="w" unicode="w" horiz-adv-x="808" 
d="M395 500h112l38 -373l179 373h116l-256 -500h-120l-36 382l-184 -382h-120l-62 500h116l33 -373z" />
    <glyph glyph-name="x" unicode="x" horiz-adv-x="484" 
d="M226 180l-142 -180h-124l213 257l-106 243h124l65 -166l131 166h124l-202 -243l115 -257h-124z" />
    <glyph glyph-name="y" unicode="y" horiz-adv-x="519" 
d="M117 -70l37 68l-92 502h119l58 -360l193 360h119l-337 -605q-37 -66 -78.5 -89.5t-104.5 -23.5q-34 0 -46 2l17 92h37q49 0 78 54z" />
    <glyph glyph-name="z" unicode="z" horiz-adv-x="458" 
d="M462 500l-17 -84l-299 -322h244l-18 -94h-386l16 84l299 322h-229l19 94h371z" />
    <glyph glyph-name="braceleft" unicode="{" horiz-adv-x="354" 
d="M81 59l32 166q14 70 -46 70h-20l19 100h20q61 0 74 70l32 166q16 79 62.5 115.5t128.5 36.5h33l-20 -99h-20q-60 0 -73 -70l-32 -163q-17 -85 -93 -106q69 -21 52 -106l-32 -163q-13 -70 47 -70h20l-20 -99h-33q-82 0 -114.5 36.5t-16.5 115.5z" />
    <glyph glyph-name="bar" unicode="|" horiz-adv-x="314" 
d="M110 -93v876h114v-876h-114z" />
    <glyph glyph-name="braceright" unicode="}" horiz-adv-x="354" 
d="M227 225l-32 -166q-16 -79 -62.5 -115.5t-128.5 -36.5h-33l20 99h20q60 0 73 70l32 163q17 85 94 106q-70 21 -53 106l32 163q13 70 -47 70h-20l20 99h33q82 0 114.5 -36.5t16.5 -115.5l-32 -166q-13 -70 46 -70h20l-19 -100h-20q-60 0 -74 -70z" />
    <glyph glyph-name="asciitilde" unicode="~" horiz-adv-x="540" 
d="M362 250q-29 0 -53 9t-37 19.5t-29 19.5t-30 9q-39 0 -40 -51h-106q1 65 34 106t96 41q37 0 65 -14.5t47.5 -28.5t36.5 -14q39 0 40 51h106q-1 -65 -34 -106t-96 -41z" />
    <glyph glyph-name="uni00A0" unicode="&#xa0;" horiz-adv-x="260" 
 />
    <glyph glyph-name="exclamdown" unicode="&#xa1;" horiz-adv-x="314" 
d="M212 309l-64 -388l-23 -121h-114l23 121l88 388h90zM261 500l-22 -110h-114l22 110h114z" />
    <glyph glyph-name="cent" unicode="&#xa2;" horiz-adv-x="520" 
d="M40 250q46 236 236 259l16 80h72l-15 -79q78 -8 117 -53t32 -122h-115q5 64 -53 79l-64 -329q65 16 84 80h115q-24 -78 -80 -122.5t-137 -52.5l-16 -79h-72l16 80q-91 10 -125 76.5t-11 182.5zM154 250q-26 -140 40 -163l64 325q-76 -22 -104 -162z" />
    <glyph glyph-name="sterling" unicode="&#xa3;" horiz-adv-x="535" 
d="M231 363h170l-17 -86h-153q0 -6 -2 -16q-20 -100 -99 -159h334l-19 -102h-442l17 92q77 73 95 169q2 10 2 16h-64l17 86h47q-10 70 5 148q16 86 82 143.5t164 57.5q97 0 141 -57.5t27 -143.5l-4 -20h-114l4 19q8 45 -10.5 71.5t-63.5 26.5t-74.5 -26.5t-37.5 -71.5
q-15 -77 -5 -147z" />
    <glyph glyph-name="currency" unicode="&#xa4;" horiz-adv-x="638" 
d="M549 326q0 -66 -36 -119l90 -89l-74 -74l-93 92q-47 -26 -107 -26q-59 0 -108 26l-92 -92l-74 74l89 89q-35 54 -35 119q0 66 35 118l-89 90l74 74l92 -93q51 27 108 27q58 0 107 -27l93 93l74 -74l-90 -90q36 -52 36 -118zM445 326q0 57 -32.5 91.5t-83.5 34.5
t-83.5 -34.5t-32.5 -91.5t32.5 -91.5t83.5 -34.5t83.5 34.5t32.5 91.5z" />
    <glyph glyph-name="yen" unicode="&#xa5;" horiz-adv-x="606" 
d="M89 190l14 68h140l10 52h-140l13 68h106l-131 322h132l100 -285l212 285h132l-257 -322h106l-13 -68h-140l-10 -52h140l-14 -68h-140l-36 -190h-120l36 190h-140z" />
    <glyph glyph-name="brokenbar" unicode="&#xa6;" horiz-adv-x="314" 
d="M110 395v388h114v-388h-114zM110 -93v388h114v-388h-114z" />
    <glyph glyph-name="section" unicode="&#xa7;" horiz-adv-x="493" 
d="M275 367l-41 11q-60 -25 -72 -88q-8 -40 7 -62t57 -33l41 -11q60 24 72 88q8 40 -7 62t-57 33zM171 -150q-85 0 -128.5 45t-29.5 117l1 6h114l-1 -4q-6 -33 11 -51.5t52 -18.5t59 18.5t30 51.5q7 32 -8.5 50t-58.5 29l-45 12q-148 40 -120 180q18 91 104 134
q-59 42 -43 131q14 72 75.5 117t146.5 45t128.5 -45t29.5 -117l-1 -6h-114l1 4q7 33 -10 51.5t-52 18.5t-59 -18.5t-31 -51.5q-6 -32 10 -50t58 -29l44 -12q148 -39 120 -180q-18 -91 -104 -134q59 -42 43 -131q-14 -72 -75.5 -117t-146.5 -45z" />
    <glyph glyph-name="dieresis" unicode="&#xa8;" horiz-adv-x="380" 
d="M244 708l-24 -122h-118l24 122h118zM428 708l-24 -122h-118l24 122h118z" />
    <glyph glyph-name="copyright" unicode="&#xa9;" horiz-adv-x="754" 
d="M387 712q158 0 245 -91.5t87 -270.5t-87 -270.5t-245 -91.5t-245 91.5t-87 270.5t87 270.5t245 91.5zM387 40q276 0 276 310t-276 310t-276 -310t276 -310zM229 350q0 73 11.5 113.5t38.5 67.5q36 36 109 36t109 -36q39 -39 47 -110h-85q-3 26 -14 45q-18 28 -57 28
t-57 -28q-18 -30 -18 -116t18 -116q18 -28 57 -28t57 28q11 19 14 45h85q-8 -71 -47 -110q-36 -36 -109 -36t-109 36q-27 27 -38.5 67.5t-11.5 113.5z" />
    <glyph glyph-name="ordfeminine" unicode="&#xaa;" horiz-adv-x="414" 
d="M221 588h-99q16 57 61 88.5t114 31.5q72 0 105 -35t22 -94l-38 -195q-4 -21 -2 -51h-100q-3 15 1 36q-29 -45 -107 -45q-56 0 -85.5 30t-18.5 86t52.5 86t97.5 30q75 0 89 -45l13 69q11 53 -43 53q-49 0 -62 -45zM173 440q-4 -20 10.5 -30.5t44.5 -10.5q63 0 71 41
q4 20 -10.5 30.5t-44.5 10.5q-63 0 -71 -41z" />
    <glyph glyph-name="guillemotleft" unicode="&#xab;" horiz-adv-x="500" 
d="M272 384l-136 -72l108 -72l-17 -90l-184 126l14 72l233 126zM484 384l-136 -72l108 -72l-17 -90l-184 126l14 72l233 126z" />
    <glyph glyph-name="logicalnot" unicode="&#xac;" horiz-adv-x="540" 
d="M60 279v94h440v-248h-104v154h-336z" />
    <glyph glyph-name="uni00AD" unicode="&#xad;" horiz-adv-x="412" 
d="M53 276l20 100h312l-20 -100h-312z" />
    <glyph glyph-name="registered" unicode="&#xae;" horiz-adv-x="754" 
d="M387 712q158 0 245 -91.5t87 -270.5t-87 -270.5t-245 -91.5t-245 91.5t-87 270.5t87 270.5t245 91.5zM387 40q276 0 276 310t-276 310t-276 -310t276 -310zM330 359h66q67 0 67 66q0 67 -67 67h-66v-133zM459 178l-3 48q-2 34 -20 49.5t-55 15.5h-51v-150h-85v418h163
q65 0 102.5 -34t37.5 -100q0 -40 -19.5 -67t-53.5 -37q32 -4 47.5 -25.5t18.5 -63.5l4 -53q2 -24 7 -38h-87q-4 13 -6 37z" />
    <glyph glyph-name="macron" unicode="&#xaf;" horiz-adv-x="380" 
d="M116 602l17 92h282l-17 -92h-282z" />
    <glyph glyph-name="degree" unicode="&#xb0;" horiz-adv-x="346" 
d="M316 573q0 -60 -36 -97.5t-97 -37.5t-97 37.5t-36 97.5t36 97.5t97 37.5t97 -37.5t36 -97.5zM233 573q0 26 -13.5 41.5t-36.5 15.5t-36.5 -15.5t-13.5 -41.5t13.5 -41.5t36.5 -15.5t36.5 15.5t13.5 41.5z" />
    <glyph glyph-name="plusminus" unicode="&#xb1;" horiz-adv-x="540" 
d="M60 309v94h168v169h104v-169h168v-94h-168v-169h-104v169h-168zM60 0v94h440v-94h-440z" />
    <glyph glyph-name="twosuperior" unicode="&#xb2;" 
d="M91 549l3 16q13 66 61.5 104.5t118.5 38.5q67 0 101.5 -38.5t21.5 -104.5q-6 -33 -23.5 -60t-53.5 -60l-131 -123h161l-17 -86h-293l15 73l208 197q29 27 34 58q5 25 -5.5 39.5t-34.5 14.5q-52 0 -63 -54l-3 -15h-100z" />
    <glyph glyph-name="threesuperior" unicode="&#xb3;" 
d="M52 372l3 17h100l-2 -12q-6 -30 6 -47.5t39 -17.5t46 17t24 46q13 63 -50 63h-35l16 84h35q53 0 63 51t-38 51t-58 -49l-1 -7h-98l3 16q11 56 58 90t112 34q66 0 99.5 -34.5t22.5 -91.5q-15 -75 -87 -99q74 -23 58 -110q-12 -64 -61.5 -104.5t-124.5 -40.5
q-74 0 -108 40.5t-22 103.5z" />
    <glyph glyph-name="acute" unicode="&#xb4;" horiz-adv-x="380" 
d="M393 730l-156 -161h-99l126 161h129z" />
    <glyph glyph-name="mu" unicode="&#xb5;" horiz-adv-x="548" 
d="M221 500l-61 -313q-21 -105 63 -105q52 0 91.5 36.5t51.5 102.5l55 279h114l-97 -500h-114l16 86q-22 -44 -59 -71t-75 -27q-31 0 -50.5 15.5t-23.5 40.5l-51 -262h-114l140 718h114z" />
    <glyph glyph-name="paragraph" unicode="&#xb6;" horiz-adv-x="565" 
d="M259 700h236v-831h-76v756h-45v-756h-76v398h-27q-95 0 -155.5 57.5t-60.5 156.5v7q0 100 54 156t150 56z" />
    <glyph glyph-name="periodcentered" unicode="&#xb7;" horiz-adv-x="282" 
d="M229 389l-24 -126h-126l24 126h126z" />
    <glyph glyph-name="cedilla" unicode="&#xb8;" horiz-adv-x="380" 
d="M-19 -202l45 63q27 -24 68 -24q45 0 51 30q3 16 -8.5 24t-38.5 8q-25 0 -40 -5l-13 22l57 84h85l-31 -45q44 -4 64 -28.5t12 -62.5q-9 -47 -48.5 -74.5t-96.5 -27.5q-65 0 -106 36z" />
    <glyph glyph-name="onesuperior" unicode="&#xb9;" 
d="M260 236h-100l72 369l-107 -45l17 88l126 52h83z" />
    <glyph glyph-name="ordmasculine" unicode="&#xba;" horiz-adv-x="414" 
d="M219 324q-72 0 -106 37q-44 47 -23 154q21 109 83 156q48 37 121 37t107 -37q44 -48 23 -156q-21 -106 -83 -154q-48 -37 -122 -37zM234 401q34 0 55 23q24 26 37 92t-1 92q-12 23 -46 23q-33 0 -54 -23q-24 -26 -37 -92t1 -92q12 -23 45 -23z" />
    <glyph glyph-name="guillemotright" unicode="&#xbb;" horiz-adv-x="500" 
d="M384 312l-108 72l18 90l183 -126l-14 -72l-232 -126l17 90zM172 312l-108 72l18 90l183 -126l-14 -72l-232 -126l17 90z" />
    <glyph glyph-name="onequarter" unicode="&#xbc;" horiz-adv-x="932" 
d="M260 236h-100l72 369l-107 -45l17 88l126 52h83zM659 170h90l30 155zM895 170l-17 -84h-48l-16 -86h-98l16 86h-191l15 77l236 301h112l-57 -294h48zM772 700l-478 -700h-98l478 700h98z" />
    <glyph glyph-name="onehalf" unicode="&#xbd;" horiz-adv-x="932" 
d="M601 313l3 16q13 66 61.5 104.5t118.5 38.5q67 0 101.5 -38.5t21.5 -104.5q-6 -33 -23.5 -60t-53.5 -60l-131 -123h161l-16 -86h-293l14 73l208 197q29 27 34 58q5 25 -5.5 39.5t-34.5 14.5q-52 0 -63 -54l-3 -15h-100zM772 700l-478 -700h-98l478 700h98zM260 236h-100
l72 369l-107 -45l17 88l126 52h83z" />
    <glyph glyph-name="threequarters" unicode="&#xbe;" horiz-adv-x="932" 
d="M659 170h90l30 155zM895 170l-17 -84h-48l-16 -86h-98l16 86h-191l15 77l236 301h112l-57 -294h48zM52 372l3 17h100l-2 -12q-6 -30 6 -47.5t39 -17.5t46 17t24 46q13 63 -50 63h-35l16 84h35q53 0 63 51t-38 51t-58 -49l-1 -7h-98l3 16q11 56 58 90t112 34
q66 0 99.5 -34.5t22.5 -91.5q-15 -75 -87 -99q74 -23 58 -110q-12 -64 -61.5 -104.5t-124.5 -40.5q-74 0 -108 40.5t-22 103.5zM772 700l-478 -700h-98l478 700h98z" />
    <glyph glyph-name="questiondown" unicode="&#xbf;" horiz-adv-x="531" 
d="M310 -10h114l-1 -3q-18 -89 -84 -144t-163 -55t-142 55t-27 144q12 59 40.5 99.5t81.5 80.5q47 35 67 62t27 66l5 24h114l-7 -32q-11 -56 -37 -93t-86 -83q-45 -34 -64 -59.5t-26 -61.5q-9 -49 11.5 -75.5t62.5 -26.5t73.5 26.5t40.5 75.5zM377 500l-22 -110h-114l22 110
h114z" />
    <glyph glyph-name="Agrave" unicode="&#xc0;" horiz-adv-x="616" 
d="M84 0h-124l363 700h142l91 -700h-124l-17 149h-259zM405 253l-34 332l-163 -332h197zM389 763l-94 161h129l64 -161h-99z" />
    <glyph glyph-name="Aacute" unicode="&#xc1;" horiz-adv-x="616" 
d="M84 0h-124l363 700h142l91 -700h-124l-17 149h-259zM405 253l-34 332l-163 -332h197zM579 924l-156 -161h-99l126 161h129z" />
    <glyph glyph-name="Acircumflex" unicode="&#xc2;" horiz-adv-x="616" 
d="M84 0h-124l363 700h142l91 -700h-124l-17 149h-259zM405 253l-34 332l-163 -332h197zM486 924l85 -161h-99l-51 80l-81 -80h-99l147 161h98z" />
    <glyph glyph-name="Atilde" unicode="&#xc3;" horiz-adv-x="616" 
d="M84 0h-124l363 700h142l91 -700h-124l-17 149h-259zM405 253l-34 332l-163 -332h197zM472 775q-26 0 -43.5 11t-28 22t-19.5 11q-25 0 -31 -36h-98q24 124 119 124q26 0 43.5 -11t28 -22t19.5 -11q25 0 31 36h98q-24 -124 -119 -124z" />
    <glyph glyph-name="Adieresis" unicode="&#xc4;" horiz-adv-x="616" 
d="M84 0h-124l363 700h142l91 -700h-124l-17 149h-259zM405 253l-34 332l-163 -332h197zM400 902l-24 -122h-118l24 122h118zM584 902l-24 -122h-118l24 122h118z" />
    <glyph glyph-name="Aring" unicode="&#xc5;" horiz-adv-x="616" 
d="M84 0h-124l363 700h142l91 -700h-124l-17 149h-259zM405 253l-34 332l-163 -332h197zM529 843q-10 -49 -45 -76.5t-83 -27.5t-72.5 27.5t-15.5 76.5t45 76.5t84 27.5t72.5 -27.5t14.5 -76.5zM457 843q4 19 -3.5 29.5t-24.5 10.5q-36 0 -44 -40q-6 -40 29 -40
q17 0 28.5 10.5t14.5 29.5z" />
    <glyph glyph-name="AE" unicode="&#xc6;" horiz-adv-x="881" 
d="M360 0l28 149h-220l-101 -149h-132l490 700h492l-21 -104h-301l-36 -185h265l-20 -104h-265l-39 -203h306l-20 -104h-426zM240 253h169l66 341z" />
    <glyph glyph-name="Ccedilla" unicode="&#xc7;" horiz-adv-x="638" 
d="M68 350q34 177 112 263q89 99 233 99q121 0 179 -68t41 -178h-120q11 66 -20.5 104t-99.5 38q-77 0 -127 -56q-50 -57 -78 -202t-1 -202q27 -56 105 -56q68 0 114.5 38t61.5 104h120q-24 -98 -93 -163t-169 -79l-25 -37q44 -4 64 -28.5t12 -62.5q-9 -47 -48.5 -74.5
t-96.5 -27.5q-65 0 -106 36l45 63q27 -24 68 -24q45 0 51 30q3 16 -8.5 24t-38.5 8q-25 0 -40 -5l-13 22l50 74q-118 10 -163 97q-44 89 -9 263z" />
    <glyph glyph-name="Egrave" unicode="&#xc8;" horiz-adv-x="541" 
d="M20 0l136 700h421l-21 -104h-301l-36 -185h265l-20 -104h-265l-39 -203h306l-20 -104h-426zM361 763l-94 161h129l64 -161h-99z" />
    <glyph glyph-name="Eacute" unicode="&#xc9;" horiz-adv-x="541" 
d="M20 0l136 700h421l-21 -104h-301l-36 -185h265l-20 -104h-265l-39 -203h306l-20 -104h-426zM546 924l-156 -161h-99l126 161h129z" />
    <glyph glyph-name="Ecircumflex" unicode="&#xca;" horiz-adv-x="541" 
d="M20 0l136 700h421l-21 -104h-301l-36 -185h265l-20 -104h-265l-39 -203h306l-20 -104h-426zM458 924l85 -161h-99l-51 80l-81 -80h-99l147 161h98z" />
    <glyph glyph-name="Edieresis" unicode="&#xcb;" horiz-adv-x="541" 
d="M20 0l136 700h421l-21 -104h-301l-36 -185h265l-20 -104h-265l-39 -203h306l-20 -104h-426zM372 902l-24 -122h-118l24 122h118zM556 902l-24 -122h-118l24 122h118z" />
    <glyph glyph-name="Igrave" unicode="&#xcc;" horiz-adv-x="260" 
d="M276 700l-136 -700h-120l136 700h120zM201 763l-94 161h129l64 -161h-99z" />
    <glyph glyph-name="Iacute" unicode="&#xcd;" horiz-adv-x="260" 
d="M276 700l-136 -700h-120l136 700h120zM411 924l-156 -161h-99l126 161h129z" />
    <glyph glyph-name="Icircumflex" unicode="&#xce;" horiz-adv-x="260" 
d="M276 700l-136 -700h-120l136 700h120zM308 924l85 -161h-99l-51 80l-81 -80h-99l147 161h98z" />
    <glyph glyph-name="Idieresis" unicode="&#xcf;" horiz-adv-x="260" 
d="M276 700l-136 -700h-120l136 700h120zM222 902l-24 -122h-118l24 122h118zM406 902l-24 -122h-118l24 122h118z" />
    <glyph glyph-name="Eth" unicode="&#xd0;" horiz-adv-x="644" 
d="M36 393h60l60 307h255q147 0 192 -90q18 -34 23 -80t0.5 -85.5t-14.5 -94.5q-17 -85 -41 -147.5t-69 -112.5q-81 -90 -227 -90h-255l59 307h-60zM492 350q26 139 -4 198q-24 48 -110 48h-123l-39 -203h115l-17 -86h-115l-39 -203h123q84 0 128 48q53 58 81 198z" />
    <glyph glyph-name="Ntilde" unicode="&#xd1;" horiz-adv-x="642" 
d="M399 0l-166 491l-95 -491h-118l136 700h123l165 -491l96 491h118l-136 -700h-123zM485 775q-26 0 -43.5 11t-28 22t-19.5 11q-25 0 -31 -36h-98q24 124 119 124q26 0 43.5 -11t28 -22t19.5 -11q25 0 31 36h98q-24 -124 -119 -124z" />
    <glyph glyph-name="Ograve" unicode="&#xd2;" horiz-adv-x="650" 
d="M498 350q28 143 0 202q-27 56 -105 56q-77 0 -127 -56q-50 -57 -78 -202t-1 -202q27 -56 105 -56q77 0 127 56q51 58 79 202zM68 350q34 177 112 263q89 99 233 99q145 0 195 -99q43 -88 10 -263q-36 -178 -113 -263q-88 -99 -233 -99q-143 0 -195 99q-44 89 -9 263z
M406 763l-94 161h129l64 -161h-99z" />
    <glyph glyph-name="Oacute" unicode="&#xd3;" horiz-adv-x="650" 
d="M498 350q28 143 0 202q-27 56 -105 56q-77 0 -127 -56q-50 -57 -78 -202t-1 -202q27 -56 105 -56q77 0 127 56q51 58 79 202zM68 350q34 177 112 263q89 99 233 99q145 0 195 -99q43 -88 10 -263q-36 -178 -113 -263q-88 -99 -233 -99q-143 0 -195 99q-44 89 -9 263z
M596 924l-156 -161h-99l126 161h129z" />
    <glyph glyph-name="Ocircumflex" unicode="&#xd4;" horiz-adv-x="650" 
d="M498 350q28 143 0 202q-27 56 -105 56q-77 0 -127 -56q-50 -57 -78 -202t-1 -202q27 -56 105 -56q77 0 127 56q51 58 79 202zM68 350q34 177 112 263q89 99 233 99q145 0 195 -99q43 -88 10 -263q-36 -178 -113 -263q-88 -99 -233 -99q-143 0 -195 99q-44 89 -9 263z
M503 924l85 -161h-99l-51 80l-81 -80h-99l147 161h98z" />
    <glyph glyph-name="Otilde" unicode="&#xd5;" horiz-adv-x="650" 
d="M498 350q28 143 0 202q-27 56 -105 56q-77 0 -127 -56q-50 -57 -78 -202t-1 -202q27 -56 105 -56q77 0 127 56q51 58 79 202zM68 350q34 177 112 263q89 99 233 99q145 0 195 -99q43 -88 10 -263q-36 -178 -113 -263q-88 -99 -233 -99q-143 0 -195 99q-44 89 -9 263z
M489 775q-26 0 -43.5 11t-28 22t-19.5 11q-25 0 -31 -36h-98q24 124 119 124q26 0 43.5 -11t28 -22t19.5 -11q25 0 31 36h98q-24 -124 -119 -124z" />
    <glyph glyph-name="Odieresis" unicode="&#xd6;" horiz-adv-x="650" 
d="M498 350q28 143 0 202q-27 56 -105 56q-77 0 -127 -56q-50 -57 -78 -202t-1 -202q27 -56 105 -56q77 0 127 56q51 58 79 202zM68 350q34 177 112 263q89 99 233 99q145 0 195 -99q43 -88 10 -263q-36 -178 -113 -263q-88 -99 -233 -99q-143 0 -195 99q-44 89 -9 263z
M417 902l-24 -122h-118l24 122h118zM601 902l-24 -122h-118l24 122h118z" />
    <glyph glyph-name="multiply" unicode="&#xd7;" horiz-adv-x="540" 
d="M413 121l-133 137l-133 -137l-69 67l135 138l-135 139l69 67l133 -137l133 137l69 -67l-135 -139l135 -138z" />
    <glyph glyph-name="Oslash" unicode="&#xd8;" horiz-adv-x="650" 
d="M588 732h87l-77 -102q2 -3 5 -8.5t5 -8.5q43 -88 10 -263q-36 -178 -113 -263q-88 -99 -233 -99q-82 0 -134 33l-41 -53h-87l77 102q-4 5 -10 17q-44 89 -9 263q34 177 112 263q89 99 233 99q82 0 134 -33zM498 350q21 109 11 164l-299 -397q30 -25 82 -25q77 0 127 56
q51 58 79 202zM393 608q-77 0 -127 -56q-50 -57 -78 -202q-22 -108 -13 -164l300 396q-31 26 -82 26z" />
    <glyph glyph-name="Ugrave" unicode="&#xd9;" horiz-adv-x="652" 
d="M293 92q141 0 177 183l83 425h120l-86 -442q-25 -124 -106 -197t-208 -73t-180 73t-28 197l86 442h120l-83 -425q-36 -183 105 -183zM407 763l-94 161h129l64 -161h-99z" />
    <glyph glyph-name="Uacute" unicode="&#xda;" horiz-adv-x="652" 
d="M293 92q141 0 177 183l83 425h120l-86 -442q-25 -124 -106 -197t-208 -73t-180 73t-28 197l86 442h120l-83 -425q-36 -183 105 -183zM597 924l-156 -161h-99l126 161h129z" />
    <glyph glyph-name="Ucircumflex" unicode="&#xdb;" horiz-adv-x="652" 
d="M293 92q141 0 177 183l83 425h120l-86 -442q-25 -124 -106 -197t-208 -73t-180 73t-28 197l86 442h120l-83 -425q-36 -183 105 -183zM504 924l85 -161h-99l-51 80l-81 -80h-99l147 161h98z" />
    <glyph glyph-name="Udieresis" unicode="&#xdc;" horiz-adv-x="652" 
d="M293 92q141 0 177 183l83 425h120l-86 -442q-25 -124 -106 -197t-208 -73t-180 73t-28 197l86 442h120l-83 -425q-36 -183 105 -183zM418 902l-24 -122h-118l24 122h118zM602 902l-24 -122h-118l24 122h118z" />
    <glyph glyph-name="Yacute" unicode="&#xdd;" horiz-adv-x="606" 
d="M327 382l224 318h126l-311 -424l-53 -276h-120l53 276l-145 424h126zM579 924l-156 -161h-99l126 161h129z" />
    <glyph glyph-name="Thorn" unicode="&#xde;" horiz-adv-x="599" 
d="M165 129l-25 -129h-120l136 700h120l-26 -129h158q104 0 152 -58t28 -163q-21 -106 -91 -163.5t-174 -57.5h-158zM185 233h141q118 0 142 117q11 57 -13.5 87t-83.5 30h-141z" />
    <glyph glyph-name="germandbls" unicode="&#xdf;" horiz-adv-x="588" 
d="M539 175q-18 -89 -86 -138t-170 -49q-49 0 -89 10l20 104q37 -10 80 -10q52 0 85 23.5t41 65.5q11 57 -24 89.5t-103 32.5h-18l20 100h27q53 0 85 27.5t41 74.5q9 44 -15 73.5t-75 29.5q-53 0 -87.5 -29.5t-44.5 -84.5l-96 -494h-120l96 494q18 97 88 157.5t184 60.5
q111 0 158.5 -60t31.5 -144q-11 -56 -51 -98.5t-97 -56.5q65 -11 99.5 -55.5t19.5 -122.5z" />
    <glyph glyph-name="agrave" unicode="&#xe0;" horiz-adv-x="550" 
d="M326 0l14 77q-21 -41 -62.5 -65t-92.5 -24q-93 0 -131.5 64.5t-13.5 197.5q26 133 90 197.5t157 64.5q51 0 83 -24t38 -65l15 77h114l-97 -500h-114zM231 82q60 0 93.5 43t49.5 125q18 76 0.5 122t-77.5 46t-93.5 -43t-49.5 -125q-18 -76 -0.5 -122t77.5 -46zM343 564
l-94 161h129l64 -161h-99z" />
    <glyph glyph-name="aacute" unicode="&#xe1;" horiz-adv-x="550" 
d="M326 0l14 77q-21 -41 -62.5 -65t-92.5 -24q-93 0 -131.5 64.5t-13.5 197.5q26 133 90 197.5t157 64.5q51 0 83 -24t38 -65l15 77h114l-97 -500h-114zM231 82q60 0 93.5 43t49.5 125q18 76 0.5 122t-77.5 46t-93.5 -43t-49.5 -125q-18 -76 -0.5 -122t77.5 -46zM513 725
l-156 -161h-99l126 161h129z" />
    <glyph glyph-name="acircumflex" unicode="&#xe2;" horiz-adv-x="550" 
d="M326 0l14 77q-21 -41 -62.5 -65t-92.5 -24q-93 0 -131.5 64.5t-13.5 197.5q26 133 90 197.5t157 64.5q51 0 83 -24t38 -65l15 77h114l-97 -500h-114zM231 82q60 0 93.5 43t49.5 125q18 76 0.5 122t-77.5 46t-93.5 -43t-49.5 -125q-18 -76 -0.5 -122t77.5 -46zM424 725
l85 -161h-99l-50 80l-82 -80h-99l147 161h98z" />
    <glyph glyph-name="atilde" unicode="&#xe3;" horiz-adv-x="550" 
d="M326 0l14 77q-21 -41 -62.5 -65t-92.5 -24q-93 0 -131.5 64.5t-13.5 197.5q26 133 90 197.5t157 64.5q51 0 83 -24t38 -65l15 77h114l-97 -500h-114zM231 82q60 0 93.5 43t49.5 125q18 76 0.5 122t-77.5 46t-93.5 -43t-49.5 -125q-18 -76 -0.5 -122t77.5 -46zM410 576
q-26 0 -43.5 11t-28 22t-19.5 11q-23 0 -31 -36h-98q24 124 119 124q26 0 43.5 -11t28.5 -22t20 -11q23 0 31 36h98q-24 -124 -120 -124z" />
    <glyph glyph-name="adieresis" unicode="&#xe4;" horiz-adv-x="550" 
d="M326 0l14 77q-21 -41 -62.5 -65t-92.5 -24q-93 0 -131.5 64.5t-13.5 197.5q26 133 90 197.5t157 64.5q51 0 83 -24t38 -65l15 77h114l-97 -500h-114zM231 82q60 0 93.5 43t49.5 125q18 76 0.5 122t-77.5 46t-93.5 -43t-49.5 -125q-18 -76 -0.5 -122t77.5 -46zM338 703
l-24 -122h-118l24 122h118zM522 703l-24 -122h-118l24 122h118z" />
    <glyph glyph-name="aring" unicode="&#xe5;" horiz-adv-x="550" 
d="M326 0l14 77q-21 -41 -62.5 -65t-92.5 -24q-93 0 -131.5 64.5t-13.5 197.5q26 133 90 197.5t157 64.5q51 0 83 -24t38 -65l15 77h114l-97 -500h-114zM231 82q60 0 93.5 43t49.5 125q18 76 0.5 122t-77.5 46t-93.5 -43t-49.5 -125q-18 -76 -0.5 -122t77.5 -46zM473 644
q-9 -49 -45 -76.5t-84 -27.5t-72.5 27.5t-14.5 76.5t45 76.5t83 27.5t72.5 -27.5t15.5 -76.5zM401 644q4 19 -4 29.5t-25 10.5q-35 0 -43 -40t28 -40t44 40z" />
    <glyph glyph-name="ae" unicode="&#xe6;" horiz-adv-x="866" 
d="M814 215h-332q-18 -133 83 -133q84 0 111 70h117q-31 -81 -89 -122.5t-129 -41.5q-51 0 -82.5 21t-39.5 58l-13 -67h-114l14 77q-21 -41 -62.5 -65t-92.5 -24q-93 0 -131.5 64.5t-13.5 197.5q26 133 90 197.5t157 64.5q51 0 83 -24t38 -65l15 77h114l-13 -67
q48 79 153 79q91 0 131 -65t14 -197q-2 -15 -8 -35zM231 82q60 0 93.5 43t49.5 125q18 76 0.5 122t-77.5 46t-93.5 -43t-49.5 -125q-18 -76 -0.5 -122t77.5 -46zM631 418q-95 0 -131 -119h215q16 119 -84 119z" />
    <glyph glyph-name="ccedilla" unicode="&#xe7;" horiz-adv-x="520" 
d="M40 250q25 127 94.5 194.5t180.5 67.5q95 0 142.5 -46t40.5 -131h-115q4 39 -18.5 61t-67.5 22q-60 0 -93.5 -43t-49.5 -125q-18 -76 -0.5 -122t77.5 -46q45 0 76.5 22t42.5 61h115q-22 -73 -73.5 -117.5t-125.5 -55.5l-25 -37q44 -4 64 -28.5t12 -62.5
q-9 -47 -48.5 -74.5t-96.5 -27.5q-65 0 -106 36l45 63q27 -24 68 -24q45 0 51 30q3 16 -8.5 24t-38.5 8q-25 0 -40 -5l-13 22l50 74q-93 10 -128 76.5t-12 183.5z" />
    <glyph glyph-name="egrave" unicode="&#xe8;" horiz-adv-x="532" 
d="M481 215h-333q-19 -133 83 -133q40 0 69.5 18.5t42.5 51.5h116q-29 -79 -92.5 -121.5t-153.5 -42.5q-111 0 -154.5 67.5t-18.5 194.5t94.5 194.5t180.5 67.5t154.5 -67.5t18.5 -194.5zM166 299h216q13 119 -85 119q-99 0 -131 -119zM313 564l-94 161h129l64 -161h-99z
" />
    <glyph glyph-name="eacute" unicode="&#xe9;" horiz-adv-x="532" 
d="M481 215h-333q-19 -133 83 -133q40 0 69.5 18.5t42.5 51.5h116q-29 -79 -92.5 -121.5t-153.5 -42.5q-111 0 -154.5 67.5t-18.5 194.5t94.5 194.5t180.5 67.5t154.5 -67.5t18.5 -194.5zM166 299h216q13 119 -85 119q-99 0 -131 -119zM493 725l-156 -161h-99l126 161h129z
" />
    <glyph glyph-name="ecircumflex" unicode="&#xea;" horiz-adv-x="532" 
d="M481 215h-333q-19 -133 83 -133q40 0 69.5 18.5t42.5 51.5h116q-29 -79 -92.5 -121.5t-153.5 -42.5q-111 0 -154.5 67.5t-18.5 194.5t94.5 194.5t180.5 67.5t154.5 -67.5t18.5 -194.5zM166 299h216q13 119 -85 119q-99 0 -131 -119zM405 725l85 -161h-99l-50 80l-82 -80
h-99l147 161h98z" />
    <glyph glyph-name="edieresis" unicode="&#xeb;" horiz-adv-x="532" 
d="M481 215h-333q-19 -133 83 -133q40 0 69.5 18.5t42.5 51.5h116q-29 -79 -92.5 -121.5t-153.5 -42.5q-111 0 -154.5 67.5t-18.5 194.5t94.5 194.5t180.5 67.5t154.5 -67.5t18.5 -194.5zM166 299h216q13 119 -85 119q-99 0 -131 -119zM319 703l-24 -122h-118l24 122h118z
M503 703l-24 -122h-118l24 122h118z" />
    <glyph glyph-name="igrave" unicode="&#xec;" horiz-adv-x="244" 
d="M15 0l97 500h114l-97 -500h-114zM154 564l-94 161h129l64 -161h-99z" />
    <glyph glyph-name="iacute" unicode="&#xed;" horiz-adv-x="244" 
d="M15 0l97 500h114l-97 -500h-114zM364 725l-156 -161h-99l126 161h129z" />
    <glyph glyph-name="icircumflex" unicode="&#xee;" horiz-adv-x="244" 
d="M15 0l97 500h114l-97 -500h-114zM261 725l85 -161h-99l-50 80l-82 -80h-99l147 161h98z" />
    <glyph glyph-name="idieresis" unicode="&#xef;" horiz-adv-x="244" 
d="M15 0l97 500h114l-97 -500h-114zM175 703l-24 -122h-118l24 122h118zM359 703l-24 -122h-118l24 122h118z" />
    <glyph glyph-name="eth" unicode="&#xf0;" horiz-adv-x="532" 
d="M502 677l-77 -41q112 -134 63 -386q-51 -262 -275 -262t-173 262q26 134 92.5 198t157.5 64q72 0 93 -41q-9 64 -54 113l-96 -51l-20 47l75 40q-21 17 -60 35l75 69q48 -21 84 -51l95 51zM231 82q60 0 93.5 43t49.5 125q18 76 0.5 122t-77.5 46t-93.5 -43t-49.5 -125
q-18 -76 -0.5 -122t77.5 -46z" />
    <glyph glyph-name="ntilde" unicode="&#xf1;" horiz-adv-x="546" 
d="M499 315l-61 -315h-114l60 313q21 105 -63 105q-52 0 -91.5 -36.5t-51.5 -102.5l-54 -279h-114l97 500h114l-17 -86q23 45 65.5 71.5t96.5 26.5q82 0 116.5 -51t16.5 -146zM398 576q-26 0 -43.5 11t-28 22t-19.5 11q-23 0 -31 -36h-98q24 124 119 124q26 0 43.5 -11
t28.5 -22t20 -11q23 0 31 36h98q-24 -124 -120 -124z" />
    <glyph glyph-name="ograve" unicode="&#xf2;" horiz-adv-x="532" 
d="M231 82q60 0 93.5 43t49.5 125q18 76 0.5 122t-77.5 46t-93.5 -43t-49.5 -125q-18 -76 -0.5 -122t77.5 -46zM315 512q111 0 154.5 -67.5t18.5 -194.5t-94.5 -194.5t-180.5 -67.5t-154.5 67.5t-18.5 194.5t94.5 194.5t180.5 67.5zM313 564l-94 161h129l64 -161h-99z" />
    <glyph glyph-name="oacute" unicode="&#xf3;" horiz-adv-x="532" 
d="M231 82q60 0 93.5 43t49.5 125q18 76 0.5 122t-77.5 46t-93.5 -43t-49.5 -125q-18 -76 -0.5 -122t77.5 -46zM315 512q111 0 154.5 -67.5t18.5 -194.5t-94.5 -194.5t-180.5 -67.5t-154.5 67.5t-18.5 194.5t94.5 194.5t180.5 67.5zM493 725l-156 -161h-99l126 161h129z" />
    <glyph glyph-name="ocircumflex" unicode="&#xf4;" horiz-adv-x="532" 
d="M231 82q60 0 93.5 43t49.5 125q18 76 0.5 122t-77.5 46t-93.5 -43t-49.5 -125q-18 -76 -0.5 -122t77.5 -46zM315 512q111 0 154.5 -67.5t18.5 -194.5t-94.5 -194.5t-180.5 -67.5t-154.5 67.5t-18.5 194.5t94.5 194.5t180.5 67.5zM405 725l85 -161h-99l-50 80l-82 -80h-99
l147 161h98z" />
    <glyph glyph-name="otilde" unicode="&#xf5;" horiz-adv-x="532" 
d="M231 82q60 0 93.5 43t49.5 125q18 76 0.5 122t-77.5 46t-93.5 -43t-49.5 -125q-18 -76 -0.5 -122t77.5 -46zM315 512q111 0 154.5 -67.5t18.5 -194.5t-94.5 -194.5t-180.5 -67.5t-154.5 67.5t-18.5 194.5t94.5 194.5t180.5 67.5zM391 576q-26 0 -43.5 11t-28 22t-19.5 11
q-24 0 -31 -36h-98q24 124 119 124q21 0 36.5 -7t23 -15t16 -15t16.5 -7q24 0 31 36h98q-24 -124 -120 -124z" />
    <glyph glyph-name="odieresis" unicode="&#xf6;" horiz-adv-x="532" 
d="M231 82q60 0 93.5 43t49.5 125q18 76 0.5 122t-77.5 46t-93.5 -43t-49.5 -125q-18 -76 -0.5 -122t77.5 -46zM315 512q111 0 154.5 -67.5t18.5 -194.5t-94.5 -194.5t-180.5 -67.5t-154.5 67.5t-18.5 194.5t94.5 194.5t180.5 67.5zM319 703l-24 -122h-118l24 122h118z
M503 703l-24 -122h-118l24 122h118z" />
    <glyph glyph-name="divide" unicode="&#xf7;" horiz-adv-x="540" 
d="M60 279v94h440v-94h-440zM339 552v-118h-118v118h118zM221 100v118h118v-118h-118z" />
    <glyph glyph-name="oslash" unicode="&#xf8;" horiz-adv-x="532" 
d="M315 512q54 0 93 -17l32 43h76l-58 -79q57 -66 30 -209q-25 -127 -94.5 -194.5t-180.5 -67.5q-54 0 -94 17l-31 -43h-76l58 78q-57 65 -30 210q25 127 94.5 194.5t180.5 67.5zM154 250q-13 -67 -6 -105l196 263q-19 10 -47 10q-60 0 -93.5 -43t-49.5 -125zM231 82
q60 0 93.5 43t49.5 125q13 67 5 104l-195 -263q18 -9 47 -9z" />
    <glyph glyph-name="ugrave" unicode="&#xf9;" horiz-adv-x="546" 
d="M43 185l62 315h114l-61 -313q-21 -105 63 -105q52 0 91.5 36.5t51.5 102.5l55 279h114l-97 -500h-114l16 86q-23 -45 -65.5 -71.5t-96.5 -26.5q-82 0 -116.5 51t-16.5 146zM315 564l-94 161h129l64 -161h-99z" />
    <glyph glyph-name="uacute" unicode="&#xfa;" horiz-adv-x="546" 
d="M43 185l62 315h114l-61 -313q-21 -105 63 -105q52 0 91.5 36.5t51.5 102.5l55 279h114l-97 -500h-114l16 86q-23 -45 -65.5 -71.5t-96.5 -26.5q-82 0 -116.5 51t-16.5 146zM505 725l-156 -161h-99l126 161h129z" />
    <glyph glyph-name="ucircumflex" unicode="&#xfb;" horiz-adv-x="546" 
d="M43 185l62 315h114l-61 -313q-21 -105 63 -105q52 0 91.5 36.5t51.5 102.5l55 279h114l-97 -500h-114l16 86q-23 -45 -65.5 -71.5t-96.5 -26.5q-82 0 -116.5 51t-16.5 146zM411 725l85 -161h-99l-50 80l-82 -80h-99l147 161h98z" />
    <glyph glyph-name="udieresis" unicode="&#xfc;" horiz-adv-x="546" 
d="M43 185l62 315h114l-61 -313q-21 -105 63 -105q52 0 91.5 36.5t51.5 102.5l55 279h114l-97 -500h-114l16 86q-23 -45 -65.5 -71.5t-96.5 -26.5q-82 0 -116.5 51t-16.5 146zM325 703l-24 -122h-118l24 122h118zM509 703l-24 -122h-118l24 122h118z" />
    <glyph glyph-name="yacute" unicode="&#xfd;" horiz-adv-x="519" 
d="M117 -70l37 68l-92 502h119l58 -360l193 360h119l-337 -605q-37 -66 -78.5 -89.5t-104.5 -23.5q-34 0 -46 2l17 92h37q49 0 78 54zM491 725l-156 -161h-99l126 161h129z" />
    <glyph glyph-name="thorn" unicode="&#xfe;" horiz-adv-x="550" 
d="M138 77l-57 -295h-114l179 918h114l-54 -277q21 41 62.5 65t92.5 24q93 0 132 -64.5t13 -197.5q-25 -133 -89.5 -197.5t-157.5 -64.5q-51 0 -83 24t-38 65zM172 250q-18 -76 -1 -122t78 -46t94 42.5t49 125.5q18 76 1 122t-78 46t-94 -42.5t-49 -125.5z" />
    <glyph glyph-name="ydieresis" unicode="&#xff;" horiz-adv-x="519" 
d="M117 -70l37 68l-92 502h119l58 -360l193 360h119l-337 -605q-37 -66 -78.5 -89.5t-104.5 -23.5q-34 0 -46 2l17 92h37q49 0 78 54zM315 703l-24 -122h-118l24 122h118zM499 703l-24 -122h-118l24 122h118z" />
    <glyph glyph-name="Amacron" unicode="&#x100;" horiz-adv-x="616" 
d="M84 0h-124l363 700h142l91 -700h-124l-17 149h-259zM405 253l-34 332l-163 -332h197zM271 797l18 92h282l-18 -92h-282z" />
    <glyph glyph-name="amacron" unicode="&#x101;" horiz-adv-x="550" 
d="M326 0l14 77q-21 -41 -62.5 -65t-92.5 -24q-93 0 -131.5 64.5t-13.5 197.5q26 133 90 197.5t157 64.5q51 0 83 -24t38 -65l15 77h114l-97 -500h-114zM231 82q60 0 93.5 43t49.5 125q18 76 0.5 122t-77.5 46t-93.5 -43t-49.5 -125q-18 -76 -0.5 -122t77.5 -46zM210 598
l18 92h282l-18 -92h-282z" />
    <glyph glyph-name="Abreve" unicode="&#x102;" horiz-adv-x="616" 
d="M84 0h-124l363 700h142l91 -700h-124l-17 149h-259zM405 253l-34 332l-163 -332h197zM406 765q-67 0 -102.5 39.5t-25.5 108.5h98q-10 -64 47 -64q55 0 71 64h98q-17 -69 -68 -108.5t-118 -39.5z" />
    <glyph glyph-name="abreve" unicode="&#x103;" horiz-adv-x="550" 
d="M326 0l14 77q-21 -41 -62.5 -65t-92.5 -24q-93 0 -131.5 64.5t-13.5 197.5q26 133 90 197.5t157 64.5q51 0 83 -24t38 -65l15 77h114l-97 -500h-114zM231 82q60 0 93.5 43t49.5 125q18 76 0.5 122t-77.5 46t-93.5 -43t-49.5 -125q-18 -76 -0.5 -122t77.5 -46zM345 568
q-67 0 -102.5 39.5t-25.5 108.5h98q-10 -64 46 -64t72 64h98q-18 -69 -68.5 -108.5t-117.5 -39.5z" />
    <glyph glyph-name="Aogonek" unicode="&#x104;" horiz-adv-x="616" 
d="M432 0l-17 149h-259l-72 -149h-124l363 700h142l91 -700h-36q-84 -45 -94 -95l-1 -5q-3 -18 7.5 -29.5t34.5 -11.5q37 0 65 22l28 -59q-46 -41 -116 -41q-60 0 -89 26.5t-19 74.5l1 8q6 32 32 62t63 48zM405 253l-34 332l-163 -332h197z" />
    <glyph glyph-name="aogonek" unicode="&#x105;" horiz-adv-x="550" 
d="M326 0l14 77q-21 -41 -62.5 -65t-92.5 -24q-93 0 -131.5 64.5t-13.5 197.5q26 133 90 197.5t157 64.5q51 0 83 -24t38 -65l15 77h114l-97 -500h-26q-84 -45 -94 -95l-1 -5q-3 -18 7.5 -29.5t34.5 -11.5q37 0 65 22l28 -59q-46 -41 -116 -41q-60 0 -89 26.5t-19 74.5l1 8
q6 32 32 62t63 48zM231 82q60 0 93.5 43t49.5 125q18 76 0.5 122t-77.5 46t-93.5 -43t-49.5 -125q-18 -76 -0.5 -122t77.5 -46z" />
    <glyph glyph-name="Cacute" unicode="&#x106;" horiz-adv-x="638" 
d="M68 350q-35 -174 9 -263q52 -99 195 -99q121 0 205.5 68t110.5 178h-120q-15 -66 -61.5 -104t-114.5 -38q-78 0 -105 56q-27 57 1 202t78 202q50 56 127 56q68 0 99.5 -38t20.5 -104h120q17 110 -41 178t-179 68q-144 0 -233 -99q-78 -86 -112 -263zM580 924l-156 -161
h-99l126 161h129z" />
    <glyph glyph-name="cacute" unicode="&#x107;" horiz-adv-x="520" 
d="M40 250q-25 -127 18.5 -194.5t154.5 -67.5q95 0 160.5 46t91.5 131h-115q-11 -39 -42.5 -61t-76.5 -22q-60 0 -77.5 46t0.5 122q16 82 49.5 125t93.5 43q45 0 67.5 -22t18.5 -61h115q7 85 -40.5 131t-142.5 46q-111 0 -180.5 -67.5t-94.5 -194.5zM485 725l-156 -161h-99
l126 161h129z" />
    <glyph glyph-name="Ccircumflex" unicode="&#x108;" horiz-adv-x="638" 
d="M68 350q-35 -174 9 -263q52 -99 195 -99q121 0 205.5 68t110.5 178h-120q-15 -66 -61.5 -104t-114.5 -38q-78 0 -105 56q-27 57 1 202t78 202q50 56 127 56q68 0 99.5 -38t20.5 -104h120q17 110 -41 178t-179 68q-144 0 -233 -99q-78 -86 -112 -263zM499 924l85 -161h-99
l-51 80l-81 -80h-99l147 161h98z" />
    <glyph glyph-name="ccircumflex" unicode="&#x109;" horiz-adv-x="520" 
d="M40 250q-25 -127 18.5 -194.5t154.5 -67.5q95 0 160.5 46t91.5 131h-115q-11 -39 -42.5 -61t-76.5 -22q-60 0 -77.5 46t0.5 122q16 82 49.5 125t93.5 43q45 0 67.5 -22t18.5 -61h115q7 85 -40.5 131t-142.5 46q-111 0 -180.5 -67.5t-94.5 -194.5zM400 725l85 -161h-99
l-50 80l-82 -80h-99l147 161h98z" />
    <glyph glyph-name="Cdotaccent" unicode="&#x10a;" horiz-adv-x="638" 
d="M68 350q-35 -174 9 -263q52 -99 195 -99q121 0 205.5 68t110.5 178h-120q-15 -66 -61.5 -104t-114.5 -38q-78 0 -105 56q-27 57 1 202t78 202q50 56 127 56q68 0 99.5 -38t20.5 -104h120q17 110 -41 178t-179 68q-144 0 -233 -99q-78 -86 -112 -263zM505 902l-24 -122
h-118l24 122h118z" />
    <glyph glyph-name="cdotaccent" unicode="&#x10b;" horiz-adv-x="520" 
d="M40 250q-25 -127 18.5 -194.5t154.5 -67.5q95 0 160.5 46t91.5 131h-115q-11 -39 -42.5 -61t-76.5 -22q-60 0 -77.5 46t0.5 122q16 82 49.5 125t93.5 43q45 0 67.5 -22t18.5 -61h115q7 85 -40.5 131t-142.5 46q-111 0 -180.5 -67.5t-94.5 -194.5zM406 703l-24 -122h-118
l24 122h118z" />
    <glyph glyph-name="Ccaron" unicode="&#x10c;" horiz-adv-x="638" 
d="M68 350q-35 -174 9 -263q52 -99 195 -99q121 0 205.5 68t110.5 178h-120q-15 -66 -61.5 -104t-114.5 -38q-78 0 -105 56q-27 57 1 202t78 202q50 56 127 56q68 0 99.5 -38t20.5 -104h120q17 110 -41 178t-179 68q-144 0 -233 -99q-78 -86 -112 -263zM615 924l-147 -161
h-98l-85 161h99l51 -80l81 80h99z" />
    <glyph glyph-name="ccaron" unicode="&#x10d;" horiz-adv-x="520" 
d="M40 250q-25 -127 18.5 -194.5t154.5 -67.5q95 0 160.5 46t91.5 131h-115q-11 -39 -42.5 -61t-76.5 -22q-60 0 -77.5 46t0.5 122q16 82 49.5 125t93.5 43q45 0 67.5 -22t18.5 -61h115q7 85 -40.5 131t-142.5 46q-111 0 -180.5 -67.5t-94.5 -194.5zM516 725l-147 -161h-98
l-85 161h99l51 -80l81 80h99z" />
    <glyph glyph-name="Dcaron" unicode="&#x10e;" horiz-adv-x="644" 
d="M492 350q26 139 -4 198q-24 48 -110 48h-123l-95 -492h123q84 0 128 48q53 58 81 198zM612 350q-17 -85 -41 -147.5t-69 -112.5q-81 -90 -227 -90h-255l136 700h255q147 0 192 -90q18 -34 23 -80t0.5 -85.5t-14.5 -94.5zM583 924l-147 -161h-98l-85 161h99l51 -80l81 80
h99z" />
    <glyph glyph-name="dcaron" unicode="&#x10f;" horiz-adv-x="648" 
d="M326 0l14 77q-21 -41 -62.5 -65t-92.5 -24q-93 0 -131.5 64.5t-13.5 197.5q26 133 90 197.5t157 64.5q51 0 83 -24t38 -65l54 277h114l-136 -700h-114zM231 82q60 0 93.5 43t49.5 125q18 76 0.5 122t-77.5 46t-93.5 -43t-49.5 -125q-18 -76 -0.5 -122t77.5 -46zM734 700
l-23 -116q-19 -102 -140 -114l9 49q32 5 48.5 20t22.5 45h-58l23 116h118z" />
    <glyph glyph-name="Dcroat" unicode="&#x110;" horiz-adv-x="644" 
d="M36 393h60l60 307h255q147 0 192 -90q18 -34 23 -80t0.5 -85.5t-14.5 -94.5q-17 -85 -41 -147.5t-69 -112.5q-81 -90 -227 -90h-255l59 307h-60zM492 350q26 139 -4 198q-24 48 -110 48h-123l-39 -203h115l-17 -86h-115l-39 -203h123q84 0 128 48q53 58 81 198z" />
    <glyph glyph-name="dcroat" unicode="&#x111;" horiz-adv-x="550" 
d="M310 567l14 74h126l12 59h114l-12 -59h55l-14 -74h-55l-110 -567h-114l14 77q-21 -41 -62.5 -65t-92.5 -24q-93 0 -131.5 64.5t-13.5 197.5q26 133 90 197.5t157 64.5q51 0 83 -24t38 -65l28 144h-126zM231 82q60 0 93.5 43t49.5 125q18 76 0.5 122t-77.5 46t-93.5 -43
t-49.5 -125q-18 -76 -0.5 -122t77.5 -46z" />
    <glyph glyph-name="Emacron" unicode="&#x112;" horiz-adv-x="541" 
d="M20 0l136 700h421l-21 -104h-301l-36 -185h265l-20 -104h-265l-39 -203h306l-20 -104h-426zM243 797l18 92h282l-18 -92h-282z" />
    <glyph glyph-name="emacron" unicode="&#x113;" horiz-adv-x="532" 
d="M481 215h-333q-19 -133 83 -133q40 0 69.5 18.5t42.5 51.5h116q-29 -79 -92.5 -121.5t-153.5 -42.5q-111 0 -154.5 67.5t-18.5 194.5t94.5 194.5t180.5 67.5t154.5 -67.5t18.5 -194.5zM166 299h216q13 119 -85 119q-99 0 -131 -119zM191 598l18 92h282l-18 -92h-282z" />
    <glyph glyph-name="Ebreve" unicode="&#x114;" horiz-adv-x="541" 
d="M20 0l136 700h421l-21 -104h-301l-36 -185h265l-20 -104h-265l-39 -203h306l-20 -104h-426zM378 765q-67 0 -102.5 39.5t-25.5 108.5h98q-10 -64 47 -64q55 0 71 64h98q-17 -69 -68 -108.5t-118 -39.5z" />
    <glyph glyph-name="ebreve" unicode="&#x115;" horiz-adv-x="532" 
d="M481 215h-333q-19 -133 83 -133q40 0 69.5 18.5t42.5 51.5h116q-29 -79 -92.5 -121.5t-153.5 -42.5q-111 0 -154.5 67.5t-18.5 194.5t94.5 194.5t180.5 67.5t154.5 -67.5t18.5 -194.5zM166 299h216q13 119 -85 119q-99 0 -131 -119zM326 568q-67 0 -102.5 39.5
t-25.5 108.5h98q-10 -64 46 -64t72 64h98q-18 -69 -68.5 -108.5t-117.5 -39.5z" />
    <glyph glyph-name="Edotaccent" unicode="&#x116;" horiz-adv-x="541" 
d="M20 0l136 700h421l-21 -104h-301l-36 -185h265l-20 -104h-265l-39 -203h306l-20 -104h-426zM464 902l-24 -122h-118l24 122h118z" />
    <glyph glyph-name="edotaccent" unicode="&#x117;" horiz-adv-x="532" 
d="M481 215h-333q-19 -133 83 -133q40 0 69.5 18.5t42.5 51.5h116q-29 -79 -92.5 -121.5t-153.5 -42.5q-111 0 -154.5 67.5t-18.5 194.5t94.5 194.5t180.5 67.5t154.5 -67.5t18.5 -194.5zM166 299h216q13 119 -85 119q-99 0 -131 -119zM411 703l-24 -122h-118l24 122h118z
" />
    <glyph glyph-name="Eogonek" unicode="&#x118;" horiz-adv-x="541" 
d="M446 0h-61q-84 -45 -94 -95l-1 -5q-3 -18 7.5 -29.5t34.5 -11.5q37 0 65 22l28 -59q-46 -41 -116 -41q-60 0 -89 26.5t-19 74.5l1 8q6 32 32 62t63 48h-277l136 700h421l-21 -104h-301l-36 -185h265l-20 -104h-265l-39 -203h306z" />
    <glyph glyph-name="eogonek" unicode="&#x119;" horiz-adv-x="532" 
d="M481 215h-333q-19 -133 83 -133q40 0 69.5 18.5t42.5 51.5h116q-46 -126 -174 -156q-78 -44 -86 -91l-1 -5q-3 -18 7.5 -29.5t34.5 -11.5q37 0 65 22l28 -59q-46 -41 -116 -41q-59 0 -88.5 26.5t-20.5 70.5l1 8q13 60 77 103q-96 8 -132.5 75t-13.5 186
q25 127 94.5 194.5t180.5 67.5t154.5 -67.5t18.5 -194.5zM166 299h216q13 119 -85 119q-99 0 -131 -119z" />
    <glyph glyph-name="Ecaron" unicode="&#x11a;" horiz-adv-x="541" 
d="M20 0l136 700h421l-21 -104h-301l-36 -185h265l-20 -104h-265l-39 -203h306l-20 -104h-426zM574 924l-147 -161h-98l-85 161h99l51 -80l81 80h99z" />
    <glyph glyph-name="ecaron" unicode="&#x11b;" horiz-adv-x="532" 
d="M481 215h-333q-19 -133 83 -133q40 0 69.5 18.5t42.5 51.5h116q-29 -79 -92.5 -121.5t-153.5 -42.5q-111 0 -154.5 67.5t-18.5 194.5t94.5 194.5t180.5 67.5t154.5 -67.5t18.5 -194.5zM166 299h216q13 119 -85 119q-99 0 -131 -119zM521 725l-147 -161h-98l-85 161h99
l51 -80l81 80h99z" />
    <glyph glyph-name="Gcircumflex" unicode="&#x11c;" horiz-adv-x="655" 
d="M68 350q-35 -174 9 -263q52 -99 187 -99q61 0 111.5 27t78.5 71l2 -86h86l71 368h-262l-19 -100h144l-4 -20q-12 -61 -50 -103q-49 -53 -130 -53q-78 0 -105 56q-27 57 1 202t78 202q50 56 127 56q68 0 99.5 -38t20.5 -104h120q17 110 -41 178t-179 68q-144 0 -233 -99
q-78 -86 -112 -263zM504 924l85 -161h-99l-51 80l-81 -80h-99l147 161h98z" />
    <glyph glyph-name="gcircumflex" unicode="&#x11d;" horiz-adv-x="550" 
d="M374 250q18 76 1 122t-78 46t-94 -42.5t-49 -125.5q-18 -76 -1 -122t78 -46t94 42.5t49 125.5zM537 500l-101 -516q-18 -98 -82 -157t-175 -59q-91 0 -137.5 40t-42.5 114h116q-1 -33 19.5 -49.5t62.5 -16.5q101 0 123 118l20 103q-21 -41 -62.5 -65t-92.5 -24
q-93 0 -131.5 64.5t-13.5 197.5q26 133 90 197.5t157 64.5q51 0 83 -24t38 -65l15 77h114zM419 725l85 -161h-99l-50 80l-82 -80h-99l147 161h98z" />
    <glyph glyph-name="Gbreve" unicode="&#x11e;" horiz-adv-x="655" 
d="M68 350q-35 -174 9 -263q52 -99 187 -99q61 0 111.5 27t78.5 71l2 -86h86l71 368h-262l-19 -100h144l-4 -20q-12 -61 -50 -103q-49 -53 -130 -53q-78 0 -105 56q-27 57 1 202t78 202q50 56 127 56q68 0 99.5 -38t20.5 -104h120q17 110 -41 178t-179 68q-144 0 -233 -99
q-78 -86 -112 -263zM423 765q-67 0 -102.5 39.5t-25.5 108.5h98q-10 -64 47 -64q55 0 71 64h98q-17 -69 -68 -108.5t-118 -39.5z" />
    <glyph glyph-name="gbreve" unicode="&#x11f;" horiz-adv-x="550" 
d="M374 250q18 76 1 122t-78 46t-94 -42.5t-49 -125.5q-18 -76 -1 -122t78 -46t94 42.5t49 125.5zM537 500l-101 -516q-18 -98 -82 -157t-175 -59q-91 0 -137.5 40t-42.5 114h116q-1 -33 19.5 -49.5t62.5 -16.5q101 0 123 118l20 103q-21 -41 -62.5 -65t-92.5 -24
q-93 0 -131.5 64.5t-13.5 197.5q26 133 90 197.5t157 64.5q51 0 83 -24t38 -65l15 77h114zM340 568q-67 0 -102.5 39.5t-25.5 108.5h98q-10 -64 46 -64t72 64h98q-18 -69 -68.5 -108.5t-117.5 -39.5z" />
    <glyph glyph-name="Gdotaccent" unicode="&#x120;" horiz-adv-x="655" 
d="M68 350q-35 -174 9 -263q52 -99 187 -99q61 0 111.5 27t78.5 71l2 -86h86l71 368h-262l-19 -100h144l-4 -20q-12 -61 -50 -103q-49 -53 -130 -53q-78 0 -105 56q-27 57 1 202t78 202q50 56 127 56q68 0 99.5 -38t20.5 -104h120q17 110 -41 178t-179 68q-144 0 -233 -99
q-78 -86 -112 -263zM509 902l-24 -122h-118l24 122h118z" />
    <glyph glyph-name="gdotaccent" unicode="&#x121;" horiz-adv-x="550" 
d="M374 250q18 76 1 122t-78 46t-94 -42.5t-49 -125.5q-18 -76 -1 -122t78 -46t94 42.5t49 125.5zM537 500l-101 -516q-18 -98 -82 -157t-175 -59q-91 0 -137.5 40t-42.5 114h116q-1 -33 19.5 -49.5t62.5 -16.5q101 0 123 118l20 103q-21 -41 -62.5 -65t-92.5 -24
q-93 0 -131.5 64.5t-13.5 197.5q26 133 90 197.5t157 64.5q51 0 83 -24t38 -65l15 77h114zM425 703l-24 -122h-118l24 122h118z" />
    <glyph glyph-name="Gcommaaccent" unicode="&#x122;" horiz-adv-x="655" 
d="M68 350q34 177 112 263q89 99 233 99q121 0 179 -68t41 -178h-120q11 66 -20.5 104t-99.5 38q-77 0 -127 -56q-50 -57 -78 -202t-1 -202q27 -56 105 -56q81 0 130 53q38 42 50 103l4 20h-144l19 100h262l-71 -368h-86l-2 86q-28 -44 -78.5 -71t-111.5 -27q-135 0 -187 99
q-44 89 -9 263zM265 -218h-90l71 170h115z" />
    <glyph glyph-name="gcommaaccent" unicode="&#x123;" horiz-adv-x="550" 
d="M374 250q18 76 1 122t-78 46t-94 -42.5t-49 -125.5q-18 -76 -1 -122t78 -46t94 42.5t49 125.5zM537 500l-101 -516q-18 -98 -82 -157t-175 -59q-91 0 -137.5 40t-42.5 114h116q-1 -33 19.5 -49.5t62.5 -16.5q101 0 123 118l20 103q-21 -41 -62.5 -65t-92.5 -24
q-93 0 -131.5 64.5t-13.5 197.5q26 133 90 197.5t157 64.5q51 0 83 -24t38 -65l15 77h114zM371 724h90l-71 -170h-115z" />
    <glyph glyph-name="Hcircumflex" unicode="&#x124;" horiz-adv-x="632" 
d="M392 0l59 307h-252l-59 -307h-120l136 700h120l-57 -289h252l57 289h120l-136 -700h-120zM494 924l85 -161h-99l-51 80l-81 -80h-99l147 161h98z" />
    <glyph glyph-name="hcircumflex" unicode="&#x125;" horiz-adv-x="546" 
d="M499 315l-61 -315h-114l60 313q21 105 -63 105q-52 0 -91.5 -36.5t-51.5 -102.5l-54 -279h-114l136 700h114l-56 -286q23 45 65.5 71.5t96.5 26.5q82 0 116.5 -51t16.5 -146zM295 924l85 -161h-99l-51 80l-81 -80h-99l147 161h98z" />
    <glyph glyph-name="Hbar" unicode="&#x126;" horiz-adv-x="632" 
d="M392 0l59 307h-252l-59 -307h-120l100 516h-60l17 86h60l19 98h120l-19 -98h252l19 98h120l-19 -98h60l-17 -86h-60l-100 -516h-120zM219 411h252l21 105h-252z" />
    <glyph glyph-name="hbar" unicode="&#x127;" horiz-adv-x="546" 
d="M374 641l-14 -74h-126l-30 -153q23 45 65.5 71.5t96.5 26.5q82 0 116.5 -51t16.5 -146l-61 -315h-114l60 313q21 105 -63 105q-52 0 -91.5 -36.5t-51.5 -102.5l-54 -279h-114l110 567h-55l14 74h55l12 59h114l-12 -59h126z" />
    <glyph glyph-name="Itilde" unicode="&#x128;" horiz-adv-x="260" 
d="M276 700l-136 -700h-120l136 700h120zM294 775q-26 0 -43.5 11t-28 22t-19.5 11q-25 0 -31 -36h-98q24 124 119 124q26 0 43.5 -11t28 -22t19.5 -11q25 0 31 36h98q-24 -124 -119 -124z" />
    <glyph glyph-name="itilde" unicode="&#x129;" horiz-adv-x="244" 
d="M15 0l97 500h114l-97 -500h-114zM247 576q-26 0 -43.5 11t-28 22t-19.5 11q-24 0 -31 -36h-98q24 124 119 124q21 0 36.5 -7t23 -15t16 -15t16.5 -7q24 0 31 36h98q-24 -124 -120 -124z" />
    <glyph glyph-name="Imacron" unicode="&#x12a;" horiz-adv-x="260" 
d="M276 700l-136 -700h-120l136 700h120zM93 797l18 92h282l-18 -92h-282z" />
    <glyph glyph-name="imacron" unicode="&#x12b;" horiz-adv-x="244" 
d="M15 0l97 500h114l-97 -500h-114zM47 598l18 92h282l-18 -92h-282z" />
    <glyph glyph-name="Ibreve" unicode="&#x12c;" horiz-adv-x="260" 
d="M276 700l-136 -700h-120l136 700h120zM228 765q-67 0 -102.5 39.5t-25.5 108.5h98q-10 -64 47 -64q55 0 71 64h98q-17 -69 -68 -108.5t-118 -39.5z" />
    <glyph glyph-name="ibreve" unicode="&#x12d;" horiz-adv-x="244" 
d="M15 0l97 500h114l-97 -500h-114zM182 568q-67 0 -102.5 39.5t-25.5 108.5h98q-10 -64 46 -64t72 64h98q-18 -69 -68.5 -108.5t-117.5 -39.5z" />
    <glyph glyph-name="Iogonek" unicode="&#x12e;" horiz-adv-x="260" 
d="M276 700l-136 -700q-84 -45 -94 -95l-1 -5q-3 -18 7.5 -29.5t34.5 -11.5q37 0 65 22l28 -59q-46 -41 -116 -41q-59 0 -88 26.5t-21 70.5l1 8q6 30 32 62t64 52h-32l136 700h120z" />
    <glyph glyph-name="iogonek" unicode="&#x12f;" horiz-adv-x="244" 
d="M226 500l-97 -500q-84 -45 -94 -95l-1 -5q-3 -18 7.5 -29.5t34.5 -11.5q37 0 65 22l28 -59q-46 -41 -116 -41q-59 0 -88 26.5t-20 70.5l1 8q6 29 31.5 61.5t63.5 52.5h-26l97 500h114zM129 590l22 110h114l-22 -110h-114z" />
    <glyph glyph-name="Idotaccent" unicode="&#x130;" horiz-adv-x="260" 
d="M276 700l-136 -700h-120l136 700h120zM314 902l-24 -122h-118l24 122h118z" />
    <glyph glyph-name="dotlessi" unicode="&#x131;" horiz-adv-x="244" 
d="M15 0l97 500h114l-97 -500h-114z" />
    <glyph glyph-name="IJ" unicode="&#x132;" horiz-adv-x="798" 
d="M276 700l-136 -700h-120l136 700h120zM273 223h120q-22 -131 80 -131q106 0 134 140l91 468h120l-95 -486q-21 -109 -92.5 -167.5t-178.5 -58.5q-105 0 -153.5 58.5t-27.5 167.5z" />
    <glyph glyph-name="ij" unicode="&#x133;" horiz-adv-x="488" 
d="M129 590l22 110h114l-22 -110h-114zM15 0l97 500h114l-97 -500h-114zM248 -53l108 553h114l-110 -566q-15 -75 -65.5 -113.5t-131.5 -38.5q-31 0 -46 3l18 92h37q63 0 76 70zM373 590l22 110h114l-22 -110h-114z" />
    <glyph glyph-name="Jcircumflex" unicode="&#x134;" horiz-adv-x="538" 
d="M13 223h120q-22 -131 80 -131q106 0 134 140l91 468h120l-95 -486q-21 -109 -92.5 -167.5t-178.5 -58.5q-105 0 -153.5 58.5t-27.5 167.5zM590 924l85 -161h-99l-51 80l-81 -80h-99l147 161h98z" />
    <glyph glyph-name="jcircumflex" unicode="&#x135;" horiz-adv-x="244" 
d="M4 -53l108 553h114l-110 -566q-15 -75 -65 -113.5t-131 -38.5q-31 0 -46 3l18 94q14 -2 37 -2q62 0 75 70zM261 725l85 -161h-99l-50 80l-82 -80h-99l147 161h98z" />
    <glyph glyph-name="Kcommaaccent" unicode="&#x136;" horiz-adv-x="596" 
d="M656 700l-281 -341l176 -359h-134l-149 307h-69l-59 -307h-120l136 700h120l-57 -289h69l237 289h131zM224 -218h-90l71 170h115z" />
    <glyph glyph-name="kcommaaccent" unicode="&#x137;" horiz-adv-x="496" 
d="M10 0l136 700h114l-77 -395h47l161 195h124l-202 -240l128 -260h-128l-101 217h-46l-42 -217h-114zM165 -218h-90l71 170h115z" />
    <glyph glyph-name="kgreenlandic" unicode="&#x138;" horiz-adv-x="496" 
d="M10 0l97 500h114l-38 -195h47l161 195h124l-202 -240l128 -260h-128l-101 217h-46l-42 -217h-114z" />
    <glyph glyph-name="Lacute" unicode="&#x139;" horiz-adv-x="512" 
d="M20 0l136 700h120l-116 -596h306l-20 -104h-426zM411 924l-156 -161h-99l126 161h129z" />
    <glyph glyph-name="lacute" unicode="&#x13a;" horiz-adv-x="244" 
d="M129 0h-114l136 700h114zM403 924l-156 -161h-99l126 161h129z" />
    <glyph glyph-name="Lcommaaccent" unicode="&#x13b;" horiz-adv-x="512" 
d="M20 0l136 700h120l-116 -596h306l-20 -104h-426zM199 -218h-90l71 170h115z" />
    <glyph glyph-name="lcommaaccent" unicode="&#x13c;" horiz-adv-x="244" 
d="M129 0h-114l136 700h114zM33 -218h-89l70 170h115z" />
    <glyph glyph-name="Lcaron" unicode="&#x13d;" horiz-adv-x="512" 
d="M20 0l136 700h120l-116 -596h306l-20 -104h-426zM522 700l-23 -116q-19 -102 -140 -114l9 49q32 5 48.5 20t22.5 45h-58l23 116h118z" />
    <glyph glyph-name="lcaron" unicode="&#x13e;" horiz-adv-x="337" 
d="M129 0h-114l136 700h114zM423 700l-23 -116q-19 -102 -140 -114l9 49q32 5 48.5 20t22.5 45h-58l23 116h118z" />
    <glyph glyph-name="Ldot" unicode="&#x13f;" horiz-adv-x="512" 
d="M20 0l136 700h120l-116 -596h306l-20 -104h-426zM451 438l-24 -122h-118l24 122h118z" />
    <glyph glyph-name="ldot" unicode="&#x140;" horiz-adv-x="367" 
d="M129 0h-114l136 700h114zM392 438l-24 -122h-118l24 122h118z" />
    <glyph glyph-name="Lslash" unicode="&#x141;" horiz-adv-x="512" 
d="M66 239l-66 -31l18 94l66 31l72 367h120l-59 -303l189 91l-18 -94l-190 -91l-38 -199h306l-20 -104h-426z" />
    <glyph glyph-name="lslash" unicode="&#x142;" horiz-adv-x="304" 
d="M159 0h-114l54 279l-83 -39l16 82l83 39l66 339h114l-55 -280l83 40l-16 -82l-83 -40z" />
    <glyph glyph-name="Nacute" unicode="&#x143;" horiz-adv-x="642" 
d="M399 0l-166 491l-95 -491h-118l136 700h123l165 -491l96 491h118l-136 -700h-123zM592 924l-156 -161h-99l126 161h129z" />
    <glyph glyph-name="nacute" unicode="&#x144;" horiz-adv-x="546" 
d="M499 315l-61 -315h-114l60 313q21 105 -63 105q-52 0 -91.5 -36.5t-51.5 -102.5l-54 -279h-114l97 500h114l-17 -86q23 45 65.5 71.5t96.5 26.5q82 0 116.5 -51t16.5 -146zM510 725l-156 -161h-99l126 161h129z" />
    <glyph glyph-name="Ncommaaccent" unicode="&#x145;" horiz-adv-x="642" 
d="M399 0l-166 491l-95 -491h-118l136 700h123l165 -491l96 491h118l-136 -700h-123zM252 -218h-90l71 170h115z" />
    <glyph glyph-name="ncommaaccent" unicode="&#x146;" horiz-adv-x="546" 
d="M499 315l-61 -315h-114l60 313q21 105 -63 105q-52 0 -91.5 -36.5t-51.5 -102.5l-54 -279h-114l97 500h114l-17 -86q23 45 65.5 71.5t96.5 26.5q82 0 116.5 -51t16.5 -146zM192 -218h-90l71 170h115z" />
    <glyph glyph-name="Ncaron" unicode="&#x147;" horiz-adv-x="642" 
d="M399 0l-166 491l-95 -491h-118l136 700h123l165 -491l96 491h118l-136 -700h-123zM615 924l-147 -161h-98l-85 161h99l51 -80l81 80h99z" />
    <glyph glyph-name="ncaron" unicode="&#x148;" horiz-adv-x="546" 
d="M499 315l-61 -315h-114l60 313q21 105 -63 105q-52 0 -91.5 -36.5t-51.5 -102.5l-54 -279h-114l97 500h114l-17 -86q23 45 65.5 71.5t96.5 26.5q82 0 116.5 -51t16.5 -146zM528 725l-147 -161h-98l-85 161h99l51 -80l81 80h99z" />
    <glyph glyph-name="napostrophe" unicode="&#x149;" horiz-adv-x="586" 
d="M539 315l-61 -315h-114l60 313q21 105 -63 105q-52 0 -91.5 -36.5t-51.5 -102.5l-54 -279h-114l97 500h114l-17 -86q23 45 65.5 71.5t96.5 26.5q82 0 116.5 -51t16.5 -146zM214 700l-23 -116q-19 -102 -140 -114l9 49q32 5 48.5 20t22.5 45h-58l23 116h118z" />
    <glyph glyph-name="Eng" unicode="&#x14a;" horiz-adv-x="642" 
d="M399 0l-166 491l-95 -491h-118l136 700h123l165 -491l96 491h118l-149 -766q-15 -75 -65.5 -113.5t-131.5 -38.5q-31 0 -46 3l19 101h34q58 0 69 62z" />
    <glyph glyph-name="eng" unicode="&#x14b;" horiz-adv-x="546" 
d="M312 -61l72 374q21 105 -63 105q-52 0 -91.5 -36.5t-51.5 -102.5l-54 -279h-114l97 500h114l-17 -86q23 45 65.5 71.5t96.5 26.5q82 0 116.5 -51t16.5 -146l-74 -381q-15 -75 -65.5 -113.5t-131.5 -38.5q-31 0 -46 3l18 92h37q62 0 75 62z" />
    <glyph glyph-name="Omacron" unicode="&#x14c;" horiz-adv-x="650" 
d="M498 350q28 143 0 202q-27 56 -105 56q-77 0 -127 -56q-50 -57 -78 -202t-1 -202q27 -56 105 -56q77 0 127 56q51 58 79 202zM68 350q34 177 112 263q89 99 233 99q145 0 195 -99q43 -88 10 -263q-36 -178 -113 -263q-88 -99 -233 -99q-143 0 -195 99q-44 89 -9 263z
M288 797l18 92h282l-18 -92h-282z" />
    <glyph glyph-name="omacron" unicode="&#x14d;" horiz-adv-x="532" 
d="M231 82q60 0 93.5 43t49.5 125q18 76 0.5 122t-77.5 46t-93.5 -43t-49.5 -125q-18 -76 -0.5 -122t77.5 -46zM315 512q111 0 154.5 -67.5t18.5 -194.5t-94.5 -194.5t-180.5 -67.5t-154.5 67.5t-18.5 194.5t94.5 194.5t180.5 67.5zM191 598l18 92h282l-18 -92h-282z" />
    <glyph glyph-name="Obreve" unicode="&#x14e;" horiz-adv-x="650" 
d="M498 350q28 143 0 202q-27 56 -105 56q-77 0 -127 -56q-50 -57 -78 -202t-1 -202q27 -56 105 -56q77 0 127 56q51 58 79 202zM68 350q34 177 112 263q89 99 233 99q145 0 195 -99q43 -88 10 -263q-36 -178 -113 -263q-88 -99 -233 -99q-143 0 -195 99q-44 89 -9 263z
M423 765q-67 0 -102.5 39.5t-25.5 108.5h98q-10 -64 47 -64q55 0 71 64h98q-17 -69 -68 -108.5t-118 -39.5z" />
    <glyph glyph-name="obreve" unicode="&#x14f;" horiz-adv-x="532" 
d="M231 82q60 0 93.5 43t49.5 125q18 76 0.5 122t-77.5 46t-93.5 -43t-49.5 -125q-18 -76 -0.5 -122t77.5 -46zM315 512q111 0 154.5 -67.5t18.5 -194.5t-94.5 -194.5t-180.5 -67.5t-154.5 67.5t-18.5 194.5t94.5 194.5t180.5 67.5zM326 568q-67 0 -102.5 39.5t-25.5 108.5
h98q-10 -64 46 -64t72 64h98q-18 -69 -68.5 -108.5t-117.5 -39.5z" />
    <glyph glyph-name="Ohungarumlaut" unicode="&#x150;" horiz-adv-x="650" 
d="M498 350q28 143 0 202q-27 56 -105 56q-77 0 -127 -56q-50 -57 -78 -202t-1 -202q27 -56 105 -56q77 0 127 56q51 58 79 202zM68 350q34 177 112 263q89 99 233 99q145 0 195 -99q43 -88 10 -263q-36 -178 -113 -263q-88 -99 -233 -99q-143 0 -195 99q-44 89 -9 263z
M500 924l-136 -161h-90l111 161h115zM664 924l-161 -161h-90l136 161h115z" />
    <glyph glyph-name="ohungarumlaut" unicode="&#x151;" horiz-adv-x="532" 
d="M231 82q60 0 93.5 43t49.5 125q18 76 0.5 122t-77.5 46t-93.5 -43t-49.5 -125q-18 -76 -0.5 -122t77.5 -46zM315 512q111 0 154.5 -67.5t18.5 -194.5t-94.5 -194.5t-180.5 -67.5t-154.5 67.5t-18.5 194.5t94.5 194.5t180.5 67.5zM407 725l-136 -161h-90l111 161h115z
M571 725l-161 -161h-90l136 161h115z" />
    <glyph glyph-name="OE" unicode="&#x152;" horiz-adv-x="915" 
d="M68 350q16 84 40 147t69 113q81 90 228 90h546l-21 -104h-301l-36 -185h265l-20 -104h-265l-39 -203h306l-20 -104h-551q-148 0 -193 90q-44 84 -8 260zM188 350q-27 -139 3 -198q24 -48 110 -48h113l95 492h-113q-84 0 -128 -48q-54 -58 -80 -198z" />
    <glyph glyph-name="oe" unicode="&#x153;" horiz-adv-x="866" 
d="M631 418q-99 0 -131 -119h216q13 119 -85 119zM231 82q60 0 93.5 43t49.5 125q18 76 0.5 122t-77.5 46t-93.5 -43t-49.5 -125q-18 -76 -0.5 -122t77.5 -46zM551 -12q-61 0 -101 24t-53 65q-28 -41 -77.5 -65t-110.5 -24q-108 0 -151 67.5t-18 194.5t94.5 194.5
t176.5 67.5q61 0 101 -24t53 -65q28 41 77.5 65t110.5 24q108 0 151 -67.5t18 -194.5l-7 -35h-333q-9 -66 10 -99.5t73 -33.5q40 0 69.5 18.5t42.5 51.5h116q-28 -79 -91.5 -121.5t-150.5 -42.5z" />
    <glyph glyph-name="Racute" unicode="&#x154;" horiz-adv-x="621" 
d="M406 62l12 91q8 55 -14.5 80t-80.5 25h-133l-50 -258h-120l136 700h277q109 0 155 -55t26 -158q-27 -138 -152 -176q50 -11 68 -45.5t9 -103.5l-13 -98q-4 -40 0 -64h-122q-4 22 2 62zM210 362h138q122 0 145 117q22 117 -100 117h-138zM561 924l-156 -161h-99l126 161
h129z" />
    <glyph glyph-name="racute" unicode="&#x155;" horiz-adv-x="365" 
d="M335 418q-63 0 -104.5 -40t-56.5 -117l-50 -261h-114l97 500h114l-17 -88q46 100 154 100q27 0 40 -4l-20 -92q-14 2 -43 2zM424 725l-156 -161h-99l126 161h129z" />
    <glyph glyph-name="Rcommaaccent" unicode="&#x156;" horiz-adv-x="621" 
d="M406 62l12 91q8 55 -14.5 80t-80.5 25h-133l-50 -258h-120l136 700h277q109 0 155 -55t26 -158q-27 -138 -152 -176q50 -11 68 -45.5t9 -103.5l-13 -98q-4 -40 0 -64h-122q-4 22 2 62zM210 362h138q122 0 145 117q22 117 -100 117h-138zM228 -218h-90l71 170h115z" />
    <glyph glyph-name="rcommaaccent" unicode="&#x157;" horiz-adv-x="365" 
d="M335 418q-63 0 -104.5 -40t-56.5 -117l-50 -261h-114l97 500h114l-17 -88q46 100 154 100q27 0 40 -4l-20 -92q-14 2 -43 2zM35 -218h-89l70 170h115z" />
    <glyph glyph-name="Rcaron" unicode="&#x158;" horiz-adv-x="621" 
d="M406 62l12 91q8 55 -14.5 80t-80.5 25h-133l-50 -258h-120l136 700h277q109 0 155 -55t26 -158q-27 -138 -152 -176q50 -11 68 -45.5t9 -103.5l-13 -98q-4 -40 0 -64h-122q-4 22 2 62zM210 362h138q122 0 145 117q22 117 -100 117h-138zM580 924l-147 -161h-98l-85 161
h99l51 -80l81 80h99z" />
    <glyph glyph-name="rcaron" unicode="&#x159;" horiz-adv-x="365" 
d="M335 418q-63 0 -104.5 -40t-56.5 -117l-50 -261h-114l97 500h114l-17 -88q46 100 154 100q27 0 40 -4l-20 -92q-14 2 -43 2zM457 725l-147 -161h-98l-85 161h99l51 -80l81 80h99z" />
    <glyph glyph-name="Sacute" unicode="&#x15a;" horiz-adv-x="580" 
d="M528 198q-18 -94 -95 -152t-191 -58t-168 58t-36 152l2 12h120l-3 -15q-9 -47 19.5 -75t85.5 -28t96.5 28t48.5 75q17 82 -79 103l-86 19q-173 38 -143 197q17 85 88.5 141.5t182.5 56.5t160.5 -56.5t32.5 -141.5l-1 -9h-120l1 9q8 42 -16 68t-77 26t-88 -26t-43 -68
q-7 -40 12.5 -62t68.5 -33l86 -19q174 -38 142 -202zM541 924l-156 -161h-99l126 161h129z" />
    <glyph glyph-name="sacute" unicode="&#x15b;" horiz-adv-x="487" 
d="M22 142l3 14h114l-3 -14q-6 -30 14.5 -47t60.5 -17t67 17t32 45t-7.5 42.5t-48.5 21.5l-50 9q-82 15 -115 51t-21 99q13 65 72.5 107t146.5 42q88 0 131.5 -40.5t29.5 -108.5l-2 -10h-114l2 10q5 26 -11 42.5t-53 16.5t-60 -16t-27 -40q-5 -26 9 -39t51 -20l50 -9
q85 -15 114.5 -52t16.5 -104q-13 -66 -76.5 -110t-154.5 -44q-92 0 -138 43t-33 111zM453 725l-156 -161h-99l126 161h129z" />
    <glyph glyph-name="Scircumflex" unicode="&#x15c;" horiz-adv-x="580" 
d="M528 198q-18 -94 -95 -152t-191 -58t-168 58t-36 152l2 12h120l-3 -15q-9 -47 19.5 -75t85.5 -28t96.5 28t48.5 75q17 82 -79 103l-86 19q-173 38 -143 197q17 85 88.5 141.5t182.5 56.5t160.5 -56.5t32.5 -141.5l-1 -9h-120l1 9q8 42 -16 68t-77 26t-88 -26t-43 -68
q-7 -40 12.5 -62t68.5 -33l86 -19q174 -38 142 -202zM458 924l85 -161h-99l-51 80l-81 -80h-99l147 161h98z" />
    <glyph glyph-name="scircumflex" unicode="&#x15d;" horiz-adv-x="487" 
d="M22 142l3 14h114l-3 -14q-6 -30 14.5 -47t60.5 -17t67 17t32 45t-7.5 42.5t-48.5 21.5l-50 9q-82 15 -115 51t-21 99q13 65 72.5 107t146.5 42q88 0 131.5 -40.5t29.5 -108.5l-2 -10h-114l2 10q5 26 -11 42.5t-53 16.5t-60 -16t-27 -40q-5 -26 9 -39t51 -20l50 -9
q85 -15 114.5 -52t16.5 -104q-13 -66 -76.5 -110t-154.5 -44q-92 0 -138 43t-33 111zM372 725l85 -161h-99l-50 80l-82 -80h-99l147 161h98z" />
    <glyph glyph-name="Scedilla" unicode="&#x15e;" horiz-adv-x="580" 
d="M528 198q-16 -81 -75.5 -136t-150.5 -69l-25 -38q44 -4 64 -28.5t12 -62.5q-9 -47 -48.5 -74.5t-96.5 -27.5q-65 0 -106 36l45 63q27 -24 68 -24q45 0 51 30q3 16 -8.5 24t-38.5 8q-25 0 -40 -5l-13 22l48 73q-100 7 -146.5 63.5t-29.5 145.5l2 12h120l-3 -15
q-9 -47 19.5 -75t85.5 -28t96.5 28t48.5 75q17 82 -79 103l-86 19q-173 38 -143 197q17 85 88.5 141.5t182.5 56.5t160.5 -56.5t32.5 -141.5l-1 -9h-120l1 9q8 42 -16 68t-77 26t-88 -26t-43 -68q-7 -40 12.5 -62t68.5 -33l86 -19q174 -38 142 -202z" />
    <glyph glyph-name="scedilla" unicode="&#x15f;" horiz-adv-x="476" 
d="M19 142l3 14h114l-3 -14q-6 -30 14.5 -47t60.5 -17t67 17t32 45t-7.5 42.5t-48.5 21.5l-50 9q-82 15 -115 51t-21 99q13 65 72.5 107t146.5 42q88 0 131.5 -40.5t29.5 -108.5l-2 -10h-114l2 10q5 26 -11 42.5t-53 16.5t-60 -16t-27 -40q-5 -26 9 -39t51 -20l50 -9
q85 -15 114.5 -52t16.5 -104q-11 -55 -58.5 -96t-118.5 -53l-25 -38q44 -4 64 -28.5t12 -62.5q-9 -47 -48.5 -74.5t-96.5 -27.5q-65 0 -106 36l45 63q27 -24 68 -24q45 0 51 30q3 16 -8.5 24t-38.5 8q-25 0 -40 -5l-13 22l50 74q-77 7 -114 49t-25 103z" />
    <glyph glyph-name="Scaron" unicode="&#x160;" horiz-adv-x="580" 
d="M528 198q-18 -94 -95 -152t-191 -58t-168 58t-36 152l2 12h120l-3 -15q-9 -47 19.5 -75t85.5 -28t96.5 28t48.5 75q17 82 -79 103l-86 19q-173 38 -143 197q17 85 88.5 141.5t182.5 56.5t160.5 -56.5t32.5 -141.5l-1 -9h-120l1 9q8 42 -16 68t-77 26t-88 -26t-43 -68
q-7 -40 12.5 -62t68.5 -33l86 -19q174 -38 142 -202zM574 924l-147 -161h-98l-85 161h99l51 -80l81 80h99z" />
    <glyph glyph-name="scaron" unicode="&#x161;" horiz-adv-x="487" 
d="M22 142l3 14h114l-3 -14q-6 -30 14.5 -47t60.5 -17t67 17t32 45t-7.5 42.5t-48.5 21.5l-50 9q-82 15 -115 51t-21 99q13 65 72.5 107t146.5 42q88 0 131.5 -40.5t29.5 -108.5l-2 -10h-114l2 10q5 26 -11 42.5t-53 16.5t-60 -16t-27 -40q-5 -26 9 -39t51 -20l50 -9
q85 -15 114.5 -52t16.5 -104q-13 -66 -76.5 -110t-154.5 -44q-92 0 -138 43t-33 111zM494 725l-147 -161h-98l-85 161h99l51 -80l81 80h99z" />
    <glyph glyph-name="Tcommaaccent" unicode="&#x162;" horiz-adv-x="534" 
d="M53 -202l45 63q27 -24 68 -24q45 0 51 30q3 16 -8.5 24t-38.5 8q-25 0 -40 -5l-13 22l57 84h-17l115 596h-192l21 104h504l-21 -104h-192l-115 -596h-18l-31 -45q44 -4 64 -28.5t12 -62.5q-9 -47 -48.5 -74.5t-96.5 -27.5q-65 0 -106 36z" />
    <glyph glyph-name="tcommaaccent" unicode="&#x163;" horiz-adv-x="375" 
d="M4 -202l45 63q27 -24 68 -24q45 0 51 30q3 16 -8.5 24t-38.5 8q-25 0 -40 -5l-13 22l59 88q-39 13 -52.5 44t-2.5 87l52 271h-71l19 94h71l27 142h114l-27 -142h130l-19 -94h-130l-48 -249q-8 -42 5.5 -56t59.5 -14h51l-17 -91q-24 -3 -72 -3h-13l-25 -38q44 -4 64 -28.5
t12 -62.5q-9 -47 -48.5 -74.5t-96.5 -27.5q-65 0 -106 36z" />
    <glyph glyph-name="Tcaron" unicode="&#x164;" horiz-adv-x="534" 
d="M80 596l21 104h504l-21 -104h-192l-115 -596h-120l115 596h-192zM561 924l-147 -161h-98l-85 161h99l51 -80l81 80h99z" />
    <glyph glyph-name="tcaron" unicode="&#x165;" horiz-adv-x="466" 
d="M238 406l-48 -249q-8 -42 5.5 -56t59.5 -14h51l-17 -91q-24 -3 -72 -3q-93 0 -126.5 31.5t-18.5 110.5l52 271h-71l19 94h71l27 142h114l-27 -142h130l-19 -94h-130zM554 712l-23 -116q-20 -102 -140 -114l10 49q31 5 47.5 20t22.5 45h-58l23 116h118z" />
    <glyph glyph-name="Tbar" unicode="&#x166;" horiz-adv-x="534" 
d="M218 315h-100l16 86h100l38 195h-192l21 104h504l-21 -104h-192l-38 -195h100l-16 -86h-100l-61 -315h-120z" />
    <glyph glyph-name="tbar" unicode="&#x167;" horiz-adv-x="375" 
d="M45 305h60l19 101h-71l19 94h71l27 142h114l-27 -142h130l-19 -94h-130l-19 -101h102l-15 -74h-102l-14 -74q-8 -42 5.5 -56t59.5 -14h51l-17 -91q-24 -3 -72 -3q-93 0 -126.5 31.5t-18.5 110.5l18 96h-60z" />
    <glyph glyph-name="Utilde" unicode="&#x168;" horiz-adv-x="652" 
d="M293 92q141 0 177 183l83 425h120l-86 -442q-25 -124 -106 -197t-208 -73t-180 73t-28 197l86 442h120l-83 -425q-36 -183 105 -183zM490 775q-26 0 -43.5 11t-28 22t-19.5 11q-25 0 -31 -36h-98q24 124 119 124q26 0 43.5 -11t28 -22t19.5 -11q25 0 31 36h98
q-24 -124 -119 -124z" />
    <glyph glyph-name="utilde" unicode="&#x169;" horiz-adv-x="546" 
d="M43 185l62 315h114l-61 -313q-21 -105 63 -105q52 0 91.5 36.5t51.5 102.5l55 279h114l-97 -500h-114l16 86q-23 -45 -65.5 -71.5t-96.5 -26.5q-82 0 -116.5 51t-16.5 146zM397 576q-26 0 -43.5 11t-28 22t-19.5 11q-24 0 -31 -36h-98q24 124 119 124q21 0 36.5 -7
t23 -15t16 -15t16.5 -7q24 0 31 36h98q-24 -124 -120 -124z" />
    <glyph glyph-name="Umacron" unicode="&#x16a;" horiz-adv-x="652" 
d="M293 92q141 0 177 183l83 425h120l-86 -442q-25 -124 -106 -197t-208 -73t-180 73t-28 197l86 442h120l-83 -425q-36 -183 105 -183zM289 797l18 92h282l-18 -92h-282z" />
    <glyph glyph-name="umacron" unicode="&#x16b;" horiz-adv-x="546" 
d="M43 185l62 315h114l-61 -313q-21 -105 63 -105q52 0 91.5 36.5t51.5 102.5l55 279h114l-97 -500h-114l16 86q-23 -45 -65.5 -71.5t-96.5 -26.5q-82 0 -116.5 51t-16.5 146zM197 598l18 92h282l-18 -92h-282z" />
    <glyph glyph-name="Ubreve" unicode="&#x16c;" horiz-adv-x="652" 
d="M293 92q141 0 177 183l83 425h120l-86 -442q-25 -124 -106 -197t-208 -73t-180 73t-28 197l86 442h120l-83 -425q-36 -183 105 -183zM424 765q-67 0 -102.5 39.5t-25.5 108.5h98q-10 -64 47 -64q55 0 71 64h98q-17 -69 -68 -108.5t-118 -39.5z" />
    <glyph glyph-name="ubreve" unicode="&#x16d;" horiz-adv-x="546" 
d="M43 185l62 315h114l-61 -313q-21 -105 63 -105q52 0 91.5 36.5t51.5 102.5l55 279h114l-97 -500h-114l16 86q-23 -45 -65.5 -71.5t-96.5 -26.5q-82 0 -116.5 51t-16.5 146zM332 568q-67 0 -102.5 39.5t-25.5 108.5h98q-10 -64 46 -64t72 64h98q-18 -69 -68.5 -108.5
t-117.5 -39.5z" />
    <glyph glyph-name="Uring" unicode="&#x16e;" horiz-adv-x="652" 
d="M293 92q141 0 177 183l83 425h120l-86 -442q-25 -124 -106 -197t-208 -73t-180 73t-28 197l86 442h120l-83 -425q-36 -183 105 -183zM547 843q-10 -49 -45 -76.5t-83 -27.5t-72.5 27.5t-15.5 76.5t45 76.5t84 27.5t72.5 -27.5t14.5 -76.5zM475 843q4 19 -3.5 29.5
t-24.5 10.5q-36 0 -44 -40q-6 -40 29 -40q17 0 28.5 10.5t14.5 29.5z" />
    <glyph glyph-name="uring" unicode="&#x16f;" horiz-adv-x="546" 
d="M43 185l62 315h114l-61 -313q-21 -105 63 -105q52 0 91.5 36.5t51.5 102.5l55 279h114l-97 -500h-114l16 86q-23 -45 -65.5 -71.5t-96.5 -26.5q-82 0 -116.5 51t-16.5 146zM455 644q-9 -49 -45 -76.5t-84 -27.5t-72.5 27.5t-14.5 76.5t45 76.5t83 27.5t72.5 -27.5
t15.5 -76.5zM383 644q4 19 -4 29.5t-25 10.5q-35 0 -43 -40t28 -40t44 40z" />
    <glyph glyph-name="Uhungarumlaut" unicode="&#x170;" horiz-adv-x="652" 
d="M293 92q141 0 177 183l83 425h120l-86 -442q-25 -124 -106 -197t-208 -73t-180 73t-28 197l86 442h120l-83 -425q-36 -183 105 -183zM511 924l-136 -161h-90l111 161h115zM675 924l-161 -161h-90l136 161h115z" />
    <glyph glyph-name="uhungarumlaut" unicode="&#x171;" horiz-adv-x="546" 
d="M43 185l62 315h114l-61 -313q-21 -105 63 -105q52 0 91.5 36.5t51.5 102.5l55 279h114l-97 -500h-114l16 86q-23 -45 -65.5 -71.5t-96.5 -26.5q-82 0 -116.5 51t-16.5 146zM410 725l-136 -161h-90l111 161h115zM574 725l-161 -161h-90l136 161h115z" />
    <glyph glyph-name="Uogonek" unicode="&#x172;" horiz-adv-x="652" 
d="M293 92q141 0 177 183l83 425h120l-86 -442q-21 -104 -81.5 -173t-156.5 -89q-77 -44 -85 -91l-1 -5q-3 -18 7.5 -29.5t34.5 -11.5q37 0 65 22l28 -59q-46 -41 -116 -41q-60 0 -89 26.5t-19 74.5l1 8q11 57 73 99q-114 7 -160 79t-23 190l86 442h120l-83 -425
q-36 -183 105 -183z" />
    <glyph glyph-name="uogonek" unicode="&#x173;" horiz-adv-x="546" 
d="M436 0h-26q-84 -45 -94 -95l-1 -5q-3 -18 7.5 -29.5t34.5 -11.5q37 0 65 22l28 -59q-46 -41 -116 -41q-60 0 -89 26.5t-19 74.5l1 8q6 32 31.5 61.5t63.5 48.5l16 86q-23 -45 -65.5 -71.5t-96.5 -26.5q-82 0 -116.5 51t-16.5 146l62 315h114l-61 -313q-21 -105 63 -105
q52 0 91.5 36.5t51.5 102.5l55 279h114z" />
    <glyph glyph-name="Wcircumflex" unicode="&#x174;" horiz-adv-x="948" 
d="M652 150l243 550h124l-318 -700h-147l-30 515l-230 -515h-147l-46 700h124l29 -550l245 550h122zM652 924l85 -161h-99l-51 80l-81 -80h-99l147 161h98z" />
    <glyph glyph-name="wcircumflex" unicode="&#x175;" horiz-adv-x="808" 
d="M395 500h112l38 -373l179 373h116l-256 -500h-120l-36 382l-184 -382h-120l-62 500h116l33 -373zM543 725l85 -161h-99l-50 80l-82 -80h-99l147 161h98z" />
    <glyph glyph-name="Ycircumflex" unicode="&#x176;" horiz-adv-x="606" 
d="M327 382l224 318h126l-311 -424l-53 -276h-120l53 276l-145 424h126zM481 924l85 -161h-99l-51 80l-81 -80h-99l147 161h98z" />
    <glyph glyph-name="ycircumflex" unicode="&#x177;" horiz-adv-x="519" 
d="M117 -70l37 68l-92 502h119l58 -360l193 360h119l-337 -605q-37 -66 -78.5 -89.5t-104.5 -23.5q-34 0 -46 2l17 92h37q49 0 78 54zM401 725l85 -161h-99l-50 80l-82 -80h-99l147 161h98z" />
    <glyph glyph-name="Ydieresis" unicode="&#x178;" horiz-adv-x="606" 
d="M327 382l224 318h126l-311 -424l-53 -276h-120l53 276l-145 424h126zM395 902l-24 -122h-118l24 122h118zM579 902l-24 -122h-118l24 122h118z" />
    <glyph glyph-name="Zacute" unicode="&#x179;" horiz-adv-x="542" 
d="M8 94l409 502h-302l21 104h447l-19 -94l-409 -502h317l-20 -104h-462zM547 924l-156 -161h-99l126 161h129z" />
    <glyph glyph-name="zacute" unicode="&#x17a;" horiz-adv-x="458" 
d="M462 500l-17 -84l-299 -322h244l-18 -94h-386l16 84l299 322h-229l19 94h371zM467 725l-156 -161h-99l126 161h129z" />
    <glyph glyph-name="Zdotaccent" unicode="&#x17b;" horiz-adv-x="542" 
d="M8 94l409 502h-302l21 104h447l-19 -94l-409 -502h317l-20 -104h-462zM460 902l-24 -122h-118l24 122h118z" />
    <glyph glyph-name="zdotaccent" unicode="&#x17c;" horiz-adv-x="458" 
d="M462 500l-17 -84l-299 -322h244l-18 -94h-386l16 84l299 322h-229l19 94h371zM381 703l-24 -122h-118l24 122h118z" />
    <glyph glyph-name="Zcaron" unicode="&#x17d;" horiz-adv-x="542" 
d="M8 94l409 502h-302l21 104h447l-19 -94l-409 -502h317l-20 -104h-462zM570 924l-147 -161h-98l-85 161h99l51 -80l81 80h99z" />
    <glyph glyph-name="zcaron" unicode="&#x17e;" horiz-adv-x="458" 
d="M462 500l-17 -84l-299 -322h244l-18 -94h-386l16 84l299 322h-229l19 94h371zM492 725l-147 -161h-98l-85 161h99l51 -80l81 80h99z" />
    <glyph glyph-name="longs" unicode="&#x17f;" horiz-adv-x="355" 
d="M404 613h-48q-41 0 -59.5 -14t-24.5 -48l-107 -551h-114l78 406h-71l19 94h71l11 56q16 82 62 116.5t137 34.5q36 0 63 -4z" />
    <glyph glyph-name="uni0191" unicode="&#x191;" horiz-adv-x="516" 
d="M9 -52l147 752h416l-21 -104h-296l-38 -195h265l-20 -104h-265l-70 -363q-15 -75 -65 -113.5t-131 -38.5q-31 0 -46 3l19 101h37q57 0 68 62z" />
    <glyph glyph-name="florin" unicode="&#x192;" horiz-adv-x="355" 
d="M39 -61l90 467h-71l19 94h71l11 56q16 82 62 116.5t137 34.5q36 0 63 -4l-17 -90h-48q-41 0 -59.5 -14t-24.5 -48l-10 -51h120l-19 -94h-120l-91 -472q-15 -75 -65.5 -113.5t-131.5 -38.5q-30 0 -45 3l18 92h36q62 0 75 62z" />
    <glyph glyph-name="Aringacute" unicode="&#x1fa;" horiz-adv-x="616" 
d="M432 0l-17 149h-258l-73 -149h-124l360 689q-31 28 -21 82q9 49 45 76.5t84 27.5t72.5 -27.5t14.5 -76.5q-11 -55 -53 -82l94 -689h-124zM369 576l-160 -323h195zM569 1009l-106 -113h-85l74 113h117zM443 771q4 19 -3.5 29.5t-24.5 10.5q-36 0 -44 -40q-6 -40 29 -40
q17 0 28.5 10.5t14.5 29.5z" />
    <glyph glyph-name="aringacute" unicode="&#x1fb;" horiz-adv-x="550" 
d="M326 0l14 77q-21 -41 -62.5 -65t-92.5 -24q-93 0 -131.5 64.5t-13.5 197.5q26 133 90 197.5t157 64.5q51 0 83 -24t38 -65l15 77h114l-97 -500h-114zM231 82q60 0 93.5 43t49.5 125q18 76 0.5 122t-77.5 46t-93.5 -43t-49.5 -125q-18 -76 -0.5 -122t77.5 -46zM473 644
q-9 -49 -45 -76.5t-84 -27.5t-72.5 27.5t-14.5 76.5t45 76.5t83 27.5t72.5 -27.5t15.5 -76.5zM401 644q4 19 -4 29.5t-25 10.5q-35 0 -43 -40t28 -40t44 40zM526 882l-106 -113h-85l74 113h117z" />
    <glyph glyph-name="AEacute" unicode="&#x1fc;" horiz-adv-x="881" 
d="M360 0l28 149h-220l-101 -149h-132l490 700h492l-21 -104h-301l-36 -185h265l-20 -104h-265l-39 -203h306l-20 -104h-426zM240 253h169l66 341zM819 924l-156 -161h-99l126 161h129z" />
    <glyph glyph-name="aeacute" unicode="&#x1fd;" horiz-adv-x="866" 
d="M814 215h-332q-18 -133 83 -133q84 0 111 70h117q-31 -81 -89 -122.5t-129 -41.5q-51 0 -82.5 21t-39.5 58l-13 -67h-114l14 77q-21 -41 -62.5 -65t-92.5 -24q-93 0 -131.5 64.5t-13.5 197.5q26 133 90 197.5t157 64.5q51 0 83 -24t38 -65l15 77h114l-13 -67
q48 79 153 79q91 0 131 -65t14 -197q-2 -15 -8 -35zM231 82q60 0 93.5 43t49.5 125q18 76 0.5 122t-77.5 46t-93.5 -43t-49.5 -125q-18 -76 -0.5 -122t77.5 -46zM631 418q-95 0 -131 -119h215q16 119 -84 119zM672 725l-156 -161h-99l126 161h129z" />
    <glyph glyph-name="Oslashacute" unicode="&#x1fe;" horiz-adv-x="650" 
d="M588 732h87l-77 -102q2 -3 5 -8.5t5 -8.5q43 -88 10 -263q-36 -178 -113 -263q-88 -99 -233 -99q-82 0 -134 33l-41 -53h-87l77 102q-4 5 -10 17q-44 89 -9 263q34 177 112 263q89 99 233 99q82 0 134 -33zM498 350q21 109 11 164l-299 -397q30 -25 82 -25q77 0 127 56
q51 58 79 202zM393 608q-77 0 -127 -56q-50 -57 -78 -202q-22 -108 -13 -164l300 396q-31 26 -82 26zM596 924l-156 -161h-99l126 161h129z" />
    <glyph glyph-name="oslashacute" unicode="&#x1ff;" horiz-adv-x="532" 
d="M315 512q54 0 93 -17l32 43h76l-58 -79q57 -66 30 -209q-25 -127 -94.5 -194.5t-180.5 -67.5q-54 0 -94 17l-31 -43h-76l58 78q-57 65 -30 210q25 127 94.5 194.5t180.5 67.5zM154 250q-13 -67 -6 -105l196 263q-19 10 -47 10q-60 0 -93.5 -43t-49.5 -125zM231 82
q60 0 93.5 43t49.5 125q13 67 5 104l-195 -263q18 -9 47 -9zM493 725l-156 -161h-99l126 161h129z" />
    <glyph glyph-name="Scommaaccent" unicode="&#x218;" horiz-adv-x="580" 
d="M528 198q-18 -94 -95 -152t-191 -58t-168 58t-36 152l2 12h120l-3 -15q-9 -47 19.5 -75t85.5 -28t96.5 28t48.5 75q17 82 -79 103l-86 19q-173 38 -143 197q17 85 88.5 141.5t182.5 56.5t160.5 -56.5t32.5 -141.5l-1 -9h-120l1 9q8 42 -16 68t-77 26t-88 -26t-43 -68
q-7 -40 12.5 -62t68.5 -33l86 -19q174 -38 142 -202zM227 -218h-90l71 170h115z" />
    <glyph glyph-name="scommaaccent" unicode="&#x219;" horiz-adv-x="487" 
d="M22 142l3 14h114l-3 -14q-6 -30 14.5 -47t60.5 -17t67 17t32 45t-7.5 42.5t-48.5 21.5l-50 9q-82 15 -115 51t-21 99q13 65 72.5 107t146.5 42q88 0 131.5 -40.5t29.5 -108.5l-2 -10h-114l2 10q5 26 -11 42.5t-53 16.5t-60 -16t-27 -40q-5 -26 9 -39t51 -20l50 -9
q85 -15 114.5 -52t16.5 -104q-13 -66 -76.5 -110t-154.5 -44q-92 0 -138 43t-33 111zM170 -218h-90l71 170h115z" />
    <glyph glyph-name="uni021A" unicode="&#x21a;" horiz-adv-x="534" 
d="M80 596l21 104h504l-21 -104h-192l-115 -596h-120l115 596h-192zM178 -218h-90l71 170h115z" />
    <glyph glyph-name="uni021B" unicode="&#x21b;" horiz-adv-x="365" 
d="M233 406l-48 -249q-8 -42 5.5 -56t59.5 -14h51l-17 -91q-24 -3 -72 -3q-93 0 -126.5 31.5t-18.5 110.5l52 271h-71l19 94h71l27 142h114l-27 -142h130l-19 -94h-130zM118 -218h-90l71 170h115z" />
    <glyph glyph-name="dotlessj" unicode="&#x237;" horiz-adv-x="244" 
d="M4 -53l108 553h114l-110 -566q-15 -75 -65 -113.5t-131 -38.5q-31 0 -46 3l18 94q14 -2 37 -2q62 0 75 70z" />
    <glyph glyph-name="apostrophe" unicode="&#x2bc;" horiz-adv-x="380" 
d="M340 730l-22 -116q-19 -102 -140 -114l9 49q32 5 48.5 20t22.5 45h-58l22 116h118z" />
    <glyph glyph-name="circumflex" unicode="&#x2c6;" horiz-adv-x="380" 
d="M330 730l85 -161h-99l-50 80l-82 -80h-99l147 161h98z" />
    <glyph glyph-name="caron" unicode="&#x2c7;" horiz-adv-x="380" 
d="M446 730l-147 -161h-98l-85 161h99l51 -80l81 80h99z" />
    <glyph glyph-name="uni02C9" unicode="&#x2c9;" horiz-adv-x="380" 
d="M116 602l17 92h282l-17 -92h-282z" />
    <glyph glyph-name="breve" unicode="&#x2d8;" horiz-adv-x="380" 
d="M251 573q-67 0 -102.5 39.5t-25.5 108.5h98q-10 -64 46 -64t72 64h98q-18 -69 -68.5 -108.5t-117.5 -39.5z" />
    <glyph glyph-name="dotaccent" unicode="&#x2d9;" horiz-adv-x="380" 
d="M336 708l-24 -122h-118l24 122h118z" />
    <glyph glyph-name="ring" unicode="&#x2da;" horiz-adv-x="380" 
d="M374 649q-9 -49 -45 -76.5t-84 -27.5t-72.5 27.5t-14.5 76.5t45 76.5t83 27.5t72.5 -27.5t15.5 -76.5zM302 649q4 19 -4 29.5t-25 10.5q-35 0 -43 -40t28 -40t44 40z" />
    <glyph glyph-name="ogonek" unicode="&#x2db;" horiz-adv-x="380" 
d="M95 0h88q-84 -45 -94 -95l-1 -5q-3 -18 7.5 -29.5t34.5 -11.5q37 0 65 22l28 -59q-46 -41 -116 -41q-60 0 -89 26.5t-19 74.5l1 8q6 32 32 62t63 48z" />
    <glyph glyph-name="tilde" unicode="&#x2dc;" horiz-adv-x="380" 
d="M316 582q-26 0 -43.5 11t-28.5 22t-20 11q-24 0 -31 -36h-98q24 124 119 124q21 0 36.5 -7t23 -15t16 -15t16.5 -7q24 0 31 36h98q-24 -124 -119 -124z" />
    <glyph glyph-name="hungarumlaut" unicode="&#x2dd;" horiz-adv-x="380" 
d="M296 730l-136 -161h-90l111 161h115zM460 730l-161 -161h-90l136 161h115z" />
    <glyph glyph-name="gravecomb" unicode="&#x300;" horiz-adv-x="0" 
d="M-158 569l-94 161h129l64 -161h-99z" />
    <glyph glyph-name="acutecomb" unicode="&#x301;" horiz-adv-x="0" 
d="M-29 730l-155 -161h-99l126 161h128z" />
    <glyph glyph-name="uni0302" unicode="&#x302;" horiz-adv-x="0" 
d="M-91 730l84 -161h-98l-50 80l-82 -80h-99l147 161h98z" />
    <glyph glyph-name="tildecomb" unicode="&#x303;" horiz-adv-x="0" 
d="M-105 582q-26 0 -43.5 11t-28.5 22t-20 11q-23 0 -31 -36h-98q24 124 119 124q26 0 43.5 -11t28.5 -22t20 -11q23 0 31 36h97q-24 -124 -118 -124z" />
    <glyph glyph-name="uni0304" unicode="&#x304;" horiz-adv-x="0" 
d="M-305 603l18 92h281l-18 -92h-281z" />
    <glyph glyph-name="uni0306" unicode="&#x306;" horiz-adv-x="0" 
d="M-170 573q-67 0 -102.5 39.5t-25.5 108.5h98q-10 -64 46 -64t72 64h97q-18 -70 -68 -109t-117 -39z" />
    <glyph glyph-name="uni0307" unicode="&#x307;" horiz-adv-x="0" 
d="M-85 708l-24 -122h-118l24 122h118z" />
    <glyph glyph-name="uni0308" unicode="&#x308;" horiz-adv-x="0" 
d="M-177 708l-24 -122h-118l24 122h118zM6 708l-24 -122h-117l24 122h117z" />
    <glyph glyph-name="uni030A" unicode="&#x30a;" horiz-adv-x="0" 
d="M-48 649q-9 -49 -44.5 -76.5t-83.5 -27.5t-72.5 27.5t-14.5 76.5t45 76.5t83 27.5t72.5 -27.5t14.5 -76.5zM-119 649q4 19 -4 29.5t-25 10.5q-35 0 -43 -40t28 -40t44 40z" />
    <glyph glyph-name="uni030C" unicode="&#x30c;" horiz-adv-x="0" 
d="M24 730l-146 -161h-98l-85 161h99l51 -80l81 80h98z" />
    <glyph glyph-name="uni0327" unicode="&#x327;" horiz-adv-x="0" 
d="M-440 -202l45 63q27 -24 68 -24q45 0 51 30q3 16 -8.5 24t-38.5 8q-25 0 -40 -5l-13 22l56 84h85l-30 -45q44 -4 64 -28.5t12 -62.5q-9 -47 -48.5 -74.5t-96.5 -27.5q-65 0 -106 36z" />
    <glyph glyph-name="tonos" unicode="&#x384;" horiz-adv-x="380" 
d="M366 730l-116 -181h-89l93 181h112z" />
    <glyph glyph-name="dieresistonos" unicode="&#x385;" horiz-adv-x="380" 
d="M229 629l-23 -118h-118l23 118h118zM413 629l-23 -118h-118l23 118h118zM415 768l-106 -113h-85l74 113h117z" />
    <glyph glyph-name="Alphatonos" unicode="&#x386;" horiz-adv-x="616" 
d="M84 0h-124l363 700h142l91 -700h-124l-17 149h-259zM405 253l-34 332l-163 -332h197zM270 700l-117 -181h-89l94 181h112z" />
    <glyph glyph-name="anoteleia" unicode="&#x387;" horiz-adv-x="282" 
d="M229 389l-24 -126h-126l24 126h126z" />
    <glyph glyph-name="Epsilontonos" unicode="&#x388;" horiz-adv-x="651" 
d="M130 0l136 700h421l-21 -104h-301l-36 -185h265l-20 -104h-265l-39 -203h306l-20 -104h-426zM236 700l-117 -181h-89l94 181h112z" />
    <glyph glyph-name="Etatonos" unicode="&#x389;" horiz-adv-x="742" 
d="M502 0l59 307h-252l-59 -307h-120l136 700h120l-57 -289h252l57 289h120l-136 -700h-120zM236 700l-117 -181h-89l94 181h112z" />
    <glyph glyph-name="Iotatonos" unicode="&#x38a;" horiz-adv-x="370" 
d="M386 700l-136 -700h-120l136 700h120zM236 700l-117 -181h-89l94 181h112z" />
    <glyph glyph-name="Omicrontonos" unicode="&#x38c;" horiz-adv-x="705" 
d="M553 350q28 143 0 202q-27 56 -105 56q-77 0 -127 -56q-50 -57 -78 -202t-1 -202q27 -56 105 -56q77 0 127 56q51 58 79 202zM123 350q34 177 112 263q89 99 233 99q145 0 195 -99q43 -88 10 -263q-36 -178 -113 -263q-88 -99 -233 -99q-143 0 -195 99q-44 89 -9 263z
M236 700l-117 -181h-89l94 181h112z" />
    <glyph glyph-name="Upsilontonos" unicode="&#x38e;" horiz-adv-x="756" 
d="M477 382l224 318h126l-311 -424l-53 -276h-120l53 276l-145 424h126zM236 700l-117 -181h-89l94 181h112z" />
    <glyph glyph-name="Omegatonos" unicode="&#x38f;" horiz-adv-x="705" 
d="M468 712q147 0 195 -99q44 -93 12 -249q-19 -98 -63.5 -165.5t-103.5 -94.5h105l-20 -104h-233l20 104q69 25 110.5 83.5t62.5 162.5q28 143 0 202q-27 56 -105 56q-77 0 -127 -56q-50 -57 -78 -202q-20 -105 -1.5 -163t78.5 -83l-20 -104h-233l20 104h105
q-49 27 -67.5 94.5t0.5 165.5q33 161 110 249q86 99 233 99zM236 700l-117 -181h-89l94 181h112z" />
    <glyph glyph-name="iotadieresistonos" unicode="&#x390;" horiz-adv-x="261" 
d="M32 117l75 383h114l-72 -371q-4 -22 2.5 -31t26.5 -9h15l-18 -93q-18 -3 -47 -3q-65 0 -87.5 25.5t-8.5 98.5zM167 686l-23 -118h-118l23 118h118zM351 686l-23 -118h-118l23 118h118zM353 825l-106 -113h-85l74 113h117z" />
    <glyph glyph-name="Alpha" unicode="&#x391;" horiz-adv-x="616" 
d="M84 0h-124l363 700h142l91 -700h-124l-17 149h-259zM405 253l-34 332l-163 -332h197z" />
    <glyph glyph-name="Beta" unicode="&#x392;" horiz-adv-x="608" 
d="M220 412h117q62 0 96.5 21t43.5 71q10 50 -16.5 71t-88.5 21h-117zM302 0h-282l136 700h262q217 0 181 -188q-23 -114 -132 -147q55 -13 79.5 -57.5t11.5 -107.5q-39 -200 -256 -200zM440 206q10 55 -15 79t-90 24h-135l-40 -205h135q65 0 99.5 23.5t45.5 78.5z" />
    <glyph glyph-name="Gamma" unicode="&#x393;" horiz-adv-x="502" 
d="M156 700h422l-21 -104h-302l-115 -596h-120z" />
    <glyph glyph-name="uni0394" unicode="&#x394;" horiz-adv-x="616" 
d="M556 0h-596l363 700h142zM421 104l-50 481l-236 -481h286z" />
    <glyph glyph-name="Epsilon" unicode="&#x395;" horiz-adv-x="541" 
d="M20 0l136 700h421l-21 -104h-301l-36 -185h265l-20 -104h-265l-39 -203h306l-20 -104h-426z" />
    <glyph glyph-name="Zeta" unicode="&#x396;" horiz-adv-x="542" 
d="M8 94l409 502h-302l21 104h447l-19 -94l-409 -502h317l-20 -104h-462z" />
    <glyph glyph-name="Eta" unicode="&#x397;" horiz-adv-x="632" 
d="M392 0l59 307h-252l-59 -307h-120l136 700h120l-57 -289h252l57 289h120l-136 -700h-120z" />
    <glyph glyph-name="Theta" unicode="&#x398;" horiz-adv-x="650" 
d="M229 303l19 94h208l-19 -94h-208zM498 350q28 143 0 202q-27 56 -105 56q-77 0 -127 -56q-50 -57 -78 -202t-1 -202q27 -56 105 -56q77 0 127 56q51 58 79 202zM68 350q34 177 112 263q89 99 233 99q145 0 195 -99q43 -88 10 -263q-36 -178 -113 -263q-88 -99 -233 -99
q-143 0 -195 99q-44 89 -9 263z" />
    <glyph glyph-name="Iota" unicode="&#x399;" horiz-adv-x="260" 
d="M276 700l-136 -700h-120l136 700h120z" />
    <glyph glyph-name="Kappa" unicode="&#x39a;" horiz-adv-x="596" 
d="M656 700l-281 -341l176 -359h-134l-149 307h-69l-59 -307h-120l136 700h120l-57 -289h69l237 289h131z" />
    <glyph glyph-name="Lambda" unicode="&#x39b;" horiz-adv-x="616" 
d="M432 0l-61 585l-287 -585h-124l363 700h142l91 -700h-124z" />
    <glyph glyph-name="Mu" unicode="&#x39c;" horiz-adv-x="842" 
d="M426 0h-110l-88 467l-90 -467h-118l136 700h132l108 -570l330 570h132l-136 -700h-118l90 467z" />
    <glyph glyph-name="Nu" unicode="&#x39d;" horiz-adv-x="642" 
d="M399 0l-166 491l-95 -491h-118l136 700h123l165 -491l96 491h118l-136 -700h-123z" />
    <glyph glyph-name="Xi" unicode="&#x39e;" horiz-adv-x="579" 
d="M115 596l21 104h479l-21 -104h-479zM-5 0l20 104h489l-20 -104h-489zM95 307l20 104h407l-20 -104h-407z" />
    <glyph glyph-name="Omicron" unicode="&#x39f;" horiz-adv-x="650" 
d="M498 350q28 143 0 202q-27 56 -105 56q-77 0 -127 -56q-50 -57 -78 -202t-1 -202q27 -56 105 -56q77 0 127 56q51 58 79 202zM68 350q34 177 112 263q89 99 233 99q145 0 195 -99q43 -88 10 -263q-36 -178 -113 -263q-88 -99 -233 -99q-143 0 -195 99q-44 89 -9 263z" />
    <glyph glyph-name="Pi" unicode="&#x3a0;" horiz-adv-x="632" 
d="M392 0l115 596h-252l-115 -596h-120l136 700h492l-136 -700h-120z" />
    <glyph glyph-name="Rho" unicode="&#x3a1;" horiz-adv-x="599" 
d="M210 362h141q118 0 142 117q11 57 -13.5 87t-83.5 30h-141zM348 258h-158l-50 -258h-120l136 700h278q104 0 151.5 -58t27.5 -163q-21 -106 -91 -163.5t-174 -57.5z" />
    <glyph glyph-name="Sigma" unicode="&#x3a3;" horiz-adv-x="530" 
d="M20 106l221 255l-126 234l21 105h445l-21 -104h-303l114 -214l-9 -43l-201 -235h304l-20 -104h-445z" />
    <glyph glyph-name="Tau" unicode="&#x3a4;" horiz-adv-x="534" 
d="M80 596l21 104h504l-21 -104h-192l-115 -596h-120l115 596h-192z" />
    <glyph glyph-name="Upsilon" unicode="&#x3a5;" horiz-adv-x="606" 
d="M327 382l224 318h126l-311 -424l-53 -276h-120l53 276l-145 424h126z" />
    <glyph glyph-name="Phi" unicode="&#x3a6;" horiz-adv-x="730" 
d="M511 700l-21 -106q126 -9 185.5 -70t37.5 -174q-23 -113 -106 -175t-212 -70l-20 -105h-120l20 105q-126 9 -185.5 70.5t-36.5 174.5q22 113 105 174t212 70l21 106h120zM173 350q-13 -65 19.5 -101.5t102.5 -39.5l55 281q-71 -2 -117.5 -38t-59.5 -102zM593 350
q13 66 -20 102t-103 38l-55 -281q71 3 118 39t60 102z" />
    <glyph glyph-name="Chi" unicode="&#x3a7;" horiz-adv-x="608" 
d="M-35 0l285 362l-134 338h132l93 -249l191 249h132l-267 -338l146 -362h-132l-105 272l-209 -272h-132z" />
    <glyph glyph-name="Psi" unicode="&#x3a8;" horiz-adv-x="692" 
d="M385 153l-29 -153h-120l29 153q-106 15 -150.5 86t-23.5 180l55 281h120l-52 -267q-30 -150 72 -173l86 440h120l-86 -440q110 24 140 173l52 267h120l-55 -281q-21 -109 -93.5 -180t-184.5 -86z" />
    <glyph glyph-name="uni03A9" unicode="&#x3a9;" horiz-adv-x="650" 
d="M413 712q147 0 195 -99q44 -93 12 -249q-19 -98 -63.5 -165.5t-103.5 -94.5h105l-20 -104h-233l20 104q69 25 110.5 83.5t62.5 162.5q28 143 0 202q-27 56 -105 56q-77 0 -127 -56q-50 -57 -78 -202q-20 -105 -1.5 -163t78.5 -83l-20 -104h-233l20 104h105
q-49 27 -67.5 94.5t0.5 165.5q33 161 110 249q86 99 233 99z" />
    <glyph glyph-name="Iotadieresis" unicode="&#x3aa;" horiz-adv-x="260" 
d="M276 700l-136 -700h-120l136 700h120zM222 902l-24 -122h-118l24 122h118zM406 902l-24 -122h-118l24 122h118z" />
    <glyph glyph-name="Upsilondieresis" unicode="&#x3ab;" horiz-adv-x="606" 
d="M327 382l224 318h126l-311 -424l-53 -276h-120l53 276l-145 424h126zM395 902l-24 -122h-118l24 122h118zM579 902l-24 -122h-118l24 122h118z" />
    <glyph glyph-name="alphatonos" unicode="&#x3ac;" horiz-adv-x="560" 
d="M340 77q-21 -41 -62.5 -65t-92.5 -24q-93 0 -131.5 64.5t-13.5 197.5q26 133 90 197.5t157 64.5q51 0 83 -24t38 -65l15 77h114l-72 -371q-4 -22 2.5 -31t26.5 -9h15l-18 -93q-18 -3 -47 -3q-62 0 -85 18.5t-19 65.5zM231 82q60 0 93.5 43t49.5 125q18 76 0.5 122
t-77.5 46t-93.5 -43t-49.5 -125q-18 -76 -0.5 -122t77.5 -46zM513 725l-156 -161h-99l126 161h129z" />
    <glyph glyph-name="epsilontonos" unicode="&#x3ad;" horiz-adv-x="489" 
d="M258 304h77l-18 -92h-74q-46 0 -75.5 -17.5t-35.5 -48.5t16.5 -48.5t68.5 -17.5q45 0 75 17t35 46l1 4h114l-1 -7q-14 -69 -78 -110.5t-164 -41.5t-148 41.5t-34 110.5q9 47 43 78.5t82 39.5q-37 9 -57.5 39t-12.5 69q12 64 70 105t156 41t140 -41.5t29 -108.5l-2 -9
h-114l2 9q5 26 -13 42t-60 16t-66 -16t-29 -42t13 -42t60 -16zM476 725l-156 -161h-99l126 161h129z" />
    <glyph glyph-name="etatonos" unicode="&#x3ae;" horiz-adv-x="546" 
d="M499 315l-104 -533h-114l103 531q21 105 -63 105q-52 0 -91.5 -36.5t-51.5 -102.5l-54 -279h-114l97 500h114l-17 -86q23 45 65.5 71.5t96.5 26.5q82 0 116.5 -51t16.5 -146zM510 725l-156 -161h-99l126 161h129z" />
    <glyph glyph-name="iotatonos" unicode="&#x3af;" horiz-adv-x="261" 
d="M32 117l75 383h114l-72 -371q-4 -22 2.5 -31t26.5 -9h15l-18 -93q-18 -3 -47 -3q-65 0 -87.5 25.5t-8.5 98.5zM359 725l-156 -161h-99l126 161h129z" />
    <glyph glyph-name="upsilondieresistonos" unicode="&#x3b0;" horiz-adv-x="536" 
d="M215 -12q-101 0 -147 50t-28 147l62 315h114l-61 -313q-21 -105 78 -105t120 105l61 313h114l-62 -315q-18 -97 -84 -147t-167 -50zM318 686l-23 -118h-118l23 118h118zM502 686l-23 -118h-118l23 118h118zM504 825l-106 -113h-85l74 113h117z" />
    <glyph glyph-name="alpha" unicode="&#x3b1;" horiz-adv-x="560" 
d="M340 77q-21 -41 -62.5 -65t-92.5 -24q-93 0 -131.5 64.5t-13.5 197.5q26 133 90 197.5t157 64.5q51 0 83 -24t38 -65l15 77h114l-72 -371q-4 -22 2.5 -31t26.5 -9h15l-18 -93q-18 -3 -47 -3q-62 0 -85 18.5t-19 65.5zM231 82q60 0 93.5 43t49.5 125q18 76 0.5 122
t-77.5 46t-93.5 -43t-49.5 -125q-18 -76 -0.5 -122t77.5 -46z" />
    <glyph glyph-name="beta" unicode="&#x3b2;" horiz-adv-x="565" 
d="M549 514q-11 -56 -49.5 -95.5t-96.5 -50.5q62 -6 95.5 -51.5t19.5 -116.5q-19 -100 -89 -156t-160 -56q-117 0 -131 89l-57 -295h-114l139 712q20 103 88 160.5t174 57.5q104 0 151.5 -55t29.5 -143zM434 509q10 51 -12 80t-72 29q-106 0 -131 -129l-54 -273
q-26 -134 95 -134q59 0 96.5 32t49.5 92q11 54 -19.5 84.5t-94.5 30.5h-24l18 94h24q51 0 83.5 25t40.5 69z" />
    <glyph glyph-name="gamma" unicode="&#x3b3;" horiz-adv-x="518" 
d="M223 -218h-114l41 208l-88 510h119l52 -373l198 373h119l-286 -510z" />
    <glyph glyph-name="delta" unicode="&#x3b4;" horiz-adv-x="532" 
d="M157 606l19 94h363l-19 -94h-205l134 -135q69 -69 39 -221q-51 -262 -275 -262t-173 262q23 119 82.5 183t144.5 71zM231 82q60 0 93.5 43t49.5 125q18 76 0.5 122t-77.5 46t-93.5 -43t-49.5 -125q-18 -76 -0.5 -122t77.5 -46z" />
    <glyph glyph-name="epsilon" unicode="&#x3b5;" horiz-adv-x="489" 
d="M258 304h77l-18 -92h-74q-46 0 -75.5 -17.5t-35.5 -48.5t16.5 -48.5t68.5 -17.5q45 0 75 17t35 46l1 4h114l-1 -7q-14 -69 -78 -110.5t-164 -41.5t-148 41.5t-34 110.5q9 47 43 78.5t82 39.5q-37 9 -57.5 39t-12.5 69q12 64 70 105t156 41t140 -41.5t29 -108.5l-2 -9
h-114l2 9q5 26 -13 42t-60 16t-66 -16t-29 -42t13 -42t60 -16z" />
    <glyph glyph-name="zeta" unicode="&#x3b6;" horiz-adv-x="455" 
d="M338 78q29 -1 38.5 -11.5t4.5 -35.5q-7 -38 -41.5 -95t-80.5 -109l-78 26q58 84 80 136q-136 1 -195 55.5t-40 155.5q23 118 113 223.5t225 182.5h-208l19 94h336l-19 -97q-157 -88 -242.5 -184.5t-107.5 -209.5q-13 -68 29 -98t167 -33z" />
    <glyph glyph-name="eta" unicode="&#x3b7;" horiz-adv-x="546" 
d="M499 315l-104 -533h-114l103 531q21 105 -63 105q-52 0 -91.5 -36.5t-51.5 -102.5l-54 -279h-114l97 500h114l-17 -86q23 45 65.5 71.5t96.5 26.5q82 0 116.5 -51t16.5 -146z" />
    <glyph glyph-name="theta" unicode="&#x3b8;" horiz-adv-x="578" 
d="M548 350q-39 -195 -112 -278.5t-200 -83.5t-168 83.5t-2 278.5q38 195 111 278.5t200 83.5t168 -83.5t3 -278.5zM263 577q-46 -53 -74 -180h253q20 123 0.5 172t-83.5 49q-61 0 -96 -41zM350 123q44 52 73 180h-253q-20 -124 0 -172.5t84 -48.5q61 0 96 41z" />
    <glyph glyph-name="iota" unicode="&#x3b9;" horiz-adv-x="261" 
d="M32 117l75 383h114l-72 -371q-4 -22 2.5 -31t26.5 -9h15l-18 -93q-18 -3 -47 -3q-65 0 -87.5 25.5t-8.5 98.5z" />
    <glyph glyph-name="kappa" unicode="&#x3ba;" horiz-adv-x="496" 
d="M10 0l97 500h114l-38 -195h47l161 195h124l-202 -240l128 -260h-128l-101 217h-46l-42 -217h-114z" />
    <glyph glyph-name="lambda" unicode="&#x3bb;" horiz-adv-x="489" 
d="M236 498l-11 66q-5 31 -18.5 42.5t-37.5 11.5h-37l18 92q13 2 47 2q63 0 95.5 -23.5t43.5 -89.5l103 -599h-119l-57 357l-194 -357h-119z" />
    <glyph glyph-name="uni03BC" unicode="&#x3bc;" horiz-adv-x="548" 
d="M221 500l-61 -313q-21 -105 63 -105q52 0 91.5 36.5t51.5 102.5l55 279h114l-97 -500h-114l16 86q-22 -44 -59 -71t-75 -27q-31 0 -50.5 15.5t-23.5 40.5l-51 -262h-114l140 718h114z" />
    <glyph glyph-name="nu" unicode="&#x3bd;" horiz-adv-x="518" 
d="M275 0h-132l-81 500h119l49 -388l201 388h119z" />
    <glyph glyph-name="xi" unicode="&#x3be;" horiz-adv-x="476" 
d="M401 31q-7 -38 -41.5 -95t-80.5 -109l-78 26q58 84 80 136q-139 1 -206 57.5t-48 158.5q15 74 68.5 127t129.5 76q-56 12 -83.5 48.5t-16.5 92.5q14 72 72 117.5t151 45.5q91 0 131 -43t30 -112h-115q2 28 -13 44.5t-51 16.5q-77 0 -93 -79q-7 -40 15 -59.5t67 -19.5h61
l-18 -94h-35q-62 0 -116.5 -42t-66.5 -105q-13 -69 36 -104t178 -37q29 -1 38.5 -11.5t4.5 -35.5z" />
    <glyph glyph-name="omicron" unicode="&#x3bf;" horiz-adv-x="532" 
d="M231 82q60 0 93.5 43t49.5 125q18 76 0.5 122t-77.5 46t-93.5 -43t-49.5 -125q-18 -76 -0.5 -122t77.5 -46zM315 512q111 0 154.5 -67.5t18.5 -194.5t-94.5 -194.5t-180.5 -67.5t-154.5 67.5t-18.5 194.5t94.5 194.5t180.5 67.5z" />
    <glyph glyph-name="pi" unicode="&#x3c0;" horiz-adv-x="566" 
d="M243 406l-78 -406h-114l78 406h-71l19 94h506l-19 -94h-71l-78 -406h-114l78 406h-136z" />
    <glyph glyph-name="rho" unicode="&#x3c1;" horiz-adv-x="540" 
d="M496 250q-25 -133 -89.5 -197.5t-157.5 -64.5q-51 0 -83 24t-38 65l-57 -295h-114l91 468q51 262 275 262t173 -262zM239 82q60 0 93.5 43t49.5 125q18 76 0.5 122t-77.5 46t-93.5 -43t-49.5 -125q-18 -76 -0.5 -122t77.5 -46z" />
    <glyph glyph-name="sigma1" unicode="&#x3c2;" horiz-adv-x="513" 
d="M297 418q-111 0 -139 -148q-21 -106 25 -147.5t178 -44.5q29 -1 38.5 -11.5t4.5 -35.5q-7 -35 -44.5 -99.5t-77.5 -104.5l-78 26q56 80 80 136q-140 6 -204 72t-36 209q23 115 94 178.5t177 63.5q95 0 142.5 -46t40.5 -131h-115q4 39 -18.5 61t-67.5 22z" />
    <glyph glyph-name="sigma" unicode="&#x3c3;" horiz-adv-x="540" 
d="M551 406h-119q37 -11 52.5 -52t2.5 -110q-25 -126 -94.5 -191t-179.5 -65t-154.5 65t-19.5 191t94.5 191t179.5 65h257zM231 82q60 0 93 40.5t49 121.5q16 80 -1.5 121t-77.5 41t-92.5 -40.5t-48.5 -121.5t1 -121.5t77 -40.5z" />
    <glyph glyph-name="tau" unicode="&#x3c4;" horiz-adv-x="455" 
d="M302 406l-51 -264q-6 -33 4 -44t44 -11h26l-17 -91q-26 -3 -54 -3q-81 0 -107.5 30t-10.5 112l52 271h-150l19 94h425l-19 -94h-161z" />
    <glyph glyph-name="upsilon" unicode="&#x3c5;" horiz-adv-x="536" 
d="M215 -12q-101 0 -147 50t-28 147l62 315h114l-61 -313q-21 -105 78 -105t120 105l61 313h114l-62 -315q-18 -97 -84 -147t-167 -50z" />
    <glyph glyph-name="phi" unicode="&#x3c6;" horiz-adv-x="702" 
d="M263 493l-1 -93q-43 -11 -68.5 -46t-40.5 -110q-18 -94 6.5 -128t99.5 -34l82 418h109q137 0 184.5 -64t22.5 -192q-25 -127 -96 -191t-206 -65l-40 -206h-114l40 206q-134 1 -180.5 65t-21.5 191q22 109 75 170.5t149 78.5zM543 244q18 93 -7 127t-100 35l-63 -324
q75 0 113.5 34t56.5 128z" />
    <glyph glyph-name="chi" unicode="&#x3c7;" horiz-adv-x="494" 
d="M279 -218l-72 270l-178 -270h-121l249 369l-100 349h122l66 -251l164 251h122l-236 -349l106 -369h-122z" />
    <glyph glyph-name="psi" unicode="&#x3c8;" horiz-adv-x="666" 
d="M297 -218h-114l41 209q-104 9 -150.5 66.5t-28.5 152.5l57 290h114l-56 -288q-11 -53 9.5 -86t72.5 -39l81 413h114l-81 -413q54 6 87.5 39t44.5 86l56 288h114l-57 -290q-18 -95 -87 -152.5t-176 -66.5z" />
    <glyph glyph-name="omega" unicode="&#x3c9;" horiz-adv-x="760" 
d="M351 402h114l-33 -169q-16 -80 -4 -115.5t56 -35.5t70 35.5t42 115.5q23 123 0 267h116q23 -138 -2 -266q-47 -246 -234 -246q-120 0 -127 111q-50 -111 -171 -111q-185 0 -138 246q24 126 102 266h116q-82 -148 -104 -267q-16 -80 -4 -115.5t56 -35.5t70 35.5t42 115.5z
" />
    <glyph glyph-name="iotadieresis" unicode="&#x3ca;" horiz-adv-x="261" 
d="M170 703l-24 -122h-118l24 122h118zM354 703l-24 -122h-118l24 122h118zM32 117l75 383h114l-72 -371q-4 -22 2.5 -31t26.5 -9h15l-18 -93q-18 -3 -47 -3q-65 0 -87.5 25.5t-8.5 98.5z" />
    <glyph glyph-name="upsilondieresis" unicode="&#x3cb;" horiz-adv-x="536" 
d="M215 -12q-101 0 -147 50t-28 147l62 315h114l-61 -313q-21 -105 78 -105t120 105l61 313h114l-62 -315q-18 -97 -84 -147t-167 -50zM321 703l-24 -122h-118l24 122h118zM505 703l-24 -122h-118l24 122h118z" />
    <glyph glyph-name="omicrontonos" unicode="&#x3cc;" horiz-adv-x="532" 
d="M231 82q60 0 93.5 43t49.5 125q18 76 0.5 122t-77.5 46t-93.5 -43t-49.5 -125q-18 -76 -0.5 -122t77.5 -46zM315 512q111 0 154.5 -67.5t18.5 -194.5t-94.5 -194.5t-180.5 -67.5t-154.5 67.5t-18.5 194.5t94.5 194.5t180.5 67.5zM493 725l-156 -161h-99l126 161h129z" />
    <glyph glyph-name="upsilontonos" unicode="&#x3cd;" horiz-adv-x="536" 
d="M215 -12q-101 0 -147 50t-28 147l62 315h114l-61 -313q-21 -105 78 -105t120 105l61 313h114l-62 -315q-18 -97 -84 -147t-167 -50zM500 725l-156 -161h-99l126 161h129z" />
    <glyph glyph-name="omegatonos" unicode="&#x3ce;" horiz-adv-x="760" 
d="M351 402h114l-33 -169q-16 -80 -4 -115.5t56 -35.5t70 35.5t42 115.5q23 123 0 267h116q23 -138 -2 -266q-47 -246 -234 -246q-120 0 -127 111q-50 -111 -171 -111q-185 0 -138 246q24 126 102 266h116q-82 -148 -104 -267q-16 -80 -4 -115.5t56 -35.5t70 35.5t42 115.5z
M602 725l-156 -161h-99l126 161h129z" />
    <glyph glyph-name="uni0400" unicode="&#x400;" horiz-adv-x="541" 
d="M20 0l136 700h421l-21 -104h-301l-36 -185h265l-20 -104h-265l-39 -203h306l-20 -104h-426zM361 763l-94 161h129l64 -161h-99z" />
    <glyph glyph-name="afii10023" unicode="&#x401;" horiz-adv-x="541" 
d="M20 0l136 700h421l-21 -104h-301l-36 -185h265l-20 -104h-265l-39 -203h306l-20 -104h-426zM372 902l-24 -122h-118l24 122h118zM556 902l-24 -122h-118l24 122h118z" />
    <glyph glyph-name="afii10051" unicode="&#x402;" horiz-adv-x="712" 
d="M527 159l19 94q20 105 -74 105q-79 0 -134 -42l-61 -316h-120l115 596h-192l21 104h504l-21 -104h-192l-34 -179q67 45 153 45q195 0 157 -197l-23 -120q-15 -75 -65.5 -113.5t-131.5 -38.5q-31 0 -46 3l19 101h37q58 0 69 62z" />
    <glyph glyph-name="afii10052" unicode="&#x403;" horiz-adv-x="502" 
d="M156 700h422l-21 -104h-302l-115 -596h-120zM544 924l-156 -161h-99l126 161h129z" />
    <glyph glyph-name="afii10053" unicode="&#x404;" horiz-adv-x="638" 
d="M68 350q34 177 112 263q89 99 233 99q121 0 179 -68t41 -178h-120q11 66 -20.5 104t-99.5 38q-77 0 -127 -56q-44 -48 -67 -150h207l-21 -104h-207q-15 -101 9 -150q27 -56 105 -56q68 0 114.5 38t61.5 104h120q-26 -110 -110.5 -178t-205.5 -68q-143 0 -195 99
q-44 89 -9 263z" />
    <glyph glyph-name="afii10054" unicode="&#x405;" horiz-adv-x="580" 
d="M528 198q-18 -94 -95 -152t-191 -58t-168 58t-36 152l2 12h120l-3 -15q-9 -47 19.5 -75t85.5 -28t96.5 28t48.5 75q17 82 -79 103l-86 19q-173 38 -143 197q17 85 88.5 141.5t182.5 56.5t160.5 -56.5t32.5 -141.5l-1 -9h-120l1 9q8 42 -16 68t-77 26t-88 -26t-43 -68
q-7 -40 12.5 -62t68.5 -33l86 -19q174 -38 142 -202z" />
    <glyph glyph-name="afii10055" unicode="&#x406;" horiz-adv-x="260" 
d="M276 700l-136 -700h-120l136 700h120z" />
    <glyph glyph-name="afii10056" unicode="&#x407;" horiz-adv-x="260" 
d="M276 700l-136 -700h-120l136 700h120zM222 902l-24 -122h-118l24 122h118zM406 902l-24 -122h-118l24 122h118z" />
    <glyph glyph-name="afii10057" unicode="&#x408;" horiz-adv-x="538" 
d="M13 223h120q-22 -131 80 -131q106 0 134 140l91 468h120l-95 -486q-21 -109 -92.5 -167.5t-178.5 -58.5q-105 0 -153.5 58.5t-27.5 167.5z" />
    <glyph glyph-name="afii10058" unicode="&#x409;" horiz-adv-x="972" 
d="M668 700l-56 -288h127q228 0 188 -206q-41 -206 -268 -206h-247l115 596h-232l-83 -431q-20 -100 -65 -136t-138 -36q-29 0 -50 3l19 101h31q38 0 56.5 14.5t26.5 55.5l104 533h472zM591 308l-39 -204h112q123 0 143 102q10 53 -15 77.5t-89 24.5h-112z" />
    <glyph glyph-name="afii10059" unicode="&#x40a;" horiz-adv-x="942" 
d="M638 700l-56 -288h127q228 0 188 -206q-41 -206 -268 -206h-247l59 307h-242l-59 -307h-120l136 700h120l-57 -289h242l57 289h120zM561 308l-39 -204h112q123 0 143 102q10 53 -15 77.5t-89 24.5h-112z" />
    <glyph glyph-name="afii10060" unicode="&#x40b;" horiz-adv-x="717" 
d="M668 265l-51 -265h-120l49 253q20 105 -74 105q-79 0 -134 -42l-61 -316h-120l115 596h-192l21 104h504l-21 -104h-192l-34 -179q67 45 153 45q195 0 157 -197z" />
    <glyph glyph-name="afii10061" unicode="&#x40c;" horiz-adv-x="596" 
d="M656 700l-281 -341l176 -359h-134l-149 307h-69l-59 -307h-120l136 700h120l-57 -289h69l237 289h131zM572 924l-156 -161h-99l126 161h129z" />
    <glyph glyph-name="uni040D" unicode="&#x40d;" horiz-adv-x="642" 
d="M143 0l356 491l-95 -491h118l136 700h-123l-357 -491l96 491h-118l-136 -700h123zM412 763l-94 161h129l64 -161h-99z" />
    <glyph glyph-name="afii10062" unicode="&#x40e;" horiz-adv-x="596" 
d="M129 0q-33 0 -49 2l20 102h34q27 0 44 10t33 37l17 28l-124 521h126l88 -372l228 372h126l-347 -569q-47 -77 -87.5 -104t-108.5 -27zM400 765q-67 0 -102.5 39.5t-25.5 108.5h98q-10 -64 47 -64q55 0 71 64h98q-17 -69 -68 -108.5t-118 -39.5z" />
    <glyph glyph-name="afii10145" unicode="&#x40f;" horiz-adv-x="632" 
d="M412 104l116 596h120l-136 -700h-186l-24 -120h-120l24 120h-186l136 700h120l-116 -596h252z" />
    <glyph glyph-name="afii10017" unicode="&#x410;" horiz-adv-x="616" 
d="M84 0h-124l363 700h142l91 -700h-124l-17 149h-259zM405 253l-34 332l-163 -332h197z" />
    <glyph glyph-name="afii10018" unicode="&#x411;" horiz-adv-x="580" 
d="M589 700l-21 -104h-313l-35 -184h127q228 0 188 -206q-41 -206 -268 -206h-247l136 700h433zM199 308l-39 -204h112q123 0 143 102q10 53 -15 77.5t-89 24.5h-112z" />
    <glyph glyph-name="afii10019" unicode="&#x412;" horiz-adv-x="608" 
d="M220 412h117q62 0 96.5 21t43.5 71q10 50 -16.5 71t-88.5 21h-117zM302 0h-282l136 700h262q217 0 181 -188q-23 -114 -132 -147q55 -13 79.5 -57.5t11.5 -107.5q-39 -200 -256 -200zM440 206q10 55 -15 79t-90 24h-135l-40 -205h135q65 0 99.5 23.5t45.5 78.5z" />
    <glyph glyph-name="afii10020" unicode="&#x413;" horiz-adv-x="502" 
d="M156 700h422l-21 -104h-302l-115 -596h-120z" />
    <glyph glyph-name="afii10021" unicode="&#x414;" horiz-adv-x="642" 
d="M592 104l-44 -224h-120l24 120h-370l-24 -120h-119l43 224h69q55 122 92 308l56 288h434l-116 -596h75zM175 104h222l95 492h-194l-37 -193q-36 -184 -86 -299z" />
    <glyph glyph-name="afii10022" unicode="&#x415;" horiz-adv-x="541" 
d="M20 0l136 700h421l-21 -104h-301l-36 -185h265l-20 -104h-265l-39 -203h306l-20 -104h-426z" />
    <glyph glyph-name="afii10024" unicode="&#x416;" horiz-adv-x="886" 
d="M242 359l-120 341h130l98 -289h62l57 289h120l-57 -289h62l212 289h130l-254 -341l149 -359h-135l-122 307h-62l-59 -307h-120l59 307h-62l-240 -307h-135z" />
    <glyph glyph-name="afii10025" unicode="&#x417;" horiz-adv-x="573" 
d="M28 200l3 11h121l-2 -6q-10 -53 17 -83t84 -30t96 30.5t49 82.5q11 56 -16.5 85.5t-88.5 29.5h-82l20 103h82q108 0 126 93q8 41 -13.5 66.5t-71.5 25.5t-81.5 -25.5t-39.5 -66.5l-1 -5h-120l2 13q16 82 85 135t175 53t154 -53t32 -135q-11 -60 -48.5 -99.5t-92.5 -52.5
q60 -14 86 -59t13 -113q-19 -96 -96.5 -154t-188.5 -58t-166.5 58t-36.5 154z" />
    <glyph glyph-name="afii10026" unicode="&#x418;" horiz-adv-x="642" 
d="M499 491l-356 -491h-123l136 700h118l-96 -491l357 491h123l-136 -700h-118z" />
    <glyph glyph-name="afii10027" unicode="&#x419;" horiz-adv-x="642" 
d="M143 0l356 491l-95 -491h118l136 700h-123l-357 -491l96 491h-118l-136 -700h123zM419 765q-67 0 -102.5 39.5t-25.5 108.5h98q-10 -64 47 -64q55 0 71 64h98q-17 -69 -68 -108.5t-118 -39.5z" />
    <glyph glyph-name="afii10028" unicode="&#x41a;" horiz-adv-x="596" 
d="M656 700l-281 -341l176 -359h-134l-149 307h-69l-59 -307h-120l136 700h120l-57 -289h69l237 289h131z" />
    <glyph glyph-name="afii10029" unicode="&#x41b;" horiz-adv-x="662" 
d="M92 167l104 533h482l-136 -700h-120l115 596h-242l-83 -431q-20 -100 -65 -136t-138 -36q-29 0 -50 3l19 101h31q38 0 56.5 14.5t26.5 55.5z" />
    <glyph glyph-name="afii10030" unicode="&#x41c;" horiz-adv-x="842" 
d="M426 0h-110l-88 467l-90 -467h-118l136 700h132l108 -570l330 570h132l-136 -700h-118l90 467z" />
    <glyph glyph-name="afii10031" unicode="&#x41d;" horiz-adv-x="632" 
d="M392 0l59 307h-252l-59 -307h-120l136 700h120l-57 -289h252l57 289h120l-136 -700h-120z" />
    <glyph glyph-name="afii10032" unicode="&#x41e;" horiz-adv-x="650" 
d="M498 350q28 143 0 202q-27 56 -105 56q-77 0 -127 -56q-50 -57 -78 -202t-1 -202q27 -56 105 -56q77 0 127 56q51 58 79 202zM68 350q34 177 112 263q89 99 233 99q145 0 195 -99q43 -88 10 -263q-36 -178 -113 -263q-88 -99 -233 -99q-143 0 -195 99q-44 89 -9 263z" />
    <glyph glyph-name="afii10033" unicode="&#x41f;" horiz-adv-x="632" 
d="M392 0l115 596h-252l-115 -596h-120l136 700h492l-136 -700h-120z" />
    <glyph glyph-name="afii10034" unicode="&#x420;" horiz-adv-x="599" 
d="M210 362h141q118 0 142 117q11 57 -13.5 87t-83.5 30h-141zM348 258h-158l-50 -258h-120l136 700h278q104 0 151.5 -58t27.5 -163q-21 -106 -91 -163.5t-174 -57.5z" />
    <glyph glyph-name="afii10035" unicode="&#x421;" horiz-adv-x="638" 
d="M68 350q34 177 112 263q89 99 233 99q121 0 179 -68t41 -178h-120q11 66 -20.5 104t-99.5 38q-77 0 -127 -56q-50 -57 -78 -202t-1 -202q27 -56 105 -56q68 0 114.5 38t61.5 104h120q-26 -110 -110.5 -178t-205.5 -68q-143 0 -195 99q-44 89 -9 263z" />
    <glyph glyph-name="afii10036" unicode="&#x422;" horiz-adv-x="534" 
d="M80 596l21 104h504l-21 -104h-192l-115 -596h-120l115 596h-192z" />
    <glyph glyph-name="afii10037" unicode="&#x423;" horiz-adv-x="596" 
d="M129 0q-33 0 -49 2l20 102h34q27 0 44 10t33 37l17 28l-124 521h126l88 -372l228 372h126l-347 -569q-47 -77 -87.5 -104t-108.5 -27z" />
    <glyph glyph-name="afii10038" unicode="&#x424;" horiz-adv-x="730" 
d="M511 700l-21 -106q126 -9 185.5 -70t37.5 -174q-23 -113 -106 -175t-212 -70l-20 -105h-120l20 105q-126 9 -185.5 70.5t-36.5 174.5q22 113 105 174t212 70l21 106h120zM173 350q-13 -65 19.5 -101.5t102.5 -39.5l55 281q-71 -2 -117.5 -38t-59.5 -102zM593 350
q13 66 -20 102t-103 38l-55 -281q71 3 118 39t60 102z" />
    <glyph glyph-name="afii10039" unicode="&#x425;" horiz-adv-x="608" 
d="M-35 0l285 362l-134 338h132l93 -249l191 249h132l-267 -338l146 -362h-132l-105 272l-209 -272h-132z" />
    <glyph glyph-name="afii10040" unicode="&#x426;" horiz-adv-x="657" 
d="M443 -120l24 120h-447l136 700h120l-116 -596h252l116 596h120l-116 -596h75l-44 -224h-120z" />
    <glyph glyph-name="afii10041" unicode="&#x427;" horiz-adv-x="610" 
d="M370 0l55 285q-68 -47 -164 -47q-105 0 -145 50.5t-20 156.5l50 255h120l-48 -243q-12 -63 7 -89t75 -26q90 0 145 44l61 314h120l-136 -700h-120z" />
    <glyph glyph-name="afii10042" unicode="&#x428;" horiz-adv-x="956" 
d="M736 104l116 596h120l-136 -700h-816l136 700h120l-116 -596h228l116 596h120l-116 -596h228z" />
    <glyph glyph-name="afii10043" unicode="&#x429;" horiz-adv-x="981" 
d="M791 0h-771l136 700h120l-116 -596h228l116 596h120l-116 -596h228l116 596h120l-116 -596h75l-44 -224h-120z" />
    <glyph glyph-name="afii10044" unicode="&#x42a;" horiz-adv-x="697" 
d="M80 596l21 104h292l-56 -288h127q228 0 188 -206q-41 -206 -268 -206h-247l115 596h-172zM316 308l-39 -204h112q123 0 143 102q10 53 -15 77.5t-89 24.5h-112z" />
    <glyph glyph-name="afii10045" unicode="&#x42b;" horiz-adv-x="812" 
d="M828 700l-136 -700h-120l136 700h120zM276 700l-56 -288h127q228 0 188 -206q-41 -206 -268 -206h-247l136 700h120zM199 308l-39 -204h112q123 0 143 102q10 53 -15 77.5t-89 24.5h-112z" />
    <glyph glyph-name="afii10046" unicode="&#x42c;" horiz-adv-x="580" 
d="M276 700l-56 -288h127q228 0 188 -206q-41 -206 -268 -206h-247l136 700h120zM199 308l-39 -204h112q123 0 143 102q10 53 -15 77.5t-89 24.5h-112z" />
    <glyph glyph-name="afii10047" unicode="&#x42d;" horiz-adv-x="638" 
d="M606 350q-36 -178 -113 -263q-88 -99 -233 -99q-121 0 -179 68t-41 178h120q-11 -66 20.5 -104t99.5 -38q77 0 127 56q44 48 67 150h-207l21 104h207q15 101 -9 150q-27 56 -105 56q-68 0 -114.5 -38t-61.5 -104h-120q26 110 110.5 178t205.5 68q145 0 195 -99
q43 -88 10 -263z" />
    <glyph glyph-name="afii10048" unicode="&#x42e;" horiz-adv-x="862" 
d="M197 298l-57 -298h-120l136 700h120l-58 -298h73q32 134 101 211q89 99 233 99q145 0 195 -99q43 -88 10 -263q-36 -178 -113 -263q-88 -99 -233 -99q-143 0 -195 99q-38 75 -19 211h-73zM710 350q28 143 0 202q-27 56 -105 56q-77 0 -127 -56q-50 -57 -78 -202t-1 -202
q27 -56 105 -56q77 0 127 56q51 58 79 202z" />
    <glyph glyph-name="afii10049" unicode="&#x42f;" horiz-adv-x="621" 
d="M161 153l-22 -91q-7 -31 -22 -62h-122q14 24 24 64l25 98q18 69 49.5 103.5t85.5 45.5q-111 38 -84 176q20 103 88 158t177 55h277l-136 -700h-120l50 258h-133q-58 0 -90.5 -25t-46.5 -80zM313 362h138l45 234h-138q-122 0 -144 -117q-23 -117 99 -117z" />
    <glyph glyph-name="afii10065" unicode="&#x430;" horiz-adv-x="550" 
d="M326 0l14 77q-21 -41 -62.5 -65t-92.5 -24q-93 0 -131.5 64.5t-13.5 197.5q26 133 90 197.5t157 64.5q51 0 83 -24t38 -65l15 77h114l-97 -500h-114zM231 82q60 0 93.5 43t49.5 125q18 76 0.5 122t-77.5 46t-93.5 -43t-49.5 -125q-18 -76 -0.5 -122t77.5 -46z" />
    <glyph glyph-name="afii10066" unicode="&#x431;" horiz-adv-x="537" 
d="M159 250q-18 -76 -1 -122t78 -46t94 42.5t49 125.5q18 76 1 122t-78 46t-94 -42.5t-49 -125.5zM57 310q29 148 60.5 220.5t79.5 105.5t139 49l152 27l13 -95l-166 -29q-69 -12 -97 -43.5t-45 -121.5q21 41 63 65t95 24q91 0 129.5 -64.5t12.5 -197.5q-51 -262 -275 -262
q-116 0 -155.5 74t-5.5 248z" />
    <glyph glyph-name="afii10067" unicode="&#x432;" horiz-adv-x="502" 
d="M245 0h-235l97 500h227q86 0 120.5 -36.5t21.5 -101.5q-7 -38 -32 -65t-62 -38q84 -22 66 -112q-29 -147 -203 -147zM273 211h-108l-24 -120h108q75 0 86 60q6 31 -9 45.5t-53 14.5zM182 301h101q65 0 77 54q5 28 -8 41t-48 13h-101z" />
    <glyph glyph-name="afii10068" unicode="&#x433;" horiz-adv-x="410" 
d="M418 406h-216l-78 -406h-114l97 500h330z" />
    <glyph glyph-name="afii10069" unicode="&#x434;" horiz-adv-x="528" 
d="M481 94l-40 -204h-114l22 110h-275l-22 -110h-113l39 204h58q38 93 63 224l36 182h364l-79 -406h61zM151 94h155l60 312h-136l-19 -98q-24 -124 -60 -214z" />
    <glyph glyph-name="afii10070" unicode="&#x435;" horiz-adv-x="532" 
d="M481 215h-333q-19 -133 83 -133q40 0 69.5 18.5t42.5 51.5h116q-29 -79 -92.5 -121.5t-153.5 -42.5q-111 0 -154.5 67.5t-18.5 194.5t94.5 194.5t180.5 67.5t154.5 -67.5t18.5 -194.5zM166 299h216q13 119 -85 119q-99 0 -131 -119z" />
    <glyph glyph-name="afii10072" unicode="&#x436;" horiz-adv-x="724" 
d="M314 305l38 195h114l-38 -195h47l143 195h120l-180 -240l106 -260h-124l-83 217h-46l-42 -217h-114l42 217h-46l-167 -217h-124l206 260l-86 240h120l67 -195h47z" />
    <glyph glyph-name="afii10073" unicode="&#x437;" horiz-adv-x="494" 
d="M177 304h77q42 0 66 16t29 42t-13 42t-60 16t-66 -16t-29 -42l-2 -9h-114l2 9q13 67 71 108.5t156 41.5q97 0 139.5 -40.5t30.5 -105.5q-8 -39 -40 -69t-72 -39q45 -8 66.5 -39.5t12.5 -78.5q-14 -69 -78 -110.5t-164 -41.5t-148 41.5t-34 110.5l1 7h114l-1 -4
q-5 -29 18 -46t68 -17q46 0 75.5 17.5t35.5 48.5t-16.5 48.5t-68.5 17.5h-74z" />
    <glyph glyph-name="afii10074" unicode="&#x438;" horiz-adv-x="528" 
d="M160 187l248 313h107l-97 -500h-114l60 313l-247 -313h-107l97 500h114z" />
    <glyph glyph-name="afii10075" unicode="&#x439;" horiz-adv-x="528" 
d="M160 187l248 313h107l-97 -500h-114l60 313l-247 -313h-107l97 500h114zM329 568q-67 0 -102.5 39.5t-25.5 108.5h98q-10 -64 46 -64t72 64h98q-18 -69 -68.5 -108.5t-117.5 -39.5z" />
    <glyph glyph-name="afii10076" unicode="&#x43a;" horiz-adv-x="496" 
d="M10 0l97 500h114l-38 -195h47l161 195h124l-202 -240l128 -260h-128l-101 217h-46l-42 -217h-114z" />
    <glyph glyph-name="afii10077" unicode="&#x43b;" horiz-adv-x="553" 
d="M540 500l-97 -500h-114l78 406h-166l-49 -256q-17 -87 -62.5 -122t-130.5 -35q-21 0 -35 2l18 93h26q31 0 47.5 15t23.5 52l67 345h394z" />
    <glyph glyph-name="afii10078" unicode="&#x43c;" horiz-adv-x="661" 
d="M210 500l93 -377l242 377h103l-97 -500h-110l51 265l-168 -265h-87l-66 265l-51 -265h-110l97 500h103z" />
    <glyph glyph-name="afii10079" unicode="&#x43d;" horiz-adv-x="524" 
d="M511 500l-97 -500h-114l40 210h-176l-40 -210h-114l97 500h114l-38 -196h176l38 196h114z" />
    <glyph glyph-name="afii10080" unicode="&#x43e;" horiz-adv-x="532" 
d="M231 82q60 0 93.5 43t49.5 125q18 76 0.5 122t-77.5 46t-93.5 -43t-49.5 -125q-18 -76 -0.5 -122t77.5 -46zM315 512q111 0 154.5 -67.5t18.5 -194.5t-94.5 -194.5t-180.5 -67.5t-154.5 67.5t-18.5 194.5t94.5 194.5t180.5 67.5z" />
    <glyph glyph-name="afii10081" unicode="&#x43f;" horiz-adv-x="524" 
d="M511 500l-97 -500h-114l78 406h-176l-78 -406h-114l97 500h404z" />
    <glyph glyph-name="afii10082" unicode="&#x440;" horiz-adv-x="550" 
d="M221 500l-15 -77q21 41 62.5 65t92.5 24q93 0 132 -64.5t13 -197.5q-25 -133 -89.5 -197.5t-157.5 -64.5q-51 0 -83 24t-38 65l-57 -295h-114l140 718h114zM249 82q60 0 93.5 43t49.5 125q18 76 0.5 122t-77.5 46t-93.5 -43t-49.5 -125q-18 -76 -0.5 -122t77.5 -46z" />
    <glyph glyph-name="afii10083" unicode="&#x441;" horiz-adv-x="520" 
d="M40 250q25 127 94.5 194.5t180.5 67.5q95 0 142.5 -46t40.5 -131h-115q4 39 -18.5 61t-67.5 22q-60 0 -93.5 -43t-49.5 -125q-18 -76 -0.5 -122t77.5 -46q45 0 76.5 22t42.5 61h115q-26 -85 -91.5 -131t-160.5 -46q-111 0 -154.5 67.5t-18.5 194.5z" />
    <glyph glyph-name="afii10084" unicode="&#x442;" horiz-adv-x="458" 
d="M200 406h-152l19 94h418l-19 -94h-152l-78 -406h-114z" />
    <glyph glyph-name="afii10085" unicode="&#x443;" horiz-adv-x="519" 
d="M117 -70l37 68l-92 502h119l58 -360l193 360h119l-337 -605q-37 -66 -78.5 -89.5t-104.5 -23.5q-34 0 -46 2l17 92h37q49 0 78 54z" />
    <glyph glyph-name="afii10086" unicode="&#x444;" horiz-adv-x="866" 
d="M454 77l-57 -295h-114l57 295q-21 -41 -62.5 -65t-92.5 -24q-93 0 -131.5 64.5t-13.5 197.5q26 133 90 197.5t157 64.5q51 0 83 -24t38 -65l54 277h114l-54 -277q21 41 62.5 65t92.5 24q93 0 132 -64.5t13 -197.5q-25 -133 -89.5 -197.5t-157.5 -64.5q-51 0 -83 24
t-38 65zM231 82q60 0 93.5 43t49.5 125q18 76 0.5 122t-77.5 46t-93.5 -43t-49.5 -125q-18 -76 -0.5 -122t77.5 -46zM565 82q60 0 93.5 43t49.5 125q18 76 0.5 122t-77.5 46t-93.5 -43t-49.5 -125q-18 -76 -0.5 -122t77.5 -46z" />
    <glyph glyph-name="afii10087" unicode="&#x445;" horiz-adv-x="482" 
d="M226 180l-142 -180h-124l213 257l-106 243h124l65 -166l131 166h124l-202 -243l115 -257h-124z" />
    <glyph glyph-name="afii10088" unicode="&#x446;" horiz-adv-x="540" 
d="M493 94l-40 -204h-114l22 110h-351l97 500h114l-79 -406h176l79 406h114l-79 -406h61z" />
    <glyph glyph-name="afii10089" unicode="&#x447;" horiz-adv-x="506" 
d="M282 0l35 183q-54 -33 -122 -33q-84 0 -117.5 40.5t-16.5 127.5l36 182h114l-34 -174q-9 -44 4.5 -63t52.5 -19q61 0 101 32l44 224h114l-97 -500h-114z" />
    <glyph glyph-name="afii10090" unicode="&#x448;" horiz-adv-x="774" 
d="M761 500l-97 -500h-654l97 500h114l-79 -406h156l79 406h114l-79 -406h156l79 406h114z" />
    <glyph glyph-name="afii10091" unicode="&#x449;" horiz-adv-x="790" 
d="M761 500l-79 -406h61l-40 -204h-114l22 110h-601l97 500h114l-79 -406h156l79 406h114l-79 -406h156l79 406h114z" />
    <glyph glyph-name="afii10092" unicode="&#x44a;" horiz-adv-x="582" 
d="M320 0h-218l78 406h-132l19 94h246l-34 -174h104q86 0 125 -42t23 -121q-15 -79 -70 -121t-141 -42zM417 163q14 69 -66 69h-90l-27 -138h90q80 0 93 69z" />
    <glyph glyph-name="afii10093" unicode="&#x44b;" horiz-adv-x="695" 
d="M228 0h-218l97 500h114l-34 -174h104q86 0 125 -42t23 -121q-15 -79 -70 -121t-141 -42zM325 163q14 69 -66 69h-90l-27 -138h90q80 0 93 69zM471 0l97 500h114l-97 -500h-114z" />
    <glyph glyph-name="afii10094" unicode="&#x44c;" horiz-adv-x="490" 
d="M228 0h-218l97 500h114l-34 -174h104q86 0 125 -42t23 -121q-15 -79 -70 -121t-141 -42zM325 163q14 69 -66 69h-90l-27 -138h90q80 0 93 69z" />
    <glyph glyph-name="afii10095" unicode="&#x44d;" horiz-adv-x="520" 
d="M476 250q-25 -127 -94.5 -194.5t-180.5 -67.5q-95 0 -142.5 46t-39.5 131h115q-4 -39 18 -61t67 -22q98 0 132 123h-139l18 90h139q13 123 -84 123q-45 0 -76 -22t-42 -61h-115q25 85 90.5 131t160.5 46q111 0 154.5 -67.5t18.5 -194.5z" />
    <glyph glyph-name="afii10096" unicode="&#x44e;" horiz-adv-x="723" 
d="M506 512q224 0 173 -262t-275 -262q-202 0 -180 215h-61l-39 -203h-114l97 500h114l-40 -203h61q62 215 264 215zM422 82q60 0 93.5 43t49.5 125q18 76 0.5 122t-77.5 46t-93.5 -43t-49.5 -125q-18 -76 -0.5 -122t77.5 -46z" />
    <glyph glyph-name="afii10097" unicode="&#x44f;" horiz-adv-x="514" 
d="M140 110l-17 -66q-6 -28 -15 -44h-113q11 27 15 46l18 70q12 47 37 73t67 34q-86 28 -67 131q14 70 67 108t141 38h228l-97 -500h-114l34 176h-90q-77 0 -94 -66zM176 338q-13 -68 65 -68h101l26 136h-101q-77 0 -91 -68z" />
    <glyph glyph-name="uni0450" unicode="&#x450;" horiz-adv-x="532" 
d="M481 215h-333q-19 -133 83 -133q40 0 69.5 18.5t42.5 51.5h116q-29 -79 -92.5 -121.5t-153.5 -42.5q-111 0 -154.5 67.5t-18.5 194.5t94.5 194.5t180.5 67.5t154.5 -67.5t18.5 -194.5zM166 299h216q13 119 -85 119q-99 0 -131 -119zM313 564l-94 161h129l64 -161h-99z
" />
    <glyph glyph-name="afii10071" unicode="&#x451;" horiz-adv-x="532" 
d="M481 215h-333q-19 -133 83 -133q40 0 69.5 18.5t42.5 51.5h116q-29 -79 -92.5 -121.5t-153.5 -42.5q-111 0 -154.5 67.5t-18.5 194.5t94.5 194.5t180.5 67.5t154.5 -67.5t18.5 -194.5zM166 299h216q13 119 -85 119q-99 0 -131 -119zM319 703l-24 -122h-118l24 122h118z
M503 703l-24 -122h-118l24 122h118z" />
    <glyph glyph-name="afii10099" unicode="&#x452;" horiz-adv-x="546" 
d="M312 -61l72 374q21 105 -63 105q-52 0 -91.5 -36.5t-51.5 -102.5l-54 -279h-114l110 567h-55l14 74h55l12 59h114l-12 -59h126l-14 -74h-126l-30 -153q23 45 65.5 71.5t96.5 26.5q82 0 116.5 -51t16.5 -146l-74 -381q-15 -75 -65.5 -113.5t-131.5 -38.5q-31 0 -46 3
l18 92h37q62 0 75 62z" />
    <glyph glyph-name="afii10100" unicode="&#x453;" horiz-adv-x="410" 
d="M418 406h-216l-78 -406h-114l97 500h330zM451 725l-156 -161h-99l126 161h129z" />
    <glyph glyph-name="afii10101" unicode="&#x454;" horiz-adv-x="520" 
d="M40 250q25 127 94.5 194.5t180.5 67.5q95 0 142.5 -46t40.5 -131h-115q4 39 -18.5 61t-67.5 22q-96 0 -132 -123h139l-18 -90h-139q-6 -60 13 -91.5t71 -31.5q45 0 76.5 22t42.5 61h115q-26 -85 -91.5 -131t-160.5 -46q-111 0 -154.5 67.5t-18.5 194.5z" />
    <glyph glyph-name="afii10102" unicode="&#x455;" horiz-adv-x="487" 
d="M22 142l3 14h114l-3 -14q-6 -30 14.5 -47t60.5 -17t67 17t32 45t-7.5 42.5t-48.5 21.5l-50 9q-82 15 -115 51t-21 99q13 65 72.5 107t146.5 42q88 0 131.5 -40.5t29.5 -108.5l-2 -10h-114l2 10q5 26 -11 42.5t-53 16.5t-60 -16t-27 -40q-5 -26 9 -39t51 -20l50 -9
q85 -15 114.5 -52t16.5 -104q-13 -66 -76.5 -110t-154.5 -44q-92 0 -138 43t-33 111z" />
    <glyph glyph-name="afii10103" unicode="&#x456;" horiz-adv-x="244" 
d="M129 590l22 110h114l-22 -110h-114zM15 0l97 500h114l-97 -500h-114z" />
    <glyph glyph-name="afii10104" unicode="&#x457;" horiz-adv-x="244" 
d="M15 0l97 500h114l-97 -500h-114zM175 703l-24 -122h-118l24 122h118zM359 703l-24 -122h-118l24 122h118z" />
    <glyph glyph-name="afii10105" unicode="&#x458;" horiz-adv-x="244" 
d="M4 -53l108 553h114l-110 -566q-15 -75 -65 -113.5t-131 -38.5q-31 0 -46 3l18 92h37q62 0 75 70zM129 590l22 110h114l-22 -110h-114z" />
    <glyph glyph-name="afii10106" unicode="&#x459;" horiz-adv-x="799" 
d="M537 0h-218l78 406h-156l-49 -256q-17 -87 -62.5 -122t-130.5 -35q-21 0 -35 2l18 93h26q31 0 47.5 15t23.5 52l67 345h384l-34 -174h104q86 0 125 -42t23 -121q-15 -79 -70 -121t-141 -42zM634 163q14 69 -66 69h-90l-27 -138h90q80 0 93 69z" />
    <glyph glyph-name="afii10107" unicode="&#x45a;" horiz-adv-x="770" 
d="M508 0h-218l40 210h-166l-40 -210h-114l97 500h114l-38 -196h166l38 196h114l-34 -174h104q86 0 125 -42t23 -121q-15 -79 -70 -121t-141 -42zM605 163q14 69 -66 69h-90l-27 -138h90q80 0 93 69z" />
    <glyph glyph-name="afii10108" unicode="&#x45b;" horiz-adv-x="546" 
d="M374 641l-14 -74h-126l-30 -153q23 45 65.5 71.5t96.5 26.5q82 0 116.5 -51t16.5 -146l-61 -315h-114l60 313q21 105 -63 105q-52 0 -91.5 -36.5t-51.5 -102.5l-54 -279h-114l110 567h-55l14 74h55l12 59h114l-12 -59h126z" />
    <glyph glyph-name="afii10109" unicode="&#x45c;" horiz-adv-x="496" 
d="M10 0l97 500h114l-38 -195h47l161 195h124l-202 -240l128 -260h-128l-101 217h-46l-42 -217h-114zM484 725l-156 -161h-99l126 161h129z" />
    <glyph glyph-name="uni045D" unicode="&#x45d;" horiz-adv-x="528" 
d="M160 187l248 313h107l-97 -500h-114l60 313l-247 -313h-107l97 500h114zM321 564l-94 161h129l64 -161h-99z" />
    <glyph glyph-name="afii10110" unicode="&#x45e;" horiz-adv-x="519" 
d="M117 -70l37 68l-92 502h119l58 -360l193 360h119l-337 -605q-37 -66 -78.5 -89.5t-104.5 -23.5q-34 0 -46 2l17 92h37q49 0 78 54zM322 568q-67 0 -102.5 39.5t-25.5 108.5h98q-10 -64 46 -64t72 64h98q-18 -69 -68.5 -108.5t-117.5 -39.5z" />
    <glyph glyph-name="afii10193" unicode="&#x45f;" horiz-adv-x="524" 
d="M10 0l97 500h114l-79 -406h176l79 406h114l-97 -500h-145l-22 -110h-114l22 110h-145z" />
    <glyph glyph-name="afii10050" unicode="&#x490;" horiz-adv-x="502" 
d="M557 596h-302l-115 -596h-120l136 700h302l27 140h120z" />
    <glyph glyph-name="afii10098" unicode="&#x491;" horiz-adv-x="410" 
d="M418 406h-216l-78 -406h-114l97 500h216l21 108h114z" />
    <glyph glyph-name="Wgrave" unicode="&#x1e80;" horiz-adv-x="948" 
d="M652 150l243 550h124l-318 -700h-147l-30 515l-230 -515h-147l-46 700h124l29 -550l245 550h122zM545 763l-94 161h129l64 -161h-99z" />
    <glyph glyph-name="wgrave" unicode="&#x1e81;" horiz-adv-x="808" 
d="M395 500h112l38 -373l179 373h116l-256 -500h-120l-36 382l-184 -382h-120l-62 500h116l33 -373zM441 564l-94 161h129l64 -161h-99z" />
    <glyph glyph-name="Wacute" unicode="&#x1e82;" horiz-adv-x="948" 
d="M652 150l243 550h124l-318 -700h-147l-30 515l-230 -515h-147l-46 700h124l29 -550l245 550h122zM755 924l-156 -161h-99l126 161h129z" />
    <glyph glyph-name="wacute" unicode="&#x1e83;" horiz-adv-x="808" 
d="M395 500h112l38 -373l179 373h116l-256 -500h-120l-36 382l-184 -382h-120l-62 500h116l33 -373zM641 725l-156 -161h-99l126 161h129z" />
    <glyph glyph-name="Wdieresis" unicode="&#x1e84;" horiz-adv-x="948" 
d="M652 150l243 550h124l-318 -700h-147l-30 515l-230 -515h-147l-46 700h124l29 -550l245 550h122zM566 902l-24 -122h-118l24 122h118zM750 902l-24 -122h-118l24 122h118z" />
    <glyph glyph-name="wdieresis" unicode="&#x1e85;" horiz-adv-x="808" 
d="M395 500h112l38 -373l179 373h116l-256 -500h-120l-36 382l-184 -382h-120l-62 500h116l33 -373zM457 703l-24 -122h-118l24 122h118zM641 703l-24 -122h-118l24 122h118z" />
    <glyph glyph-name="Ygrave" unicode="&#x1ef2;" horiz-adv-x="606" 
d="M327 382l224 318h126l-311 -424l-53 -276h-120l53 276l-145 424h126zM379 763l-94 161h129l64 -161h-99z" />
    <glyph glyph-name="ygrave" unicode="&#x1ef3;" horiz-adv-x="519" 
d="M117 -70l37 68l-92 502h119l58 -360l193 360h119l-337 -605q-37 -66 -78.5 -89.5t-104.5 -23.5q-34 0 -46 2l17 92h37q49 0 78 54zM287 564l-94 161h129l64 -161h-99z" />
    <glyph glyph-name="thinspace" unicode="&#x2009;" horiz-adv-x="200" 
 />
    <glyph glyph-name="uni2010" unicode="&#x2010;" horiz-adv-x="412" 
d="M53 276l20 100h312l-20 -100h-312z" />
    <glyph glyph-name="figuredash" unicode="&#x2012;" horiz-adv-x="600" 
d="M553 276h-500l20 100h500z" />
    <glyph glyph-name="endash" unicode="&#x2013;" horiz-adv-x="500" 
d="M503 276h-500l20 100h500z" />
    <glyph glyph-name="emdash" unicode="&#x2014;" horiz-adv-x="1000" 
d="M1003 276h-1000l20 100h1000z" />
    <glyph glyph-name="afii00208" unicode="&#x2015;" horiz-adv-x="1000" 
d="M903 276h-800l20 100h800z" />
    <glyph glyph-name="uni2016" unicode="&#x2016;" horiz-adv-x="432" 
d="M14 -130l171 879h92l-171 -879h-92zM174 -130l171 879h92l-171 -879h-92z" />
    <glyph glyph-name="underscoredbl" unicode="&#x2017;" horiz-adv-x="600" 
d="M-46 -234l16 80h500l-16 -80h-500zM-21 -104l16 80h500l-16 -80h-500z" />
    <glyph glyph-name="quoteleft" unicode="&#x2018;" horiz-adv-x="282" 
d="M131 535l25 126q10 50 49 81.5t99 33.5l-10 -54q-65 -5 -75 -61h63l-25 -126h-126z" />
    <glyph glyph-name="quoteright" unicode="&#x2019;" horiz-adv-x="282" 
d="M304 776l-24 -126q-10 -50 -49.5 -81.5t-99.5 -33.5l11 54q63 4 75 61h-63l24 126h126z" />
    <glyph glyph-name="quotesinglbase" unicode="&#x201a;" horiz-adv-x="282" 
d="M178 126l-24 -126q-10 -50 -49.5 -81.5t-99.5 -33.5l11 54q63 5 75 61h-63l24 126h126z" />
    <glyph glyph-name="quotereversed" unicode="&#x201b;" horiz-adv-x="282" 
d="M154 650l24 126h126l-24 -126h-63q-12 -56 51 -61l-11 -54q-59 2 -86 33.5t-17 81.5z" />
    <glyph glyph-name="quotedblleft" unicode="&#x201c;" horiz-adv-x="460" 
d="M131 535l25 126q10 50 49 81.5t99 33.5l-10 -54q-65 -5 -75 -61h63l-25 -126h-126zM309 535l25 126q10 50 49 81.5t99 33.5l-10 -54q-65 -5 -75 -61h63l-25 -126h-126z" />
    <glyph glyph-name="quotedblright" unicode="&#x201d;" horiz-adv-x="460" 
d="M304 776l-24 -126q-10 -50 -49.5 -81.5t-99.5 -33.5l11 54q63 4 75 61h-63l24 126h126zM482 776l-24 -126q-10 -50 -49.5 -81.5t-99.5 -33.5l11 54q63 4 75 61h-63l24 126h126z" />
    <glyph glyph-name="quotedblbase" unicode="&#x201e;" horiz-adv-x="460" 
d="M178 126l-24 -126q-10 -50 -49.5 -81.5t-99.5 -33.5l11 54q63 5 75 61h-63l24 126h126zM356 126l-24 -126q-10 -50 -49.5 -81.5t-99.5 -33.5l11 54q63 5 75 61h-63l24 126h126z" />
    <glyph glyph-name="uni201F" unicode="&#x201f;" horiz-adv-x="460" 
d="M154 650l24 126h126l-24 -126h-63q-12 -56 51 -61l-11 -54q-59 2 -86 33.5t-17 81.5zM332 650l24 126h126l-24 -126h-63q-12 -56 51 -61l-11 -54q-59 2 -86 33.5t-17 81.5z" />
    <glyph glyph-name="dagger" unicode="&#x2020;" horiz-adv-x="556" 
d="M558 580l-18 -94h-166l-120 -617h-104l120 617h-166l18 94h166l33 168h104l-33 -168h166z" />
    <glyph glyph-name="daggerdbl" unicode="&#x2021;" horiz-adv-x="556" 
d="M17 37l18 94h166l69 355h-166l18 94h166l33 168h104l-33 -168h166l-18 -94h-166l-69 -355h166l-18 -94h-166l-33 -168h-104l33 168h-166z" />
    <glyph glyph-name="bullet" unicode="&#x2022;" horiz-adv-x="362" 
d="M322 326q0 -54 -38.5 -92.5t-92.5 -38.5t-92.5 38.5t-38.5 92.5t38.5 92.5t92.5 38.5t92.5 -38.5t38.5 -92.5z" />
    <glyph glyph-name="onedotenleader" unicode="&#x2024;" horiz-adv-x="282" 
d="M178 126l-24 -126h-126l24 126h126z" />
    <glyph glyph-name="twodotenleader" unicode="&#x2025;" horiz-adv-x="564" 
d="M178 126l-24 -126h-126l24 126h126zM460 126l-24 -126h-126l24 126h126z" />
    <glyph glyph-name="ellipsis" unicode="&#x2026;" horiz-adv-x="846" 
d="M178 126l-24 -126h-126l24 126h126zM460 126l-24 -126h-126l24 126h126zM742 126l-24 -126h-126l24 126h126z" />
    <glyph glyph-name="perthousand" unicode="&#x2030;" horiz-adv-x="1150" 
d="M165 0l423 700h97l-423 -700h-97zM400 523q-21 -107 -77 -153q-42 -36 -107 -36q-63 0 -93 36q-38 48 -17 153q21 107 77 153q43 36 107 36t93 -36q38 -48 17 -153zM202 523q-13 -66 -2 -89q9 -18 32 -18q25 0 40 18q19 23 32 89t2 89q-7 18 -32 18q-24 0 -40 -18
q-19 -23 -32 -89zM449 177q21 107 77 153q43 36 107 36t93 -36q38 -48 17 -153q-21 -107 -77 -153q-43 -36 -107 -36t-93 36q-38 48 -17 153zM647 177q13 66 2 89q-7 18 -32 18q-23 0 -40 -18q-19 -23 -32 -89t-2 -89q7 -18 32 -18q23 0 40 18q19 23 32 89zM785 177
q21 107 77 153q43 36 107 36t93 -36q38 -48 17 -153q-21 -107 -77 -153q-43 -36 -107 -36t-93 36q-38 48 -17 153zM983 177q13 66 2 89q-7 18 -32 18q-23 0 -40 -18q-19 -23 -32 -89t-2 -89q7 -18 32 -18q23 0 40 18q19 23 32 89z" />
    <glyph glyph-name="minute" unicode="&#x2032;" horiz-adv-x="209" 
d="M67 478l90 222h113l-116 -222h-87z" />
    <glyph glyph-name="second" unicode="&#x2033;" horiz-adv-x="367" 
d="M67 478l90 222h113l-116 -222h-87zM225 478l90 222h113l-116 -222h-87z" />
    <glyph glyph-name="guilsinglleft" unicode="&#x2039;" horiz-adv-x="288" 
d="M272 384l-136 -72l108 -72l-17 -90l-184 126l14 72l233 126z" />
    <glyph glyph-name="guilsinglright" unicode="&#x203a;" horiz-adv-x="288" 
d="M172 312l-108 72l18 90l183 -126l-14 -72l-232 -126l17 90z" />
    <glyph glyph-name="exclamdbl" unicode="&#x203c;" horiz-adv-x="523" 
d="M99 191l63 388l24 121h114l-24 -121l-87 -388h-90zM50 0l21 110h114l-21 -110h-114zM308 191l63 388l24 121h114l-24 -121l-87 -388h-90zM259 0l21 110h114l-21 -110h-114z" />
    <glyph glyph-name="uni203E" unicode="&#x203e;" horiz-adv-x="380" 
d="M116 602l17 92h282l-17 -92h-282z" />
    <glyph glyph-name="fraction" unicode="&#x2044;" horiz-adv-x="180" 
d="M396 700l-478 -700h-98l478 700h98z" />
    <glyph glyph-name="zerosuperior" unicode="&#x2070;" 
d="M292 468q20 99 6 131q-11 25 -39 25q-30 0 -49 -25q-26 -32 -46 -131q-18 -100 -5 -131q11 -25 39 -25q30 0 49 25q27 33 45 131zM66 468q15 76 34.5 120t50.5 73q50 47 124 47q75 0 106 -47q37 -55 9 -193q-14 -75 -33.5 -119.5t-50.5 -73.5q-50 -47 -124 -47
q-75 0 -106 47q-36 54 -10 193z" />
    <glyph glyph-name="uni2071" unicode="&#x2071;" 
d="M134 236l63 323h98l-63 -323h-98zM207 612l18 88h98l-18 -88h-98z" />
    <glyph glyph-name="foursuperior" unicode="&#x2074;" 
d="M148 406h90l31 155zM384 406l-16 -84h-48l-17 -86h-98l17 86h-191l15 77l236 301h112l-58 -294h48z" />
    <glyph glyph-name="fivesuperior" unicode="&#x2075;" 
d="M54 370h98q-2 -27 10 -42t36 -15q26 0 45 20t26 54t-4.5 54t-37.5 20q-34 0 -57 -29h-89l65 268h258l-17 -84h-169l-24 -99q28 28 73 28q61 0 87.5 -43.5t12.5 -115.5q-14 -73 -63 -115t-122 -42q-69 0 -102.5 37.5t-25.5 103.5z" />
    <glyph glyph-name="sixsuperior" unicode="&#x2076;" 
d="M399 586h-99q2 42 -39 42q-32 0 -50 -25t-31 -92q29 34 81 34q65 0 94 -43t15 -116q-15 -73 -63.5 -115.5t-124.5 -42.5q-83 0 -111 59q-24 50 -1 168q29 144 78 199q48 54 128 54q60 0 92 -32.5t31 -89.5zM227 461q-59 0 -73 -75q-14 -74 44 -74q28 0 47.5 19.5
t26.5 54.5t-5 55t-40 20z" />
    <glyph glyph-name="sevensuperior" unicode="&#x2077;" 
d="M105 614l17 86h305l-14 -69l-226 -395h-104l221 378h-199z" />
    <glyph glyph-name="eightsuperior" unicode="&#x2078;" 
d="M182 228q-75 0 -110.5 41t-23.5 103q17 86 101 115q-29 11 -41.5 38t-6.5 59q11 57 58 90.5t116 33.5t103 -34t23 -90q-6 -32 -29.5 -59t-56.5 -38q74 -28 57 -115q-12 -63 -63.5 -103.5t-126.5 -40.5zM223 442q-27 0 -47.5 -17.5t-26.5 -47.5t8 -47.5t41 -17.5t48 17.5
t27 47.5t-8 47.5t-42 17.5zM240 526q23 0 40 13.5t21 35.5t-7.5 35.5t-34.5 13.5t-40.5 -13.5t-21.5 -35.5t8 -35.5t35 -13.5z" />
    <glyph glyph-name="ninesuperior" unicode="&#x2079;" 
d="M58 350h99q-2 -42 39 -42q32 0 50 25t31 92q-29 -34 -81 -34q-65 0 -94 43t-15 116q15 73 63.5 115.5t124.5 42.5q83 0 111 -59q24 -50 1 -168q-29 -144 -78 -199q-48 -54 -128 -54q-60 0 -92 32.5t-31 89.5zM230 475q59 0 73 75q14 74 -44 74q-28 0 -47.5 -19.5
t-26.5 -54.5t5 -55t40 -20z" />
    <glyph glyph-name="uni207A" unicode="&#x207a;" 
d="M180 314v114h-107v80h107v114h90v-114h107v-80h-107v-114h-90z" />
    <glyph glyph-name="uni207B" unicode="&#x207b;" 
d="M377 428h-304v80h304v-80z" />
    <glyph glyph-name="uni207C" unicode="&#x207c;" 
d="M377 502h-304v80h304v-80zM377 354h-304v80h304v-80z" />
    <glyph glyph-name="uni207D" unicode="&#x207d;" 
d="M170 468q24 122 57.5 188.5t74 88.5t103.5 22l-16 -80q-33 0 -53 -14.5t-38.5 -62.5t-37.5 -142q-25 -143 -15 -181t59 -38l-16 -80q-47 0 -75.5 11.5t-45.5 44t-16 91.5t19 152z" />
    <glyph glyph-name="uni207E" unicode="&#x207e;" 
d="M286 468q-23 -122 -56.5 -188.5t-74 -88.5t-103.5 -22l16 80q33 0 53 14.5t38.5 62.5t36.5 142q19 94 19 142t-14.5 62.5t-47.5 14.5l16 80q47 0 75.5 -11.5t45.5 -44t15.5 -91.5t-19.5 -152z" />
    <glyph glyph-name="uni207F" unicode="&#x207f;" 
d="M38 237l68 351h94l-11 -57q14 29 42 47.5t64 18.5q49 0 71 -30t10 -89l-46 -241h-94l44 231q11 51 -32 51q-28 0 -48.5 -19t-27.5 -54l-40 -209h-94z" />
    <glyph glyph-name="zeroinferior" unicode="&#x2080;" 
d="M222 105q19 97 5 131q-10 25 -39 25q-28 0 -49 -25q-25 -31 -45 -131q-19 -96 -6 -131q11 -25 40 -25t48 25q26 30 46 131zM-4 105q26 138 84 193q50 47 125 47q74 0 105 -47q37 -53 10 -193q-15 -76 -34.5 -120t-50.5 -73q-49 -47 -124 -47q-74 0 -106 47q-37 55 -9 193
z" />
    <glyph glyph-name="oneinferior" unicode="&#x2081;" 
d="M190 -127h-100l72 369l-107 -45l17 88l125 52h83z" />
    <glyph glyph-name="twoinferior" unicode="&#x2082;" 
d="M21 186l3 16q13 66 61.5 104.5t118.5 38.5q67 0 101.5 -38.5t21.5 -104.5q-12 -60 -78 -120l-130 -123h161l-17 -86h-293l14 73l208 197q28 25 35 58q5 25 -6 39.5t-35 14.5q-52 0 -62 -54l-3 -15h-100z" />
    <glyph glyph-name="threeinferior" unicode="&#x2083;" 
d="M-19 9l4 17h100l-3 -12q-6 -30 6.5 -47.5t39.5 -17.5t45.5 17t24.5 46q11 63 -51 63h-35l16 84h35q53 0 63 51q5 24 -5 37.5t-33 13.5q-47 0 -57 -49l-2 -7h-98l3 16q11 56 58 90t113 34t99 -34.5t22 -91.5q-14 -74 -86 -99q75 -23 57 -110q-12 -64 -61.5 -104.5
t-124.5 -40.5q-74 0 -108 40.5t-22 103.5z" />
    <glyph glyph-name="fourinferior" unicode="&#x2084;" 
d="M78 43h90l30 155zM314 43l-16 -84h-48l-17 -86h-98l17 86h-191l14 77l236 301h112l-57 -294h48z" />
    <glyph glyph-name="fiveinferior" unicode="&#x2085;" 
d="M-16 7h98q-2 -27 10 -42t36 -15q26 0 44.5 19.5t25.5 54.5t-4 54.5t-37 19.5q-36 0 -57 -29h-89l64 268h258l-16 -84h-169l-25 -99q30 28 74 28q61 0 87 -43.5t12 -115.5q-14 -73 -63 -115t-122 -42q-70 0 -102.5 38t-24.5 103z" />
    <glyph glyph-name="sixinferior" unicode="&#x2086;" 
d="M329 223h-99q0 42 -40 42q-32 0 -50 -25t-31 -92q29 34 82 34q65 0 93.5 -43t14.5 -116t-63 -115.5t-125 -42.5q-82 0 -110 59q-25 52 -2 168q29 144 78 199q48 54 129 54q60 0 91.5 -32.5t31.5 -89.5zM157 98q-29 0 -48 -19.5t-26 -55.5q-7 -35 5 -54.5t40 -19.5
t47 19.5t26 54.5q14 75 -44 75z" />
    <glyph glyph-name="seveninferior" unicode="&#x2087;" 
d="M34 251l17 86h305l-13 -69l-226 -395h-104l220 378h-199z" />
    <glyph glyph-name="eightinferior" unicode="&#x2088;" 
d="M111 -135q-74 0 -110 40.5t-24 103.5q17 87 102 115q-29 11 -42 38t-7 59q11 56 58.5 90t116.5 34t102.5 -34t22.5 -90q-6 -32 -29 -59t-56 -38q73 -29 56 -115q-12 -62 -63.5 -103t-126.5 -41zM153 79q-28 0 -48.5 -17.5t-26.5 -47.5t8 -47.5t42 -17.5q27 0 47.5 17.5
t26.5 47.5t-7.5 47.5t-41.5 17.5zM169 163q23 0 40.5 13.5t21.5 35.5t-8 35.5t-35 13.5t-40 -13.5t-21 -35.5t7.5 -35.5t34.5 -13.5z" />
    <glyph glyph-name="nineinferior" unicode="&#x2089;" 
d="M-13 -13h99q0 -42 40 -42q32 0 50 25t31 92q-31 -34 -82 -34q-65 0 -93.5 43t-14.5 116t63 115.5t125 42.5q82 0 110 -59q24 -50 1 -168q-27 -143 -77 -199q-48 -54 -129 -54q-60 0 -91.5 32.5t-31.5 89.5zM159 112q29 0 48 19.5t26 55.5q7 35 -5 54.5t-40 19.5
t-47 -19.5t-26 -54.5q-14 -75 44 -75z" />
    <glyph glyph-name="uni208A" unicode="&#x208a;" 
d="M111 -49v114h-107v80h107v114h90v-114h107v-80h-107v-114h-90z" />
    <glyph glyph-name="uni208B" unicode="&#x208b;" 
d="M308 65h-304v80h304v-80z" />
    <glyph glyph-name="uni208C" unicode="&#x208c;" 
d="M308 139h-304v80h304v-80zM308 -9h-304v80h304v-80z" />
    <glyph glyph-name="uni208D" unicode="&#x208d;" 
d="M100 105q18 93 40 152t51.5 91.5t62.5 44t80 11.5l-16 -80q-33 0 -53 -14.5t-38.5 -62.5t-36.5 -142q-25 -143 -15.5 -181t58.5 -38l-15 -80q-38 0 -63 7t-43.5 26t-25.5 52.5t-4 86.5t18 127z" />
    <glyph glyph-name="uni208E" unicode="&#x208e;" 
d="M216 105q-18 -93 -40 -152t-51.5 -91.5t-62.5 -44t-80 -11.5l15 80q33 0 53 14.5t39 62.5t37 142q25 143 15 181t-59 38l16 80q38 0 63 -7t43.5 -26t25.5 -52.5t4 -86.5t-18 -127z" />
    <glyph glyph-name="uni2090" unicode="&#x2090;" 
d="M334 223l-67 -346h-88l8 42q-27 -54 -94 -54q-64 0 -90 47.5t-9 136.5q18 90 62.5 138t108.5 48q67 0 73 -54l8 42h88zM212 50q12 42 3 75.5t-47 33.5t-57 -29.5t-29 -79.5q-12 -42 -3 -75.5t47 -33.5t57 29.5t29 79.5z" />
    <glyph glyph-name="uni2091" unicode="&#x2091;" 
d="M300 51l-5 -27h-217q-11 -83 48 -83q46 0 64 42h90q-49 -118 -169 -118q-79 0 -106 51.5t-11 134.5q16 82 63.5 133t125.5 51t105.5 -51t11.5 -133zM168 159q-56 0 -76 -69h126q7 69 -50 69z" />
    <glyph glyph-name="uni2092" unicode="&#x2092;" 
d="M300 51v-2q-16 -83 -63.5 -133.5t-125.5 -50.5t-105.5 51t-11.5 135q16 83 63.5 133.5t125.5 50.5t105.5 -50.5t11.5 -133.5zM82 50q-12 -42 -3 -75.5t47 -33.5t57 29.5t29 79.5q12 42 3 75.5t-47 33.5t-57 -29.5t-29 -79.5z" />
    <glyph glyph-name="uni2093" unicode="&#x2093;" 
d="M-47 -123l143 181l-66 165h92l39 -102l79 102h92l-131 -165l74 -181h-96l-43 117l-87 -117h-96z" />
    <glyph glyph-name="uni2094" unicode="&#x2094;" 
d="M-6 49l5 27h217q11 83 -48 83q-46 0 -64 -42h-90q51 118 169 118q79 0 106 -51.5t11 -134.5q-16 -82 -63.5 -133t-125.5 -51t-105.5 51t-11.5 133zM126 -59q56 0 76 69h-126q-5 -69 50 -69z" />
    <glyph glyph-name="uni20A0" unicode="&#x20a0;" horiz-adv-x="720" 
d="M535 551h-117q-11 67 -84 67q-61 0 -94 -42.5t-48 -122.5q-17 -86 2 -125.5t82 -39.5q59 0 95 27l34 175h325l-19 -94h-211l-19 -100h175l-18 -94h-175l-21 -108h216l-18 -94h-330l41 214q-37 -20 -96 -20q-228 0 -177 259q24 126 93 192.5t181 66.5q175 0 183 -161z" />
    <glyph glyph-name="colonmonetary" unicode="&#x20a1;" horiz-adv-x="638" 
d="M279 -82l13 71q-7 -1 -20 -1q-18 0 -26 1l-13 -71h-57l15 80q-80 22 -114 89q-44 89 -9 263q34 177 112 263q61 68 148 89l16 80h57l-14 -71q8 1 26 1q13 0 20 -1l14 71h57l-16 -79q83 -20 121 -83t24 -154h-120q15 89 -47 125l-94 -483q76 36 96 126h120
q-21 -91 -83.5 -154.5t-153.5 -82.5l-15 -79h-57zM187 148q11 -20 27 -33l91 470q-23 -13 -39 -33q-50 -57 -78 -202t-1 -202zM292 92q13 0 21 1l99 514q-4 1 -19 1q-11 0 -27 -2l-99 -512q12 -2 25 -2z" />
    <glyph glyph-name="uni20A2" unicode="&#x20a2;" horiz-adv-x="638" 
d="M68 350q34 177 112 263q89 99 233 99q121 0 179 -68t41 -178h-120q11 66 -20.5 104t-99.5 38q-77 0 -127 -56q-50 -57 -78 -202t-1 -202q16 -32 47 -46l57 292h101l-14 -70q16 43 43.5 61.5t70.5 18.5q17 0 23 -2l-20 -90q-9 1 -30 1q-89 0 -111 -115l-20 -102
q52 10 86.5 46t47.5 92h120q-26 -110 -110.5 -178t-205.5 -68q-143 0 -195 99q-44 89 -9 263z" />
    <glyph glyph-name="franc" unicode="&#x20a3;" horiz-adv-x="517" 
d="M225 439h177l-13 -68h-177l-10 -52h177l-14 -68h-177l-48 -251h-120l48 251h-60l14 68h60l10 52h-60l13 68h60l51 261h416l-21 -104h-296z" />
    <glyph glyph-name="lira" unicode="&#x20a4;" horiz-adv-x="535" 
d="M232 286h154l-12 -60h-154q-21 -72 -90 -124h334l-19 -102h-442l17 92q63 59 86 134h-63l12 60h63q2 27 0 38h-56l12 60h41q-5 64 7 127q16 86 82 143.5t164 57.5q97 0 141 -57.5t27 -143.5l-4 -20h-114l4 19q8 45 -10.5 71.5t-63.5 26.5t-74.5 -26.5t-37.5 -71.5
q-12 -62 -7 -126h176l-12 -60h-161q2 -11 0 -38z" />
    <glyph glyph-name="uni20A6" unicode="&#x20a6;" horiz-adv-x="642" 
d="M605 429h60l-12 -60h-60l-7 -38h60l-12 -60h-60l-52 -271h-122l-84 271h-124l-52 -271h-120l52 271h-60l12 60h60l7 38h-60l12 60h60l53 271h122l83 -271h124l53 271h120zM379 369l12 -38h75l7 38h-94zM211 369l-7 -38h94l-12 38h-75zM409 271l28 -90l17 90h-45zM268 429
l-28 90l-17 -90h45z" />
    <glyph glyph-name="peseta" unicode="&#x20a7;" horiz-adv-x="1123" 
d="M863 0h-208q-93 0 -127 31.5t-19 110.5l51 264h-58q-33 -68 -95.5 -106t-139.5 -38h-77l-50 -262h-120l136 700h197q92 0 141 -54t37 -146h48l27 142h114l-27 -142h120l-8 -41q56 53 146 53q78 0 116 -41t25 -108l-2 -10h-114l2 11q5 24 -7 40t-38 16t-44 -16t-22 -38
q-5 -26 7.5 -40t47.5 -22l26 -6q79 -17 106.5 -51t14.5 -99q-13 -67 -65.5 -107.5t-140.5 -40.5zM674 406l-47 -244q-8 -42 5.5 -56t59.5 -14h183q69 0 80 54q5 28 -7 40.5t-53 21.5l-33 7q-66 15 -94 50.5t-16 97.5q3 15 13 43h-91zM211 366h50q60 0 98.5 30t48.5 85
q11 56 -16 85.5t-87 29.5h-50z" />
    <glyph glyph-name="uni20A8" unicode="&#x20a8;" horiz-adv-x="973" 
d="M366 62l12 91q8 56 -16 80.5t-89 24.5h-83l-50 -258h-120l136 700h237q109 0 155 -55t26 -158q-27 -138 -149 -176q48 -11 65.5 -45.5t8.5 -103.5l-13 -98q-4 -40 0 -64h-122q-4 22 2 62zM210 362h98q122 0 145 117q22 117 -100 117h-98zM546 142l3 14h114l-3 -14
q-5 -29 11.5 -45.5t48.5 -16.5q33 0 56 16.5t28 43.5q5 29 -9.5 45.5t-54.5 23.5l-33 6q-138 26 -115 148q13 66 68 107.5t136 41.5q82 0 120.5 -41t25.5 -108l-2 -10h-114l2 11q5 25 -8 40.5t-42 15.5t-48 -15.5t-23 -38.5q-10 -49 60 -62l31 -6q73 -14 103 -51.5
t17 -104.5t-71.5 -110.5t-144.5 -43.5t-127.5 43.5t-28.5 110.5z" />
    <glyph glyph-name="uni20A9" unicode="&#x20a9;" horiz-adv-x="948" 
d="M39 357l12 60h69l-19 283h123l15 -283h133l127 283h122l17 -283h132l126 283h123l-129 -283h69l-12 -60h-85l-23 -50h98l-11 -60h-113l-112 -247h-147l-15 247h-134l-111 -247h-147l-16 247h-113l11 60h97l-3 50h-84zM454 357l-23 -50h103l-2 50h-78zM641 357l3 -50h77
l22 50h-102zM242 357l3 -50h77l22 50h-102zM523 510l-42 -93h47zM249 247l4 -93l42 93h-46zM653 154l42 93h-47z" />
    <glyph glyph-name="afii57636" unicode="&#x20aa;" horiz-adv-x="854" 
d="M20 0l136 700h288q228 0 181 -238l-39 -200h-120l37 190q15 75 -6 109.5t-83 34.5h-159l-115 -596h-120zM870 700l-136 -700h-288q-229 0 -182 238l39 200h120l-37 -190q-15 -75 6 -109.5t83 -34.5h159l116 596h120z" />
    <glyph glyph-name="dong" unicode="&#x20ab;" horiz-adv-x="550" 
d="M310 567l14 74h126l12 59h114l-12 -59h55l-14 -74h-55l-110 -567h-114l14 77q-21 -41 -62.5 -65t-92.5 -24q-93 0 -131.5 64.5t-13.5 197.5q26 133 90 197.5t157 64.5q51 0 83 -24t38 -65l28 144h-126zM77 -78h321l-15 -79h-321zM231 82q60 0 93.5 43t49.5 125
q18 76 0.5 122t-77.5 46t-93.5 -43t-49.5 -125q-18 -76 -0.5 -122t77.5 -46z" />
    <glyph glyph-name="Euro" unicode="&#x20ac;" horiz-adv-x="638" 
d="M73 379h-38l12 60h42q31 107 91 174q89 99 233 99q121 0 179 -68t41 -178h-120q11 66 -20.5 104t-99.5 38q-77 0 -127 -56q-36 -41 -57 -113h193l-22 -60h-187l-11 -58h177l-22 -60h-163q-7 -72 13 -113q27 -56 105 -56q68 0 114.5 38t61.5 104h120q-26 -110 -110.5 -178
t-205.5 -68q-143 0 -195 99q-33 66 -23 174h-42l12 60h38z" />
    <glyph glyph-name="afii61248" unicode="&#x2105;" horiz-adv-x="960" 
d="M710 700l-342 -700h-98l342 700h98zM930 219q0 -110 -40.5 -168t-134.5 -58t-134.5 58t-40.5 168t40.5 168t134.5 58t134.5 -58t40.5 -168zM678 219q0 -69 16.5 -103.5t60.5 -34.5t60.5 34.5t16.5 103.5t-16.5 103.5t-60.5 34.5t-60.5 -34.5t-16.5 -103.5zM50 481
q0 110 40.5 168t134.5 58q157 0 170 -153h-99q-8 65 -71 65q-44 0 -60.5 -34.5t-16.5 -103.5t16.5 -103.5t60.5 -34.5q63 0 71 65h99q-13 -153 -170 -153q-94 0 -134.5 58t-40.5 168z" />
    <glyph glyph-name="uni2109" unicode="&#x2109;" horiz-adv-x="804" 
d="M316 573q0 -60 -36 -97.5t-97 -37.5t-97 37.5t-36 97.5t36 97.5t97 37.5t97 -37.5t36 -97.5zM233 573q0 26 -13.5 41.5t-36.5 15.5t-36.5 -15.5t-13.5 -41.5t13.5 -41.5t36.5 -15.5t36.5 15.5t13.5 41.5zM368 0v700h416v-104h-296v-195h265v-104h-265v-297h-120z" />
    <glyph glyph-name="afii61289" unicode="&#x2113;" horiz-adv-x="522" 
d="M315 86q55 0 69 67l113 -22q-14 -70 -61.5 -106.5t-120.5 -36.5q-76 0 -124.5 41t-61.5 116q-44 -12 -67 -17l-37 94q56 13 100 28v276q0 89 46.5 137.5t132.5 48.5t132.5 -48.5t46.5 -137.5v-8q0 -106 -63 -190.5t-179 -140.5q6 -101 74 -101zM367 518v9q0 87 -63 87
t-63 -87v-223q126 80 126 214z" />
    <glyph glyph-name="afii61352" unicode="&#x2116;" horiz-adv-x="900" 
d="M381 0l-187 439v-439h-114v700h101l187 -439v439h114v-700h-101zM865 327q0 -101 -38.5 -152.5t-125.5 -51.5t-125.5 51.5t-38.5 152.5t38.5 152.5t125.5 51.5t125.5 -51.5t38.5 -152.5zM763 327q0 62 -13.5 89t-48.5 27t-48.5 -27t-13.5 -89t13.5 -89t48.5 -27t48.5 27
t13.5 89zM541 0v88h320v-88h-320z" />
    <glyph glyph-name="uni2117" unicode="&#x2117;" horiz-adv-x="754" 
d="M387 712q158 0 245 -91.5t87 -270.5t-87 -270.5t-245 -91.5t-245 91.5t-87 270.5t87 270.5t245 91.5zM387 40q276 0 276 310t-276 310t-276 -310t276 -310zM335 364h66q67 0 67 64t-67 64h-66v-128zM413 297h-78v-156h-85v418h163q66 0 103 -32.5t37 -98.5t-37 -98.5
t-103 -32.5z" />
    <glyph glyph-name="uni2120" unicode="&#x2120;" horiz-adv-x="693" 
d="M292 465q0 -49 -33 -76.5t-92 -27.5q-58 0 -91.5 28t-33.5 75v4h82v-5q0 -16 12 -25t31 -9t31 9t12 25q0 28 -40 36l-25 5q-54 11 -79 35.5t-25 66.5q0 45 31 72.5t88 27.5t88 -27.5t31 -71.5v-4h-82v5q0 13 -9.5 21.5t-27.5 8.5t-27.5 -8.5t-9.5 -21.5q0 -28 45 -37
l25 -5q99 -21 99 -101zM515 366h-50l-67 154v-154h-76v334h68l100 -235l100 235h68v-334h-76v154z" />
    <glyph glyph-name="uni2121" unicode="&#x2121;" horiz-adv-x="987" 
d="M753 215h-273q2 -72 21.5 -102.5t58.5 -30.5q59 0 72 70h115q-16 -87 -62.5 -125.5t-124.5 -38.5q-96 0 -145 60t-49 202t49 202t145 60t145 -60t49 -202q0 -24 -1 -35zM25 596v104h404v-104h-142v-596h-120v596h-142zM932 0h-114v700h114v-700zM560 418
q-37 0 -56.5 -27.5t-22.5 -91.5h157q-3 64 -22 91.5t-56 27.5z" />
    <glyph glyph-name="trademark" unicode="&#x2122;" horiz-adv-x="665" 
d="M20 632v68h250v-68h-84v-266h-82v266h-84zM487 366h-50l-67 154v-154h-76v334h68l100 -235l100 235h68v-334h-76v154z" />
    <glyph glyph-name="Omega" unicode="&#x2126;" horiz-adv-x="650" 
d="M335 712q147 0 214 -99q61 -90 61 -249q0 -98 -31.5 -165.5t-85.5 -94.5h105v-104h-233v104q64 25 94.5 83.5t30.5 162.5q0 144 -39 202q-38 56 -116 56t-116 -56q-39 -58 -39 -202q0 -104 30.5 -162.5t94.5 -83.5v-104h-233v104h105q-54 27 -85.5 94.5t-31.5 165.5
q0 159 61 249q67 99 214 99z" />
    <glyph glyph-name="estimated" unicode="&#x212e;" horiz-adv-x="756" 
d="M567 375v219q-27 32 -75.5 50t-103.5 18t-103.5 -18t-75.5 -50v-219h358zM388 38q146 0 215 108h64q-41 -73 -113 -115.5t-166 -42.5q-147 0 -237.5 100.5t-90.5 261.5t90.5 261.5t237.5 100.5q149 0 238.5 -102t89.5 -258v-27h-507v-219q27 -32 75.5 -50t103.5 -18z" />
    <glyph glyph-name="onethird" unicode="&#x2153;" horiz-adv-x="932" 
d="M562 136l3 17h100l-2 -12q-6 -30 6 -47.5t39 -17.5t46 17t25 46q11 63 -51 63h-35l16 84h35q53 0 63 51t-38 51t-58 -49l-1 -7h-98l3 16q11 56 58 90t112 34q66 0 99.5 -34.5t22.5 -91.5q-15 -74 -86 -99q75 -23 57 -110q-12 -64 -61.5 -104.5t-124.5 -40.5
q-74 0 -108 40.5t-22 103.5zM772 700l-478 -700h-98l478 700h98zM260 236h-100l72 369l-107 -45l17 88l126 52h83z" />
    <glyph glyph-name="twothirds" unicode="&#x2154;" horiz-adv-x="932" 
d="M772 700l-478 -700h-98l478 700h98zM91 549l3 16q13 66 61.5 104.5t118.5 38.5q67 0 101.5 -38.5t21.5 -104.5q-6 -33 -23.5 -60t-53.5 -60l-131 -123h161l-17 -86h-293l15 73l208 197q29 27 34 58q5 25 -5.5 39.5t-34.5 14.5q-52 0 -63 -54l-3 -15h-100zM562 136l3 17
h100l-2 -12q-6 -30 6 -47.5t39 -17.5t46 17t25 46q11 63 -51 63h-35l16 84h35q53 0 63 51t-38 51t-58 -49l-1 -7h-98l3 16q11 56 58 90t112 34q66 0 99.5 -34.5t22.5 -91.5q-15 -74 -86 -99q75 -23 57 -110q-12 -64 -61.5 -104.5t-124.5 -40.5q-74 0 -108 40.5t-22 103.5z
" />
    <glyph glyph-name="onefifth" unicode="&#x2155;" horiz-adv-x="932" 
d="M564 133h98q-2 -27 10 -42t36 -15q26 0 45 20t26 54t-4.5 54t-37.5 20q-34 0 -57 -29h-89l64 268h258l-16 -84h-169l-24 -99q28 28 73 28q61 0 87 -43.5t12 -115.5q-14 -73 -62.5 -115t-121.5 -42q-69 0 -102.5 37.5t-25.5 103.5zM772 700l-478 -700h-98l478 700h98z
M260 236h-100l72 369l-107 -45l17 88l126 52h83z" />
    <glyph glyph-name="twofifths" unicode="&#x2156;" horiz-adv-x="932" 
d="M772 700l-478 -700h-98l478 700h98zM91 549l3 16q13 66 61.5 104.5t118.5 38.5q67 0 101.5 -38.5t21.5 -104.5q-6 -33 -23.5 -60t-53.5 -60l-131 -123h161l-17 -86h-293l15 73l208 197q29 27 34 58q5 25 -5.5 39.5t-34.5 14.5q-52 0 -63 -54l-3 -15h-100zM564 133h98
q-2 -27 10 -42t36 -15q26 0 45 20t26 54t-4.5 54t-37.5 20q-34 0 -57 -29h-89l64 268h258l-16 -84h-169l-24 -99q28 28 73 28q61 0 87 -43.5t12 -115.5q-14 -73 -62.5 -115t-121.5 -42q-69 0 -102.5 37.5t-25.5 103.5z" />
    <glyph glyph-name="threefifths" unicode="&#x2157;" horiz-adv-x="932" 
d="M772 700l-478 -700h-98l478 700h98zM52 372l3 17h100l-2 -12q-6 -30 6 -47.5t39 -17.5t46 17t24 46q13 63 -50 63h-35l16 84h35q53 0 63 51t-38 51t-58 -49l-1 -7h-98l3 16q11 56 58 90t112 34q66 0 99.5 -34.5t22.5 -91.5q-15 -75 -87 -99q74 -23 58 -110
q-12 -64 -61.5 -104.5t-124.5 -40.5q-74 0 -108 40.5t-22 103.5zM564 133h98q-2 -27 10 -42t36 -15q26 0 45 20t26 54t-4.5 54t-37.5 20q-34 0 -57 -29h-89l64 268h258l-16 -84h-169l-24 -99q28 28 73 28q61 0 87 -43.5t12 -115.5q-14 -73 -62.5 -115t-121.5 -42
q-69 0 -102.5 37.5t-25.5 103.5z" />
    <glyph glyph-name="fourfifths" unicode="&#x2158;" horiz-adv-x="932" 
d="M772 700l-478 -700h-98l478 700h98zM148 406h90l31 155zM384 406l-16 -84h-48l-17 -86h-98l17 86h-191l15 77l236 301h112l-58 -294h48zM564 133h98q-2 -27 10 -42t36 -15q26 0 45 20t26 54t-4.5 54t-37.5 20q-34 0 -57 -29h-89l64 268h258l-16 -84h-169l-24 -99
q28 28 73 28q61 0 87 -43.5t12 -115.5q-14 -73 -62.5 -115t-121.5 -42q-69 0 -102.5 37.5t-25.5 103.5z" />
    <glyph glyph-name="onesixth" unicode="&#x2159;" horiz-adv-x="932" 
d="M910 350h-99q0 42 -40 42q-32 0 -50 -25t-31 -92q29 34 82 34q65 0 93.5 -43t14.5 -116q-15 -73 -63.5 -115.5t-124.5 -42.5q-83 0 -111 59q-24 50 -1 168q29 144 78 199q48 54 128 54q60 0 92 -32.5t32 -89.5zM737 225q-59 0 -73 -75q-14 -74 44 -74q28 0 47.5 19.5
t26.5 54.5t-5 55t-40 20zM772 700l-478 -700h-98l478 700h98zM260 236h-100l72 369l-107 -45l17 88l126 52h83z" />
    <glyph glyph-name="fivesixths" unicode="&#x215a;" horiz-adv-x="932" 
d="M772 700l-478 -700h-98l478 700h98zM54 370h98q-2 -27 10 -42t36 -15q26 0 45 20t26 54t-4.5 54t-37.5 20q-34 0 -57 -29h-89l65 268h258l-17 -84h-169l-24 -99q28 28 73 28q61 0 87.5 -43.5t12.5 -115.5q-14 -73 -63 -115t-122 -42q-69 0 -102.5 37.5t-25.5 103.5z
M910 350h-99q0 42 -40 42q-32 0 -50 -25t-31 -92q29 34 82 34q65 0 93.5 -43t14.5 -116q-15 -73 -63.5 -115.5t-124.5 -42.5q-83 0 -111 59q-24 50 -1 168q29 144 78 199q48 54 128 54q60 0 92 -32.5t32 -89.5zM737 225q-59 0 -73 -75q-14 -74 44 -74q28 0 47.5 19.5
t26.5 54.5t-5 55t-40 20z" />
    <glyph glyph-name="oneeighth" unicode="&#x215b;" horiz-adv-x="932" 
d="M692 -9q-75 0 -110.5 41t-23.5 103q17 86 101 115q-29 11 -41.5 38t-6.5 59q11 57 58 90.5t116 33.5t103 -34t23 -90q-6 -32 -29.5 -59t-56.5 -38q74 -28 57 -115q-12 -63 -63.5 -103.5t-126.5 -40.5zM733 205q-27 0 -47.5 -17.5t-26.5 -47.5t8 -47.5t41 -17.5t48 17.5
t27 47.5t-8 47.5t-42 17.5zM750 289q23 0 40 13.5t21 35.5t-7.5 35.5t-34.5 13.5t-40.5 -13.5t-21.5 -35.5t8 -35.5t35 -13.5zM772 700l-478 -700h-98l478 700h98zM260 236h-100l72 369l-107 -45l17 88l126 52h83z" />
    <glyph glyph-name="threeeighths" unicode="&#x215c;" horiz-adv-x="932" 
d="M772 700l-478 -700h-98l478 700h98zM52 372l3 17h100l-2 -12q-6 -30 6 -47.5t39 -17.5t46 17t24 46q13 63 -50 63h-35l16 84h35q53 0 63 51t-38 51t-58 -49l-1 -7h-98l3 16q11 56 58 90t112 34q66 0 99.5 -34.5t22.5 -91.5q-15 -75 -87 -99q74 -23 58 -110
q-12 -64 -61.5 -104.5t-124.5 -40.5q-74 0 -108 40.5t-22 103.5zM692 -9q-75 0 -110.5 41t-23.5 103q17 86 101 115q-29 11 -41.5 38t-6.5 59q11 57 58 90.5t116 33.5t103 -34t23 -90q-6 -32 -29.5 -59t-56.5 -38q74 -28 57 -115q-12 -63 -63.5 -103.5t-126.5 -40.5z
M733 205q-27 0 -47.5 -17.5t-26.5 -47.5t8 -47.5t41 -17.5t48 17.5t27 47.5t-8 47.5t-42 17.5zM750 289q23 0 40 13.5t21 35.5t-7.5 35.5t-34.5 13.5t-40.5 -13.5t-21.5 -35.5t8 -35.5t35 -13.5z" />
    <glyph glyph-name="fiveeighths" unicode="&#x215d;" horiz-adv-x="932" 
d="M772 700l-478 -700h-98l478 700h98zM54 370h98q-2 -27 10 -42t36 -15q26 0 45 20t26 54t-4.5 54t-37.5 20q-34 0 -57 -29h-89l65 268h258l-17 -84h-169l-24 -99q28 28 73 28q61 0 87.5 -43.5t12.5 -115.5q-14 -73 -63 -115t-122 -42q-69 0 -102.5 37.5t-25.5 103.5z
M692 -9q-75 0 -110.5 41t-23.5 103q17 86 101 115q-29 11 -41.5 38t-6.5 59q11 57 58 90.5t116 33.5t103 -34t23 -90q-6 -32 -29.5 -59t-56.5 -38q74 -28 57 -115q-12 -63 -63.5 -103.5t-126.5 -40.5zM733 205q-27 0 -47.5 -17.5t-26.5 -47.5t8 -47.5t41 -17.5t48 17.5
t27 47.5t-8 47.5t-42 17.5zM750 289q23 0 40 13.5t21 35.5t-7.5 35.5t-34.5 13.5t-40.5 -13.5t-21.5 -35.5t8 -35.5t35 -13.5z" />
    <glyph glyph-name="seveneighths" unicode="&#x215e;" horiz-adv-x="932" 
d="M772 700l-478 -700h-98l478 700h98zM105 614l17 86h305l-14 -69l-226 -395h-104l221 378h-199zM692 -9q-75 0 -110.5 41t-23.5 103q17 86 101 115q-29 11 -41.5 38t-6.5 59q11 57 58 90.5t116 33.5t103 -34t23 -90q-6 -32 -29.5 -59t-56.5 -38q74 -28 57 -115
q-12 -63 -63.5 -103.5t-126.5 -40.5zM733 205q-27 0 -47.5 -17.5t-26.5 -47.5t8 -47.5t41 -17.5t48 17.5t27 47.5t-8 47.5t-42 17.5zM750 289q23 0 40 13.5t21 35.5t-7.5 35.5t-34.5 13.5t-40.5 -13.5t-21.5 -35.5t8 -35.5t35 -13.5z" />
    <glyph glyph-name="uni215F" unicode="&#x215f;" horiz-adv-x="932" 
d="M772 700l-478 -700h-98l478 700h98zM260 236h-100l72 369l-107 -45l17 88l126 52h83z" />
    <glyph glyph-name="arrowleft" unicode="&#x2190;" horiz-adv-x="860" 
d="M834 379v-94h-565v-116l-223 163l223 163v-116h565z" />
    <glyph glyph-name="arrowup" unicode="&#x2191;" horiz-adv-x="860" 
d="M487 -38h-94v565h-116l163 223l163 -223h-116v-565z" />
    <glyph glyph-name="arrowright" unicode="&#x2192;" horiz-adv-x="860" 
d="M46 285v94h565v116l223 -163l-223 -163v116h-565z" />
    <glyph glyph-name="arrowdown" unicode="&#x2193;" horiz-adv-x="860" 
d="M393 750h94v-565h116l-163 -223l-163 223h116v565z" />
    <glyph glyph-name="arrowboth" unicode="&#x2194;" horiz-adv-x="860" 
d="M269 495v-116h342v116l223 -163l-223 -163v116h-342v-116l-223 163z" />
    <glyph glyph-name="arrowupdn" unicode="&#x2195;" horiz-adv-x="860" 
d="M277 185h116v342h-116l163 223l163 -223h-116v-342h116l-163 -223z" />
    <glyph glyph-name="arrowupdnbse" unicode="&#x21a8;" horiz-adv-x="860" 
d="M277 185h116v342h-116l163 223l163 -223h-116v-342h116l-153 -209h143v-64h-306v64h143z" />
    <glyph glyph-name="partialdiff" unicode="&#x2202;" horiz-adv-x="560" 
d="M216 536h-119q53 176 226 176q103 0 152.5 -67.5t49.5 -206.5q0 -231 -63.5 -340.5t-201.5 -109.5q-93 0 -149 59t-56 162q0 114 62.5 179.5t161.5 65.5q98 0 127 -64q2 42 2 60q0 82 -22.5 122t-71.5 40q-70 0 -98 -76zM271 88q58 0 90.5 42.5t32.5 109.5q0 54 -26.5 84
t-73.5 30q-58 0 -90.5 -42.5t-32.5 -109.5q0 -54 26.5 -84t73.5 -30z" />
    <glyph glyph-name="Delta" unicode="&#x2206;" horiz-adv-x="616" 
d="M616 0h-596l227 700h142zM461 104l-143 481l-143 -481h286z" />
    <glyph glyph-name="product" unicode="&#x220f;" horiz-adv-x="652" 
d="M462 -111v707h-252v-707h-120v811h492v-811h-120z" />
    <glyph glyph-name="summation" unicode="&#x2211;" horiz-adv-x="566" 
d="M60 -12l167 302l-167 307v103h466v-104h-333l158 -290v-32l-156 -281h331v-104h-466v99z" />
    <glyph glyph-name="minus" unicode="&#x2212;" horiz-adv-x="540" 
d="M60 279v94h440v-94h-440z" />
    <glyph glyph-name="uni2215" unicode="&#x2215;" horiz-adv-x="180" 
d="M320 700l-342 -700h-98l342 700h98z" />
    <glyph glyph-name="uni2219" unicode="&#x2219;" horiz-adv-x="282" 
d="M214 389v-126h-126v126h126z" />
    <glyph glyph-name="radical" unicode="&#x221a;" horiz-adv-x="554" 
d="M319 -111h-126l-173 375h128l97 -231l199 717h120z" />
    <glyph glyph-name="infinity" unicode="&#x221e;" horiz-adv-x="778" 
d="M170 331q0 -29 18.5 -47t48.5 -18q57 0 103 65q-46 65 -103 65q-30 0 -48.5 -18t-18.5 -47zM628 331q0 29 -18.5 47t-48.5 18q-57 0 -103 -65q46 -65 103 -65q30 0 48.5 18t18.5 47zM399 275q-66 -95 -166 -95q-76 0 -119.5 40.5t-43.5 110.5t43.5 110.5t119.5 40.5
q100 0 166 -95q66 95 166 95q76 0 119.5 -40.5t43.5 -110.5t-43.5 -110.5t-119.5 -40.5q-100 0 -166 95z" />
    <glyph glyph-name="orthogonal" unicode="&#x221f;" horiz-adv-x="585" 
d="M575 104v-104h-485v575h120v-471h365z" />
    <glyph glyph-name="intersection" unicode="&#x2229;" horiz-adv-x="644" 
d="M332 617q119 0 185.5 -69t66.5 -201v-347h-120v335q0 94 -32 136t-100 42t-100 -42t-32 -136v-335h-120v347q0 132 66.5 201t185.5 69z" />
    <glyph glyph-name="integral" unicode="&#x222b;" horiz-adv-x="414" 
d="M394 703h-48q-41 0 -56.5 -14t-15.5 -48v-599q0 -82 -39.5 -116.5t-130.5 -34.5q-36 0 -64 4v90h48q41 0 56.5 14t15.5 48v599q0 82 39.5 116.5t130.5 34.5q36 0 64 -4v-90z" />
    <glyph glyph-name="approxequal" unicode="&#x2248;" horiz-adv-x="540" 
d="M362 344q-29 0 -53 9t-37 19.5t-29 19.5t-30 9q-39 0 -40 -51h-106q1 65 34 106t96 41q37 0 65 -14.5t47.5 -28.5t36.5 -14q39 0 40 51h106q-1 -65 -34 -106t-96 -41zM362 155q-37 0 -65 14.5t-47.5 28.5t-36.5 14q-39 0 -40 -51h-106q1 65 34 106t96 41q29 0 53 -9
t37 -19.5t29 -19.5t30 -9q39 0 40 51h106q-1 -65 -34 -106t-96 -41z" />
    <glyph glyph-name="notequal" unicode="&#x2260;" horiz-adv-x="540" 
d="M244 192l-64 -115h-78l64 115h-106v94h158l45 80h-203v94h255l65 115h78l-65 -115h107v-94h-159l-45 -80h204v-94h-256z" />
    <glyph glyph-name="equivalence" unicode="&#x2261;" horiz-adv-x="540" 
d="M60 117v94h440v-94h-440zM60 441v94h440v-94h-440zM60 279v94h440v-94h-440z" />
    <glyph glyph-name="lessequal" unicode="&#x2264;" horiz-adv-x="540" 
d="M492 134l-424 176v92l424 176v-104l-293 -118l293 -118v-104zM60 0v94h440v-94h-440z" />
    <glyph glyph-name="greaterequal" unicode="&#x2265;" horiz-adv-x="540" 
d="M492 310l-424 -176v104l293 118l-293 118v104l424 -176v-92zM500 94v-94h-440v94h440z" />
    <glyph glyph-name="house" unicode="&#x2302;" horiz-adv-x="624" 
d="M190 104h264v206l-132 150l-132 -150v-206zM574 0h-504v348l252 288l252 -288v-348z" />
    <glyph glyph-name="revlogicalnot" unicode="&#x2310;" horiz-adv-x="540" 
d="M500 373v-94h-336v-154h-104v248h440z" />
    <glyph glyph-name="uni2318" unicode="&#x2318;" horiz-adv-x="806" 
d="M564 382v-118h55q69 0 108 -38t39 -100t-39 -100t-108 -38t-108 38t-39 100v56h-118v-56q0 -62 -39 -100t-108 -38t-108 38t-39 100t39 100t108 38h55v118h-55q-69 0 -108 38t-39 100t39 100t108 38t108 -38t39 -100v-56h118v56q0 62 39 100t108 38t108 -38t39 -100
t-39 -100t-108 -38h-55zM354 264h118v118h-118v-118zM619 182h-55v-56q0 -26 15 -41t40 -15t40 15t15 41t-15 41t-40 15zM564 464h55q25 0 40 15t15 41t-15 41t-40 15t-40 -15t-15 -41v-56zM207 464h55v56q0 26 -15 41t-40 15t-40 -15t-15 -41t15 -41t40 -15zM262 182h-55
q-25 0 -40 -15t-15 -41t15 -41t40 -15t40 15t15 41v56z" />
    <glyph glyph-name="lozenge" unicode="&#x25ca;" horiz-adv-x="578" 
d="M543 302l-244 -459l-244 459l244 459zM420 302l-121 227l-121 -227l121 -227z" />
    <glyph glyph-name="H18533" unicode="&#x25cf;" horiz-adv-x="1000" 
d="M172 326q0 140 99 239t239 99t239 -99t99 -239t-99 -239t-239 -99t-239 99t-99 239z" />
    <glyph glyph-name="fi" horiz-adv-x="594" 
d="M404 613h-48q-41 0 -59.5 -14t-24.5 -48l-10 -51h120l-19 -94h-120l-78 -406h-114l78 406h-71l19 94h71l11 56q16 82 62 116.5t137 34.5q36 0 63 -4zM479 590l22 110h114l-22 -110h-114zM365 0l97 500h114l-97 -500h-114z" />
    <glyph glyph-name="fl" horiz-adv-x="594" 
d="M404 613h-48q-41 0 -59.5 -14t-24.5 -48l-10 -51h120l-19 -94h-120l-78 -406h-114l78 406h-71l19 94h71l11 56q16 82 62 116.5t137 34.5q36 0 63 -4zM479 0h-114l136 700h114z" />
    <glyph glyph-name="commaaccent" horiz-adv-x="380" 
d="M110 -218h-90l71 170h115z" />
    <glyph glyph-name="zero.tnum" horiz-adv-x="570" 
d="M538 350q-42 -218 -135 -300q-70 -62 -171 -62q-102 0 -147 62q-60 82 -17 300q41 218 134 300q70 62 171 62q102 0 147 -62q31 -42 35.5 -111t-17.5 -189zM422 350q34 176 5 225q-22 37 -74 37q-51 0 -88 -37q-26 -26 -44 -76.5t-37 -148.5q-19 -96 -20.5 -147.5
t14.5 -77.5q22 -37 74 -37q51 0 88 37q26 26 44 76.5t38 148.5z" />
    <glyph glyph-name="one.tnum" horiz-adv-x="431" 
d="M271 0h-116l112 578l-174 -70l22 112l193 80h99z" />
    <glyph glyph-name="two.tnum" horiz-adv-x="541" 
d="M93 481l4 20q18 91 88 151t171 60t148 -60t29 -151q-10 -52 -31 -86t-68 -79l-251 -236h282l-19 -100h-436l17 90l323 306q56 52 67 104q10 52 -12 82t-69 30t-80 -30t-43 -82l-4 -19h-116z" />
    <glyph glyph-name="three.tnum" horiz-adv-x="533" 
d="M23 198l3 13h117l-2 -6q-10 -55 15.5 -86t74.5 -31t86.5 31t47.5 86q11 55 -14.5 86.5t-74.5 31.5h-72l19 97h72q41 0 71.5 26t39.5 70q8 44 -12.5 70t-61.5 26t-71.5 -26t-38.5 -70l-1 -5h-116l3 15q15 82 81 134t163 52t142 -52t30 -134q-11 -52 -47.5 -95t-86.5 -59
q56 -17 80 -62t11 -112q-19 -96 -93.5 -153t-176.5 -57t-154.5 57t-33.5 153z" />
    <glyph glyph-name="four.tnum" horiz-adv-x="532" 
d="M141 244h166l54 280zM499 244l-20 -100h-76l-27 -144h-116l27 144h-285l20 100l360 456h130l-89 -456h76z" />
    <glyph glyph-name="five.tnum" horiz-adv-x="530" 
d="M285 354q-54 0 -90 -44h-116l94 390h365l-20 -100h-257l-48 -196q17 22 49.5 36t67.5 14q89 0 131.5 -60.5t20.5 -173.5q-21 -109 -92.5 -170.5t-175.5 -61.5q-98 0 -146.5 54t-36.5 148h116q-4 -49 19 -75.5t68 -26.5q50 0 84.5 34t47.5 99t-8.5 99t-72.5 34z" />
    <glyph glyph-name="six.tnum" horiz-adv-x="555" 
d="M550 536h-119q0 76 -77 76q-58 0 -93.5 -53.5t-60.5 -168.5q45 64 138 64q94 0 139.5 -63t24.5 -170q-21 -106 -97 -169.5t-175 -63.5q-108 0 -154 79q-44 72 -10 249q43 222 118 311q73 85 190 85q86 0 133 -45t43 -131zM386 221q13 62 -10.5 97.5t-74.5 35.5
t-87.5 -35.5t-49.5 -97.5q-12 -62 11.5 -97.5t74.5 -35.5t87.5 35.5t48.5 97.5z" />
    <glyph glyph-name="seven.tnum" horiz-adv-x="510" 
d="M101 600l20 100h435l-18 -89l-347 -611h-122l348 600h-316z" />
    <glyph glyph-name="eight.tnum" horiz-adv-x="548" 
d="M286 323q-54 0 -94.5 -32t-50.5 -86q-10 -53 17.5 -85t82.5 -32q54 0 94 31.5t50 85.5t-17.5 86t-81.5 32zM221 -12q-106 0 -161.5 57t-36.5 153q12 65 53.5 109t103.5 65q-43 18 -63 60t-9 94q15 82 84 134t170 52t149 -52t33 -134q-11 -52 -47 -94t-85 -60
q114 -43 89 -174q-19 -96 -96.5 -153t-183.5 -57zM305 420q46 0 79.5 26.5t41.5 69.5t-15 69.5t-69 26.5t-79 -26.5t-41 -69.5t14.5 -69.5t68.5 -26.5z" />
    <glyph glyph-name="nine.tnum" horiz-adv-x="560" 
d="M45 164h119q0 -76 77 -76q58 0 93.5 53.5t60.5 168.5q-45 -64 -138 -64q-94 0 -139.5 63t-24.5 170q21 106 97 169.5t175 63.5q107 0 155 -79q43 -72 9 -249q-43 -222 -118 -311q-73 -85 -190 -85q-86 0 -133 45t-43 131zM209 479q-13 -62 10.5 -97.5t74.5 -35.5
t87.5 35.5t49.5 97.5q12 62 -11.5 97.5t-74.5 35.5t-87.5 -35.5t-48.5 -97.5z" />
    <glyph glyph-name="parenleft.case" horiz-adv-x="329" 
d="M98 351q22 113 47.5 193t53 130.5t62.5 79.5t71 39.5t83 10.5l-20 -101q-43 0 -69.5 -22t-55.5 -100t-58 -230q-30 -152 -31.5 -230t16.5 -100t61 -22l-19 -101q-47 0 -79 10.5t-55.5 39.5t-31.5 79.5t-2.5 130.5t27.5 193z" />
    <glyph glyph-name="parenright.case" horiz-adv-x="329" 
d="M267 351q-22 -113 -47.5 -193t-53 -130.5t-62.5 -79.5t-71 -39.5t-83 -10.5l19 101q43 0 69.5 22t55.5 100t59 230q29 152 30.5 230t-16.5 100t-61 22l20 101q47 0 79 -10.5t55.5 -39.5t31.5 -79.5t2.5 -130.5t-27.5 -193z" />
    <glyph glyph-name="hyphen.case" horiz-adv-x="412" 
d="M58 300l19 100h312l-19 -100h-312z" />
    <glyph glyph-name="at.case" horiz-adv-x="756" 
d="M466 711q-78 0 -126 -29t-85 -107.5t-66 -225.5q-18 -91 -21.5 -155t4 -104t29.5 -63t51 -31t73 -8q64 0 116 26l15 -82q-71 -33 -148 -33q-60 0 -103 11.5t-77 42t-49 80.5t-14 129t22 187q48 244 139.5 347.5t256.5 103.5t216.5 -103.5t3.5 -347.5q-24 -122 -91 -187.5
t-166 -65.5t-138.5 62t-18.5 169q22 112 82.5 171.5t144.5 59.5q91 0 108 -63q12 120 -25 168t-133 48zM597 327q14 70 -3.5 103.5t-69.5 33.5t-82.5 -33.5t-44.5 -103.5t3.5 -103.5t69.5 -33.5t82.5 33.5t44.5 103.5z" />
    <glyph glyph-name="bracketleft.case" horiz-adv-x="342" 
d="M12 -88l171 876h222l-20 -99h-108l-131 -678h108l-20 -99h-222z" />
    <glyph glyph-name="bracketright.case" horiz-adv-x="342" 
d="M365 788l-171 -876h-222l20 99h108l131 678h-108l20 99h222z" />
    <glyph glyph-name="braceleft.case" horiz-adv-x="354" 
d="M82 64l32 166q14 70 -46 70h-20l19 100h20q61 0 74 70l32 166q16 79 62.5 115.5t128.5 36.5h33l-20 -99h-20q-60 0 -73 -70l-32 -163q-17 -85 -93 -106q69 -21 52 -106l-32 -163q-13 -70 47 -70h20l-20 -99h-33q-82 0 -114.5 36.5t-16.5 115.5z" />
    <glyph glyph-name="braceright.case" horiz-adv-x="354" 
d="M228 230l-32 -166q-16 -79 -62.5 -115.5t-128.5 -36.5h-33l20 99h20q60 0 73 70l32 163q17 85 94 106q-70 21 -53 106l32 163q13 70 -47 70h-20l20 99h33q82 0 114.5 -36.5t16.5 -115.5l-32 -166q-13 -70 46 -70h20l-19 -100h-20q-60 0 -74 -70z" />
    <glyph glyph-name="exclamdown.case" horiz-adv-x="314" 
d="M73 121l87 388h90l-63 -388l-23 -121h-114zM164 590l22 110h114l-22 -110h-114z" />
    <glyph glyph-name="guillemotleft.case" horiz-adv-x="500" 
d="M280 422l-136 -72l108 -72l-18 -90l-183 126l14 72l232 126zM492 422l-136 -72l108 -72l-18 -90l-183 126l14 72l232 126z" />
    <glyph glyph-name="periodcentered.case" horiz-adv-x="282" 
d="M234 413l-25 -126h-126l25 126h126z" />
    <glyph glyph-name="guillemotright.case" horiz-adv-x="500" 
d="M392 350l-108 72l17 90l184 -126l-14 -72l-233 -126l18 90zM180 350l-108 72l17 90l184 -126l-14 -72l-233 -126l18 90z" />
    <glyph glyph-name="questiondown.case" horiz-adv-x="519" 
d="M340 190h114v-3q-18 -89 -84 -144t-163 -55t-142 55t-27 144q12 59 40.5 99.5t81.5 80.5q46 35 66 62t28 66l4 24h114l-6 -32q-11 -56 -37 -93t-86 -83q-45 -34 -64.5 -59.5t-26.5 -61.5q-9 -49 12 -75.5t63 -26.5t73 26.5t40 75.5zM408 700l-22 -110h-114l22 110h114z
" />
    <glyph glyph-name="endash.case" horiz-adv-x="500" 
d="M508 300h-500l19 100h500z" />
    <glyph glyph-name="emdash.case" horiz-adv-x="1000" 
d="M1008 300h-1000l19 100h1000z" />
    <glyph glyph-name="bullet.case" horiz-adv-x="362" 
d="M322 350q0 -54 -38.5 -92.5t-92.5 -38.5t-92.5 38.5t-38.5 92.5t38.5 92.5t92.5 38.5t92.5 -38.5t38.5 -92.5z" />
    <glyph glyph-name="guilsinglleft.case" horiz-adv-x="288" 
d="M280 422l-136 -72l108 -72l-18 -90l-183 126l14 72l232 126z" />
    <glyph glyph-name="guilsinglright.case" horiz-adv-x="288" 
d="M180 350l-108 72l17 90l184 -126l-14 -72l-233 -126l18 90z" />
    <glyph glyph-name="zero.numerator" 
d="M292 468q20 99 6 131q-11 25 -39 25q-30 0 -49 -25q-26 -32 -46 -131q-18 -100 -5 -131q11 -25 39 -25q30 0 49 25q27 33 45 131zM66 468q15 76 34.5 120t50.5 73q50 47 124 47q75 0 106 -47q37 -55 9 -193q-14 -75 -33.5 -119.5t-50.5 -73.5q-50 -47 -124 -47
q-75 0 -106 47q-36 54 -10 193z" />
    <glyph glyph-name="one.numerator" 
d="M260 236h-100l72 369l-107 -45l17 88l126 52h83z" />
    <glyph glyph-name="two.numerator" 
d="M91 549l3 16q13 66 61.5 104.5t118.5 38.5q67 0 101.5 -38.5t21.5 -104.5q-6 -33 -23.5 -60t-53.5 -60l-131 -123h161l-17 -86h-293l15 73l208 197q29 27 34 58q5 25 -5.5 39.5t-34.5 14.5q-52 0 -63 -54l-3 -15h-100z" />
    <glyph glyph-name="three.numerator" 
d="M52 372l3 17h100l-2 -12q-6 -30 6 -47.5t39 -17.5t46 17t24 46q13 63 -50 63h-35l16 84h35q53 0 63 51t-38 51t-58 -49l-1 -7h-98l3 16q11 56 58 90t112 34q66 0 99.5 -34.5t22.5 -91.5q-15 -75 -87 -99q74 -23 58 -110q-12 -64 -61.5 -104.5t-124.5 -40.5
q-74 0 -108 40.5t-22 103.5z" />
    <glyph glyph-name="four.numerator" 
d="M148 406h90l31 155zM384 406l-16 -84h-48l-17 -86h-98l17 86h-191l15 77l236 301h112l-58 -294h48z" />
    <glyph glyph-name="five.numerator" 
d="M54 370h98q-2 -27 10 -42t36 -15q26 0 45 20t26 54t-4.5 54t-37.5 20q-34 0 -57 -29h-89l65 268h258l-17 -84h-169l-24 -99q28 28 73 28q61 0 87.5 -43.5t12.5 -115.5q-14 -73 -63 -115t-122 -42q-69 0 -102.5 37.5t-25.5 103.5z" />
    <glyph glyph-name="six.numerator" 
d="M399 586h-99q2 42 -39 42q-32 0 -50 -25t-31 -92q29 34 81 34q65 0 94 -43t15 -116q-15 -73 -63.5 -115.5t-124.5 -42.5q-83 0 -111 59q-24 50 -1 168q29 144 78 199q48 54 128 54q60 0 92 -32.5t31 -89.5zM227 461q-59 0 -73 -75q-14 -74 44 -74q28 0 47.5 19.5
t26.5 54.5t-5 55t-40 20z" />
    <glyph glyph-name="seven.numerator" 
d="M105 614l17 86h305l-14 -69l-226 -395h-104l221 378h-199z" />
    <glyph glyph-name="eight.numerator" 
d="M182 228q-75 0 -110.5 41t-23.5 103q17 86 101 115q-29 11 -41.5 38t-6.5 59q11 57 58 90.5t116 33.5t103 -34t23 -90q-6 -32 -29.5 -59t-56.5 -38q74 -28 57 -115q-12 -63 -63.5 -103.5t-126.5 -40.5zM223 442q-27 0 -47.5 -17.5t-26.5 -47.5t8 -47.5t41 -17.5t48 17.5
t27 47.5t-8 47.5t-42 17.5zM240 526q23 0 40 13.5t21 35.5t-7.5 35.5t-34.5 13.5t-40.5 -13.5t-21.5 -35.5t8 -35.5t35 -13.5z" />
    <glyph glyph-name="nine.numerator" 
d="M58 350h99q-2 -42 39 -42q32 0 50 25t31 92q-29 -34 -81 -34q-65 0 -94 43t-15 116q15 73 63.5 115.5t124.5 42.5q83 0 111 -59q24 -50 1 -168q-29 -144 -78 -199q-48 -54 -128 -54q-60 0 -92 32.5t-31 89.5zM230 475q59 0 73 75q14 74 -44 74q-28 0 -47.5 -19.5
t-26.5 -54.5t5 -55t40 -20z" />
    <glyph glyph-name="zero.denominator" 
d="M246 231q20 99 6 131q-11 25 -39 25q-30 0 -49 -25q-26 -32 -46 -131q-18 -100 -5 -131q10 -25 39 -25q28 0 49 25q27 33 45 131zM20 231q15 76 34.5 120t50.5 73q50 47 124 47q75 0 106 -47q37 -55 9 -193q-26 -138 -84 -193q-50 -47 -124 -47q-75 0 -106 47
q-37 53 -10 193z" />
    <glyph glyph-name="one.denominator" 
d="M214 -1h-100l72 369l-107 -45l17 88l125 52h83z" />
    <glyph glyph-name="two.denominator" 
d="M45 312l3 16q13 66 61.5 104.5t118.5 38.5q67 0 101.5 -38.5t21.5 -104.5q-10 -58 -77 -120l-131 -123h161l-17 -86h-293l14 73l209 197q29 27 34 58q5 25 -5.5 39.5t-34.5 14.5q-53 0 -63 -54l-3 -15h-100z" />
    <glyph glyph-name="three.denominator" 
d="M6 135l3 17h100l-2 -12q-6 -30 6 -47.5t39 -17.5t46 17t24 46q13 63 -50 63h-35l16 84h35q53 0 63 51t-38 51t-58 -49l-1 -7h-98l3 16q11 56 58 90t112 34q66 0 99.5 -34.5t22.5 -91.5q-15 -75 -87 -99q74 -23 58 -110q-12 -64 -61.5 -104.5t-124.5 -40.5
q-74 0 -108 40.5t-22 103.5z" />
    <glyph glyph-name="four.denominator" 
d="M102 169h90l30 155zM338 169l-16 -84h-48l-17 -86h-98l17 86h-191l15 77l235 301h112l-57 -294h48z" />
    <glyph glyph-name="five.denominator" 
d="M8 133h98q-2 -27 10 -42t36 -15q26 0 45 20t26 54t-4.5 54t-37.5 20q-34 0 -57 -29h-89l64 268h258l-16 -84h-169l-24 -99q28 28 73 28q61 0 87 -43.5t12 -115.5q-14 -73 -62.5 -115t-121.5 -42q-69 0 -102.5 37.5t-25.5 103.5z" />
    <glyph glyph-name="six.denominator" 
d="M353 349h-99q2 42 -39 42q-32 0 -50 -25t-31 -92q29 34 81 34q65 0 93.5 -43t14.5 -116t-62.5 -115.5t-124.5 -42.5q-83 0 -111 59q-24 50 -1 168q29 144 78 199q48 54 128 54q60 0 92 -32.5t31 -89.5zM181 224q-58 0 -74 -75q-13 -74 45 -74q28 0 47.5 19.5t25.5 54.5
q8 35 -4 55t-40 20z" />
    <glyph glyph-name="seven.denominator" 
d="M59 377l16 86h305l-13 -69l-226 -395h-104l221 378h-199z" />
    <glyph glyph-name="eight.denominator" 
d="M136 -9q-75 0 -110.5 41t-23.5 103q17 86 101 115q-29 11 -41.5 38t-6.5 59q11 57 58 90.5t116 33.5t103 -34t23 -90q-6 -32 -29.5 -59t-56.5 -38q74 -28 57 -115q-12 -63 -63.5 -103.5t-126.5 -40.5zM177 205q-27 0 -47.5 -17.5t-26.5 -47.5t8 -47.5t41 -17.5t48 17.5
t27 47.5t-8 47.5t-42 17.5zM194 289q23 0 40 13.5t21 35.5t-7.5 35.5t-34.5 13.5t-40.5 -13.5t-21.5 -35.5t8 -35.5t35 -13.5z" />
    <glyph glyph-name="nine.denominator" 
d="M11 113h99q0 -42 40 -42q32 0 50 25t31 92q-29 -34 -82 -34q-65 0 -93.5 43t-14.5 116q15 73 63.5 115.5t124.5 42.5q83 0 111 -59q24 -50 1 -168q-29 -144 -78 -199q-48 -54 -128 -54q-60 0 -92 32.5t-32 89.5zM184 238q59 0 73 75q14 74 -44 74q-28 0 -47.5 -19.5
t-26.5 -54.5t5 -55t40 -20z" />
    </font>
</defs>
</svg>
