<?xml version="1.0" standalone="no"?>
<!DOCTYPE svg PUBLIC "-//W3C//DTD SVG 1.1//EN" "http://www.w3.org/Graphics/SVG/1.1/DTD/svg11.dtd" >
<svg xmlns="http://www.w3.org/2000/svg" xmlns:xlink="http://www.w3.org/1999/xlink" version="1.1">
<metadata>
Created by FontForge 20161013 at Tue May 27 19:02:18 2014
 By ,,,
Core Sans A 15 Thin Italic
</metadata>
<defs>
<font id="CoreSansA15Thin-Italic" horiz-adv-x="390" >
  <font-face 
    font-family="Core Sans A 15 Thin"
    font-weight="400"
    font-style="italic"
    font-stretch="normal"
    units-per-em="1000"
    panose-1="2 11 4 3 3 3 2 2 2 4"
    ascent="800"
    descent="-200"
    x-height="518"
    cap-height="700"
    bbox="-439 -249 1030 989"
    underline-thickness="24"
    underline-position="-255"
    slope="-11"
    unicode-range="U+0008-FB04"
  />
<missing-glyph horiz-adv-x="500" 
d="M440 0h-360v750h360v-750zM155 65h210v620h-210v-620z" />
    <glyph glyph-name="f_f" unicode="ff" horiz-adv-x="609" 
d="M480 588l-14 -70h163l-3 -18h-163l-139 -712h-20l139 712h-236l-139 -712h-20l139 712h-120l3 18h120l14 72q27 140 163 140q30 0 57 -3l-4 -18q-28 3 -59 3q-54 0 -88 -25.5t-49 -98.5l-14 -70h236l14 72q27 140 163 140q30 0 57 -3l-4 -18q-29 3 -59 3q-54 0 -88 -25.5
t-49 -98.5z" />
    <glyph glyph-name="f_i" unicode="fi" horiz-adv-x="541" 
d="M224 588l-14 -70h291l-100 -518h-20l97 500h-271l-139 -712h-20l139 712h-120l3 18h120l14 72q27 140 163 140q30 0 57 -3l-4 -18q-28 3 -59 3q-54 0 -88 -25.5t-49 -98.5zM497 680q0 12 9.5 21t21.5 9q21 0 21 -21q0 -13 -9.5 -22t-21.5 -9q-21 0 -21 22z" />
    <glyph glyph-name="f_l" unicode="fl" horiz-adv-x="527" 
d="M223 584l-13 -66h163l-3 -18h-163l-139 -712h-20l139 712h-120l3 18h120l13 68q27 144 165 144q57 0 137 -18l3 18h20l-141 -730h-20l135 696q-80 16 -140 16q-54 0 -89 -27.5t-50 -100.5z" />
    <glyph glyph-name="f_f_i" unicode="ffi" horiz-adv-x="797" 
d="M637 0l97 500h-271l-139 -712h-20l139 712h-236l-139 -712h-20l139 712h-120l3 18h120l14 72q27 140 163 140q30 0 57 -3l-4 -18q-28 3 -59 3q-54 0 -88 -25.5t-49 -98.5l-14 -70h236l14 72q27 140 163 140q30 0 57 -3l-4 -18q-29 3 -59 3q-54 0 -88 -25.5t-49 -98.5
l-14 -70h291l-100 -518h-20zM753 680q0 12 9.5 21t21.5 9q21 0 21 -21q0 -13 -9.5 -22t-21.5 -9q-21 0 -21 22z" />
    <glyph glyph-name="f_f_l" unicode="ffl" horiz-adv-x="783" 
d="M479 584l-13 -66h163l-3 -18h-163l-139 -712h-20l139 712h-236l-139 -712h-20l139 712h-120l3 18h120l14 72q27 140 163 140q30 0 57 -3l-4 -18q-28 3 -59 3q-54 0 -88 -25.5t-49 -98.5l-14 -70h236l13 68q27 144 165 144q57 0 137 -18l3 18h20l-141 -730h-20l135 696
q-80 16 -140 16q-54 0 -89 -27.5t-50 -100.5z" />
    <glyph glyph-name=".notdef" horiz-adv-x="500" 
d="M440 0h-360v750h360v-750zM155 65h210v620h-210v-620z" />
    <glyph glyph-name=".null" horiz-adv-x="0" 
 />
    <glyph glyph-name=".null" horiz-adv-x="0" 
 />
    <glyph glyph-name=".null" horiz-adv-x="0" 
 />
    <glyph glyph-name="nonmarkingreturn" horiz-adv-x="333" 
 />
    <glyph glyph-name="CR" unicode="&#x9;" horiz-adv-x="237" 
 />
    <glyph glyph-name="CR" unicode="&#xd;" horiz-adv-x="237" 
 />
    <glyph glyph-name="space" unicode=" " horiz-adv-x="300" 
 />
    <glyph glyph-name="exclam" unicode="!" horiz-adv-x="220" 
d="M186 700h20l-104 -531h-20zM36 10q0 12 9.5 21t21.5 9q21 0 21 -21q0 -13 -9.5 -22t-21.5 -9q-21 0 -21 22z" />
    <glyph glyph-name="quotedbl" unicode="&#x22;" 
d="M143 428l53 272h20l-53 -272h-20zM293 428l53 272h20l-53 -272h-20z" />
    <glyph glyph-name="numbersign" unicode="#" horiz-adv-x="679" 
d="M527 490l78 210h22l-78 -210h130l-4 -18h-133l-91 -248h131l-3 -18h-134l-76 -206h-22l76 206h-245l-76 -206h-22l76 206h-121l3 18h124l91 248h-123l4 18h126l78 210h22l-78 -210h245zM275 472l-91 -248h245l91 248h-245z" />
    <glyph glyph-name="dollar" unicode="$" horiz-adv-x="567" 
d="M211 -98l17 86q-135 3 -217 96l19 14q73 -90 202 -92l70 360q-1 0 -2.5 0.5t-2.5 1.5q-87 28 -129 63t-42 86q0 85 64 140t161 55q12 0 18 -1l17 89h20l-17 -90q107 -13 171 -97l-19 -13q-56 79 -156 91l-61 -312q90 -31 132.5 -69.5t42.5 -98.5q0 -95 -69.5 -157
t-181.5 -66l-17 -86h-20zM252 6q98 2 162.5 59t64.5 143q0 52 -38 87.5t-121 64.5zM347 694q-83 0 -142 -48t-59 -125q0 -46 39 -78t120 -58l60 308q-6 1 -18 1z" />
    <glyph glyph-name="percent" unicode="%" horiz-adv-x="862" 
d="M128 -12l-13 12l653 712l14 -12zM142 528q15 79 64 129t114 50q54 0 83.5 -35t29.5 -94q0 -96 -54 -162.5t-129 -66.5q-54 0 -83.5 35t-29.5 94q0 28 5 50zM162 528q-5 -27 -5 -47q0 -52 25.5 -83t71.5 -31q65 0 112 61.5t47 148.5q0 52 -25 82t-72 30q-56 0 -98 -45
t-56 -116zM469 171q15 79 64 129t114 50q54 0 83.5 -35t29.5 -94q0 -96 -54 -162.5t-129 -66.5q-54 0 -83.5 35t-29.5 94q0 27 5 50zM489 171q-5 -28 -5 -47q0 -52 25 -83t71 -31q65 0 112.5 61.5t47.5 147.5q0 52 -25.5 82.5t-71.5 30.5q-56 0 -98 -45t-56 -116z" />
    <glyph glyph-name="ampersand" unicode="&#x26;" horiz-adv-x="625" 
d="M495 0l-61 97q-116 -109 -237 -109q-72 0 -116 37.5t-44 99.5q0 75 51.5 133.5t169.5 125.5l-8 15q-24 43 -33 61t-17.5 42.5t-8.5 44.5q0 76 51.5 120.5t116.5 44.5q49 0 79.5 -27.5t30.5 -78.5q0 -65 -39 -114t-146 -114l156 -250q69 69 123 158l15 -9
q-59 -96 -128 -165l72 -112h-27zM202 6q112 0 223 106l-159 257q-118 -69 -163.5 -120t-45.5 -121q0 -54 39 -88t106 -34zM446 574q3 15 3 29q0 43 -26.5 67t-68.5 24q-61 0 -102 -42t-41 -104q0 -29 14 -60.5t50 -93.5q76 43 118 85t53 95z" />
    <glyph glyph-name="quotesingle" unicode="'" horiz-adv-x="230" 
d="M138 428l53 272h20l-53 -272h-20z" />
    <glyph glyph-name="parenleft" unicode="(" horiz-adv-x="319" 
d="M148 310q49 253 219 440l16 -9q-109 -120 -170 -273t-61 -314q0 -153 63 -275l-19 -9q-65 124 -65 278q0 75 17 162z" />
    <glyph glyph-name="parenright" unicode=")" horiz-adv-x="319" 
d="M191 310q-50 -254 -220 -440l-15 9q108 120 169 273t61 314q0 151 -62 275l18 9q65 -125 65 -280q0 -80 -16 -160z" />
    <glyph glyph-name="asterisk" unicode="*" horiz-adv-x="508" 
d="M283 332l165 -95l-10 -17l-164 94v-189h-20v189l-164 -94l-10 17l164 95l-164 95l10 17l164 -95v190h20v-190l164 95l10 -17z" />
    <glyph glyph-name="plus" unicode="+" horiz-adv-x="618" 
d="M309 95v228h-229v18h229v228h20v-228h229v-18h-229v-228h-20z" />
    <glyph glyph-name="comma" unicode="," horiz-adv-x="280" 
d="M100 39l18 -6l-99 -184l-17 7z" />
    <glyph glyph-name="hyphen" unicode="-" horiz-adv-x="406" 
d="M348 323h-266l4 18h266z" />
    <glyph glyph-name="period" unicode="." horiz-adv-x="280" 
d="M66 10q0 12 9.5 21t21.5 9q21 0 21 -21q0 -13 -9.5 -22t-21.5 -9q-21 0 -21 22z" />
    <glyph glyph-name="slash" unicode="/" horiz-adv-x="453" 
d="M-74 -114l609 874l15 -10l-609 -874z" />
    <glyph glyph-name="zero" unicode="0" horiz-adv-x="560" 
d="M65 350q32 165 112.5 263.5t190.5 98.5q86 0 131 -61.5t45 -171.5q0 -61 -13 -129q-33 -166 -113.5 -264t-190.5 -98q-86 0 -131 61t-45 170q0 64 14 131zM85 350q-14 -67 -14 -132q0 -101 40.5 -156.5t119.5 -55.5q103 0 176 92t104 252q14 73 14 130q0 102 -40.5 158
t-120.5 56q-103 0 -175.5 -92.5t-103.5 -251.5z" />
    <glyph glyph-name="one" unicode="1" horiz-adv-x="560" 
d="M402 677l-218 -128l-10 14l233 137h20l-136 -700h-20z" />
    <glyph glyph-name="two" unicode="2" horiz-adv-x="560" 
d="M514 566q0 57 -40 92.5t-108 35.5q-127 0 -234 -100l-13 12q114 106 249 106q77 0 122 -38.5t45 -102.5q0 -72 -41 -136t-138 -160q-110 -110 -306 -257h387l-3 -18h-415l3 18q201 153 321 269q85 83 128 147.5t43 131.5z" />
    <glyph glyph-name="three" unicode="3" horiz-adv-x="560" 
d="M459 175q4 19 4 40q0 67 -47 105.5t-140 38.5h-74l4 18h76q98 0 169 54t71 143q0 51 -37 85.5t-115 34.5q-115 0 -219 -96l-14 14q116 100 237 100q84 0 126.5 -37t42.5 -95q0 -85 -59 -143t-139 -69q67 -11 102.5 -48t35.5 -98q0 -100 -68 -167.5t-187 -67.5
q-139 0 -214 105l19 13q69 -100 198 -100q95 0 154.5 48.5t73.5 121.5z" />
    <glyph glyph-name="four" unicode="4" horiz-adv-x="560" 
d="M392 175h-373l3 18l472 507h20l-99 -507h96l-3 -18h-96l-34 -175h-20zM487 667l-441 -474h349z" />
    <glyph glyph-name="five" unicode="5" horiz-adv-x="560" 
d="M232 6q112 0 178.5 71t66.5 164q0 69 -46.5 109t-130.5 40q-78 0 -159 -27l-5 3l65 334h356l-4 -18h-336l-57 -296q74 22 144 22q88 0 141 -43t53 -120q0 -102 -74 -179.5t-196 -77.5q-64 0 -113.5 26.5t-78.5 72.5l18 12q28 -45 75.5 -69t102.5 -24z" />
    <glyph glyph-name="six" unicode="6" horiz-adv-x="560" 
d="M334 435q83 0 128.5 -44.5t45.5 -121.5q0 -122 -80.5 -201.5t-183.5 -79.5q-84 0 -133 55.5t-49 164.5q0 59 12 116q75 388 316 388q109 0 159 -84l-19 -12q-45 78 -146 78q-215 0 -287 -359q49 48 112.5 74t124.5 26zM248 6q98 0 169 76t71 183q0 70 -41 111t-119 41
q-132 0 -236 -108q-10 -53 -10 -99q0 -105 47 -154.5t119 -49.5z" />
    <glyph glyph-name="seven" unicode="7" horiz-adv-x="560" 
d="M582 682l-432 -682h-24l432 682h-413l4 18h437z" />
    <glyph glyph-name="eight" unicode="8" horiz-adv-x="560" 
d="M489 174q-16 -85 -90 -135.5t-172 -50.5q-86 0 -139.5 39.5t-53.5 111.5q0 76 52 146t139 110q-89 47 -89 121q0 85 70.5 140.5t161.5 55.5q79 0 123.5 -37.5t44.5 -97.5q0 -65 -44 -121.5t-123 -98.5q123 -59 123 -149q0 -16 -3 -34zM58 179q-4 -24 -4 -35
q0 -64 48 -101t129 -37q100 0 171 56.5t71 142.5q0 51 -42.5 90t-137.5 72q-27 9 -49 20q-80 -34 -127 -90.5t-59 -117.5zM513 546q3 15 3 29q0 53 -39.5 86t-112.5 33q-83 0 -145.5 -49t-62.5 -124q0 -46 37 -79t111 -59q30 -10 46 -18q141 70 163 181z" />
    <glyph glyph-name="nine" unicode="9" horiz-adv-x="560" 
d="M261 265q-83 0 -128.5 44.5t-45.5 121.5q0 122 80 201.5t184 79.5q84 0 133 -55.5t49 -164.5q0 -52 -12 -116q-76 -388 -320 -388q-96 0 -152 61l18 15q51 -58 138 -58q219 0 293 359q-49 -48 -112.5 -74t-124.5 -26zM504 391q9 53 9 96q0 106 -47 156.5t-119 50.5
q-97 0 -168.5 -75.5t-71.5 -182.5q0 -70 41.5 -111.5t119.5 -41.5q131 0 236 108z" />
    <glyph glyph-name="colon" unicode=":" horiz-adv-x="280" 
d="M66 10q0 12 9.5 21t21.5 9q21 0 21 -21q0 -13 -9.5 -22t-21.5 -9q-21 0 -21 22zM161 500q0 12 9.5 21t21.5 9q21 0 21 -21q0 -13 -9.5 -22t-21.5 -9q-21 0 -21 22z" />
    <glyph glyph-name="semicolon" unicode=";" horiz-adv-x="280" 
d="M91 39l18 -6l-99 -184l-17 7zM161 500q0 12 9.5 21t21.5 9q21 0 21 -21q0 -13 -9.5 -22t-21.5 -9q-21 0 -21 22z" />
    <glyph glyph-name="less" unicode="&#x3c;" horiz-adv-x="618" 
d="M123 323v18l381 233l11 -19l-367 -223l367 -223l-11 -19z" />
    <glyph glyph-name="equal" unicode="=" horiz-adv-x="618" 
d="M558 433h-478v18h478v-18zM558 213h-478v18h478v-18z" />
    <glyph glyph-name="greater" unicode="&#x3e;" horiz-adv-x="618" 
d="M515 341v-18l-381 -233l-11 19l367 223l-367 223l11 19z" />
    <glyph glyph-name="question" unicode="?" horiz-adv-x="492" 
d="M336 712q72 0 110 -34.5t38 -89.5q0 -121 -161 -222q-57 -37 -81.5 -75t-36.5 -101l-4 -21h-20l5 25q14 68 42 110t86 78q149 91 149 205q0 50 -35.5 78.5t-101.5 28.5q-101 0 -194 -93l-13 13q101 98 217 98zM135 10q0 12 9.5 21t21.5 9q21 0 21 -21q0 -13 -9.5 -22
t-21.5 -9q-21 0 -21 22z" />
    <glyph glyph-name="at" unicode="@" horiz-adv-x="958" 
d="M619 154l46 234q-21 39 -60 63.5t-87 24.5q-92 0 -153 -74.5t-61 -200.5q0 -135 134 -135q48 0 96.5 25t84.5 63zM619 131q-87 -83 -186 -83q-149 0 -149 151q0 134 67.5 214.5t168.5 80.5q97 0 150 -79l13 67h20l-60 -309q-3 -16 -3 -29q0 -69 70 -69q48 0 87 48.5
t58.5 120.5t19.5 149q0 133 -80.5 217t-233.5 84q-128 0 -235.5 -72.5t-167.5 -190t-60 -249.5q0 -141 81 -234.5t233 -93.5q130 0 253 78l6 -16q-127 -80 -262 -80q-159 0 -245 96.5t-86 244.5q0 101 37 198t100 171.5t155 120t195 45.5q160 0 245 -91t85 -230
q0 -80 -21 -155t-65.5 -127t-102.5 -52q-40 0 -62.5 20t-24.5 54z" />
    <glyph glyph-name="A" unicode="A" horiz-adv-x="648" 
d="M399 700h22l147 -700h-22l-44 211h-374l-126 -211h-22zM405 678l-267 -449h360z" />
    <glyph glyph-name="B" unicode="B" horiz-adv-x="606" 
d="M40 0l136 700h217q86 0 133.5 -37.5t47.5 -102.5q0 -73 -45 -127.5t-107 -67.5q58 -8 91 -43t33 -92q0 -107 -77 -168.5t-211 -61.5h-218zM132 373h241q73 0 127 53t54 130q0 58 -44.5 92t-126.5 34h-191zM522 187q4 19 4 39q0 60 -40.5 94.5t-115.5 34.5h-241l-66 -337
h196q111 0 179 44t84 125z" />
    <glyph glyph-name="C" unicode="C" horiz-adv-x="672" 
d="M73 350q30 157 135.5 259.5t238.5 102.5q175 0 240 -140l-19 -11q-64 133 -225 133q-142 0 -250.5 -127t-108.5 -306q0 -115 61 -185t165 -70q162 0 276 133l14 -11q-118 -140 -294 -140q-111 0 -176.5 74t-65.5 196q0 44 9 92z" />
    <glyph glyph-name="D" unicode="D" horiz-adv-x="654" 
d="M63 18h176q150 0 258.5 119t108.5 301q0 113 -63 178.5t-175 65.5h-176zM239 0h-199l136 700h199q118 0 184.5 -69.5t66.5 -188.5q0 -191 -114.5 -316.5t-272.5 -125.5z" />
    <glyph glyph-name="E" unicode="E" horiz-adv-x="554" 
d="M40 0l136 700h405l-4 -18h-385l-60 -311h350l-4 -18h-350l-65 -335h394l-3 -18h-414z" />
    <glyph glyph-name="F" unicode="F" horiz-adv-x="525" 
d="M40 0l136 700h405l-4 -18h-385l-60 -308h353l-3 -18h-353l-69 -356h-20z" />
    <glyph glyph-name="G" unicode="G" horiz-adv-x="693" 
d="M73 350q30 158 135 260t241 102q168 0 233 -133l-19 -11q-65 126 -218 126q-145 0 -253.5 -127.5t-108.5 -308.5q0 -114 62.5 -183t180.5 -69q62 0 132.5 27t114.5 71l44 227h-218l3 18h238l-49 -253q-52 -52 -127 -80t-142 -28q-127 0 -193 73t-66 193q0 49 10 96z" />
    <glyph glyph-name="H" unicode="H" horiz-adv-x="672" 
d="M40 0l136 700h20l-62 -317h452l62 317h20l-136 -700h-20l70 365h-452l-70 -365h-20z" />
    <glyph glyph-name="I" unicode="I" horiz-adv-x="210" 
d="M181 700h20l-136 -700h-20z" />
    <glyph glyph-name="J" unicode="J" horiz-adv-x="526" 
d="M7 115l18 10q44 -119 170 -119q75 0 133.5 54.5t78.5 153.5l95 486h20l-95 -486q-22 -114 -88.5 -170t-146.5 -56q-136 0 -185 127z" />
    <glyph glyph-name="K" unicode="K" horiz-adv-x="585" 
d="M196 700l-99 -508l496 508h26l-277 -283l173 -417h-24l-166 400l-234 -240l-31 -160h-20l136 700h20z" />
    <glyph glyph-name="L" unicode="L" horiz-adv-x="512" 
d="M40 0l136 700h20l-133 -682h382l-3 -18h-402z" />
    <glyph glyph-name="M" unicode="M" horiz-adv-x="824" 
d="M820 700l-136 -700h-20l128 663l-391 -504h-18l-195 504l-128 -663h-20l136 700h20l201 -519l403 519h20z" />
    <glyph glyph-name="N" unicode="N" horiz-adv-x="678" 
d="M40 0l136 700h20l328 -667l130 667h20l-136 -700h-20l-329 666l-129 -666h-20z" />
    <glyph glyph-name="O" unicode="O" horiz-adv-x="696" 
d="M659 350q-31 -158 -130.5 -260t-233.5 -102q-111 0 -172 71.5t-61 189.5q0 190 110 326.5t264 136.5q111 0 172 -72t61 -191q0 -50 -10 -99zM93 350q-10 -49 -10 -98q0 -112 56.5 -179t159.5 -67q144 0 247 130t103 311q0 112 -56.5 179.5t-160.5 67.5
q-125 0 -217.5 -96.5t-121.5 -247.5z" />
    <glyph glyph-name="P" unicode="P" horiz-adv-x="564" 
d="M565 494q-20 -99 -95 -152.5t-196 -53.5h-159l-55 -288h-20l136 700h179q105 0 160 -41t55 -118q0 -19 -5 -47zM545 494q4 20 4 43q0 71 -52.5 108t-151.5 37h-153l-73 -376h153q113 0 183.5 47.5t89.5 140.5z" />
    <glyph glyph-name="Q" unicode="Q" horiz-adv-x="696" 
d="M659 350q-33 -165 -135 -264l105 -144l-15 -13l-106 142q-94 -83 -213 -83q-111 0 -172 71.5t-61 189.5q0 190 110 326.5t264 136.5q111 0 172 -72t61 -191q0 -50 -10 -99zM382 247l16 13l116 -160q60 61 97.5 154.5t37.5 192.5q0 112 -56.5 179.5t-160.5 67.5
q-144 0 -246.5 -130.5t-102.5 -311.5q0 -112 56.5 -179t159.5 -67q112 0 200 79z" />
    <glyph glyph-name="R" unicode="R" horiz-adv-x="582" 
d="M570 509q-13 -70 -65 -118t-134 -65l141 -326h-23l-139 323q-35 -5 -68 -5h-161l-61 -318h-20l136 700h186q103 0 157.5 -41t54.5 -111q0 -13 -4 -39zM550 509q4 24 4 36q0 65 -52 101t-149 36h-161l-67 -346h161q110 0 179.5 46.5t84.5 126.5z" />
    <glyph glyph-name="S" unicode="S" horiz-adv-x="567" 
d="M239 6q110 0 175 57.5t65 145.5q0 56 -43 92t-139 67q-87 28 -129 63t-42 86q0 84 64 139.5t161 55.5q134 0 209 -99l-19 -13q-67 94 -194 94q-88 0 -144.5 -50.5t-56.5 -124.5q0 -45 39.5 -76.5t123.5 -58.5q99 -32 144.5 -71t45.5 -101q0 -98 -73 -161t-191 -63
q-139 0 -224 96l19 14q38 -46 94 -69t115 -23z" />
    <glyph glyph-name="T" unicode="T" horiz-adv-x="522" 
d="M201 0l132 682h-236l4 18h492l-4 -18h-236l-132 -682h-20z" />
    <glyph glyph-name="U" unicode="U" horiz-adv-x="696" 
d="M295 -12q-97 0 -154.5 50.5t-57.5 150.5q0 40 8 77l85 434h20l-84 -431q-8 -37 -8 -76q0 -93 53 -140t142 -47q106 0 184.5 66t104.5 197l84 431h20l-85 -434q-27 -138 -112.5 -208t-199.5 -70z" />
    <glyph glyph-name="V" unicode="V" horiz-adv-x="648" 
d="M285 0h-22l-147 700h22l140 -678l403 678h23z" />
    <glyph glyph-name="W" unicode="W" horiz-adv-x="974" 
d="M560 700h26l62 -677l360 677h22l-374 -700h-25l-63 677l-325 -677h-25l-102 700h22l96 -677z" />
    <glyph glyph-name="X" unicode="X" horiz-adv-x="563" 
d="M290 364l-159 336h23l151 -319l276 319h23l-291 -336l175 -364h-24l-166 347l-299 -347h-24z" />
    <glyph glyph-name="Y" unicode="Y" horiz-adv-x="560" 
d="M621 700l-327 -421l-54 -279h-20l54 279l-163 421h24l153 -401l309 401h24z" />
    <glyph glyph-name="Z" unicode="Z" horiz-adv-x="558" 
d="M-7 18l573 664h-429l4 18h453l-4 -18l-573 -664h454l-3 -18h-478z" />
    <glyph glyph-name="bracketleft" unicode="[" horiz-adv-x="383" 
d="M54 -130l171 880h223l-3 -18h-203l-164 -844h203l-4 -18h-223z" />
    <glyph glyph-name="backslash" unicode="\" horiz-adv-x="453" 
d="M112 760l270 -874l-19 -10l-270 874z" />
    <glyph glyph-name="bracketright" unicode="]" horiz-adv-x="383" 
d="M348 750l-171 -880h-223l4 18h203l164 844h-203l3 18h223z" />
    <glyph glyph-name="asciicircum" unicode="^" horiz-adv-x="618" 
d="M310 700h18l214 -309l-16 -11l-207 302l-207 -302l-16 11z" />
    <glyph glyph-name="underscore" unicode="_" horiz-adv-x="480" 
d="M-78 -146l4 18h479l-4 -18h-479z" />
    <glyph glyph-name="grave" unicode="`" horiz-adv-x="400" 
d="M208 711l18 13l117 -142l-18 -12z" />
    <glyph glyph-name="a" unicode="a" horiz-adv-x="559" 
d="M428 102l61 314q-27 40 -73.5 68t-97.5 28q-198 0 -248 -253q-10 -47 -10 -88q0 -165 160 -165q51 0 108 28t100 68zM409 0l15 78q-107 -90 -215 -90q-82 0 -125.5 45.5t-43.5 134.5q0 42 10 91q26 133 95 202t170 69q106 0 179 -90l15 78h20l-100 -518h-20z" />
    <glyph glyph-name="b" unicode="b" horiz-adv-x="559" 
d="M130 416l-61 -314q28 -41 74.5 -68.5t97.5 -27.5q198 0 248 253q9 48 9 88q0 165 -159 165q-51 0 -108 -28t-101 -68zM65 78l-15 -78h-20l141 730h20l-56 -290q107 90 215 90q81 0 125 -45.5t44 -134.5q0 -36 -10 -91q-26 -133 -95 -202t-170 -69q-106 0 -179 90z" />
    <glyph glyph-name="c" unicode="c" horiz-adv-x="535" 
d="M50 259q24 123 107.5 197t183.5 74q133 0 181 -104l-18 -10q-46 96 -167 96q-106 0 -190 -91t-84 -231q0 -85 50 -134.5t126 -49.5q120 0 204 96l14 -10q-88 -104 -222 -104q-85 0 -138.5 54t-53.5 149q0 34 7 68z" />
    <glyph glyph-name="d" unicode="d" horiz-adv-x="559" 
d="M428 102l61 314q-27 40 -73.5 68t-97.5 28q-198 0 -248 -253q-10 -47 -10 -88q0 -165 160 -165q51 0 108 28t100 68zM409 0l15 78q-107 -90 -215 -90q-82 0 -125.5 45.5t-43.5 134.5q0 42 10 91q26 133 95 202t170 69q106 0 179 -90l56 290h20l-141 -730h-20z" />
    <glyph glyph-name="e" unicode="e" horiz-adv-x="541" 
d="M296 228q-134 0 -219 62q-13 -42 -13 -93q0 -83 45.5 -137t134.5 -54q117 0 196 85l14 -11q-86 -92 -214 -92q-97 0 -147 57t-50 147q0 142 93 240t225 98q74 0 120 -33t46 -91q0 -79 -66 -128.5t-165 -49.5zM355 512q-94 0 -167.5 -56.5t-105.5 -149.5q88 -60 217 -60
q94 0 150.5 45.5t56.5 111.5q0 50 -40.5 79.5t-110.5 29.5z" />
    <glyph glyph-name="f" unicode="f" horiz-adv-x="353" 
d="M224 588l-14 -70h163l-3 -18h-163l-139 -712h-20l139 712h-120l3 18h120l14 72q27 140 163 140q30 0 57 -3l-4 -18q-28 3 -59 3q-54 0 -88 -25.5t-49 -98.5z" />
    <glyph glyph-name="g" unicode="g" horiz-adv-x="559" 
d="M424 78q-107 -90 -215 -90q-82 0 -125.5 45.5t-43.5 134.5q0 42 10 91q26 133 95 202t170 69q106 0 179 -90l15 78h20l-100 -515q-21 -107 -83.5 -167t-161.5 -60q-126 0 -184 100l18 11q53 -93 169 -93q90 0 145.5 54.5t75.5 150.5zM428 102l61 314q-27 40 -73.5 68
t-97.5 28q-198 0 -248 -253q-10 -47 -10 -88q0 -165 160 -165q51 0 108 28t100 68z" />
    <glyph glyph-name="h" unicode="h" horiz-adv-x="559" 
d="M355 512q-55 0 -115.5 -29.5t-111.5 -78.5l-78 -404h-20l141 730h20l-58 -301q48 43 109 72t118 29q146 0 146 -129q0 -28 -6 -61l-66 -340h-20l64 333q7 34 7 65q0 59 -31.5 86.5t-98.5 27.5z" />
    <glyph glyph-name="i" unicode="i" horiz-adv-x="200" 
d="M40 0l100 518h20l-100 -518h-20zM156 680q0 12 9.5 21t21.5 9q21 0 21 -21q0 -13 -9.5 -22t-21.5 -9q-21 0 -21 22z" />
    <glyph glyph-name="j" unicode="j" horiz-adv-x="190" 
d="M18 -87l117 605h20l-118 -607q-15 -77 -52 -106t-99 -29q-15 0 -31 2l4 18q18 -2 33 -2q50 0 81 23.5t45 95.5zM151 680q0 12 9.5 21t21.5 9q21 0 21 -21q0 -13 -9.5 -22t-21.5 -9q-21 0 -21 22z" />
    <glyph glyph-name="k" unicode="k" horiz-adv-x="478" 
d="M191 730l-109 -565l376 353h28l-222 -207l154 -311h-24l-147 296l-171 -159l-26 -137h-20l141 730h20z" />
    <glyph glyph-name="l" unicode="l" horiz-adv-x="200" 
d="M40 0l141 730h20l-141 -730h-20z" />
    <glyph glyph-name="m" unicode="m" horiz-adv-x="867" 
d="M338 512q-47 0 -105.5 -28t-103.5 -74l-79 -410h-20l100 518h20l-16 -81q47 44 104 68.5t107 24.5q112 0 125 -91q106 91 217 91q68 0 99 -28t31 -86q0 -28 -8 -70l-67 -346h-20l65 339q8 43 8 72q0 51 -26.5 76t-88.5 25q-46 0 -102 -25t-107 -67q2 -19 -6 -60l-69 -360
h-20l68 353q6 30 6 55q0 104 -112 104z" />
    <glyph glyph-name="n" unicode="n" horiz-adv-x="559" 
d="M355 512q-55 0 -115.5 -29.5t-111.5 -78.5l-78 -404h-20l100 518h20l-17 -89q48 43 109 72t118 29q146 0 146 -129q0 -28 -6 -61l-66 -340h-20l64 333q7 34 7 65q0 59 -31.5 86.5t-98.5 27.5z" />
    <glyph glyph-name="o" unicode="o" horiz-adv-x="566" 
d="M516 259q-23 -119 -103.5 -195t-182.5 -76q-86 0 -136.5 55.5t-50.5 147.5q0 141 88.5 240t204.5 99q86 0 136.5 -56t50.5 -147q0 -34 -7 -68zM496 259q6 35 6 64q0 87 -46.5 138t-123.5 51q-105 0 -187 -91.5t-82 -227.5q0 -85 47 -136t124 -51q92 0 166 70t96 183z" />
    <glyph glyph-name="p" unicode="p" horiz-adv-x="559" 
d="M131 419l-62 -320q27 -40 73.5 -66.5t98.5 -26.5q198 0 248 253q9 48 9 88q0 165 -159 165q-52 0 -108.5 -26.5t-99.5 -66.5zM150 518l-14 -75q104 87 214 87q81 0 125 -45.5t44 -134.5q0 -36 -10 -91q-26 -133 -95 -202t-170 -69q-110 0 -180 87l-56 -287h-20l142 730
h20z" />
    <glyph glyph-name="q" unicode="q" horiz-adv-x="559" 
d="M428 102l61 314q-27 40 -73.5 68t-97.5 28q-198 0 -248 -253q-10 -47 -10 -88q0 -165 160 -165q51 0 108 28t100 68zM494 440l15 78h20l-142 -730h-20l57 290q-107 -90 -215 -90q-82 0 -125.5 45.5t-43.5 134.5q0 42 10 91q26 133 95 202t170 69q106 0 179 -90z" />
    <glyph glyph-name="r" unicode="r" horiz-adv-x="339" 
d="M328 512q-103 0 -200 -106l-78 -406h-20l100 518h20l-16 -85q97 97 200 97q13 0 37 -2l-3 -18q-26 2 -40 2z" />
    <glyph glyph-name="s" unicode="s" horiz-adv-x="474" 
d="M189 6q82 0 137 41.5t55 104.5q0 42 -35.5 70t-110.5 49q-76 21 -112.5 46t-36.5 68q0 64 54.5 104.5t134.5 40.5q99 0 161 -59l-17 -14q-55 55 -147 55q-71 0 -118.5 -34t-47.5 -89q0 -36 34 -58t109 -43q78 -22 115.5 -53.5t37.5 -77.5q0 -78 -63.5 -123.5
t-154.5 -45.5q-115 0 -187 78l17 14q32 -35 79.5 -54.5t95.5 -19.5z" />
    <glyph glyph-name="t" unicode="t" horiz-adv-x="353" 
d="M270 8l-3 -18q-24 -2 -44 -2q-55 0 -84.5 21.5t-29.5 73.5q0 17 5 45l73 372h-120l3 18h120l30 155h20l-30 -155h163l-3 -18h-163l-72 -370q-5 -27 -5 -43q0 -81 94 -81q22 0 46 2z" />
    <glyph glyph-name="u" unicode="u" horiz-adv-x="554" 
d="M224 -12q-79 0 -122 41t-43 118q0 32 7 66l59 305h20l-59 -303q-7 -40 -7 -63q0 -71 38.5 -108.5t110.5 -37.5q87 0 145 54t77 155l59 303h20l-59 -305q-21 -108 -86.5 -166.5t-159.5 -58.5z" />
    <glyph glyph-name="v" unicode="v" horiz-adv-x="496" 
d="M499 518h22l-310 -518h-26l-110 518h22l104 -499z" />
    <glyph glyph-name="w" unicode="w" horiz-adv-x="760" 
d="M416 518h28l57 -499l261 499h23l-274 -518h-26l-59 499l-251 -499h-26l-74 518h23l67 -499z" />
    <glyph glyph-name="x" unicode="x" horiz-adv-x="458" 
d="M363 0l-135 257l-233 -257h-25l250 274l-128 244h24l119 -228l207 228h24l-222 -244l144 -274h-25z" />
    <glyph glyph-name="y" unicode="y" horiz-adv-x="485" 
d="M203 33l285 485h22l-429 -730h-22l129 218l-113 512h22z" />
    <glyph glyph-name="z" unicode="z" horiz-adv-x="461" 
d="M-15 0l3 18l450 482h-341l3 18h366l-3 -18l-451 -482h367l-3 -18h-391z" />
    <glyph glyph-name="braceleft" unicode="{" horiz-adv-x="355" 
d="M127 -44l47 243q2 9 2 26q0 35 -18 55.5t-50 20.5l4 18q38 0 67 29t38 73l48 243q9 46 30 66t63 20h72l-3 -18h-72q-32 0 -47.5 -15t-22.5 -51l-49 -250q-8 -38 -32.5 -67.5t-60.5 -38.5q54 -15 54 -80q0 -17 -2 -26l-48 -250q-4 -22 -4 -28q0 -38 48 -38h72l-4 -18h-72
q-64 0 -64 53q0 17 4 33z" />
    <glyph glyph-name="bar" unicode="|" horiz-adv-x="260" 
d="M130 -200v969h20v-969h-20z" />
    <glyph glyph-name="braceright" unicode="}" horiz-adv-x="355" 
d="M157 199l-47 -243q-9 -46 -31 -66t-63 -20h-71l4 18h71q32 0 47.5 15t22.5 51l48 250q7 38 32 67.5t62 38.5q-56 14 -56 80q0 12 3 26l49 250q3 15 3 28q0 20 -11 29t-36 9h-72l3 18h72q33 0 48.5 -13t15.5 -42q0 -15 -3 -31l-48 -243q-3 -13 -3 -26q0 -34 18.5 -55
t51.5 -21l-4 -18q-39 0 -68.5 -29t-37.5 -73z" />
    <glyph glyph-name="asciitilde" unicode="~" horiz-adv-x="618" 
d="M311 325q-72 55 -129 55q-80 0 -98 -106l-20 4q21 120 120 120q65 0 143 -63q72 -55 129 -55q80 0 98 106l20 -4q-21 -120 -120 -120q-65 0 -143 63z" />
    <glyph glyph-name="uni00A0" unicode="&#xa0;" horiz-adv-x="300" 
 />
    <glyph glyph-name="exclamdown" unicode="&#xa1;" horiz-adv-x="220" 
d="M14 -182h20l103 531h-20zM131 500q0 12 9.5 21t21.5 9q21 0 21 -21q0 -13 -9.5 -22t-21.5 -9q-21 0 -21 22z" />
    <glyph glyph-name="cent" unicode="&#xa2;" horiz-adv-x="535" 
d="M50 259q23 120 102.5 193t176.5 78l17 86h20l-17 -86q126 -3 173 -104l-18 -10q-44 91 -159 96l-98 -506q115 3 196 96l14 -10q-84 -99 -214 -104l-16 -86h-20l17 86q-81 4 -131 57.5t-50 145.5q0 34 7 68zM63 190q0 -82 46 -131t118 -53l99 506q-104 -6 -183.5 -96
t-79.5 -226z" />
    <glyph glyph-name="sterling" unicode="&#xa3;" horiz-adv-x="565" 
d="M406 712q121 0 174 -89l-18 -11q-50 82 -160 82q-80 0 -133 -45.5t-71 -140.5l-26 -134h235l-3 -18h-235l-21 -109q-27 -143 -120 -229h450l-3 -18h-475l2 15q95 81 125 231l22 110h-80l3 18h80l27 136q20 101 78.5 151.5t148.5 50.5z" />
    <glyph glyph-name="currency" unicode="&#xa4;" horiz-adv-x="707" 
d="M217 171l-87 -87l-14 15l87 87q-56 61 -56 146q0 84 55 145l-86 87l14 15l87 -87q62 57 147 57q83 0 147 -57l87 87l14 -15l-87 -87q57 -62 57 -145t-57 -147l87 -86l-14 -15l-87 87q-62 -57 -147 -57q-83 0 -147 57zM167 332q0 -82 57.5 -140t139.5 -58t140 58t58 140
t-58 139.5t-140 57.5t-139.5 -57.5t-57.5 -139.5z" />
    <glyph glyph-name="yen" unicode="&#xa5;" horiz-adv-x="560" 
d="M65 297h201l-155 403h24l153 -401l309 401h24l-314 -403h204l-3 -18h-214l-18 -91h214l-3 -18h-214l-33 -170h-20l33 170h-212l3 18h212l18 91h-212z" />
    <glyph glyph-name="brokenbar" unicode="&#xa6;" horiz-adv-x="260" 
d="M130 220h20v-320h-20v320zM130 688h20v-320h-20v320z" />
    <glyph glyph-name="section" unicode="&#xa7;" horiz-adv-x="495" 
d="M448 338q0 -65 -45.5 -104.5t-120.5 -51.5q114 -40 114 -114q0 -78 -63.5 -123t-155.5 -45q-110 0 -182 78l17 14q32 -35 78.5 -54.5t94.5 -19.5q81 0 135.5 41t54.5 104q0 41 -35.5 67.5t-111.5 47.5q-147 40 -147 124q0 55 44 98t110 56q-52 18 -78.5 42.5t-26.5 60.5
q0 67 57 110t139 43q94 0 156 -59l-16 -14q-55 55 -148 55q-70 0 -118.5 -36.5t-48.5 -92.5q0 -37 34.5 -61t108.5 -44q81 -22 117.5 -50t36.5 -72zM280 443q-3 0 -4 1q-71 -1 -123 -42t-52 -96q0 -38 34 -64t104 -46q82 0 135 37.5t53 100.5q0 39 -35 63t-112 46z" />
    <glyph glyph-name="dieresis" unicode="&#xa8;" horiz-adv-x="400" 
d="M166 644q0 10 8 18.5t19 8.5q18 0 18 -18q0 -10 -8.5 -18t-18.5 -8q-18 0 -18 17zM340 644q0 10 8 18.5t19 8.5q18 0 18 -18q0 -10 -8.5 -18t-18.5 -8q-18 0 -18 17z" />
    <glyph glyph-name="copyright" unicode="&#xa9;" horiz-adv-x="834" 
d="M70 350q0 150 105 256t252 106t252 -106t105 -256t-105 -256t-252 -106t-252 106t-105 256zM764 350q0 141 -99.5 241.5t-237.5 100.5t-237.5 -100.5t-99.5 -241.5t99.5 -241.5t237.5 -100.5t237.5 100.5t99.5 241.5zM229 348q0 97 56.5 157t141.5 60q117 0 176 -95
l-16 -9q-57 86 -160 86q-81 0 -129.5 -55.5t-48.5 -143.5t48.5 -143.5t129.5 -55.5q103 0 160 86l16 -9q-59 -95 -176 -95q-85 0 -141.5 60t-56.5 157z" />
    <glyph glyph-name="ordfeminine" unicode="&#xaa;" horiz-adv-x="410" 
d="M428 697h20l-71 -364h-20l10 52q-71 -60 -152 -60q-62 0 -96 32.5t-34 96.5q0 115 58.5 183t145.5 68q80 0 129 -60zM373 412l40 206q-19 30 -52 49.5t-70 19.5q-80 0 -132.5 -63t-52.5 -166q0 -115 118 -115q37 0 78 19.5t71 49.5z" />
    <glyph glyph-name="guillemotleft" unicode="&#xab;" horiz-adv-x="487" 
d="M59 307l2 10l237 159l8 -15l-223 -149l165 -149l-14 -15zM229 307l2 10l237 159l8 -15l-223 -149l165 -149l-14 -15z" />
    <glyph glyph-name="logicalnot" unicode="&#xac;" horiz-adv-x="618" 
d="M77 406v18h474v-250h-20v232h-454z" />
    <glyph glyph-name="uni00AD" unicode="&#xad;" horiz-adv-x="406" 
d="M348 323h-266l4 18h266z" />
    <glyph glyph-name="registered" unicode="&#xae;" horiz-adv-x="834" 
d="M70 350q0 150 105 256t252 106t252 -106t105 -256t-105 -256t-252 -106t-252 106t-105 256zM90 350q0 -141 99.5 -241.5t237.5 -100.5t237.5 100.5t99.5 241.5t-99.5 241.5t-237.5 100.5t-237.5 -100.5t-99.5 -241.5zM588 437q0 -86 -88 -113l108 -183h-23l-104 178
q-21 -4 -51 -4h-123v-174h-20v417h143q75 0 116.5 -31.5t41.5 -89.5zM568 437q0 103 -140 103h-121v-207h121q140 0 140 104z" />
    <glyph glyph-name="macron" unicode="&#xaf;" horiz-adv-x="400" 
d="M138 639l3 18h272l-3 -18h-272z" />
    <glyph glyph-name="degree" unicode="&#xb0;" horiz-adv-x="386" 
d="M82 591q0 50 35.5 85.5t85.5 35.5t85.5 -35.5t35.5 -85.5t-35.5 -85.5t-85.5 -35.5t-85.5 35.5t-35.5 85.5zM102 591q0 -43 29.5 -73t71.5 -30t71.5 30t29.5 73t-29.5 73t-71.5 30t-71.5 -30t-29.5 -73z" />
    <glyph glyph-name="plusminus" unicode="&#xb1;" horiz-adv-x="618" 
d="M558 0h-478v18h478v-18zM309 103v228h-229v18h229v228h20v-228h229v-18h-229v-228h-20z" />
    <glyph glyph-name="twosuperior" unicode="&#xb2;" 
d="M316 237h-264l3 20q128 92 227 195q80 83 80 158q0 39 -25 59.5t-67 20.5q-73 0 -137 -54l-12 11q70 61 151 61q52 0 81 -26t29 -70q0 -80 -87 -172q-96 -101 -212 -183h236z" />
    <glyph glyph-name="threesuperior" unicode="&#xb3;" 
d="M189 247q68 0 103.5 41t35.5 91q0 91 -134 91h-31l3 18h33q77 0 122.5 36.5t45.5 92.5q0 73 -87 73q-64 0 -120 -48l-10 12q64 54 133 54q50 0 77 -25t27 -66q0 -53 -37.5 -90t-87.5 -47q40 -9 63 -34.5t23 -64.5q0 -63 -44.5 -107.5t-118.5 -44.5q-83 0 -126 62l17 13
q19 -26 50 -41.5t63 -15.5z" />
    <glyph glyph-name="acute" unicode="&#xb4;" horiz-adv-x="400" 
d="M354 724l14 -13l-173 -141l-12 12z" />
    <glyph glyph-name="mu" unicode="&#xb5;" horiz-adv-x="564" 
d="M229 -12q-110 0 -167 77l-54 -277h-20l142 730h20l-83 -430q25 -38 69 -60t97 -22q113 0 198 82l83 430h20l-100 -518h-20l12 65q-87 -77 -197 -77z" />
    <glyph glyph-name="paragraph" unicode="&#xb6;" horiz-adv-x="540" 
d="M60 524q0 90 65.5 133t168.5 43h156v-831h-20v813h-66v-813h-20v477h-50q-102 0 -168 44t-66 134z" />
    <glyph glyph-name="periodcentered" unicode="&#xb7;" horiz-adv-x="280" 
d="M122 295q0 12 9.5 21t21.5 9q21 0 21 -21q0 -13 -9.5 -22t-21.5 -9q-21 0 -21 22z" />
    <glyph glyph-name="cedilla" unicode="&#xb8;" horiz-adv-x="400" 
d="M84 -238q-44 0 -74 28l14 14q24 -24 63 -24q44 0 67 21.5t23 52.5q0 56 -93 63l-2 4l57 79h20l-48 -69q86 -13 86 -74q0 -40 -30.5 -67.5t-82.5 -27.5z" />
    <glyph glyph-name="onesuperior" unicode="&#xb9;" 
d="M285 678l-112 -75l-8 16l125 82h20l-90 -464h-20z" />
    <glyph glyph-name="ordmasculine" unicode="&#xba;" horiz-adv-x="410" 
d="M88 517q16 82 73.5 136.5t130.5 54.5q62 0 98 -40t36 -105q0 -97 -62.5 -167t-145.5 -70q-62 0 -98.5 40t-36.5 105q0 19 5 46zM108 517q-5 -27 -5 -45q0 -60 32.5 -94t85.5 -34q71 0 128 61t57 157q0 60 -32 94t-85 34q-63 0 -114.5 -47t-66.5 -126z" />
    <glyph glyph-name="guillemotright" unicode="&#xbb;" horiz-adv-x="487" 
d="M448 317l-2 -10l-237 -159l-8 15l223 149l-165 149l14 15zM278 317l-2 -10l-237 -159l-8 15l223 149l-165 149l14 15z" />
    <glyph glyph-name="onequarter" unicode="&#xbc;" horiz-adv-x="950" 
d="M285 678l-112 -75l-8 16l125 82h20l-90 -464h-20zM788 109h-240l3 18l304 336h21l-65 -336h56l-3 -18h-56l-21 -109h-20zM850 432l-276 -305h217zM229 -12l-14 11l541 716l14 -11z" />
    <glyph glyph-name="onehalf" unicode="&#xbd;" horiz-adv-x="950" 
d="M285 678l-112 -75l-8 16l125 82h20l-90 -464h-20zM830 0h-264l3 20q128 92 227 195q80 83 80 158q0 39 -25 59.5t-67 20.5q-75 0 -137 -54l-12 11q70 61 151 61q52 0 81 -26t29 -70q0 -80 -87 -172q-96 -101 -212 -183h236zM229 -12l-14 11l541 716l14 -11z" />
    <glyph glyph-name="threequarters" unicode="&#xbe;" horiz-adv-x="950" 
d="M200 247q68 0 103.5 41t35.5 91q0 91 -134 91h-31l3 18h33q77 0 122.5 36.5t45.5 92.5q0 73 -87 73q-64 0 -120 -48l-10 12q64 54 133 54q50 0 77 -25t27 -66q0 -53 -37.5 -90t-87.5 -47q40 -9 63 -34.5t23 -64.5q0 -63 -44.5 -107.5t-118.5 -44.5q-83 0 -126 62l17 13
q19 -26 50 -41.5t63 -15.5zM788 109h-240l3 18l304 336h21l-65 -336h56l-3 -18h-56l-21 -109h-20zM850 432l-276 -305h217zM229 -12l-14 11l541 716l14 -11z" />
    <glyph glyph-name="questiondown" unicode="&#xbf;" horiz-adv-x="492" 
d="M156 -193q-72 0 -110 34t-38 90q0 121 161 222q57 37 81.5 75t36.5 101l4 21h20l-5 -25q-14 -69 -42 -110.5t-86 -77.5q-149 -92 -149 -204q0 -50 35.5 -79t101.5 -29q101 0 194 93l13 -13q-101 -98 -217 -98zM305 501q0 12 9.5 21t21.5 9q21 0 21 -21q0 -13 -9.5 -22
t-21.5 -9q-21 0 -21 22z" />
    <glyph glyph-name="Agrave" unicode="&#xc0;" horiz-adv-x="648" 
d="M399 700h22l147 -700h-22l-44 211h-374l-126 -211h-22zM405 678l-267 -449h360zM324 905l19 13l116 -142l-17 -12z" />
    <glyph glyph-name="Aacute" unicode="&#xc1;" horiz-adv-x="648" 
d="M399 700h22l147 -700h-22l-44 211h-374l-126 -211h-22zM405 678l-267 -449h360zM561 918l13 -13l-172 -141l-13 12z" />
    <glyph glyph-name="Acircumflex" unicode="&#xc2;" horiz-adv-x="648" 
d="M399 700h22l147 -700h-22l-44 211h-374l-126 -211h-22zM405 678l-267 -449h360zM446 924h14l115 -162l-17 -12l-108 156l-170 -156l-11 12z" />
    <glyph glyph-name="Atilde" unicode="&#xc3;" horiz-adv-x="648" 
d="M399 700h22l147 -700h-22l-44 211h-374l-126 -211h-22zM405 678l-267 -449h360zM431 834q-29 34 -61 34q-44 0 -73 -59l-18 4q37 73 95 73q40 0 73 -39q27 -31 57 -31q43 0 74 59l18 -4q-38 -73 -95 -73q-37 0 -70 36z" />
    <glyph glyph-name="Adieresis" unicode="&#xc4;" horiz-adv-x="648" 
d="M399 700h22l147 -700h-22l-44 211h-374l-126 -211h-22zM405 678l-267 -449h360zM328 838q0 10 8 18.5t19 8.5q18 0 18 -18q0 -10 -8.5 -18t-18.5 -8q-18 0 -18 17zM502 838q0 10 8 18.5t19 8.5q18 0 18 -18q0 -10 -8.5 -18t-18.5 -8q-18 0 -18 17z" />
    <glyph glyph-name="Aring" unicode="&#xc5;" horiz-adv-x="648" 
d="M399 700h22l147 -700h-22l-44 211h-374l-126 -211h-22zM405 678l-267 -449h360zM352 843q7 35 36.5 59t64.5 24q31 0 50.5 -19t19.5 -48q0 -40 -31 -69.5t-71 -29.5q-31 0 -51 19t-20 48q0 4 2 16zM372 843q-1 -4 -1 -12q0 -23 15 -38t39 -15q30 0 54 23.5t24 54.5
q0 23 -14.5 37.5t-38.5 14.5q-27 0 -50 -19t-28 -46z" />
    <glyph glyph-name="AE" unicode="&#xc6;" horiz-adv-x="854" 
d="M518 700h363l-4 -18h-332l-60 -311h297l-4 -18h-297l-65 -335h341l-3 -18h-361l40 210h-268l-160 -210h-25zM437 228l87 451l-345 -451h258z" />
    <glyph glyph-name="Ccedilla" unicode="&#xc7;" horiz-adv-x="672" 
d="M73 350q30 157 135.5 259.5t238.5 102.5q175 0 240 -140l-19 -11q-64 133 -225 133q-142 0 -250.5 -127t-108.5 -306q0 -115 61 -185t165 -70q162 0 276 133l14 -11q-109 -128 -267 -139l-38 -58q85 -13 85 -74q0 -37 -30 -66t-83 -29q-44 0 -74 28l14 14q24 -24 63 -24
q45 0 67.5 23t22.5 51q0 56 -95 63l48 71h-7q-111 0 -176.5 74t-65.5 196q0 44 9 92z" />
    <glyph glyph-name="Egrave" unicode="&#xc8;" horiz-adv-x="554" 
d="M40 0l136 700h405l-4 -18h-385l-60 -311h350l-4 -18h-350l-65 -335h394l-3 -18h-414zM321 905l19 13l116 -142l-17 -12z" />
    <glyph glyph-name="Eacute" unicode="&#xc9;" horiz-adv-x="554" 
d="M40 0l136 700h405l-4 -18h-385l-60 -311h350l-4 -18h-350l-65 -335h394l-3 -18h-414zM512 918l13 -13l-172 -141l-13 12z" />
    <glyph glyph-name="Ecircumflex" unicode="&#xca;" horiz-adv-x="554" 
d="M40 0l136 700h405l-4 -18h-385l-60 -311h350l-4 -18h-350l-65 -335h394l-3 -18h-414zM418 924h14l115 -162l-17 -12l-108 156l-170 -156l-11 12z" />
    <glyph glyph-name="Edieresis" unicode="&#xcb;" horiz-adv-x="554" 
d="M40 0l136 700h405l-4 -18h-385l-60 -311h350l-4 -18h-350l-65 -335h394l-3 -18h-414zM299 838q0 10 8.5 18.5t18.5 8.5q18 0 18 -18q0 -10 -8.5 -18t-18.5 -8q-18 0 -18 17zM473 838q0 10 8.5 18.5t18.5 8.5q18 0 18 -18q0 -10 -8.5 -18t-18.5 -8q-18 0 -18 17z" />
    <glyph glyph-name="Igrave" unicode="&#xcc;" horiz-adv-x="210" 
d="M181 700h20l-136 -700h-20zM79 905l19 13l116 -142l-17 -12z" />
    <glyph glyph-name="Iacute" unicode="&#xcd;" horiz-adv-x="210" 
d="M181 700h20l-136 -700h-20zM368 918l13 -13l-172 -141l-13 12z" />
    <glyph glyph-name="Icircumflex" unicode="&#xce;" horiz-adv-x="210" 
d="M181 700h20l-136 -700h-20zM227 924h14l115 -162l-17 -12l-108 156l-170 -156l-11 12z" />
    <glyph glyph-name="Idieresis" unicode="&#xcf;" horiz-adv-x="210" 
d="M181 700h20l-136 -700h-20zM109 838q0 10 8.5 18.5t18.5 8.5q18 0 18 -18q0 -10 -8.5 -18t-18.5 -8q-18 0 -18 17zM283 838q0 10 8.5 18.5t18.5 8.5q18 0 18 -18q0 -10 -8.5 -18t-18.5 -8q-18 0 -18 17z" />
    <glyph glyph-name="Eth" unicode="&#xd0;" horiz-adv-x="674" 
d="M259 0h-199l66 341h-90l3 18h90l67 341h199q118 0 184.5 -69.5t66.5 -188.5q0 -191 -114.5 -316.5t-272.5 -125.5zM83 18h176q150 0 258.5 119t108.5 301q0 113 -63 178.5t-175 65.5h-176l-63 -323h194l-3 -18h-194z" />
    <glyph glyph-name="Ntilde" unicode="&#xd1;" horiz-adv-x="678" 
d="M40 0l136 700h20l328 -667l130 667h20l-136 -700h-20l-329 666l-129 -666h-20zM446 834q-29 34 -61 34q-43 0 -73 -59l-18 4q18 36 43.5 54.5t51.5 18.5q40 0 73 -39q27 -31 57 -31q43 0 74 59l18 -4q-38 -73 -95 -73q-37 0 -70 36z" />
    <glyph glyph-name="Ograve" unicode="&#xd2;" horiz-adv-x="696" 
d="M659 350q-31 -158 -130.5 -260t-233.5 -102q-111 0 -172 71.5t-61 189.5q0 190 110 326.5t264 136.5q111 0 172 -72t61 -191q0 -50 -10 -99zM93 350q-10 -49 -10 -98q0 -112 56.5 -179t159.5 -67q144 0 247 130t103 311q0 112 -56.5 179.5t-160.5 67.5
q-125 0 -217.5 -96.5t-121.5 -247.5zM376 905l19 13l116 -142l-17 -12z" />
    <glyph glyph-name="Oacute" unicode="&#xd3;" horiz-adv-x="696" 
d="M659 350q-31 -158 -130.5 -260t-233.5 -102q-111 0 -172 71.5t-61 189.5q0 190 110 326.5t264 136.5q111 0 172 -72t61 -191q0 -50 -10 -99zM93 350q-10 -49 -10 -98q0 -112 56.5 -179t159.5 -67q144 0 247 130t103 311q0 112 -56.5 179.5t-160.5 67.5
q-125 0 -217.5 -96.5t-121.5 -247.5zM557 918l13 -13l-172 -141l-13 12z" />
    <glyph glyph-name="Ocircumflex" unicode="&#xd4;" horiz-adv-x="696" 
d="M659 350q-31 -158 -130.5 -260t-233.5 -102q-111 0 -172 71.5t-61 189.5q0 190 110 326.5t264 136.5q111 0 172 -72t61 -191q0 -50 -10 -99zM93 350q-10 -49 -10 -98q0 -112 56.5 -179t159.5 -67q144 0 247 130t103 311q0 112 -56.5 179.5t-160.5 67.5
q-125 0 -217.5 -96.5t-121.5 -247.5zM470 924h14l115 -162l-17 -12l-108 156l-170 -156l-11 12z" />
    <glyph glyph-name="Otilde" unicode="&#xd5;" horiz-adv-x="696" 
d="M659 350q-31 -158 -130.5 -260t-233.5 -102q-111 0 -172 71.5t-61 189.5q0 190 110 326.5t264 136.5q111 0 172 -72t61 -191q0 -50 -10 -99zM93 350q-10 -49 -10 -98q0 -112 56.5 -179t159.5 -67q144 0 247 130t103 311q0 112 -56.5 179.5t-160.5 67.5
q-125 0 -217.5 -96.5t-121.5 -247.5zM455 834q-29 34 -61 34q-44 0 -73 -59l-18 4q37 73 95 73q40 0 73 -39q27 -31 57 -31q43 0 74 59l18 -4q-38 -73 -95 -73q-37 0 -70 36z" />
    <glyph glyph-name="Odieresis" unicode="&#xd6;" horiz-adv-x="696" 
d="M659 350q-31 -158 -130.5 -260t-233.5 -102q-111 0 -172 71.5t-61 189.5q0 190 110 326.5t264 136.5q111 0 172 -72t61 -191q0 -50 -10 -99zM93 350q-10 -49 -10 -98q0 -112 56.5 -179t159.5 -67q144 0 247 130t103 311q0 112 -56.5 179.5t-160.5 67.5
q-125 0 -217.5 -96.5t-121.5 -247.5zM352 838q0 10 8 18.5t19 8.5q18 0 18 -18q0 -10 -8.5 -18t-18.5 -8q-18 0 -18 17zM526 838q0 10 8 18.5t19 8.5q18 0 18 -18q0 -10 -8.5 -18t-18.5 -8q-18 0 -18 17z" />
    <glyph glyph-name="multiply" unicode="&#xd7;" horiz-adv-x="618" 
d="M333 333l175 -172l-14 -14l-175 172l-175 -172l-14 14l175 172l-175 173l14 14l175 -173l175 173l14 -14z" />
    <glyph glyph-name="Oslash" unicode="&#xd8;" horiz-adv-x="696" 
d="M15 -26l94 104q-47 67 -47 171q0 190 110 326.5t264 136.5q112 0 175 -76l91 101l15 -10l-96 -105q48 -69 48 -174q0 -189 -110.5 -324.5t-263.5 -135.5q-111 0 -175 75l-89 -99zM93 350q-11 -55 -11 -98q0 -96 42 -158l473 527q-57 73 -165 73q-125 0 -217.5 -96.5
t-121.5 -247.5zM639 350q9 49 9 95q0 97 -41 161l-473 -527q59 -73 165 -73q126 0 218 96.5t122 247.5z" />
    <glyph glyph-name="Ugrave" unicode="&#xd9;" horiz-adv-x="696" 
d="M295 -12q-97 0 -154.5 50.5t-57.5 150.5q0 40 8 77l85 434h20l-84 -431q-8 -37 -8 -76q0 -93 53 -140t142 -47q106 0 184.5 66t104.5 197l84 431h20l-85 -434q-27 -138 -112.5 -208t-199.5 -70zM326 905l19 13l116 -142l-17 -12z" />
    <glyph glyph-name="Uacute" unicode="&#xda;" horiz-adv-x="696" 
d="M295 -12q-97 0 -154.5 50.5t-57.5 150.5q0 40 8 77l85 434h20l-84 -431q-8 -37 -8 -76q0 -93 53 -140t142 -47q106 0 184.5 66t104.5 197l84 431h20l-85 -434q-27 -138 -112.5 -208t-199.5 -70zM607 918l13 -13l-172 -141l-13 12z" />
    <glyph glyph-name="Ucircumflex" unicode="&#xdb;" horiz-adv-x="696" 
d="M295 -11q-97 0 -154.5 50.5t-57.5 150.5q0 40 8 77l85 434h20l-84 -431q-8 -37 -8 -76q0 -93 53 -140t142 -47q106 0 184.5 66t104.5 197l84 431h20l-85 -434q-27 -138 -112.5 -208t-199.5 -70zM470 924h14l115 -162l-17 -12l-108 156l-170 -156l-11 12z" />
    <glyph glyph-name="Udieresis" unicode="&#xdc;" horiz-adv-x="696" 
d="M295 -12q-97 0 -154.5 50.5t-57.5 150.5q0 40 8 77l85 434h20l-84 -431q-8 -37 -8 -76q0 -93 53 -140t142 -47q106 0 184.5 66t104.5 197l84 431h20l-85 -434q-27 -138 -112.5 -208t-199.5 -70zM352 838q0 10 8 18.5t19 8.5q18 0 18 -18q0 -10 -8.5 -18t-18.5 -8
q-18 0 -18 17zM526 838q0 10 8 18.5t19 8.5q18 0 18 -18q0 -10 -8.5 -18t-18.5 -8q-18 0 -18 17z" />
    <glyph glyph-name="Yacute" unicode="&#xdd;" horiz-adv-x="560" 
d="M621 700l-327 -421l-54 -279h-20l54 279l-163 421h24l153 -401l309 401h24zM527 918l13 -13l-172 -141l-13 12z" />
    <glyph glyph-name="Thorn" unicode="&#xde;" horiz-adv-x="564" 
d="M169 562h159q105 0 160 -41t55 -118q0 -119 -81 -186t-214 -67h-159l-29 -150h-20l136 700h20zM318 544h-153l-73 -376h153q124 0 200.5 60t76.5 171q0 71 -52.5 108t-151.5 37z" />
    <glyph glyph-name="germandbls" unicode="&#xdf;" horiz-adv-x="552" 
d="M143 22l13 17q20 -15 53 -24t56 -9q98 0 156.5 62t58.5 149q0 74 -57 113.5t-158 39.5l4 18q106 0 165 54t59 134q0 56 -37 87t-100 31q-171 0 -213 -215l-93 -479h-20l92 478q45 234 240 234q67 0 109 -35.5t42 -97.5q0 -85 -50 -134.5t-124 -65.5q72 -9 116.5 -49.5
t44.5 -109.5q0 -99 -66.5 -165.5t-171.5 -66.5q-27 0 -63.5 10t-55.5 24z" />
    <glyph glyph-name="agrave" unicode="&#xe0;" horiz-adv-x="559" 
d="M489 416l-61 -314q-43 -40 -100 -68t-108 -28q-160 0 -160 165q0 41 10 88q50 253 248 253q51 0 97.5 -28t73.5 -68zM424 78l-15 -78h20l100 518h-20l-15 -78q-73 90 -179 90q-101 0 -170 -69t-95 -202q-10 -49 -10 -91q0 -89 43.5 -134.5t125.5 -45.5q108 0 215 90z
M283 731l18 13l117 -142l-18 -12z" />
    <glyph glyph-name="aacute" unicode="&#xe1;" horiz-adv-x="559" 
d="M428 102l61 314q-27 40 -73.5 68t-97.5 28q-198 0 -248 -253q-10 -47 -10 -88q0 -165 160 -165q51 0 108 28t100 68zM409 0l15 78q-107 -90 -215 -90q-82 0 -125.5 45.5t-43.5 134.5q0 42 10 91q26 133 95 202t170 69q106 0 179 -90l15 78h20l-100 -518h-20zM465 744
l14 -13l-173 -141l-12 12z" />
    <glyph glyph-name="acircumflex" unicode="&#xe2;" horiz-adv-x="559" 
d="M428 102l61 314q-27 40 -73.5 68t-97.5 28q-198 0 -248 -253q-10 -47 -10 -88q0 -165 160 -165q51 0 108 28t100 68zM409 0l15 78q-107 -90 -215 -90q-82 0 -125.5 45.5t-43.5 134.5q0 42 10 91q26 133 95 202t170 69q106 0 179 -90l15 78h20l-100 -518h-20zM372 750h14
l115 -162l-17 -12l-108 156l-170 -156l-11 12z" />
    <glyph glyph-name="atilde" unicode="&#xe3;" horiz-adv-x="559" 
d="M489 416l-61 -314q-43 -40 -100 -68t-108 -28q-160 0 -160 165q0 41 10 88q50 253 248 253q51 0 97.5 -28t73.5 -68zM424 78l-15 -78h20l100 518h-20l-15 -78q-73 90 -179 90q-101 0 -170 -69t-95 -202q-10 -49 -10 -91q0 -89 43.5 -134.5t125.5 -45.5q108 0 215 90z
M357 660q-29 34 -61 34q-44 0 -73 -59l-18 4q37 73 95 73q40 0 73 -39q27 -31 57 -31q43 0 74 59l18 -4q-38 -73 -95 -73q-37 0 -70 36z" />
    <glyph glyph-name="adieresis" unicode="&#xe4;" horiz-adv-x="559" 
d="M489 416l-61 -314q-43 -40 -100 -68t-108 -28q-160 0 -160 165q0 41 10 88q50 253 248 253q51 0 97.5 -28t73.5 -68zM424 78l-15 -78h20l100 518h-20l-15 -78q-73 90 -179 90q-101 0 -170 -69t-95 -202q-10 -49 -10 -91q0 -89 43.5 -134.5t125.5 -45.5q108 0 215 90z
M254 664q0 10 8 18.5t19 8.5q18 0 18 -18q0 -10 -8.5 -18t-18.5 -8q-18 0 -18 17zM428 664q0 10 8 18.5t19 8.5q18 0 18 -18q0 -10 -8.5 -18t-18.5 -8q-18 0 -18 17z" />
    <glyph glyph-name="aring" unicode="&#xe5;" horiz-adv-x="559" 
d="M489 416l-61 -314q-43 -40 -100 -68t-108 -28q-160 0 -160 165q0 41 10 88q50 253 248 253q51 0 97.5 -28t73.5 -68zM424 78l-15 -78h20l100 518h-20l-15 -78q-73 90 -179 90q-101 0 -170 -69t-95 -202q-10 -49 -10 -91q0 -89 43.5 -134.5t125.5 -45.5q108 0 215 90z
M279 669q7 35 36.5 59t64.5 24q31 0 50.5 -19t19.5 -48q0 -40 -32 -69.5t-71 -29.5q-31 0 -50.5 18.5t-19.5 47.5q0 5 2 17zM299 669q-1 -4 -1 -13q0 -23 14.5 -37.5t38.5 -14.5q30 0 54.5 23.5t24.5 53.5q0 23 -15 38t-39 15q-27 0 -49.5 -19t-27.5 -46z" />
    <glyph glyph-name="ae" unicode="&#xe6;" horiz-adv-x="925" 
d="M436 124q-9 32 -9 69q0 16 1 25q-72 78 -184 78q-83 0 -140.5 -48.5t-57.5 -126.5q0 -53 38.5 -84t103.5 -31q73 0 137.5 31.5t110.5 86.5zM745 530q74 0 120 -33t46 -91q0 -79 -66 -128.5t-165 -49.5q-134 0 -219 62q-13 -42 -13 -93q0 -83 45.5 -137t134.5 -54
q117 0 196 85l14 -11q-86 -92 -214 -92q-140 0 -182 116q-107 -116 -256 -116q-73 0 -117 35t-44 94q0 87 66 142t158 55q117 0 182 -72l20 101q6 30 6 53q0 116 -140 116q-95 0 -184 -62l-11 14q96 66 199 66q157 0 157 -128q0 -10 -2 -30q42 73 112.5 115.5t156.5 42.5z
M683 246q94 0 150.5 45.5t56.5 111.5q0 50 -40.5 79.5t-110.5 29.5q-94 0 -167.5 -56.5t-105.5 -149.5q88 -60 217 -60z" />
    <glyph glyph-name="ccedilla" unicode="&#xe7;" horiz-adv-x="535" 
d="M50 259q24 123 107.5 197t183.5 74q133 0 181 -104l-18 -10q-46 96 -167 96q-106 0 -190 -91t-84 -231q0 -85 50 -134.5t126 -49.5q120 0 204 96l14 -10q-83 -97 -207 -103l-37 -58q85 -13 85 -74q0 -37 -30 -66t-83 -29q-44 0 -74 28l14 14q24 -24 63 -24q45 0 67.5 23
t22.5 51q0 56 -95 63l47 71q-84 2 -135.5 56t-51.5 147q0 34 7 68z" />
    <glyph glyph-name="egrave" unicode="&#xe8;" horiz-adv-x="541" 
d="M296 228q-134 0 -219 62q-13 -42 -13 -93q0 -83 45.5 -137t134.5 -54q117 0 196 85l14 -11q-86 -92 -214 -92q-97 0 -147 57t-50 147q0 142 93 240t225 98q74 0 120 -33t46 -91q0 -79 -66 -128.5t-165 -49.5zM355 512q-94 0 -167.5 -56.5t-105.5 -149.5q88 -60 217 -60
q94 0 150.5 45.5t56.5 111.5q0 50 -40.5 79.5t-110.5 29.5zM274 731l18 13l117 -142l-18 -12z" />
    <glyph glyph-name="eacute" unicode="&#xe9;" horiz-adv-x="541" 
d="M296 228q-134 0 -219 62q-13 -42 -13 -93q0 -83 45.5 -137t134.5 -54q117 0 196 85l14 -11q-86 -92 -214 -92q-97 0 -147 57t-50 147q0 142 93 240t225 98q74 0 120 -33t46 -91q0 -79 -66 -128.5t-165 -49.5zM355 512q-94 0 -167.5 -56.5t-105.5 -149.5q88 -60 217 -60
q94 0 150.5 45.5t56.5 111.5q0 50 -40.5 79.5t-110.5 29.5zM474 744l14 -13l-173 -141l-12 12z" />
    <glyph glyph-name="ecircumflex" unicode="&#xea;" horiz-adv-x="541" 
d="M296 228q-134 0 -219 62q-13 -42 -13 -93q0 -83 45.5 -137t134.5 -54q117 0 196 85l14 -11q-86 -92 -214 -92q-97 0 -147 57t-50 147q0 142 93 240t225 98q74 0 120 -33t46 -91q0 -79 -66 -128.5t-165 -49.5zM355 512q-94 0 -167.5 -56.5t-105.5 -149.5q88 -60 217 -60
q94 0 150.5 45.5t56.5 111.5q0 50 -40.5 79.5t-110.5 29.5zM380 750h14l115 -162l-17 -12l-108 156l-170 -156l-11 12z" />
    <glyph glyph-name="edieresis" unicode="&#xeb;" horiz-adv-x="541" 
d="M296 228q-134 0 -219 62q-13 -42 -13 -93q0 -83 45.5 -137t134.5 -54q117 0 196 85l14 -11q-86 -92 -214 -92q-97 0 -147 57t-50 147q0 142 93 240t225 98q74 0 120 -33t46 -91q0 -79 -66 -128.5t-165 -49.5zM355 512q-94 0 -167.5 -56.5t-105.5 -149.5q88 -60 217 -60
q94 0 150.5 45.5t56.5 111.5q0 50 -40.5 79.5t-110.5 29.5zM262 664q0 10 8 18.5t19 8.5q18 0 18 -18q0 -10 -8.5 -18t-18.5 -8q-18 0 -18 17zM436 664q0 10 8 18.5t19 8.5q18 0 18 -18q0 -10 -8.5 -18t-18.5 -8q-18 0 -18 17z" />
    <glyph glyph-name="igrave" unicode="&#xec;" horiz-adv-x="200" 
d="M40 0l100 518h20l-100 -518h-20zM43 731l18 13l117 -142l-18 -12z" />
    <glyph glyph-name="iacute" unicode="&#xed;" horiz-adv-x="200" 
d="M40 0l100 518h20l-100 -518h-20zM327 744l14 -13l-173 -141l-12 12z" />
    <glyph glyph-name="icircumflex" unicode="&#xee;" horiz-adv-x="200" 
d="M40 0l100 518h20l-100 -518h-20zM188 750h14l115 -162l-17 -12l-108 156l-170 -156l-11 12z" />
    <glyph glyph-name="idieresis" unicode="&#xef;" horiz-adv-x="200" 
d="M40 0l100 518h20l-100 -518h-20zM70 664q0 10 8 18.5t19 8.5q18 0 18 -18q0 -10 -8.5 -18t-18.5 -8q-18 0 -18 17zM244 664q0 10 8 18.5t19 8.5q18 0 18 -18q0 -10 -8.5 -18t-18.5 -8q-18 0 -18 17z" />
    <glyph glyph-name="eth" unicode="&#xf0;" horiz-adv-x="555" 
d="M235 577l175 50q-55 58 -145 83l5 20q103 -27 164 -96l169 49l3 -18l-160 -46q57 -77 57 -191q0 -47 -11 -104q-31 -161 -106 -248.5t-185 -87.5q-76 0 -119 46t-43 130q0 33 8 78q23 122 91.5 188t169.5 66q55 0 103 -29.5t70 -70.5q1 11 1 31q0 113 -59 185l-186 -53z
M473 325l2.5 12.5t2.5 13.5t1 12q-27 54 -75 84.5t-100 30.5q-90 0 -152.5 -60t-84.5 -176q-8 -42 -8 -73q0 -76 37.5 -119.5t108.5 -43.5q100 0 169 82.5t99 236.5z" />
    <glyph glyph-name="ntilde" unicode="&#xf1;" horiz-adv-x="559" 
d="M355 512q-55 0 -115.5 -29.5t-111.5 -78.5l-78 -404h-20l100 518h20l-17 -89q48 43 109 72t118 29q146 0 146 -129q0 -28 -6 -61l-66 -340h-20l64 333q7 34 7 65q0 59 -31.5 86.5t-98.5 27.5zM354 660q-29 34 -61 34q-43 0 -73 -59l-18 4q18 36 43.5 54.5t51.5 18.5
q40 0 73 -39q27 -31 57 -31q43 0 74 59l18 -4q-38 -73 -95 -73q-37 0 -70 36z" />
    <glyph glyph-name="ograve" unicode="&#xf2;" horiz-adv-x="566" 
d="M516 259q7 34 7 68q0 91 -50.5 147t-136.5 56q-116 0 -204.5 -99t-88.5 -240q0 -92 50.5 -147.5t136.5 -55.5q102 0 182.5 76t103.5 195zM496 259q-22 -113 -96 -183t-166 -70q-77 0 -124 51t-47 136q0 136 82 227.5t187 91.5q77 0 123.5 -51t46.5 -138q0 -29 -6 -64z
M269 731l18 13l117 -142l-18 -12z" />
    <glyph glyph-name="oacute" unicode="&#xf3;" horiz-adv-x="566" 
d="M516 259q-23 -119 -103.5 -195t-182.5 -76q-86 0 -136.5 55.5t-50.5 147.5q0 141 88.5 240t204.5 99q86 0 136.5 -56t50.5 -147q0 -34 -7 -68zM496 259q6 35 6 64q0 87 -46.5 138t-123.5 51q-105 0 -187 -91.5t-82 -227.5q0 -85 47 -136t124 -51q92 0 166 70t96 183z
M467 744l14 -13l-173 -141l-12 12z" />
    <glyph glyph-name="ocircumflex" unicode="&#xf4;" horiz-adv-x="566" 
d="M516 259q-23 -119 -103.5 -195t-182.5 -76q-86 0 -136.5 55.5t-50.5 147.5q0 141 88.5 240t204.5 99q86 0 136.5 -56t50.5 -147q0 -34 -7 -68zM496 259q6 35 6 64q0 87 -46.5 138t-123.5 51q-105 0 -187 -91.5t-82 -227.5q0 -85 47 -136t124 -51q92 0 166 70t96 183z
M371 750h14l115 -162l-17 -12l-108 156l-170 -156l-11 12z" />
    <glyph glyph-name="otilde" unicode="&#xf5;" horiz-adv-x="566" 
d="M516 259q7 34 7 68q0 91 -50.5 147t-136.5 56q-116 0 -204.5 -99t-88.5 -240q0 -92 50.5 -147.5t136.5 -55.5q102 0 182.5 76t103.5 195zM496 259q-22 -113 -96 -183t-166 -70q-77 0 -124 51t-47 136q0 136 82 227.5t187 91.5q77 0 123.5 -51t46.5 -138q0 -29 -6 -64z
M356 660q-29 34 -61 34q-43 0 -73 -59l-18 4q18 36 43.5 54.5t51.5 18.5q40 0 73 -39q27 -31 57 -31q43 0 74 59l18 -4q-38 -73 -95 -73q-37 0 -70 36z" />
    <glyph glyph-name="odieresis" unicode="&#xf6;" horiz-adv-x="566" 
d="M516 259q7 34 7 68q0 91 -50.5 147t-136.5 56q-116 0 -204.5 -99t-88.5 -240q0 -92 50.5 -147.5t136.5 -55.5q102 0 182.5 76t103.5 195zM496 259q-22 -113 -96 -183t-166 -70q-77 0 -124 51t-47 136q0 136 82 227.5t187 91.5q77 0 123.5 -51t46.5 -138q0 -29 -6 -64z
M253 664q0 10 8.5 18.5t18.5 8.5q18 0 18 -18q0 -10 -8.5 -18t-18.5 -8q-18 0 -18 17zM427 664q0 10 8.5 18.5t18.5 8.5q18 0 18 -18q0 -10 -8.5 -18t-18.5 -8q-18 0 -18 17z" />
    <glyph glyph-name="divide" unicode="&#xf7;" horiz-adv-x="618" 
d="M293 534q0 10 7.5 18t18.5 8t18.5 -8t7.5 -18t-7.5 -18t-18.5 -8t-18.5 8t-7.5 18zM558 341h-478v-18h478v18zM293 130q0 -10 7.5 -18t18.5 -8t18.5 8t7.5 18t-7.5 18t-18.5 8t-18.5 -8t-7.5 -18z" />
    <glyph glyph-name="oslash" unicode="&#xf8;" horiz-adv-x="566" 
d="M468 477l75 83l12 -10l-76 -84q44 -57 44 -140q0 -140 -88.5 -239t-204.5 -99q-84 0 -134 52l-74 -82l-12 10l76 84q-43 54 -43 138q0 141 88.5 240.5t204.5 99.5q82 0 132 -53zM496 259q6 33 6 63q0 77 -37 128l-355 -394q47 -50 124 -50q92 0 166 70t96 183zM332 512
q-105 0 -187 -92t-82 -228q0 -75 37 -124l354 394q-45 50 -122 50z" />
    <glyph glyph-name="ugrave" unicode="&#xf9;" horiz-adv-x="554" 
d="M224 -12q94 0 159.5 58.5t86.5 166.5l59 305h-20l-59 -303q-19 -101 -77 -155t-145 -54q-72 0 -110.5 37.5t-38.5 108.5q0 23 7 63l59 303h-20l-59 -305q-7 -34 -7 -66q0 -77 43 -118t122 -41zM244 731l18 13l117 -142l-18 -12z" />
    <glyph glyph-name="uacute" unicode="&#xfa;" horiz-adv-x="554" 
d="M224 -12q-79 0 -122 41t-43 118q0 32 7 66l59 305h20l-59 -303q-7 -40 -7 -63q0 -71 38.5 -108.5t110.5 -37.5q87 0 145 54t77 155l59 303h20l-59 -305q-21 -108 -86.5 -166.5t-159.5 -58.5zM480 744l14 -13l-173 -141l-12 12z" />
    <glyph glyph-name="ucircumflex" unicode="&#xfb;" horiz-adv-x="554" 
d="M224 -12q-79 0 -122 41t-43 118q0 32 7 66l59 305h20l-59 -303q-7 -40 -7 -63q0 -71 38.5 -108.5t110.5 -37.5q87 0 145 54t77 155l59 303h20l-59 -305q-21 -108 -86.5 -166.5t-159.5 -58.5zM365 750h14l115 -162l-17 -12l-108 156l-170 -156l-11 12z" />
    <glyph glyph-name="udieresis" unicode="&#xfc;" horiz-adv-x="554" 
d="M224 -12q94 0 159.5 58.5t86.5 166.5l59 305h-20l-59 -303q-19 -101 -77 -155t-145 -54q-72 0 -110.5 37.5t-38.5 108.5q0 23 7 63l59 303h-20l-59 -305q-7 -34 -7 -66q0 -77 43 -118t122 -41zM247 664q0 10 8.5 18.5t18.5 8.5q18 0 18 -18q0 -10 -8.5 -18t-18.5 -8
q-18 0 -18 17zM421 664q0 10 8.5 18.5t18.5 8.5q18 0 18 -18q0 -10 -8.5 -18t-18.5 -8q-18 0 -18 17z" />
    <glyph glyph-name="yacute" unicode="&#xfd;" horiz-adv-x="485" 
d="M203 33l285 485h22l-429 -730h-22l129 218l-113 512h22zM446 744l14 -13l-173 -141l-12 12z" />
    <glyph glyph-name="thorn" unicode="&#xfe;" horiz-adv-x="559" 
d="M131 419l-62 -320q27 -40 73.5 -66.5t98.5 -26.5q198 0 248 253q9 48 9 88q0 165 -159 165q-52 0 -108.5 -26.5t-99.5 -66.5zM191 730l-55 -287q104 87 214 87q81 0 125 -45.5t44 -134.5q0 -36 -10 -91q-26 -133 -95 -202t-170 -69q-110 0 -180 87l-56 -287h-20l183 942
h20z" />
    <glyph glyph-name="ydieresis" unicode="&#xff;" horiz-adv-x="485" 
d="M488 518l-285 -485l-106 485h-22l113 -512l-129 -218h22l429 730h-22zM212 664q0 10 8 18.5t19 8.5q18 0 18 -18q0 -10 -8.5 -18t-18.5 -8q-18 0 -18 17zM386 664q0 10 8 18.5t19 8.5q18 0 18 -18q0 -10 -8.5 -18t-18.5 -8q-18 0 -18 17z" />
    <glyph glyph-name="Amacron" unicode="&#x100;" horiz-adv-x="648" 
d="M399 700h22l147 -700h-22l-44 211h-374l-126 -211h-22zM405 678l-267 -449h360zM300 834l3 18h272l-3 -18h-272z" />
    <glyph glyph-name="amacron" unicode="&#x101;" horiz-adv-x="559" 
d="M489 416l-61 -314q-43 -40 -100 -68t-108 -28q-160 0 -160 165q0 41 10 88q50 253 248 253q51 0 97.5 -28t73.5 -68zM424 78l-15 -78h20l100 518h-20l-15 -78q-73 90 -179 90q-101 0 -170 -69t-95 -202q-10 -49 -10 -91q0 -89 43.5 -134.5t125.5 -45.5q108 0 215 90z
M226 660l3 18h272l-3 -18h-272z" />
    <glyph glyph-name="Abreve" unicode="&#x102;" horiz-adv-x="648" 
d="M399 700h22l147 -700h-22l-44 211h-374l-126 -211h-22zM405 678l-267 -449h360zM426 783q-48 0 -80.5 30.5t-37.5 84.5l20 5q2 -43 28.5 -72.5t72.5 -29.5t84.5 29.5t56.5 72.5l18 -5q-26 -54 -70 -84.5t-92 -30.5z" />
    <glyph glyph-name="abreve" unicode="&#x103;" horiz-adv-x="559" 
d="M489 416l-61 -314q-43 -40 -100 -68t-108 -28q-160 0 -160 165q0 41 10 88q50 253 248 253q51 0 97.5 -28t73.5 -68zM424 78l-15 -78h20l100 518h-20l-15 -78q-73 90 -179 90q-101 0 -170 -69t-95 -202q-10 -49 -10 -91q0 -89 43.5 -134.5t125.5 -45.5q108 0 215 90z
M352 611q-48 0 -80.5 30.5t-36.5 84.5l20 5q2 -43 28.5 -72.5t72.5 -29.5t84 29.5t57 72.5l18 -5q-26 -54 -70.5 -84.5t-92.5 -30.5z" />
    <glyph glyph-name="Aogonek" unicode="&#x104;" horiz-adv-x="633" 
d="M399 700h22l147 -700q-105 -65 -105 -142q0 -27 16 -43t45 -16q42 0 83 34l9 -14q-45 -38 -96 -38q-36 0 -57 21t-21 54q0 82 103 145l-43 210h-374l-126 -211h-22zM405 678l-267 -449h360z" />
    <glyph glyph-name="aogonek" unicode="&#x105;" horiz-adv-x="559" 
d="M409 2l15 76q-107 -90 -215 -90q-82 0 -125.5 45.5t-43.5 134.5q0 42 10 91q26 133 95 202t170 69q106 0 179 -90l15 78h20l-100 -518q-105 -65 -105 -142q0 -27 16 -43t45 -16q42 0 83 34l9 -14q-45 -38 -96 -38q-36 0 -57 21t-21 54q0 38 28 76.5t78 69.5zM428 102
l61 314q-27 40 -73.5 68t-97.5 28q-198 0 -248 -253q-10 -47 -10 -88q0 -165 160 -165q51 0 108 28t100 68z" />
    <glyph glyph-name="Cacute" unicode="&#x106;" horiz-adv-x="672" 
d="M73 350q30 157 135.5 259.5t238.5 102.5q175 0 240 -140l-19 -11q-64 133 -225 133q-142 0 -250.5 -127t-108.5 -306q0 -115 61 -185t165 -70q162 0 276 133l14 -11q-118 -140 -294 -140q-111 0 -176.5 74t-65.5 196q0 44 9 92zM588 918l13 -13l-172 -141l-13 12z" />
    <glyph glyph-name="cacute" unicode="&#x107;" horiz-adv-x="535" 
d="M466 744l14 -13l-173 -141l-12 12zM50 259q24 123 107.5 197t183.5 74q133 0 181 -104l-18 -10q-46 96 -167 96q-106 0 -190 -91t-84 -231q0 -85 50 -134.5t126 -49.5q120 0 204 96l14 -10q-88 -104 -222 -104q-85 0 -138.5 54t-53.5 149q0 34 7 68z" />
    <glyph glyph-name="Ccircumflex" unicode="&#x108;" horiz-adv-x="672" 
d="M73 350q30 157 135.5 259.5t238.5 102.5q175 0 240 -140l-19 -11q-64 133 -225 133q-142 0 -250.5 -127t-108.5 -306q0 -115 61 -185t165 -70q162 0 276 133l14 -11q-118 -140 -294 -140q-111 0 -176.5 74t-65.5 196q0 44 9 92zM496 924h14l115 -162l-17 -12l-108 156
l-170 -156l-11 12z" />
    <glyph glyph-name="ccircumflex" unicode="&#x109;" horiz-adv-x="535" 
d="M371 750h14l115 -162l-17 -12l-108 156l-170 -156l-11 12zM50 259q24 123 107.5 197t183.5 74q133 0 181 -104l-18 -10q-46 96 -167 96q-106 0 -190 -91t-84 -231q0 -85 50 -134.5t126 -49.5q120 0 204 96l14 -10q-88 -104 -222 -104q-85 0 -138.5 54t-53.5 149
q0 34 7 68z" />
    <glyph glyph-name="Cdotaccent" unicode="&#x10a;" horiz-adv-x="672" 
d="M73 350q30 157 135.5 259.5t238.5 102.5q175 0 240 -140l-19 -11q-64 133 -225 133q-142 0 -250.5 -127t-108.5 -306q0 -115 61 -185t165 -70q162 0 276 133l14 -11q-118 -140 -294 -140q-111 0 -176.5 74t-65.5 196q0 44 9 92zM454 838q0 10 8 18.5t19 8.5q18 0 18 -18
q0 -10 -8.5 -18t-18.5 -8q-18 0 -18 17z" />
    <glyph glyph-name="cdotaccent" unicode="&#x10b;" horiz-adv-x="535" 
d="M345 664q0 10 8.5 18.5t18.5 8.5q18 0 18 -18q0 -10 -8.5 -18t-18.5 -8q-18 0 -18 17zM50 259q-7 -34 -7 -68q0 -95 53.5 -149t138.5 -54q134 0 222 104l-14 10q-84 -96 -204 -96q-76 0 -126 49.5t-50 134.5q0 140 84 231t190 91q121 0 167 -96l18 10q-48 104 -181 104
q-100 0 -183.5 -74t-107.5 -197z" />
    <glyph glyph-name="Ccaron" unicode="&#x10c;" horiz-adv-x="672" 
d="M73 350q30 157 135.5 259.5t238.5 102.5q175 0 240 -140l-19 -11q-64 133 -225 133q-142 0 -250.5 -127t-108.5 -306q0 -115 61 -185t165 -70q162 0 276 133l14 -11q-118 -140 -294 -140q-111 0 -176.5 74t-65.5 196q0 44 9 92zM474 762h-14l-115 162l16 12l109 -156
l169 156l12 -12z" />
    <glyph glyph-name="ccaron" unicode="&#x10d;" horiz-adv-x="535" 
d="M364 588h-14l-115 162l17 12l108 -156l170 156l11 -12zM50 259q-7 -34 -7 -68q0 -95 53.5 -149t138.5 -54q134 0 222 104l-14 10q-84 -96 -204 -96q-76 0 -126 49.5t-50 134.5q0 140 84 231t190 91q121 0 167 -96l18 10q-48 104 -181 104q-100 0 -183.5 -74t-107.5 -197z
" />
    <glyph glyph-name="Dcaron" unicode="&#x10e;" horiz-adv-x="654" 
d="M63 18h176q150 0 258.5 119t108.5 301q0 113 -63 178.5t-175 65.5h-176zM239 0h-199l136 700h199q118 0 184.5 -69.5t66.5 -188.5q0 -191 -114.5 -316.5t-272.5 -125.5zM395 762h-14l-115 162l16 12l109 -156l169 156l12 -12z" />
    <glyph glyph-name="dcaron" unicode="&#x10f;" horiz-adv-x="622" 
d="M428 102l61 314q-27 40 -73.5 68t-97.5 28q-198 0 -248 -253q-10 -47 -10 -88q0 -165 160 -165q51 0 108 28t100 68zM409 0l15 78q-107 -90 -215 -90q-82 0 -125.5 45.5t-43.5 134.5q0 42 10 91q26 133 95 202t170 69q106 0 179 -90l56 290h20l-141 -730h-20zM706 735
l18 -5l-130 -231l-18 5z" />
    <glyph glyph-name="Dcroat" unicode="&#x110;" horiz-adv-x="674" 
d="M259 0h-199l66 341h-90l3 18h90l67 341h199q118 0 184.5 -69.5t66.5 -188.5q0 -191 -114.5 -316.5t-272.5 -125.5zM83 18h176q150 0 258.5 119t108.5 301q0 113 -63 178.5t-175 65.5h-176l-63 -323h194l-3 -18h-194z" />
    <glyph glyph-name="dcroat" unicode="&#x111;" horiz-adv-x="562" 
d="M552 636h68l-3 -18h-68l-120 -618h-20l15 78q-107 -90 -215 -90q-82 0 -125.5 45.5t-43.5 134.5q0 42 10 91q26 133 95 202t170 69q106 0 179 -90l35 178h-205l3 18h205l18 94h20zM428 102l61 314q-27 40 -73.5 68t-97.5 28q-198 0 -248 -253q-10 -47 -10 -88
q0 -165 160 -165q51 0 108 28t100 68z" />
    <glyph glyph-name="Emacron" unicode="&#x112;" horiz-adv-x="554" 
d="M40 0l136 700h405l-4 -18h-385l-60 -311h350l-4 -18h-350l-65 -335h394l-3 -18h-414zM270 834l3 18h272l-3 -18h-272z" />
    <glyph glyph-name="emacron" unicode="&#x113;" horiz-adv-x="541" 
d="M296 228q-134 0 -219 62q-13 -42 -13 -93q0 -83 45.5 -137t134.5 -54q117 0 196 85l14 -11q-86 -92 -214 -92q-97 0 -147 57t-50 147q0 142 93 240t225 98q74 0 120 -33t46 -91q0 -79 -66 -128.5t-165 -49.5zM355 512q-94 0 -167.5 -56.5t-105.5 -149.5q88 -60 217 -60
q94 0 150.5 45.5t56.5 111.5q0 50 -40.5 79.5t-110.5 29.5zM231 660l3 18h272l-3 -18h-272z" />
    <glyph glyph-name="Ebreve" unicode="&#x114;" horiz-adv-x="554" 
d="M40 0l136 700h405l-4 -18h-385l-60 -311h350l-4 -18h-350l-65 -335h394l-3 -18h-414zM393 783q-48 0 -80.5 30.5t-37.5 84.5l20 5q2 -43 28.5 -72.5t72.5 -29.5t84.5 29.5t56.5 72.5l18 -5q-26 -54 -70 -84.5t-92 -30.5z" />
    <glyph glyph-name="ebreve" unicode="&#x115;" horiz-adv-x="541" 
d="M296 228q-134 0 -219 62q-13 -42 -13 -93q0 -83 45.5 -137t134.5 -54q117 0 196 85l14 -11q-86 -92 -214 -92q-97 0 -147 57t-50 147q0 142 93 240t225 98q74 0 120 -33t46 -91q0 -79 -66 -128.5t-165 -49.5zM355 512q-94 0 -167.5 -56.5t-105.5 -149.5q88 -60 217 -60
q94 0 150.5 45.5t56.5 111.5q0 50 -40.5 79.5t-110.5 29.5zM353 611q-48 0 -80.5 30.5t-36.5 84.5l20 5q2 -43 28.5 -72.5t72.5 -29.5t84 29.5t57 72.5l18 -5q-26 -54 -70.5 -84.5t-92.5 -30.5z" />
    <glyph glyph-name="Edotaccent" unicode="&#x116;" horiz-adv-x="554" 
d="M40 0l136 700h405l-4 -18h-385l-60 -311h350l-4 -18h-350l-65 -335h394l-3 -18h-414zM389 838q0 10 8.5 18.5t18.5 8.5q18 0 18 -18q0 -10 -8.5 -18t-18.5 -8q-18 0 -18 17z" />
    <glyph glyph-name="edotaccent" unicode="&#x117;" horiz-adv-x="541" 
d="M296 228q-134 0 -219 62q-13 -42 -13 -93q0 -83 45.5 -137t134.5 -54q117 0 196 85l14 -11q-86 -92 -214 -92q-97 0 -147 57t-50 147q0 142 93 240t225 98q74 0 120 -33t46 -91q0 -79 -66 -128.5t-165 -49.5zM355 512q-94 0 -167.5 -56.5t-105.5 -149.5q88 -60 217 -60
q94 0 150.5 45.5t56.5 111.5q0 50 -40.5 79.5t-110.5 29.5zM345 664q0 10 8.5 18.5t18.5 8.5q18 0 18 -18q0 -10 -8.5 -18t-18.5 -8q-18 0 -18 17z" />
    <glyph glyph-name="Eogonek" unicode="&#x118;" horiz-adv-x="554" 
d="M40 0l136 700h405l-4 -18h-385l-60 -311h350l-4 -18h-350l-65 -335h394l-3 -18h-77q-105 -65 -105 -142q0 -27 16 -43t45 -16q42 0 83 34l9 -14q-45 -38 -96 -38q-36 0 -57 21t-21 54q0 38 27 76t75 68h-313z" />
    <glyph glyph-name="eogonek" unicode="&#x119;" horiz-adv-x="541" 
d="M296 228q-134 0 -219 62q-13 -42 -13 -93q0 -83 45.5 -137t134.5 -54q117 0 196 85l14 -11q-75 -79 -183 -90q-87 -62 -87 -132q0 -27 16 -43t45 -16q42 0 83 34l9 -14q-45 -38 -96 -38q-36 0 -57 21t-21 54q0 73 84 132h-7q-97 0 -147 57t-50 147q0 142 93 240t225 98
q74 0 120 -33t46 -91q0 -79 -66 -128.5t-165 -49.5zM355 512q-94 0 -167.5 -56.5t-105.5 -149.5q88 -60 217 -60q94 0 150.5 45.5t56.5 111.5q0 50 -40.5 79.5t-110.5 29.5z" />
    <glyph glyph-name="Ecaron" unicode="&#x11a;" horiz-adv-x="554" 
d="M40 0l136 700h405l-4 -18h-385l-60 -311h350l-4 -18h-350l-65 -335h394l-3 -18h-414zM402 762h-14l-115 162l16 12l109 -156l169 156l12 -12z" />
    <glyph glyph-name="ecaron" unicode="&#x11b;" horiz-adv-x="541" 
d="M296 228q-134 0 -219 62q-13 -42 -13 -93q0 -83 45.5 -137t134.5 -54q117 0 196 85l14 -11q-86 -92 -214 -92q-97 0 -147 57t-50 147q0 142 93 240t225 98q74 0 120 -33t46 -91q0 -79 -66 -128.5t-165 -49.5zM355 512q-94 0 -167.5 -56.5t-105.5 -149.5q88 -60 217 -60
q94 0 150.5 45.5t56.5 111.5q0 50 -40.5 79.5t-110.5 29.5zM367 588h-14l-115 162l17 12l108 -156l170 156l11 -12z" />
    <glyph glyph-name="Gcircumflex" unicode="&#x11c;" horiz-adv-x="693" 
d="M73 350q30 158 135 260t241 102q168 0 233 -133l-19 -11q-65 126 -218 126q-145 0 -253.5 -127.5t-108.5 -308.5q0 -114 62.5 -183t180.5 -69q62 0 132.5 27t114.5 71l44 227h-218l3 18h238l-49 -253q-52 -52 -127 -80t-142 -28q-127 0 -193 73t-66 193q0 49 10 96z
M478 924h14l115 -162l-17 -12l-108 156l-170 -156l-11 12z" />
    <glyph glyph-name="gcircumflex" unicode="&#x11d;" horiz-adv-x="559" 
d="M424 78q-107 -90 -215 -90q-82 0 -125.5 45.5t-43.5 134.5q0 42 10 91q26 133 95 202t170 69q106 0 179 -90l15 78h20l-100 -515q-21 -107 -83.5 -167t-161.5 -60q-126 0 -184 100l18 11q53 -93 169 -93q90 0 145.5 54.5t75.5 150.5zM428 102l61 314q-27 40 -73.5 68
t-97.5 28q-198 0 -248 -253q-10 -47 -10 -88q0 -165 160 -165q51 0 108 28t100 68zM371 750h14l115 -162l-17 -12l-108 156l-170 -156l-11 12z" />
    <glyph glyph-name="Gbreve" unicode="&#x11e;" horiz-adv-x="693" 
d="M73 350q30 158 135 260t241 102q168 0 233 -133l-19 -11q-65 126 -218 126q-145 0 -253.5 -127.5t-108.5 -308.5q0 -114 62.5 -183t180.5 -69q62 0 132.5 27t114.5 71l44 227h-218l3 18h238l-49 -253q-52 -52 -127 -80t-142 -28q-127 0 -193 73t-66 193q0 49 10 96z
M463 783q-48 0 -80.5 30.5t-37.5 84.5l20 5q2 -43 28.5 -72.5t72.5 -29.5t84.5 29.5t56.5 72.5l18 -5q-26 -54 -70 -84.5t-92 -30.5z" />
    <glyph glyph-name="gbreve" unicode="&#x11f;" horiz-adv-x="559" 
d="M424 78q-107 -90 -215 -90q-82 0 -125.5 45.5t-43.5 134.5q0 42 10 91q26 133 95 202t170 69q106 0 179 -90l15 78h20l-100 -515q-21 -107 -83.5 -167t-161.5 -60q-126 0 -184 100l18 11q53 -93 169 -93q90 0 145.5 54.5t75.5 150.5zM428 102l61 314q-29 40 -74.5 68
t-96.5 28q-198 0 -248 -253q-10 -47 -10 -88q0 -165 160 -165q51 0 108 28t100 68zM352 611q-48 0 -80.5 30.5t-36.5 84.5l20 5q2 -43 28.5 -72.5t72.5 -29.5t84 29.5t57 72.5l18 -5q-26 -54 -70.5 -84.5t-92.5 -30.5z" />
    <glyph glyph-name="Gdotaccent" unicode="&#x120;" horiz-adv-x="693" 
d="M73 350q30 158 135 260t241 102q168 0 233 -133l-19 -11q-65 126 -218 126q-145 0 -253.5 -127.5t-108.5 -308.5q0 -114 62.5 -183t180.5 -69q62 0 132.5 27t114.5 71l44 227h-218l3 18h238l-49 -253q-52 -52 -127 -80t-142 -28q-127 0 -193 73t-66 193q0 49 10 96z
M452 838q0 10 8 18.5t19 8.5q18 0 18 -18q0 -10 -8.5 -18t-18.5 -8q-18 0 -18 17z" />
    <glyph glyph-name="gdotaccent" unicode="&#x121;" horiz-adv-x="559" 
d="M424 78q-107 -90 -215 -90q-82 0 -125.5 45.5t-43.5 134.5q0 42 10 91q26 133 95 202t170 69q106 0 179 -90l15 78h20l-100 -515q-21 -107 -83.5 -167t-161.5 -60q-126 0 -184 100l18 11q53 -93 169 -93q90 0 145.5 54.5t75.5 150.5zM428 102l61 314q-27 40 -73.5 68
t-97.5 28q-198 0 -248 -253q-10 -47 -10 -88q0 -165 160 -165q51 0 108 28t100 68zM339 664q0 10 8.5 18.5t18.5 8.5q18 0 18 -18q0 -10 -8.5 -18t-18.5 -8q-18 0 -18 17z" />
    <glyph glyph-name="Gcommaaccent" unicode="&#x122;" horiz-adv-x="693" 
d="M73 350q30 158 135 260t241 102q168 0 233 -133l-19 -11q-65 126 -218 126q-145 0 -253.5 -127.5t-108.5 -308.5q0 -114 62.5 -183t180.5 -69q62 0 132.5 27t114.5 71l44 227h-218l3 18h238l-49 -253q-52 -52 -127 -80t-142 -28q-127 0 -193 73t-66 193q0 49 10 96z
M314 -60l18 -6l-99 -183l-18 6z" />
    <glyph glyph-name="gcommaaccent" unicode="&#x123;" horiz-adv-x="559" 
d="M424 78q-107 -90 -215 -90q-82 0 -125.5 45.5t-43.5 134.5q0 42 10 91q26 133 95 202t170 69q106 0 179 -90l15 78h20l-100 -515q-21 -107 -83.5 -167t-161.5 -60q-126 0 -184 100l18 11q53 -93 169 -93q90 0 145.5 54.5t75.5 150.5zM428 102l61 314q-27 40 -73.5 68
t-97.5 28q-198 0 -248 -253q-10 -47 -10 -88q0 -165 160 -165q51 0 108 28t100 68zM338 596l-17 6l98 183l18 -6z" />
    <glyph glyph-name="Hcircumflex" unicode="&#x124;" horiz-adv-x="672" 
d="M40 0l136 700h20l-62 -317h452l62 317h20l-136 -700h-20l70 365h-452l-70 -365h-20zM458 924h14l115 -162l-17 -12l-108 156l-170 -156l-11 12z" />
    <glyph glyph-name="hcircumflex" unicode="&#x125;" horiz-adv-x="559" 
d="M355 512q-55 0 -115.5 -29.5t-111.5 -78.5l-78 -404h-20l141 730h20l-58 -301q48 43 109 72t118 29q146 0 146 -129q0 -28 -6 -61l-66 -340h-20l64 333q7 34 7 65q0 59 -31.5 86.5t-98.5 27.5zM212 924h14l115 -162l-17 -12l-108 156l-170 -156l-11 12z" />
    <glyph glyph-name="Hbar" unicode="&#x126;" horiz-adv-x="668" 
d="M38 0l108 559h-68l4 18h68l24 123h20l-24 -123h452l24 123h20l-24 -123h68l-4 -18h-68l-108 -559h-20l70 365h-452l-70 -365h-20zM132 383h452l34 176h-452z" />
    <glyph glyph-name="hbar" unicode="&#x127;" horiz-adv-x="562" 
d="M88 636h68l18 94h20l-18 -94h205l-3 -18h-205l-37 -189q48 43 109 72t118 29q146 0 146 -129q0 -28 -6 -61l-66 -340h-20l64 333q7 34 7 65q0 59 -31.5 86.5t-98.5 27.5q-55 0 -115.5 -29.5t-111.5 -78.5l-78 -404h-20l120 618h-68z" />
    <glyph glyph-name="Itilde" unicode="&#x128;" horiz-adv-x="210" 
d="M181 700h20l-136 -700h-20zM212 834q-29 34 -61 34q-43 0 -73 -59l-18 4q18 36 43.5 54.5t51.5 18.5q40 0 73 -39q27 -31 57 -31q43 0 74 59l18 -4q-38 -73 -95 -73q-37 0 -70 36z" />
    <glyph glyph-name="itilde" unicode="&#x129;" horiz-adv-x="200" 
d="M40 0l100 518h20l-100 -518h-20zM173 660q-29 34 -61 34q-44 0 -73 -59l-18 4q37 73 95 73q40 0 73 -39q27 -31 57 -31q43 0 74 59l18 -4q-38 -73 -95 -73q-37 0 -70 36z" />
    <glyph glyph-name="Imacron" unicode="&#x12a;" horiz-adv-x="210" 
d="M181 700h20l-136 -700h-20zM81 834l3 18h272l-3 -18h-272z" />
    <glyph glyph-name="imacron" unicode="&#x12b;" horiz-adv-x="200" 
d="M40 0l100 518h20l-100 -518h-20zM42 660l3 18h272l-3 -18h-272z" />
    <glyph glyph-name="Ibreve" unicode="&#x12c;" horiz-adv-x="210" 
d="M181 700h20l-136 -700h-20zM207 783q-48 0 -80.5 30.5t-37.5 84.5l20 5q2 -43 28.5 -72.5t72.5 -29.5t84.5 29.5t56.5 72.5l18 -5q-26 -54 -70 -84.5t-92 -30.5z" />
    <glyph glyph-name="ibreve" unicode="&#x12d;" horiz-adv-x="200" 
d="M40 0l100 518h20l-100 -518h-20zM168 611q-48 0 -80.5 30.5t-36.5 84.5l20 5q2 -43 28.5 -72.5t72.5 -29.5t84 29.5t57 72.5l18 -5q-26 -54 -70.5 -84.5t-92.5 -30.5z" />
    <glyph glyph-name="Iogonek" unicode="&#x12e;" horiz-adv-x="210" 
d="M181 700h20l-136 -700q-105 -62 -105 -142q0 -27 16 -43t45 -16q42 0 83 34l9 -14q-45 -38 -96 -38q-36 0 -56.5 21t-20.5 54q0 86 105 147z" />
    <glyph glyph-name="iogonek" unicode="&#x12f;" horiz-adv-x="200" 
d="M40 2l100 516h20l-100 -518q-102 -65 -102 -142q0 -27 16 -43t45 -16q42 0 83 34l9 -14q-45 -38 -96 -38q-36 0 -56.5 21t-20.5 54q0 82 102 146zM156 680q0 12 9.5 21t21.5 9q21 0 21 -21q0 -13 -9.5 -22t-21.5 -9q-21 0 -21 22z" />
    <glyph glyph-name="Idotaccent" unicode="&#x130;" horiz-adv-x="210" 
d="M181 700h20l-136 -700h-20zM196 838q0 10 8 18.5t19 8.5q18 0 18 -18q0 -10 -8.5 -18t-18.5 -8q-18 0 -18 17z" />
    <glyph glyph-name="dotlessi" unicode="&#x131;" horiz-adv-x="200" 
d="M40 0l100 518h20l-100 -518h-20z" />
    <glyph glyph-name="IJ" unicode="&#x132;" horiz-adv-x="736" 
d="M181 700h20l-136 -700h-20zM217 115l18 10q44 -119 170 -119q75 0 133.5 54.5t78.5 153.5l95 486h20l-95 -486q-22 -114 -88.5 -170t-146.5 -56q-136 0 -185 127z" />
    <glyph glyph-name="ij" unicode="&#x133;" horiz-adv-x="380" 
d="M40 0l100 518h20l-100 -518h-20zM208 -87l117 605h20l-118 -607q-15 -77 -52 -106t-100 -29q-15 0 -31 2l4 18q18 -2 33 -2q50 0 81.5 23.5t45.5 95.5zM156 680q0 12 9.5 21t21.5 9q21 0 21 -21q0 -13 -9.5 -22t-21.5 -9q-21 0 -21 22zM341 680q0 12 9.5 21t21.5 9
q21 0 21 -21q0 -13 -9.5 -22t-21.5 -9q-21 0 -21 22z" />
    <glyph glyph-name="Jcircumflex" unicode="&#x134;" horiz-adv-x="526" 
d="M7 115l18 10q44 -119 170 -119q75 0 133.5 54.5t78.5 153.5l95 486h20l-95 -486q-22 -114 -88.5 -170t-146.5 -56q-136 0 -185 127zM548 924h14l115 -162l-17 -12l-108 156l-170 -156l-11 12z" />
    <glyph glyph-name="jcircumflex" unicode="&#x135;" horiz-adv-x="190" 
d="M183 750h14l115 -162l-17 -12l-108 156l-170 -156l-11 12zM18 -87l117 605h20l-118 -607q-15 -77 -52 -106t-99 -29q-15 0 -31 2l4 18q18 -2 33 -2q50 0 81 23.5t45 95.5z" />
    <glyph glyph-name="Kcommaaccent" unicode="&#x136;" horiz-adv-x="585" 
d="M196 700l-99 -508l496 508h26l-277 -283l173 -417h-24l-166 400l-234 -240l-31 -160h-20l136 700h20zM258 -60l18 -6l-99 -183l-18 6z" />
    <glyph glyph-name="kcommaaccent" unicode="&#x137;" horiz-adv-x="478" 
d="M191 730l-109 -565l376 353h28l-222 -207l154 -311h-24l-147 296l-171 -159l-26 -137h-20l141 730h20zM205 -60l18 -6l-99 -183l-18 6z" />
    <glyph glyph-name="kgreenlandic" unicode="&#x138;" horiz-adv-x="478" 
d="M150 518l-68 -353l376 353h28l-222 -207l154 -311h-24l-147 296l-171 -159l-26 -137h-20l100 518h20z" />
    <glyph glyph-name="Lacute" unicode="&#x139;" horiz-adv-x="512" 
d="M40 0l136 700h20l-133 -682h382l-3 -18h-402zM359 918l13 -13l-172 -141l-13 12z" />
    <glyph glyph-name="lacute" unicode="&#x13a;" horiz-adv-x="200" 
d="M40 0l141 730h20l-141 -730h-20zM362 918l13 -13l-172 -141l-13 12z" />
    <glyph glyph-name="Lcommaaccent" unicode="&#x13b;" horiz-adv-x="512" 
d="M40 0l136 700h20l-133 -682h382l-3 -18h-402zM227 -60l18 -6l-99 -183l-18 6z" />
    <glyph glyph-name="lcommaaccent" unicode="&#x13c;" horiz-adv-x="200" 
d="M40 0l141 730h20l-141 -730h-20zM26 -60l18 -6l-98 -183l-18 6z" />
    <glyph glyph-name="Lcaron" unicode="&#x13d;" horiz-adv-x="512" 
d="M40 0l136 700h20l-133 -682h382l-3 -18h-402zM509 735l18 -5l-130 -231l-18 5z" />
    <glyph glyph-name="lcaron" unicode="&#x13e;" horiz-adv-x="254" 
d="M40 0l141 730h20l-141 -730h-20zM337 735l18 -5l-130 -231l-18 5z" />
    <glyph glyph-name="Ldot" unicode="&#x13f;" horiz-adv-x="512" 
d="M40 0l136 700h20l-133 -682h382l-3 -18h-402zM336 374q0 10 8 18.5t19 8.5q18 0 18 -18q0 -10 -8.5 -18t-18.5 -8q-18 0 -18 17z" />
    <glyph glyph-name="ldot" unicode="&#x140;" horiz-adv-x="364" 
d="M50 0l141 730h20l-141 -730h-20zM297 374q0 10 8.5 18.5t18.5 8.5q18 0 18 -18q0 -10 -8.5 -18t-18.5 -8q-18 0 -18 17z" />
    <glyph glyph-name="Lslash" unicode="&#x141;" horiz-adv-x="515" 
d="M110 332l72 368h20l-69 -354l341 203l8 -16l-354 -211l-59 -304h379l-3 -18h-399l59 308l-108 -64l-7 17z" />
    <glyph glyph-name="lslash" unicode="&#x142;" horiz-adv-x="325" 
d="M-8 272l186 120l65 338h20l-62 -323l171 111l10 -16l-186 -121l-74 -381h-20l71 366l-171 -110z" />
    <glyph glyph-name="Nacute" unicode="&#x143;" horiz-adv-x="678" 
d="M40 0l136 700h20l328 -667l130 667h20l-136 -700h-20l-329 666l-129 -666h-20zM592 918l13 -13l-172 -141l-13 12z" />
    <glyph glyph-name="nacute" unicode="&#x144;" horiz-adv-x="559" 
d="M480 744l14 -13l-173 -141l-12 12zM355 512q-55 0 -115.5 -29.5t-111.5 -78.5l-78 -404h-20l100 518h20l-17 -89q48 43 109 72t118 29q146 0 146 -129q0 -28 -6 -61l-66 -340h-20l64 333q7 34 7 65q0 59 -31.5 86.5t-98.5 27.5z" />
    <glyph glyph-name="Ncommaaccent" unicode="&#x145;" horiz-adv-x="678" 
d="M40 0l136 700h20l328 -667l130 667h20l-136 -700h-20l-329 666l-129 -666h-20zM289 -60l18 -6l-99 -183l-18 6z" />
    <glyph glyph-name="ncommaaccent" unicode="&#x146;" horiz-adv-x="559" 
d="M355 512q-55 0 -115.5 -29.5t-111.5 -78.5l-78 -404h-20l100 518h20l-17 -89q48 43 109 72t118 29q146 0 146 -129q0 -28 -6 -61l-66 -340h-20l64 333q7 34 7 65q0 59 -31.5 86.5t-98.5 27.5zM226 -60l18 -6l-99 -183l-18 6z" />
    <glyph glyph-name="Ncaron" unicode="&#x147;" horiz-adv-x="678" 
d="M40 0l136 700h20l328 -667l130 667h20l-136 -700h-20l-329 666l-129 -666h-20zM444 762h-14l-115 162l16 12l109 -156l169 156l12 -12z" />
    <glyph glyph-name="ncaron" unicode="&#x148;" horiz-adv-x="559" 
d="M354 588h-14l-115 162l17 12l108 -156l170 156l11 -12zM355 512q-55 0 -115.5 -29.5t-111.5 -78.5l-78 -404h-20l100 518h20l-17 -89q48 43 109 72t118 29q146 0 146 -129q0 -28 -6 -61l-66 -340h-20l64 333q7 34 7 65q0 59 -31.5 86.5t-98.5 27.5z" />
    <glyph glyph-name="napostrophe" unicode="&#x149;" horiz-adv-x="571" 
d="M168 735l18 -5l-130 -231l-18 5zM367 512q-55 0 -115.5 -29.5t-111.5 -78.5l-78 -404h-20l100 518h20l-17 -89q48 43 109 72t118 29q146 0 146 -129q0 -28 -6 -61l-66 -340h-20l64 333q7 34 7 65q0 59 -31.5 86.5t-98.5 27.5z" />
    <glyph glyph-name="Eng" unicode="&#x14a;" horiz-adv-x="678" 
d="M40 0l136 700h20l328 -667l130 667h20l-154 -789q-15 -77 -52.5 -106t-99.5 -29q-15 0 -31 2l4 18q18 -2 33 -2q50 0 81.5 23.5t45.5 95.5l17 87l-329 666l-129 -666h-20z" />
    <glyph glyph-name="eng" unicode="&#x14b;" horiz-adv-x="559" 
d="M355 512q-55 0 -115.5 -29.5t-111.5 -78.5l-78 -404h-20l100 518h20l-17 -89q48 43 109 72t118 29q146 0 146 -129q0 -28 -6 -61l-84 -429q-15 -77 -52.5 -106t-99.5 -29q-15 0 -31 2l4 18q18 -2 33 -2q50 0 81.5 23.5t45.5 95.5l81 420q7 34 7 65q0 59 -31.5 86.5
t-98.5 27.5z" />
    <glyph glyph-name="Omacron" unicode="&#x14c;" horiz-adv-x="696" 
d="M659 350q-31 -158 -130.5 -260t-233.5 -102q-111 0 -172 71.5t-61 189.5q0 190 110 326.5t264 136.5q111 0 172 -72t61 -191q0 -50 -10 -99zM93 350q-10 -49 -10 -98q0 -112 56.5 -179t159.5 -67q144 0 247 130t103 311q0 112 -56.5 179.5t-160.5 67.5
q-125 0 -217.5 -96.5t-121.5 -247.5zM324 834l3 18h272l-3 -18h-272z" />
    <glyph glyph-name="omacron" unicode="&#x14d;" horiz-adv-x="566" 
d="M516 259q7 34 7 68q0 91 -50.5 147t-136.5 56q-116 0 -204.5 -99t-88.5 -240q0 -92 50.5 -147.5t136.5 -55.5q102 0 182.5 76t103.5 195zM496 259q-22 -113 -96 -183t-166 -70q-77 0 -124 51t-47 136q0 136 82 227.5t187 91.5q77 0 123.5 -51t46.5 -138q0 -29 -6 -64z
M225 660l3 18h272l-3 -18h-272z" />
    <glyph glyph-name="Obreve" unicode="&#x14e;" horiz-adv-x="696" 
d="M659 350q-31 -158 -130.5 -260t-233.5 -102q-111 0 -172 71.5t-61 189.5q0 190 110 326.5t264 136.5q111 0 172 -72t61 -191q0 -50 -10 -99zM93 350q-10 -49 -10 -98q0 -112 56.5 -179t159.5 -67q144 0 247 130t103 311q0 112 -56.5 179.5t-160.5 67.5
q-125 0 -217.5 -96.5t-121.5 -247.5zM450 783q-48 0 -80.5 30.5t-37.5 84.5l20 5q2 -43 28.5 -72.5t72.5 -29.5t84.5 29.5t56.5 72.5l18 -5q-26 -54 -70 -84.5t-92 -30.5z" />
    <glyph glyph-name="obreve" unicode="&#x14f;" horiz-adv-x="566" 
d="M516 259q7 34 7 68q0 91 -50.5 147t-136.5 56q-116 0 -204.5 -99t-88.5 -240q0 -92 50.5 -147.5t136.5 -55.5q102 0 182.5 76t103.5 195zM496 259q-22 -113 -96 -183t-166 -70q-77 0 -124 51t-47 136q0 136 82 227.5t187 91.5q77 0 123.5 -51t46.5 -138q0 -29 -6 -64z
M351 611q-48 0 -80.5 30.5t-36.5 84.5l20 5q2 -43 28.5 -72.5t72.5 -29.5t84 29.5t57 72.5l18 -5q-26 -54 -70.5 -84.5t-92.5 -30.5z" />
    <glyph glyph-name="Ohungarumlaut" unicode="&#x150;" horiz-adv-x="696" 
d="M659 350q-31 -158 -130.5 -260t-233.5 -102q-111 0 -172 71.5t-61 189.5q0 190 110 326.5t264 136.5q111 0 172 -72t61 -191q0 -50 -10 -99zM93 350q-10 -49 -10 -98q0 -112 56.5 -179t159.5 -67q144 0 247 130t103 311q0 112 -56.5 179.5t-160.5 67.5
q-125 0 -217.5 -96.5t-121.5 -247.5zM520 918l13 -13l-172 -141l-13 12zM660 918l13 -13l-172 -141l-13 12z" />
    <glyph glyph-name="ohungarumlaut" unicode="&#x151;" horiz-adv-x="566" 
d="M516 259q-23 -119 -103.5 -195t-182.5 -76q-86 0 -136.5 55.5t-50.5 147.5q0 141 88.5 240t204.5 99q86 0 136.5 -56t50.5 -147q0 -34 -7 -68zM496 259q6 35 6 64q0 87 -46.5 138t-123.5 51q-105 0 -187 -91.5t-82 -227.5q0 -85 47 -136t124 -51q92 0 166 70t96 183z
M408 744l14 -13l-173 -141l-12 12zM548 744l14 -13l-173 -141l-12 12z" />
    <glyph glyph-name="OE" unicode="&#x152;" horiz-adv-x="814" 
d="M73 350q31 162 143 256t266 94h359l-4 -18h-332l-60 -311h297l-4 -18h-297l-65 -335h341l-3 -18h-368q-131 0 -206.5 69t-75.5 193q0 42 9 88zM356 18l129 664h-7q-164 0 -279 -115t-115 -302q0 -116 70.5 -181.5t194.5 -65.5h7z" />
    <glyph glyph-name="oe" unicode="&#x153;" horiz-adv-x="987" 
d="M496 259q6 35 6 64q0 87 -46.5 138t-123.5 51q-105 0 -187 -91.5t-82 -227.5q0 -85 47 -136t124 -51q92 0 166 70t96 183zM745 246q94 0 150.5 45.5t56.5 111.5q0 50 -40.5 79.5t-110.5 29.5q-94 0 -167.5 -56.5t-105.5 -149.5q88 -60 217 -60zM742 228q-134 0 -219 62
q-13 -42 -13 -93q0 -83 45.5 -137t134.5 -54q117 0 196 85l14 -11q-86 -92 -214 -92q-92 0 -141.5 52t-54.5 135q-38 -85 -108 -136t-152 -51q-86 0 -136.5 55.5t-50.5 147.5q0 141 88.5 240t204.5 99q82 0 131.5 -51t54.5 -137q40 86 115.5 137t169.5 51q74 0 120 -33
t46 -91q0 -79 -66 -128.5t-165 -49.5z" />
    <glyph glyph-name="Racute" unicode="&#x154;" horiz-adv-x="582" 
d="M570 509q-13 -70 -65 -118t-134 -65l141 -326h-23l-139 323q-35 -5 -68 -5h-161l-61 -318h-20l136 700h186q103 0 157.5 -41t54.5 -111q0 -13 -4 -39zM550 509q4 24 4 36q0 65 -52 101t-149 36h-161l-67 -346h161q110 0 179.5 46.5t84.5 126.5zM476 918l13 -13l-172 -141
l-13 12z" />
    <glyph glyph-name="racute" unicode="&#x155;" horiz-adv-x="339" 
d="M328 512q-103 0 -200 -106l-78 -406h-20l100 518h20l-16 -85q97 97 200 97q13 0 37 -2l-3 -18q-26 2 -40 2zM365 744l14 -13l-173 -141l-12 12z" />
    <glyph glyph-name="Rcommaaccent" unicode="&#x156;" horiz-adv-x="582" 
d="M570 509q-13 -70 -65 -118t-134 -65l141 -326h-23l-139 323q-35 -5 -68 -5h-161l-61 -318h-20l136 700h186q103 0 157.5 -41t54.5 -111q0 -13 -4 -39zM550 509q4 24 4 36q0 65 -52 101t-149 36h-161l-67 -346h161q110 0 179.5 46.5t84.5 126.5zM255 -60l18 -6l-99 -183
l-18 6z" />
    <glyph glyph-name="rcommaaccent" unicode="&#x157;" horiz-adv-x="339" 
d="M328 512q-103 0 -200 -106l-78 -406h-20l100 518h20l-16 -85q97 97 200 97q13 0 37 -2l-3 -18q-26 2 -40 2zM19 -60l18 -6l-98 -183l-18 6z" />
    <glyph glyph-name="Rcaron" unicode="&#x158;" horiz-adv-x="582" 
d="M570 509q-13 -70 -65 -118t-134 -65l141 -326h-23l-139 323q-35 -5 -68 -5h-161l-61 -318h-20l136 700h186q103 0 157.5 -41t54.5 -111q0 -13 -4 -39zM550 509q4 24 4 36q0 65 -52 101t-149 36h-161l-67 -346h161q110 0 179.5 46.5t84.5 126.5zM382 762h-14l-115 162
l16 12l109 -156l169 156l12 -12z" />
    <glyph glyph-name="rcaron" unicode="&#x159;" horiz-adv-x="339" 
d="M328 512q-103 0 -200 -106l-78 -406h-20l100 518h20l-16 -85q97 97 200 97q13 0 37 -2l-3 -18q-26 2 -40 2zM257 588h-14l-115 162l17 12l108 -156l170 156l11 -12z" />
    <glyph glyph-name="Sacute" unicode="&#x15a;" horiz-adv-x="567" 
d="M509 918l13 -13l-172 -141l-13 12zM239 6q110 0 175 57.5t65 145.5q0 56 -43 92t-139 67q-87 28 -129 63t-42 86q0 84 64 139.5t161 55.5q134 0 209 -99l-19 -13q-67 94 -194 94q-88 0 -144.5 -50.5t-56.5 -124.5q0 -45 39.5 -76.5t123.5 -58.5q99 -32 144.5 -71
t45.5 -101q0 -98 -73 -161t-191 -63q-139 0 -224 96l19 14q38 -46 94 -69t115 -23z" />
    <glyph glyph-name="sacute" unicode="&#x15b;" horiz-adv-x="474" 
d="M189 6q82 0 137 41.5t55 104.5q0 42 -35.5 70t-110.5 49q-76 21 -112.5 46t-36.5 68q0 64 54.5 104.5t134.5 40.5q99 0 161 -59l-17 -14q-55 55 -147 55q-71 0 -118.5 -34t-47.5 -89q0 -36 34 -58t109 -43q78 -22 115.5 -53.5t37.5 -77.5q0 -78 -63.5 -123.5
t-154.5 -45.5q-115 0 -187 78l17 14q32 -35 79.5 -54.5t95.5 -19.5zM424 744l14 -13l-173 -141l-12 12z" />
    <glyph glyph-name="Scircumflex" unicode="&#x15c;" horiz-adv-x="567" 
d="M404 924h14l115 -162l-17 -12l-108 156l-170 -156l-11 12zM239 6q110 0 175 57.5t65 145.5q0 56 -43 92t-139 67q-87 28 -129 63t-42 86q0 84 64 139.5t161 55.5q134 0 209 -99l-19 -13q-67 94 -194 94q-88 0 -144.5 -50.5t-56.5 -124.5q0 -45 39.5 -76.5t123.5 -58.5
q99 -32 144.5 -71t45.5 -101q0 -98 -73 -161t-191 -63q-139 0 -224 96l19 14q38 -46 94 -69t115 -23z" />
    <glyph glyph-name="scircumflex" unicode="&#x15d;" horiz-adv-x="474" 
d="M189 6q82 0 137 41.5t55 104.5q0 42 -35.5 70t-110.5 49q-76 21 -112.5 46t-36.5 68q0 64 54.5 104.5t134.5 40.5q99 0 161 -59l-17 -14q-55 55 -147 55q-71 0 -118.5 -34t-47.5 -89q0 -36 34 -58t109 -43q78 -22 115.5 -53.5t37.5 -77.5q0 -78 -63.5 -123.5
t-154.5 -45.5q-115 0 -187 78l17 14q32 -35 79.5 -54.5t95.5 -19.5zM314 750h14l115 -162l-17 -12l-108 156l-170 -156l-11 12z" />
    <glyph glyph-name="Scedilla" unicode="&#x15e;" horiz-adv-x="567" 
d="M239 6q110 0 175 57.5t65 145.5q0 56 -43 92t-139 67q-87 28 -129 63t-42 86q0 84 64 139.5t161 55.5q134 0 209 -99l-19 -13q-67 94 -194 94q-88 0 -144.5 -50.5t-56.5 -124.5q0 -45 39.5 -76.5t123.5 -58.5q99 -32 144.5 -71t45.5 -101q0 -94 -67.5 -156t-178.5 -67
l-36 -58q85 -13 85 -74q0 -37 -30 -66t-83 -29q-44 0 -74 28l14 14q24 -24 63 -24q45 0 67.5 23t22.5 51q0 56 -95 63l48 71q-139 0 -224 96l19 14q38 -46 94 -69t115 -23z" />
    <glyph glyph-name="scedilla" unicode="&#x15f;" horiz-adv-x="474" 
d="M189 6q82 0 137 41.5t55 104.5q0 42 -35.5 70t-110.5 49q-76 21 -112.5 46t-36.5 68q0 64 54.5 104.5t134.5 40.5q99 0 161 -59l-17 -14q-55 55 -147 55q-71 0 -118.5 -34t-47.5 -89q0 -36 34 -58t109 -43q78 -22 115.5 -53.5t37.5 -77.5q0 -76 -60.5 -121.5
t-147.5 -47.5l-37 -57q85 -13 85 -74q0 -37 -30 -66t-83 -29q-44 0 -74 28l14 14q24 -24 63 -24q45 0 67.5 23t22.5 51q0 56 -95 63l48 71q-111 5 -178 78l17 14q32 -35 79.5 -54.5t95.5 -19.5z" />
    <glyph glyph-name="Scaron" unicode="&#x160;" horiz-adv-x="567" 
d="M394 762h-14l-115 162l16 12l109 -156l169 156l12 -12zM239 6q110 0 175 57.5t65 145.5q0 56 -43 92t-139 67q-87 28 -129 63t-42 86q0 84 64 139.5t161 55.5q134 0 209 -99l-19 -13q-67 94 -194 94q-88 0 -144.5 -50.5t-56.5 -124.5q0 -45 39.5 -76.5t123.5 -58.5
q99 -32 144.5 -71t45.5 -101q0 -98 -73 -161t-191 -63q-139 0 -224 96l19 14q38 -46 94 -69t115 -23z" />
    <glyph glyph-name="scaron" unicode="&#x161;" horiz-adv-x="474" 
d="M189 6q82 0 137 41.5t55 104.5q0 42 -35.5 70t-110.5 49q-76 21 -112.5 46t-36.5 68q0 64 54.5 104.5t134.5 40.5q99 0 161 -59l-17 -14q-55 55 -147 55q-71 0 -118.5 -34t-47.5 -89q0 -36 34 -58t109 -43q78 -22 115.5 -53.5t37.5 -77.5q0 -78 -63.5 -123.5
t-154.5 -45.5q-115 0 -187 78l17 14q32 -35 79.5 -54.5t95.5 -19.5zM303 588h-14l-115 162l17 12l108 -156l170 156l11 -12z" />
    <glyph glyph-name="Tcommaaccent" unicode="&#x162;" horiz-adv-x="522" 
d="M221 0l-47 -69q85 -13 85 -74q0 -37 -30 -66t-83 -29q-44 0 -74 28l14 14q24 -24 63 -24q45 0 67.5 23t22.5 51q0 56 -95 63l57 83l132 682h-236l4 18h492l-4 -18h-236z" />
    <glyph glyph-name="tcommaaccent" unicode="&#x163;" horiz-adv-x="353" 
d="M270 8l-3 -18q-24 -2 -44 -2q-30 0 -56 8l-44 -65q85 -13 85 -74q0 -37 -30 -66t-83 -29q-44 0 -74 28l14 14q24 -24 63 -24q45 0 67.5 23t22.5 51q0 56 -95 63l58 85q-42 22 -42 80q0 18 5 46l73 372h-120l3 18h120l30 155h20l-30 -155h163l-3 -18h-163l-72 -370
q-5 -27 -5 -43q0 -81 94 -81q22 0 46 2z" />
    <glyph glyph-name="Tcaron" unicode="&#x164;" horiz-adv-x="522" 
d="M201 0l132 682h-236l4 18h492l-4 -18h-236l-132 -682h-20zM366 762h-14l-115 162l16 12l109 -156l169 156l12 -12z" />
    <glyph glyph-name="tcaron" unicode="&#x165;" horiz-adv-x="453" 
d="M270 8l-3 -18q-24 -2 -44 -2q-55 0 -84.5 21.5t-29.5 73.5q0 17 5 45l73 372h-120l3 18h120l30 155h20l-30 -155h163l-3 -18h-163l-72 -370q-5 -27 -5 -43q0 -81 94 -81q22 0 46 2zM537 735l18 -5l-130 -231l-18 5z" />
    <glyph glyph-name="Tbar" unicode="&#x166;" horiz-adv-x="522" 
d="M467 361l-4 -18h-176l-66 -343h-20l66 343h-175l4 18h175l62 321h-236l4 18h492l-4 -18h-236l-62 -321h176z" />
    <glyph glyph-name="tbar" unicode="&#x167;" horiz-adv-x="353" 
d="M169 307h146l-3 -18h-146l-31 -159q-5 -27 -5 -43q0 -81 94 -81q22 0 46 2l-3 -18q-24 -2 -44 -2q-55 0 -84.5 21.5t-29.5 73.5q0 17 5 45l32 161h-102l3 18h102l38 193h-120l3 18h120l30 155h20l-30 -155h163l-3 -18h-163z" />
    <glyph glyph-name="Utilde" unicode="&#x168;" horiz-adv-x="696" 
d="M295 -12q-97 0 -154.5 50.5t-57.5 150.5q0 40 8 77l85 434h20l-84 -431q-8 -37 -8 -76q0 -93 53 -140t142 -47q106 0 184.5 66t104.5 197l84 431h20l-85 -434q-27 -138 -112.5 -208t-199.5 -70zM455 834q-29 34 -61 34q-44 0 -73 -59l-18 4q37 73 95 73q40 0 73 -39
q27 -31 57 -31q43 0 74 59l18 -4q-38 -73 -95 -73q-37 0 -70 36z" />
    <glyph glyph-name="utilde" unicode="&#x169;" horiz-adv-x="554" 
d="M224 -12q94 0 159.5 58.5t86.5 166.5l59 305h-20l-59 -303q-19 -101 -77 -155t-145 -54q-72 0 -110.5 37.5t-38.5 108.5q0 23 7 63l59 303h-20l-59 -305q-7 -34 -7 -66q0 -77 43 -118t122 -41zM350 660q-29 34 -61 34q-43 0 -73 -59l-18 4q18 36 43.5 54.5t51.5 18.5
q40 0 73 -39q27 -31 57 -31q43 0 74 59l18 -4q-38 -73 -95 -73q-37 0 -70 36z" />
    <glyph glyph-name="Umacron" unicode="&#x16a;" horiz-adv-x="696" 
d="M295 -12q-97 0 -154.5 50.5t-57.5 150.5q0 40 8 77l85 434h20l-84 -431q-8 -37 -8 -76q0 -93 53 -140t142 -47q106 0 184.5 66t104.5 197l84 431h20l-85 -434q-27 -138 -112.5 -208t-199.5 -70zM324 834l3 18h272l-3 -18h-272z" />
    <glyph glyph-name="umacron" unicode="&#x16b;" horiz-adv-x="554" 
d="M224 -12q94 0 159.5 58.5t86.5 166.5l59 305h-20l-59 -303q-19 -101 -77 -155t-145 -54q-72 0 -110.5 37.5t-38.5 108.5q0 23 7 63l59 303h-20l-59 -305q-7 -34 -7 -66q0 -77 43 -118t122 -41zM219 660l3 18h272l-3 -18h-272z" />
    <glyph glyph-name="Ubreve" unicode="&#x16c;" horiz-adv-x="696" 
d="M295 -12q-97 0 -154.5 50.5t-57.5 150.5q0 40 8 77l85 434h20l-84 -431q-8 -37 -8 -76q0 -93 53 -140t142 -47q106 0 184.5 66t104.5 197l84 431h20l-85 -434q-27 -138 -112.5 -208t-199.5 -70zM450 783q-48 0 -80.5 30.5t-37.5 84.5l20 5q2 -43 28.5 -72.5t72.5 -29.5
t84.5 29.5t56.5 72.5l18 -5q-26 -54 -70 -84.5t-92 -30.5z" />
    <glyph glyph-name="ubreve" unicode="&#x16d;" horiz-adv-x="554" 
d="M224 -12q94 0 159.5 58.5t86.5 166.5l59 305h-20l-59 -303q-19 -101 -77 -155t-145 -54q-72 0 -110.5 37.5t-38.5 108.5q0 23 7 63l59 303h-20l-59 -305q-7 -34 -7 -66q0 -77 43 -118t122 -41zM345 611q-48 0 -80.5 30.5t-36.5 84.5l20 5q2 -43 28.5 -72.5t72.5 -29.5
t84 29.5t57 72.5l18 -5q-26 -54 -70.5 -84.5t-92.5 -30.5z" />
    <glyph glyph-name="Uring" unicode="&#x16e;" horiz-adv-x="696" 
d="M295 -12q-97 0 -154.5 50.5t-57.5 150.5q0 40 8 77l85 434h20l-84 -431q-8 -37 -8 -76q0 -93 53 -140t142 -47q106 0 184.5 66t104.5 197l84 431h20l-85 -434q-27 -138 -112.5 -208t-199.5 -70zM376 843q7 35 36.5 59t64.5 24q31 0 50.5 -19t19.5 -48q0 -40 -31 -69.5
t-71 -29.5q-31 0 -51 19t-20 48q0 4 2 16zM396 843q-1 -4 -1 -12q0 -23 15 -38t39 -15q30 0 54 23.5t24 54.5q0 23 -14.5 37.5t-38.5 14.5q-27 0 -50 -19t-28 -46z" />
    <glyph glyph-name="uring" unicode="&#x16f;" horiz-adv-x="554" 
d="M224 -12q94 0 159.5 58.5t86.5 166.5l59 305h-20l-59 -303q-19 -101 -77 -155t-145 -54q-72 0 -110.5 37.5t-38.5 108.5q0 23 7 63l59 303h-20l-59 -305q-7 -34 -7 -66q0 -77 43 -118t122 -41zM272 669q7 35 36.5 59t64.5 24q31 0 50.5 -19t19.5 -48q0 -40 -32 -69.5
t-71 -29.5q-31 0 -50.5 18.5t-19.5 47.5q0 5 2 17zM292 669q-1 -4 -1 -13q0 -23 14.5 -37.5t38.5 -14.5q30 0 54.5 23.5t24.5 53.5q0 23 -15 38t-39 15q-27 0 -49.5 -19t-27.5 -46z" />
    <glyph glyph-name="Uhungarumlaut" unicode="&#x170;" horiz-adv-x="696" 
d="M295 -12q-97 0 -154.5 50.5t-57.5 150.5q0 40 8 77l85 434h20l-84 -431q-8 -37 -8 -76q0 -93 53 -140t142 -47q106 0 184.5 66t104.5 197l84 431h20l-85 -434q-27 -138 -112.5 -208t-199.5 -70zM530 918l13 -13l-172 -141l-13 12zM670 918l13 -13l-172 -141l-13 12z" />
    <glyph glyph-name="uhungarumlaut" unicode="&#x171;" horiz-adv-x="554" 
d="M224 -12q-79 0 -122 41t-43 118q0 32 7 66l59 305h20l-59 -303q-7 -40 -7 -63q0 -71 38.5 -108.5t110.5 -37.5q87 0 145 54t77 155l59 303h20l-59 -305q-21 -108 -86.5 -166.5t-159.5 -58.5zM410 744l14 -13l-173 -141l-12 12zM550 744l14 -13l-173 -141l-12 12z" />
    <glyph glyph-name="Uogonek" unicode="&#x172;" horiz-adv-x="696" 
d="M295 -12q-97 0 -154.5 50.5t-57.5 150.5q0 40 8 77l85 434h20l-84 -431q-8 -37 -8 -76q0 -93 53 -140t142 -47q106 0 184.5 66t104.5 197l84 431h20l-85 -434q-26 -130 -104 -200t-184 -77q-87 -59 -87 -131q0 -27 16 -43t45 -16q42 0 83 34l9 -14q-45 -38 -96 -38
q-36 0 -57 21t-21 54q0 73 84 132z" />
    <glyph glyph-name="uogonek" unicode="&#x173;" horiz-adv-x="554" 
d="M236 -12h-12q-79 0 -122 41t-43 118q0 32 7 66l59 305h20l-59 -303q-7 -40 -7 -63q0 -71 38.5 -108.5t110.5 -37.5q87 0 145 54t77 155l59 303h20l-59 -305q-18 -96 -72.5 -153.5t-133.5 -68.5q-91 -60 -91 -133q0 -27 16 -43t45 -16q42 0 83 34l9 -14q-45 -38 -96 -38
q-36 0 -57 21t-21 54q0 73 84 132z" />
    <glyph glyph-name="Wcircumflex" unicode="&#x174;" horiz-adv-x="974" 
d="M560 700h26l62 -677l360 677h22l-374 -700h-25l-63 677l-325 -677h-25l-102 700h22l96 -677zM609 924h14l115 -162l-17 -12l-108 156l-170 -156l-11 12z" />
    <glyph glyph-name="wcircumflex" unicode="&#x175;" horiz-adv-x="760" 
d="M416 518h28l57 -499l261 499h23l-274 -518h-26l-59 499l-251 -499h-26l-74 518h23l67 -499zM468 750h14l115 -162l-17 -12l-108 156l-170 -156l-11 12z" />
    <glyph glyph-name="Ycircumflex" unicode="&#x176;" horiz-adv-x="560" 
d="M621 700l-327 -421l-54 -279h-20l54 279l-163 421h24l153 -401l309 401h24zM402 924h14l115 -162l-17 -12l-108 156l-170 -156l-11 12z" />
    <glyph glyph-name="ycircumflex" unicode="&#x177;" horiz-adv-x="485" 
d="M203 33l285 485h22l-429 -730h-22l129 218l-113 512h22zM330 750h14l115 -162l-17 -12l-108 156l-170 -156l-11 12z" />
    <glyph glyph-name="Ydieresis" unicode="&#x178;" horiz-adv-x="560" 
d="M621 700l-327 -421l-54 -279h-20l54 279l-163 421h24l153 -401l309 401h24zM284 838q0 10 8 18.5t19 8.5q18 0 18 -18q0 -10 -8.5 -18t-18.5 -8q-18 0 -18 17zM458 838q0 10 8 18.5t19 8.5q18 0 18 -18q0 -10 -8.5 -18t-18.5 -8q-18 0 -18 17z" />
    <glyph glyph-name="Zacute" unicode="&#x179;" horiz-adv-x="558" 
d="M-7 18l573 664h-429l4 18h453l-4 -18l-573 -664h454l-3 -18h-478zM501 918l13 -13l-172 -141l-13 12z" />
    <glyph glyph-name="zacute" unicode="&#x17a;" horiz-adv-x="461" 
d="M-15 0l3 18l450 482h-341l3 18h366l-3 -18l-451 -482h367l-3 -18h-391zM419 744l14 -13l-173 -141l-12 12z" />
    <glyph glyph-name="Zdotaccent" unicode="&#x17b;" horiz-adv-x="558" 
d="M-7 18l573 664h-429l4 18h453l-4 -18l-573 -664h454l-3 -18h-478zM367 838q0 10 8.5 18.5t18.5 8.5q18 0 18 -18q0 -10 -8.5 -18t-18.5 -8q-18 0 -18 17z" />
    <glyph glyph-name="zdotaccent" unicode="&#x17c;" horiz-adv-x="461" 
d="M-15 0l3 18l450 482h-341l3 18h366l-3 -18l-451 -482h367l-3 -18h-391zM286 664q0 10 8 18.5t19 8.5q18 0 18 -18q0 -10 -8.5 -18t-18.5 -8q-18 0 -18 17z" />
    <glyph glyph-name="Zcaron" unicode="&#x17d;" horiz-adv-x="558" 
d="M-7 18l573 664h-429l4 18h453l-4 -18l-573 -664h454l-3 -18h-478zM386 762h-14l-115 162l16 12l109 -156l169 156l12 -12z" />
    <glyph glyph-name="zcaron" unicode="&#x17e;" horiz-adv-x="461" 
d="M-15 0l3 18l450 482h-341l3 18h366l-3 -18l-451 -482h367l-3 -18h-391zM305 588h-14l-115 162l17 12l108 -156l170 156l11 -12z" />
    <glyph glyph-name="longs" unicode="&#x17f;" horiz-adv-x="353" 
d="M224 588l-114 -588h-20l97 500h-120l3 18h120l14 72q27 140 163 140q30 0 57 -3l-4 -18q-28 3 -59 3q-54 0 -88.5 -26t-48.5 -98z" />
    <glyph glyph-name="uni0191" unicode="&#x191;" horiz-adv-x="525" 
d="M23 -87l153 787h405l-4 -18h-385l-60 -308h353l-3 -18h-353l-87 -445q-15 -77 -52 -106t-99 -29q-15 0 -31 2l4 18q18 -2 33 -2q49 0 80.5 23.5t45.5 95.5z" />
    <glyph glyph-name="florin" unicode="&#x192;" horiz-adv-x="353" 
d="M80 -51l107 551h-120l3 18h120l14 72q27 140 163 140q30 0 57 -3l-4 -18q-28 3 -59 3q-54 0 -88 -25.5t-49 -98.5l-14 -70h163l-3 -18h-163l-108 -553q-28 -140 -162 -140q-31 0 -56 3l3 18q30 -3 59 -3q53 0 88 26t49 98z" />
    <glyph glyph-name="Aringacute" unicode="&#x1fa;" horiz-adv-x="648" 
d="M334 749q7 35 36.5 59t64.5 24q31 0 50.5 -19t19.5 -48q0 -33 -22.5 -60t-54.5 -36l140 -669h-22l-44 211h-374l-126 -211h-22l400 669q-22 6 -35 23.5t-13 40.5q0 4 2 16zM408 666h-10l-260 -437h360zM354 749q-1 -4 -1 -13q0 -23 14.5 -37.5t38.5 -14.5q30 0 54.5 23.5
t24.5 54.5q0 23 -14.5 37.5t-38.5 14.5q-27 0 -50 -19t-28 -46zM553 989l10 -15l-152 -95l-10 15z" />
    <glyph glyph-name="aringacute" unicode="&#x1fb;" horiz-adv-x="559" 
d="M428 102l61 314q-27 40 -73.5 68t-97.5 28q-198 0 -248 -253q-10 -47 -10 -88q0 -165 160 -165q51 0 108 28t100 68zM409 0l15 78q-107 -90 -215 -90q-82 0 -125.5 45.5t-43.5 134.5q0 42 10 91q26 133 95 202t170 69q106 0 179 -90l15 78h20l-100 -518h-20zM497 909
l10 -15l-151 -95l-10 15zM279 669q7 35 36.5 59t64.5 24q31 0 50.5 -19t19.5 -48q0 -40 -32 -69.5t-71 -29.5q-31 0 -50.5 18.5t-19.5 47.5q0 5 2 17zM299 669q-1 -4 -1 -13q0 -23 14.5 -37.5t38.5 -14.5q30 0 54.5 23.5t24.5 53.5q0 23 -15 38t-39 15q-27 0 -49.5 -19
t-27.5 -46z" />
    <glyph glyph-name="AEacute" unicode="&#x1fc;" horiz-adv-x="854" 
d="M518 700h363l-4 -18h-332l-60 -311h297l-4 -18h-297l-65 -335h341l-3 -18h-361l40 210h-268l-160 -210h-25zM437 228l87 451l-345 -451h258zM742 918l13 -13l-172 -141l-13 12z" />
    <glyph glyph-name="aeacute" unicode="&#x1fd;" horiz-adv-x="925" 
d="M436 124q-9 32 -9 69q0 16 1 25q-72 78 -184 78q-83 0 -140.5 -48.5t-57.5 -126.5q0 -53 38.5 -84t103.5 -31q73 0 137.5 31.5t110.5 86.5zM745 530q74 0 120 -33t46 -91q0 -79 -66 -128.5t-165 -49.5q-134 0 -219 62q-13 -42 -13 -93q0 -83 45.5 -137t134.5 -54
q117 0 196 85l14 -11q-86 -92 -214 -92q-140 0 -182 116q-107 -116 -256 -116q-73 0 -117 35t-44 94q0 87 66 142t158 55q117 0 182 -72l20 101q6 30 6 53q0 116 -140 116q-95 0 -184 -62l-11 14q96 66 199 66q157 0 157 -128q0 -10 -2 -30q42 73 112.5 115.5t156.5 42.5z
M683 246q94 0 150.5 45.5t56.5 111.5q0 50 -40.5 79.5t-110.5 29.5q-94 0 -167.5 -56.5t-105.5 -149.5q88 -60 217 -60zM670 744l14 -13l-173 -141l-12 12z" />
    <glyph glyph-name="Oslashacute" unicode="&#x1fe;" horiz-adv-x="696" 
d="M15 -26l94 104q-47 67 -47 171q0 190 110 326.5t264 136.5q112 0 175 -76l91 101l15 -10l-96 -105q48 -69 48 -174q0 -189 -110.5 -324.5t-263.5 -135.5q-111 0 -175 75l-89 -99zM93 350q-11 -55 -11 -98q0 -96 42 -158l473 527q-57 73 -165 73q-125 0 -217.5 -96.5
t-121.5 -247.5zM639 350q9 49 9 95q0 97 -41 161l-473 -527q59 -73 165 -73q126 0 218 96.5t122 247.5zM557 918l13 -13l-172 -141l-13 12z" />
    <glyph glyph-name="oslashacute" unicode="&#x1ff;" horiz-adv-x="566" 
d="M468 477l75 83l12 -10l-76 -84q44 -57 44 -140q0 -140 -88.5 -239t-204.5 -99q-84 0 -134 52l-74 -82l-12 10l76 84q-43 54 -43 138q0 141 88.5 240.5t204.5 99.5q82 0 132 -53zM496 259q6 33 6 63q0 77 -37 128l-355 -394q47 -50 124 -50q92 0 166 70t96 183zM332 512
q-105 0 -187 -92t-82 -228q0 -75 37 -124l354 394q-45 50 -122 50zM467 744l14 -13l-173 -141l-12 12z" />
    <glyph glyph-name="Scommaaccent" unicode="&#x218;" horiz-adv-x="567" 
d="M220 -60l18 -6l-99 -183l-18 6zM239 6q110 0 175 57.5t65 145.5q0 56 -43 92t-139 67q-87 28 -129 63t-42 86q0 84 64 139.5t161 55.5q134 0 209 -99l-19 -13q-67 94 -194 94q-88 0 -144.5 -50.5t-56.5 -124.5q0 -45 39.5 -76.5t123.5 -58.5q99 -32 144.5 -71t45.5 -101
q0 -98 -73 -161t-191 -63q-139 0 -224 96l19 14q38 -46 94 -69t115 -23z" />
    <glyph glyph-name="scommaaccent" unicode="&#x219;" horiz-adv-x="474" 
d="M189 6q82 0 137 41.5t55 104.5q0 42 -35.5 70t-110.5 49q-76 21 -112.5 46t-36.5 68q0 64 54.5 104.5t134.5 40.5q99 0 161 -59l-17 -14q-55 55 -147 55q-71 0 -118.5 -34t-47.5 -89q0 -36 34 -58t109 -43q78 -22 115.5 -53.5t37.5 -77.5q0 -78 -63.5 -123.5
t-154.5 -45.5q-115 0 -187 78l17 14q32 -35 79.5 -54.5t95.5 -19.5zM185 -60l18 -6l-99 -183l-18 6z" />
    <glyph glyph-name="uni021A" unicode="&#x21a;" horiz-adv-x="522" 
d="M201 0l132 682h-236l4 18h492l-4 -18h-236l-132 -682h-20zM188 -60l18 -6l-99 -183l-18 6z" />
    <glyph glyph-name="uni021B" unicode="&#x21b;" horiz-adv-x="353" 
d="M270 8l-3 -18q-24 -2 -44 -2q-55 0 -84.5 21.5t-29.5 73.5q0 17 5 45l73 372h-120l3 18h120l30 155h20l-30 -155h163l-3 -18h-163l-72 -370q-5 -27 -5 -43q0 -81 94 -81q22 0 46 2zM155 -60l18 -6l-99 -183l-18 6z" />
    <glyph glyph-name="dotlessj" unicode="&#x237;" horiz-adv-x="190" 
d="M18 -87l117 605h20l-118 -607q-15 -77 -52 -106t-99 -29q-15 0 -31 2l4 18q18 -2 33 -2q50 0 81 23.5t45 95.5z" />
    <glyph glyph-name="apostrophe" unicode="&#x2bc;" horiz-adv-x="400" 
d="M327 743l18 -5l-130 -231l-18 5z" />
    <glyph glyph-name="circumflex" unicode="&#x2c6;" horiz-adv-x="400" 
d="M284 730h14l115 -162l-16 -12l-109 156l-169 -156l-12 12z" />
    <glyph glyph-name="caron" unicode="&#x2c7;" horiz-adv-x="400" 
d="M267 568h-14l-115 162l17 12l108 -156l170 156l11 -12z" />
    <glyph glyph-name="uni02C9" unicode="&#x2c9;" horiz-adv-x="400" 
d="M138 639l3 18h272l-3 -18h-272z" />
    <glyph glyph-name="breve" unicode="&#x2d8;" horiz-adv-x="400" 
d="M264 591q-48 0 -80.5 30.5t-36.5 84.5l20 5q2 -43 28.5 -72.5t72.5 -29.5t84 29.5t57 72.5l18 -5q-26 -54 -70.5 -84.5t-92.5 -30.5z" />
    <glyph glyph-name="dotaccent" unicode="&#x2d9;" horiz-adv-x="400" 
d="M253 644q0 10 8.5 18.5t18.5 8.5q18 0 18 -18q0 -10 -8.5 -18t-18.5 -8q-18 0 -18 17z" />
    <glyph glyph-name="ring" unicode="&#x2da;" horiz-adv-x="400" 
d="M191 649q7 35 36.5 59t64.5 24q31 0 50.5 -19t19.5 -48q0 -40 -31 -69.5t-71 -29.5q-31 0 -51 19t-20 48q0 4 2 16zM211 649q-1 -4 -1 -13q0 -23 14.5 -37.5t38.5 -14.5q30 0 54.5 23.5t24.5 53.5q0 23 -15 38t-39 15q-27 0 -49.5 -19t-27.5 -46z" />
    <glyph glyph-name="ogonek" unicode="&#x2db;" horiz-adv-x="400" 
d="M157 0h23q-105 -65 -105 -142q0 -27 16 -43t45 -16q42 0 83 34l9 -14q-45 -38 -96 -38q-36 0 -57 21t-21 54q0 80 103 144z" />
    <glyph glyph-name="tilde" unicode="&#x2dc;" horiz-adv-x="400" 
d="M269 641q-29 34 -61 34q-44 0 -73 -59l-18 4q37 73 95 73q40 0 73 -39q27 -31 57 -31q43 0 74 59l18 -4q-38 -73 -95 -73q-37 0 -70 36z" />
    <glyph glyph-name="hungarumlaut" unicode="&#x2dd;" horiz-adv-x="400" 
d="M284 724l14 -13l-173 -141l-12 12zM424 724l14 -13l-173 -141l-12 12z" />
    <glyph glyph-name="gravecomb" unicode="&#x300;" horiz-adv-x="0" 
d="M-278 711l18 13l117 -142l-18 -12z" />
    <glyph glyph-name="acutecomb" unicode="&#x301;" horiz-adv-x="0" 
d="M-77 724l14 -13l-173 -141l-12 12z" />
    <glyph glyph-name="uni0302" unicode="&#x302;" horiz-adv-x="0" 
d="M-168 730h14l114 -162l-15 -12l-109 156l-169 -156l-12 12z" />
    <glyph glyph-name="tildecomb" unicode="&#x303;" horiz-adv-x="0" 
d="M-184 641q-29 34 -61 34q-43 0 -73 -59l-18 4q18 36 43.5 54.5t51.5 18.5q40 0 73 -39q27 -31 57 -31q43 0 74 59l18 -4q-38 -73 -95 -73q-37 0 -70 36z" />
    <glyph glyph-name="uni0304" unicode="&#x304;" horiz-adv-x="0" 
d="M-316 640l3 18h271l-3 -18h-271z" />
    <glyph glyph-name="uni0306" unicode="&#x306;" horiz-adv-x="0" 
d="M-188 591q-48 0 -80.5 30.5t-36.5 84.5l20 5q2 -43 28.5 -72.5t72.5 -29.5t84 29.5t56 72.5l18 -5q-26 -54 -70 -84.5t-92 -30.5z" />
    <glyph glyph-name="uni0307" unicode="&#x307;" horiz-adv-x="0" 
d="M-199 644q0 10 8.5 18.5t18.5 8.5q18 0 18 -18q0 -10 -8.5 -18t-18.5 -8q-18 0 -18 17z" />
    <glyph glyph-name="uni0308" unicode="&#x308;" horiz-adv-x="0" 
d="M-286 644q0 10 8 18.5t19 8.5q18 0 18 -18q0 -10 -8.5 -18t-18.5 -8q-18 0 -18 17zM-112 644q0 10 8 18.5t19 8.5q18 0 18 -18q0 -10 -8.5 -18t-18.5 -8q-18 0 -18 17z" />
    <glyph glyph-name="uni030A" unicode="&#x30a;" horiz-adv-x="0" 
d="M-261 649q7 35 36.5 59t64.5 24q31 0 50.5 -19t19.5 -48q0 -40 -31 -69.5t-71 -29.5q-31 0 -51 19t-20 48q0 4 2 16zM-241 649q-1 -4 -1 -13q0 -23 14.5 -37.5t38.5 -14.5q30 0 54.5 23.5t24.5 53.5q0 23 -15 38t-39 15q-27 0 -49.5 -19t-27.5 -46z" />
    <glyph glyph-name="uni030C" unicode="&#x30c;" horiz-adv-x="0" 
d="M-185 568h-14l-115 162l17 12l108 -156l169 156l11 -12z" />
    <glyph glyph-name="uni0327" unicode="&#x327;" horiz-adv-x="0" 
d="M-365 -238q-44 0 -74 28l14 14q24 -24 63 -24q44 0 67 21.5t23 52.5q0 56 -93 63l-2 4l56 79h20l-47 -69q86 -13 86 -74q0 -40 -30.5 -67.5t-82.5 -27.5z" />
    <glyph glyph-name="uni03A9" unicode="&#x3a9;" horiz-adv-x="696" 
d="M358 712q137 0 215 -97t78 -245q0 -114 -55.5 -204.5t-143.5 -147.5h185v-18h-217v16q97 61 154 150.5t57 203.5q0 142 -72.5 233t-200.5 91t-200.5 -91t-72.5 -233q0 -114 57 -203.5t154 -150.5v-16h-217v18h185q-88 56 -143.5 147t-55.5 205q0 148 78 245t215 97z" />
    <glyph glyph-name="uni0400" unicode="&#x400;" horiz-adv-x="554" 
d="M40 0l136 700h405l-4 -18h-385l-60 -311h350l-4 -18h-350l-65 -335h394l-3 -18h-414zM315 905l19 13l116 -142l-17 -12z" />
    <glyph glyph-name="afii10023" unicode="&#x401;" horiz-adv-x="554" 
d="M40 0l136 700h405l-4 -18h-385l-60 -311h350l-4 -18h-350l-65 -335h394l-3 -18h-414zM299 838q0 10 8.5 18.5t18.5 8.5q18 0 18 -18q0 -10 -8.5 -18t-18.5 -8q-18 0 -18 17zM473 838q0 10 8.5 18.5t18.5 8.5q18 0 18 -18q0 -10 -8.5 -18t-18.5 -8q-18 0 -18 17z" />
    <glyph glyph-name="afii10051" unicode="&#x402;" horiz-adv-x="729" 
d="M412 0l3 18h23q98 0 159.5 82.5t61.5 188.5q0 71 -40.5 112t-116.5 41q-49 0 -105.5 -20.5t-104.5 -55.5l-71 -366h-20l132 682h-236l4 18h492l-4 -18h-236l-57 -295q46 32 103.5 52.5t106.5 20.5q84 0 129 -45t45 -123q0 -120 -70.5 -206t-173.5 -86h-24z" />
    <glyph glyph-name="afii10052" unicode="&#x403;" horiz-adv-x="508" 
d="M510 918l13 -13l-172 -141l-13 12zM40 0l136 700h398l-4 -18h-378l-132 -682h-20z" />
    <glyph glyph-name="afii10053" unicode="&#x404;" horiz-adv-x="672" 
d="M73 350q30 157 135.5 259.5t238.5 102.5q175 0 240 -140l-19 -11q-64 133 -225 133q-122 0 -220 -94.5t-129 -240.5h382l-3 -18h-382q-8 -45 -8 -80q0 -115 61.5 -185t165.5 -70q162 0 276 133l14 -11q-118 -140 -294 -140q-111 0 -176.5 74t-65.5 196q0 44 9 92z" />
    <glyph glyph-name="afii10054" unicode="&#x405;" horiz-adv-x="567" 
d="M239 6q110 0 175 57.5t65 145.5q0 56 -43 92t-139 67q-87 28 -129 63t-42 86q0 84 64 139.5t161 55.5q134 0 209 -99l-19 -13q-67 94 -194 94q-88 0 -144.5 -50.5t-56.5 -124.5q0 -45 39.5 -76.5t123.5 -58.5q99 -32 144.5 -71t45.5 -101q0 -98 -73 -161t-191 -63
q-139 0 -224 96l19 14q38 -46 94 -69t115 -23z" />
    <glyph glyph-name="afii10055" unicode="&#x406;" horiz-adv-x="210" 
d="M181 700h20l-136 -700h-20z" />
    <glyph glyph-name="afii10056" unicode="&#x407;" horiz-adv-x="210" 
d="M181 700h20l-136 -700h-20zM109 838q0 10 8.5 18.5t18.5 8.5q18 0 18 -18q0 -10 -8.5 -18t-18.5 -8q-18 0 -18 17zM283 838q0 10 8.5 18.5t18.5 8.5q18 0 18 -18q0 -10 -8.5 -18t-18.5 -8q-18 0 -18 17z" />
    <glyph glyph-name="afii10057" unicode="&#x408;" horiz-adv-x="526" 
d="M7 115l18 10q44 -119 170 -119q75 0 133.5 54.5t78.5 153.5l95 486h20l-95 -486q-22 -114 -88.5 -170t-146.5 -56q-136 0 -185 127z" />
    <glyph glyph-name="afii10058" unicode="&#x409;" horiz-adv-x="1022" 
d="M268 700h410l-61 -310h174q89 0 136 -39.5t47 -109.5q0 -107 -71.5 -174t-186.5 -67h-194l132 682h-370l-105 -541q-15 -80 -53 -116.5t-114 -36.5q-25 0 -44 3l3 18q25 -3 48 -3q62 0 93.5 31t46.5 106zM949 195q4 20 4 43q0 62 -43 98t-129 36h-167l-69 -354h167
q100 0 160.5 48t76.5 129z" />
    <glyph glyph-name="afii10059" unicode="&#x40a;" horiz-adv-x="991" 
d="M627 700h20l-61 -310h174q89 0 136 -39.5t47 -109.5q0 -107 -71.5 -174t-186.5 -67h-194l72 372h-431l-72 -372h-20l136 700h20l-61 -310h431zM918 195q4 20 4 43q0 62 -43 98t-129 36h-167l-69 -354h167q100 0 160.5 48t76.5 129z" />
    <glyph glyph-name="afii10060" unicode="&#x40b;" horiz-adv-x="754" 
d="M201 0l132 682h-236l4 18h492l-4 -18h-236l-55 -285q100 63 208 63q86 0 130.5 -40.5t44.5 -118.5q0 -25 -7 -65l-45 -236h-20l45 234q6 33 6 62q0 71 -40 108.5t-118 37.5q-109 0 -208 -65l-73 -377h-20z" />
    <glyph glyph-name="afii10061" unicode="&#x40c;" horiz-adv-x="585" 
d="M196 700l-99 -508l496 508h26l-277 -283l173 -417h-24l-166 400l-234 -240l-31 -160h-20l136 700h20zM537 918l13 -13l-172 -141l-13 12z" />
    <glyph glyph-name="uni040D" unicode="&#x40d;" horiz-adv-x="688" 
d="M350 905l19 13l116 -142l-17 -12zM538 0l136 700h-20l-588 -667l130 667h-20l-136 -700h20l587 666l-129 -666h20z" />
    <glyph glyph-name="afii10062" unicode="&#x40e;" horiz-adv-x="553" 
d="M287 250l305 450h22l-474 -700h-22l154 228l-161 472h22zM378 783q-48 0 -80.5 30.5t-37.5 84.5l20 5q2 -43 28.5 -72.5t72.5 -29.5t84.5 29.5t56.5 72.5l18 -5q-26 -54 -70 -84.5t-92 -30.5z" />
    <glyph glyph-name="afii10145" unicode="&#x40f;" horiz-adv-x="676" 
d="M40 0l136 700h20l-133 -682h456l133 682h20l-136 -700h-238l-24 -120h-20l24 120h-238z" />
    <glyph glyph-name="afii10017" unicode="&#x410;" horiz-adv-x="648" 
d="M399 700h22l147 -700h-22l-44 211h-374l-126 -211h-22zM405 678l-267 -449h360z" />
    <glyph glyph-name="afii10018" unicode="&#x411;" horiz-adv-x="540" 
d="M176 700h351l-4 -18h-331l-57 -292h174q89 0 136 -39.5t47 -109.5q0 -107 -71.5 -174t-186.5 -67h-194zM467 195q4 20 4 43q0 62 -43 98t-129 36h-167l-69 -354h167q100 0 160.5 48t76.5 129z" />
    <glyph glyph-name="afii10019" unicode="&#x412;" horiz-adv-x="606" 
d="M40 0l136 700h217q86 0 133.5 -37.5t47.5 -102.5q0 -73 -45 -127.5t-107 -67.5q58 -8 91 -43t33 -92q0 -107 -77 -168.5t-211 -61.5h-218zM132 373h241q73 0 127 53t54 130q0 58 -44.5 92t-126.5 34h-191zM522 187q4 19 4 39q0 60 -40.5 94.5t-115.5 34.5h-241l-66 -337
h196q111 0 179 44t84 125z" />
    <glyph glyph-name="afii10020" unicode="&#x413;" horiz-adv-x="508" 
d="M40 0l136 700h398l-4 -18h-378l-132 -682h-20z" />
    <glyph glyph-name="afii10021" unicode="&#x414;" horiz-adv-x="591" 
d="M514 18l-27 -138h-20l24 120h-491l-24 -120h-20l27 138h49q118 178 185 523l31 159h330l-133 -682h69zM56 18h369l129 664h-291l-28 -145q-62 -324 -179 -519z" />
    <glyph glyph-name="afii10022" unicode="&#x415;" horiz-adv-x="554" 
d="M40 0l136 700h405l-4 -18h-385l-60 -311h350l-4 -18h-350l-65 -335h394l-3 -18h-414z" />
    <glyph glyph-name="afii10024" unicode="&#x416;" horiz-adv-x="890" 
d="M541 700l-97 -495l453 495h27l-269 -293l165 -407h-25l-157 389l-200 -218l-33 -171h-20l33 171l-117 218l-306 -389h-25l323 407l-155 293h27l259 -495l97 495h20z" />
    <glyph glyph-name="afii10025" unicode="&#x417;" horiz-adv-x="559" 
d="M459 175q4 19 4 40q0 67 -47 105.5t-140 38.5h-74l4 18h76q98 0 169 53.5t71 143.5q0 51 -37 85.5t-115 34.5q-115 0 -219 -96l-14 14q116 100 237 100q84 0 126.5 -37t42.5 -95q0 -85 -59 -143t-139 -69q67 -11 102.5 -48t35.5 -98q0 -100 -68 -167.5t-187 -67.5
q-139 0 -214 105l19 13q69 -100 198 -100q95 0 154.5 48.5t73.5 121.5z" />
    <glyph glyph-name="afii10026" unicode="&#x418;" horiz-adv-x="678" 
d="M674 700l-136 -700h-20l129 666l-587 -666h-20l136 700h20l-130 -667l588 667h20z" />
    <glyph glyph-name="afii10027" unicode="&#x419;" horiz-adv-x="678" 
d="M538 0l136 700h-20l-588 -667l130 667h-20l-136 -700h20l587 666l-129 -666h20zM441 783q-48 0 -80.5 30.5t-37.5 84.5l20 5q2 -43 28.5 -72.5t72.5 -29.5t84.5 29.5t56.5 72.5l18 -5q-26 -54 -70 -84.5t-92 -30.5z" />
    <glyph glyph-name="afii10028" unicode="&#x41a;" horiz-adv-x="585" 
d="M196 700l-99 -508l496 508h26l-277 -283l173 -417h-24l-166 400l-234 -240l-31 -160h-20l136 700h20z" />
    <glyph glyph-name="afii10029" unicode="&#x41b;" horiz-adv-x="702" 
d="M284 682l-105 -541q-15 -80 -53 -116.5t-114 -36.5q-25 0 -44 3l3 18q25 -3 48 -3q62 0 93.5 31t46.5 106l109 557h430l-136 -700h-20l132 682h-390z" />
    <glyph glyph-name="afii10030" unicode="&#x41c;" horiz-adv-x="824" 
d="M820 700l-136 -700h-20l128 663l-391 -504h-18l-195 504l-128 -663h-20l136 700h20l201 -519l403 519h20z" />
    <glyph glyph-name="afii10031" unicode="&#x41d;" horiz-adv-x="672" 
d="M40 0l136 700h20l-62 -317h452l62 317h20l-136 -700h-20l70 365h-452l-70 -365h-20z" />
    <glyph glyph-name="afii10032" unicode="&#x41e;" horiz-adv-x="696" 
d="M659 350q-31 -158 -130.5 -260t-233.5 -102q-111 0 -172 71.5t-61 189.5q0 190 110 326.5t264 136.5q111 0 172 -72t61 -191q0 -50 -10 -99zM93 350q-10 -49 -10 -98q0 -112 56.5 -179t159.5 -67q144 0 247 130t103 311q0 112 -56.5 179.5t-160.5 67.5
q-125 0 -217.5 -96.5t-121.5 -247.5z" />
    <glyph glyph-name="afii10033" unicode="&#x41f;" horiz-adv-x="677" 
d="M40 0l136 700h497l-136 -700h-20l132 682h-457l-132 -682h-20z" />
    <glyph glyph-name="afii10034" unicode="&#x420;" horiz-adv-x="564" 
d="M565 494q-20 -99 -95 -152.5t-196 -53.5h-159l-55 -288h-20l136 700h179q105 0 160 -41t55 -118q0 -19 -5 -47zM545 494q4 20 4 43q0 71 -52.5 108t-151.5 37h-153l-73 -376h153q113 0 183.5 47.5t89.5 140.5z" />
    <glyph glyph-name="afii10035" unicode="&#x421;" horiz-adv-x="672" 
d="M73 350q30 157 135.5 259.5t238.5 102.5q175 0 240 -140l-19 -11q-64 133 -225 133q-142 0 -250.5 -127t-108.5 -306q0 -115 61 -185t165 -70q162 0 276 133l14 -11q-118 -140 -294 -140q-111 0 -176.5 74t-65.5 196q0 44 9 92z" />
    <glyph glyph-name="afii10036" unicode="&#x422;" horiz-adv-x="522" 
d="M201 0l132 682h-236l4 18h492l-4 -18h-236l-132 -682h-20z" />
    <glyph glyph-name="afii10037" unicode="&#x423;" horiz-adv-x="553" 
d="M287 250l305 450h22l-474 -700h-22l154 228l-161 472h22z" />
    <glyph glyph-name="afii10038" unicode="&#x424;" horiz-adv-x="694" 
d="M657 350q-22 -111 -113.5 -177t-218.5 -68l-20 -105h-20l20 105q-110 2 -173.5 53.5t-63.5 140.5q0 129 96 210t236 86l21 105h20l-21 -105q111 -2 176.5 -54.5t65.5 -142.5q0 -20 -5 -48zM637 350q4 21 4 46q0 83 -59.5 131t-164.5 50l-89 -454q121 2 205 63t104 164z
M93 350q-5 -28 -5 -48q0 -82 58.5 -129.5t161.5 -49.5l89 454q-119 -3 -202 -64t-102 -163z" />
    <glyph glyph-name="afii10039" unicode="&#x425;" horiz-adv-x="563" 
d="M290 364l-159 336h23l151 -319l276 319h23l-291 -336l175 -364h-24l-166 347l-299 -347h-24z" />
    <glyph glyph-name="afii10040" unicode="&#x426;" horiz-adv-x="685" 
d="M539 18h69l-27 -138h-20l24 120h-545l136 700h20l-133 -682h456l133 682h20z" />
    <glyph glyph-name="afii10041" unicode="&#x427;" horiz-adv-x="593" 
d="M569 700h20l-136 -700h-20l60 310q-99 -55 -197 -55q-86 0 -130.5 40.5t-44.5 118.5q0 33 7 65l43 221h20l-43 -219q-5 -23 -7 -62q0 -71 40.5 -108.5t118.5 -37.5q101 0 197 58z" />
    <glyph glyph-name="afii10042" unicode="&#x428;" horiz-adv-x="802" 
d="M40 0l136 700h20l-133 -682h281l133 682h20l-133 -682h281l133 682h20l-136 -700h-622z" />
    <glyph glyph-name="afii10043" unicode="&#x429;" horiz-adv-x="811" 
d="M40 0l136 700h20l-133 -682h281l133 682h20l-133 -682h281l133 682h20l-133 -682h69l-27 -138h-20l24 120h-671z" />
    <glyph glyph-name="afii10044" unicode="&#x42a;" horiz-adv-x="630" 
d="M106 700h180l-61 -310h174q89 0 136 -39.5t47 -109.5q0 -107 -71.5 -174t-186.5 -67h-194l132 682h-160zM557 195q4 20 4 43q0 62 -43 98t-129 36h-167l-69 -354h167q100 0 160.5 48t76.5 129z" />
    <glyph glyph-name="afii10045" unicode="&#x42b;" horiz-adv-x="718" 
d="M694 700h20l-136 -700h-20zM176 700h20l-61 -310h174q89 0 136 -39.5t47 -109.5q0 -107 -71.5 -174t-186.5 -67h-194zM467 195q4 20 4 43q0 62 -43 98t-129 36h-167l-69 -354h167q100 0 160.5 48t76.5 129z" />
    <glyph glyph-name="afii10046" unicode="&#x42c;" horiz-adv-x="540" 
d="M176 700h20l-61 -310h174q89 0 136 -39.5t47 -109.5q0 -107 -71.5 -174t-186.5 -67h-194zM467 195q4 20 4 43q0 62 -43 98t-129 36h-167l-69 -354h167q100 0 160.5 48t76.5 129z" />
    <glyph glyph-name="afii10047" unicode="&#x42d;" horiz-adv-x="672" 
d="M635 350q-31 -157 -137 -259.5t-238 -102.5q-175 0 -240 140l20 11q62 -133 224 -133q122 0 220 94.5t129 240.5h-382l3 18h382q7 39 7 80q0 115 -61 185t-165 70q-162 0 -275 -133l-15 11q118 140 294 140q111 0 177 -75t66 -197q0 -44 -9 -90z" />
    <glyph glyph-name="afii10048" unicode="&#x42e;" horiz-adv-x="785" 
d="M176 700h20l-67 -341h124q32 160 118.5 256.5t198.5 96.5q91 0 140.5 -65t49.5 -179q0 -55 -12 -118q-32 -164 -119 -263t-200 -99q-91 0 -140.5 64.5t-49.5 177.5q0 48 11 111h-124l-66 -341h-20zM272 350q-13 -62 -13 -119q0 -106 45 -165.5t129 -59.5q106 0 185 93.5
t110 250.5q12 63 12 117q0 107 -45 167t-129 60q-106 0 -185 -93.5t-109 -250.5z" />
    <glyph glyph-name="afii10049" unicode="&#x42f;" horiz-adv-x="582" 
d="M392 700h186l-136 -700h-20l61 318h-161q-31 0 -66 5l-263 -323h-23l267 326q-133 31 -133 145q0 107 83.5 168t204.5 61zM124 475q0 -65 52 -102t150 -37h161l67 346h-161q-118 0 -193.5 -56.5t-75.5 -150.5z" />
    <glyph glyph-name="afii10065" unicode="&#x430;" horiz-adv-x="559" 
d="M428 102l61 314q-27 40 -73.5 68t-97.5 28q-198 0 -248 -253q-10 -47 -10 -88q0 -165 160 -165q51 0 108 28t100 68zM409 0l15 78q-107 -90 -215 -90q-82 0 -125.5 45.5t-43.5 134.5q0 42 10 91q26 133 95 202t170 69q106 0 179 -90l15 78h20l-100 -518h-20z" />
    <glyph glyph-name="afii10066" unicode="&#x431;" horiz-adv-x="530" 
d="M560 722q-165 -15 -278.5 -85.5t-165.5 -223.5q41 37 96.5 60t104.5 23q82 0 125 -45t43 -130q0 -150 -77.5 -241.5t-179.5 -91.5q-170 0 -170 207q0 56 14 129q37 189 156 294.5t340 123.5zM313 478q-49 0 -104 -24t-101 -67q-29 -90 -29 -189q0 -97 40 -144.5
t113 -47.5q96 0 164.5 90t68.5 223q0 79 -39.5 119t-112.5 40z" />
    <glyph glyph-name="afii10067" unicode="&#x432;" horiz-adv-x="497" 
d="M197 0h-167l100 518h173q145 0 145 -99q0 -53 -31.5 -94.5t-96.5 -54.5q51 -4 79 -31t28 -71q0 -72 -57.5 -120t-172.5 -48zM425 389q3 15 3 28q0 83 -135 83h-146l-43 -222h159q79 0 116 33t46 78zM403 137q3 17 3 32q0 91 -148 91h-158l-47 -242h150q90 0 139.5 33
t60.5 86z" />
    <glyph glyph-name="afii10068" unicode="&#x433;" horiz-adv-x="418" 
d="M455 500h-308l-97 -500h-20l100 518h328z" />
    <glyph glyph-name="afii10069" unicode="&#x434;" horiz-adv-x="536" 
d="M459 18l-25 -128h-20l22 110h-436l-22 -110h-20l25 128h49q106 157 147 374l24 126h284l-97 -500h69zM54 18h316l94 482h-244l-21 -104q-46 -228 -145 -378z" />
    <glyph glyph-name="afii10070" unicode="&#x435;" horiz-adv-x="541" 
d="M296 228q-134 0 -219 62q-13 -42 -13 -93q0 -83 45.5 -137t134.5 -54q117 0 196 85l14 -11q-86 -92 -214 -92q-97 0 -147 57t-50 147q0 142 93 240t225 98q74 0 120 -33t46 -91q0 -79 -66 -128.5t-165 -49.5zM355 512q-94 0 -167.5 -56.5t-105.5 -149.5q88 -60 217 -60
q94 0 150.5 45.5t56.5 111.5q0 50 -40.5 79.5t-110.5 29.5z" />
    <glyph glyph-name="afii10072" unicode="&#x436;" horiz-adv-x="734" 
d="M427 518l-68 -352l355 352h28l-217 -213l149 -305h-24l-141 289l-156 -152l-26 -137h-20l26 137l-96 152l-253 -289h-24l267 305l-135 213h28l219 -352l68 352h20z" />
    <glyph glyph-name="afii10073" unicode="&#x437;" horiz-adv-x="469" 
d="M390 134q-13 -64 -74.5 -105t-144.5 -41q-53 0 -102.5 20t-81.5 56l17 14q31 -35 78 -53.5t96 -18.5q80 0 137 45.5t57 102.5q0 52 -51 81.5t-127 29.5h-56l4 18h53q92 0 151.5 40t59.5 101q0 41 -36.5 64.5t-95.5 23.5q-89 0 -168 -57l-11 14q87 61 181 61q68 0 109 -27
t41 -75q0 -56 -45.5 -99.5t-125.5 -55.5q137 -20 137 -115q0 -16 -2 -24z" />
    <glyph glyph-name="afii10074" unicode="&#x438;" horiz-adv-x="572" 
d="M442 0h-20l94 486l-466 -486h-20l100 518h20l-94 -486l466 486h20z" />
    <glyph glyph-name="afii10075" unicode="&#x439;" horiz-adv-x="572" 
d="M442 0h-20l94 486l-466 -486h-20l100 518h20l-94 -486l466 486h20zM354 611q-48 0 -80.5 30.5t-36.5 84.5l20 5q2 -43 28.5 -72.5t72.5 -29.5t84 29.5t57 72.5l18 -5q-26 -54 -70.5 -84.5t-92.5 -30.5z" />
    <glyph glyph-name="afii10076" unicode="&#x43a;" horiz-adv-x="478" 
d="M150 518l-68 -353l376 353h28l-222 -207l154 -311h-24l-147 296l-171 -159l-26 -137h-20l100 518h20z" />
    <glyph glyph-name="afii10077" unicode="&#x43b;" horiz-adv-x="576" 
d="M-42 -10l3 19q24 -3 41 -3q53 0 83.5 30.5t44.5 103.5l73 378h343l-100 -518h-20l97 500h-303l-71 -365q-16 -79 -51.5 -113t-100.5 -34q-19 0 -39 2z" />
    <glyph glyph-name="afii10078" unicode="&#x43c;" horiz-adv-x="668" 
d="M50 0h-20l100 518h20l164 -361l304 361h20l-100 -518h-20l93 480l-293 -347h-18l-157 348z" />
    <glyph glyph-name="afii10079" unicode="&#x43d;" horiz-adv-x="554" 
d="M106 291h354l44 227h20l-100 -518h-20l53 273h-354l-53 -273h-20l100 518h20z" />
    <glyph glyph-name="afii10080" unicode="&#x43e;" horiz-adv-x="566" 
d="M516 259q-23 -119 -103.5 -195t-182.5 -76q-86 0 -136.5 55.5t-50.5 147.5q0 141 88.5 240t204.5 99q86 0 136.5 -56t50.5 -147q0 -34 -7 -68zM496 259q6 35 6 64q0 87 -46.5 138t-123.5 51q-105 0 -187 -91.5t-82 -227.5q0 -85 47 -136t124 -51q92 0 166 70t96 183z" />
    <glyph glyph-name="afii10081" unicode="&#x43f;" horiz-adv-x="539" 
d="M30 0l100 518h379l-100 -518h-20l97 500h-339l-97 -500h-20z" />
    <glyph glyph-name="afii10082" unicode="&#x440;" horiz-adv-x="559" 
d="M131 419l-62 -320q27 -40 73.5 -66.5t98.5 -26.5q198 0 248 253q9 48 9 88q0 165 -159 165q-52 0 -108.5 -26.5t-99.5 -66.5zM150 518l-14 -75q104 87 214 87q81 0 125 -45.5t44 -134.5q0 -36 -10 -91q-26 -133 -95 -202t-170 -69q-110 0 -180 87l-56 -287h-20l142 730
h20z" />
    <glyph glyph-name="afii10083" unicode="&#x441;" horiz-adv-x="535" 
d="M50 259q24 123 107.5 197t183.5 74q133 0 181 -104l-18 -10q-46 96 -167 96q-106 0 -190 -91t-84 -231q0 -85 50 -134.5t126 -49.5q120 0 204 96l14 -10q-88 -104 -222 -104q-85 0 -138.5 54t-53.5 149q0 34 7 68z" />
    <glyph glyph-name="afii10084" unicode="&#x442;" horiz-adv-x="464" 
d="M172 0l97 500h-207l3 18h434l-3 -18h-207l-97 -500h-20z" />
    <glyph glyph-name="afii10085" unicode="&#x443;" horiz-adv-x="485" 
d="M203 33l285 485h22l-429 -730h-22l129 218l-113 512h22z" />
    <glyph glyph-name="afii10086" unicode="&#x444;" horiz-adv-x="872" 
d="M334 -212l55 283q-91 -83 -193 -83q-157 0 -157 172q0 42 11 99q25 133 89.5 202t162.5 69q100 0 160 -84l55 284h20l-55 -284q92 84 194 84q156 0 156 -174q0 -46 -10 -97q-26 -133 -90.5 -202t-161.5 -69q-101 0 -161 83l-55 -283h-20zM665 512q-95 0 -187 -90
l-64 -327q58 -89 153 -89q186 0 235 253q10 51 10 97q0 156 -147 156zM207 6q93 0 187 89l64 327q-62 90 -153 90q-186 0 -235 -253q-11 -57 -11 -97q0 -156 148 -156z" />
    <glyph glyph-name="afii10087" unicode="&#x445;" horiz-adv-x="458" 
d="M363 0l-135 257l-233 -257h-25l250 274l-128 244h24l119 -228l207 228h24l-222 -244l144 -274h-25z" />
    <glyph glyph-name="afii10088" unicode="&#x446;" horiz-adv-x="558" 
d="M412 18h69l-25 -128h-20l22 110h-428l100 518h20l-97 -500h339l97 500h20z" />
    <glyph glyph-name="afii10089" unicode="&#x447;" horiz-adv-x="565" 
d="M252 218q51 0 115 27.5t109 68.5l39 204h20l-100 -518h-20l56 290q-46 -39 -110.5 -64.5t-117.5 -25.5q-149 0 -149 130q0 27 6 60l25 128h20l-23 -121q-7 -32 -7 -63q0 -60 33 -88t104 -28z" />
    <glyph glyph-name="afii10090" unicode="&#x448;" horiz-adv-x="676" 
d="M301 18h228l97 500h20l-100 -518h-516l100 518h20l-97 -500h228l97 500h20z" />
    <glyph glyph-name="afii10091" unicode="&#x449;" horiz-adv-x="695" 
d="M549 18h69l-25 -128h-20l22 110h-565l100 518h20l-97 -500h228l97 500h20l-97 -500h228l97 500h20z" />
    <glyph glyph-name="afii10092" unicode="&#x44a;" horiz-adv-x="538" 
d="M256 0h-146l97 500h-150l3 18h170l-41 -210h126q84 0 124.5 -32.5t40.5 -87.5q0 -80 -57.5 -134t-166.5 -54zM457 154q3 16 3 32q0 104 -154 104h-120l-53 -272h120q179 0 204 136z" />
    <glyph glyph-name="afii10093" unicode="&#x44b;" horiz-adv-x="615" 
d="M485 0h-19l100 518h19zM30 0h146q109 0 166.5 54t57.5 134q0 55 -40.5 87.5t-124.5 32.5h-126l41 210h-20zM377 154q-25 -136 -204 -136h-120l53 272h120q154 0 154 -104q0 -16 -3 -32z" />
    <glyph glyph-name="afii10094" unicode="&#x44c;" horiz-adv-x="458" 
d="M176 0h-146l100 518h20l-41 -210h126q84 0 124.5 -32.5t40.5 -87.5q0 -80 -57.5 -134t-166.5 -54zM377 154q3 16 3 32q0 104 -154 104h-120l-53 -272h120q179 0 204 136z" />
    <glyph glyph-name="afii10095" unicode="&#x44d;" horiz-adv-x="535" 
d="M485 259q-24 -123 -107.5 -197t-183.5 -74q-134 0 -182 104l18 10q47 -96 168 -96q90 0 165.5 65.5t99.5 178.5h-282l4 18h282q5 33 5 56q0 88 -49.5 138t-126.5 50q-120 0 -205 -96l-14 10q88 104 223 104q85 0 138.5 -54t53.5 -149q0 -34 -7 -68z" />
    <glyph glyph-name="afii10096" unicode="&#x44e;" horiz-adv-x="691" 
d="M49 0h-19l100 518h19l-48 -250h120q25 118 96 190t166 72q79 0 122.5 -51.5t43.5 -140.5q0 -149 -81 -249.5t-191 -100.5q-79 0 -122.5 51.5t-43.5 140.5q0 32 6 70h-120zM239 259q-8 -43 -8 -76q0 -82 40 -129.5t110 -47.5q98 0 173 94t75 235q0 82 -40 129.5t-110 47.5
q-86 0 -152 -69.5t-88 -183.5z" />
    <glyph glyph-name="afii10097" unicode="&#x44f;" horiz-adv-x="511" 
d="M202 236l-197 -236h-25l200 239q-100 19 -100 107q0 74 56.5 123t155.5 49h189l-100 -518h-20l45 234h-169q-13 0 -35 2zM246 252h163l49 248h-163q-97 0 -146 -43.5t-49 -106.5q0 -45 35 -71.5t111 -26.5z" />
    <glyph glyph-name="uni0450" unicode="&#x450;" horiz-adv-x="541" 
d="M296 228q-134 0 -219 62q-13 -42 -13 -93q0 -83 45.5 -137t134.5 -54q117 0 196 85l14 -11q-86 -92 -214 -92q-97 0 -147 57t-50 147q0 142 93 240t225 98q74 0 120 -33t46 -91q0 -79 -66 -128.5t-165 -49.5zM355 512q-94 0 -167.5 -56.5t-105.5 -149.5q88 -60 217 -60
q94 0 150.5 45.5t56.5 111.5q0 50 -40.5 79.5t-110.5 29.5zM274 731l18 13l117 -142l-18 -12z" />
    <glyph glyph-name="afii10071" unicode="&#x451;" horiz-adv-x="541" 
d="M296 228q-134 0 -219 62q-13 -42 -13 -93q0 -83 45.5 -137t134.5 -54q117 0 196 85l14 -11q-86 -92 -214 -92q-97 0 -147 57t-50 147q0 142 93 240t225 98q74 0 120 -33t46 -91q0 -79 -66 -128.5t-165 -49.5zM355 512q-94 0 -167.5 -56.5t-105.5 -149.5q88 -60 217 -60
q94 0 150.5 45.5t56.5 111.5q0 50 -40.5 79.5t-110.5 29.5zM262 664q0 10 8 18.5t19 8.5q18 0 18 -18q0 -10 -8.5 -18t-18.5 -8q-18 0 -18 17zM436 664q0 10 8 18.5t19 8.5q18 0 18 -18q0 -10 -8.5 -18t-18.5 -8q-18 0 -18 17z" />
    <glyph glyph-name="afii10099" unicode="&#x452;" horiz-adv-x="562" 
d="M88 636h68l18 94h20l-18 -94h205l-3 -18h-205l-37 -189q48 43 109 72t118 29q146 0 146 -129q0 -28 -6 -61l-84 -429q-15 -77 -52.5 -106t-99.5 -29q-15 0 -31 2l4 18q18 -2 33 -2q50 0 81.5 23.5t45.5 95.5l81 420q7 34 7 65q0 59 -31.5 86.5t-98.5 27.5
q-55 0 -115.5 -29.5t-111.5 -78.5l-78 -404h-20l120 618h-68z" />
    <glyph glyph-name="afii10100" unicode="&#x453;" horiz-adv-x="418" 
d="M455 500h-308l-97 -500h-20l100 518h328zM423 744l14 -13l-173 -141l-12 12z" />
    <glyph glyph-name="afii10101" unicode="&#x454;" horiz-adv-x="535" 
d="M50 259q24 123 107.5 197t183.5 74q133 0 181 -104l-18 -10q-46 96 -167 96q-90 0 -165.5 -65.5t-99.5 -178.5h282l-4 -18h-282q-5 -25 -5 -57q0 -88 49 -137.5t127 -49.5q120 0 204 96l14 -10q-88 -104 -222 -104q-85 0 -138.5 54t-53.5 149q0 34 7 68z" />
    <glyph glyph-name="afii10102" unicode="&#x455;" horiz-adv-x="474" 
d="M189 6q82 0 137 41.5t55 104.5q0 42 -35.5 70t-110.5 49q-76 21 -112.5 46t-36.5 68q0 64 54.5 104.5t134.5 40.5q99 0 161 -59l-17 -14q-55 55 -147 55q-71 0 -118.5 -34t-47.5 -89q0 -36 34 -58t109 -43q78 -22 115.5 -53.5t37.5 -77.5q0 -78 -63.5 -123.5
t-154.5 -45.5q-115 0 -187 78l17 14q32 -35 79.5 -54.5t95.5 -19.5z" />
    <glyph glyph-name="afii10103" unicode="&#x456;" horiz-adv-x="200" 
d="M40 0l100 518h20l-100 -518h-20zM156 680q0 12 9.5 21t21.5 9q21 0 21 -21q0 -13 -9.5 -22t-21.5 -9q-21 0 -21 22z" />
    <glyph glyph-name="afii10104" unicode="&#x457;" horiz-adv-x="200" 
d="M40 0l100 518h20l-100 -518h-20zM70 664q0 10 8 18.5t19 8.5q18 0 18 -18q0 -10 -8.5 -18t-18.5 -8q-18 0 -18 17zM244 664q0 10 8 18.5t19 8.5q18 0 18 -18q0 -10 -8.5 -18t-18.5 -8q-18 0 -18 17z" />
    <glyph glyph-name="afii10105" unicode="&#x458;" horiz-adv-x="190" 
d="M18 -87l117 605h20l-118 -607q-15 -77 -52 -106t-99 -29q-15 0 -31 2l4 18q18 -2 33 -2q50 0 81 23.5t45 95.5zM151 680q0 12 9.5 21t21.5 9q21 0 21 -21q0 -13 -9.5 -22t-21.5 -9q-21 0 -21 22z" />
    <glyph glyph-name="afii10106" unicode="&#x459;" horiz-adv-x="804" 
d="M733 154q3 16 3 32q0 104 -154 104h-120l-53 -272h120q179 0 204 136zM130 140l73 378h303l-41 -210h126q84 0 124.5 -32.5t40.5 -87.5q0 -80 -57.5 -134t-166.5 -54h-146l97 500h-263l-71 -365q-16 -79 -51.5 -113t-100.5 -34q-19 0 -39 2l3 19q24 -3 41 -3
q53 0 83.5 30.5t44.5 103.5z" />
    <glyph glyph-name="afii10107" unicode="&#x45a;" horiz-adv-x="792" 
d="M510 0h-146l56 290h-314l-56 -290h-20l100 518h20l-41 -210h314l41 210h20l-41 -210h126q84 0 124.5 -32.5t40.5 -87.5q0 -80 -57.5 -134t-166.5 -54zM711 154q3 16 3 32q0 104 -154 104h-120l-53 -272h120q179 0 204 136z" />
    <glyph glyph-name="afii10108" unicode="&#x45b;" horiz-adv-x="562" 
d="M88 636h68l18 94h20l-18 -94h205l-3 -18h-205l-37 -189q48 43 109 72t118 29q146 0 146 -129q0 -28 -6 -61l-66 -340h-20l64 333q7 34 7 65q0 59 -31.5 86.5t-98.5 27.5q-55 0 -115.5 -29.5t-111.5 -78.5l-78 -404h-20l120 618h-68z" />
    <glyph glyph-name="afii10109" unicode="&#x45c;" horiz-adv-x="478" 
d="M150 518l-68 -353l376 353h28l-222 -207l154 -311h-24l-147 296l-171 -159l-26 -137h-20l100 518h20zM445 744l14 -13l-173 -141l-12 12z" />
    <glyph glyph-name="uni045D" unicode="&#x45d;" horiz-adv-x="572" 
d="M442 0h-20l94 486l-466 -486h-20l100 518h20l-94 -486l466 486h20zM261 731l18 13l117 -142l-18 -12z" />
    <glyph glyph-name="afii10110" unicode="&#x45e;" horiz-adv-x="485" 
d="M488 518l-285 -485l-106 485h-22l113 -512l-129 -218h22l429 730h-22zM310 611q-48 0 -80.5 30.5t-36.5 84.5l20 5q2 -43 28.5 -72.5t72.5 -29.5t84 29.5t57 72.5l18 -5q-26 -54 -70.5 -84.5t-92.5 -30.5z" />
    <glyph glyph-name="afii10193" unicode="&#x45f;" horiz-adv-x="539" 
d="M30 0l100 518h20l-97 -500h339l97 500h20l-100 -518h-180l-22 -110h-20l22 110h-179z" />
    <glyph glyph-name="afii10050" unicode="&#x490;" horiz-adv-x="508" 
d="M40 0l136 700h378l23 123h20l-27 -141h-378l-132 -682h-20z" />
    <glyph glyph-name="afii10098" unicode="&#x491;" horiz-adv-x="418" 
d="M464 650h20l-29 -150h-308l-97 -500h-20l100 518h308z" />
    <glyph glyph-name="Wgrave" unicode="&#x1e80;" horiz-adv-x="974" 
d="M560 700h26l62 -677l360 677h22l-374 -700h-25l-63 677l-325 -677h-25l-102 700h22l96 -677zM468 905l19 13l116 -142l-17 -12z" />
    <glyph glyph-name="wgrave" unicode="&#x1e81;" horiz-adv-x="760" 
d="M416 518h28l57 -499l261 499h23l-274 -518h-26l-59 499l-251 -499h-26l-74 518h23l67 -499zM331 731l18 13l117 -142l-18 -12z" />
    <glyph glyph-name="Wacute" unicode="&#x1e82;" horiz-adv-x="974" 
d="M560 700h26l62 -677l360 677h22l-374 -700h-25l-63 677l-325 -677h-25l-102 700h22l96 -677zM743 918l13 -13l-170 -141l-15 12z" />
    <glyph glyph-name="wacute" unicode="&#x1e83;" horiz-adv-x="760" 
d="M416 518h28l57 -499l261 499h23l-274 -518h-26l-59 499l-251 -499h-26l-74 518h23l67 -499zM599 744l14 -13l-173 -141l-12 12z" />
    <glyph glyph-name="Wdieresis" unicode="&#x1e84;" horiz-adv-x="974" 
d="M560 700h26l62 -677l360 677h22l-374 -700h-25l-63 677l-325 -677h-25l-102 700h22l96 -677zM491 838q0 10 8.5 18.5t18.5 8.5q18 0 18 -18q0 -10 -8.5 -18t-18.5 -8q-18 0 -18 17zM665 838q0 10 8.5 18.5t18.5 8.5q18 0 18 -18q0 -10 -8.5 -18t-18.5 -8q-18 0 -18 17z
" />
    <glyph glyph-name="wdieresis" unicode="&#x1e85;" horiz-adv-x="760" 
d="M416 518h28l57 -499l261 499h23l-274 -518h-26l-59 499l-251 -499h-26l-74 518h23l67 -499zM350 664q0 10 8 18.5t19 8.5q18 0 18 -18q0 -10 -8.5 -18t-18.5 -8q-18 0 -18 17zM524 664q0 10 8 18.5t19 8.5q18 0 18 -18q0 -10 -8.5 -18t-18.5 -8q-18 0 -18 17z" />
    <glyph glyph-name="Ygrave" unicode="&#x1ef2;" horiz-adv-x="560" 
d="M621 700l-327 -421l-54 -279h-20l54 279l-163 421h24l153 -401l309 401h24zM270 905l19 13l116 -142l-17 -12z" />
    <glyph glyph-name="ygrave" unicode="&#x1ef3;" horiz-adv-x="485" 
d="M488 518l-285 -485l-106 485h-22l113 -512l-129 -218h22l429 730h-22zM214 731l18 13l117 -142l-18 -12z" />
    <glyph glyph-name="thinspace" unicode="&#x2009;" horiz-adv-x="200" 
 />
    <glyph glyph-name="uni2010" unicode="&#x2010;" horiz-adv-x="406" 
d="M348 323h-266l4 18h266z" />
    <glyph glyph-name="figuredash" unicode="&#x2012;" horiz-adv-x="560" 
d="M532 323h-480l4 18h480z" />
    <glyph glyph-name="endash" unicode="&#x2013;" horiz-adv-x="500" 
d="M512 323h-500l4 18h500z" />
    <glyph glyph-name="emdash" unicode="&#x2014;" horiz-adv-x="1000" 
d="M1012 323h-1000l4 18h1000z" />
    <glyph glyph-name="afii00208" unicode="&#x2015;" horiz-adv-x="1000" 
d="M912 323h-800l4 18h800z" />
    <glyph glyph-name="uni2016" unicode="&#x2016;" horiz-adv-x="376" 
d="M34 -130l171 879h20l-171 -879h-20zM170 -130l171 879h20l-171 -879h-20z" />
    <glyph glyph-name="underscoredbl" unicode="&#x2017;" horiz-adv-x="620" 
d="M-1 -56h500l-4 -18h-500zM-21 -157h500l-4 -18h-500z" />
    <glyph glyph-name="quoteleft" unicode="&#x2018;" horiz-adv-x="280" 
d="M193 549l-18 6l99 184l18 -7z" />
    <glyph glyph-name="quoteright" unicode="&#x2019;" horiz-adv-x="280" 
d="M236 739l18 -6l-99 -184l-17 7z" />
    <glyph glyph-name="quotesinglbase" unicode="&#x201a;" horiz-adv-x="280" 
d="M100 39l18 -6l-99 -184l-17 7z" />
    <glyph glyph-name="quotereversed" unicode="&#x201b;" horiz-adv-x="280" 
d="M257 555l-20 -6l-27 183l20 7z" />
    <glyph glyph-name="quotedblleft" unicode="&#x201c;" horiz-adv-x="408" 
d="M193 549l-18 6l99 184l18 -7zM321 549l-18 6l99 184l18 -7z" />
    <glyph glyph-name="quotedblright" unicode="&#x201d;" horiz-adv-x="408" 
d="M236 739l18 -6l-99 -184l-17 7zM364 739l18 -6l-99 -184l-17 7z" />
    <glyph glyph-name="quotedblbase" unicode="&#x201e;" horiz-adv-x="408" 
d="M100 39l18 -6l-99 -184l-17 7zM228 39l18 -6l-99 -184l-17 7z" />
    <glyph glyph-name="uni201F" unicode="&#x201f;" horiz-adv-x="408" 
d="M257 555l-20 -6l-27 183l20 7zM385 555l-20 -6l-27 183l20 7z" />
    <glyph glyph-name="dagger" unicode="&#x2020;" horiz-adv-x="576" 
d="M351 535l-129 -666h-20l129 666h-198l4 18h198l38 195h20l-38 -195h198l-4 -18h-198z" />
    <glyph glyph-name="daggerdbl" unicode="&#x2021;" horiz-adv-x="576" 
d="M461 82l-3 -18h-198l-38 -195h-20l38 195h-198l3 18h198l88 453h-198l4 18h198l38 195h20l-38 -195h198l-4 -18h-198l-88 -453h198z" />
    <glyph glyph-name="bullet" unicode="&#x2022;" horiz-adv-x="398" 
d="M110 332q0 42 28.5 70.5t70.5 28.5t70.5 -28.5t28.5 -70.5t-28.5 -70.5t-70.5 -28.5t-70.5 28.5t-28.5 70.5z" />
    <glyph glyph-name="onedotenleader" unicode="&#x2024;" horiz-adv-x="280" 
d="M66 10q0 12 9.5 21t21.5 9q21 0 21 -21q0 -13 -9.5 -22t-21.5 -9q-21 0 -21 22z" />
    <glyph glyph-name="twodotenleader" unicode="&#x2025;" horiz-adv-x="560" 
d="M66 10q0 12 9.5 21t21.5 9q21 0 21 -21q0 -13 -9.5 -22t-21.5 -9q-21 0 -21 22zM346 10q0 12 9.5 21t21.5 9q21 0 21 -21q0 -13 -9.5 -22t-21.5 -9q-21 0 -21 22z" />
    <glyph glyph-name="ellipsis" unicode="&#x2026;" horiz-adv-x="840" 
d="M66 10q0 12 9.5 21t21.5 9q21 0 21 -21q0 -13 -9.5 -22t-21.5 -9q-21 0 -21 22zM346 10q0 12 9.5 21t21.5 9q21 0 21 -21q0 -13 -9.5 -22t-21.5 -9q-21 0 -21 22zM626 10q0 12 9.5 21t21.5 9q21 0 21 -21q0 -13 -9.5 -22t-21.5 -9q-21 0 -21 22z" />
    <glyph glyph-name="perthousand" unicode="&#x2030;" horiz-adv-x="998" 
d="M83 -12l-14 11l589 713l14 -11zM408 528q-15 -79 -61 -129t-107 -50q-50 0 -77 33.5t-27 91.5q0 97 51.5 165t122.5 68q49 0 76 -34t27 -92q0 -29 -5 -53zM162 528q-6 -28 -6 -53q0 -50 23 -79t65 -29q61 0 105 61.5t44 152.5q0 50 -22.5 79t-64.5 29q-53 0 -91.5 -44
t-52.5 -117zM597 171q-15 -79 -61 -129t-107 -50q-50 0 -77 34t-27 91q0 97 51.5 165t122.5 68q49 0 76 -34t27 -92q0 -29 -5 -53zM351 171q-6 -29 -6 -54q0 -50 22.5 -78.5t64.5 -28.5q61 0 105.5 61.5t44.5 151.5q0 51 -22.5 80t-64.5 29q-53 0 -91.5 -44t-52.5 -117z
M891 171q-15 -79 -61 -129t-107 -50q-50 0 -77 34t-27 91q0 97 51.5 165t122.5 68q49 0 76 -34t27 -92q0 -29 -5 -53zM645 171q-6 -29 -6 -54q0 -50 22.5 -78.5t64.5 -28.5q61 0 105.5 61.5t44.5 151.5q0 51 -22.5 80t-64.5 29q-53 0 -91.5 -44t-52.5 -117z" />
    <glyph glyph-name="minute" unicode="&#x2032;" horiz-adv-x="318" 
d="M178 469l-18 6l99 184l17 -7z" />
    <glyph glyph-name="second" unicode="&#x2033;" horiz-adv-x="446" 
d="M259 659l17 -6l-98 -184l-18 7zM387 659l17 -6l-98 -184l-18 7z" />
    <glyph glyph-name="guilsinglleft" unicode="&#x2039;" horiz-adv-x="317" 
d="M59 307l2 10l237 159l8 -15l-223 -149l165 -149l-14 -15z" />
    <glyph glyph-name="guilsinglright" unicode="&#x203a;" horiz-adv-x="317" 
d="M278 317l-2 -10l-237 -159l-8 15l223 149l-165 149l14 15z" />
    <glyph glyph-name="exclamdbl" unicode="&#x203c;" horiz-adv-x="409" 
d="M186 700h20l-104 -531h-20zM36 10q0 12 9.5 21t21.5 9q21 0 21 -21q0 -13 -9.5 -22t-21.5 -9q-21 0 -21 22zM375 700h20l-104 -531h-20zM225 10q0 12 9.5 21t21.5 9q21 0 21 -21q0 -13 -9.5 -22t-21.5 -9q-21 0 -21 22z" />
    <glyph glyph-name="uni203E" unicode="&#x203e;" horiz-adv-x="400" 
d="M138 639l3 18h272l-3 -18h-272z" />
    <glyph glyph-name="fraction" unicode="&#x2044;" horiz-adv-x="178" 
d="M-156 -12l-14 11l540 716l14 -11z" />
    <glyph glyph-name="zerosuperior" unicode="&#x2070;" 
d="M78 469q21 111 75 175t129 64q59 0 90 -40.5t31 -113.5q0 -142 -64 -233t-150 -91q-59 0 -89.5 39.5t-30.5 112.5q0 39 9 87zM98 469q-9 -47 -9 -85q0 -65 26.5 -100.5t77.5 -35.5q76 0 133 85.5t57 219.5q0 65 -26.5 101t-77.5 36q-66 0 -113.5 -58.5t-67.5 -162.5z" />
    <glyph glyph-name="uni2071" unicode="&#x2071;" 
d="M265 569l-64 -332h-20l64 332h20zM255 668q0 9 7 16.5t17 7.5q16 0 16 -16q0 -10 -7.5 -17t-16.5 -7q-16 0 -16 16z" />
    <glyph glyph-name="foursuperior" unicode="&#x2074;" 
d="M294 346h-240l3 18l305 336h21l-66 -336h56l-3 -18h-56l-21 -109h-20zM357 669l-277 -305h217z" />
    <glyph glyph-name="fivesuperior" unicode="&#x2075;" 
d="M170 247q68 0 116.5 42.5t48.5 114.5q0 47 -32.5 73t-90.5 26q-48 0 -94 -19l-3 2l42 214h231l-4 -18h-211l-34 -176q34 15 79 15q62 0 99.5 -30t37.5 -84q0 -83 -55 -130.5t-134 -47.5q-82 0 -125 53l16 13q19 -24 51.5 -36t61.5 -12z" />
    <glyph glyph-name="sixsuperior" unicode="&#x2076;" 
d="M300 690q-150 0 -195 -221q29 26 69 42t75 16q59 0 92 -31t33 -84q0 -79 -54 -131t-123 -52q-57 0 -90.5 37t-33.5 110q0 38 8 75q50 257 224 257q56 0 87 -41l-15 -12q-32 35 -77 35zM245 509q-78 0 -145 -62q-6 -38 -6 -67q0 -68 29 -100.5t77 -32.5q66 0 110 49
t44 113q0 46 -27.5 73t-81.5 27z" />
    <glyph glyph-name="sevensuperior" unicode="&#x2077;" 
d="M411 682l-276 -445h-22l277 445h-268l4 18h289z" />
    <glyph glyph-name="eightsuperior" unicode="&#x2078;" 
d="M395 616q0 -86 -95 -147q68 -35 68 -89q0 -71 -52 -111t-126 -40q-60 0 -96 28t-36 75q0 51 33 96t88 72q-54 30 -54 75q0 55 46.5 94t111.5 39q52 0 82 -26t30 -66zM348 373q0 57 -89 91q-35 13 -62 27q-59 -27 -88.5 -69t-29.5 -86q0 -41 32 -65t83 -24q61 0 107.5 33
t46.5 93zM280 478q95 54 95 136q0 34 -25.5 55t-69.5 21q-59 0 -96.5 -33t-37.5 -76q0 -30 28.5 -51t105.5 -52z" />
    <glyph glyph-name="ninesuperior" unicode="&#x2079;" 
d="M72 278l16 13q32 -44 95 -44q70 0 115.5 53.5t69.5 167.5q-30 -26 -69.5 -42t-74.5 -16q-59 0 -92 30.5t-33 83.5q0 79 53.5 131.5t123.5 52.5q57 0 90.5 -37t33.5 -110q0 -30 -8 -75q-26 -133 -79.5 -195t-135.5 -62q-30 0 -59.5 13t-45.5 36zM228 428q78 0 145 62
q6 38 6 66q0 69 -29 101.5t-76 32.5q-67 0 -111 -49.5t-44 -114.5q0 -45 27.5 -71.5t81.5 -26.5z" />
    <glyph glyph-name="uni207A" unicode="&#x207a;" 
d="M222 312v150h-154v18h154v150h20v-150h154v-18h-154v-150h-20z" />
    <glyph glyph-name="uni207B" unicode="&#x207b;" 
d="M396 462h-328v18h328v-18z" />
    <glyph glyph-name="uni207C" unicode="&#x207c;" 
d="M396 525h-328v18h328v-18zM396 399h-328v18h328v-18z" />
    <glyph glyph-name="uni207D" unicode="&#x207d;" 
d="M190 469q31 162 148 290l14 -8q-152 -170 -152 -382q0 -99 43 -182l-18 -8q-45 84 -45 189q0 51 10 101z" />
    <glyph glyph-name="uni207E" unicode="&#x207e;" 
d="M282 469q-32 -162 -149 -290l-14 8q153 173 153 380q0 98 -44 184l18 8q45 -85 45 -192q0 -47 -9 -98z" />
    <glyph glyph-name="uni207F" unicode="&#x207f;" 
d="M270 559q-71 0 -146 -61l-50 -261h-20l64 332h20l-10 -50q75 58 147 58q50 0 72 -18t22 -59q0 -22 -6 -51l-41 -212h-20l40 208q6 29 6 49q0 35 -18.5 50t-59.5 15z" />
    <glyph glyph-name="zeroinferior" unicode="&#x2080;" 
d="M7 106q22 112 76 175.5t129 63.5q59 0 89.5 -40t30.5 -113q0 -142 -63.5 -233.5t-149.5 -91.5q-59 0 -90 40t-31 113q0 40 9 86zM27 106q-9 -46 -9 -85q0 -65 26.5 -100.5t77.5 -35.5q77 0 133.5 86t56.5 220q0 65 -26.5 100.5t-77.5 35.5q-66 0 -113.5 -58.5
t-67.5 -162.5z" />
    <glyph glyph-name="oneinferior" unicode="&#x2081;" 
d="M215 315l-113 -75l-8 16l125 82h20l-90 -464h-20z" />
    <glyph glyph-name="twoinferior" unicode="&#x2082;" 
d="M250 -126h-264l3 20q128 92 227 195q80 83 80 158q0 39 -25 59.5t-67 20.5q-73 0 -137 -54l-12 11q70 61 151 61q52 0 81 -26t29 -70q0 -80 -87 -172q-96 -101 -212 -183h236z" />
    <glyph glyph-name="threeinferior" unicode="&#x2083;" 
d="M118 -116q68 0 103.5 41t35.5 91q0 91 -134 91h-31l4 18h33q77 0 122 37t45 92q0 73 -87 73q-64 0 -119 -48l-11 12q64 54 134 54q50 0 77 -24.5t27 -64.5q0 -53 -37.5 -91t-88.5 -48q86 -20 86 -99q0 -63 -44.5 -107.5t-118.5 -44.5q-83 0 -125 62l16 13
q19 -26 50 -41.5t63 -15.5z" />
    <glyph glyph-name="fourinferior" unicode="&#x2084;" 
d="M203 -17h-240l4 18l304 336h21l-65 -336h56l-4 -18h-56l-21 -109h-20zM266 306l-276 -305h217z" />
    <glyph glyph-name="fiveinferior" unicode="&#x2085;" 
d="M99 -116q68 0 117 42.5t49 114.5q0 47 -32.5 73t-90.5 26q-49 0 -95 -19l-3 2l42 214h231l-3 -18h-211l-35 -176q34 15 79 15q62 0 100 -30.5t38 -84.5q0 -82 -56 -129.5t-134 -47.5q-81 0 -124 53l15 13q19 -24 51.5 -36t61.5 -12z" />
    <glyph glyph-name="sixinferior" unicode="&#x2086;" 
d="M229 327q-148 0 -195 -221q30 26 69.5 42t74.5 16q60 0 93 -30.5t33 -83.5q0 -79 -54.5 -131.5t-123.5 -52.5q-56 0 -89.5 37t-33.5 109q0 39 8 76q50 257 224 257q55 0 87 -41l-16 -12q-31 35 -77 35zM175 146q-36 0 -75.5 -16.5t-69.5 -45.5q-7 -36 -7 -69
q0 -67 29 -99t77 -32q67 0 110.5 49.5t43.5 113.5q0 46 -27 72.5t-81 26.5z" />
    <glyph glyph-name="seveninferior" unicode="&#x2087;" 
d="M341 319l-277 -445h-22l278 445h-268l3 18h289z" />
    <glyph glyph-name="eightinferior" unicode="&#x2088;" 
d="M324 253q0 -86 -95 -147q68 -35 68 -89q0 -71 -52 -111t-126 -40q-60 0 -96 28t-36 75q0 51 33 96t88 72q-54 30 -54 75q0 55 46.5 94t111.5 39q52 0 82 -26t30 -66zM277 10q0 57 -89 91q-35 13 -62 27q-59 -27 -88.5 -69t-29.5 -86q0 -41 32 -65t83 -24q61 0 107.5 33
t46.5 93zM209 115q95 54 95 136q0 34 -25.5 55t-69.5 21q-59 0 -96.5 -33t-37.5 -76q0 -30 28.5 -51t105.5 -52z" />
    <glyph glyph-name="nineinferior" unicode="&#x2089;" 
d="M1 -85l17 13q32 -44 94 -44q70 0 115.5 53.5t70.5 167.5q-68 -58 -144 -58q-60 0 -93 30.5t-33 83.5q0 79 54.5 131.5t123.5 52.5q56 0 89.5 -37t33.5 -109q0 -31 -8 -76q-26 -133 -79.5 -195t-135.5 -62q-30 0 -59 13t-46 36zM157 65q78 0 145 62q6 37 6 67
q0 68 -29 100.5t-76 32.5q-67 0 -111 -49.5t-44 -114.5q0 -45 27.5 -71.5t81.5 -26.5z" />
    <glyph glyph-name="uni208A" unicode="&#x208a;" 
d="M145 -51v150h-154v18h154v150h20v-150h154v-18h-154v-150h-20z" />
    <glyph glyph-name="uni208B" unicode="&#x208b;" 
d="M319 99h-328v18h328v-18z" />
    <glyph glyph-name="uni208C" unicode="&#x208c;" 
d="M319 162h-328v18h328v-18zM319 36h-328v18h328v-18z" />
    <glyph glyph-name="uni208D" unicode="&#x208d;" 
d="M119 106q32 161 148 290l15 -8q-153 -173 -153 -382q0 -99 43 -182l-17 -8q-46 87 -46 191q0 50 10 99z" />
    <glyph glyph-name="uni208E" unicode="&#x208e;" 
d="M211 106q-31 -162 -148 -290l-15 8q153 171 153 381q0 97 -43 183l17 8q46 -86 46 -190q0 -50 -10 -100z" />
    <glyph glyph-name="uni2090" unicode="&#x2090;" 
d="M251 -51l37 194q-17 28 -48 46.5t-66 18.5q-74 0 -123 -57t-49 -157q0 -110 109 -110q35 0 73.5 18.5t66.5 46.5zM325 217l-67 -342h-22l10 49q-68 -57 -143 -57q-59 0 -90.5 31t-31.5 92q0 111 56 173t135 62q75 0 121 -57l10 49h22z" />
    <glyph glyph-name="uni2091" unicode="&#x2091;" 
d="M133 -133q-65 0 -100 38.5t-35 98.5q0 94 62 157.5t150 63.5q49 0 80 -24t31 -61q0 -52 -44 -84t-114 -32q-85 0 -138 35l-3 -13q-3 -18 -3 -36q0 -54 30 -89.5t87 -35.5q65 0 115 48l13 -12q-58 -54 -131 -54zM205 207q-60 0 -106 -34.5t-69 -95.5q51 -36 136 -36
q60 0 97 27t37 69q0 30 -25 50t-70 20z" />
    <glyph glyph-name="uni2092" unicode="&#x2092;" 
d="M-7 46q16 77 68.5 128t126.5 51q62 0 96 -37t34 -96q0 -91 -57 -158t-142 -67q-63 0 -97 37.5t-34 97.5q0 19 5 44zM13 46q-4 -19 -4 -39q0 -56 30.5 -89t82.5 -33q69 0 122 58t53 144q0 55 -30.5 87.5t-81.5 32.5q-61 0 -109.5 -45t-62.5 -116z" />
    <glyph glyph-name="uni2093" unicode="&#x2093;" 
d="M330 217l-163 -169l100 -173h-27l-89 156l-151 -156h-27l168 173l-97 169h25l88 -152l148 152h25z" />
    <glyph glyph-name="uni2094" unicode="&#x2094;" 
d="M174 225q65 0 99.5 -38.5t34.5 -98.5q0 -94 -61.5 -157.5t-149.5 -63.5q-49 0 -80.5 24t-31.5 60q0 53 44.5 85t114.5 32q83 0 138 -35q6 24 6 51q0 53 -30 88t-87 35q-64 0 -116 -48l-12 12q58 54 131 54zM102 -115q60 0 106 34.5t68 95.5q-51 36 -136 36
q-60 0 -96.5 -27t-36.5 -70q0 -29 25 -49t70 -20z" />
    <glyph glyph-name="uni20A0" unicode="&#x20a0;" horiz-adv-x="743" 
d="M341 0l44 231q-53 -25 -107 -25q-87 0 -138.5 51.5t-51.5 139.5q0 135 85 225t198 90q114 0 162 -88l-18 -11q-44 81 -148 81q-103 0 -181 -84.5t-78 -210.5q0 -81 47 -128t128 -47q58 0 106 27l47 239h300l-4 -18h-280l-41 -212h263l-3 -18h-263l-44 -224h287l-3 -18
h-307z" />
    <glyph glyph-name="colonmonetary" unicode="&#x20a1;" horiz-adv-x="672" 
d="M101 -63l48 105q-86 75 -86 215q0 187 116 321t268 134h6l34 75l18 -5l-33 -71q48 -3 87 -18l43 94l18 -5l-44 -96q72 -32 111 -114l-19 -11q-37 76 -101 107l-299 -659q20 -3 42 -3q162 0 276 133l14 -11q-118 -140 -294 -140q-27 0 -46 4l-27 -60l-17 5l27 58
q-43 10 -79 36l-46 -99zM93 350q-10 -53 -10 -91q0 -127 75 -197l287 632q-125 0 -224 -97t-128 -247zM172 50q39 -29 78 -38l302 663q-39 17 -88 18z" />
    <glyph glyph-name="uni20A2" unicode="&#x20a2;" horiz-adv-x="672" 
d="M73 350q30 157 135.5 259.5t238.5 102.5q175 0 240 -140l-19 -11q-64 133 -225 133q-141 0 -250 -127.5t-109 -305.5q0 -101 47 -168t130 -83l82 418h20l-17 -85q97 97 200 97q14 0 38 -2l-4 -18q-26 2 -41 2q-52 0 -104 -29.5t-94 -76.5l-60 -309q9 -1 29 -1
q162 0 276 133l14 -11q-118 -140 -294 -140q-111 0 -176.5 74t-65.5 196q0 44 9 92z" />
    <glyph glyph-name="franc" unicode="&#x20a3;" horiz-adv-x="525" 
d="M35 287l4 18h59l23 118h-59l3 18h59l51 259h406l-4 -18h-386l-47 -241h333l-3 -18h-333l-23 -118h332l-4 -18h-332l-55 -287h-20l55 287h-59z" />
    <glyph glyph-name="lira" unicode="&#x20a4;" horiz-adv-x="565" 
d="M384 254h-235l-1 -7q-30 -146 -120 -229h450l-3 -18h-475l2 15q97 84 125 231l2 8h-80l3 18h80l23 118h-80l4 18h80l20 102q20 101 78.5 151.5t148.5 50.5q121 0 174 -89l-18 -11q-50 82 -160 82q-79 0 -132.5 -45.5t-71.5 -140.5l-19 -100h235l-4 -18h-235l-23 -118h235
z" />
    <glyph glyph-name="uni20A6" unicode="&#x20a6;" horiz-adv-x="678" 
d="M58 427h60l53 273h20l134 -273h271l53 273h20l-53 -273h70l-4 -18h-70l-23 -118h70l-3 -18h-70l-53 -273h-20l-135 273h-270l-53 -273h-20l53 273h-60l3 18h60l23 118h-60zM334 409l58 -118h177l23 118h-258zM134 409l-23 -118h258l-58 118h-177zM401 273l118 -240
l47 240h-165zM184 666l-46 -239h164z" />
    <glyph glyph-name="peseta" unicode="&#x20a7;" horiz-adv-x="963" 
d="M699 0h-148q-44 0 -65 23.5t-21 72.5q0 34 9 81l63 323h-78l-3 -18q-21 -106 -99 -162t-194 -56h-52l-51 -264h-20l136 700h72q100 0 156.5 -42.5t56.5 -122.5l-1 -17h80l30 155h20l-30 -155h181q36 12 71 12q80 0 129 -55l-17 -15q-42 52 -113 52q-62 0 -104.5 -32.5
t-42.5 -85.5q0 -30 25 -57t89 -60q112 -58 112 -128q0 -73 -54.5 -111t-136.5 -38zM557 500l-64 -327q-9 -45 -9 -75q0 -80 65 -80h153q77 0 122 33.5t45 94.5q0 62 -102 115q-70 36 -97 65t-27 62q0 72 62 112h-148zM436 482q5 28 5 48q0 73 -50 112.5t-149 39.5h-50
l-78 -400h50q108 0 181 53.5t91 146.5z" />
    <glyph glyph-name="uni20A8" unicode="&#x20a8;" horiz-adv-x="1010" 
d="M570 509q-13 -70 -65 -118t-134 -65l141 -326h-23l-139 323q-35 -5 -68 -5h-161l-61 -318h-20l136 700h181q104 0 160.5 -40.5t56.5 -111.5q0 -22 -4 -39zM550 509q4 24 4 35q0 65 -52 101.5t-149 36.5h-161l-67 -346h161q110 0 179.5 46.5t84.5 126.5zM725 6
q82 0 137 41.5t55 104.5q0 42 -35.5 70t-110.5 49q-76 21 -112.5 46t-36.5 68q0 64 54.5 104.5t134.5 40.5q99 0 161 -59l-17 -14q-55 55 -147 55q-71 0 -118.5 -34t-47.5 -89q0 -36 34 -58t109 -43q78 -22 115.5 -53.5t37.5 -77.5q0 -78 -63.5 -123.5t-154.5 -45.5
q-115 0 -187 78l17 14q32 -35 79.5 -54.5t95.5 -19.5z" />
    <glyph glyph-name="uni20A9" unicode="&#x20a9;" horiz-adv-x="974" 
d="M50 413h107l-41 287h22l40 -287h244l138 287h26l26 -287h243l153 287h22l-154 -287h108l-4 -18h-114l-63 -118h154l-3 -18h-160l-138 -259h-25l-24 259h-240l-124 -259h-25l-39 259h-159l3 18h153l-17 118h-113zM432 395l-57 -118h230l-11 118h-162zM180 395l17 -118h159
l57 118h-233zM613 395l11 -118h158l63 118h-232zM568 677l-127 -264h152zM200 259l34 -236l114 236h-148zM626 259l22 -236l125 236h-147z" />
    <glyph glyph-name="afii57636" unicode="&#x20aa;" horiz-adv-x="818" 
d="M40 0l136 700h194q93 0 144 -50t51 -146q0 -40 -9 -88l-30 -154h-20l30 153q9 48 9 87q0 88 -45.5 134t-130.5 46h-177l-132 -682h-20zM814 700l-136 -700h-184q-96 0 -151 52t-55 150q0 37 9 82l30 154h20l-30 -153q-8 -39 -8 -79q0 -92 49 -140t136 -48h167l133 682h20
z" />
    <glyph glyph-name="dong" unicode="&#x20ab;" horiz-adv-x="562" 
d="M525 601h-205l4 18h205l16 81h20l-16 -81h68l-4 -18h-68l-116 -601h-20l15 78q-107 -90 -215 -90q-83 0 -127 43.5t-44 129.5q0 38 9 83q24 126 92.5 191t169.5 65q106 0 179 -90zM428 102l56 284q-28 41 -74.5 68.5t-97.5 27.5q-198 0 -245 -238q-9 -44 -9 -79
q0 -159 162 -159q51 0 108 28t100 68zM396 -109l-3 -18h-324l3 18h324z" />
    <glyph glyph-name="Euro" unicode="&#x20ac;" horiz-adv-x="693" 
d="M94 350q5 29 13 52h-59l3 18h61q45 130 142 211t214 81q175 0 240 -140l-19 -11q-64 133 -225 133q-108 0 -199 -76t-133 -198h360l-9 -18h-356q-17 -48 -21 -106h325l-9 -18h-317q-1 -8 -1 -18q0 -114 61.5 -184t165.5 -70q162 0 276 133l14 -11q-118 -140 -294 -140
q-111 0 -177 74.5t-66 195.5q0 11 1 20h-61l3 18h59q1 22 8 54z" />
    <glyph glyph-name="afii61248" unicode="&#x2105;" horiz-adv-x="978" 
d="M560 215q0 98 53 161.5t141 63.5t141 -63.5t53 -161.5t-53 -161.5t-141 -63.5t-141 63.5t-53 161.5zM580 215q0 -93 48 -150t126 -57t126 57t48 150t-48 150t-126 57t-126 -57t-48 -150zM315 -12l-16 11l402 716l16 -11zM50 487q0 101 56.5 163t144.5 62q113 0 169 -94
l-17 -10q-51 86 -152 86q-80 0 -130.5 -55.5t-50.5 -151.5t50.5 -151.5t130.5 -55.5q101 0 152 86l17 -10q-56 -94 -169 -94q-88 0 -144.5 62t-56.5 163z" />
    <glyph glyph-name="uni2109" unicode="&#x2109;" horiz-adv-x="753" 
d="M20 591q0 50 35.5 85.5t85.5 35.5t85.5 -35.5t35.5 -85.5t-35.5 -85.5t-85.5 -35.5t-85.5 35.5t-35.5 85.5zM40 591q0 -43 29.5 -73t71.5 -30t71.5 30t29.5 73t-29.5 73t-71.5 30t-71.5 -30t-29.5 -73zM328 0v700h405v-18h-385v-308h353v-18h-353v-356h-20z" />
    <glyph glyph-name="afii61289" unicode="&#x2113;" horiz-adv-x="425" 
d="M373 41l12 -17q-48 -36 -110 -36q-84 0 -132 79q-42 -23 -75 -33l-8 20q35 11 72 31q-53 104 -53 294q0 148 50.5 240.5t123.5 92.5q120 0 120 -220q0 -125 -55.5 -238t-158.5 -178q43 -70 114 -70q54 0 100 35zM353 492q0 98 -25.5 150t-74.5 52q-61 0 -107.5 -85.5
t-46.5 -229.5q0 -184 50 -284q97 60 150.5 167.5t53.5 229.5z" />
    <glyph glyph-name="afii61352" unicode="&#x2116;" horiz-adv-x="892" 
d="M100 0v700h18l315 -652v652h20v-700h-18l-315 652v-652h-20zM857 18v-18h-350v18h350zM515 323q0 92 44 148t123 56t123 -56t44 -148t-44 -148t-123 -56t-123 56t-44 148zM535 323q0 -89 39 -137.5t108 -48.5t108 48.5t39 137.5t-39 137.5t-108 48.5t-108 -48.5
t-39 -137.5z" />
    <glyph glyph-name="uni2117" unicode="&#x2117;" horiz-adv-x="834" 
d="M70 350q0 150 105 256t252 106t252 -106t105 -256t-105 -256t-252 -106t-252 106t-105 256zM90 350q0 -141 99.5 -241.5t237.5 -100.5t237.5 100.5t99.5 241.5t-99.5 241.5t-237.5 100.5t-237.5 -100.5t-99.5 -241.5zM582 417q0 56 -36.5 89.5t-103.5 33.5h-121v-246h121
q67 0 103.5 33.5t36.5 89.5zM446 276h-125v-145h-20v427h145q72 0 114 -37.5t42 -103.5t-42 -103.5t-114 -37.5z" />
    <glyph glyph-name="uni2120" unicode="&#x2120;" horiz-adv-x="675" 
d="M619 700v-322h-20v280l-122 -210h-13l-122 210v-280h-20v322h17l131 -229l132 229h17zM42 425l16 12q16 -20 43.5 -33.5t55.5 -13.5q44 0 66 19.5t22 50.5q0 29 -23.5 48.5t-70.5 35.5q-49 17 -69 36.5t-20 49.5q0 34 25 54t68 20q68 0 102 -48l-15 -11q-31 41 -85 41
q-36 0 -55.5 -15t-19.5 -41q0 -22 16 -37t59 -31q58 -21 83 -43.5t25 -58.5q0 -40 -28.5 -63t-78.5 -23q-70 0 -116 51z" />
    <glyph glyph-name="uni2121" unicode="&#x2121;" horiz-adv-x="856" 
d="M656 270h-309q2 108 44 175t110 67q69 0 112 -68t43 -174zM212 0v682h-187v18h392v-18h-185v-682h-20zM761 0v730h20v-730h-20zM661 70l-17 11q-51 -75 -131 -75q-83 0 -123.5 69t-42.5 177h329v19q0 114 -49.5 186.5t-125.5 72.5q-77 0 -125.5 -73t-48.5 -196
q0 -122 47.5 -197.5t139.5 -75.5q91 0 147 82z" />
    <glyph glyph-name="trademark" unicode="&#x2122;" horiz-adv-x="658" 
d="M139 379v303h-109v18h237v-18h-108v-303h-20zM602 700v-322h-20v280l-122 -210h-13l-122 210v-280h-20v322h17l131 -229l132 229h17z" />
    <glyph glyph-name="Omega" unicode="&#x2126;" horiz-adv-x="696" 
d="M358 712q137 0 215 -97t78 -245q0 -114 -55.5 -204.5t-143.5 -147.5h185v-18h-217v16q97 61 154 150.5t57 203.5q0 142 -72.5 233t-200.5 91t-200.5 -91t-72.5 -233q0 -114 57 -203.5t154 -150.5v-16h-217v18h185q-88 56 -143.5 147t-55.5 205q0 148 78 245t215 97z" />
    <glyph glyph-name="estimated" unicode="&#x212e;" horiz-adv-x="758" 
d="M630 81l15 -14q-83 -79 -220 -79q-96 0 -167 28t-112.5 79t-61 114.5t-19.5 140.5q0 99 37.5 180.5t114 131.5t178.5 50q148 0 233 -105t85 -263v-6h-499v-275q79 -57 211 -57q127 0 205 75zM392 694q-108 0 -178 -58v-278h355v278q-70 58 -177 58z" />
    <glyph glyph-name="onethird" unicode="&#x2153;" horiz-adv-x="950" 
d="M285 678l-112 -75l-8 16l125 82h20l-90 -464h-20zM229 -12l-14 11l541 716l14 -11zM702 10q67 0 103 40.5t36 90.5q0 92 -133 92h-31l3 18h33q77 0 122.5 36.5t45.5 92.5q0 73 -87 73q-64 0 -120 -48l-10 12q64 54 133 54q50 0 77 -25t27 -66q0 -52 -37.5 -89.5
t-87.5 -47.5q40 -9 63 -34.5t23 -64.5q0 -63 -44.5 -107.5t-118.5 -44.5q-83 0 -126 62l17 13q19 -26 49.5 -41.5t62.5 -15.5z" />
    <glyph glyph-name="twothirds" unicode="&#x2154;" horiz-adv-x="950" 
d="M702 10q67 0 103 40.5t36 90.5q0 92 -133 92h-31l3 18h33q77 0 122.5 36.5t45.5 92.5q0 73 -87 73q-64 0 -120 -48l-10 12q64 54 133 54q50 0 77 -25t27 -66q0 -52 -37.5 -89.5t-87.5 -47.5q40 -9 63 -34.5t23 -64.5q0 -63 -44.5 -107.5t-118.5 -44.5q-83 0 -126 62
l17 13q19 -26 49.5 -41.5t62.5 -15.5zM316 237h-264l3 20q128 92 227 195q80 83 80 158q0 39 -25 59.5t-67 20.5q-73 0 -137 -54l-12 11q70 61 151 61q52 0 81 -26t29 -70q0 -80 -87 -172q-96 -101 -212 -183h236zM229 -12l-14 11l541 716l14 -11z" />
    <glyph glyph-name="onefifth" unicode="&#x2155;" horiz-adv-x="950" 
d="M285 678l-112 -75l-8 16l125 82h20l-90 -464h-20zM229 -12l-14 11l541 716l14 -11zM683 10q68 0 117 42.5t49 114.5q0 47 -32.5 73t-90.5 26q-48 0 -94 -19l-3 2l41 214h231l-3 -18h-211l-34 -176q35 15 79 15q62 0 99.5 -30t37.5 -84q0 -83 -55 -130.5t-134 -47.5
q-82 0 -125 53l16 13q19 -24 51 -36t61 -12z" />
    <glyph glyph-name="twofifths" unicode="&#x2156;" horiz-adv-x="950" 
d="M316 237h-264l3 20q128 92 227 195q80 83 80 158q0 39 -25 59.5t-67 20.5q-73 0 -137 -54l-12 11q70 61 151 61q52 0 81 -26t29 -70q0 -80 -87 -172q-96 -101 -212 -183h236zM229 -12l-14 11l541 716l14 -11zM683 10q68 0 117 42.5t49 114.5q0 47 -32.5 73t-90.5 26
q-48 0 -94 -19l-3 2l41 214h231l-3 -18h-211l-34 -176q35 15 79 15q62 0 99.5 -30t37.5 -84q0 -83 -55 -130.5t-134 -47.5q-82 0 -125 53l16 13q19 -24 51 -36t61 -12z" />
    <glyph glyph-name="threefifths" unicode="&#x2157;" horiz-adv-x="950" 
d="M189 247q68 0 103.5 41t35.5 91q0 91 -134 91h-31l3 18h33q77 0 122.5 36.5t45.5 92.5q0 73 -87 73q-64 0 -120 -48l-10 12q64 54 133 54q50 0 77 -25t27 -66q0 -53 -37.5 -90t-87.5 -47q40 -9 63 -34.5t23 -64.5q0 -63 -44.5 -107.5t-118.5 -44.5q-83 0 -126 62l17 13
q19 -26 50 -41.5t63 -15.5zM229 -12l-14 11l541 716l14 -11zM683 10q68 0 117 42.5t49 114.5q0 47 -32.5 73t-90.5 26q-48 0 -94 -19l-3 2l41 214h231l-3 -18h-211l-34 -176q35 15 79 15q62 0 99.5 -30t37.5 -84q0 -83 -55 -130.5t-134 -47.5q-82 0 -125 53l16 13
q19 -24 51 -36t61 -12z" />
    <glyph glyph-name="fourfifths" unicode="&#x2158;" horiz-adv-x="950" 
d="M294 346h-240l3 18l305 336h21l-66 -336h56l-3 -18h-56l-21 -109h-20zM357 669l-277 -305h217zM229 -12l-14 11l541 716l14 -11zM683 10q68 0 117 42.5t49 114.5q0 47 -32.5 73t-90.5 26q-48 0 -94 -19l-3 2l41 214h231l-3 -18h-211l-34 -176q35 15 79 15q62 0 99.5 -30
t37.5 -84q0 -83 -55 -130.5t-134 -47.5q-82 0 -125 53l16 13q19 -24 51 -36t61 -12z" />
    <glyph glyph-name="onesixth" unicode="&#x2159;" horiz-adv-x="950" 
d="M285 678l-112 -75l-8 16l125 82h20l-90 -464h-20zM229 -12l-14 11l541 716l14 -11zM814 453q-150 0 -195 -221q29 26 69 42t75 16q59 0 92 -31t33 -84q0 -79 -54 -131t-123 -52q-57 0 -90.5 37t-33.5 110q0 38 8 75q50 257 224 257q56 0 87 -41l-15 -12q-32 35 -77 35z
M759 272q-78 0 -145 -62q-6 -37 -6 -68q0 -68 28.5 -100t76.5 -32q66 0 110.5 49t44.5 113q0 46 -27.5 73t-81.5 27z" />
    <glyph glyph-name="fivesixths" unicode="&#x215a;" horiz-adv-x="950" 
d="M170 247q68 0 116.5 42.5t48.5 114.5q0 47 -32.5 73t-90.5 26q-48 0 -94 -19l-3 2l42 214h231l-4 -18h-211l-34 -176q34 15 79 15q62 0 99.5 -30t37.5 -84q0 -83 -55 -130.5t-134 -47.5q-82 0 -125 53l16 13q19 -24 51.5 -36t61.5 -12zM814 453q-150 0 -195 -221
q29 26 69 42t75 16q59 0 92 -31t33 -84q0 -79 -54 -131t-123 -52q-57 0 -90.5 37t-33.5 110q0 38 8 75q50 257 224 257q56 0 87 -41l-15 -12q-32 35 -77 35zM759 272q-78 0 -145 -62q-6 -37 -6 -68q0 -68 28.5 -100t76.5 -32q66 0 110.5 49t44.5 113q0 46 -27.5 73t-81.5 27
zM229 -12l-14 11l541 716l14 -11z" />
    <glyph glyph-name="oneeighth" unicode="&#x215b;" horiz-adv-x="950" 
d="M285 678l-112 -75l-8 16l125 82h20l-90 -464h-20zM229 -12l-14 11l541 716l14 -11zM909 379q0 -86 -95 -147q68 -35 68 -89q0 -71 -52 -111t-126 -40q-60 0 -96 28t-36 75q0 51 33 96t88 72q-54 30 -54 75q0 55 46.5 94t111.5 39q52 0 82 -26t30 -66zM862 136
q0 57 -89 91q-35 13 -62 27q-59 -27 -88.5 -69t-29.5 -86q0 -41 32 -65t83 -24q61 0 107.5 33t46.5 93zM794 241q95 54 95 136q0 34 -25.5 55t-69.5 21q-59 0 -96.5 -33t-37.5 -76q0 -30 28.5 -51t105.5 -52z" />
    <glyph glyph-name="threeeighths" unicode="&#x215c;" horiz-adv-x="950" 
d="M189 247q68 0 103.5 41t35.5 91q0 91 -134 91h-31l3 18h33q77 0 122.5 36.5t45.5 92.5q0 73 -87 73q-64 0 -120 -48l-10 12q64 54 133 54q50 0 77 -25t27 -66q0 -53 -37.5 -90t-87.5 -47q40 -9 63 -34.5t23 -64.5q0 -63 -44.5 -107.5t-118.5 -44.5q-83 0 -126 62l17 13
q19 -26 50 -41.5t63 -15.5zM229 -12l-14 11l541 716l14 -11zM909 379q0 -86 -95 -147q68 -35 68 -89q0 -71 -52 -111t-126 -40q-60 0 -96 28t-36 75q0 51 33 96t88 72q-54 30 -54 75q0 55 46.5 94t111.5 39q52 0 82 -26t30 -66zM862 136q0 57 -89 91q-35 13 -62 27
q-59 -27 -88.5 -69t-29.5 -86q0 -41 32 -65t83 -24q61 0 107.5 33t46.5 93zM794 241q95 54 95 136q0 34 -25.5 55t-69.5 21q-59 0 -96.5 -33t-37.5 -76q0 -30 28.5 -51t105.5 -52z" />
    <glyph glyph-name="fiveeighths" unicode="&#x215d;" horiz-adv-x="950" 
d="M170 247q68 0 116.5 42.5t48.5 114.5q0 47 -32.5 73t-90.5 26q-48 0 -94 -19l-3 2l42 214h231l-4 -18h-211l-34 -176q34 15 79 15q62 0 99.5 -30t37.5 -84q0 -83 -55 -130.5t-134 -47.5q-82 0 -125 53l16 13q19 -24 51.5 -36t61.5 -12zM229 -12l-14 11l541 716l14 -11z
M909 379q0 -86 -95 -147q68 -35 68 -89q0 -71 -52 -111t-126 -40q-60 0 -96 28t-36 75q0 51 33 96t88 72q-54 30 -54 75q0 55 46.5 94t111.5 39q52 0 82 -26t30 -66zM862 136q0 57 -89 91q-35 13 -62 27q-59 -27 -88.5 -69t-29.5 -86q0 -41 32 -65t83 -24q61 0 107.5 33
t46.5 93zM794 241q95 54 95 136q0 34 -25.5 55t-69.5 21q-59 0 -96.5 -33t-37.5 -76q0 -30 28.5 -51t105.5 -52z" />
    <glyph glyph-name="seveneighths" unicode="&#x215e;" horiz-adv-x="950" 
d="M411 682l-276 -445h-22l277 445h-268l4 18h289zM229 -12l-14 11l541 716l14 -11zM909 379q0 -86 -95 -147q68 -35 68 -89q0 -71 -52 -111t-126 -40q-60 0 -96 28t-36 75q0 51 33 96t88 72q-54 30 -54 75q0 55 46.5 94t111.5 39q52 0 82 -26t30 -66zM862 136q0 57 -89 91
q-35 13 -62 27q-59 -27 -88.5 -69t-29.5 -86q0 -41 32 -65t83 -24q61 0 107.5 33t46.5 93zM794 241q95 54 95 136q0 34 -25.5 55t-69.5 21q-59 0 -96.5 -33t-37.5 -76q0 -30 28.5 -51t105.5 -52z" />
    <glyph glyph-name="uni215F" unicode="&#x215f;" horiz-adv-x="950" 
d="M285 678l-112 -75l-8 16l125 82h20l-90 -464h-20zM229 -12l-14 11l541 716l14 -11z" />
    <glyph glyph-name="arrowleft" unicode="&#x2190;" horiz-adv-x="860" 
d="M834 342v-20h-621l46 -160l-213 170l213 163l-46 -153h621z" />
    <glyph glyph-name="arrowup" unicode="&#x2191;" horiz-adv-x="860" 
d="M447 -38h-20v621l-153 -46l163 213l170 -213l-160 46v-621z" />
    <glyph glyph-name="arrowright" unicode="&#x2192;" horiz-adv-x="860" 
d="M46 322v20h621l-46 153l213 -163l-213 -170l46 160h-621z" />
    <glyph glyph-name="arrowdown" unicode="&#x2193;" horiz-adv-x="860" 
d="M430 750h20v-621l160 46l-170 -213l-163 213l153 -46v621z" />
    <glyph glyph-name="arrowboth" unicode="&#x2194;" horiz-adv-x="860" 
d="M214 342h453l-46 153l213 -163l-213 -170l46 160h-453l46 -160l-213 170l213 163z" />
    <glyph glyph-name="arrowupdn" unicode="&#x2195;" horiz-adv-x="860" 
d="M274 175l153 -46v453l-153 -46l163 213l170 -213l-160 46v-453l160 46l-170 -213z" />
    <glyph glyph-name="arrowupdnbse" unicode="&#x21a8;" horiz-adv-x="860" 
d="M247 -68h386v-20h-386v20zM274 175l153 -46v453l-153 -46l163 213l170 -213l-160 46v-453l160 46l-170 -213z" />
    <glyph glyph-name="partialdiff" unicode="&#x2202;" horiz-adv-x="580" 
d="M282 435q62 0 119.5 -26.5t98.5 -72.5q-3 358 -218 358q-100 0 -161 -78l-16 12q66 84 175 84q240 0 240 -388q0 -166 -65.5 -251t-169.5 -85q-90 0 -152.5 61.5t-62.5 160.5q0 103 57 164t155 61zM285 6q88 0 150 73.5t65 229.5q-40 53 -98.5 80.5t-120.5 27.5
q-90 0 -140.5 -57.5t-50.5 -149.5q0 -88 56 -146t139 -58z" />
    <glyph glyph-name="Delta" unicode="&#x2206;" horiz-adv-x="664" 
d="M54 18h576l-288 661zM648 0h-612l-6 8l307 704h10l307 -704z" />
    <glyph glyph-name="product" unicode="&#x220f;" horiz-adv-x="667" 
d="M100 -111v851h487v-851h-20v833h-447v-833h-20z" />
    <glyph glyph-name="summation" unicode="&#x2211;" horiz-adv-x="606" 
d="M60 -93l262 424l-262 391v18h526v-18h-505l261 -386v-12l-260 -417h504v-18h-526v18z" />
    <glyph glyph-name="minus" unicode="&#x2212;" horiz-adv-x="618" 
d="M558 323h-478v18h478v-18z" />
    <glyph glyph-name="uni2215" unicode="&#x2215;" horiz-adv-x="178" 
d="M-94 -12l-16 11l402 716l16 -11z" />
    <glyph glyph-name="uni2219" unicode="&#x2219;" horiz-adv-x="280" 
d="M124 299q0 11 8 18.5t18 7.5t18 -7.5t8 -18.5t-8 -18.5t-18 -7.5t-18 7.5t-8 18.5z" />
    <glyph glyph-name="radical" unicode="&#x221a;" horiz-adv-x="603" 
d="M120 374h100l153 -344l178 740h22l-189 -770h-18l-162 356h-84v18z" />
    <glyph glyph-name="infinity" unicode="&#x221e;" horiz-adv-x="768" 
d="M580 192q-51 0 -93 27t-93 97q-53 -70 -94 -97t-92 -27q-54 0 -91 39t-37 101t37 101t91 39q51 0 92 -27t94 -97q51 70 93 97t93 27q54 0 91 -39t37 -101t-37 -101t-91 -39zM579 454q-43 0 -83 -26t-91 -96q51 -70 90.5 -96t83.5 -26q46 0 77.5 33.5t31.5 88.5
t-31.5 88.5t-77.5 33.5zM209 210q44 0 82 25.5t91 96.5q-53 71 -91 96.5t-82 25.5q-46 0 -77.5 -33.5t-31.5 -88.5t31.5 -88.5t77.5 -33.5z" />
    <glyph glyph-name="orthogonal" unicode="&#x221f;" horiz-adv-x="630" 
d="M610 18v-18h-490v575h19v-557h471z" />
    <glyph glyph-name="intersection" unicode="&#x2229;" horiz-adv-x="744" 
d="M382 617q128 0 195 -90t67 -261v-266h-20v268q0 161 -62.5 246t-179.5 85t-179.5 -85t-62.5 -246v-268h-20v266q0 171 67 261t195 90z" />
    <glyph glyph-name="integral" unicode="&#x222b;" horiz-adv-x="406" 
d="M203 -78v688q0 77 36 108.5t100 31.5q30 0 57 -3v-18q-30 3 -60 3q-54 0 -83.5 -26t-29.5 -98v-688q0 -77 -36 -108.5t-100 -31.5q-30 0 -57 3v18q30 -3 60 -3q54 0 83.5 26t29.5 98z" />
    <glyph glyph-name="approxequal" unicode="&#x2248;" horiz-adv-x="618" 
d="M311 423q-72 55 -129 55q-80 0 -98 -106l-20 4q21 120 120 120q65 0 143 -63q72 -55 129 -55q80 0 98 106l20 -4q-21 -120 -120 -120q-65 0 -143 63zM311 235q-72 55 -129 55q-80 0 -98 -106l-20 4q21 120 120 120q65 0 143 -63q72 -55 129 -55q80 0 98 106l20 -4
q-21 -120 -120 -120q-65 0 -143 63z" />
    <glyph glyph-name="notequal" unicode="&#x2260;" horiz-adv-x="618" 
d="M126 12l-19 11l114 190h-141v18h152l122 202h-274v18h285l112 186l18 -11l-105 -175h168v-18h-179l-121 -202h300v-18h-311z" />
    <glyph glyph-name="equivalence" unicode="&#x2261;" horiz-adv-x="618" 
d="M558 493h-478v18h478v-18zM558 153h-478v18h478v-18zM558 323h-478v18h478v-18z" />
    <glyph glyph-name="lessequal" unicode="&#x2264;" horiz-adv-x="618" 
d="M80 349l461 221l7 -17l-443 -213l443 -213l-7 -17l-461 221v18zM558 0h-478v18h461z" />
    <glyph glyph-name="greaterequal" unicode="&#x2265;" horiz-adv-x="618" 
d="M97 570l461 -221v-18l-461 -221l-7 17l443 213l-443 213zM558 0h-478l17 18h461v-18z" />
    <glyph glyph-name="house" unicode="&#x2302;" horiz-adv-x="702" 
d="M602 328v-328h-482v328l241 288zM140 18h442v304l-221 265l-221 -265v-304z" />
    <glyph glyph-name="revlogicalnot" unicode="&#x2310;" horiz-adv-x="618" 
d="M561 424v-18h-454v-232h-20v250h474z" />
    <glyph glyph-name="uni2318" unicode="&#x2318;" horiz-adv-x="881" 
d="M525 249v148h-149v-148h149zM525 415v86q0 69 33 110t94 41q59 0 94 -35.5t35 -93.5q0 -60 -42.5 -93t-108.5 -33h-85v-148h85q66 0 108.5 -33t42.5 -93q0 -58 -35 -93.5t-94 -35.5q-61 0 -94 41t-33 110v86h-149v-86q0 -69 -33 -110t-94 -41q-59 0 -94 35.5t-35 93.5
q0 60 42 93t109 33h85v148h-85q-67 0 -109 33t-42 93q0 58 35 93.5t94 35.5q61 0 94 -41t33 -110v-86h149zM356 415v86q0 63 -28 98t-79 35t-80 -31t-29 -80q0 -51 35 -79.5t96 -28.5h85zM356 145v86h-85q-61 0 -96 -28.5t-35 -79.5q0 -49 29 -80t80 -31t79 35t28 98z
M545 501v-86h85q61 0 96 28.5t35 79.5q0 49 -29 80t-80 31t-79 -35t-28 -98zM545 231v-86q0 -63 28 -98t79 -35t80 31t29 80q0 51 -35 79.5t-96 28.5h-85z" />
    <glyph glyph-name="lozenge" unicode="&#x25ca;" horiz-adv-x="588" 
d="M304 -157l-244 459l244 459l244 -459zM304 721l-222 -419l222 -419l222 419z" />
    <glyph glyph-name="H18533" unicode="&#x25cf;" horiz-adv-x="1000" 
d="M172 326q0 140 99 239t239 99t239 -99t99 -239t-99 -239t-239 -99t-239 99t-99 239z" />
    <glyph glyph-name="fi" horiz-adv-x="541" 
d="M224 588l-14 -70h291l-100 -518h-20l97 500h-271l-139 -712h-20l139 712h-120l3 18h120l14 72q27 140 163 140q30 0 57 -3l-4 -18q-28 3 -59 3q-54 0 -88 -25.5t-49 -98.5zM497 680q0 12 9.5 21t21.5 9q21 0 21 -21q0 -13 -9.5 -22t-21.5 -9q-21 0 -21 22z" />
    <glyph glyph-name="fl" horiz-adv-x="527" 
d="M223 584l-13 -66h163l-3 -18h-163l-139 -712h-20l139 712h-120l3 18h120l13 68q27 144 165 144q57 0 137 -18l3 18h20l-141 -730h-20l135 696q-80 16 -140 16q-54 0 -89 -27.5t-50 -100.5z" />
    <glyph glyph-name="commaaccent" horiz-adv-x="400" 
d="M155 -60l18 -6l-99 -183l-18 6z" />
    <glyph glyph-name="zero.tnum" horiz-adv-x="586" 
d="M78 350q32 165 112.5 263.5t190.5 98.5q86 0 131 -61.5t45 -171.5q0 -61 -13 -129q-33 -166 -113.5 -264t-190.5 -98q-86 0 -131 61t-45 170q0 64 14 131zM98 350q-14 -67 -14 -132q0 -101 40.5 -156.5t119.5 -55.5q103 0 176 92t104 252q14 73 14 130q0 102 -40.5 158
t-120.5 56q-103 0 -175.5 -92.5t-103.5 -251.5z" />
    <glyph glyph-name="one.tnum" horiz-adv-x="386" 
d="M307 677l-218 -128l-10 14l233 137h20l-136 -700h-20z" />
    <glyph glyph-name="two.tnum" horiz-adv-x="537" 
d="M499 534q3 17 3 32q0 56 -40 92t-108 36q-127 0 -234 -100l-13 12q114 106 249 106q77 0 122 -38.5t45 -102.5q0 -74 -41 -137.5t-138 -158.5q-120 -117 -306 -257h387l-3 -18h-415l3 18q212 161 321 269q80 79 118 133.5t50 113.5z" />
    <glyph glyph-name="three.tnum" horiz-adv-x="538" 
d="M437 175q4 19 4 40q0 67 -47 105.5t-140 38.5h-74l4 18h76q98 0 169 53.5t71 143.5q0 51 -37 85.5t-115 34.5q-115 0 -219 -96l-14 14q116 100 237 100q84 0 126.5 -37t42.5 -95q0 -85 -59 -143t-139 -69q67 -11 102.5 -48t35.5 -98q0 -100 -68 -167.5t-187 -67.5
q-139 0 -214 105l19 13q69 -100 198 -100q95 0 154.5 48.5t73.5 121.5z" />
    <glyph glyph-name="four.tnum" horiz-adv-x="560" 
d="M389 175h-373l3 18l472 507h20l-99 -507h96l-3 -18h-96l-34 -175h-20zM484 667l-441 -474h349z" />
    <glyph glyph-name="five.tnum" horiz-adv-x="550" 
d="M217 6q112 0 178.5 71t66.5 164q0 69 -46.5 109t-130.5 40q-78 0 -159 -27l-5 3l65 334h356l-4 -18h-336l-57 -296q74 22 144 22q88 0 141 -43t53 -120q0 -102 -74 -179.5t-196 -77.5q-64 0 -113.5 26.5t-78.5 72.5l18 12q28 -45 75.5 -69t102.5 -24z" />
    <glyph glyph-name="six.tnum" horiz-adv-x="560" 
d="M332 435q83 0 128.5 -44.5t45.5 -121.5q0 -122 -80.5 -201.5t-183.5 -79.5q-84 0 -133 55.5t-49 164.5q0 59 12 116q75 388 316 388q109 0 159 -84l-19 -12q-45 78 -146 78q-215 0 -287 -359q49 48 112.5 74t124.5 26zM246 6q98 0 169 76t71 183q0 70 -41 111t-119 41
q-132 0 -236 -108q-10 -53 -10 -99q0 -105 47 -154.5t119 -49.5z" />
    <glyph glyph-name="seven.tnum" horiz-adv-x="480" 
d="M529 682l-432 -682h-24l432 682h-413l4 18h437z" />
    <glyph glyph-name="eight.tnum" horiz-adv-x="570" 
d="M493 174q-16 -85 -90 -135.5t-172 -50.5q-86 0 -139.5 39.5t-53.5 111.5q0 76 52 146t139 110q-89 47 -89 121q0 85 70.5 140.5t161.5 55.5q79 0 123.5 -37.5t44.5 -97.5q0 -65 -44 -121.5t-123 -98.5q123 -59 123 -149q0 -16 -3 -34zM62 179q-4 -24 -4 -35
q0 -64 48 -101t129 -37q100 0 171 56.5t71 142.5q0 51 -42.5 90t-137.5 72q-27 9 -49 20q-80 -34 -127 -90.5t-59 -117.5zM517 546q3 15 3 29q0 53 -39.5 86t-112.5 33q-83 0 -145.5 -49t-62.5 -124q0 -46 37 -79t111 -59q30 -10 46 -18q141 70 163 181z" />
    <glyph glyph-name="nine.tnum" horiz-adv-x="560" 
d="M263 265q-83 0 -128.5 44.5t-45.5 121.5q0 122 80 201.5t184 79.5q84 0 133 -55.5t49 -164.5q0 -52 -12 -116q-76 -388 -320 -388q-96 0 -152 61l18 15q51 -58 138 -58q219 0 293 359q-49 -48 -112.5 -74t-124.5 -26zM506 391q9 53 9 96q0 106 -47 156.5t-119 50.5
q-97 0 -168.5 -75.5t-71.5 -182.5q0 -70 41.5 -111.5t119.5 -41.5q131 0 236 108z" />
    <glyph glyph-name="parenleft.case" horiz-adv-x="319" 
d="M156 350q49 253 219 440l15 -9q-108 -121 -169 -274t-61 -315q0 -152 63 -273l-19 -9q-65 124 -65 278q0 75 17 162z" />
    <glyph glyph-name="parenright.case" horiz-adv-x="319" 
d="M199 350q-50 -254 -220 -440l-15 9q108 121 169 273.5t61 312.5q0 153 -63 276l19 9q65 -125 65 -280q0 -80 -16 -160z" />
    <glyph glyph-name="hyphen.case" horiz-adv-x="406" 
d="M352 341h-266l3 18h266z" />
    <glyph glyph-name="at.case" horiz-adv-x="958" 
d="M634 229l46 234q-21 39 -60 63.5t-87 24.5q-92 0 -153 -74.5t-61 -200.5q0 -135 134 -135q48 0 96.5 25t84.5 63zM634 206q-87 -83 -186 -83q-149 0 -149 151q0 134 67.5 214.5t168.5 80.5q97 0 150 -79l13 67h20l-60 -309q-3 -16 -3 -29q0 -69 70 -69q48 0 87 48.5
t58.5 120.5t19.5 149q0 133 -80.5 217t-233.5 84q-128 0 -235.5 -72.5t-167.5 -190t-60 -249.5q0 -141 81 -234.5t233 -93.5q129 0 253 78l6 -16q-127 -80 -262 -80q-159 0 -245 96.5t-86 244.5q0 101 37 198t100 171.5t155 120t195 45.5q160 0 245 -91t85 -230
q0 -80 -21 -155t-65.5 -127t-102.5 -52q-40 0 -62.5 20t-24.5 54z" />
    <glyph glyph-name="bracketleft.case" horiz-adv-x="383" 
d="M62 -90l171 880h223l-3 -18h-203l-164 -844h203l-4 -18h-223z" />
    <glyph glyph-name="bracketright.case" horiz-adv-x="383" 
d="M356 790l-171 -880h-223l4 18h203l164 844h-203l3 18h223z" />
    <glyph glyph-name="braceleft.case" horiz-adv-x="355" 
d="M135 -4l47 243q2 9 2 26q0 35 -18 55.5t-50 20.5l3 18q39 0 68.5 29t37.5 73l47 243q9 46 31 66t63 20h72l-3 -18h-72q-32 0 -47.5 -15t-22.5 -51l-49 -250q-8 -38 -32.5 -67.5t-60.5 -38.5q54 -15 54 -80q0 -17 -2 -26l-49 -250q-3 -15 -3 -27q0 -21 11 -30t37 -9h72
l-4 -18h-72q-64 0 -64 53q0 17 4 33z" />
    <glyph glyph-name="braceright.case" horiz-adv-x="355" 
d="M165 239l-47 -243q-9 -46 -31 -66t-63 -20h-72l4 18h72q32 0 47 15t22 51l49 250q7 38 32 67.5t62 38.5q-56 14 -56 80q0 12 3 26l49 250q3 15 3 28q0 20 -11 29t-36 9h-72l3 18h72q64 0 64 -54q0 -10 -4 -32l-47 -243q-3 -13 -3 -26q0 -34 18.5 -55t50.5 -21l-3 -18
q-39 0 -68.5 -29t-37.5 -73z" />
    <glyph glyph-name="exclamdown.case" horiz-adv-x="220" 
d="M50 0h20l103 531h-20zM167 682q0 12 9.5 21t21.5 9q21 0 21 -21q0 -13 -9.5 -22t-21.5 -9q-21 0 -21 22z" />
    <glyph glyph-name="guillemotleft.case" horiz-adv-x="487" 
d="M67 345l2 10l236 159l8 -15l-222 -149l165 -149l-14 -15zM237 345l2 10l236 159l8 -15l-222 -149l165 -149l-14 -15z" />
    <glyph glyph-name="periodcentered.case" horiz-adv-x="280" 
d="M124 309q0 12 9.5 21t21.5 9q21 0 21 -21q0 -13 -9.5 -22t-21.5 -9q-21 0 -21 22z" />
    <glyph glyph-name="guillemotright.case" horiz-adv-x="487" 
d="M456 355l-2 -10l-237 -159l-8 15l223 149l-166 149l14 15zM286 355l-2 -10l-237 -159l-8 15l223 149l-166 149l14 15z" />
    <glyph glyph-name="questiondown.case" horiz-adv-x="492" 
d="M191 -12q-72 0 -110 34t-38 90q0 121 161 222q57 37 81.5 75t36.5 101l4 21h20l-5 -25q-14 -69 -42 -110.5t-86 -77.5q-149 -92 -149 -204q0 -50 35.5 -79t101.5 -29q101 0 194 93l13 -13q-101 -98 -217 -98zM340 682q0 12 9.5 21t21.5 9q21 0 21 -21q0 -13 -9.5 -22
t-21.5 -9q-21 0 -21 22z" />
    <glyph glyph-name="endash.case" horiz-adv-x="500" 
d="M516 341h-500l3 18h500z" />
    <glyph glyph-name="emdash.case" horiz-adv-x="1000" 
d="M1016 341h-1000l3 18h1000z" />
    <glyph glyph-name="bullet.case" horiz-adv-x="398" 
d="M110 350q0 42 28.5 70.5t70.5 28.5t70.5 -28.5t28.5 -70.5t-28.5 -70.5t-70.5 -28.5t-70.5 28.5t-28.5 70.5z" />
    <glyph glyph-name="guilsinglleft.case" horiz-adv-x="317" 
d="M67 345l2 10l236 159l8 -15l-222 -149l165 -149l-14 -15z" />
    <glyph glyph-name="guilsinglright.case" horiz-adv-x="317" 
d="M286 355l-2 -10l-237 -159l-8 15l223 149l-166 149l14 15z" />
    <glyph glyph-name="zero.numerator" 
d="M78 469q21 111 75 175t129 64q59 0 90 -40.5t31 -113.5q0 -142 -64 -233t-150 -91q-59 0 -89.5 39.5t-30.5 112.5q0 39 9 87zM98 469q-9 -47 -9 -85q0 -65 26.5 -100.5t77.5 -35.5q76 0 133 85.5t57 219.5q0 65 -26.5 101t-77.5 36q-66 0 -113.5 -58.5t-67.5 -162.5z" />
    <glyph glyph-name="one.numerator" 
d="M285 678l-112 -75l-8 16l125 82h20l-90 -464h-20z" />
    <glyph glyph-name="two.numerator" 
d="M316 237h-264l3 20q128 92 227 195q80 83 80 158q0 39 -25 59.5t-67 20.5q-73 0 -137 -54l-12 11q70 61 151 61q52 0 81 -26t29 -70q0 -80 -87 -172q-96 -101 -212 -183h236z" />
    <glyph glyph-name="three.numerator" 
d="M189 247q68 0 103.5 41t35.5 91q0 91 -134 91h-31l3 18h33q77 0 122.5 36.5t45.5 92.5q0 73 -87 73q-64 0 -120 -48l-10 12q64 54 133 54q50 0 77 -25t27 -66q0 -53 -37.5 -90t-87.5 -47q40 -9 63 -34.5t23 -64.5q0 -63 -44.5 -107.5t-118.5 -44.5q-83 0 -126 62l17 13
q19 -26 50 -41.5t63 -15.5z" />
    <glyph glyph-name="four.numerator" 
d="M274 346h-240l3 18l305 336h21l-66 -336h56l-3 -18h-56l-21 -109h-20zM337 669l-277 -305h217z" />
    <glyph glyph-name="five.numerator" 
d="M170 247q68 0 116.5 42.5t48.5 114.5q0 47 -32.5 73t-90.5 26q-48 0 -94 -19l-3 2l42 214h231l-4 -18h-211l-34 -176q34 15 79 15q62 0 99.5 -30t37.5 -84q0 -83 -55 -130.5t-134 -47.5q-82 0 -125 53l16 13q19 -24 51.5 -36t61.5 -12z" />
    <glyph glyph-name="six.numerator" 
d="M300 690q-150 0 -195 -221q29 26 69 42t75 16q59 0 92 -31t33 -84q0 -79 -54 -131t-123 -52q-57 0 -90.5 37t-33.5 110q0 38 8 75q50 257 224 257q56 0 87 -41l-15 -12q-32 35 -77 35zM245 509q-78 0 -145 -62q-6 -38 -6 -67q0 -68 29 -100.5t77 -32.5q66 0 110 49
t44 113q0 46 -27.5 73t-81.5 27z" />
    <glyph glyph-name="seven.numerator" 
d="M411 682l-276 -445h-22l277 445h-268l4 18h289z" />
    <glyph glyph-name="eight.numerator" 
d="M395 616q0 -86 -95 -147q68 -35 68 -89q0 -71 -52 -111t-126 -40q-60 0 -96 28t-36 75q0 51 33 96t88 72q-54 30 -54 75q0 55 46.5 94t111.5 39q52 0 82 -26t30 -66zM348 373q0 57 -89 91q-35 13 -62 27q-59 -27 -88.5 -69t-29.5 -86q0 -41 32 -65t83 -24q61 0 107.5 33
t46.5 93zM280 478q95 54 95 136q0 34 -25.5 55t-69.5 21q-59 0 -96.5 -33t-37.5 -76q0 -30 28.5 -51t105.5 -52z" />
    <glyph glyph-name="nine.numerator" 
d="M72 278l16 13q32 -44 95 -44q70 0 115.5 53.5t69.5 167.5q-30 -26 -69.5 -42t-74.5 -16q-59 0 -92 30.5t-33 83.5q0 79 53.5 131.5t123.5 52.5q57 0 90.5 -37t33.5 -110q0 -30 -8 -75q-26 -133 -79.5 -195t-135.5 -62q-30 0 -59.5 13t-45.5 36zM228 428q78 0 145 62
q6 38 6 66q0 69 -29 101.5t-76 32.5q-67 0 -111 -49.5t-44 -114.5q0 -45 27.5 -71.5t81.5 -26.5z" />
    <glyph glyph-name="zero.denominator" 
d="M32 232q21 111 75 175t129 64q59 0 90 -40.5t31 -113.5q0 -142 -64 -233t-150 -91q-59 0 -89.5 39.5t-30.5 112.5q0 39 9 87zM52 232q-9 -47 -9 -85q0 -65 26.5 -100.5t77.5 -35.5q76 0 133 85.5t57 219.5q0 65 -26.5 101t-77.5 36q-66 0 -113.5 -58.5t-67.5 -162.5z" />
    <glyph glyph-name="one.denominator" 
d="M239 441l-112 -75l-8 16l125 82h20l-90 -464h-20z" />
    <glyph glyph-name="two.denominator" 
d="M270 0h-264l3 20q128 92 227 195q80 83 80 158q0 39 -25 59.5t-67 20.5q-73 0 -137 -54l-12 11q70 61 151 61q52 0 81 -26t29 -70q0 -80 -87 -172q-96 -101 -212 -183h236z" />
    <glyph glyph-name="three.denominator" 
d="M142 10q67 0 103 40.5t36 90.5q0 92 -133 92h-31l3 18h33q77 0 122.5 36.5t45.5 92.5q0 73 -87 73q-64 0 -120 -48l-10 12q64 54 133 54q50 0 77 -25t27 -66q0 -52 -37.5 -89.5t-87.5 -47.5q40 -9 63 -34.5t23 -64.5q0 -63 -44.5 -107.5t-118.5 -44.5q-83 0 -126 62
l17 13q19 -26 49.5 -41.5t62.5 -15.5z" />
    <glyph glyph-name="four.denominator" 
d="M228 109h-240l3 18l304 336h21l-65 -336h56l-3 -18h-56l-21 -109h-20zM290 432l-276 -305h217z" />
    <glyph glyph-name="five.denominator" 
d="M123 10q68 0 117 42.5t49 114.5q0 47 -32.5 73t-90.5 26q-48 0 -94 -19l-3 2l41 214h231l-3 -18h-211l-34 -176q35 15 79 15q62 0 99.5 -30t37.5 -84q0 -83 -55 -130.5t-134 -47.5q-82 0 -125 53l16 13q19 -24 51 -36t61 -12z" />
    <glyph glyph-name="six.denominator" 
d="M254 453q-150 0 -195 -221q29 26 69 42t75 16q59 0 92 -31t33 -84q0 -79 -54 -131t-123 -52q-57 0 -90.5 37t-33.5 110q0 38 8 75q50 257 224 257q56 0 87 -41l-15 -12q-32 35 -77 35zM199 272q-78 0 -145 -62q-6 -38 -6 -68q0 -68 28.5 -100t76.5 -32q66 0 110.5 49
t44.5 113q0 46 -27.5 73t-81.5 27z" />
    <glyph glyph-name="seven.denominator" 
d="M365 445l-276 -445h-22l277 445h-268l3 18h289z" />
    <glyph glyph-name="eight.denominator" 
d="M349 379q0 -86 -95 -147q68 -35 68 -89q0 -71 -52 -111t-126 -40q-60 0 -96 28t-36 75q0 51 33 96t88 72q-54 30 -54 75q0 55 46.5 94t111.5 39q52 0 82 -26t30 -66zM302 136q0 57 -89 91q-35 13 -62 27q-59 -27 -88.5 -69t-29.5 -86q0 -41 32 -65t83 -24q61 0 107.5 33
t46.5 93zM234 241q95 54 95 136q0 34 -25.5 55t-69.5 21q-59 0 -96.5 -33t-37.5 -76q0 -30 28.5 -51t105.5 -52z" />
    <glyph glyph-name="nine.denominator" 
d="M25 41l17 13q32 -44 94 -44q140 0 186 221q-30 -26 -69.5 -42t-74.5 -16q-60 0 -93 30.5t-33 84.5q0 79 54.5 131t123.5 52q57 0 90.5 -37t33.5 -110q0 -30 -8 -75q-26 -133 -79.5 -195t-135.5 -62q-30 0 -59.5 13t-46.5 36zM182 191q78 0 145 62q6 37 6 66
q0 69 -29 101.5t-76 32.5q-66 0 -110.5 -49t-44.5 -113q0 -46 27 -73t82 -27z" />
    </font>
</defs>
</svg>
