<?xml version="1.0" standalone="no"?>
<!DOCTYPE svg PUBLIC "-//W3C//DTD SVG 1.1//EN" "http://www.w3.org/Graphics/SVG/1.1/DTD/svg11.dtd" >
<svg xmlns="http://www.w3.org/2000/svg" xmlns:xlink="http://www.w3.org/1999/xlink" version="1.1">
<metadata>
Created by FontForge 20161013 at Thu Jun 11 09:20:12 2015
 By ,,,
(c) 2015 Apple Inc. All rights reserved.
</metadata>
<defs>
<font id="SFUIText-BoldG3" horiz-adv-x="0" >
  <font-face 
    font-family="SF UI  Text G 8"
    font-weight="700"
    font-stretch="normal"
    units-per-em="2048"
    panose-1="0 0 8 0 0 0 0 0 0 0"
    ascent="1638"
    descent="-410"
    x-height="1110"
    cap-height="1443"
    bbox="-898 -569 2802 2243"
    underline-thickness="50"
    underline-position="-175"
    unicode-range="U+000D-FB02"
  />
<missing-glyph horiz-adv-x="1293" 
d="M120 0v1365h1053v-1365h-1053zM501 313q0 -47 33.5 -77t86.5 -30q55 0 88.5 29.5t33.5 77.5q0 49 -33.5 78.5t-88.5 29.5q-54 0 -87 -30t-33 -78zM339 888h169q1 59 34.5 94.5t90.5 35.5q54 0 87 -30t33 -80q0 -38 -20.5 -65.5t-82.5 -72.5q-69 -48 -96 -100t-22 -121
l1 -18h166v15q0 48 19 76t88 77q73 52 103 102t30 116q0 113 -81 181.5t-215 68.5q-143 0 -225.5 -76t-78.5 -203z" />
    <glyph glyph-name=".notdef" horiz-adv-x="1293" 
d="M120 0v1365h1053v-1365h-1053zM501 313q0 -47 33.5 -77t86.5 -30q55 0 88.5 29.5t33.5 77.5q0 49 -33.5 78.5t-88.5 29.5q-54 0 -87 -30t-33 -78zM339 888h169q1 59 34.5 94.5t90.5 35.5q54 0 87 -30t33 -80q0 -38 -20.5 -65.5t-82.5 -72.5q-69 -48 -96 -100t-22 -121
l1 -18h166v15q0 48 19 76t88 77q73 52 103 102t30 116q0 113 -81 181.5t-215 68.5q-143 0 -225.5 -76t-78.5 -203z" />
    <glyph glyph-name=".null" 
 />
    <glyph glyph-name="nonmarkingreturn" horiz-adv-x="682" 
 />
    <glyph glyph-name="CR" unicode="&#xd;" 
 />
    <glyph glyph-name="space" unicode=" " horiz-adv-x="528" 
 />
    <glyph glyph-name="exclam" unicode="!" horiz-adv-x="730" 
d="M184 1443h363l-30 -969h-303zM168 144q0 85 52.5 132t145.5 47q92 0 144.5 -47t52.5 -132q0 -83 -52.5 -130t-144.5 -47q-93 0 -145.5 47t-52.5 130z" />
    <glyph glyph-name="quotedbl" unicode="&#x22;" horiz-adv-x="1016" 
d="M403 812h-282v631h282v-631zM896 812h-282v631h282v-631z" />
    <glyph glyph-name="numbersign" unicode="#" horiz-adv-x="1360" 
d="M1261 846h-209l-46 -229h206l-46 -243h-208l-74 -374h-250l75 374h-208l-75 -374h-249l74 374h-202l46 243h204l45 229h-200l46 240h202l72 358h249l-71 -358h207l72 358h250l-71 -358h207zM580 869l-56 -276h245l57 276h-246z" />
    <glyph glyph-name="dollar" unicode="$" horiz-adv-x="1415" 
d="M787 -135h-143v124q-246 13 -383.5 125t-138.5 300h327q5 -68 59 -116t136 -56v335l-114 25q-187 42 -284 146t-97 265q0 190 130 305t365 132v136h143v-137q217 -20 345.5 -135t130.5 -291h-317q-2 62 -47 109t-112 57v-322l114 -22q392 -78 392 -409
q0 -194 -131.5 -309.5t-374.5 -136.5v-125zM969 397q0 121 -182 155v-311q85 7 133.5 48t48.5 108zM480 1045q0 -115 164 -149v295q-72 -4 -118 -45t-46 -101z" />
    <glyph glyph-name="percent" unicode="%" horiz-adv-x="1701" 
d="M1309 173q48 0 75.5 44t27.5 120q0 77 -27 120t-76 43q-48 0 -75.5 -43.5t-27.5 -119.5t27.5 -120t75.5 -44zM1309 -35q-157 0 -252.5 102t-95.5 269t95.5 269t252.5 102t252.5 -102t95.5 -269t-95.5 -269t-252.5 -102zM392 736q-157 0 -252.5 102.5t-95.5 269.5
t95.5 268.5t252.5 101.5q158 0 253.5 -101.5t95.5 -268.5t-96 -269.5t-253 -102.5zM538 0h-317l543 757l408 686h317l-553 -761zM392 945q48 0 75.5 44t27.5 120q0 77 -27 120t-76 43q-48 0 -75.5 -43.5t-27.5 -119.5t28 -120t75 -44z" />
    <glyph glyph-name="ampersand" unicode="&#x26;" horiz-adv-x="1525" 
d="M1149 0l-103 110q-77 -65 -194 -101.5t-249 -36.5q-236 0 -374 109t-138 294q0 123 63 213.5t200 166.5q38 19 68 37q-98 100 -138.5 174.5t-40.5 154.5q0 148 121 245t305 97t300 -93t116 -241q0 -222 -287 -378l247 -263q44 80 44 232v83h273v-106q0 -120 -33 -227.5
t-91 -183.5l274 -286h-363zM533 602q-134 -79 -134 -199q0 -88 66 -141.5t173 -53.5q72 0 136.5 24t101.5 64l-304 324q-27 -11 -39 -18zM649 901q87 45 126.5 93.5t39.5 108.5q0 65 -40.5 105t-104.5 40t-105.5 -40.5t-41.5 -103.5q0 -47 28 -91.5t98 -111.5z" />
    <glyph glyph-name="quotesingle" unicode="'" horiz-adv-x="553" 
d="M418 812h-282v631h282v-631z" />
    <glyph glyph-name="parenleft" unicode="(" horiz-adv-x="803" 
d="M729 -277h-320q-129 162 -199.5 391t-70.5 486t66 455.5t214 387.5h313q-109 -126 -178.5 -362.5t-69.5 -479.5q0 -235 58.5 -445t186.5 -433z" />
    <glyph glyph-name="parenright" unicode=")" horiz-adv-x="803" 
d="M74 -277q128 223 186.5 433t58.5 445q0 244 -69.5 480.5t-178.5 361.5h314q148 -189 214 -387.5t66 -455.5q0 -255 -71 -484.5t-200 -392.5h-320z" />
    <glyph glyph-name="asterisk" unicode="*" horiz-adv-x="1027" 
d="M635 1065l254 -92l-104 -179l-206 162l38 -260h-207l38 261l-206 -163l-104 179l254 92l-254 101l104 181l207 -177l-39 273h207l-39 -273l207 177l104 -181z" />
    <glyph glyph-name="plus" unicode="+" horiz-adv-x="1415" 
d="M854 443v-404h-294v404h-404v286h404v401h294v-401h404v-286h-404z" />
    <glyph glyph-name="comma" unicode="," horiz-adv-x="722" 
d="M395 -394h-264l73 653h319z" />
    <glyph glyph-name="hyphen" unicode="-" horiz-adv-x="992" 
d="M824 432h-657v302h657v-302z" />
    <glyph glyph-name="period" unicode="." horiz-adv-x="712" 
d="M356 -31q-89 0 -141.5 51.5t-52.5 133.5t52.5 133t141.5 51t141.5 -51t52.5 -133t-52.5 -133.5t-141.5 -51.5z" />
    <glyph glyph-name="slash" unicode="/" horiz-adv-x="772" 
d="M336 -279h-310l404 1722h317z" />
    <glyph glyph-name="zero" unicode="0" horiz-adv-x="1402" 
d="M701 -38q-278 0 -437 202.5t-159 560.5q0 356 159.5 556t436.5 200q276 0 435.5 -200t159.5 -557t-159 -559.5t-436 -202.5zM701 231q113 0 178.5 127t65.5 367q0 237 -65 361.5t-179 124.5t-179 -124.5t-65 -361.5q0 -240 65 -367t179 -127z" />
    <glyph glyph-name="one" unicode="1" horiz-adv-x="1051" 
d="M474 0v1125h-19l-350 -238v303l369 253h346v-1443h-346z" />
    <glyph glyph-name="two" unicode="2" horiz-adv-x="1318" 
d="M106 1005q0 213 151.5 344.5t396.5 131.5q237 0 384 -118t147 -308q0 -119 -77.5 -237t-268.5 -291l-250 -234v-19h615v-274h-1078v233l460 440q157 147 210 219.5t53 139.5q0 82 -57.5 133t-149.5 51q-97 0 -157.5 -58.5t-60.5 -152.5v-6h-318v6z" />
    <glyph glyph-name="three" unicode="3" horiz-adv-x="1370" 
d="M497 616v244h177q96 0 154 50t58 132q0 81 -58 129t-157 48q-97 0 -158 -53t-64 -141h-317q5 209 153 332.5t395 123.5q234 0 382 -109.5t148 -282.5q0 -124 -74.5 -214.5t-196.5 -113.5v-19q149 -16 236.5 -108t87.5 -232q0 -194 -165 -317t-424 -123q-249 0 -404 125.5
t-165 335.5h331q4 -85 70 -135t174 -50q103 0 167 53t64 138q0 87 -63 137t-173 50h-178z" />
    <glyph glyph-name="four" unicode="4" horiz-adv-x="1410" 
d="M803 0v240h-708v293q176 335 554 910h482v-929h183v-274h-183v-240h-328zM398 520v-18h413v688h-17q-190 -289 -396 -670z" />
    <glyph glyph-name="five" unicode="5" horiz-adv-x="1359" 
d="M693 -38q-243 0 -396.5 128.5t-158.5 325.5h315q13 -83 80.5 -133.5t161.5 -50.5q107 0 173.5 66.5t66.5 176.5q0 111 -67 180t-173 69q-152 0 -228 -123h-306l69 842h943v-273h-676l-28 -348h19q94 146 305 146q205 0 337.5 -136.5t132.5 -348.5q0 -233 -156.5 -377
t-413.5 -144z" />
    <glyph glyph-name="six" unicode="6" horiz-adv-x="1401" 
d="M723 -38q-154 0 -277 62.5t-200 180.5q-140 193 -140 509q0 357 166 562t453 205q214 0 366.5 -114t181.5 -295h-339q-19 63 -76.5 101t-133.5 38q-139 0 -218 -128t-71 -337h19q49 101 143 156t220 55q205 0 340 -136t135 -342q0 -149 -72.5 -267t-202.5 -184t-294 -66z
M719 233q101 0 170 68t69 168q0 101 -67.5 168t-170.5 67q-102 0 -170 -66.5t-68 -166.5q0 -101 68.5 -169.5t168.5 -68.5z" />
    <glyph glyph-name="seven" unicode="7" horiz-adv-x="1239" 
d="M190 0l605 1154v18h-704v272h1051v-273l-589 -1171h-363z" />
    <glyph glyph-name="eight" unicode="8" horiz-adv-x="1421" 
d="M709 -38q-271 0 -437.5 116.5t-166.5 306.5q0 134 88.5 234.5t236.5 134.5v19q-120 26 -193.5 111.5t-73.5 199.5q0 174 154 285.5t394 111.5q239 0 393 -111.5t154 -285.5q0 -114 -73 -199.5t-194 -111.5v-19q147 -27 236.5 -127.5t89.5 -238.5q0 -191 -168 -308.5
t-440 -117.5zM710 209q108 0 176 58t68 150t-68 150.5t-176 58.5q-107 0 -175 -58.5t-68 -150.5t68 -150t175 -58zM710 867q91 0 149 52.5t58 132.5q0 82 -58 135t-149 53q-90 0 -148 -53t-58 -135q0 -81 58 -133t148 -52z" />
    <glyph glyph-name="nine" unicode="9" horiz-adv-x="1401" 
d="M676 -38q-214 0 -367 114t-181 296h339q19 -64 76 -101.5t134 -37.5q139 0 218 128t71 337h-9h-8h-2q-49 -102 -143 -156.5t-220 -54.5q-205 0 -340 135.5t-135 341.5q0 227 159.5 372t409.5 145q154 0 276.5 -62.5t200.5 -180.5q140 -195 140 -509q0 -356 -166 -561.5
t-453 -205.5zM681 739q102 0 170 66.5t68 166.5q0 101 -68.5 170t-168.5 69q-101 0 -170 -68.5t-69 -168.5q0 -101 67.5 -168t170.5 -67z" />
    <glyph glyph-name="colon" unicode=":" horiz-adv-x="712" 
d="M356 -31q-89 0 -141.5 51.5t-52.5 133.5t52.5 133t141.5 51t141.5 -51t52.5 -133t-52.5 -133.5t-141.5 -51.5zM356 699q-89 0 -141.5 51t-52.5 133q0 83 52.5 134t141.5 51t141.5 -51t52.5 -134q0 -82 -52.5 -133t-141.5 -51z" />
    <glyph glyph-name="semicolon" unicode=";" horiz-adv-x="712" 
d="M393 -394h-264l73 653h319zM356 699q-89 0 -141.5 51t-52.5 133q0 83 52.5 134t141.5 51t141.5 -51t52.5 -134q0 -82 -52.5 -133t-141.5 -51z" />
    <glyph glyph-name="less" unicode="&#x3c;" horiz-adv-x="1415" 
d="M1197 299v-330l-979 492v258l979 493v-331l-639 -282v-18z" />
    <glyph glyph-name="equal" unicode="=" horiz-adv-x="1415" 
d="M1255 191h-1096v287h1096v-287zM1255 693h-1096v287h1096v-287z" />
    <glyph glyph-name="greater" unicode="&#x3e;" horiz-adv-x="1415" 
d="M218 299l638 282v18l-638 282v331l979 -493v-258l-979 -492v330z" />
    <glyph glyph-name="question" unicode="?" horiz-adv-x="1141" 
d="M61 1027q2 196 136 312.5t368 116.5q223 0 358 -109t135 -287q0 -111 -52.5 -191.5t-162.5 -144.5q-102 -59 -137.5 -104t-35.5 -116v-49h-298l-2 45q-13 123 27.5 199.5t145.5 138.5q101 59 136 102.5t35 110.5q0 63 -47.5 103.5t-123.5 40.5t-124 -46t-51 -122h-307z
M530 -33q-92 0 -144.5 47t-52.5 130q0 85 52.5 132t144.5 47q93 0 145.5 -47t52.5 -132q0 -83 -52.5 -130t-145.5 -47z" />
    <glyph glyph-name="at" unicode="@" horiz-adv-x="1899" 
d="M938 827q-71 0 -112 -57t-41 -158t40.5 -158t112.5 -57q73 0 114.5 57.5t41.5 157.5t-42 157.5t-114 57.5zM970 1454q238 0 422 -93.5t285.5 -263t101.5 -388.5q0 -237 -107.5 -375t-291.5 -138q-96 0 -161 41t-84 112h-19q-62 -152 -236 -152q-156 0 -251 116t-95 306
q0 182 92 294.5t241 112.5q80 0 141.5 -37.5t91.5 -104.5h19v119h221v-515q0 -54 23 -83.5t66 -29.5q70 0 110.5 84.5t40.5 227.5q0 272 -167 434t-447 162q-143 0 -264 -49t-206 -136.5t-132.5 -212t-47.5 -270.5q0 -301 186 -476.5t504 -175.5q162 0 250 30v-173
q-116 -33 -270 -33q-194 0 -355.5 60t-274.5 168.5t-175.5 264t-62.5 340.5q0 244 107.5 434t301.5 295t443 105z" />
    <glyph glyph-name="A" unicode="A" horiz-adv-x="1500" 
d="M1073 0l-97 326h-482l-99 -326h-345l490 1443h419l490 -1443h-376zM728 1127l-165 -547h346l-162 547h-19z" />
    <glyph glyph-name="B" unicode="B" horiz-adv-x="1420" 
d="M837 0h-678v1443h659q214 0 334 -95.5t120 -264.5q0 -115 -76 -203t-190 -105v-18q143 -9 238.5 -106.5t95.5 -235.5q0 -190 -136 -302.5t-367 -112.5zM505 1194v-343h204q107 0 166 45t59 126t-54.5 126.5t-152.5 45.5h-222zM505 249h237q119 0 182.5 50.5t63.5 145.5
q0 92 -65 141t-185 49h-233v-386z" />
    <glyph glyph-name="C" unicode="C" horiz-adv-x="1518" 
d="M787 -38q-321 0 -506 203.5t-185 556.5t184.5 556t506.5 203q176 0 320 -72t229.5 -200t92.5 -287h-334q-17 120 -101.5 193.5t-206.5 73.5q-157 0 -247.5 -125t-90.5 -342t91 -342.5t248 -125.5q122 0 206.5 70.5t101.5 187.5h334q-13 -243 -192 -396.5t-451 -153.5z
" />
    <glyph glyph-name="D" unicode="D" horiz-adv-x="1530" 
d="M164 1444h593q323 0 499.5 -185.5t176.5 -524.5q0 -354 -175 -544t-501 -190h-593v1444zM510 1162v-880h187q186 0 284.5 114t98.5 332q0 207 -101 320.5t-282 113.5h-187z" />
    <glyph glyph-name="E" unicode="E" horiz-adv-x="1274" 
d="M1141 282v-282h-978v1443h978v-282h-632v-305h595v-259h-595v-315h632z" />
    <glyph glyph-name="F" unicode="F" horiz-adv-x="1224" 
d="M509 0h-346v1443h970v-282h-624v-346h567v-269h-567v-546z" />
    <glyph glyph-name="G" unicode="G" horiz-adv-x="1557" 
d="M1455 597q0 -295 -174 -465t-476 -170q-329 0 -517 203t-188 558q0 350 187 554t509 204q262 0 439 -139t206 -366h-342q-29 100 -109.5 156.5t-193.5 56.5q-160 0 -251.5 -123t-91.5 -339q0 -220 97 -346.5t262 -126.5q132 0 216.5 71.5t90.5 188.5l2 25h-280v243h614
v-185z" />
    <glyph glyph-name="H" unicode="H" horiz-adv-x="1604" 
d="M1447 0h-345v589h-599v-589h-346v1443h346v-572h599v572h345v-1443z" />
    <glyph glyph-name="I" unicode="I" horiz-adv-x="652" 
d="M499 0h-346v1443h346v-1443z" />
    <glyph glyph-name="J" unicode="J" horiz-adv-x="1231" 
d="M49 447h333q1 -87 50 -138t130 -51q85 0 130 52t45 152v981h346v-984q0 -238 -136.5 -367.5t-379.5 -129.5q-237 0 -377.5 130.5t-140.5 354.5z" />
    <glyph glyph-name="K" unicode="K" horiz-adv-x="1453" 
d="M500 0h-346v1443h346v-628h18l498 628h375l-508 -635l540 -808h-410l-381 581l-132 -164v-417z" />
    <glyph glyph-name="L" unicode="L" horiz-adv-x="1218" 
d="M1130 289v-289h-968v1443h346v-1154h622z" />
    <glyph glyph-name="M" unicode="M" horiz-adv-x="1878" 
d="M476 0h-320v1443h408l365 -912h19l366 912h408v-1443h-320v930h-18l-336 -829h-218l-336 829h-18v-930z" />
    <glyph glyph-name="N" unicode="N" horiz-adv-x="1573" 
d="M491 0h-329v1443h279l622 -842h18v842h329v-1443h-277l-624 849h-18v-849z" />
    <glyph glyph-name="O" unicode="O" horiz-adv-x="1610" 
d="M805 1481q324 0 514.5 -204t190.5 -555t-190 -555.5t-515 -204.5t-515.5 204t-190.5 556q0 351 191 555t515 204zM805 1191q-160 0 -256.5 -127.5t-96.5 -341.5q0 -215 96 -342.5t257 -127.5q160 0 256 128t96 342t-96 341.5t-256 127.5z" />
    <glyph glyph-name="P" unicode="P" horiz-adv-x="1380" 
d="M158 1443h622q230 0 371.5 -139t141.5 -369q0 -226 -147.5 -364.5t-385.5 -138.5h-256v-432h-346v1443zM504 1173v-475h182q123 0 190 61t67 176q0 116 -66.5 177t-188.5 61h-184z" />
    <glyph glyph-name="Q" unicode="Q" horiz-adv-x="1610" 
d="M1471 -135h-325l-90 134q-117 -37 -251 -37q-325 0 -515.5 203.5t-190.5 556.5q0 351 191 555t515 204t514.5 -204t190.5 -555q0 -188 -55.5 -336.5t-160.5 -244.5zM806 253q48 0 86 11l-155 234h300l44 -57q76 102 76 281q0 214 -96 341t-256 127t-256 -126.5
t-96 -341.5t96 -342t257 -127z" />
    <glyph glyph-name="R" unicode="R" horiz-adv-x="1422" 
d="M503 1177v-416h232q105 0 164.5 55t59.5 152q0 96 -61.5 152.5t-164.5 56.5h-230zM503 511v-511h-346v1443h626q247 0 388.5 -125.5t141.5 -345.5q0 -138 -66.5 -249t-185.5 -160l294 -563h-390l-254 511h-208z" />
    <glyph glyph-name="S" unicode="S" horiz-adv-x="1383" 
d="M94 407h332q7 -82 82.5 -130t194.5 -48q107 0 174.5 47t67.5 122q0 63 -54 101.5t-180 63.5l-189 39q-398 78 -398 418q0 209 155 335t412 126q248 0 406.5 -123.5t163.5 -320.5h-322q-7 79 -75 128.5t-169 49.5q-102 0 -164 -44.5t-62 -119.5q0 -62 52.5 -100.5
t170.5 -62.5l183 -36q214 -43 313.5 -142.5t99.5 -269.5q0 -223 -160.5 -350.5t-440.5 -127.5q-268 0 -427.5 119.5t-165.5 325.5z" />
    <glyph glyph-name="T" unicode="T" horiz-adv-x="1352" 
d="M849 0h-346v1161h-422v282h1189v-282h-421v-1161z" />
    <glyph glyph-name="U" unicode="U" horiz-adv-x="1564" 
d="M512 1443v-909q0 -130 71 -204t199 -74q129 0 199.5 74t70.5 204v909h346v-945q0 -242 -168 -389t-448 -147q-279 0 -447.5 147t-168.5 389v945h346z" />
    <glyph glyph-name="V" unicode="V" horiz-adv-x="1477" 
d="M961 0h-433l-473 1443h396l294 -1076h18l286 1076h374z" />
    <glyph glyph-name="W" unicode="W" horiz-adv-x="2067" 
d="M1024 909l-247 -909h-327l-378 1443h359l203 -978h17l241 978h282l248 -978h17l200 978h357l-379 -1443h-324l-251 909h-18z" />
    <glyph glyph-name="X" unicode="X" horiz-adv-x="1494" 
d="M68 0l449 727l-447 716h405l272 -487h18l276 487h385l-465 -719l460 -724h-391l-285 468h-19l-288 -468h-370z" />
    <glyph glyph-name="Y" unicode="Y" horiz-adv-x="1451" 
d="M899 0h-346v508l-499 935h371l292 -594h19l291 594h371l-499 -935v-508z" />
    <glyph glyph-name="Z" unicode="Z" horiz-adv-x="1384" 
d="M127 0v223l692 919v19h-680v282h1097v-223l-691 -919v-19h712v-282h-1130z" />
    <glyph glyph-name="bracketleft" unicode="[" horiz-adv-x="848" 
d="M136 1444h618v-245h-297v-1194h310v-245h-631v1684z" />
    <glyph glyph-name="backslash" unicode="\" horiz-adv-x="772" 
d="M437 -279l-411 1722h317l404 -1722h-310z" />
    <glyph glyph-name="bracketright" unicode="]" horiz-adv-x="848" 
d="M712 1444v-1684h-631v245h311v1194h-297v245h617z" />
    <glyph glyph-name="asciicircum" unicode="^" horiz-adv-x="1066" 
d="M523 1183l-169 -372h-290l327 620h284l327 -620h-291l-169 372h-19z" />
    <glyph glyph-name="underscore" unicode="_" horiz-adv-x="945" 
d="M950 -359h-954v252h954v-252z" />
    <glyph glyph-name="grave" unicode="`" horiz-adv-x="1098" 
d="M841 1286h-297l-290 356h341z" />
    <glyph glyph-name="a" unicode="a" horiz-adv-x="1208" 
d="M548 220q89 0 150 52t61 128v76l-199 -13q-168 -12 -168 -122q0 -56 43 -88.5t113 -32.5zM429 -17q-161 0 -260.5 92t-99.5 244q0 151 113 237t326 98l251 15v88q0 61 -43 94.5t-122 33.5q-148 0 -183 -94h-302q13 159 148.5 251.5t355.5 92.5q227 0 350.5 -99
t123.5 -279v-757h-324v140h-19q-39 -73 -123.5 -115t-191.5 -42z" />
    <glyph glyph-name="b" unicode="b" horiz-adv-x="1334" 
d="M817 -17q-118 0 -207 50t-131 140h-18v-173h-325v1528h334v-597h19q41 92 127.5 144t200.5 52q210 0 327.5 -150.5t117.5 -421.5q0 -269 -118 -420.5t-327 -151.5zM694 861q-104 0 -165 -83t-62 -224q1 -141 62 -223t165 -82q105 0 165 82t60 224q0 141 -60.5 223.5
t-164.5 82.5z" />
    <glyph glyph-name="c" unicode="c" horiz-adv-x="1203" 
d="M1136 705h-307q-14 80 -64.5 124.5t-133.5 44.5q-108 0 -164 -80.5t-56 -236.5q0 -159 56 -240.5t164 -81.5q83 0 133.5 41t64.5 120h307q-17 -196 -150.5 -308.5t-354.5 -112.5q-270 0 -412.5 149.5t-142.5 432.5q0 280 142.5 429t412.5 149q225 0 356.5 -114
t148.5 -316z" />
    <glyph glyph-name="d" unicode="d" horiz-adv-x="1334" 
d="M519 -17q-208 0 -327.5 153.5t-119.5 420.5q0 265 119.5 417.5t328.5 152.5q111 0 197 -52t128 -144h18v597h334v-1528h-324v173h-19q-43 -90 -131 -140t-204 -50zM639 861q-105 0 -165 -81.5t-60 -224.5t59.5 -224.5t165.5 -81.5t166.5 81t60.5 224t-60.5 225t-166.5 82
z" />
    <glyph glyph-name="e" unicode="e" horiz-adv-x="1231" 
d="M622 893q-91 0 -150 -59t-66 -158h425q-5 101 -60 159t-149 58zM842 323h306q-31 -161 -171 -254.5t-351 -93.5q-262 0 -406.5 150.5t-144.5 422.5q0 273 146 430t400 157q253 0 394 -148t141 -413v-95h-751v-17q1 -114 63 -180t167 -66q80 0 133.5 28t73.5 79z" />
    <glyph glyph-name="f" unicode="f" horiz-adv-x="836" 
d="M210 0v845h-173v251h173v113q0 166 91.5 238t300.5 72q88 0 160 -11v-225q-37 7 -94 7q-68 0 -100.5 -26t-32.5 -81v-87h225v-251h-217v-845h-333z" />
    <glyph glyph-name="g" unicode="g" horiz-adv-x="1322" 
d="M864 563q0 138 -61 218t-167 80t-165 -79.5t-59 -218.5t59 -218t165 -79q107 0 167.5 79.5t60.5 217.5zM628 -419q-228 0 -370.5 90.5t-153.5 239.5h326q10 -47 65 -75t142 -28q106 0 165 48t59 134v202h-19q-89 -176 -329 -176q-205 0 -324.5 148t-119.5 398
q0 262 120.5 413.5t330.5 151.5q112 0 200 -52t132 -144h18v179h325v-1100q0 -197 -153.5 -313t-413.5 -116z" />
    <glyph glyph-name="h" unicode="h" horiz-adv-x="1332" 
d="M133 0v1528h327v-602h19q37 95 131.5 150t215.5 55q185 0 289 -109t104 -309v-713h-334v637q0 106 -52.5 162t-147.5 56q-97 0 -157.5 -61.5t-60.5 -161.5v-632h-334z" />
    <glyph glyph-name="i" unicode="i" horiz-adv-x="587" 
d="M127 0v1110h333v-1110h-333zM293 1247q-87 0 -138.5 42.5t-51.5 111.5q0 70 51 112t139 42t139.5 -42t51.5 -112q0 -69 -51.5 -111.5t-139.5 -42.5z" />
    <glyph glyph-name="j" unicode="j" horiz-adv-x="587" 
d="M460 1110v-1130q0 -169 -106 -258.5t-306 -89.5q-61 0 -95 4v243q18 -2 41 -2q71 0 102 27t31 87v1119h333zM293 1247q-87 0 -138.5 42.5t-51.5 111.5q0 70 51 112t139 42t139.5 -42t51.5 -112q0 -69 -51.5 -111.5t-139.5 -42.5z" />
    <glyph glyph-name="k" unicode="k" horiz-adv-x="1232" 
d="M482 688l332 422h375l-404 -477l432 -633h-390l-292 433l-72 -79v-354h-334v1528h334v-840h19z" />
    <glyph glyph-name="l" unicode="l" horiz-adv-x="603" 
d="M134 0v1528h334v-1528h-334z" />
    <glyph glyph-name="m" unicode="m" horiz-adv-x="1899" 
d="M119 0v1110h325v-183h18q33 96 115.5 152t191.5 56q117 0 196 -54t111 -154h19q36 94 126.5 151t206.5 57q164 0 262.5 -102t98.5 -274v-759h-334v674q0 185 -167 185q-80 0 -127 -52t-47 -137v-670h-320v682q0 85 -43 131t-123 46q-78 0 -126.5 -54.5t-48.5 -142.5v-662
h-334z" />
    <glyph glyph-name="n" unicode="n" horiz-adv-x="1310" 
d="M123 0v1110h325v-180h18q38 94 130 149.5t213 55.5q185 0 286 -109t101 -309v-717h-334v642q0 105 -50 161t-144 56q-95 0 -153 -61t-58 -162v-636h-334z" />
    <glyph glyph-name="o" unicode="o" horiz-adv-x="1269" 
d="M634 234q103 0 160 84.5t57 236.5q0 151 -57 236t-160 85t-160 -85t-57 -236q0 -153 57 -237t160 -84zM634 -25q-263 0 -411 153.5t-148 427.5q0 269 150 424t409 155q260 0 410 -154.5t150 -424.5q0 -274 -148 -427.5t-412 -153.5z" />
    <glyph glyph-name="p" unicode="p" horiz-adv-x="1324" 
d="M803 1127q211 0 330 -150.5t119 -421.5q0 -270 -117 -421t-325 -151q-119 0 -205.5 49.5t-125.5 137.5h-19v-511h-334v1451h325v-182h18q43 93 131.5 146t202.5 53zM684 249q106 0 165.5 81.5t59.5 224.5t-59.5 224.5t-165.5 81.5q-105 0 -165.5 -82t-61.5 -225
q1 -143 61 -224t166 -81z" />
    <glyph glyph-name="q" unicode="q" horiz-adv-x="1324" 
d="M523 1127q111 0 199.5 -53.5t130.5 -145.5h19v182h325v-1451h-334v511h-19q-43 -89 -127.5 -138t-201.5 -49q-208 0 -325.5 153t-117.5 421q0 264 120.5 417t330.5 153zM638 249q107 0 167.5 81t60.5 224q0 142 -61 224.5t-166 82.5q-106 0 -165.5 -81.5t-59.5 -224.5
q0 -144 59 -225t165 -81z" />
    <glyph glyph-name="r" unicode="r" horiz-adv-x="884" 
d="M119 0v1110h325v-181h18q21 85 97 141.5t177 56.5q78 0 120 -16v-288q-18 7 -64 13t-80 6q-117 0 -188 -65.5t-71 -180.5v-596h-334z" />
    <glyph glyph-name="s" unicode="s" horiz-adv-x="1160" 
d="M99 778q0 163 130.5 260t349.5 97q224 0 347.5 -86.5t133.5 -251.5h-305q-9 51 -54 79.5t-119 28.5q-73 0 -118.5 -29t-45.5 -77q0 -37 32.5 -60.5t101.5 -38.5l223 -47q163 -35 237.5 -107t74.5 -198q0 -170 -138 -271.5t-366 -101.5q-232 0 -363.5 87.5t-147.5 252.5
h323q29 -110 193 -110q77 0 123.5 29t46.5 77q0 37 -29.5 59.5t-97.5 36.5l-205 45q-327 70 -327 326z" />
    <glyph glyph-name="t" unicode="t" horiz-adv-x="845" 
d="M209 1364h333v-268h229v-251h-229v-466q0 -67 34 -99t104 -32q44 0 87 5v-242q-69 -13 -161 -13q-213 0 -305 71t-92 234v542h-173v251h173v268z" />
    <glyph glyph-name="u" unicode="u" horiz-adv-x="1315" 
d="M1192 1110v-1110h-324v179h-19q-39 -97 -126 -150.5t-206 -53.5q-184 0 -294.5 111t-110.5 306v718h334v-642q0 -105 53 -160t147 -55q95 0 154 60t59 161v636h333z" />
    <glyph glyph-name="v" unicode="v" horiz-adv-x="1194" 
d="M30 1110h359l204 -805h19l201 805h351l-374 -1110h-383z" />
    <glyph glyph-name="w" unicode="w" horiz-adv-x="1735" 
d="M1703 1110l-290 -1110h-358l-181 743h-19l-180 -743h-352l-292 1110h338l147 -773h19l176 773h318l178 -773h19l146 773h331z" />
    <glyph glyph-name="x" unicode="x" horiz-adv-x="1190" 
d="M596 348h-19l-187 -348h-349l337 547l-339 563h381l173 -352h19l174 352h362l-339 -550l341 -560h-367z" />
    <glyph glyph-name="y" unicode="y" horiz-adv-x="1223" 
d="M273 -405q-116 0 -123 1v257q6 -1 63 -1q172 0 194 106l7 33l-382 1119h369l209 -823h19l209 823h353l-365 -1115q-71 -218 -197.5 -309t-355.5 -91z" />
    <glyph glyph-name="z" unicode="z" horiz-adv-x="1160" 
d="M105 0v183l535 654v18h-524v255h924v-209l-494 -628v-19h510v-254h-951z" />
    <glyph glyph-name="braceleft" unicode="{" horiz-adv-x="927" 
d="M383 599q107 -9 162.5 -76t55.5 -184v-240q0 -116 43 -158t164 -42h45v-239h-121q-240 0 -345.5 92t-105.5 302v200q0 116 -36 161t-129 45v298q93 0 129 45.5t36 161.5v167q0 206 104.5 295t346.5 89h121v-239h-45q-121 0 -164 -41.5t-43 -158.5v-222q0 -110 -53 -168.5
t-165 -68.5v-19z" />
    <glyph glyph-name="bar" unicode="|" horiz-adv-x="749" 
d="M530 -280h-310v1723h310v-1723z" />
    <glyph glyph-name="braceright" unicode="}" horiz-adv-x="927" 
d="M545 599v19q-112 10 -165.5 68.5t-53.5 168.5v222q0 117 -42.5 158.5t-163.5 41.5h-45v239h120q242 0 346.5 -89t104.5 -295v-167q0 -116 36.5 -161.5t128.5 -45.5v-298q-93 0 -129 -45t-36 -161v-200q0 -210 -105.5 -302t-345.5 -92h-120v239h45q120 0 163 42t43 158
v240q0 117 56 184t163 76z" />
    <glyph glyph-name="asciitilde" unicode="~" horiz-adv-x="1225" 
d="M565 619q-43 43 -71 59t-58 16q-108 0 -111 -177h-253q-2 30 -2 47q0 188 88.5 297.5t240.5 109.5q70 0 129 -30t135 -103q41 -40 69 -56.5t57 -16.5q108 0 111 178h252q2 -17 2 -48q1 -187 -87 -296.5t-239 -109.5q-71 0 -130.5 29.5t-132.5 100.5z" />
    <glyph glyph-name="nonbreakingspace" unicode="&#xa0;" horiz-adv-x="528" 
 />
    <glyph glyph-name="exclamdown" unicode="&#xa1;" horiz-adv-x="730" 
d="M184 -316l30 969h303l30 -969h-363zM168 982q0 84 52.5 131t145.5 47q92 0 144.5 -47t52.5 -131t-52.5 -131t-144.5 -47q-93 0 -145.5 47t-52.5 131z" />
    <glyph glyph-name="cent" unicode="&#xa2;" horiz-adv-x="1415" 
d="M1267 534q-14 -165 -126.5 -274t-290.5 -138v-187h-267v193q-202 41 -322.5 190.5t-120.5 375.5q0 224 121 373t322 190v193h267v-188q175 -32 289 -144t128 -276h-307q-19 77 -80.5 123.5t-145.5 46.5q-112 0 -185 -85.5t-73 -232.5q0 -149 72.5 -235t184.5 -86
q90 0 150 43t77 118h307z" />
    <glyph glyph-name="sterling" unicode="&#xa3;" horiz-adv-x="1415" 
d="M1275 284v-284h-1147v262q133 16 215.5 103t85.5 215q0 21 -7 47h-288v231h219q-57 133 -57 237q0 184 150 285t423 101q215 0 340 -31v-264q-145 31 -285 31q-130 0 -206.5 -51.5t-76.5 -140.5q0 -79 36 -167h398v-231h-330q6 -21 6 -45q7 -89 -35 -165t-119 -115v-18
h678z" />
    <glyph glyph-name="currency" unicode="&#xa4;" horiz-adv-x="1415" 
d="M484 646q0 -91 66 -157.5t157 -66.5t157.5 66.5t66.5 157.5q0 92 -66.5 158.5t-157.5 66.5t-157 -66.5t-66 -158.5zM1264 1015l-143 -143q58 -105 58 -226t-58 -226l143 -143l-188 -189l-143 143q-105 -58 -226 -58t-226 58l-143 -143l-188 189l143 144q-57 106 -57 225
q0 121 58 226l-144 143l188 189l143 -143q105 58 226 58q120 0 227 -58l142 143z" />
    <glyph glyph-name="yen" unicode="&#xa5;" horiz-adv-x="1415" 
d="M1149 190h-269v-190h-346v190h-269v178h269v124h-269v178h185l-415 773h371l292 -594h19l291 594h371l-415 -773h185v-178h-269v-124h269v-178z" />
    <glyph glyph-name="brokenbar" unicode="&#xa6;" horiz-adv-x="749" 
d="M530 773h-310v670h310v-670zM530 -280h-310v670h310v-670z" />
    <glyph glyph-name="section" unicode="&#xa7;" horiz-adv-x="1032" 
d="M468 468l118 -43q48 10 80 46t32 79t-35 77t-97 54l-118 43q-47 -11 -79.5 -47.5t-32.5 -77.5q0 -42 35 -76.5t97 -54.5zM513 -294q-192 0 -315.5 95t-130.5 249h281q6 -52 53 -84.5t114 -32.5q68 0 111 33t43 86q0 38 -31 65t-100 49l-188 66q-156 53 -225.5 125
t-69.5 180q0 93 57 165.5t156 103.5v19q-107 52 -154 116t-47 158q0 156 123 250t328 94q190 0 311.5 -93.5t130.5 -247.5h-279q-7 50 -52 82t-111 32q-68 0 -110.5 -33t-42.5 -86q0 -38 29.5 -64t100.5 -50l182 -66q159 -57 230 -128.5t71 -174.5q0 -95 -61 -170t-162 -105
v-19q112 -48 161.5 -111t49.5 -158q0 -155 -124 -250t-329 -95z" />
    <glyph glyph-name="dieresis" unicode="&#xa8;" horiz-adv-x="1176" 
d="M343 1268q-74 0 -121 44.5t-47 114.5q0 71 47 115.5t121 44.5q73 0 120 -45t47 -115t-47 -114.5t-120 -44.5zM834 1268q-74 0 -121 44.5t-47 114.5t47 115t121 45t121 -45t47 -115t-47 -114.5t-121 -44.5z" />
    <glyph glyph-name="copyright" unicode="&#xa9;" horiz-adv-x="1742" 
d="M871 -128q-161 0 -306.5 62t-251 167.5t-167.5 251t-62 306.5q0 215 105 396t286 286t396 105t396 -105t286 -286t105 -396t-105 -396t-286 -286t-396 -105zM871 44q168 0 309.5 82t223.5 223.5t82 309.5t-82 309.5t-223.5 223.5t-309.5 82t-309.5 -82t-223.5 -223.5
t-82 -309.5t82 -309.5t223.5 -223.5t309.5 -82zM1234 757h-206q-9 55 -46.5 86.5t-93.5 31.5q-74 0 -115 -56.5t-41 -158.5q0 -103 41 -160t115 -57q58 0 94.5 29.5t45.5 82.5h206q-13 -133 -106 -209t-242 -76q-175 0 -276 104.5t-101 285.5q0 179 101 284t275 105
q146 0 241 -79.5t108 -212.5z" />
    <glyph glyph-name="ordfeminine" unicode="&#xaa;" horiz-adv-x="1031" 
d="M493 704q65 0 107 38.5t42 99.5v64l-145 -10q-126 -9 -126 -97q0 -44 32.5 -69.5t89.5 -25.5zM377 492q-138 0 -220 78t-82 210q0 128 94.5 200t278.5 83l193 11v73q1 44 -32 69.5t-92 25.5q-53 0 -86 -19t-40 -55h-282q9 140 120.5 219t298.5 79q192 0 302 -86.5
t110 -236.5v-634h-292v111h-19q-30 -59 -97.5 -93.5t-154.5 -34.5z" />
    <glyph glyph-name="guillemotleft" unicode="&#xab;" horiz-adv-x="1447" 
d="M961 572v-9l346 -410h-302l-342 409v8l349 409h295zM438 572v-9l346 -410h-302l-342 409v8l348 409h296z" />
    <glyph glyph-name="logicalnot" unicode="&#xac;" horiz-adv-x="1415" 
d="M1247 729v-686h-293v400h-787v286h1080z" />
    <glyph glyph-name="registered" unicode="&#xae;" horiz-adv-x="1260" 
d="M630 411q-145 0 -267.5 71t-194 194t-71.5 268t71.5 268t194 194t267.5 71q109 0 207.5 -42t170 -113.5t113.5 -170t42 -207.5t-42 -207.5t-113.5 -170t-170 -113.5t-207.5 -42zM630 555q162 0 275.5 113.5t113.5 275.5t-113.5 275.5t-275.5 113.5t-275.5 -113.5
t-113.5 -275.5t113.5 -275.5t275.5 -113.5zM552 709h-135v483h259q82 0 132.5 -43.5t50.5 -113.5q0 -54 -26.5 -93t-72.5 -54l123 -179h-159l-105 160h-67v-160zM552 1085v-116h90q74 0 74 57q0 59 -72 59h-92z" />
    <glyph glyph-name="macron" unicode="&#xaf;" horiz-adv-x="1048" 
d="M902 1323h-756v192h756v-192z" />
    <glyph glyph-name="degree" unicode="&#xb0;" horiz-adv-x="887" 
d="M443 745q-145 0 -246 102t-101 246q0 145 101 247t246 102q146 0 247.5 -102t101.5 -247q0 -144 -101.5 -246t-247.5 -102zM443 934q68 0 114.5 47t46.5 112q0 67 -46 113t-115 46q-68 0 -113.5 -46t-45.5 -113q0 -65 46 -112t113 -47z" />
    <glyph glyph-name="plusminus" unicode="&#xb1;" horiz-adv-x="1415" 
d="M1201 60h-990v245h990v-245zM850 647v-220h-286v220h-353v246h353v220h286v-220h353v-246h-353z" />
    <glyph glyph-name="two.sups" unicode="&#xb2;" horiz-adv-x="914" 
d="M43 1527q0 149 107 238.5t287 89.5q173 0 274.5 -78t101.5 -210q0 -94 -59 -175t-193 -172l-89 -75v-19h357v-232h-763v209l268 221q112 88 148 130.5t36 83.5q0 38 -26.5 63t-69.5 25q-46 0 -74 -27.5t-28 -71.5v-6h-277v6z" />
    <glyph glyph-name="three.sups" unicode="&#xb3;" horiz-adv-x="950" 
d="M335 1272v191h115q47 0 74 22t27 60q0 36 -29 58.5t-75 22.5q-52 0 -83.5 -26t-32.5 -70h-276q-2 146 106.5 234t290.5 88q173 0 277 -71.5t104 -189.5q0 -79 -50 -135.5t-131 -69.5v-19q99 -9 156.5 -66.5t57.5 -147.5q0 -128 -114 -207t-300 -79q-185 0 -295 90
t-108 241h278q1 -44 34.5 -70.5t87.5 -26.5q52 0 83 24t31 64t-29 61.5t-83 21.5h-116z" />
    <glyph glyph-name="acute" unicode="&#xb4;" horiz-adv-x="1098" 
d="M249 1286l246 356h341l-290 -356h-297z" />
    <glyph glyph-name="paragraph" unicode="&#xb6;" horiz-adv-x="1580" 
d="M967 -268h-316v677h-20q-115 0 -216.5 40.5t-172.5 109t-112 163.5t-41 201q0 226 151 373t392 147h335v-1711zM1143 -268v1711h316v-1711h-316z" />
    <glyph glyph-name="periodcentered" unicode="&#xb7;" horiz-adv-x="723" 
d="M362 544q-92 0 -145 51.5t-53 136.5t53 136.5t145 51.5q91 0 144 -51.5t53 -136.5t-53 -136.5t-144 -51.5z" />
    <glyph glyph-name="cedilla" unicode="&#xb8;" horiz-adv-x="1098" 
d="M407 -241v124l52 124h189l-46 -112q92 -7 140.5 -53t48.5 -128q0 -99 -72 -153.5t-203 -54.5q-88 0 -148 17v141q40 -14 114 -14q109 0 109 55q0 29 -28.5 41.5t-94.5 12.5h-61z" />
    <glyph glyph-name="one.sups" unicode="&#xb9;" horiz-adv-x="761" 
d="M594 894h-307v663h-19q-2 -2 -56 -36t-107 -67l-53 -34v257q104 74 231 151h311v-934z" />
    <glyph glyph-name="ordmasculine" unicode="&#xba;" horiz-adv-x="1107" 
d="M552 723q78 0 120.5 66t42.5 188q0 120 -43 187t-120 67t-120 -67.5t-43 -186.5q0 -121 42.5 -187.5t120.5 -66.5zM552 492q-222 0 -346 128t-124 357q0 225 126 355t344 130q220 0 345.5 -129.5t125.5 -355.5q0 -229 -124 -357t-347 -128z" />
    <glyph glyph-name="guillemotright" unicode="&#xbb;" horiz-adv-x="1447" 
d="M485 572l-345 407h295l349 -409v-8l-343 -409h-301l345 410v9zM1009 572l-346 407h295l349 -409v-8l-343 -409h-301l346 410v9z" />
    <glyph glyph-name="onequarter" unicode="&#xbc;" horiz-adv-x="2242" 
d="M1665 934h417v-584h106v-213h-118v-137h-266v124h-491v233q48 102 123.5 226t228.5 351zM1570 345v-3h235v373h-17q-177 -281 -218 -370zM541 509h-307v663h-19q-2 -2 -56 -36t-107 -68l-53 -33v257q104 74 231 151h311v-934zM524 0l414 747l307 696h312l-428 -747
l-294 -696h-311z" />
    <glyph glyph-name="onehalf" unicode="&#xbd;" horiz-adv-x="2243" 
d="M1409 633q0 149 107 238.5t287 89.5q173 0 274.5 -78t101.5 -210q0 -94 -59 -175t-193 -172l-89 -75v-19h357v-232h-763v209l268 221q112 88 148 130.5t36 83.5q0 38 -26.5 63t-69.5 25q-46 0 -74 -27.5t-28 -71.5v-6h-277v6zM541 509h-307v663h-19q-2 -2 -56 -36
t-107 -68l-53 -33v257q104 74 231 151h311v-934zM524 0l414 747l307 696h312l-428 -747l-294 -696h-311z" />
    <glyph glyph-name="threequarters" unicode="&#xbe;" horiz-adv-x="2402" 
d="M287 887v191h115q47 0 74 22t27 60q0 36 -29 58.5t-75 22.5q-52 0 -83.5 -26t-32.5 -70h-276q-2 146 106.5 234t290.5 88q173 0 277 -71.5t104 -189.5q0 -79 -50 -135.5t-131 -69.5v-19q99 -9 156.5 -66.5t57.5 -147.5q0 -128 -114 -207t-300 -79q-185 0 -295 90
t-108 241h278q1 -44 34.5 -70.5t87.5 -26.5q52 0 83 24t31 64t-29 61.5t-83 21.5h-116zM1820 934h417v-584h106v-213h-118v-137h-266v124h-491v233q48 102 123.5 226t228.5 351zM1725 345v-3h235v373h-17q-177 -281 -218 -370zM678 0l414 747l307 696h312l-428 -747
l-294 -696h-311z" />
    <glyph glyph-name="questiondown" unicode="&#xbf;" horiz-adv-x="1141" 
d="M1082 100q-3 -197 -137 -313.5t-367 -116.5q-224 0 -359 109.5t-135 287.5q0 110 53 190.5t163 145.5q102 59 137 103.5t35 115.5v49h297l2 -44q13 -124 -27 -200.5t-145 -138.5q-101 -59 -136 -102t-35 -110q0 -64 47.5 -104t123.5 -40t123.5 46t50.5 122h309zM612 803
q-92 0 -145 47.5t-53 131.5q0 83 53 130.5t145 47.5q93 0 145 -47.5t52 -130.5q0 -84 -52 -131.5t-145 -47.5z" />
    <glyph glyph-name="Agrave" unicode="&#xc0;" horiz-adv-x="1500" 
d="M1051 0l-97 326h-482l-99 -326h-345l490 1443h419l490 -1443h-376zM706 1127l-165 -547h346l-162 547h-19zM655 1917l264 -323h-303l-308 323h347z" />
    <glyph glyph-name="Aacute" unicode="&#xc1;" horiz-adv-x="1500" 
d="M1051 0l-97 326h-482l-99 -326h-345l490 1443h419l490 -1443h-376zM706 1127l-165 -547h346l-162 547h-19zM597 1594l264 323h347l-308 -323h-303z" />
    <glyph glyph-name="Acircumflex" unicode="&#xc2;" horiz-adv-x="1500" 
d="M1051 0l-97 326h-482l-99 -326h-345l490 1443h419l490 -1443h-376zM706 1127l-165 -547h346l-162 547h-19zM905 1939l279 -345h-288l-137 189h-18l-137 -189h-288l279 345h310z" />
    <glyph glyph-name="Atilde" unicode="&#xc3;" horiz-adv-x="1500" 
d="M1051 0l-97 326h-482l-99 -326h-345l490 1443h419l490 -1443h-376zM706 1127l-165 -547h346l-162 547h-19zM912 1577q-55 0 -101.5 20.5t-72.5 45t-58 45t-62 20.5q-78 0 -84 -122h-200q0 148 70.5 232t183.5 84q56 0 103.5 -20.5t74 -45t58 -45t58.5 -20.5q79 0 84 118
h200q0 -145 -71 -228.5t-183 -83.5z" />
    <glyph glyph-name="Adieresis" unicode="&#xc4;" horiz-adv-x="1500" 
d="M1051 0l-97 326h-482l-99 -326h-345l490 1443h419l490 -1443h-376zM706 1127l-165 -547h346l-162 547h-19zM490 1581q-74 0 -121 44.5t-47 114.5q0 71 47 115.5t121 44.5q73 0 120 -45t47 -115t-47 -114.5t-120 -44.5zM981 1581q-74 0 -121 44.5t-47 114.5t47 115t121 45
t121 -45t47 -115t-47 -114.5t-121 -44.5z" />
    <glyph glyph-name="Aring" unicode="&#xc5;" horiz-adv-x="1500" 
d="M1051 0l-97 326h-482l-99 -326h-345l490 1443h419l490 -1443h-376zM706 1127l-165 -547h346l-162 547h-19zM750 1579q-108 0 -179.5 69t-71.5 174t71 173t180 68q108 0 179 -68t71 -173q0 -106 -71 -174.5t-179 -68.5zM749 1722q44 0 72 28t28 71t-28.5 71t-71.5 28
q-43 -1 -71 -29t-28 -70q0 -43 28 -71t71 -28z" />
    <glyph glyph-name="AE" unicode="&#xc6;" horiz-adv-x="2059" 
d="M974 1180h-123l-227 -586h350v586zM974 0v340h-442l-134 -340h-343l576 1443h1302v-282h-648v-308h611v-260h-611v-311h648v-282h-959z" />
    <glyph glyph-name="Ccedilla" unicode="&#xc7;" horiz-adv-x="1518" 
d="M1087 512h334q-11 -220 -160.5 -368t-384.5 -176l-29 -72q92 -7 140.5 -53t48.5 -128q0 -99 -72 -153.5t-203 -54.5q-89 0 -148 17v141q40 -14 114 -14q109 0 109 55q0 29 -28.5 41.5t-94.5 12.5h-61v124l35 83q-281 29 -440.5 229t-159.5 526q0 353 184.5 556t506.5 203
q176 0 320 -72t229.5 -200t92.5 -287h-334q-17 120 -101.5 193.5t-206.5 73.5q-157 0 -247.5 -125t-90.5 -342t91 -342.5t248 -125.5q122 0 206.5 70.5t101.5 187.5z" />
    <glyph glyph-name="Egrave" unicode="&#xc8;" horiz-adv-x="1274" 
d="M557 1917l264 -323h-303l-308 323h347zM1132 282v-282h-978v1443h978v-282h-632v-305h595v-259h-595v-315h632z" />
    <glyph glyph-name="Eacute" unicode="&#xc9;" horiz-adv-x="1274" 
d="M499 1594l264 323h347l-308 -323h-303zM1132 282v-282h-978v1443h978v-282h-632v-305h595v-259h-595v-315h632z" />
    <glyph glyph-name="Ecircumflex" unicode="&#xca;" horiz-adv-x="1274" 
d="M807 1939l279 -345h-288l-137 189h-18l-137 -189h-288l279 345h310zM1132 282v-282h-978v1443h978v-282h-632v-305h595v-259h-595v-315h632z" />
    <glyph glyph-name="Edieresis" unicode="&#xcb;" horiz-adv-x="1274" 
d="M392 1581q-74 0 -121 44.5t-47 114.5q0 71 47 115.5t121 44.5q73 0 120 -45t47 -115t-47 -114.5t-120 -44.5zM883 1581q-74 0 -121 44.5t-47 114.5t47 115t121 45t121 -45t47 -115t-47 -114.5t-121 -44.5zM1132 282v-282h-978v1443h978v-282h-632v-305h595v-259h-595
v-315h632z" />
    <glyph glyph-name="Igrave" unicode="&#xcc;" horiz-adv-x="652" 
d="M480 0h-346v1443h346v-1443zM231 1917l264 -323h-303l-308 323h347z" />
    <glyph glyph-name="Iacute" unicode="&#xcd;" horiz-adv-x="652" 
d="M480 0h-346v1443h346v-1443zM173 1594l264 323h347l-308 -323h-303z" />
    <glyph glyph-name="Icircumflex" unicode="&#xce;" horiz-adv-x="652" 
d="M480 0h-346v1443h346v-1443zM481 1939l279 -345h-288l-137 189h-18l-137 -189h-288l279 345h310z" />
    <glyph glyph-name="Idieresis" unicode="&#xcf;" horiz-adv-x="652" 
d="M480 0h-346v1443h346v-1443zM66 1581q-74 0 -121 44.5t-47 114.5q0 71 47 115.5t121 44.5q73 0 120 -45t47 -115t-47 -114.5t-120 -44.5zM557 1581q-74 0 -121 44.5t-47 114.5t47 115t121 45t121 -45t47 -115t-47 -114.5t-121 -44.5z" />
    <glyph glyph-name="Eth" unicode="&#xd0;" horiz-adv-x="1499" 
d="M502 282h187q186 0 284.5 114t98.5 332q0 207 -101 320.5t-282 113.5h-187v-313h209v-243h-209v-324zM156 1444h593q323 0 499.5 -185.5t176.5 -524.5q0 -354 -175 -544t-501 -190h-593v606h-124v243h124v595z" />
    <glyph glyph-name="Ntilde" unicode="&#xd1;" horiz-adv-x="1573" 
d="M943 1577q-55 0 -101.5 20.5t-72.5 45t-58 45t-62 20.5q-78 0 -84 -122h-200q0 148 70.5 232t183.5 84q56 0 103.5 -20.5t74 -45t58 -45t58.5 -20.5q79 0 84 118h200q0 -145 -71 -228.5t-183 -83.5zM481 0h-329v1443h279l622 -842h18v842h329v-1443h-277l-624 849h-18
v-849z" />
    <glyph glyph-name="Ograve" unicode="&#xd2;" horiz-adv-x="1610" 
d="M710 1917l264 -323h-303l-308 323h347zM799 1481q324 0 514.5 -204t190.5 -555t-190 -555.5t-515 -204.5t-515.5 204t-190.5 556q0 351 191 555t515 204zM799 1191q-160 0 -256.5 -127.5t-96.5 -341.5q0 -215 96 -342.5t257 -127.5q160 0 256 128t96 342t-96 341.5
t-256 127.5z" />
    <glyph glyph-name="Oacute" unicode="&#xd3;" horiz-adv-x="1610" 
d="M652 1594l264 323h347l-308 -323h-303zM799 1481q324 0 514.5 -204t190.5 -555t-190 -555.5t-515 -204.5t-515.5 204t-190.5 556q0 351 191 555t515 204zM799 1191q-160 0 -256.5 -127.5t-96.5 -341.5q0 -215 96 -342.5t257 -127.5q160 0 256 128t96 342t-96 341.5
t-256 127.5z" />
    <glyph glyph-name="Ocircumflex" unicode="&#xd4;" horiz-adv-x="1610" 
d="M960 1939l279 -345h-288l-137 189h-18l-137 -189h-288l279 345h310zM799 1481q324 0 514.5 -204t190.5 -555t-190 -555.5t-515 -204.5t-515.5 204t-190.5 556q0 351 191 555t515 204zM799 1191q-160 0 -256.5 -127.5t-96.5 -341.5q0 -215 96 -342.5t257 -127.5
q160 0 256 128t96 342t-96 341.5t-256 127.5z" />
    <glyph glyph-name="Otilde" unicode="&#xd5;" horiz-adv-x="1610" 
d="M799 1481q324 0 514.5 -204t190.5 -555t-190 -555.5t-515 -204.5t-515.5 204t-190.5 556q0 351 191 555t515 204zM799 1191q-160 0 -256.5 -127.5t-96.5 -341.5q0 -215 96 -342.5t257 -127.5q160 0 256 128t96 342t-96 341.5t-256 127.5zM967 1577q-55 0 -101.5 20.5
t-72.5 45t-58 45t-62 20.5q-78 0 -84 -122h-200q0 148 70.5 232t183.5 84q56 0 103.5 -20.5t74 -45t58 -45t58.5 -20.5q79 0 84 118h200q0 -145 -71 -228.5t-183 -83.5z" />
    <glyph glyph-name="Odieresis" unicode="&#xd6;" horiz-adv-x="1610" 
d="M545 1581q-74 0 -121 44.5t-47 114.5q0 71 47 115.5t121 44.5q73 0 120 -45t47 -115t-47 -114.5t-120 -44.5zM1036 1581q-74 0 -121 44.5t-47 114.5t47 115t121 45t121 -45t47 -115t-47 -114.5t-121 -44.5zM799 1481q324 0 514.5 -204t190.5 -555t-190 -555.5
t-515 -204.5t-515.5 204t-190.5 556q0 351 191 555t515 204zM799 1191q-160 0 -256.5 -127.5t-96.5 -341.5q0 -215 96 -342.5t257 -127.5q160 0 256 128t96 342t-96 341.5t-256 127.5z" />
    <glyph glyph-name="multiply" unicode="&#xd7;" horiz-adv-x="1415" 
d="M707 383l-303 -303l-201 202l303 304l-303 303l201 202l303 -303l303 303l201 -202l-303 -303l303 -304l-201 -202z" />
    <glyph glyph-name="Oslash" unicode="&#xd8;" horiz-adv-x="1592" 
d="M1070 1041l-460 -730q81 -59 188 -59q160 0 256 128t96 342q0 194 -80 319zM524 404l458 730q-80 57 -184 57q-160 0 -256.5 -127.5t-96.5 -341.5q0 -194 79 -318zM1331 1456l-78 -123q121 -99 185.5 -255t64.5 -356q0 -351 -190 -555.5t-515 -204.5q-201 0 -357 82
l-74 -118l-102 64l76 121q-120 98 -184.5 254t-64.5 357q0 351 191 555t515 204q199 0 351 -80l70 111z" />
    <glyph glyph-name="Ugrave" unicode="&#xd9;" horiz-adv-x="1565" 
d="M687 1917l264 -323h-303l-308 323h347zM505 1443v-909q0 -130 71 -204t199 -74q129 0 199.5 74t70.5 204v909h346v-945q0 -242 -168 -389t-448 -147q-279 0 -447.5 147t-168.5 389v945h346z" />
    <glyph glyph-name="Uacute" unicode="&#xda;" horiz-adv-x="1565" 
d="M629 1594l264 323h347l-308 -323h-303zM505 1443v-909q0 -130 71 -204t199 -74q129 0 199.5 74t70.5 204v909h346v-945q0 -242 -168 -389t-448 -147q-279 0 -447.5 147t-168.5 389v945h346z" />
    <glyph glyph-name="Ucircumflex" unicode="&#xdb;" horiz-adv-x="1565" 
d="M937 1939l279 -345h-288l-137 189h-18l-137 -189h-288l279 345h310zM505 1443v-909q0 -130 71 -204t199 -74q129 0 199.5 74t70.5 204v909h346v-945q0 -242 -168 -389t-448 -147q-279 0 -447.5 147t-168.5 389v945h346z" />
    <glyph glyph-name="Udieresis" unicode="&#xdc;" horiz-adv-x="1565" 
d="M522 1581q-74 0 -121 44.5t-47 114.5q0 71 47 115.5t121 44.5q73 0 120 -45t47 -115t-47 -114.5t-120 -44.5zM1013 1581q-74 0 -121 44.5t-47 114.5t47 115t121 45t121 -45t47 -115t-47 -114.5t-121 -44.5zM505 1443v-909q0 -130 71 -204t199 -74q129 0 199.5 74
t70.5 204v909h346v-945q0 -242 -168 -389t-448 -147q-279 0 -447.5 147t-168.5 389v945h346z" />
    <glyph glyph-name="Yacute" unicode="&#xdd;" horiz-adv-x="1452" 
d="M880 0h-346v508l-499 935h371l292 -594h19l291 594h371l-499 -935v-508zM573 1594l264 323h347l-308 -323h-303z" />
    <glyph glyph-name="Thorn" unicode="&#xde;" horiz-adv-x="1378" 
d="M154 1443h348v-223h284q220 0 356.5 -128t136.5 -346q0 -217 -142 -344.5t-372 -127.5h-265v-274h-346v1443zM500 949v-409h190q113 0 176 52.5t63 152.5t-62.5 152t-174.5 52h-192z" />
    <glyph glyph-name="germandbls" unicode="&#xdf;" horiz-adv-x="1402" 
d="M490 0h-334v1073q0 188 142.5 296t387.5 108q232 0 377 -105t145 -272q0 -118 -59.5 -205.5t-154.5 -113.5v-20q150 -8 242.5 -107t92.5 -255q0 -189 -133.5 -301.5t-361.5 -112.5q-128 0 -195 16v263q55 -18 127 -18q107 0 164.5 47t57.5 129q0 83 -66.5 130t-184.5 47
h-76v264h49q79 0 127 47t48 127q0 78 -52 125.5t-142 47.5q-98 0 -149.5 -53.5t-51.5 -156.5v-1000z" />
    <glyph glyph-name="agrave" unicode="&#xe0;" horiz-adv-x="1208" 
d="M534 220q89 0 150 52t61 128v76l-199 -13q-168 -12 -168 -122q0 -56 43 -88.5t113 -32.5zM415 -17q-161 0 -260.5 92t-99.5 244q0 151 113 237t326 98l251 15v88q0 61 -43 94.5t-122 33.5q-148 0 -183 -94h-302q13 159 148.5 251.5t355.5 92.5q227 0 350.5 -99
t123.5 -279v-757h-324v140h-19q-39 -73 -123.5 -115t-191.5 -42zM785 1286h-297l-290 356h341z" />
    <glyph glyph-name="aacute" unicode="&#xe1;" horiz-adv-x="1208" 
d="M534 220q89 0 150 52t61 128v76l-199 -13q-168 -12 -168 -122q0 -56 43 -88.5t113 -32.5zM415 -17q-161 0 -260.5 92t-99.5 244q0 151 113 237t326 98l251 15v88q0 61 -43 94.5t-122 33.5q-148 0 -183 -94h-302q13 159 148.5 251.5t355.5 92.5q227 0 350.5 -99
t123.5 -279v-757h-324v140h-19q-39 -73 -123.5 -115t-191.5 -42zM443 1286l246 356h341l-290 -356h-297z" />
    <glyph glyph-name="acircumflex" unicode="&#xe2;" horiz-adv-x="1208" 
d="M534 220q89 0 150 52t61 128v76l-199 -13q-168 -12 -168 -122q0 -56 43 -88.5t113 -32.5zM415 -17q-161 0 -260.5 92t-99.5 244q0 151 113 237t326 98l251 15v88q0 61 -43 94.5t-122 33.5q-148 0 -183 -94h-302q13 159 148.5 251.5t355.5 92.5q227 0 350.5 -99
t123.5 -279v-757h-324v140h-19q-39 -73 -123.5 -115t-191.5 -42zM775 1614l272 -357h-286l-138 204h-19l-138 -204h-287l273 357h323z" />
    <glyph glyph-name="atilde" unicode="&#xe3;" horiz-adv-x="1208" 
d="M534 220q89 0 150 52t61 128v76l-199 -13q-168 -12 -168 -122q0 -56 43 -88.5t113 -32.5zM415 -17q-161 0 -260.5 92t-99.5 244q0 151 113 237t326 98l251 15v88q0 61 -43 94.5t-122 33.5q-148 0 -183 -94h-302q13 159 148.5 251.5t355.5 92.5q227 0 350.5 -99
t123.5 -279v-757h-324v140h-19q-39 -73 -123.5 -115t-191.5 -42zM490 1399q-39 0 -61.5 -36t-23.5 -102h-202q0 148 74.5 238.5t196.5 90.5q41 0 77.5 -14.5t62 -35t48 -41.5t44.5 -35.5t43 -14.5q82 0 85 134h203q0 -146 -75 -235.5t-197 -89.5q-50 0 -94 22t-70 48.5
t-56 48.5t-55 22z" />
    <glyph glyph-name="adieresis" unicode="&#xe4;" horiz-adv-x="1208" 
d="M534 220q89 0 150 52t61 128v76l-199 -13q-168 -12 -168 -122q0 -56 43 -88.5t113 -32.5zM415 -17q-161 0 -260.5 92t-99.5 244q0 151 113 237t326 98l251 15v88q0 61 -43 94.5t-122 33.5q-148 0 -183 -94h-302q13 159 148.5 251.5t355.5 92.5q227 0 350.5 -99
t123.5 -279v-757h-324v140h-19q-39 -73 -123.5 -115t-191.5 -42zM354 1257q-74 0 -121 44.5t-47 114.5q0 71 47 115.5t121 44.5q73 0 120 -45t47 -115t-47 -114.5t-120 -44.5zM845 1257q-74 0 -121 44.5t-47 114.5t47 115t121 45t121 -45t47 -115t-47 -114.5t-121 -44.5z
" />
    <glyph glyph-name="aring" unicode="&#xe5;" horiz-adv-x="1208" 
d="M534 220q89 0 150 52t61 128v76l-199 -13q-168 -12 -168 -122q0 -56 43 -88.5t113 -32.5zM415 -17q-161 0 -260.5 92t-99.5 244q0 151 113 237t326 98l251 15v88q0 61 -43 94.5t-122 33.5q-148 0 -183 -94h-302q13 159 148.5 251.5t355.5 92.5q227 0 350.5 -99
t123.5 -279v-757h-324v140h-19q-39 -73 -123.5 -115t-191.5 -42zM614 1257q-108 0 -179.5 69t-71.5 174t71 173t180 68q108 0 179 -68t71 -173q0 -106 -71 -174.5t-179 -68.5zM613 1400q44 0 72 28t28 71t-28.5 71t-71.5 28q-43 -1 -71 -29t-28 -70q0 -43 28 -71t71 -28z
" />
    <glyph glyph-name="ae" unicode="&#xe6;" horiz-adv-x="1894" 
d="M1317 -25q-130 0 -234.5 50.5t-158.5 138.5h-19q-67 -88 -172.5 -138.5t-234.5 -50.5q-193 0 -308 95.5t-115 248.5q0 151 113 237t326 98l251 15v88q0 61 -43 94.5t-122 33.5q-148 0 -183 -94h-302q11 151 140.5 247.5t321.5 96.5q250 0 361 -152h19q61 70 153 111
t202 41q233 0 369 -150t136 -405v-100h-739v-28q2 -106 66 -170.5t168 -64.5q141 0 193 106h304q-31 -160 -164 -254t-328 -94zM1291 894q-92 0 -150.5 -60.5t-62.5 -157.5h416q-5 98 -60.5 158t-142.5 60zM557 216q88 0 148 54.5t60 131.5v74l-199 -13q-168 -12 -168 -125
q0 -57 43 -89.5t116 -32.5z" />
    <glyph glyph-name="ccedilla" unicode="&#xe7;" horiz-adv-x="1203" 
d="M1126 705h-307q-14 80 -64.5 124.5t-133.5 44.5q-108 0 -164 -80.5t-56 -236.5q0 -159 56 -240.5t164 -81.5q83 0 133.5 41t64.5 120h307q-14 -171 -118.5 -279.5t-281.5 -134.5l-35 -86q92 -7 140.5 -53t48.5 -128q0 -99 -72 -153.5t-203 -54.5q-89 0 -148 17v141
q40 -14 114 -14q109 0 109 55q0 29 -28.5 41.5t-94.5 12.5h-61v124l40 95q-230 23 -350 171t-120 407q0 280 142.5 429t412.5 149q225 0 356.5 -114t148.5 -316z" />
    <glyph glyph-name="egrave" unicode="&#xe8;" horiz-adv-x="1231" 
d="M792 1286h-297l-290 356h341zM611 893q-91 0 -150 -59t-66 -158h425q-5 101 -60 159t-149 58zM831 323h306q-31 -161 -171 -254.5t-351 -93.5q-262 0 -406.5 150.5t-144.5 422.5q0 273 146 430t400 157q253 0 394 -148t141 -413v-95h-751v-17q1 -114 63 -180t167 -66
q80 0 133.5 28t73.5 79z" />
    <glyph glyph-name="eacute" unicode="&#xe9;" horiz-adv-x="1231" 
d="M450 1286l246 356h341l-290 -356h-297zM611 893q-91 0 -150 -59t-66 -158h425q-5 101 -60 159t-149 58zM831 323h306q-31 -161 -171 -254.5t-351 -93.5q-262 0 -406.5 150.5t-144.5 422.5q0 273 146 430t400 157q253 0 394 -148t141 -413v-95h-751v-17q1 -114 63 -180
t167 -66q80 0 133.5 28t73.5 79z" />
    <glyph glyph-name="ecircumflex" unicode="&#xea;" horiz-adv-x="1231" 
d="M782 1614l272 -357h-286l-138 204h-19l-138 -204h-287l273 357h323zM611 893q-91 0 -150 -59t-66 -158h425q-5 101 -60 159t-149 58zM831 323h306q-31 -161 -171 -254.5t-351 -93.5q-262 0 -406.5 150.5t-144.5 422.5q0 273 146 430t400 157q253 0 394 -148t141 -413v-95
h-751v-17q1 -114 63 -180t167 -66q80 0 133.5 28t73.5 79z" />
    <glyph glyph-name="edieresis" unicode="&#xeb;" horiz-adv-x="1231" 
d="M611 893q-91 0 -150 -59t-66 -158h425q-5 101 -60 159t-149 58zM831 323h306q-31 -161 -171 -254.5t-351 -93.5q-262 0 -406.5 150.5t-144.5 422.5q0 273 146 430t400 157q253 0 394 -148t141 -413v-95h-751v-17q1 -114 63 -180t167 -66q80 0 133.5 28t73.5 79zM361 1257
q-74 0 -121 44.5t-47 114.5q0 71 47 115.5t121 44.5q73 0 120 -45t47 -115t-47 -114.5t-120 -44.5zM852 1257q-74 0 -121 44.5t-47 114.5t47 115t121 45t121 -45t47 -115t-47 -114.5t-121 -44.5z" />
    <glyph glyph-name="igrave" unicode="&#xec;" horiz-adv-x="593" 
d="M467 1286h-297l-290 356h341zM115 0v1110h334v-1110h-334z" />
    <glyph glyph-name="iacute" unicode="&#xed;" horiz-adv-x="593" 
d="M125 1286l246 356h341l-290 -356h-297zM115 0v1110h334v-1110h-334z" />
    <glyph glyph-name="icircumflex" unicode="&#xee;" horiz-adv-x="593" 
d="M457 1614l272 -357h-286l-138 204h-19l-138 -204h-287l273 357h323zM115 0v1110h334v-1110h-334z" />
    <glyph glyph-name="idieresis" unicode="&#xef;" horiz-adv-x="593" 
d="M115 0v1110h334v-1110h-334zM36 1257q-74 0 -121 44.5t-47 114.5q0 71 47 115.5t121 44.5q73 0 120 -45t47 -115t-47 -114.5t-120 -44.5zM527 1257q-74 0 -121 44.5t-47 114.5t47 115t121 45t121 -45t47 -115t-47 -114.5t-121 -44.5z" />
    <glyph glyph-name="eth" unicode="&#xf0;" horiz-adv-x="1277" 
d="M635 -17q-251 0 -405 153.5t-154 403.5q0 227 128 369.5t333 142.5q85 0 156.5 -30.5t113.5 -83.5h18q-43 131 -168 263l-287 -96l-62 150l226 77q-69 58 -256 182h420q58 -44 108 -90l271 91l65 -151l-203 -68q128 -146 195 -320t67 -364q0 -285 -154.5 -457
t-411.5 -172zM644 827q-103 0 -164 -78t-61 -211q0 -134 60.5 -211.5t164.5 -77.5q105 0 166 77.5t61 211.5q0 133 -61.5 211t-165.5 78z" />
    <glyph glyph-name="ntilde" unicode="&#xf1;" horiz-adv-x="1310" 
d="M540 1399q-39 0 -61.5 -36t-23.5 -102h-202q0 148 74.5 238.5t196.5 90.5q41 0 77.5 -14.5t62 -35t48 -41.5t44.5 -35.5t43 -14.5q82 0 85 134h203q0 -146 -75 -235.5t-197 -89.5q-50 0 -94 22t-70 48.5t-56 48.5t-55 22zM106 0v1110h325v-180h18q38 94 130 149.5
t213 55.5q185 0 286 -109t101 -309v-717h-334v642q0 105 -50 161t-144 56q-95 0 -153 -61t-58 -162v-636h-334z" />
    <glyph glyph-name="ograve" unicode="&#xf2;" horiz-adv-x="1269" 
d="M805 1286h-297l-290 356h341zM623 234q103 0 160 84.5t57 236.5q0 151 -57 236t-160 85t-160 -85t-57 -236q0 -153 57 -237t160 -84zM623 -25q-263 0 -411 153.5t-148 427.5q0 269 150 424t409 155q260 0 410 -154.5t150 -424.5q0 -274 -148 -427.5t-412 -153.5z" />
    <glyph glyph-name="oacute" unicode="&#xf3;" horiz-adv-x="1269" 
d="M463 1286l246 356h341l-290 -356h-297zM623 234q103 0 160 84.5t57 236.5q0 151 -57 236t-160 85t-160 -85t-57 -236q0 -153 57 -237t160 -84zM623 -25q-263 0 -411 153.5t-148 427.5q0 269 150 424t409 155q260 0 410 -154.5t150 -424.5q0 -274 -148 -427.5t-412 -153.5
z" />
    <glyph glyph-name="ocircumflex" unicode="&#xf4;" horiz-adv-x="1269" 
d="M795 1614l272 -357h-286l-138 204h-19l-138 -204h-287l273 357h323zM623 234q103 0 160 84.5t57 236.5q0 151 -57 236t-160 85t-160 -85t-57 -236q0 -153 57 -237t160 -84zM623 -25q-263 0 -411 153.5t-148 427.5q0 269 150 424t409 155q260 0 410 -154.5t150 -424.5
q0 -274 -148 -427.5t-412 -153.5z" />
    <glyph glyph-name="otilde" unicode="&#xf5;" horiz-adv-x="1269" 
d="M510 1399q-39 0 -61.5 -36t-23.5 -102h-202q0 148 74.5 238.5t196.5 90.5q41 0 77.5 -14.5t62 -35t48 -41.5t44.5 -35.5t43 -14.5q82 0 85 134h203q0 -146 -75 -235.5t-197 -89.5q-50 0 -94 22t-70 48.5t-56 48.5t-55 22zM623 234q103 0 160 84.5t57 236.5q0 151 -57 236
t-160 85t-160 -85t-57 -236q0 -153 57 -237t160 -84zM623 -25q-263 0 -411 153.5t-148 427.5q0 269 150 424t409 155q260 0 410 -154.5t150 -424.5q0 -274 -148 -427.5t-412 -153.5z" />
    <glyph glyph-name="odieresis" unicode="&#xf6;" horiz-adv-x="1269" 
d="M374 1257q-74 0 -121 44.5t-47 114.5q0 71 47 115.5t121 44.5q73 0 120 -45t47 -115t-47 -114.5t-120 -44.5zM865 1257q-74 0 -121 44.5t-47 114.5t47 115t121 45t121 -45t47 -115t-47 -114.5t-121 -44.5zM623 234q103 0 160 84.5t57 236.5q0 151 -57 236t-160 85
t-160 -85t-57 -236q0 -153 57 -237t160 -84zM623 -25q-263 0 -411 153.5t-148 427.5q0 269 150 424t409 155q260 0 410 -154.5t150 -424.5q0 -274 -148 -427.5t-412 -153.5z" />
    <glyph glyph-name="divide" unicode="&#xf7;" horiz-adv-x="1415" 
d="M1258 463h-1102v245h1102v-245zM707 815q-81 0 -131.5 47.5t-50.5 124.5q0 76 50.5 123.5t131.5 47.5q82 0 132 -47t50 -124t-50 -124.5t-132 -47.5zM707 13q-81 0 -131.5 47.5t-50.5 123.5q0 77 50.5 124.5t131.5 47.5q82 0 132 -47.5t50 -124.5t-50 -124t-132 -47z" />
    <glyph glyph-name="oslash" unicode="&#xf8;" horiz-adv-x="1269" 
d="M818 716l-282 -463q40 -19 87 -19q103 0 160 84.5t57 236.5q0 90 -22 161zM449 342l298 490q-50 44 -124 44q-103 0 -160 -85t-57 -236q0 -132 43 -213zM1070 1129l-71 -117q184 -154 184 -456q0 -274 -148 -427.5t-412 -153.5q-131 0 -233 39l-59 -96l-103 62l54 89
q-106 73 -162 197t-56 290q0 269 150 424t409 155q154 0 274 -57l66 108z" />
    <glyph glyph-name="ugrave" unicode="&#xf9;" horiz-adv-x="1318" 
d="M826 1286h-297l-290 356h341zM1175 1110v-1110h-324v179h-19q-39 -97 -126 -150.5t-206 -53.5q-184 0 -294.5 111t-110.5 306v718h334v-642q0 -105 53 -160t147 -55q95 0 154 60t59 161v636h333z" />
    <glyph glyph-name="uacute" unicode="&#xfa;" horiz-adv-x="1318" 
d="M484 1286l246 356h341l-290 -356h-297zM1175 1110v-1110h-324v179h-19q-39 -97 -126 -150.5t-206 -53.5q-184 0 -294.5 111t-110.5 306v718h334v-642q0 -105 53 -160t147 -55q95 0 154 60t59 161v636h333z" />
    <glyph glyph-name="ucircumflex" unicode="&#xfb;" horiz-adv-x="1318" 
d="M816 1614l272 -357h-286l-138 204h-19l-138 -204h-287l273 357h323zM1175 1110v-1110h-324v179h-19q-39 -97 -126 -150.5t-206 -53.5q-184 0 -294.5 111t-110.5 306v718h334v-642q0 -105 53 -160t147 -55q95 0 154 60t59 161v636h333z" />
    <glyph glyph-name="udieresis" unicode="&#xfc;" horiz-adv-x="1318" 
d="M1175 1110v-1110h-324v179h-19q-39 -97 -126 -150.5t-206 -53.5q-184 0 -294.5 111t-110.5 306v718h334v-642q0 -105 53 -160t147 -55q95 0 154 60t59 161v636h333zM395 1257q-74 0 -121 44.5t-47 114.5q0 71 47 115.5t121 44.5q73 0 120 -45t47 -115t-47 -114.5
t-120 -44.5zM886 1257q-74 0 -121 44.5t-47 114.5t47 115t121 45t121 -45t47 -115t-47 -114.5t-121 -44.5z" />
    <glyph glyph-name="yacute" unicode="&#xfd;" horiz-adv-x="1223" 
d="M253 -405q-116 0 -123 1v257q6 -1 63 -1q172 0 194 106l7 33l-382 1119h369l209 -823h19l209 823h353l-365 -1115q-71 -218 -197.5 -309t-355.5 -91zM448 1286l246 356h341l-290 -356h-297z" />
    <glyph glyph-name="thorn" unicode="&#xfe;" horiz-adv-x="1339" 
d="M808 1127q211 0 328.5 -150.5t117.5 -421.5q0 -270 -117 -421t-325 -151q-119 0 -205.5 49.5t-125.5 137.5h-19v-511h-334v1848h332v-579h18q43 94 129.5 146.5t200.5 52.5zM686 249q106 0 165.5 81.5t59.5 224.5t-59.5 224.5t-165.5 81.5q-105 0 -165.5 -82t-61.5 -225
q1 -142 61.5 -223.5t165.5 -81.5z" />
    <glyph glyph-name="ydieresis" unicode="&#xff;" horiz-adv-x="1223" 
d="M253 -405q-116 0 -123 1v257q6 -1 63 -1q172 0 194 106l7 33l-382 1119h369l209 -823h19l209 823h353l-365 -1115q-71 -218 -197.5 -309t-355.5 -91zM359 1257q-74 0 -121 44.5t-47 114.5q0 71 47 115.5t121 44.5q73 0 120 -45t47 -115t-47 -114.5t-120 -44.5zM850 1257
q-74 0 -121 44.5t-47 114.5t47 115t121 45t121 -45t47 -115t-47 -114.5t-121 -44.5z" />
    <glyph glyph-name="Amacron" unicode="&#x100;" horiz-adv-x="1500" 
d="M1051 0l-97 326h-482l-99 -326h-345l490 1443h419l490 -1443h-376zM706 1127l-165 -547h346l-162 547h-19zM1135 1635h-770v192h770v-192z" />
    <glyph glyph-name="amacron" unicode="&#x101;" horiz-adv-x="1208" 
d="M534 220q89 0 150 52t61 128v76l-199 -13q-168 -12 -168 -122q0 -56 43 -88.5t113 -32.5zM415 -17q-161 0 -260.5 92t-99.5 244q0 151 113 237t326 98l251 15v88q0 61 -43 94.5t-122 33.5q-148 0 -183 -94h-302q13 159 148.5 251.5t355.5 92.5q227 0 350.5 -99
t123.5 -279v-757h-324v140h-19q-39 -73 -123.5 -115t-191.5 -42zM992 1323h-756v192h756v-192z" />
    <glyph glyph-name="Abreve" unicode="&#x102;" horiz-adv-x="1500" 
d="M1051 0l-97 326h-482l-99 -326h-345l490 1443h419l490 -1443h-376zM706 1127l-165 -547h346l-162 547h-19zM338 1926h226q2 -74 52.5 -118t133.5 -44t133.5 44t52.5 118h226q0 -155 -111.5 -250t-300.5 -95t-300.5 95t-111.5 250z" />
    <glyph glyph-name="abreve" unicode="&#x103;" horiz-adv-x="1208" 
d="M534 220q89 0 150 52t61 128v76l-199 -13q-168 -12 -168 -122q0 -56 43 -88.5t113 -32.5zM415 -17q-161 0 -260.5 92t-99.5 244q0 151 113 237t326 98l251 15v88q0 61 -43 94.5t-122 33.5q-148 0 -183 -94h-302q13 159 148.5 251.5t355.5 92.5q227 0 350.5 -99
t123.5 -279v-757h-324v140h-19q-39 -73 -123.5 -115t-191.5 -42zM201 1614h226q2 -79 52 -125.5t134 -46.5t134 46.5t52 125.5h226q0 -159 -111.5 -258t-300.5 -99t-300.5 99t-111.5 258z" />
    <glyph glyph-name="Aogonek" unicode="&#x104;" horiz-adv-x="1500" 
d="M728 1127l-165 -547h346l-162 547h-19zM1411 -452q-63 -26 -159 -26q-120 0 -191 60t-71 161q0 159 171 265h-91l-94 318h-482l-99 -326h-345l490 1443h419l488 -1439h-80q-153 -88 -153 -195q0 -45 33 -72t88 -27q39 0 76 9v-171z" />
    <glyph glyph-name="aogonek" unicode="&#x105;" horiz-adv-x="1208" 
d="M550 220q88 0 148.5 52t60.5 128v80l-198 -13q-81 -5 -125 -37.5t-44 -85.5q0 -56 43 -90t115 -34zM1078 -452q-63 -26 -159 -26q-117 0 -187.5 59.5t-70.5 159.5q0 161 174 266h-72v133h-19q-39 -73 -124 -115t-192 -42q-161 0 -260 93t-99 245t114 238.5t328 98.5
l248 15v84q-1 61 -43.5 94.5t-121.5 33.5q-148 0 -183 -94h-302q13 159 148.5 251.5t355.5 92.5q227 0 350.5 -99t123.5 -279v-751h-55q-149 -92 -149 -194q0 -46 32.5 -74t86.5 -28q42 0 76 9v-171z" />
    <glyph glyph-name="Cacute" unicode="&#x106;" horiz-adv-x="1518" 
d="M634 1595l264 323h347l-308 -323h-303zM778 -38q-321 0 -506 203.5t-185 556.5t184.5 556t506.5 203q176 0 320 -72t229.5 -200t92.5 -287h-334q-17 120 -101.5 193.5t-206.5 73.5q-157 0 -247.5 -125t-90.5 -342t91 -342.5t248 -125.5q122 0 206.5 70.5t101.5 187.5h334
q-13 -243 -192 -396.5t-451 -153.5z" />
    <glyph glyph-name="cacute" unicode="&#x107;" horiz-adv-x="1203" 
d="M1126 705h-307q-14 80 -64.5 124.5t-133.5 44.5q-108 0 -164 -80.5t-56 -236.5q0 -159 56 -240.5t164 -81.5q83 0 133.5 41t64.5 120h307q-17 -196 -150.5 -308.5t-354.5 -112.5q-270 0 -412.5 149.5t-142.5 432.5q0 280 142.5 429t412.5 149q225 0 356.5 -114
t148.5 -316zM459 1286l246 356h341l-290 -356h-297z" />
    <glyph glyph-name="Ccircumflex" unicode="&#x108;" horiz-adv-x="1518" 
d="M778 -38q-321 0 -506 203.5t-185 556.5t184.5 556t506.5 203q176 0 320 -72t229.5 -200t92.5 -287h-334q-17 120 -101.5 193.5t-206.5 73.5q-157 0 -247.5 -125t-90.5 -342t91 -342.5t248 -125.5q122 0 206.5 70.5t101.5 187.5h334q-13 -243 -192 -396.5t-451 -153.5z
M942 1940l279 -345h-288l-137 189h-18l-137 -189h-288l279 345h310z" />
    <glyph glyph-name="ccircumflex" unicode="&#x109;" horiz-adv-x="1203" 
d="M791 1614l272 -357h-286l-138 204h-19l-138 -204h-287l273 357h323zM1126 705h-307q-14 80 -64.5 124.5t-133.5 44.5q-108 0 -164 -80.5t-56 -236.5q0 -159 56 -240.5t164 -81.5q83 0 133.5 41t64.5 120h307q-17 -196 -150.5 -308.5t-354.5 -112.5q-270 0 -412.5 149.5
t-142.5 432.5q0 280 142.5 429t412.5 149q225 0 356.5 -114t148.5 -316z" />
    <glyph glyph-name="Cdotaccent" unicode="&#x10a;" horiz-adv-x="1518" 
d="M787 1582q-76 0 -123.5 47t-47.5 119q0 73 47.5 120.5t123.5 47.5q75 0 122.5 -47.5t47.5 -120.5q0 -72 -47.5 -119t-122.5 -47zM778 -38q-321 0 -506 203.5t-185 556.5t184.5 556t506.5 203q176 0 320 -72t229.5 -200t92.5 -287h-334q-17 120 -101.5 193.5t-206.5 73.5
q-157 0 -247.5 -125t-90.5 -342t91 -342.5t248 -125.5q122 0 206.5 70.5t101.5 187.5h334q-13 -243 -192 -396.5t-451 -153.5z" />
    <glyph glyph-name="cdotaccent" unicode="&#x10b;" horiz-adv-x="1203" 
d="M1126 705h-307q-14 80 -64.5 124.5t-133.5 44.5q-108 0 -164 -80.5t-56 -236.5q0 -159 56 -240.5t164 -81.5q83 0 133.5 41t64.5 120h307q-17 -196 -150.5 -308.5t-354.5 -112.5q-270 0 -412.5 149.5t-142.5 432.5q0 280 142.5 429t412.5 149q225 0 356.5 -114
t148.5 -316zM630 1275q-76 0 -124.5 48t-48.5 121q0 74 48.5 122t124.5 48t124 -48.5t48 -121.5t-48 -121t-124 -48z" />
    <glyph glyph-name="Ccaron" unicode="&#x10c;" horiz-adv-x="1518" 
d="M778 -38q-321 0 -506 203.5t-185 556.5t184.5 556t506.5 203q176 0 320 -72t229.5 -200t92.5 -287h-334q-17 120 -101.5 193.5t-206.5 73.5q-157 0 -247.5 -125t-90.5 -342t91 -342.5t248 -125.5q122 0 206.5 70.5t101.5 187.5h334q-13 -243 -192 -396.5t-451 -153.5z
M930 1595h-286l-274 323h271l135 -173h22l135 173h271z" />
    <glyph glyph-name="ccaron" unicode="&#x10d;" horiz-adv-x="1203" 
d="M791 1257h-323l-273 357h287l138 -204h19l138 204h286zM1126 705h-307q-14 80 -64.5 124.5t-133.5 44.5q-108 0 -164 -80.5t-56 -236.5q0 -159 56 -240.5t164 -81.5q83 0 133.5 41t64.5 120h307q-17 -196 -150.5 -308.5t-354.5 -112.5q-270 0 -412.5 149.5t-142.5 432.5
q0 280 142.5 429t412.5 149q225 0 356.5 -114t148.5 -316z" />
    <glyph glyph-name="Dcaron" unicode="&#x10e;" horiz-adv-x="1530" 
d="M790 1594h-286l-274 323h271l135 -173h22l135 173h271zM156 1444h593q323 0 499.5 -185.5t176.5 -524.5q0 -354 -175 -544t-501 -190h-593v1444zM502 1162v-880h187q186 0 284.5 114t98.5 332q0 207 -101 320.5t-282 113.5h-187z" />
    <glyph glyph-name="dcaron" unicode="&#x10f;" horiz-adv-x="1520" 
d="M1303 1528h280l-50 -509h-230v509zM490 -17q-208 0 -327.5 153.5t-119.5 420.5q0 265 119.5 417.5t328.5 152.5q111 0 197 -52t128 -144h18v597h334v-1528h-324v173h-19q-43 -90 -131 -140t-204 -50zM610 861q-105 0 -165 -81.5t-60 -224.5t59.5 -224.5t165.5 -81.5
t166.5 81t60.5 224t-60.5 225t-166.5 82z" />
    <glyph glyph-name="Dcroat" unicode="&#x110;" horiz-adv-x="1513" 
d="M499 282h187q186 0 284.5 114t98.5 332q0 207 -101 320.5t-282 113.5h-187v-313h223v-243h-223v-324zM153 1444h593q323 0 499.5 -185.5t176.5 -524.5q0 -354 -175 -544t-501 -190h-593v606h-97v243h97v595z" />
    <glyph glyph-name="dcroat" unicode="&#x111;" horiz-adv-x="1343" 
d="M655 249q106 0 166 81t60 224q0 142 -60.5 224.5t-165.5 82.5q-106 0 -166 -81.5t-60 -224.5q0 -144 60 -225t166 -81zM1336 1412v-159h-124v-1253h-331v173h-19q-42 -90 -128.5 -140t-202.5 -50q-207 0 -325.5 152.5t-118.5 421.5q0 266 120 418t328 152q112 0 198 -52
t127 -144h19v322h-210v159h210v141h333v-141h124z" />
    <glyph glyph-name="Emacron" unicode="&#x112;" horiz-adv-x="1274" 
d="M1132 282v-282h-978v1443h978v-282h-632v-305h595v-259h-595v-315h632zM1037 1635h-770v192h770v-192z" />
    <glyph glyph-name="emacron" unicode="&#x113;" horiz-adv-x="1231" 
d="M611 893q-91 0 -150 -59t-66 -158h425q-5 101 -60 159t-149 58zM831 323h306q-31 -161 -171 -254.5t-351 -93.5q-262 0 -406.5 150.5t-144.5 422.5q0 273 146 430t400 157q253 0 394 -148t141 -413v-95h-751v-17q1 -114 63 -180t167 -66q80 0 133.5 28t73.5 79zM999 1323
h-756v192h756v-192z" />
    <glyph glyph-name="Ebreve" unicode="&#x114;" horiz-adv-x="1274" 
d="M1132 282v-282h-978v1443h978v-282h-632v-305h595v-259h-595v-315h632zM240 1926h226q2 -74 52.5 -118t133.5 -44t133.5 44t52.5 118h226q0 -155 -111.5 -250t-300.5 -95t-300.5 95t-111.5 250z" />
    <glyph glyph-name="ebreve" unicode="&#x115;" horiz-adv-x="1231" 
d="M611 893q-91 0 -150 -59t-66 -158h425q-5 101 -60 159t-149 58zM831 323h306q-31 -161 -171 -254.5t-351 -93.5q-262 0 -406.5 150.5t-144.5 422.5q0 273 146 430t400 157q253 0 394 -148t141 -413v-95h-751v-17q1 -114 63 -180t167 -66q80 0 133.5 28t73.5 79zM208 1614
h226q2 -79 52 -125.5t134 -46.5t134 46.5t52 125.5h226q0 -159 -111.5 -258t-300.5 -99t-300.5 99t-111.5 258z" />
    <glyph glyph-name="Edotaccent" unicode="&#x116;" horiz-adv-x="1274" 
d="M652 1581q-76 0 -123.5 47t-47.5 119q0 73 47.5 120.5t123.5 47.5q75 0 122.5 -47.5t47.5 -120.5q0 -72 -47.5 -119t-122.5 -47zM1132 282v-282h-978v1443h978v-282h-632v-305h595v-259h-595v-315h632z" />
    <glyph glyph-name="edotaccent" unicode="&#x117;" horiz-adv-x="1231" 
d="M621 1275q-76 0 -124.5 48t-48.5 121q0 74 48 122t125 48q76 0 124 -48.5t48 -121.5t-48 -121t-124 -48zM611 893q-91 0 -150 -59t-66 -158h425q-5 101 -60 159t-149 58zM831 323h306q-31 -161 -171 -254.5t-351 -93.5q-262 0 -406.5 150.5t-144.5 422.5q0 273 146 430
t400 157q253 0 394 -148t141 -413v-95h-751v-17q1 -114 63 -180t167 -66q80 0 133.5 28t73.5 79z" />
    <glyph glyph-name="Eogonek" unicode="&#x118;" horiz-adv-x="1274" 
d="M892 0h-729v1443h978v-282h-632v-305h595v-259h-595v-315h632v-251q-101 -54 -148.5 -107t-47.5 -113q0 -46 32.5 -73.5t87.5 -27.5q43 0 76 9v-171q-62 -26 -159 -26q-119 0 -190 59.5t-71 159.5q0 156 171 259z" />
    <glyph glyph-name="eogonek" unicode="&#x119;" horiz-adv-x="1231" 
d="M768 -478q-112 0 -184.5 62t-72.5 158q0 61 27.5 111.5t89.5 105.5v18q-10 -2 -25 -2q-252 6 -390 156t-138 417q0 274 146 430.5t400 156.5q253 0 394 -148t141 -413v-95h-751v-17q1 -114 63 -180t167 -66q79 0 133 28t74 79h306q-14 -83 -66.5 -151.5t-160.5 -144.5
q-108 -77 -148 -125t-40 -101q0 -41 32 -66t84 -25q37 0 78 9v-171q-63 -26 -159 -26zM622 893q-91 0 -150 -59t-66 -158h425q-5 101 -60 159t-149 58z" />
    <glyph glyph-name="Ecaron" unicode="&#x11a;" horiz-adv-x="1274" 
d="M795 1594h-286l-274 323h271l135 -173h22l135 173h271zM1132 282v-282h-978v1443h978v-282h-632v-305h595v-259h-595v-315h632z" />
    <glyph glyph-name="ecaron" unicode="&#x11b;" horiz-adv-x="1231" 
d="M782 1257h-323l-273 357h287l138 -204h19l138 204h286zM611 893q-91 0 -150 -59t-66 -158h425q-5 101 -60 159t-149 58zM831 323h306q-31 -161 -171 -254.5t-351 -93.5q-262 0 -406.5 150.5t-144.5 422.5q0 273 146 430t400 157q253 0 394 -148t141 -413v-95h-751v-17
q1 -114 63 -180t167 -66q80 0 133.5 28t73.5 79z" />
    <glyph glyph-name="Gcircumflex" unicode="&#x11c;" horiz-adv-x="1557" 
d="M951 1940l279 -345h-288l-137 189h-18l-137 -189h-288l279 345h310zM1450 597q0 -295 -174 -465t-476 -170q-329 0 -517 203t-188 558q0 350 187 554t509 204q262 0 439 -139t206 -366h-342q-29 100 -109.5 156.5t-193.5 56.5q-160 0 -251.5 -123t-91.5 -339
q0 -220 97 -346.5t262 -126.5q132 0 216.5 71.5t90.5 188.5l2 25h-280v243h614v-185z" />
    <glyph glyph-name="gcircumflex" unicode="&#x11d;" horiz-adv-x="1322" 
d="M809 1614l272 -357h-286l-138 204h-19l-138 -204h-287l273 357h323zM851 563q0 138 -61 218t-167 80t-165 -79.5t-59 -218.5t59 -218t165 -79q107 0 167.5 79.5t60.5 217.5zM615 -419q-228 0 -370.5 90.5t-153.5 239.5h326q10 -47 65 -75t142 -28q106 0 165 48t59 134
v202h-19q-89 -176 -329 -176q-205 0 -324.5 148t-119.5 398q0 262 120.5 413.5t330.5 151.5q112 0 200 -52t132 -144h18v179h325v-1100q0 -197 -153.5 -313t-413.5 -116z" />
    <glyph glyph-name="Gbreve" unicode="&#x11e;" horiz-adv-x="1557" 
d="M1450 597q0 -295 -174 -465t-476 -170q-329 0 -517 203t-188 558q0 350 187 554t509 204q262 0 439 -139t206 -366h-342q-29 100 -109.5 156.5t-193.5 56.5q-160 0 -251.5 -123t-91.5 -339q0 -220 97 -346.5t262 -126.5q132 0 216.5 71.5t90.5 188.5l2 25h-280v243h614
v-185zM384 1927h226q2 -74 52.5 -118t133.5 -44t133.5 44t52.5 118h226q0 -155 -111.5 -250t-300.5 -95t-300.5 95t-111.5 250z" />
    <glyph glyph-name="gbreve" unicode="&#x11f;" horiz-adv-x="1322" 
d="M235 1614h226q2 -79 52 -125.5t134 -46.5t134 46.5t52 125.5h226q0 -159 -111.5 -258t-300.5 -99t-300.5 99t-111.5 258zM851 563q0 138 -61 218t-167 80t-165 -79.5t-59 -218.5t59 -218t165 -79q107 0 167.5 79.5t60.5 217.5zM615 -419q-228 0 -370.5 90.5t-153.5 239.5
h326q10 -47 65 -75t142 -28q106 0 165 48t59 134v202h-19q-89 -176 -329 -176q-205 0 -324.5 148t-119.5 398q0 262 120.5 413.5t330.5 151.5q112 0 200 -52t132 -144h18v179h325v-1100q0 -197 -153.5 -313t-413.5 -116z" />
    <glyph glyph-name="Gdotaccent" unicode="&#x120;" horiz-adv-x="1557" 
d="M796 1582q-76 0 -123.5 47t-47.5 119q0 73 47.5 120.5t123.5 47.5q75 0 122.5 -47.5t47.5 -120.5q0 -72 -47.5 -119t-122.5 -47zM1450 597q0 -295 -174 -465t-476 -170q-329 0 -517 203t-188 558q0 350 187 554t509 204q262 0 439 -139t206 -366h-342
q-29 100 -109.5 156.5t-193.5 56.5q-160 0 -251.5 -123t-91.5 -339q0 -220 97 -346.5t262 -126.5q132 0 216.5 71.5t90.5 188.5l2 25h-280v243h614v-185z" />
    <glyph glyph-name="gdotaccent" unicode="&#x121;" horiz-adv-x="1322" 
d="M648 1275q-76 0 -124.5 48t-48.5 121q0 74 48.5 122t124.5 48t124 -48.5t48 -121.5t-48 -121t-124 -48zM851 563q0 138 -61 218t-167 80t-165 -79.5t-59 -218.5t59 -218t165 -79q107 0 167.5 79.5t60.5 217.5zM615 -419q-228 0 -370.5 90.5t-153.5 239.5h326
q10 -47 65 -75t142 -28q106 0 165 48t59 134v202h-19q-89 -176 -329 -176q-205 0 -324.5 148t-119.5 398q0 262 120.5 413.5t330.5 151.5q112 0 200 -52t132 -144h18v179h325v-1100q0 -197 -153.5 -313t-413.5 -116z" />
    <glyph glyph-name="Gcommaaccent" unicode="&#x122;" horiz-adv-x="1557" 
d="M809 -507h-291l143 352h332zM1450 597q0 -295 -174 -465t-476 -170q-329 0 -517 203t-188 558q0 350 187 554t509 204q262 0 439 -139t206 -366h-342q-29 100 -109.5 156.5t-193.5 56.5q-160 0 -251.5 -123t-91.5 -339q0 -220 97 -346.5t262 -126.5q132 0 216.5 71.5
t90.5 188.5l2 25h-280v243h614v-185z" />
    <glyph glyph-name="gcommaaccent" unicode="&#x123;" horiz-adv-x="1322" 
d="M679 1646h291l-143 -352h-332zM851 563q0 138 -61 218t-167 80t-165 -79.5t-59 -218.5t59 -218t165 -79q107 0 167.5 79.5t60.5 217.5zM615 -419q-228 0 -370.5 90.5t-153.5 239.5h326q10 -47 65 -75t142 -28q106 0 165 48t59 134v202h-19q-89 -176 -329 -176
q-205 0 -324.5 148t-119.5 398q0 262 120.5 413.5t330.5 151.5q112 0 200 -52t132 -144h18v179h325v-1100q0 -197 -153.5 -313t-413.5 -116z" />
    <glyph glyph-name="Hcircumflex" unicode="&#x124;" horiz-adv-x="1604" 
d="M1432 0h-345v589h-599v-589h-346v1443h346v-572h599v572h345v-1443zM957 1939l279 -345h-288l-137 189h-18l-137 -189h-288l279 345h310z" />
    <glyph glyph-name="hcircumflex" unicode="&#x125;" horiz-adv-x="1332" 
d="M116 0v1528h327v-602h19q37 95 131.5 150t215.5 55q185 0 289 -109t104 -309v-713h-334v637q0 106 -52.5 162t-147.5 56q-97 0 -157.5 -61.5t-60.5 -161.5v-632h-334zM452 2024l279 -345h-288l-137 189h-18l-137 -189h-288l279 345h310z" />
    <glyph glyph-name="Hbar" unicode="&#x126;" horiz-adv-x="1556" 
d="M1063 871v178h-599v-178h599zM1549 1273v-224h-141v-1049h-345v589h-599v-589h-346v1049h-110v224h110v170h346v-170h599v170h345v-170h141z" />
    <glyph glyph-name="hbar" unicode="&#x127;" horiz-adv-x="1334" 
d="M457 926h19q37 95 131.5 150t216.5 55q186 0 290.5 -109t104.5 -309v-713h-333v637q0 106 -53.5 162t-149.5 56q-97 0 -158 -62t-61 -161v-632h-334v1253h-161v159h161v148h327v-148h245v-159h-245v-327z" />
    <glyph glyph-name="Itilde" unicode="&#x128;" horiz-adv-x="652" 
d="M480 0h-346v1443h346v-1443zM488 1577q-55 0 -101.5 20.5t-72.5 45t-58 45t-62 20.5q-78 0 -84 -122h-200q0 148 70.5 232t183.5 84q56 0 103.5 -20.5t74 -45t58 -45t58.5 -20.5q79 0 84 118h200q0 -145 -71 -228.5t-183 -83.5z" />
    <glyph glyph-name="itilde" unicode="&#x129;" horiz-adv-x="593" 
d="M115 0v1110h334v-1110h-334zM172 1399q-39 0 -61.5 -36t-23.5 -102h-202q0 148 74.5 238.5t196.5 90.5q41 0 77.5 -14.5t62 -35t48 -41.5t44.5 -35.5t43 -14.5q82 0 85 134h203q0 -146 -75 -235.5t-197 -89.5q-50 0 -94 22t-70 48.5t-56 48.5t-55 22z" />
    <glyph glyph-name="Imacron" unicode="&#x12a;" horiz-adv-x="652" 
d="M480 0h-346v1443h346v-1443zM711 1635h-770v192h770v-192z" />
    <glyph glyph-name="imacron" unicode="&#x12b;" horiz-adv-x="593" 
d="M115 0v1110h334v-1110h-334zM674 1323h-756v192h756v-192z" />
    <glyph glyph-name="Ibreve" unicode="&#x12c;" horiz-adv-x="652" 
d="M480 0h-346v1443h346v-1443zM-86 1926h226q2 -74 52.5 -118t133.5 -44t133.5 44t52.5 118h226q0 -155 -111.5 -250t-300.5 -95t-300.5 95t-111.5 250z" />
    <glyph glyph-name="ibreve" unicode="&#x12d;" horiz-adv-x="593" 
d="M115 0v1110h334v-1110h-334zM-117 1614h226q2 -79 52 -125.5t134 -46.5t134 46.5t52 125.5h226q0 -159 -111.5 -258t-300.5 -99t-300.5 99t-111.5 258z" />
    <glyph glyph-name="Iogonek" unicode="&#x12e;" horiz-adv-x="652" 
d="M490 -449q-65 -26 -158 -26q-118 0 -188.5 59.5t-70.5 159.5q0 157 165 263h-85v1436h346v-1440h-58q-146 -92 -146 -189q0 -46 33 -73t87 -27q42 0 75 9v-172z" />
    <glyph glyph-name="iogonek" unicode="&#x12f;" horiz-adv-x="593" 
d="M294 1247q-87 0 -138.5 42.5t-51.5 111.5q0 70 51 112t139 42t139.5 -42t51.5 -112q0 -69 -51.5 -111.5t-139.5 -42.5zM450 -452q-67 -26 -159 -26q-117 0 -187.5 59.5t-70.5 159.5q0 159 171 266h-76v1103h333v-1104h-57q-150 -93 -150 -196q0 -45 33 -72.5t87 -27.5
q35 0 76 9v-171z" />
    <glyph glyph-name="Idotaccent" unicode="&#x130;" horiz-adv-x="652" 
d="M480 0h-346v1443h346v-1443zM326 1581q-76 0 -123.5 47t-47.5 119q0 73 47.5 120.5t123.5 47.5q75 0 122.5 -47.5t47.5 -120.5q0 -72 -47.5 -119t-122.5 -47z" />
    <glyph glyph-name="dotlessi" unicode="&#x131;" horiz-adv-x="593" 
d="M129 0v1110h334v-1110h-334z" />
    <glyph glyph-name="u0132" unicode="&#x132;" horiz-adv-x="1883" 
d="M457 0h-346v1443h346v-1443zM696 447h333q1 -87 50 -138t130 -51q85 0 130 52t45 152v981h346v-984q0 -238 -136.5 -367.5t-379.5 -129.5q-237 0 -377.5 130.5t-140.5 354.5z" />
    <glyph glyph-name="u0133" unicode="&#x133;" horiz-adv-x="1194" 
d="M98 0v1110h333v-1110h-333zM264 1247q-87 0 -138.5 42.5t-51.5 111.5q0 70 51 112t139 42t139.5 -42t51.5 -112q0 -69 -51.5 -111.5t-139.5 -42.5zM1057 1110v-1130q0 -169 -106 -258.5t-306 -89.5q-61 0 -95 4v243q18 -2 41 -2q71 0 102 27t31 87v1119h333zM890 1247
q-87 0 -138.5 42.5t-51.5 111.5q0 70 51 112t139 42t139.5 -42t51.5 -112q0 -69 -51.5 -111.5t-139.5 -42.5z" />
    <glyph glyph-name="Jcircumflex" unicode="&#x134;" horiz-adv-x="1231" 
d="M26 447h333q1 -87 50 -138t130 -51q85 0 130 52t45 152v981h346v-984q0 -238 -136.5 -367.5t-379.5 -129.5q-237 0 -377.5 130.5t-140.5 354.5zM1065 1939l279 -345h-288l-137 189h-18l-137 -189h-288l279 345h310z" />
    <glyph glyph-name="jcircumflex" unicode="&#x135;" horiz-adv-x="587" 
d="M443 1110v-1130q0 -169 -106 -258.5t-306 -89.5q-61 0 -95 4v243q18 -2 41 -2q71 0 102 27t31 87v1119h333zM455 1614l272 -357h-286l-138 204h-19l-138 -204h-287l273 357h323z" />
    <glyph glyph-name="Kcommaaccent" unicode="&#x136;" horiz-adv-x="1453" 
d="M482 0h-346v1443h346v-628h18l498 628h375l-508 -635l540 -808h-410l-381 581l-132 -164v-417zM692 -507h-291l143 352h332z" />
    <glyph glyph-name="kcommaaccent" unicode="&#x137;" horiz-adv-x="1232" 
d="M461 688l332 422h375l-404 -477l432 -633h-390l-292 433l-72 -79v-354h-334v1528h334v-840h19zM638 -507h-291l143 352h332z" />
    <glyph glyph-name="Lacute" unicode="&#x139;" horiz-adv-x="1218" 
d="M182 1594l264 323h347l-308 -323h-303zM1120 289v-289h-968v1443h346v-1154h622z" />
    <glyph glyph-name="lacute" unicode="&#x13a;" horiz-adv-x="603" 
d="M148 1679l264 323h347l-308 -323h-303zM118 0v1528h334v-1528h-334z" />
    <glyph glyph-name="Lcommaaccent" unicode="&#x13b;" horiz-adv-x="1218" 
d="M630 -507h-291l143 352h332zM1120 289v-289h-968v1443h346v-1154h622z" />
    <glyph glyph-name="lcommaaccent" unicode="&#x13c;" horiz-adv-x="603" 
d="M292 -507h-291l143 352h332zM118 0v1528h334v-1528h-334z" />
    <glyph glyph-name="Lcaron" unicode="&#x13d;" horiz-adv-x="1218" 
d="M695 1443h274l-50 -509h-224v509zM1120 289v-289h-968v1443h346v-1154h622z" />
    <glyph glyph-name="lcaron" unicode="&#x13e;" horiz-adv-x="774" 
d="M556 1528h280l-50 -509h-230v509zM105 0v1528h334v-1528h-334z" />
    <glyph glyph-name="Lslash" unicode="&#x141;" horiz-adv-x="1194" 
d="M494 289h622v-289h-968v639l-137 -71v221l137 71v583h346v-403l228 119v-221l-228 -119v-530z" />
    <glyph glyph-name="lslash" unicode="&#x142;" horiz-adv-x="603" 
d="M591 1120v-221l-139 -74v-825h-334v647l-106 -56v221l106 56v660h334v-482z" />
    <glyph glyph-name="Nacute" unicode="&#x143;" horiz-adv-x="1573" 
d="M628 1594l264 323h347l-308 -323h-303zM481 0h-329v1443h279l622 -842h18v842h329v-1443h-277l-624 849h-18v-849z" />
    <glyph glyph-name="nacute" unicode="&#x144;" horiz-adv-x="1310" 
d="M493 1286l246 356h341l-290 -356h-297zM106 0v1110h325v-180h18q38 94 130 149.5t213 55.5q185 0 286 -109t101 -309v-717h-334v642q0 105 -50 161t-144 56q-95 0 -153 -61t-58 -162v-636h-334z" />
    <glyph glyph-name="Ncommaaccent" unicode="&#x145;" horiz-adv-x="1573" 
d="M772 -507h-291l143 352h332zM481 0h-329v1443h279l622 -842h18v842h329v-1443h-277l-624 849h-18v-849z" />
    <glyph glyph-name="ncommaaccent" unicode="&#x146;" horiz-adv-x="1310" 
d="M651 -507h-291l143 352h332zM106 0v1110h325v-180h18q38 94 130 149.5t213 55.5q185 0 286 -109t101 -309v-717h-334v642q0 105 -50 161t-144 56q-95 0 -153 -61t-58 -162v-636h-334z" />
    <glyph glyph-name="Ncaron" unicode="&#x147;" horiz-adv-x="1573" 
d="M924 1594h-286l-274 323h271l135 -173h22l135 173h271zM481 0h-329v1443h279l622 -842h18v842h329v-1443h-277l-624 849h-18v-849z" />
    <glyph glyph-name="ncaron" unicode="&#x148;" horiz-adv-x="1310" 
d="M825 1257h-323l-273 357h287l138 -204h19l138 204h286zM106 0v1110h325v-180h18q38 94 130 149.5t213 55.5q185 0 286 -109t101 -309v-717h-334v642q0 105 -50 161t-144 56q-95 0 -153 -61t-58 -162v-636h-334z" />
    <glyph glyph-name="Omacron" unicode="&#x14c;" horiz-adv-x="1610" 
d="M799 1481q324 0 514.5 -204t190.5 -555t-190 -555.5t-515 -204.5t-515.5 204t-190.5 556q0 351 191 555t515 204zM799 1191q-160 0 -256.5 -127.5t-96.5 -341.5q0 -215 96 -342.5t257 -127.5q160 0 256 128t96 342t-96 341.5t-256 127.5zM1190 1635h-770v192h770v-192z
" />
    <glyph glyph-name="omacron" unicode="&#x14d;" horiz-adv-x="1269" 
d="M1012 1323h-756v192h756v-192zM623 234q103 0 160 84.5t57 236.5q0 151 -57 236t-160 85t-160 -85t-57 -236q0 -153 57 -237t160 -84zM623 -25q-263 0 -411 153.5t-148 427.5q0 269 150 424t409 155q260 0 410 -154.5t150 -424.5q0 -274 -148 -427.5t-412 -153.5z" />
    <glyph glyph-name="Obreve" unicode="&#x14e;" horiz-adv-x="1610" 
d="M799 1481q324 0 514.5 -204t190.5 -555t-190 -555.5t-515 -204.5t-515.5 204t-190.5 556q0 351 191 555t515 204zM799 1191q-160 0 -256.5 -127.5t-96.5 -341.5q0 -215 96 -342.5t257 -127.5q160 0 256 128t96 342t-96 341.5t-256 127.5zM393 1926h226q2 -74 52.5 -118
t133.5 -44t133.5 44t52.5 118h226q0 -155 -111.5 -250t-300.5 -95t-300.5 95t-111.5 250z" />
    <glyph glyph-name="obreve" unicode="&#x14f;" horiz-adv-x="1269" 
d="M221 1614h226q2 -79 52 -125.5t134 -46.5t134 46.5t52 125.5h226q0 -159 -111.5 -258t-300.5 -99t-300.5 99t-111.5 258zM623 234q103 0 160 84.5t57 236.5q0 151 -57 236t-160 85t-160 -85t-57 -236q0 -153 57 -237t160 -84zM623 -25q-263 0 -411 153.5t-148 427.5
q0 269 150 424t409 155q260 0 410 -154.5t150 -424.5q0 -274 -148 -427.5t-412 -153.5z" />
    <glyph glyph-name="Ohungarumlaut" unicode="&#x150;" horiz-adv-x="1610" 
d="M881 1594l230 323h286l-258 -323h-258zM436 1594l230 323h286l-258 -323h-258zM799 1481q324 0 514.5 -204t190.5 -555t-190 -555.5t-515 -204.5t-515.5 204t-190.5 556q0 351 191 555t515 204zM799 1191q-160 0 -256.5 -127.5t-96.5 -341.5q0 -215 96 -342.5t257 -127.5
q160 0 256 128t96 342t-96 341.5t-256 127.5z" />
    <glyph glyph-name="ohungarumlaut" unicode="&#x151;" horiz-adv-x="1269" 
d="M716 1286l198 356h276l-228 -356h-246zM267 1286l198 356h276l-228 -356h-246zM623 234q103 0 160 84.5t57 236.5q0 151 -57 236t-160 85t-160 -85t-57 -236q0 -153 57 -237t160 -84zM623 -25q-263 0 -411 153.5t-148 427.5q0 269 150 424t409 155q260 0 410 -154.5
t150 -424.5q0 -274 -148 -427.5t-412 -153.5z" />
    <glyph glyph-name="OE" unicode="&#x152;" horiz-adv-x="2271" 
d="M838 1191q-162 0 -259.5 -127.5t-97.5 -341.5q0 -215 97 -342.5t260 -127.5q160 0 255 127.5t95 342.5q0 214 -95 341.5t-255 127.5zM1251 0v228h-18q-52 -120 -177 -193t-279 -73q-306 0 -477.5 200.5t-171.5 559.5q0 360 170.5 559.5t478.5 199.5q153 0 281.5 -73
t174.5 -187h18v222h924v-282h-638v-305h601v-259h-601v-315h638v-282h-924z" />
    <glyph glyph-name="oe" unicode="&#x153;" horiz-adv-x="2017" 
d="M1428 -25q-127 0 -230.5 46.5t-164.5 128.5h-19q-59 -82 -159 -128.5t-226 -46.5q-251 0 -396.5 155t-145.5 423q0 270 145 426t397 156q258 0 387 -180h19q59 85 160.5 132.5t230.5 47.5q232 0 372.5 -153t140.5 -408v-94h-751v-18q2 -114 64 -179.5t167 -65.5
q80 0 133.5 27.5t72.5 78.5h304q-30 -159 -167 -253.5t-334 -94.5zM1406 894q-91 0 -150.5 -59t-66.5 -158h426q-4 101 -60 159t-149 58zM647 234q103 0 160 83.5t57 235.5t-57.5 237.5t-159.5 85.5t-159.5 -85.5t-57.5 -237.5t57 -235.5t160 -83.5z" />
    <glyph glyph-name="Racute" unicode="&#x154;" horiz-adv-x="1422" 
d="M499 1594l264 323h347l-308 -323h-303zM488 1177v-416h232q105 0 164.5 55t59.5 152q0 96 -61.5 152.5t-164.5 56.5h-230zM488 511v-511h-346v1443h626q247 0 388.5 -125.5t141.5 -345.5q0 -138 -66.5 -249t-185.5 -160l294 -563h-390l-254 511h-208z" />
    <glyph glyph-name="racute" unicode="&#x155;" horiz-adv-x="881" 
d="M281 1286l246 356h341l-290 -356h-297zM98 0v1110h325v-181h18q21 85 97 141.5t177 56.5q78 0 120 -16v-288q-18 7 -64 13t-80 6q-117 0 -188 -65.5t-71 -180.5v-596h-334z" />
    <glyph glyph-name="Rcommaaccent" unicode="&#x156;" horiz-adv-x="1422" 
d="M488 1177v-416h232q105 0 164.5 55t59.5 152q0 96 -61.5 152.5t-164.5 56.5h-230zM488 511v-511h-346v1443h626q247 0 388.5 -125.5t141.5 -345.5q0 -138 -66.5 -249t-185.5 -160l294 -563h-390l-254 511h-208zM643 -507h-291l143 352h332z" />
    <glyph glyph-name="rcommaaccent" unicode="&#x157;" horiz-adv-x="881" 
d="M98 0v1110h325v-181h18q21 85 97 141.5t177 56.5q78 0 120 -16v-288q-18 7 -64 13t-80 6q-117 0 -188 -65.5t-71 -180.5v-596h-334zM273 -507h-291l143 352h332z" />
    <glyph glyph-name="Rcaron" unicode="&#x158;" horiz-adv-x="1422" 
d="M488 1177v-416h232q105 0 164.5 55t59.5 152q0 96 -61.5 152.5t-164.5 56.5h-230zM488 511v-511h-346v1443h626q247 0 388.5 -125.5t141.5 -345.5q0 -138 -66.5 -249t-185.5 -160l294 -563h-390l-254 511h-208zM795 1594h-286l-274 323h271l135 -173h22l135 173h271z" />
    <glyph glyph-name="rcaron" unicode="&#x159;" horiz-adv-x="881" 
d="M613 1257h-323l-273 357h287l138 -204h19l138 204h286zM98 0v1110h325v-181h18q21 85 97 141.5t177 56.5q78 0 120 -16v-288q-18 7 -64 13t-80 6q-117 0 -188 -65.5t-71 -180.5v-596h-334z" />
    <glyph glyph-name="Sacute" unicode="&#x15a;" horiz-adv-x="1383" 
d="M539 1594l264 323h347l-308 -323h-303zM80 407h332q7 -82 82.5 -130t194.5 -48q107 0 174.5 47t67.5 122q0 63 -54 101.5t-180 63.5l-189 39q-398 78 -398 418q0 209 155 335t412 126q248 0 406.5 -123.5t163.5 -320.5h-322q-7 79 -75 128.5t-169 49.5q-102 0 -164 -44.5
t-62 -119.5q0 -62 52.5 -100.5t170.5 -62.5l183 -36q214 -43 313.5 -142.5t99.5 -269.5q0 -223 -160.5 -350.5t-440.5 -127.5q-268 0 -427.5 119.5t-165.5 325.5z" />
    <glyph glyph-name="sacute" unicode="&#x15b;" horiz-adv-x="1160" 
d="M83 778q0 163 130.5 260t349.5 97q224 0 347.5 -86.5t133.5 -251.5h-305q-9 51 -54 79.5t-119 28.5q-73 0 -118.5 -29t-45.5 -77q0 -37 32.5 -60.5t101.5 -38.5l223 -47q163 -35 237.5 -107t74.5 -198q0 -170 -138 -271.5t-366 -101.5q-232 0 -363.5 87.5t-147.5 252.5
h323q29 -110 193 -110q77 0 123.5 29t46.5 77q0 37 -29.5 59.5t-97.5 36.5l-205 45q-327 70 -327 326zM408 1286l246 356h341l-290 -356h-297z" />
    <glyph glyph-name="Scircumflex" unicode="&#x15c;" horiz-adv-x="1383" 
d="M80 407h332q7 -82 82.5 -130t194.5 -48q107 0 174.5 47t67.5 122q0 63 -54 101.5t-180 63.5l-189 39q-398 78 -398 418q0 209 155 335t412 126q248 0 406.5 -123.5t163.5 -320.5h-322q-7 79 -75 128.5t-169 49.5q-102 0 -164 -44.5t-62 -119.5q0 -62 52.5 -100.5
t170.5 -62.5l183 -36q214 -43 313.5 -142.5t99.5 -269.5q0 -223 -160.5 -350.5t-440.5 -127.5q-268 0 -427.5 119.5t-165.5 325.5zM847 1939l279 -345h-288l-137 189h-18l-137 -189h-288l279 345h310z" />
    <glyph glyph-name="scircumflex" unicode="&#x15d;" horiz-adv-x="1160" 
d="M740 1614l272 -357h-286l-138 204h-19l-138 -204h-287l273 357h323zM83 778q0 163 130.5 260t349.5 97q224 0 347.5 -86.5t133.5 -251.5h-305q-9 51 -54 79.5t-119 28.5q-73 0 -118.5 -29t-45.5 -77q0 -37 32.5 -60.5t101.5 -38.5l223 -47q163 -35 237.5 -107t74.5 -198
q0 -170 -138 -271.5t-366 -101.5q-232 0 -363.5 87.5t-147.5 252.5h323q29 -110 193 -110q77 0 123.5 29t46.5 77q0 37 -29.5 59.5t-97.5 36.5l-205 45q-327 70 -327 326z" />
    <glyph glyph-name="Scedilla" unicode="&#x15e;" horiz-adv-x="1383" 
d="M678 888l183 -36q214 -43 313.5 -142.5t99.5 -269.5q0 -200 -131.5 -325t-365.5 -148l-30 -72q92 -7 140.5 -53t48.5 -128q0 -99 -72 -153.5t-203 -54.5q-89 0 -148 17v141q40 -14 114 -14q109 0 109 55q0 29 -28.5 41.5t-94.5 12.5h-61v124l35 82q-232 20 -367 137
t-140 305h332q7 -82 82.5 -130t194.5 -48q107 0 174.5 47t67.5 122q0 63 -54 101.5t-180 63.5l-189 39q-398 78 -398 418q0 209 155 335t412 126q248 0 406.5 -123.5t163.5 -320.5h-322q-7 79 -75 128.5t-169 49.5q-102 0 -164 -44.5t-62 -119.5q0 -62 52.5 -100.5
t170.5 -62.5z" />
    <glyph glyph-name="scedilla" unicode="&#x15f;" horiz-adv-x="1160" 
d="M536 700l223 -47q163 -35 237.5 -107t74.5 -198q0 -147 -105.5 -244.5t-287.5 -121.5l-35 -86q92 -7 140.5 -53t48.5 -128q0 -99 -72 -153.5t-203 -54.5q-89 0 -148 17v141q40 -14 114 -14q109 0 109 55q0 29 -28.5 41.5t-94.5 12.5h-61v124l39 94q-196 14 -306.5 100.5
t-124.5 236.5h323q29 -110 193 -110q77 0 123.5 29t46.5 77q0 37 -29.5 59.5t-97.5 36.5l-205 45q-327 70 -327 326q0 163 130.5 260t349.5 97q224 0 347.5 -86.5t133.5 -251.5h-305q-9 51 -54 79.5t-119 28.5q-73 0 -118.5 -29t-45.5 -77q0 -37 32.5 -60.5t101.5 -38.5z
" />
    <glyph glyph-name="Scaron" unicode="&#x160;" horiz-adv-x="1383" 
d="M80 407h332q7 -82 82.5 -130t194.5 -48q107 0 174.5 47t67.5 122q0 63 -54 101.5t-180 63.5l-189 39q-398 78 -398 418q0 209 155 335t412 126q248 0 406.5 -123.5t163.5 -320.5h-322q-7 79 -75 128.5t-169 49.5q-102 0 -164 -44.5t-62 -119.5q0 -62 52.5 -100.5
t170.5 -62.5l183 -36q214 -43 313.5 -142.5t99.5 -269.5q0 -223 -160.5 -350.5t-440.5 -127.5q-268 0 -427.5 119.5t-165.5 325.5zM835 1594h-286l-274 323h271l135 -173h22l135 173h271z" />
    <glyph glyph-name="scaron" unicode="&#x161;" horiz-adv-x="1160" 
d="M740 1257h-323l-273 357h287l138 -204h19l138 204h286zM83 778q0 163 130.5 260t349.5 97q224 0 347.5 -86.5t133.5 -251.5h-305q-9 51 -54 79.5t-119 28.5q-73 0 -118.5 -29t-45.5 -77q0 -37 32.5 -60.5t101.5 -38.5l223 -47q163 -35 237.5 -107t74.5 -198
q0 -170 -138 -271.5t-366 -101.5q-232 0 -363.5 87.5t-147.5 252.5h323q29 -110 193 -110q77 0 123.5 29t46.5 77q0 37 -29.5 59.5t-97.5 36.5l-205 45q-327 70 -327 326z" />
    <glyph glyph-name="Tcedilla" unicode="&#x162;" horiz-adv-x="1352" 
d="M839 0h-62l-43 -104q92 -7 140.5 -53t48.5 -128q0 -99 -72 -153.5t-203 -54.5q-88 0 -148 17v141q40 -14 114 -14q109 0 109 55q0 29 -28.5 41.5t-94.5 12.5h-61v124l49 116h-95v1161h-422v282h1189v-282h-421v-1161z" />
    <glyph glyph-name="tcedilla" unicode="&#x163;" horiz-adv-x="845" 
d="M464 -493q-94 0 -148 17v141q35 -14 114 -14q109 0 109 55q0 29 -28.5 41.5t-94.5 12.5h-61v123l57 136q-107 27 -155 95.5t-48 188.5v542h-173v251h173v268h333v-268h229v-251h-229v-466q0 -67 34 -99t104 -32q44 0 87 5v-242q-69 -13 -158 -13h-17l-42 -103
q92 -6 140.5 -52t48.5 -128q0 -99 -71.5 -153.5t-203.5 -54.5z" />
    <glyph glyph-name="Tcaron" unicode="&#x164;" horiz-adv-x="1352" 
d="M815 1594h-286l-274 323h271l135 -173h22l135 173h271zM839 0h-346v1161h-422v282h1189v-282h-421v-1161z" />
    <glyph glyph-name="tcaron" unicode="&#x165;" horiz-adv-x="845" 
d="M865 1231h-230v508h280zM191 1364h333v-268h229v-251h-229v-466q0 -67 34 -99t104 -32q44 0 87 5v-242q-69 -13 -161 -13q-213 0 -305 71t-92 234v542h-173v251h173v268z" />
    <glyph glyph-name="Tbar" unicode="&#x166;" horiz-adv-x="1352" 
d="M1260 1161h-421v-358h281v-237h-281v-566h-346v566h-270v237h270v358h-422v282h1189v-282z" />
    <glyph glyph-name="tbar" unicode="&#x167;" horiz-adv-x="843" 
d="M783 492h-260v-113q0 -67 34 -99t104 -32q44 0 87 5v-242q-69 -13 -161 -13q-213 0 -305 71t-92 234v189h-154v166h154v187h-173v251h173v268h333v-268h229v-251h-229v-187h260v-166z" />
    <glyph glyph-name="Utilde" unicode="&#x168;" horiz-adv-x="1565" 
d="M505 1443v-909q0 -130 71 -204t199 -74q129 0 199.5 74t70.5 204v909h346v-945q0 -242 -168 -389t-448 -147q-279 0 -447.5 147t-168.5 389v945h346zM944 1577q-55 0 -101.5 20.5t-72.5 45t-58 45t-62 20.5q-78 0 -84 -122h-200q0 148 70.5 232t183.5 84
q56 0 103.5 -20.5t74 -45t57.5 -45t59 -20.5q79 0 84 118h200q0 -145 -71 -228.5t-183 -83.5z" />
    <glyph glyph-name="utilde" unicode="&#x169;" horiz-adv-x="1318" 
d="M1175 1110v-1110h-324v179h-19q-39 -97 -126 -150.5t-206 -53.5q-184 0 -294.5 111t-110.5 306v718h334v-642q0 -105 53 -160t147 -55q95 0 154 60t59 161v636h333zM531 1399q-39 0 -61.5 -36t-23.5 -102h-202q0 148 74.5 238.5t196.5 90.5q41 0 77.5 -14.5t62 -35
t48 -41.5t44.5 -35.5t43 -14.5q82 0 85 134h203q0 -146 -75 -235.5t-197 -89.5q-50 0 -94 22t-70 48.5t-56 48.5t-55 22z" />
    <glyph glyph-name="Umacron" unicode="&#x16a;" horiz-adv-x="1565" 
d="M505 1443v-909q0 -130 71 -204t199 -74q129 0 199.5 74t70.5 204v909h346v-945q0 -242 -168 -389t-448 -147q-279 0 -447.5 147t-168.5 389v945h346zM1167 1635h-770v192h770v-192z" />
    <glyph glyph-name="umacron" unicode="&#x16b;" horiz-adv-x="1318" 
d="M1175 1110v-1110h-324v179h-19q-39 -97 -126 -150.5t-206 -53.5q-184 0 -294.5 111t-110.5 306v718h334v-642q0 -105 53 -160t147 -55q95 0 154 60t59 161v636h333zM1033 1323h-756v192h756v-192z" />
    <glyph glyph-name="Ubreve" unicode="&#x16c;" horiz-adv-x="1565" 
d="M505 1443v-909q0 -130 71 -204t199 -74q129 0 199.5 74t70.5 204v909h346v-945q0 -242 -168 -389t-448 -147q-279 0 -447.5 147t-168.5 389v945h346zM370 1926h226q2 -74 52.5 -118t133.5 -44t133.5 44t52.5 118h226q0 -155 -111.5 -250t-300.5 -95t-300.5 95t-111.5 250
z" />
    <glyph glyph-name="ubreve" unicode="&#x16d;" horiz-adv-x="1318" 
d="M1175 1110v-1110h-324v179h-19q-39 -97 -126 -150.5t-206 -53.5q-184 0 -294.5 111t-110.5 306v718h334v-642q0 -105 53 -160t147 -55q95 0 154 60t59 161v636h333zM242 1614h226q2 -79 52 -125.5t134 -46.5t134 46.5t52 125.5h226q0 -159 -111.5 -258t-300.5 -99
t-300.5 99t-111.5 258z" />
    <glyph glyph-name="Uring" unicode="&#x16e;" horiz-adv-x="1565" 
d="M782 1579q-108 0 -179.5 69t-71.5 174t71 173t180 68q108 0 179 -68t71 -173q0 -106 -71 -174.5t-179 -68.5zM781 1722q44 0 72 28t28 71t-28.5 71t-71.5 28q-43 -1 -71 -29t-28 -70q0 -43 28 -71t71 -28zM505 1443v-909q0 -130 71 -204t199 -74q129 0 199.5 74t70.5 204
v909h346v-945q0 -242 -168 -389t-448 -147q-279 0 -447.5 147t-168.5 389v945h346z" />
    <glyph glyph-name="uring" unicode="&#x16f;" horiz-adv-x="1318" 
d="M1175 1110v-1110h-324v179h-19q-39 -97 -126 -150.5t-206 -53.5q-184 0 -294.5 111t-110.5 306v718h334v-642q0 -105 53 -160t147 -55q95 0 154 60t59 161v636h333zM655 1257q-108 0 -179.5 69t-71.5 174t71 173t180 68q108 0 179 -68t71 -173q0 -106 -71 -174.5
t-179 -68.5zM654 1400q44 0 72 28t28 71t-28.5 71t-71.5 28q-43 -1 -71 -29t-28 -70q0 -43 28 -71t71 -28z" />
    <glyph glyph-name="Uhungarumlaut" unicode="&#x170;" horiz-adv-x="1565" 
d="M505 1443v-909q0 -130 71 -204t199 -74q129 0 199.5 74t70.5 204v909h346v-945q0 -242 -168 -389t-448 -147q-279 0 -447.5 147t-168.5 389v945h346zM858 1594l230 323h286l-258 -323h-258zM413 1594l230 323h286l-258 -323h-258z" />
    <glyph glyph-name="uhungarumlaut" unicode="&#x171;" horiz-adv-x="1318" 
d="M737 1286l198 356h276l-228 -356h-246zM288 1286l198 356h276l-228 -356h-246zM1175 1110v-1110h-324v179h-19q-39 -97 -126 -150.5t-206 -53.5q-184 0 -294.5 111t-110.5 306v718h334v-642q0 -105 53 -160t147 -55q95 0 154 60t59 161v636h333z" />
    <glyph glyph-name="Uogonek" unicode="&#x172;" horiz-adv-x="1565" 
d="M969 -478q-117 0 -187.5 59.5t-70.5 155.5q0 129 119 215v18q-16 -6 -43 -6q-286 0 -453.5 144.5t-167.5 389.5v945h346v-909q0 -131 71.5 -204.5t198.5 -73.5q128 0 199 73t71 205v909h346v-945q0 -93 -25.5 -171t-66.5 -130.5t-90.5 -96.5t-99.5 -78t-91 -65t-66.5 -68
t-25.5 -78q0 -45 33 -73t89 -28q35 0 73 9v-171q-65 -26 -159 -26z" />
    <glyph glyph-name="uogonek" unicode="&#x173;" horiz-adv-x="1312" 
d="M1171 -451q-66 -24 -149 -24q-117 0 -187.5 59.5t-70.5 159.5q0 160 172 263h-66v172h-19q-39 -97 -126 -150.5t-206 -53.5q-184 0 -294.5 111t-110.5 306v718h334v-642q0 -105 53 -160t147 -55q95 0 154 60t59 161v636h333v-1104h-61q-148 -87 -148 -191q0 -46 33 -73.5
t87 -27.5q37 0 66 7v-172z" />
    <glyph glyph-name="Wcircumflex" unicode="&#x174;" horiz-adv-x="2067" 
d="M1189 1939l279 -345h-288l-137 189h-18l-137 -189h-288l279 345h310zM1009 909l-247 -909h-327l-378 1443h359l203 -978h17l241 978h282l248 -978h17l200 978h357l-379 -1443h-324l-251 909h-18z" />
    <glyph glyph-name="wcircumflex" unicode="&#x175;" horiz-adv-x="1735" 
d="M1031 1614l272 -357h-286l-138 204h-19l-138 -204h-287l273 357h323zM1676 1110l-290 -1110h-358l-181 743h-19l-180 -743h-352l-292 1110h338l147 -773h19l176 773h318l178 -773h19l146 773h331z" />
    <glyph glyph-name="Ycircumflex" unicode="&#x176;" horiz-adv-x="1452" 
d="M880 0h-346v508l-499 935h371l292 -594h19l291 594h371l-499 -935v-508zM881 1939l279 -345h-288l-137 189h-18l-137 -189h-288l279 345h310z" />
    <glyph glyph-name="ycircumflex" unicode="&#x177;" horiz-adv-x="1223" 
d="M253 -405q-116 0 -123 1v257q6 -1 63 -1q172 0 194 106l7 33l-382 1119h369l209 -823h19l209 823h353l-365 -1115q-71 -218 -197.5 -309t-355.5 -91zM780 1614l272 -357h-286l-138 204h-19l-138 -204h-287l273 357h323z" />
    <glyph glyph-name="Ydieresis" unicode="&#x178;" horiz-adv-x="1452" 
d="M880 0h-346v508l-499 935h371l292 -594h19l291 594h371l-499 -935v-508zM466 1581q-74 0 -121 44.5t-47 114.5q0 71 47 115.5t121 44.5q73 0 120 -45t47 -115t-47 -114.5t-120 -44.5zM957 1581q-74 0 -121 44.5t-47 114.5t47 115t121 45t121 -45t47 -115t-47 -114.5
t-121 -44.5z" />
    <glyph glyph-name="Zacute" unicode="&#x179;" horiz-adv-x="1384" 
d="M539 1594l264 323h347l-308 -323h-303zM122 0v223l692 919v19h-680v282h1097v-223l-691 -919v-19h712v-282h-1130z" />
    <glyph glyph-name="zacute" unicode="&#x17a;" horiz-adv-x="1160" 
d="M407 1286l246 356h341l-290 -356h-297zM95 0v183l535 654v18h-524v255h924v-209l-494 -628v-19h510v-254h-951z" />
    <glyph glyph-name="Zdotaccent" unicode="&#x17b;" horiz-adv-x="1384" 
d="M692 1581q-76 0 -123.5 47t-47.5 119q0 73 47.5 120.5t123.5 47.5q75 0 122.5 -47.5t47.5 -120.5q0 -72 -47.5 -119t-122.5 -47zM122 0v223l692 919v19h-680v282h1097v-223l-691 -919v-19h712v-282h-1130z" />
    <glyph glyph-name="zdotaccent" unicode="&#x17c;" horiz-adv-x="1160" 
d="M578 1275q-76 0 -124.5 48t-48.5 121q0 74 48.5 122t124.5 48t124 -48.5t48 -121.5t-48 -121t-124 -48zM95 0v183l535 654v18h-524v255h924v-209l-494 -628v-19h510v-254h-951z" />
    <glyph glyph-name="Zcaron" unicode="&#x17d;" horiz-adv-x="1384" 
d="M122 0v223l692 919v19h-680v282h1097v-223l-691 -919v-19h712v-282h-1130zM835 1594h-286l-274 323h271l135 -173h22l135 173h271z" />
    <glyph glyph-name="zcaron" unicode="&#x17e;" horiz-adv-x="1160" 
d="M739 1257h-323l-273 357h287l138 -204h19l138 204h286zM95 0v183l535 654v18h-524v255h924v-209l-494 -628v-19h510v-254h-951z" />
    <glyph glyph-name="florin" unicode="&#x192;" horiz-adv-x="1415" 
d="M317 -24q-126 0 -216 21v267q79 -23 171 -23q87 0 141 44t67 131l35 220h-310v235h347l28 178q68 408 527 408q119 0 198 -14v-266q-62 16 -160 16q-193 0 -221 -182l-22 -140h341v-235h-379l-37 -236q-36 -219 -160.5 -321.5t-349.5 -102.5z" />
    <glyph glyph-name="Ohorn" unicode="&#x1a0;" horiz-adv-x="1689" 
d="M1509 715q0 -346 -191 -549.5t-515 -203.5q-325 0 -515 204.5t-190 554.5q0 349 188.5 554.5t508.5 205.5q98 0 184.5 -21t135.5 -46.5t101 -46.5t90 -21q88 0 88 111v193h257v-299q0 -97 -47 -154t-127 -57q-38 0 -50 10l-15 -17q97 -174 97 -418zM804 1191
q-161 0 -257 -128t-96 -342q0 -213 96.5 -341t256.5 -128t256 128t96 342q0 213 -95.5 341t-256.5 128z" />
    <glyph glyph-name="ohorn" unicode="&#x1a1;" horiz-adv-x="1425" 
d="M413 553q0 -152 57 -235.5t160 -83.5t160 83.5t57 235.5t-57.5 237.5t-159.5 85.5t-159.5 -85.5t-57.5 -237.5zM1190 548q0 -268 -151.5 -420.5t-417.5 -152.5q-250 0 -400 156.5t-150 417.5q0 263 149.5 424.5t393.5 161.5q91 0 171.5 -24t125 -52.5t90.5 -52.5t78 -24
q76 0 76 105v164h257v-229q0 -119 -55.5 -187.5t-151.5 -68.5q-22 0 -44 5l-8 -10q37 -111 37 -213z" />
    <glyph glyph-name="Uhorn" unicode="&#x1af;" horiz-adv-x="1794" 
d="M1410 1409q40 -13 69 -6q55 11 55 104v170h256v-229q0 -136 -71.5 -211.5t-201.5 -75.5q-20 0 -63 4t-50 9v-676q0 -243 -168.5 -389.5t-447.5 -146.5q-278 0 -447 146.5t-169 389.5v945h346v-909q0 -131 71.5 -204.5t198.5 -73.5q128 0 199 73t71 205v909h352v-34z" />
    <glyph glyph-name="uhorn" unicode="&#x1b0;" horiz-adv-x="1555" 
d="M838 179q-39 -97 -126 -150.5t-206 -53.5q-186 0 -295.5 112.5t-109.5 304.5v718h334v-642q0 -103 52 -159t148 -56t154 60.5t58 160.5v636h340v-29q47 -13 75 -1q49 13 49 99v170h257v-229q0 -136 -72 -211.5t-202 -75.5q-20 0 -62.5 4t-50.5 9v-846h-324v179h-19z" />
    <glyph glyph-name="u01C4" unicode="&#x1c4;" horiz-adv-x="2924" 
d="M150 1444h593q323 0 499.5 -185.5t176.5 -524.5q0 -354 -175 -544t-501 -190h-593v1444zM496 1162v-880h187q186 0 284.5 114t98.5 332q0 207 -101 320.5t-282 113.5h-187zM1667 0v223l692 919v19h-680v282h1097v-223l-691 -919v-19h712v-282h-1130zM2380 1594h-286
l-274 323h271l135 -173h22l135 173h271z" />
    <glyph glyph-name="u01C5" unicode="&#x1c5;" horiz-adv-x="2700" 
d="M144 1444h593q323 0 499.5 -185.5t176.5 -524.5q0 -354 -175 -544t-501 -190h-593v1444zM490 1162v-880h187q186 0 284.5 114t98.5 332q0 207 -101 320.5t-282 113.5h-187zM2278 1257h-323l-273 357h287l138 -204h19l138 204h286zM1634 0v183l535 654v18h-524v255h924
v-209l-494 -628v-19h510v-254h-951z" />
    <glyph glyph-name="u01C6" unicode="&#x1c6;" horiz-adv-x="2503" 
d="M494 -17q-208 0 -327.5 153.5t-119.5 420.5q0 265 119.5 417.5t328.5 152.5q111 0 197 -52t128 -144h18v597h334v-1528h-324v173h-19q-43 -90 -131 -140t-204 -50zM614 861q-105 0 -165 -81.5t-60 -224.5t59.5 -224.5t165.5 -81.5t166.5 81t60.5 224t-60.5 225t-166.5 82
zM2088 1257h-323l-273 357h287l138 -204h19l138 204h286zM1444 0v183l535 654v18h-524v255h924v-209l-494 -628v-19h510v-254h-951z" />
    <glyph glyph-name="u01C7" unicode="&#x1c7;" horiz-adv-x="2444" 
d="M1248 447h333q1 -87 50 -138t130 -51q85 0 130 52t45 152v981h346v-984q0 -238 -136.5 -367.5t-379.5 -129.5q-237 0 -377.5 130.5t-140.5 354.5zM1098 289v-289h-968v1443h346v-1154h622z" />
    <glyph glyph-name="u01C8" unicode="&#x1c8;" horiz-adv-x="1810" 
d="M1667 1110v-1130q0 -169 -106 -258.5t-306 -89.5q-61 0 -95 4v243q18 -2 41 -2q71 0 102 27t31 87v1119h333zM1500 1247q-87 0 -138.5 42.5t-51.5 111.5q0 70 51 112t139 42t139.5 -42t51.5 -112q0 -69 -51.5 -111.5t-139.5 -42.5zM1106 289v-289h-968v1443h346v-1154
h622z" />
    <glyph glyph-name="u01C9" unicode="&#x1c9;" horiz-adv-x="1194" 
d="M1057 1110v-1130q0 -169 -106 -258.5t-306 -89.5q-61 0 -95 4v243q18 -2 41 -2q71 0 102 27t31 87v1119h333zM890 1247q-87 0 -138.5 42.5t-51.5 111.5q0 70 51 112t139 42t139.5 -42t51.5 -112q0 -69 -51.5 -111.5t-139.5 -42.5zM105 0v1528h334v-1528h-334z" />
    <glyph glyph-name="u01CA" unicode="&#x1ca;" horiz-adv-x="2804" 
d="M1608 447h333q1 -87 50 -138t130 -51q85 0 130 52t45 152v981h346v-984q0 -238 -136.5 -367.5t-379.5 -129.5q-237 0 -377.5 130.5t-140.5 354.5zM458 0h-329v1443h279l622 -842h18v842h329v-1443h-277l-624 849h-18v-849z" />
    <glyph glyph-name="u01CB" unicode="&#x1cb;" horiz-adv-x="2170" 
d="M2028 1110v-1130q0 -169 -106 -258.5t-306 -89.5q-61 0 -95 4v243q18 -2 41 -2q71 0 102 27t31 87v1119h333zM1861 1247q-87 0 -138.5 42.5t-51.5 111.5q0 70 51 112t139 42t139.5 -42t51.5 -112q0 -69 -51.5 -111.5t-139.5 -42.5zM467 0h-329v1443h279l622 -842h18v842
h329v-1443h-277l-624 849h-18v-849z" />
    <glyph glyph-name="u01CC" unicode="&#x1cc;" horiz-adv-x="1914" 
d="M1779 1110v-1130q0 -169 -106 -258.5t-306 -89.5q-61 0 -95 4v243q18 -2 41 -2q71 0 102 27t31 87v1119h333zM1612 1247q-87 0 -138.5 42.5t-51.5 111.5q0 70 51 112t139 42t139.5 -42t51.5 -112q0 -69 -51.5 -111.5t-139.5 -42.5zM91 0v1110h325v-180h18
q38 94 130 149.5t213 55.5q185 0 286 -109t101 -309v-717h-334v642q0 105 -50 161t-144 56q-95 0 -153 -61t-58 -162v-636h-334z" />
    <glyph glyph-name="Acaron" unicode="&#x1cd;" horiz-adv-x="1500" 
d="M1051 0l-97 326h-482l-99 -326h-345l490 1443h419l490 -1443h-376zM706 1127l-165 -547h346l-162 547h-19zM893 1594h-286l-274 323h271l135 -173h22l135 173h271z" />
    <glyph glyph-name="acaron" unicode="&#x1ce;" horiz-adv-x="1208" 
d="M534 220q89 0 150 52t61 128v76l-199 -13q-168 -12 -168 -122q0 -56 43 -88.5t113 -32.5zM415 -17q-161 0 -260.5 92t-99.5 244q0 151 113 237t326 98l251 15v88q0 61 -43 94.5t-122 33.5q-148 0 -183 -94h-302q13 159 148.5 251.5t355.5 92.5q227 0 350.5 -99
t123.5 -279v-757h-324v140h-19q-39 -73 -123.5 -115t-191.5 -42zM775 1257h-323l-273 357h287l138 -204h19l138 204h286z" />
    <glyph glyph-name="Icaron" unicode="&#x1cf;" horiz-adv-x="652" 
d="M480 0h-346v1443h346v-1443zM469 1594h-286l-274 323h271l135 -173h22l135 173h271z" />
    <glyph glyph-name="icaron" unicode="&#x1d0;" horiz-adv-x="593" 
d="M457 1257h-323l-273 357h287l138 -204h19l138 204h286zM115 0v1110h334v-1110h-334z" />
    <glyph glyph-name="Ocaron" unicode="&#x1d1;" horiz-adv-x="1610" 
d="M948 1594h-286l-274 323h271l135 -173h22l135 173h271zM799 1481q324 0 514.5 -204t190.5 -555t-190 -555.5t-515 -204.5t-515.5 204t-190.5 556q0 351 191 555t515 204zM799 1191q-160 0 -256.5 -127.5t-96.5 -341.5q0 -215 96 -342.5t257 -127.5q160 0 256 128t96 342
t-96 341.5t-256 127.5z" />
    <glyph glyph-name="ocaron" unicode="&#x1d2;" horiz-adv-x="1269" 
d="M795 1257h-323l-273 357h287l138 -204h19l138 204h286zM623 234q103 0 160 84.5t57 236.5q0 151 -57 236t-160 85t-160 -85t-57 -236q0 -153 57 -237t160 -84zM623 -25q-263 0 -411 153.5t-148 427.5q0 269 150 424t409 155q260 0 410 -154.5t150 -424.5
q0 -274 -148 -427.5t-412 -153.5z" />
    <glyph glyph-name="Ucaron" unicode="&#x1d3;" horiz-adv-x="1565" 
d="M925 1594h-286l-274 323h271l135 -173h22l135 173h271zM505 1443v-909q0 -130 71 -204t199 -74q129 0 199.5 74t70.5 204v909h346v-945q0 -242 -168 -389t-448 -147q-279 0 -447.5 147t-168.5 389v945h346z" />
    <glyph glyph-name="ucaron" unicode="&#x1d4;" horiz-adv-x="1318" 
d="M816 1257h-323l-273 357h287l138 -204h19l138 204h286zM1175 1110v-1110h-324v179h-19q-39 -97 -126 -150.5t-206 -53.5q-184 0 -294.5 111t-110.5 306v718h334v-642q0 -105 53 -160t147 -55q95 0 154 60t59 161v636h333z" />
    <glyph glyph-name="Udieresismacron" unicode="&#x1d5;" horiz-adv-x="1565" 
d="M505 1443v-909q0 -130 71 -204t199 -74q129 0 199.5 74t70.5 204v909h346v-945q0 -242 -168 -389t-448 -147q-279 0 -447.5 147t-168.5 389v945h346zM397 2012v178h770v-178h-770zM536 1581q-73 0 -119.5 44t-46.5 114t46.5 114t119.5 44t119.5 -44t46.5 -114t-46.5 -114
t-119.5 -44zM1028 1581q-73 0 -119.5 44t-46.5 114t46.5 114t119.5 44t119.5 -44t46.5 -114t-46.5 -114t-119.5 -44z" />
    <glyph glyph-name="udieresismacron" unicode="&#x1d6;" horiz-adv-x="1318" 
d="M1175 1110v-1110h-324v179h-19q-39 -97 -126 -150.5t-206 -53.5q-184 0 -294.5 111t-110.5 306v718h334v-642q0 -105 53 -160t147 -55q95 0 154 60t59 161v636h333zM427 1257q-69 0 -113 43t-44 108q0 66 44 109.5t113 43.5t112.5 -43t43.5 -110q0 -65 -43.5 -108
t-112.5 -43zM883 1257q-69 0 -112.5 43t-43.5 108q0 67 43.5 110t112.5 43t113 -43.5t44 -109.5q0 -65 -44 -108t-113 -43zM1033 1692h-756v192h756v-192z" />
    <glyph glyph-name="Udieresisacute" unicode="&#x1d7;" horiz-adv-x="1565" 
d="M650 1954l143 247h316l-195 -247h-264zM522 1581q-74 0 -121 44.5t-47 114.5q0 71 47 115.5t121 44.5q73 0 120 -45t47 -115t-47 -114.5t-120 -44.5zM1013 1581q-74 0 -121 44.5t-47 114.5t47 115t121 45t121 -45t47 -115t-47 -114.5t-121 -44.5zM505 1443v-909
q0 -130 71 -204t199 -74q129 0 199.5 74t70.5 204v909h346v-945q0 -242 -168 -389t-448 -147q-279 0 -447.5 147t-168.5 389v945h346z" />
    <glyph glyph-name="udieresisacute" unicode="&#x1d8;" horiz-adv-x="1318" 
d="M518 1657l212 324h310l-257 -324h-265zM395 1265q-74 0 -121 44.5t-47 114.5q0 71 47 115.5t121 44.5q73 0 120 -45t47 -115t-47 -114.5t-120 -44.5zM886 1265q-74 0 -121 44.5t-47 114.5t47 115t121 45t121 -45t47 -115t-47 -114.5t-121 -44.5zM1175 1110v-1110h-324
v179h-19q-39 -97 -126 -150.5t-206 -53.5q-184 0 -294.5 111t-110.5 306v718h334v-642q0 -105 53 -160t147 -55q95 0 154 60t59 161v636h333z" />
    <glyph glyph-name="Udieresiscaron" unicode="&#x1d9;" horiz-adv-x="1565" 
d="M536 1561q-72 0 -117.5 43t-45.5 109t45.5 108.5t117.5 42.5t118 -42.5t46 -108.5t-46 -109t-118 -43zM1028 1561q-72 0 -118 43t-46 109t46 108.5t118 42.5t117.5 -42.5t45.5 -108.5t-45.5 -109t-117.5 -43zM930 1923h-296l-273 316h278l132 -173h22l132 173h278z
M505 1443v-909q0 -130 71 -204t199 -74q129 0 199.5 74t70.5 204v909h346v-945q0 -242 -168 -389t-448 -147q-279 0 -447.5 147t-168.5 389v945h346z" />
    <glyph glyph-name="udieresiscaron" unicode="&#x1da;" horiz-adv-x="1318" 
d="M427 1257q-69 0 -113 43t-44 108q0 66 44 109.5t113 43.5t112.5 -43t43.5 -110q0 -65 -43.5 -108t-112.5 -43zM883 1257q-69 0 -112.5 43t-43.5 108q0 67 43.5 110t112.5 43t113 -43.5t44 -109.5q0 -65 -44 -108t-113 -43zM804 1634h-298l-269 353h271l138 -208h18
l138 208h271zM1175 1110v-1110h-324v179h-19q-39 -97 -126 -150.5t-206 -53.5q-184 0 -294.5 111t-110.5 306v718h334v-642q0 -105 53 -160t147 -55q95 0 154 60t59 161v636h333z" />
    <glyph glyph-name="Udieresisgrave" unicode="&#x1db;" horiz-adv-x="1565" 
d="M919 1954h-263l-195 247h315zM522 1581q-74 0 -121 44.5t-47 114.5q0 71 47 115.5t121 44.5q73 0 120 -45t47 -115t-47 -114.5t-120 -44.5zM1013 1581q-74 0 -121 44.5t-47 114.5t47 115t121 45t121 -45t47 -115t-47 -114.5t-121 -44.5zM505 1443v-909q0 -130 71 -204
t199 -74q129 0 199.5 74t70.5 204v909h346v-945q0 -242 -168 -389t-448 -147q-279 0 -447.5 147t-168.5 389v945h346z" />
    <glyph glyph-name="udieresisgrave" unicode="&#x1dc;" horiz-adv-x="1318" 
d="M792 1657h-265l-257 324h310zM395 1265q-74 0 -121 44.5t-47 114.5q0 71 47 115.5t121 44.5q73 0 120 -45t47 -115t-47 -114.5t-120 -44.5zM886 1265q-74 0 -121 44.5t-47 114.5t47 115t121 45t121 -45t47 -115t-47 -114.5t-121 -44.5zM1175 1110v-1110h-324v179h-19
q-39 -97 -126 -150.5t-206 -53.5q-184 0 -294.5 111t-110.5 306v718h334v-642q0 -105 53 -160t147 -55q95 0 154 60t59 161v636h333z" />
    <glyph glyph-name="Adieresismacron" unicode="&#x1de;" horiz-adv-x="1500" 
d="M1051 0l-97 326h-482l-99 -326h-345l490 1443h419l490 -1443h-376zM706 1127l-165 -547h346l-162 547h-19zM365 2012v178h770v-178h-770zM504 1581q-73 0 -119.5 44t-46.5 114t46.5 114t119.5 44t119.5 -44t46.5 -114t-46.5 -114t-119.5 -44zM996 1581q-73 0 -119.5 44
t-46.5 114t46.5 114t119.5 44t119.5 -44t46.5 -114t-46.5 -114t-119.5 -44z" />
    <glyph glyph-name="adieresismacron" unicode="&#x1df;" horiz-adv-x="1208" 
d="M534 220q89 0 150 52t61 128v76l-199 -13q-168 -12 -168 -122q0 -56 43 -88.5t113 -32.5zM415 -17q-161 0 -260.5 92t-99.5 244q0 151 113 237t326 98l251 15v88q0 61 -43 94.5t-122 33.5q-148 0 -183 -94h-302q13 159 148.5 251.5t355.5 92.5q227 0 350.5 -99
t123.5 -279v-757h-324v140h-19q-39 -73 -123.5 -115t-191.5 -42zM386 1257q-69 0 -113 43t-44 108q0 66 44 109.5t113 43.5t112.5 -43t43.5 -110q0 -65 -43.5 -108t-112.5 -43zM842 1257q-69 0 -112.5 43t-43.5 108q0 67 43.5 110t112.5 43t113 -43.5t44 -109.5
q0 -65 -44 -108t-113 -43zM992 1692h-756v192h756v-192z" />
    <glyph glyph-name="Adotmacron" unicode="&#x1e0;" horiz-adv-x="1500" 
d="M1051 0l-97 326h-482l-99 -326h-345l490 1443h419l490 -1443h-376zM706 1127l-165 -547h346l-162 547h-19zM750 1575q-74 0 -121.5 44.5t-47.5 112.5t47 112t122 44t122 -44t47 -112t-47.5 -112.5t-121.5 -44.5zM1135 2012h-770v178h770v-178z" />
    <glyph glyph-name="adotmacron" unicode="&#x1e1;" horiz-adv-x="1208" 
d="M534 220q89 0 150 52t61 128v76l-199 -13q-168 -12 -168 -122q0 -56 43 -88.5t113 -32.5zM415 -17q-161 0 -260.5 92t-99.5 244q0 151 113 237t326 98l251 15v88q0 61 -43 94.5t-122 33.5q-148 0 -183 -94h-302q13 159 148.5 251.5t355.5 92.5q227 0 350.5 -99
t123.5 -279v-757h-324v140h-19q-39 -73 -123.5 -115t-191.5 -42zM614 1257q-71 0 -116.5 45t-45.5 111q0 69 45.5 114t116.5 45t116.5 -45t45.5 -114q0 -66 -45.5 -111t-116.5 -45zM992 1692h-756v192h756v-192z" />
    <glyph glyph-name="AEmacron" unicode="&#x1e2;" horiz-adv-x="2059" 
d="M957 1180h-123l-227 -586h350v586zM957 0v340h-442l-134 -340h-343l576 1443h1302v-282h-648v-308h611v-260h-611v-311h648v-282h-959zM1921 1635h-770v192h770v-192z" />
    <glyph glyph-name="aemacron" unicode="&#x1e3;" horiz-adv-x="1902" 
d="M1308 -25q-130 0 -234.5 50.5t-158.5 138.5h-19q-67 -88 -172.5 -138.5t-234.5 -50.5q-193 0 -308 95.5t-115 248.5q0 151 113 237t326 98l251 15v88q0 61 -43 94.5t-122 33.5q-148 0 -183 -94h-302q11 151 140.5 247.5t321.5 96.5q250 0 361 -152h19q61 70 153 111
t202 41q233 0 369 -150t136 -405v-100h-739v-28q2 -106 66 -170.5t168 -64.5q141 0 193 106h304q-31 -160 -164 -254t-328 -94zM1282 894q-92 0 -150.5 -60.5t-62.5 -157.5h416q-5 98 -60.5 158t-142.5 60zM548 216q88 0 148 54.5t60 131.5v74l-199 -13q-168 -12 -168 -125
q0 -57 43 -89.5t116 -32.5zM1367 1323h-756v192h756v-192z" />
    <glyph glyph-name="Gcaron" unicode="&#x1e6;" horiz-adv-x="1557" 
d="M939 1595h-286l-274 323h271l135 -173h22l135 173h271zM1450 597q0 -295 -174 -465t-476 -170q-329 0 -517 203t-188 558q0 350 187 554t509 204q262 0 439 -139t206 -366h-342q-29 100 -109.5 156.5t-193.5 56.5q-160 0 -251.5 -123t-91.5 -339q0 -220 97 -346.5
t262 -126.5q132 0 216.5 71.5t90.5 188.5l2 25h-280v243h614v-185z" />
    <glyph glyph-name="gcaron" unicode="&#x1e7;" horiz-adv-x="1322" 
d="M809 1257h-323l-273 357h287l138 -204h19l138 204h286zM851 563q0 138 -61 218t-167 80t-165 -79.5t-59 -218.5t59 -218t165 -79q107 0 167.5 79.5t60.5 217.5zM615 -419q-228 0 -370.5 90.5t-153.5 239.5h326q10 -47 65 -75t142 -28q106 0 165 48t59 134v202h-19
q-89 -176 -329 -176q-205 0 -324.5 148t-119.5 398q0 262 120.5 413.5t330.5 151.5q112 0 200 -52t132 -144h18v179h325v-1100q0 -197 -153.5 -313t-413.5 -116z" />
    <glyph glyph-name="Kcaron" unicode="&#x1e8;" horiz-adv-x="1453" 
d="M482 0h-346v1443h346v-628h18l498 628h375l-508 -635l540 -808h-410l-381 581l-132 -164v-417zM844 1594h-286l-274 323h271l135 -173h22l135 173h271z" />
    <glyph glyph-name="kcaron" unicode="&#x1e9;" horiz-adv-x="1232" 
d="M461 688l332 422h375l-404 -477l432 -633h-390l-292 433l-72 -79v-354h-334v1528h334v-840h19zM439 1679h-286l-274 323h271l135 -173h22l135 173h271z" />
    <glyph glyph-name="Oogonek" unicode="&#x1ea;" horiz-adv-x="1610" 
d="M994 -478q-115 0 -185 59.5t-70 156.5q0 133 112 216v19q-21 -7 -51 -7q-325 0 -513 202.5t-188 552.5t190.5 555t515.5 205q326 0 515.5 -204.5t189.5 -555.5q0 -138 -30.5 -250.5t-78.5 -185t-106.5 -130.5t-117.5 -99t-107 -77t-78.5 -77.5t-30.5 -88.5t32 -75t87 -28
q36 0 75 9v-171q-62 -26 -161 -26zM805 1191q-161 0 -257 -128t-96 -342q0 -213 96.5 -341t256.5 -128t256 128t96 342q0 213 -95.5 341t-256.5 128z" />
    <glyph glyph-name="oogonek" unicode="&#x1eb;" horiz-adv-x="1269" 
d="M782 -478q-114 0 -184.5 60.5t-70.5 158.5q0 124 115 218v18q-18 -2 -25 -2q-257 3 -399.5 156t-142.5 425q0 269 150 424t409 155q260 0 410 -155t150 -424q0 -321 -219 -490q-134 -103 -180.5 -156.5t-46.5 -104.5q0 -43 33 -69t86 -26q35 0 75 9v-171
q-68 -26 -160 -26zM634 234q103 0 160 84t57 237q0 151 -57.5 236t-159.5 85t-159.5 -85t-57.5 -236q0 -153 57 -237t160 -84z" />
    <glyph glyph-name="Oogonekmacron" unicode="&#x1ec;" horiz-adv-x="1610" 
d="M988 -478q-115 0 -185 59.5t-70 156.5q0 133 112 216v19q-21 -7 -51 -7q-325 0 -513 202.5t-188 552.5t190.5 555t515.5 205q326 0 515.5 -204.5t189.5 -555.5q0 -138 -30.5 -250.5t-78.5 -185t-106.5 -130.5t-117.5 -99t-107 -77t-78.5 -77.5t-30.5 -88.5t32 -75t87 -28
q36 0 75 9v-171q-62 -26 -161 -26zM799 1191q-161 0 -257 -128t-96 -342q0 -213 96.5 -341t256.5 -128t256 128t96 342q0 213 -95.5 341t-256.5 128zM1190 1635h-770v192h770v-192z" />
    <glyph glyph-name="oogonekmacron" unicode="&#x1ed;" horiz-adv-x="1269" 
d="M771 -478q-114 0 -184.5 60.5t-70.5 158.5q0 124 115 218v18q-18 -2 -25 -2q-257 3 -399.5 156t-142.5 425q0 269 150 424t409 155q260 0 410 -155t150 -424q0 -321 -219 -490q-134 -103 -180.5 -156.5t-46.5 -104.5q0 -43 33 -69t86 -26q34 0 75 9v-171
q-68 -26 -160 -26zM623 234q103 0 160 84t57 237q0 151 -57.5 236t-159.5 85t-159.5 -85t-57.5 -236q0 -153 57 -237t160 -84zM1012 1323h-756v192h756v-192z" />
    <glyph glyph-name="u01F1" unicode="&#x1f1;" horiz-adv-x="2924" 
d="M1672 0v223l692 919v19h-680v282h1097v-223l-691 -919v-19h712v-282h-1130zM150 1444h593q323 0 499.5 -185.5t176.5 -524.5q0 -354 -175 -544t-501 -190h-593v1444zM496 1162v-880h187q186 0 284.5 114t98.5 332q0 207 -101 320.5t-282 113.5h-187z" />
    <glyph glyph-name="u01F2" unicode="&#x1f2;" horiz-adv-x="2700" 
d="M1644 0v183l535 654v18h-524v255h924v-209l-494 -628v-19h510v-254h-951zM144 1444h593q323 0 499.5 -185.5t176.5 -524.5q0 -354 -175 -544t-501 -190h-593v1444zM490 1162v-880h187q186 0 284.5 114t98.5 332q0 207 -101 320.5t-282 113.5h-187z" />
    <glyph glyph-name="u01F3" unicode="&#x1f3;" horiz-adv-x="2503" 
d="M1454 0v183l535 654v18h-524v255h924v-209l-494 -628v-19h510v-254h-951zM494 -17q-208 0 -327.5 153.5t-119.5 420.5q0 265 119.5 417.5t328.5 152.5q111 0 197 -52t128 -144h18v597h334v-1528h-324v173h-19q-43 -90 -131 -140t-204 -50zM614 861q-105 0 -165 -81.5
t-60 -224.5t59.5 -224.5t165.5 -81.5t166.5 81t60.5 224t-60.5 225t-166.5 82z" />
    <glyph glyph-name="Gacute" unicode="&#x1f4;" horiz-adv-x="1557" 
d="M643 1595l264 323h347l-308 -323h-303zM1450 597q0 -295 -174 -465t-476 -170q-329 0 -517 203t-188 558q0 350 187 554t509 204q262 0 439 -139t206 -366h-342q-29 100 -109.5 156.5t-193.5 56.5q-160 0 -251.5 -123t-91.5 -339q0 -220 97 -346.5t262 -126.5
q132 0 216.5 71.5t90.5 188.5l2 25h-280v243h614v-185z" />
    <glyph glyph-name="gacute" unicode="&#x1f5;" horiz-adv-x="1322" 
d="M477 1286l246 356h341l-290 -356h-297zM851 563q0 138 -61 218t-167 80t-165 -79.5t-59 -218.5t59 -218t165 -79q107 0 167.5 79.5t60.5 217.5zM615 -419q-228 0 -370.5 90.5t-153.5 239.5h326q10 -47 65 -75t142 -28q106 0 165 48t59 134v202h-19q-89 -176 -329 -176
q-205 0 -324.5 148t-119.5 398q0 262 120.5 413.5t330.5 151.5q112 0 200 -52t132 -144h18v179h325v-1100q0 -197 -153.5 -313t-413.5 -116z" />
    <glyph glyph-name="Ngrave" unicode="&#x1f8;" horiz-adv-x="1573" 
d="M686 1917l264 -323h-303l-308 323h347zM481 0h-329v1443h279l622 -842h18v842h329v-1443h-277l-624 849h-18v-849z" />
    <glyph glyph-name="ngrave" unicode="&#x1f9;" horiz-adv-x="1310" 
d="M835 1286h-297l-290 356h341zM106 0v1110h325v-180h18q38 94 130 149.5t213 55.5q185 0 286 -109t101 -309v-717h-334v642q0 105 -50 161t-144 56q-95 0 -153 -61t-58 -162v-636h-334z" />
    <glyph glyph-name="Aringacute" unicode="&#x1fa;" horiz-adv-x="1500" 
d="M1051 0l-97 326h-482l-99 -326h-345l490 1443h419l490 -1443h-376zM706 1127l-165 -547h346l-162 547h-19zM718 1792q-21 -13 -26 -36.5t9 -44.5q13 -22 36 -26.5t45 9.5q22 13 26.5 36t-9.5 45q-13 21 -36.5 26t-44.5 -9zM751 1531q-95 0 -158 60.5t-63 153.5
q0 92 62.5 151.5t158.5 59.5q95 0 157 -60t62 -151q0 -93 -62 -153.5t-157 -60.5zM713 2225h291l-121 -194h-264z" />
    <glyph glyph-name="aringacute" unicode="&#x1fb;" horiz-adv-x="1208" 
d="M534 220q89 0 150 52t61 128v76l-199 -13q-168 -12 -168 -122q0 -56 43 -88.5t113 -32.5zM415 -17q-161 0 -260.5 92t-99.5 244q0 151 113 237t326 98l251 15v88q0 61 -43 94.5t-122 33.5q-148 0 -183 -94h-302q13 159 148.5 251.5t355.5 92.5q227 0 350.5 -99
t123.5 -279v-757h-324v140h-19q-39 -73 -123.5 -115t-191.5 -42zM614 1219q-102 0 -169 65t-67 164q0 98 67 163t169 65t169 -65t67 -163q0 -99 -67 -164t-169 -65zM526 1447q0 -38 25 -63t63 -25t63 25t25 63t-25 63.5t-63 25.5t-63 -25.5t-25 -63.5zM500 1753l158 239h270
l-200 -239h-228z" />
    <glyph glyph-name="AEacute" unicode="&#x1fc;" horiz-adv-x="2059" 
d="M1383 1594l264 323h347l-308 -323h-303zM957 1180h-123l-227 -586h350v586zM957 0v340h-442l-134 -340h-343l576 1443h1302v-282h-648v-308h611v-260h-611v-311h648v-282h-959z" />
    <glyph glyph-name="aeacute" unicode="&#x1fd;" horiz-adv-x="1902" 
d="M818 1286l246 356h341l-290 -356h-297zM1308 -25q-130 0 -234.5 50.5t-158.5 138.5h-19q-67 -88 -172.5 -138.5t-234.5 -50.5q-193 0 -308 95.5t-115 248.5q0 151 113 237t326 98l251 15v88q0 61 -43 94.5t-122 33.5q-148 0 -183 -94h-302q11 151 140.5 247.5t321.5 96.5
q250 0 361 -152h19q61 70 153 111t202 41q233 0 369 -150t136 -405v-100h-739v-28q2 -106 66 -170.5t168 -64.5q141 0 193 106h304q-31 -160 -164 -254t-328 -94zM1282 894q-92 0 -150.5 -60.5t-62.5 -157.5h416q-5 98 -60.5 158t-142.5 60zM548 216q88 0 148 54.5t60 131.5
v74l-199 -13q-168 -12 -168 -125q0 -57 43 -89.5t116 -32.5z" />
    <glyph glyph-name="Oslashacute" unicode="&#x1fe;" horiz-adv-x="1592" 
d="M1285 1917l-308 -323h-303l264 323h347zM1063 1041l-460 -730q81 -59 188 -59q160 0 256 128t96 342q0 194 -80 319zM517 404l458 730q-80 57 -184 57q-160 0 -256.5 -127.5t-96.5 -341.5q0 -194 79 -318zM1324 1456l-78 -123q121 -99 185.5 -255t64.5 -356
q0 -351 -190 -555.5t-515 -204.5q-201 0 -357 82l-74 -118l-102 64l76 121q-120 98 -184.5 254t-64.5 357q0 351 191 555t515 204q199 0 351 -80l70 111z" />
    <glyph glyph-name="oslashacute" unicode="&#x1ff;" horiz-adv-x="1269" 
d="M1043 1642l-290 -356h-297l246 356h341zM807 716l-282 -463q40 -19 87 -19q103 0 160 84.5t57 236.5q0 90 -22 161zM438 342l298 490q-50 44 -124 44q-103 0 -160 -85t-57 -236q0 -132 43 -213zM1059 1129l-71 -117q184 -154 184 -456q0 -274 -148 -427.5t-412 -153.5
q-131 0 -233 39l-59 -96l-103 62l54 89q-106 73 -162 197t-56 290q0 269 150 424t409 155q154 0 274 -57l66 108z" />
    <glyph glyph-name="Adblgrave" unicode="&#x200;" horiz-adv-x="1500" 
d="M1051 0l-97 326h-482l-99 -326h-345l490 1443h419l490 -1443h-376zM706 1127l-165 -547h346l-162 547h-19zM661 1594h-258l-258 323h286zM1107 1594h-259l-258 323h286z" />
    <glyph glyph-name="adblgrave" unicode="&#x201;" horiz-adv-x="1208" 
d="M534 220q89 0 150 52t61 128v76l-199 -13q-168 -12 -168 -122q0 -56 43 -88.5t113 -32.5zM415 -17q-161 0 -260.5 92t-99.5 244q0 151 113 237t326 98l251 15v88q0 61 -43 94.5t-122 33.5q-148 0 -183 -94h-302q13 159 148.5 251.5t355.5 92.5q227 0 350.5 -99
t123.5 -279v-757h-324v140h-19q-39 -73 -123.5 -115t-191.5 -42zM527 1286h-247l-227 356h276zM976 1286h-247l-227 356h276z" />
    <glyph glyph-name="Ainvertedbreve" unicode="&#x202;" horiz-adv-x="1500" 
d="M1051 0l-97 326h-482l-99 -326h-345l490 1443h419l490 -1443h-376zM706 1127l-165 -547h346l-162 547h-19zM338 1581q0 154 111.5 249.5t300.5 95.5t300.5 -95.5t111.5 -249.5h-226q-2 74 -52.5 117.5t-133.5 43.5t-133.5 -43.5t-52.5 -117.5h-226z" />
    <glyph glyph-name="ainvertedbreve" unicode="&#x203;" horiz-adv-x="1208" 
d="M534 220q89 0 150 52t61 128v76l-199 -13q-168 -12 -168 -122q0 -56 43 -88.5t113 -32.5zM415 -17q-161 0 -260.5 92t-99.5 244q0 151 113 237t326 98l251 15v88q0 61 -43 94.5t-122 33.5q-148 0 -183 -94h-302q13 159 148.5 251.5t355.5 92.5q227 0 350.5 -99
t123.5 -279v-757h-324v140h-19q-39 -73 -123.5 -115t-191.5 -42zM202 1257q0 159 111.5 258t300.5 99t300.5 -99t111.5 -258h-226q-2 79 -52 125.5t-134 46.5t-134 -46.5t-52 -125.5h-226z" />
    <glyph glyph-name="Edblgrave" unicode="&#x204;" horiz-adv-x="1274" 
d="M563 1594h-258l-258 323h286zM1009 1594h-259l-258 323h286zM1132 282v-282h-978v1443h978v-282h-632v-305h595v-259h-595v-315h632z" />
    <glyph glyph-name="edblgrave" unicode="&#x205;" horiz-adv-x="1231" 
d="M611 893q-91 0 -150 -59t-66 -158h425q-5 101 -60 159t-149 58zM831 323h306q-31 -161 -171 -254.5t-351 -93.5q-262 0 -406.5 150.5t-144.5 422.5q0 273 146 430t400 157q253 0 394 -148t141 -413v-95h-751v-17q1 -114 63 -180t167 -66q80 0 133.5 28t73.5 79zM534 1286
h-247l-227 356h276zM983 1286h-247l-227 356h276z" />
    <glyph glyph-name="Einvertedbreve" unicode="&#x206;" horiz-adv-x="1274" 
d="M1132 282v-282h-978v1443h978v-282h-632v-305h595v-259h-595v-315h632zM240 1581q0 154 111.5 249.5t300.5 95.5t300.5 -95.5t111.5 -249.5h-226q-2 74 -52.5 117.5t-133.5 43.5t-133.5 -43.5t-52.5 -117.5h-226z" />
    <glyph glyph-name="einvertedbreve" unicode="&#x207;" horiz-adv-x="1231" 
d="M611 893q-91 0 -150 -59t-66 -158h425q-5 101 -60 159t-149 58zM831 323h306q-31 -161 -171 -254.5t-351 -93.5q-262 0 -406.5 150.5t-144.5 422.5q0 273 146 430t400 157q253 0 394 -148t141 -413v-95h-751v-17q1 -114 63 -180t167 -66q80 0 133.5 28t73.5 79zM209 1257
q0 159 111.5 258t300.5 99t300.5 -99t111.5 -258h-226q-2 79 -52 125.5t-134 46.5t-134 -46.5t-52 -125.5h-226z" />
    <glyph glyph-name="Idblgrave" unicode="&#x208;" horiz-adv-x="652" 
d="M480 0h-346v1443h346v-1443zM237 1594h-258l-258 323h286zM683 1594h-259l-258 323h286z" />
    <glyph glyph-name="idblgrave" unicode="&#x209;" horiz-adv-x="593" 
d="M115 0v1110h334v-1110h-334zM209 1286h-247l-227 356h276zM658 1286h-247l-227 356h276z" />
    <glyph glyph-name="Iinvertedbreve" unicode="&#x20a;" horiz-adv-x="652" 
d="M480 0h-346v1443h346v-1443zM-86 1581q0 154 111.5 249.5t300.5 95.5t300.5 -95.5t111.5 -249.5h-226q-2 74 -52.5 117.5t-133.5 43.5t-133.5 -43.5t-52.5 -117.5h-226z" />
    <glyph glyph-name="iinvertedbreve" unicode="&#x20b;" horiz-adv-x="593" 
d="M115 0v1110h334v-1110h-334zM-116 1257q0 159 111.5 258t300.5 99t300.5 -99t111.5 -258h-226q-2 79 -52 125.5t-134 46.5t-134 -46.5t-52 -125.5h-226z" />
    <glyph glyph-name="Odblgrave" unicode="&#x20c;" horiz-adv-x="1610" 
d="M716 1594h-258l-258 323h286zM1162 1594h-259l-258 323h286zM799 1481q324 0 514.5 -204t190.5 -555t-190 -555.5t-515 -204.5t-515.5 204t-190.5 556q0 351 191 555t515 204zM799 1191q-160 0 -256.5 -127.5t-96.5 -341.5q0 -215 96 -342.5t257 -127.5q160 0 256 128
t96 342t-96 341.5t-256 127.5z" />
    <glyph glyph-name="odblgrave" unicode="&#x20d;" horiz-adv-x="1269" 
d="M623 234q103 0 160 84.5t57 236.5q0 151 -57 236t-160 85t-160 -85t-57 -236q0 -153 57 -237t160 -84zM623 -25q-263 0 -411 153.5t-148 427.5q0 269 150 424t409 155q260 0 410 -154.5t150 -424.5q0 -274 -148 -427.5t-412 -153.5zM547 1286h-247l-227 356h276z
M996 1286h-247l-227 356h276z" />
    <glyph glyph-name="Oinvertedbreve" unicode="&#x20e;" horiz-adv-x="1610" 
d="M393 1581q0 154 111.5 249.5t300.5 95.5t300.5 -95.5t111.5 -249.5h-226q-2 74 -52.5 117.5t-133.5 43.5t-133.5 -43.5t-52.5 -117.5h-226zM799 1481q324 0 514.5 -204t190.5 -555t-190 -555.5t-515 -204.5t-515.5 204t-190.5 556q0 351 191 555t515 204zM799 1191
q-160 0 -256.5 -127.5t-96.5 -341.5q0 -215 96 -342.5t257 -127.5q160 0 256 128t96 342t-96 341.5t-256 127.5z" />
    <glyph glyph-name="oinvertedbreve" unicode="&#x20f;" horiz-adv-x="1269" 
d="M623 234q103 0 160 84.5t57 236.5q0 151 -57 236t-160 85t-160 -85t-57 -236q0 -153 57 -237t160 -84zM623 -25q-263 0 -411 153.5t-148 427.5q0 269 150 424t409 155q260 0 410 -154.5t150 -424.5q0 -274 -148 -427.5t-412 -153.5zM222 1257q0 159 111.5 258t300.5 99
t300.5 -99t111.5 -258h-226q-2 79 -52 125.5t-134 46.5t-134 -46.5t-52 -125.5h-226z" />
    <glyph glyph-name="Rdblgrave" unicode="&#x210;" horiz-adv-x="1422" 
d="M563 1594h-258l-258 323h286zM1009 1594h-259l-258 323h286zM488 1177v-416h232q105 0 164.5 55t59.5 152q0 96 -61.5 152.5t-164.5 56.5h-230zM488 511v-511h-346v1443h626q247 0 388.5 -125.5t141.5 -345.5q0 -138 -66.5 -249t-185.5 -160l294 -563h-390l-254 511h-208
z" />
    <glyph glyph-name="rdblgrave" unicode="&#x211;" horiz-adv-x="881" 
d="M98 0v1110h325v-181h18q21 85 97 141.5t177 56.5q78 0 120 -16v-288q-18 7 -64 13t-80 6q-117 0 -188 -65.5t-71 -180.5v-596h-334zM365 1286h-247l-227 356h276zM814 1286h-247l-227 356h276z" />
    <glyph glyph-name="Rinvertedbreve" unicode="&#x212;" horiz-adv-x="1422" 
d="M488 1177v-416h232q105 0 164.5 55t59.5 152q0 96 -61.5 152.5t-164.5 56.5h-230zM488 511v-511h-346v1443h626q247 0 388.5 -125.5t141.5 -345.5q0 -138 -66.5 -249t-185.5 -160l294 -563h-390l-254 511h-208zM240 1581q0 154 111.5 249.5t300.5 95.5t300.5 -95.5
t111.5 -249.5h-226q-2 74 -52.5 117.5t-133.5 43.5t-133.5 -43.5t-52.5 -117.5h-226z" />
    <glyph glyph-name="rinvertedbreve" unicode="&#x213;" horiz-adv-x="881" 
d="M98 0v1110h325v-181h18q21 85 97 141.5t177 56.5q78 0 120 -16v-288q-18 7 -64 13t-80 6q-117 0 -188 -65.5t-71 -180.5v-596h-334zM40 1257q0 159 111.5 258t300.5 99t300.5 -99t111.5 -258h-226q-2 79 -52 125.5t-134 46.5t-134 -46.5t-52 -125.5h-226z" />
    <glyph glyph-name="Udblgrave" unicode="&#x214;" horiz-adv-x="1565" 
d="M693 1594h-258l-258 323h286zM1139 1594h-259l-258 323h286zM505 1443v-909q0 -130 71 -204t199 -74q129 0 199.5 74t70.5 204v909h346v-945q0 -242 -168 -389t-448 -147q-279 0 -447.5 147t-168.5 389v945h346z" />
    <glyph glyph-name="udblgrave" unicode="&#x215;" horiz-adv-x="1318" 
d="M1175 1110v-1110h-324v179h-19q-39 -97 -126 -150.5t-206 -53.5q-184 0 -294.5 111t-110.5 306v718h334v-642q0 -105 53 -160t147 -55q95 0 154 60t59 161v636h333zM568 1286h-247l-227 356h276zM1017 1286h-247l-227 356h276z" />
    <glyph glyph-name="Uinvertedbreve" unicode="&#x216;" horiz-adv-x="1565" 
d="M505 1443v-909q0 -130 71 -204t199 -74q129 0 199.5 74t70.5 204v909h346v-945q0 -242 -168 -389t-448 -147q-279 0 -447.5 147t-168.5 389v945h346zM370 1581q0 154 111.5 249.5t300.5 95.5t300.5 -95.5t111.5 -249.5h-226q-2 74 -52.5 117.5t-133.5 43.5t-133.5 -43.5
t-52.5 -117.5h-226z" />
    <glyph glyph-name="uinvertedbreve" unicode="&#x217;" horiz-adv-x="1318" 
d="M1175 1110v-1110h-324v179h-19q-39 -97 -126 -150.5t-206 -53.5q-184 0 -294.5 111t-110.5 306v718h334v-642q0 -105 53 -160t147 -55q95 0 154 60t59 161v636h333zM243 1257q0 159 111.5 258t300.5 99t300.5 -99t111.5 -258h-226q-2 79 -52 125.5t-134 46.5t-134 -46.5
t-52 -125.5h-226z" />
    <glyph glyph-name="Scommaaccent" unicode="&#x218;" horiz-adv-x="1383" 
d="M80 407h332q7 -82 82.5 -130t194.5 -48q107 0 174.5 47t67.5 122q0 63 -54 101.5t-180 63.5l-189 39q-398 78 -398 418q0 209 155 335t412 126q248 0 406.5 -123.5t163.5 -320.5h-322q-7 79 -75 128.5t-169 49.5q-102 0 -164 -44.5t-62 -119.5q0 -62 52.5 -100.5
t170.5 -62.5l183 -36q214 -43 313.5 -142.5t99.5 -269.5q0 -223 -160.5 -350.5t-440.5 -127.5q-268 0 -427.5 119.5t-165.5 325.5zM678 -507h-291l143 352h332z" />
    <glyph glyph-name="scommaaccent" unicode="&#x219;" horiz-adv-x="1160" 
d="M83 778q0 163 130.5 260t349.5 97q224 0 347.5 -86.5t133.5 -251.5h-305q-9 51 -54 79.5t-119 28.5q-73 0 -118.5 -29t-45.5 -77q0 -37 32.5 -60.5t101.5 -38.5l223 -47q163 -35 237.5 -107t74.5 -198q0 -170 -138 -271.5t-366 -101.5q-232 0 -363.5 87.5t-147.5 252.5
h323q29 -110 193 -110q77 0 123.5 29t46.5 77q0 37 -29.5 59.5t-97.5 36.5l-205 45q-327 70 -327 326zM574 -507h-291l143 352h332z" />
    <glyph glyph-name="Tcommaaccent" unicode="&#x21a;" horiz-adv-x="1352" 
d="M663 -507h-291l143 352h332zM839 0h-346v1161h-422v282h1189v-282h-421v-1161z" />
    <glyph glyph-name="tcommaaccent" unicode="&#x21b;" horiz-adv-x="845" 
d="M481 -507h-291l143 352h332zM191 1364h333v-268h229v-251h-229v-466q0 -67 34 -99t104 -32q44 0 87 5v-242q-69 -13 -161 -13q-213 0 -305 71t-92 234v542h-173v251h173v268z" />
    <glyph glyph-name="Hcaron" unicode="&#x21e;" horiz-adv-x="1604" 
d="M1432 0h-345v589h-599v-589h-346v1443h346v-572h599v572h345v-1443zM945 1594h-286l-274 323h271l135 -173h22l135 173h271z" />
    <glyph glyph-name="hcaron" unicode="&#x21f;" horiz-adv-x="1332" 
d="M116 0v1528h327v-602h19q37 95 131.5 150t215.5 55q185 0 289 -109t104 -309v-713h-334v637q0 106 -52.5 162t-147.5 56q-97 0 -157.5 -61.5t-60.5 -161.5v-632h-334zM440 1679h-286l-274 323h271l135 -173h22l135 173h271z" />
    <glyph glyph-name="Adotaccent" unicode="&#x226;" horiz-adv-x="1500" 
d="M1051 0l-97 326h-482l-99 -326h-345l490 1443h419l490 -1443h-376zM706 1127l-165 -547h346l-162 547h-19zM750 1581q-76 0 -123.5 47t-47.5 119q0 73 47.5 120.5t123.5 47.5q75 0 122.5 -47.5t47.5 -120.5q0 -72 -47.5 -119t-122.5 -47z" />
    <glyph glyph-name="adotaccent" unicode="&#x227;" horiz-adv-x="1208" 
d="M534 220q89 0 150 52t61 128v76l-199 -13q-168 -12 -168 -122q0 -56 43 -88.5t113 -32.5zM415 -17q-161 0 -260.5 92t-99.5 244q0 151 113 237t326 98l251 15v88q0 61 -43 94.5t-122 33.5q-148 0 -183 -94h-302q13 159 148.5 251.5t355.5 92.5q227 0 350.5 -99
t123.5 -279v-757h-324v140h-19q-39 -73 -123.5 -115t-191.5 -42zM614 1275q-76 0 -124.5 48t-48.5 121q0 74 48.5 122t124.5 48t124 -48.5t48 -121.5t-48 -121t-124 -48z" />
    <glyph glyph-name="Ecedilla" unicode="&#x228;" horiz-adv-x="1274" 
d="M1132 1161h-632v-305h595v-259h-595v-315h632v-282h-377l-43 -104q92 -7 140.5 -53t48.5 -128q0 -99 -72 -153.5t-203 -54.5q-88 0 -148 17v141q40 -14 114 -14q109 0 109 55q0 29 -28.5 41.5t-94.5 12.5h-61v124l49 116h-412v1443h978v-282z" />
    <glyph glyph-name="ecedilla" unicode="&#x229;" horiz-adv-x="1231" 
d="M395 676h425q-5 101 -60 159t-149 58q-91 0 -150 -59t-66 -158zM1145 479h-751v-17q1 -114 63 -180t167 -66q80 0 133.5 28t73.5 79h306q-27 -139 -137 -229t-279 -112l-35 -86q92 -7 140.5 -53t48.5 -128q0 -99 -72 -153.5t-203 -54.5q-88 0 -148 17v141q40 -14 114 -14
q109 0 109 55q0 29 -28.5 41.5t-94.5 12.5h-61v124l40 95q-223 24 -345 172t-122 397q0 273 146 430t400 157q253 0 394 -148t141 -413v-95z" />
    <glyph glyph-name="Odieresismacron" unicode="&#x22a;" horiz-adv-x="1610" 
d="M799 1481q324 0 514.5 -204t190.5 -555t-190 -555.5t-515 -204.5t-515.5 204t-190.5 556q0 351 191 555t515 204zM799 1191q-160 0 -256.5 -127.5t-96.5 -341.5q0 -215 96 -342.5t257 -127.5q160 0 256 128t96 342t-96 341.5t-256 127.5zM420 2012v178h770v-178h-770z
M559 1581q-73 0 -119.5 44t-46.5 114t46.5 114t119.5 44t119.5 -44t46.5 -114t-46.5 -114t-119.5 -44zM1051 1581q-73 0 -119.5 44t-46.5 114t46.5 114t119.5 44t119.5 -44t46.5 -114t-46.5 -114t-119.5 -44z" />
    <glyph glyph-name="odieresismacron" unicode="&#x22b;" horiz-adv-x="1269" 
d="M406 1257q-69 0 -113 43t-44 108q0 66 44 109.5t113 43.5t112.5 -43t43.5 -110q0 -65 -43.5 -108t-112.5 -43zM862 1257q-69 0 -112.5 43t-43.5 108q0 67 43.5 110t112.5 43t113 -43.5t44 -109.5q0 -65 -44 -108t-113 -43zM1012 1692h-756v192h756v-192zM623 234
q103 0 160 84.5t57 236.5q0 151 -57 236t-160 85t-160 -85t-57 -236q0 -153 57 -237t160 -84zM623 -25q-263 0 -411 153.5t-148 427.5q0 269 150 424t409 155q260 0 410 -154.5t150 -424.5q0 -274 -148 -427.5t-412 -153.5z" />
    <glyph glyph-name="Otildemacron" unicode="&#x22c;" horiz-adv-x="1610" 
d="M1190 2000h-770v190h770v-190zM964 1581q-53 0 -98 18.5t-70.5 40.5t-57.5 40.5t-62 18.5q-79 0 -83 -110h-201q0 139 71 217.5t183 78.5q53 0 98 -18.5t70.5 -41t57.5 -41t62 -18.5q78 0 84 106h200q0 -136 -71 -213.5t-183 -77.5zM799 1481q324 0 514.5 -204
t190.5 -555t-190 -555.5t-515 -204.5t-515.5 204t-190.5 556q0 351 191 555t515 204zM799 1191q-160 0 -256.5 -127.5t-96.5 -341.5q0 -215 96 -342.5t257 -127.5q160 0 256 128t96 342t-96 341.5t-256 127.5z" />
    <glyph glyph-name="otildemacron" unicode="&#x22d;" horiz-adv-x="1269" 
d="M494 1399q-39 0 -61.5 -36t-23.5 -102h-202q0 148 74.5 238.5t196.5 90.5q41 0 77.5 -14.5t62 -35t48 -41.5t44.5 -35.5t43 -14.5q82 0 85 134h203q0 -146 -75 -235.5t-197 -89.5q-50 0 -94 22t-70 48.5t-56 48.5t-55 22zM1012 1693h-756v192h756v-192zM623 234
q103 0 160 84.5t57 236.5q0 151 -57 236t-160 85t-160 -85t-57 -236q0 -153 57 -237t160 -84zM623 -25q-263 0 -411 153.5t-148 427.5q0 269 150 424t409 155q260 0 410 -154.5t150 -424.5q0 -274 -148 -427.5t-412 -153.5z" />
    <glyph glyph-name="Odotaccent" unicode="&#x22e;" horiz-adv-x="1610" 
d="M805 1581q-76 0 -123.5 47t-47.5 119q0 73 47.5 120.5t123.5 47.5q75 0 122.5 -47.5t47.5 -120.5q0 -72 -47.5 -119t-122.5 -47zM799 1481q324 0 514.5 -204t190.5 -555t-190 -555.5t-515 -204.5t-515.5 204t-190.5 556q0 351 191 555t515 204zM799 1191
q-160 0 -256.5 -127.5t-96.5 -341.5q0 -215 96 -342.5t257 -127.5q160 0 256 128t96 342t-96 341.5t-256 127.5z" />
    <glyph glyph-name="odotaccent" unicode="&#x22f;" horiz-adv-x="1269" 
d="M634 1275q-76 0 -124.5 48t-48.5 121q0 74 48.5 122t124.5 48t124 -48.5t48 -121.5t-48 -121t-124 -48zM623 234q103 0 160 84.5t57 236.5q0 151 -57 236t-160 85t-160 -85t-57 -236q0 -153 57 -237t160 -84zM623 -25q-263 0 -411 153.5t-148 427.5q0 269 150 424
t409 155q260 0 410 -154.5t150 -424.5q0 -274 -148 -427.5t-412 -153.5z" />
    <glyph glyph-name="Odotaccentmacron" unicode="&#x230;" horiz-adv-x="1610" 
d="M805 1575q-74 0 -121.5 44.5t-47.5 112.5t47 112t122 44t122 -44t47 -112t-47.5 -112.5t-121.5 -44.5zM1190 2012h-770v178h770v-178zM799 1481q324 0 514.5 -204t190.5 -555t-190 -555.5t-515 -204.5t-515.5 204t-190.5 556q0 351 191 555t515 204zM799 1191
q-160 0 -256.5 -127.5t-96.5 -341.5q0 -215 96 -342.5t257 -127.5q160 0 256 128t96 342t-96 341.5t-256 127.5z" />
    <glyph glyph-name="odotaccentmacron" unicode="&#x231;" horiz-adv-x="1269" 
d="M623 234q103 0 160 84.5t57 236.5q0 151 -57 236t-160 85t-160 -85t-57 -236q0 -153 57 -237t160 -84zM623 -25q-263 0 -411 153.5t-148 427.5q0 269 150 424t409 155q260 0 410 -154.5t150 -424.5q0 -274 -148 -427.5t-412 -153.5zM634 1257q-71 0 -116.5 45t-45.5 111
q0 69 45.5 114t116.5 45t116.5 -45t45.5 -114q0 -66 -45.5 -111t-116.5 -45zM1012 1692h-756v192h756v-192z" />
    <glyph glyph-name="Ymacron" unicode="&#x232;" horiz-adv-x="1452" 
d="M880 0h-346v508l-499 935h371l292 -594h19l291 594h371l-499 -935v-508zM1111 1635h-770v192h770v-192z" />
    <glyph glyph-name="ymacron" unicode="&#x233;" horiz-adv-x="1223" 
d="M253 -405q-116 0 -123 1v257q6 -1 63 -1q172 0 194 106l7 33l-382 1119h369l209 -823h19l209 823h353l-365 -1115q-71 -218 -197.5 -309t-355.5 -91zM997 1323h-756v192h756v-192z" />
    <glyph glyph-name="dotlessj" unicode="&#x237;" horiz-adv-x="587" 
d="M460 1110v-1130q0 -169 -106 -258.5t-306 -89.5q-61 0 -95 4v243q18 -2 41 -2q71 0 102 27t31 87v1119h333z" />
    <glyph glyph-name="circumflex" unicode="&#x2c6;" horiz-adv-x="1099" 
d="M711 1614l272 -357h-286l-138 204h-19l-138 -204h-287l273 357h323z" />
    <glyph glyph-name="caron" unicode="&#x2c7;" horiz-adv-x="1099" 
d="M711 1257h-323l-273 357h287l138 -204h19l138 204h286z" />
    <glyph glyph-name="breve" unicode="&#x2d8;" horiz-adv-x="1048" 
d="M112 1614h226q2 -79 52 -125.5t134 -46.5t134 46.5t52 125.5h226q0 -159 -111.5 -258t-300.5 -99t-300.5 99t-111.5 258z" />
    <glyph glyph-name="dotaccent" unicode="&#x2d9;" horiz-adv-x="1048" 
d="M524 1275q-76 0 -124.5 48t-48.5 121q0 74 48.5 122t124.5 48t124 -48.5t48 -121.5t-48 -121t-124 -48z" />
    <glyph glyph-name="ring" unicode="&#x2da;" horiz-adv-x="1099" 
d="M550 1257q-108 0 -179.5 69t-71.5 174t71 173t180 68q108 0 179 -68t71 -173q0 -106 -71 -174.5t-179 -68.5zM549 1400q44 0 72 28t28 71t-28.5 71t-71.5 28q-43 -1 -71 -29t-28 -70q0 -43 28 -71t71 -28z" />
    <glyph glyph-name="ogonek" unicode="&#x2db;" horiz-adv-x="1048" 
d="M738 -277v-172q-65 -26 -161 -26q-116 0 -185.5 58.5t-69.5 155.5q0 171 192 291l181 -8q-72 -49 -111.5 -104t-39.5 -106q0 -45 31 -71.5t84 -26.5q41 0 79 9z" />
    <glyph glyph-name="tilde" unicode="&#x2dc;" horiz-adv-x="1098" 
d="M419 1409q-39 0 -61.5 -36t-23.5 -102h-202q0 148 74.5 238.5t196.5 90.5q41 0 77.5 -14.5t62 -35t48 -41.5t44.5 -35.5t43 -14.5q82 0 85 134h203q0 -146 -75 -235.5t-197 -89.5q-50 0 -94 22t-70 48.5t-56 48.5t-55 22z" />
    <glyph glyph-name="hungarumlaut" unicode="&#x2dd;" horiz-adv-x="1048" 
d="M509 1286l198 356h276l-228 -356h-246zM60 1286l198 356h276l-228 -356h-246z" />
    <glyph glyph-name="gravecmb" unicode="&#x300;" 
d="M171 1286h-297l-290 356h341z" />
    <glyph glyph-name="acutecmb" unicode="&#x301;" 
d="M-171 1286l246 356h341l-290 -356h-297z" />
    <glyph glyph-name="circumflexcmb" unicode="&#x302;" 
d="M161 1614l272 -357h-286l-138 204h-19l-138 -204h-287l273 357h323z" />
    <glyph glyph-name="tildecmb" unicode="&#x303;" 
d="M-124 1399q-39 0 -61.5 -36t-23.5 -102h-202q0 148 74.5 238.5t196.5 90.5q41 0 77.5 -14.5t62 -35t48 -41.5t44.5 -35.5t43 -14.5q82 0 85 134h203q0 -146 -75 -235.5t-197 -89.5q-50 0 -94 22t-70 48.5t-56 48.5t-55 22z" />
    <glyph glyph-name="macroncmb" unicode="&#x304;" 
d="M378 1323h-756v192h756v-192z" />
    <glyph glyph-name="brevecmb" unicode="&#x306;" 
d="M-413 1614h226q2 -79 52 -125.5t134 -46.5t134 46.5t52 125.5h226q0 -159 -111.5 -258t-300.5 -99t-300.5 99t-111.5 258z" />
    <glyph glyph-name="dotaccentcmb" unicode="&#x307;" 
d="M-173 1275q-76 0 -124.5 48t-48.5 121q0 74 48 122t125 48q76 0 124 -48.5t48 -121.5t-48 -121t-124 -48z" />
    <glyph glyph-name="dieresiscmb" unicode="&#x308;" 
d="M-260 1257q-74 0 -121 44.5t-47 114.5q0 71 47 115.5t121 44.5q73 0 120 -45t47 -115t-47 -114.5t-120 -44.5zM231 1257q-74 0 -121 44.5t-47 114.5t47 115t121 45t121 -45t47 -115t-47 -114.5t-121 -44.5z" />
    <glyph glyph-name="hookabovecmb" unicode="&#x309;" 
d="M-191 1508v164q78 26 165 26q114 0 187 -60t73 -159q0 -87 -54 -153t-153 -105l-100 120q49 19 78 47t29 59q0 36 -30.5 58t-82.5 22q-67 0 -112 -19z" />
    <glyph glyph-name="ringcmb" unicode="&#x30a;" 
d="M-251 1257q-108 0 -179.5 69t-71.5 174t71 173t180 68q108 0 179 -68t71 -173q0 -106 -71 -174.5t-179 -68.5zM-252 1400q44 0 72 28t28 71t-28.5 71t-71.5 28q-43 -1 -71 -29t-28 -70q0 -43 28 -71t71 -28z" />
    <glyph glyph-name="hungarumlautcmb" unicode="&#x30b;" 
d="M82 1286l198 356h276l-228 -356h-246zM-367 1286l198 356h276l-228 -356h-246z" />
    <glyph glyph-name="caroncmb" unicode="&#x30c;" 
d="M161 1257h-323l-273 357h287l138 -204h19l138 204h286z" />
    <glyph glyph-name="dblgravecmb" unicode="&#x30f;" 
d="M-87 1286h-247l-227 356h276zM362 1286h-247l-227 356h276z" />
    <glyph glyph-name="invertedbrevecmb" unicode="&#x311;" 
d="M-412 1257q0 159 111.5 258t300.5 99t300.5 -99t111.5 -258h-226q-2 79 -52 125.5t-134 46.5t-134 -46.5t-52 -125.5h-226z" />
    <glyph glyph-name="horncmb" unicode="&#x31b;" 
d="M0 895v225q32 -16 61 -13q36 3 52 29.5t16 81.5v158h257v-217q0 -133 -68.5 -210.5t-184.5 -77.5q-90 0 -133 24z" />
    <glyph glyph-name="dotbelowcmb" unicode="&#x323;" 
d="M-169 -423q-77 0 -123 40t-46 104t46 104t123 40t123 -40t46 -104t-46 -104t-123 -40z" />
    <glyph glyph-name="dieresisbelowcmb" unicode="&#x324;" 
d="M-245 -432q-77 0 -123 40t-46 104t46 104t123 40q78 0 123.5 -40t45.5 -104t-45.5 -104t-123.5 -40zM245 -432q-78 0 -123.5 40t-45.5 104t45.5 104t123.5 40q77 0 123 -40t46 -104t-46 -104t-123 -40z" />
    <glyph glyph-name="ringbelowcmb" unicode="&#x325;" 
d="M-251 -569q-108 0 -179.5 69t-71.5 174t71 173t180 68q108 0 179 -68t71 -173q0 -106 -71 -174.5t-179 -68.5zM-252 -426q44 0 72 28t28 71t-28.5 71t-71.5 28q-43 -1 -71 -29t-28 -70q0 -43 28 -71t71 -28z" />
    <glyph glyph-name="commabelowcmb" unicode="&#x326;" 
d="M-9 -507h-291l143 352h332z" />
    <glyph glyph-name="cedillacmb" unicode="&#x327;" 
d="M-135 -240v124l52 124h189l-46 -112q92 -7 140.5 -53t48.5 -128q0 -99 -72 -153.5t-203 -54.5q-88 0 -148 17v141q40 -14 114 -14q109 0 109 55q0 29 -28.5 41.5t-94.5 12.5h-61z" />
    <glyph glyph-name="ogonekcmb" unicode="&#x328;" 
d="M159 -280v-172q-65 -26 -161 -26q-116 0 -185.5 58.5t-69.5 155.5q0 171 192 291l181 -8q-72 -49 -111.5 -104t-39.5 -106q0 -45 31 -71.5t84 -26.5q41 0 79 9z" />
    <glyph glyph-name="circumflexbelowcmb" unicode="&#x32d;" 
d="M172 -154l281 -278h-314l-130 148h-18l-130 -148h-314l281 278h344z" />
    <glyph glyph-name="brevebelowcmb" unicode="&#x32e;" 
d="M-412 -107h229q0 -68 49 -109.5t134 -41.5t134 41.5t49 109.5h229q0 -140 -110.5 -232.5t-301.5 -92.5t-301.5 92.5t-110.5 232.5z" />
    <glyph glyph-name="tildebelowcmb" unicode="&#x330;" 
d="M162 -429q-54 0 -100 19.5t-72 42.5t-59.5 42.5t-64.5 19.5q-82 0 -83 -109h-199q0 142 70 219t184 77q55 0 102.5 -19.5t74 -42.5t58.5 -42.5t62 -19.5q79 0 82 104h199q0 -139 -70.5 -215t-183.5 -76z" />
    <glyph glyph-name="macronbelowcmb" unicode="&#x331;" 
d="M385 -415h-770v192h770v-192z" />
    <glyph glyph-name="greekquestionmark" unicode="&#x37e;" horiz-adv-x="712" 
d="M374 -394h-264l73 653h319zM337 699q-89 0 -141.5 51t-52.5 133q0 83 52.5 134t141.5 51t141.5 -51t52.5 -134q0 -82 -52.5 -133t-141.5 -51z" />
    <glyph glyph-name="tonosgreek" unicode="&#x384;" horiz-adv-x="929" 
d="M254 1268l81 388h333l-149 -388h-265z" />
    <glyph glyph-name="dieresistonosgreek" unicode="&#x385;" horiz-adv-x="1446" 
d="M327 1268q-67 0 -110.5 41t-43.5 105t43 105.5t111 41.5q67 0 110.5 -41.5t43.5 -105.5t-43.5 -105t-110.5 -41zM1119 1268q-67 0 -110.5 41t-43.5 105t43 105.5t111 41.5t111 -41.5t43 -105.5t-43.5 -105t-110.5 -41zM577 1268l21 388h303l-86 -388h-238z" />
    <glyph glyph-name="Alphatonosgreek" unicode="&#x386;" horiz-adv-x="1562" 
d="M1102 0l-97 326h-482l-99 -326h-345l490 1443h419l490 -1443h-376zM757 1127l-165 -547h346l-162 547h-19zM25 1055l81 388h333l-149 -388h-265z" />
    <glyph glyph-name="anoteleia" unicode="&#x387;" horiz-adv-x="723" 
d="M362 744q-92 0 -145 52t-53 137q0 84 53 136t145 52q91 0 144 -52t53 -136q0 -85 -53 -137t-144 -52z" />
    <glyph glyph-name="Epsilontonosgreek" unicode="&#x388;" horiz-adv-x="1731" 
d="M42 1055l81 388h333l-149 -388h-265zM1591 282v-282h-978v1443h978v-282h-632v-305h595v-259h-595v-315h632z" />
    <glyph glyph-name="Etatonosgreek" unicode="&#x389;" horiz-adv-x="2062" 
d="M36 1055l81 388h333l-149 -388h-265zM1885 0h-345v589h-599v-589h-346v1443h346v-572h599v572h345v-1443z" />
    <glyph glyph-name="Iotatonosgreek" unicode="&#x38a;" horiz-adv-x="1110" 
d="M930 0h-346v1443h346v-1443zM33 1055l81 388h333l-149 -388h-265z" />
    <glyph glyph-name="Omicrontonosgreek" unicode="&#x38c;" horiz-adv-x="1948" 
d="M1142 1481q324 0 514.5 -204t190.5 -555t-190 -555.5t-515 -204.5t-515.5 204t-190.5 556q0 351 191 555t515 204zM1142 1191q-160 0 -256.5 -127.5t-96.5 -341.5q0 -215 96 -342.5t257 -127.5q160 0 256 128t96 342t-96 341.5t-256 127.5zM43 1055l81 388h333l-149 -388
h-265z" />
    <glyph glyph-name="Upsilontonosgreek" unicode="&#x38e;" horiz-adv-x="1909" 
d="M32 1055l81 388h333l-149 -388h-265zM1329 0h-346v508l-499 935h371l292 -594h19l291 594h371l-499 -935v-508z" />
    <glyph glyph-name="Omegatonosgreek" unicode="&#x38f;" horiz-adv-x="1954" 
d="M425 0v268h271v19q-126 74 -198.5 215t-72.5 312q0 195 89.5 347t252 236t370.5 84t370.5 -84t252.5 -236t90 -347q0 -171 -72.5 -312t-199.5 -215v-19h272v-268h-596v342q127 73 188 181.5t61 261.5q0 187 -99 296.5t-267 109.5t-267 -110t-99 -296q0 -153 61 -261.5
t188 -181.5v-342h-595zM44 1055l81 388h333l-149 -388h-265z" />
    <glyph glyph-name="iotadieresistonosgreek" unicode="&#x390;" horiz-adv-x="719" 
d="M496 -2q-214 0 -307 70.5t-93 234.5v807h333v-731q0 -131 141 -131q53 0 96 5v-242q-60 -13 -170 -13zM-117 1268q-67 0 -110.5 41t-43.5 105t43 105.5t111 41.5q67 0 110.5 -41.5t43.5 -105.5t-43.5 -105t-110.5 -41zM675 1268q-67 0 -110.5 41t-43.5 105t43 105.5
t111 41.5t111 -41.5t43 -105.5t-43.5 -105t-110.5 -41zM133 1268l21 388h303l-86 -388h-238z" />
    <glyph glyph-name="Alphagreek" unicode="&#x391;" horiz-adv-x="1500" 
d="M1051 0l-97 326h-482l-99 -326h-345l490 1443h419l490 -1443h-376zM706 1127l-165 -547h346l-162 547h-19z" />
    <glyph glyph-name="Betagreek" unicode="&#x392;" horiz-adv-x="1420" 
d="M824 0h-678v1443h659q214 0 334 -95.5t120 -264.5q0 -115 -76 -203t-190 -105v-18q143 -9 238.5 -106.5t95.5 -235.5q0 -190 -136 -302.5t-367 -112.5zM492 1194v-343h204q107 0 166 45t59 126t-54.5 126.5t-152.5 45.5h-222zM492 249h237q119 0 182.5 50.5t63.5 145.5
q0 92 -65 141t-185 49h-233v-386z" />
    <glyph glyph-name="Gammagreek" unicode="&#x393;" horiz-adv-x="1199" 
d="M162 0v1443h950v-282h-604v-1161h-346z" />
    <glyph glyph-name="Deltagreek" unicode="&#x394;" horiz-adv-x="1506" 
d="M97 0v189l447 1254h419l446 -1254v-189h-1312zM454 282h569v19l-273 836h-18l-278 -836v-19z" />
    <glyph glyph-name="Epsilongreek" unicode="&#x395;" horiz-adv-x="1274" 
d="M1132 282v-282h-978v1443h978v-282h-632v-305h595v-259h-595v-315h632z" />
    <glyph glyph-name="Zetagreek" unicode="&#x396;" horiz-adv-x="1384" 
d="M122 0v223l692 919v19h-680v282h1097v-223l-691 -919v-19h712v-282h-1130z" />
    <glyph glyph-name="Etagreek" unicode="&#x397;" horiz-adv-x="1604" 
d="M1432 0h-345v589h-599v-589h-346v1443h346v-572h599v572h345v-1443z" />
    <glyph glyph-name="Thetagreek" unicode="&#x398;" horiz-adv-x="1690" 
d="M605 579v275h478v-275h-478zM846 247q181 0 284 125t103 350q0 224 -103.5 349t-283.5 125q-181 0 -284.5 -125t-103.5 -349q0 -225 103 -350t285 -125zM846 -38q-349 0 -546.5 201t-197.5 559q0 361 196.5 560t547.5 199t546.5 -198.5t195.5 -560.5q0 -358 -197 -559
t-545 -201z" />
    <glyph glyph-name="Iotagreek" unicode="&#x399;" horiz-adv-x="652" 
d="M480 0h-346v1443h346v-1443z" />
    <glyph glyph-name="Kappagreek" unicode="&#x39a;" horiz-adv-x="1453" 
d="M482 0h-346v1443h346v-628h18l498 628h375l-508 -635l540 -808h-410l-381 581l-132 -164v-417z" />
    <glyph glyph-name="Lambdagreek" unicode="&#x39b;" horiz-adv-x="1474" 
d="M58 0l470 1443h418l470 -1443h-376l-306 1117h-19l-312 -1117h-345z" />
    <glyph glyph-name="Mugreek" unicode="&#x39c;" horiz-adv-x="1879" 
d="M460 0h-320v1443h408l365 -912h19l366 912h408v-1443h-320v930h-18l-336 -829h-218l-336 829h-18v-930z" />
    <glyph glyph-name="Nugreek" unicode="&#x39d;" horiz-adv-x="1573" 
d="M481 0h-329v1443h279l622 -842h18v842h329v-1443h-277l-624 849h-18v-849z" />
    <glyph glyph-name="Xigreek" unicode="&#x39e;" horiz-adv-x="1373" 
d="M138 0v291h1097v-291h-1097zM225 591v268h923v-268h-923zM138 1152v291h1097v-291h-1097z" />
    <glyph glyph-name="Omicrongreek" unicode="&#x39f;" horiz-adv-x="1630" 
d="M810 1481q324 0 514.5 -204t190.5 -555t-190 -555.5t-515 -204.5t-515.5 204t-190.5 556q0 351 191 555t515 204zM810 1191q-160 0 -256.5 -127.5t-96.5 -341.5q0 -215 96 -342.5t257 -127.5q160 0 256 128t96 342t-96 341.5t-256 127.5z" />
    <glyph glyph-name="Pigreek" unicode="&#x3a0;" horiz-adv-x="1584" 
d="M157 0v1443h1270v-1443h-345v1161h-579v-1161h-346z" />
    <glyph glyph-name="Rhogreek" unicode="&#x3a1;" horiz-adv-x="1380" 
d="M144 1443h622q230 0 371.5 -139t141.5 -369q0 -226 -147.5 -364.5t-385.5 -138.5h-256v-432h-346v1443zM490 1173v-475h182q123 0 190 61t67 176q0 116 -66.5 177t-188.5 61h-184z" />
    <glyph glyph-name="Sigmagreek" unicode="&#x3a3;" horiz-adv-x="1364" 
d="M128 0v206l369 517l-347 476v244h1067v-282h-630v-19l275 -390v-38l-299 -413v-19h679v-282h-1114z" />
    <glyph glyph-name="Taugreek" unicode="&#x3a4;" horiz-adv-x="1352" 
d="M839 0h-346v1161h-422v282h1189v-282h-421v-1161z" />
    <glyph glyph-name="Upsilongreek" unicode="&#x3a5;" horiz-adv-x="1452" 
d="M880 0h-346v508l-499 935h371l292 -594h19l291 594h371l-499 -935v-508z" />
    <glyph glyph-name="Phigreek" unicode="&#x3a6;" horiz-adv-x="1884" 
d="M786 -124v154q-208 10 -368.5 98t-250 239.5t-89.5 344.5q0 292 196.5 479.5t511.5 203.5v154h312v-154q316 -16 512.5 -203.5t196.5 -479.5q0 -193 -89.5 -344.5t-250.5 -239.5t-369 -98v-154h-312zM786 298v829q-174 -18 -272.5 -125t-98.5 -290q0 -182 98.5 -289.5
t272.5 -124.5zM1098 298q175 17 273.5 124.5t98.5 289.5q0 183 -98.5 290.5t-273.5 124.5v-829z" />
    <glyph glyph-name="Chigreek" unicode="&#x3a7;" horiz-adv-x="1494" 
d="M49 0l449 727l-447 716h405l272 -487h18l276 487h385l-465 -719l460 -724h-391l-285 468h-19l-288 -468h-370z" />
    <glyph glyph-name="Psigreek" unicode="&#x3a8;" horiz-adv-x="1779" 
d="M726 0v298q-282 6 -443.5 168t-161.5 439v538h325v-544q0 -300 280 -326v870h326v-870q280 26 280 326v544h325v-538q0 -277 -161.5 -439t-443.5 -168v-298h-326z" />
    <glyph glyph-name="Omegagreek" unicode="&#x3a9;" horiz-adv-x="1636" 
d="M106 0v268h271v19q-126 74 -198.5 215t-72.5 312q0 195 89.5 347t252 236t370.5 84t370.5 -84t252.5 -236t90 -347q0 -171 -72.5 -312t-199.5 -215v-19h272v-268h-596v342q127 73 188 181.5t61 261.5q0 187 -99 296.5t-267 109.5t-267 -110t-99 -296q0 -153 61 -261.5
t188 -181.5v-342h-595z" />
    <glyph glyph-name="Iotadieresisgreek" unicode="&#x3aa;" horiz-adv-x="652" 
d="M461 0h-346v1443h346v-1443zM47 1581q-74 0 -121 44.5t-47 114.5q0 71 47 115.5t121 44.5q73 0 120 -45t47 -115t-47 -114.5t-120 -44.5zM538 1581q-74 0 -121 44.5t-47 114.5t47 115t121 45t121 -45t47 -115t-47 -114.5t-121 -44.5z" />
    <glyph glyph-name="Upsilondieresisgreek" unicode="&#x3ab;" horiz-adv-x="1452" 
d="M861 0h-346v508l-499 935h371l292 -594h19l291 594h371l-499 -935v-508zM447 1581q-74 0 -121 44.5t-47 114.5q0 71 47 115.5t121 44.5q73 0 120 -45t47 -115t-47 -114.5t-120 -44.5zM938 1581q-74 0 -121 44.5t-47 114.5t47 115t121 45t121 -45t47 -115t-47 -114.5
t-121 -44.5z" />
    <glyph glyph-name="alphatonosgreek" unicode="&#x3ac;" horiz-adv-x="1386" 
d="M497 -17q-216 0 -337 151.5t-121 422.5q0 266 120 418t329 152q116 0 198 -56t122 -163h19v202h332v-748q0 -70 20 -96t75 -26q32 0 55 9v-240q-57 -19 -164 -19q-121 0 -192 41.5t-99 128.5l-12 30h-18q-33 -94 -122 -150.5t-205 -56.5zM595 249q103 0 164 82.5
t61 222.5q0 139 -59.5 223t-158.5 84q-102 0 -161 -82.5t-59 -223.5t57.5 -223.5t155.5 -82.5zM480 1268l81 388h333l-149 -388h-265z" />
    <glyph glyph-name="epsilontonosgreek" unicode="&#x3ad;" horiz-adv-x="1216" 
d="M478 1268l81 388h333l-149 -388h-265zM570 -26q-242 0 -383 87t-141 238q0 92 50.5 158.5t142.5 97.5v19q-88 35 -128.5 91t-40.5 141q0 150 139.5 239t371.5 89q246 0 387 -95.5t165 -279.5h-326q-35 125 -220 125q-86 0 -137.5 -30t-51.5 -81q0 -98 186 -98h143v-233
h-142q-94 0 -145.5 -27.5t-51.5 -78.5q0 -53 50.5 -82.5t138.5 -29.5q200 0 243 149h342q-23 -179 -187 -289t-405 -110z" />
    <glyph glyph-name="etatonosgreek" unicode="&#x3ae;" horiz-adv-x="1397" 
d="M201 0v748q0 63 -24 92t-76 29q-30 0 -57 -8v240q64 19 160 19q132 0 204 -45.5t104 -149.5l5 -17h19q37 106 130.5 166.5t219.5 60.5q184 0 284.5 -110t100.5 -312v-1054h-334v978q0 109 -49.5 165.5t-145.5 56.5q-93 0 -150 -62.5t-57 -164.5v-632h-334zM526 1268
l81 388h333l-149 -388h-265z" />
    <glyph glyph-name="iotatonosgreek" unicode="&#x3af;" horiz-adv-x="719" 
d="M496 -2q-214 0 -307 70.5t-93 234.5v807h333v-731q0 -131 141 -131q53 0 96 5v-242q-60 -13 -170 -13zM142 1268l81 388h333l-149 -388h-265z" />
    <glyph glyph-name="upsilondieresistonosgreek" unicode="&#x3b0;" horiz-adv-x="1232" 
d="M177 1268q-67 0 -110.5 41t-43.5 105t43 105.5t111 41.5q67 0 110.5 -41.5t43.5 -105.5t-43.5 -105t-110.5 -41zM969 1268q-67 0 -110.5 41t-43.5 105t43 105.5t111 41.5t111 -41.5t43 -105.5t-43.5 -105t-110.5 -41zM427 1268l21 388h303l-86 -388h-238zM584 -25
q-490 0 -490 482v653h314v-608q0 -131 44.5 -190.5t143.5 -59.5q102 0 156 85t54 237q0 287 -100 536h322q48 -97 75 -236.5t27 -294.5q0 -294 -144 -449t-402 -155z" />
    <glyph glyph-name="alphagreek" unicode="&#x3b1;" horiz-adv-x="1386" 
d="M517 -17q-216 0 -337 151.5t-121 422.5q0 266 120 418t329 152q116 0 198 -56t122 -163h19v202h332v-748q0 -70 20 -96t75 -26q32 0 55 9v-240q-57 -19 -164 -19q-121 0 -192 41.5t-99 128.5l-12 30h-18q-33 -94 -122 -150.5t-205 -56.5zM615 249q103 0 164 82.5
t61 222.5q0 139 -59.5 223t-158.5 84q-102 0 -161 -82.5t-59 -223.5t57.5 -223.5t155.5 -82.5z" />
    <glyph glyph-name="betagreek" unicode="&#x3b2;" horiz-adv-x="1329" 
d="M121 -341v1332q0 278 135 420t400 142q229 0 359.5 -106t130.5 -293q0 -103 -54 -187t-145 -123v-19q313 -74 313 -405q0 -200 -122.5 -318.5t-328.5 -118.5q-117 0 -208 51t-127 136h-19v-511h-334zM703 249q97 0 156 57.5t59 152.5q0 112 -69 170t-201 58h-73v240h68
q94 0 148.5 48.5t54.5 132.5q0 87 -49.5 136.5t-136.5 49.5q-101 0 -153.5 -62t-52.5 -183v-500q0 -148 63 -224t186 -76z" />
    <glyph glyph-name="gammagreek" unicode="&#x3b3;" horiz-adv-x="1222" 
d="M412 -338v265l-402 1183h347l241 -817h18q104 170 152.5 311.5t48.5 301.5q0 131 -18 204h323q19 -73 19 -203q0 -220 -99.5 -448t-302.5 -499v-298h-327z" />
    <glyph glyph-name="deltagreek" unicode="&#x3b4;" horiz-adv-x="1231" 
d="M604 -25q-255 0 -401.5 138.5t-146.5 382.5q0 180 102 309.5t273 169.5v20q-190 90 -190 266q0 137 113 214.5t312 77.5q238 0 400 -82v-237q-181 81 -348 81q-59 0 -91.5 -21.5t-32.5 -59.5q0 -36 29.5 -62.5t105.5 -66.5q237 -136 337.5 -271.5t100.5 -332.5
q0 -234 -151.5 -380t-411.5 -146zM607 210q100 0 156.5 78t56.5 216q0 136 -58.5 216.5t-156.5 80.5q-96 0 -154 -81t-58 -216q0 -137 57 -215.5t157 -78.5z" />
    <glyph glyph-name="epsilongreek" unicode="&#x3b5;" horiz-adv-x="1216" 
d="M593 -25q-242 0 -383 87t-141 238q0 92 50.5 158.5t142.5 97.5v19q-88 35 -128.5 91t-40.5 141q0 150 139.5 239t371.5 89q246 0 387 -95.5t165 -279.5h-326q-35 125 -220 125q-86 0 -137.5 -30t-51.5 -81q0 -98 186 -98h143v-233h-142q-94 0 -145.5 -27.5t-51.5 -78.5
q0 -53 50.5 -82.5t138.5 -29.5q200 0 243 149h342q-23 -179 -187 -289t-405 -110z" />
    <glyph glyph-name="zetagreek" unicode="&#x3b6;" horiz-adv-x="1023" 
d="M876 -404l-244 97q79 114 79 191q0 57 -37.5 88.5t-155.5 71.5q-255 89 -353.5 198.5t-98.5 309.5q0 322 430 689v19h-351v268h860v-211q-296 -211 -450 -388.5t-154 -335.5q0 -105 54.5 -159t219.5 -113q206 -75 277 -148.5t71 -210.5q0 -167 -147 -366z" />
    <glyph glyph-name="etagreek" unicode="&#x3b7;" horiz-adv-x="1397" 
d="M222 0v748q0 63 -24 92t-76 29q-30 0 -57 -8v240q64 19 160 19q132 0 204 -45.5t104 -149.5l5 -17h19q37 106 130.5 166.5t219.5 60.5q184 0 284.5 -110t100.5 -312v-1054h-334v978q0 109 -49.5 165.5t-145.5 56.5q-93 0 -150 -62.5t-57 -164.5v-632h-334z" />
    <glyph glyph-name="thetagreek" unicode="&#x3b8;" horiz-adv-x="1283" 
d="M642 -25q-280 0 -424 201t-144 594q0 383 146 583t422 200t421.5 -199.5t145.5 -584.5q0 -391 -144.5 -592.5t-422.5 -201.5zM642 216q115 0 173 102.5t61 321.5h-469q3 -219 61.5 -321.5t173.5 -102.5zM408 895h468q-4 214 -63 316t-171 102q-227 0 -234 -418z" />
    <glyph glyph-name="iotagreek" unicode="&#x3b9;" horiz-adv-x="719" 
d="M511 -2q-214 0 -307 70.5t-93 234.5v807h333v-731q0 -131 141 -131q53 0 96 5v-242q-60 -13 -170 -13z" />
    <glyph glyph-name="kappagreek" unicode="&#x3ba;" horiz-adv-x="1284" 
d="M117 0v1110h327v-466h19l250 288q92 106 163 147t164 41q80 0 140 -19v-240q-26 8 -67 8q-47 0 -80.5 -19.5t-81.5 -73.5l-138 -152l405 -624h-349l-273 423l-152 -164v-259h-327z" />
    <glyph glyph-name="lambdagreek" unicode="&#x3bb;" horiz-adv-x="1272" 
d="M14 0l460 1044l-31 82q-40 107 -81 142t-131 35q-27 0 -68 -9v240q74 19 148 19q87 0 145 -17.5t108 -68t89 -127t88 -208.5l288 -774q26 -70 56.5 -94t92.5 -24q20 0 56 9v-240q-57 -19 -162 -19q-128 0 -197 48t-111 166l-154 429h-18l-250 -633h-328z" />
    <glyph glyph-name="mugreek" unicode="&#x3bc;" horiz-adv-x="1407" 
d="M116 -341v1451h334v-643q0 -102 52 -158t147 -56t153 60.5t58 158.5v638h333v-748q0 -70 20.5 -96t74.5 -26q23 0 56 9v-240q-68 -20 -150 -20q-123 0 -190.5 45t-95.5 147l-4 15h-20q-55 -221 -268 -221q-111 0 -147 65h-19v-381h-334z" />
    <glyph glyph-name="nugreek" unicode="&#x3bd;" horiz-adv-x="1222" 
d="M769 0h-381l-378 1110h347l241 -817h18q104 171 152.5 311.5t48.5 301.5q0 127 -18 204h323q19 -75 19 -202q0 -215 -90.5 -427t-281.5 -481z" />
    <glyph glyph-name="xigreek" unicode="&#x3be;" horiz-adv-x="1058" 
d="M883 -402l-244 97q79 119 79 191q0 58 -38.5 89t-172.5 78q-245 87 -340 172.5t-95 219.5q0 116 64.5 192.5t189.5 108.5v19q-191 79 -191 243q0 90 52.5 151t147.5 83v18h-196v268h854v-228l-139 -18q-226 -28 -310.5 -72t-84.5 -134q0 -138 251 -138h204v-254h-222
q-284 0 -284 -166q0 -35 6.5 -54t39 -42t82.5 -44t155 -59q200 -74 269.5 -146t69.5 -204q0 -174 -147 -371z" />
    <glyph glyph-name="omicrongreek" unicode="&#x3bf;" horiz-adv-x="1254" 
d="M627 -25q-260 0 -409 153t-149 428q0 270 151 424.5t407 154.5q258 0 408 -154t150 -425q0 -276 -148.5 -428.5t-409.5 -152.5zM627 234q102 0 159 84t57 237q0 151 -58 236t-158 85t-157.5 -85t-57.5 -236q0 -153 56.5 -237t158.5 -84z" />
    <glyph glyph-name="pigreek" unicode="&#x3c0;" horiz-adv-x="1528" 
d="M274 0v842h-209v268h1378v-268h-233v-482q0 -70 22 -95t83 -25q29 0 61 9v-240q-63 -19 -161 -19q-185 0 -254.5 67t-69.5 241v544h-298v-842h-319z" />
    <glyph glyph-name="rhogreek" unicode="&#x3c1;" horiz-adv-x="1287" 
d="M93 -341v876q0 282 152 441t413 159q275 0 417.5 -156t142.5 -419q0 -272 -122.5 -424.5t-334.5 -152.5q-116 0 -196 48.5t-120 138.5h-19v-511h-333zM647 249q109 0 168.5 81.5t59.5 233.5q0 154 -59.5 233t-167.5 79q-107 0 -166 -83.5t-59 -239.5q0 -142 61 -223
t163 -81z" />
    <glyph glyph-name="sigmafinalgreek" unicode="&#x3c2;" horiz-adv-x="1171" 
d="M883 -401l-245 97q80 111 80 189q0 58 -38.5 90t-155.5 71q-252 87 -352 208.5t-100 336.5q0 251 149.5 397.5t401.5 146.5q224 0 355.5 -112.5t148.5 -317.5h-308q-13 83 -62.5 126t-130.5 43q-102 0 -160 -68.5t-58 -193.5q0 -81 22 -128t79.5 -84t175.5 -79
q203 -74 274 -147t71 -210q0 -170 -147 -365z" />
    <glyph glyph-name="sigmagreek" unicode="&#x3c3;" horiz-adv-x="1403" 
d="M614 -25q-255 0 -402.5 148t-147.5 405q0 262 162.5 422t428.5 160h676v-268h-258v-19q45 -50 71 -129.5t26 -171.5q0 -250 -151 -398.5t-405 -148.5zM622 228q100 0 158 85t58 232q0 136 -58.5 214.5t-157.5 78.5q-98 0 -156.5 -79t-58.5 -214q0 -147 58 -232t157 -85z
" />
    <glyph glyph-name="taugreek" unicode="&#x3c4;" horiz-adv-x="1168" 
d="M758 -2q-213 0 -306 71t-93 234v539h-322v268h1050v-268h-394v-463q0 -131 140 -131q67 0 100 5v-242q-56 -13 -175 -13z" />
    <glyph glyph-name="upsilongreek" unicode="&#x3c5;" horiz-adv-x="1232" 
d="M596 -25q-490 0 -490 482v653h314v-608q0 -131 44.5 -190.5t143.5 -59.5q102 0 156 85t54 237q0 287 -100 536h322q48 -97 75 -236.5t27 -294.5q0 -294 -144 -449t-402 -155z" />
    <glyph glyph-name="phigreek" unicode="&#x3c6;" horiz-adv-x="1627" 
d="M663 -341v315q-175 7 -311.5 75.5t-216.5 199.5t-80 307q0 175 80.5 306.5t216.5 200t311 75.5v259h302v-259q174 -7 310.5 -75.5t217 -200t80.5 -306.5q0 -176 -80.5 -307t-216.5 -199.5t-311 -75.5v-315h-302zM669 226v659q-139 -9 -217.5 -93.5t-78.5 -235.5
q0 -152 78.5 -236.5t217.5 -93.5zM958 226q139 9 217.5 93.5t78.5 236.5q0 151 -78.5 235.5t-217.5 93.5v-659z" />
    <glyph glyph-name="chigreek" unicode="&#x3c7;" horiz-adv-x="1253" 
d="M59 -341l401 707l-206 385q-39 74 -72.5 96t-87.5 22q-35 0 -61 -8v240q64 18 149 18q124 0 194.5 -43t127.5 -151l140 -266h19l235 447h330l-424 -745l185 -346q34 -65 68.5 -90t90.5 -25q36 0 61 9v-241q-63 -19 -161 -19q-116 0 -182 39t-118 136l-130 246h-19
l-210 -411h-330z" />
    <glyph glyph-name="psigreek" unicode="&#x3c8;" horiz-adv-x="1617" 
d="M641 -341v316q-265 0 -407 125t-142 359v651h314v-576q0 -160 51.5 -220.5t183.5 -60.5v1144h316v-1142q124 0 192 85t68 237q0 285 -100 533h322q48 -95 75 -232t27 -286q0 -297 -151.5 -457t-432.5 -160v-316h-316z" />
    <glyph glyph-name="omegagreek" unicode="&#x3c9;" horiz-adv-x="1677" 
d="M502 -25q-205 0 -313.5 139t-108.5 401q0 173 45.5 327.5t128.5 267.5h330q-94 -144 -138 -288t-44 -306q0 -135 36.5 -199.5t112.5 -64.5q65 0 101 46.5t36 131.5v363h300v-363q0 -85 36 -131.5t101 -46.5q77 0 113 64t36 200q0 316 -181 594h330q83 -113 128.5 -267.5
t45.5 -327.5q0 -262 -108.5 -401t-314.5 -139q-116 0 -194.5 54t-131.5 170h-19q-53 -116 -132 -170t-195 -54z" />
    <glyph glyph-name="iotadieresisgreek" unicode="&#x3ca;" horiz-adv-x="719" 
d="M496 -2q-214 0 -307 70.5t-93 234.5v807h333v-731q0 -131 141 -131q53 0 96 5v-242q-60 -13 -170 -13zM13 1257q-74 0 -121 44.5t-47 114.5q0 71 47 115.5t121 44.5q73 0 120 -45t47 -115t-47 -114.5t-120 -44.5zM504 1257q-74 0 -121 44.5t-47 114.5t47 115t121 45
t121 -45t47 -115t-47 -114.5t-121 -44.5z" />
    <glyph glyph-name="upsilondieresisgreek" unicode="&#x3cb;" horiz-adv-x="1232" 
d="M317 1257q-74 0 -121 44.5t-47 114.5q0 71 47 115.5t121 44.5q73 0 120 -45t47 -115t-47 -114.5t-120 -44.5zM808 1257q-74 0 -121 44.5t-47 114.5t47 115t121 45t121 -45t47 -115t-47 -114.5t-121 -44.5zM584 -25q-490 0 -490 482v653h314v-608q0 -131 44.5 -190.5
t143.5 -59.5q102 0 156 85t54 237q0 287 -100 536h322q48 -97 75 -236.5t27 -294.5q0 -294 -144 -449t-402 -155z" />
    <glyph glyph-name="omicrontonosgreek" unicode="&#x3cc;" horiz-adv-x="1254" 
d="M614 -25q-260 0 -409 153t-149 428q0 270 151 424.5t407 154.5q258 0 408 -154t150 -425q0 -276 -148.5 -428.5t-409.5 -152.5zM614 234q102 0 159 84t57 237q0 151 -58 236t-158 85t-157.5 -85t-57.5 -236q0 -153 56.5 -237t158.5 -84zM482 1268l81 388h333l-149 -388
h-265z" />
    <glyph glyph-name="upsilontonosgreek" unicode="&#x3cd;" horiz-adv-x="1232" 
d="M430 1268l81 388h333l-149 -388h-265zM584 -25q-490 0 -490 482v653h314v-608q0 -131 44.5 -190.5t143.5 -59.5q102 0 156 85t54 237q0 287 -100 536h322q48 -97 75 -236.5t27 -294.5q0 -294 -144 -449t-402 -155z" />
    <glyph glyph-name="omegatonosgreek" unicode="&#x3ce;" horiz-adv-x="1677" 
d="M483 -25q-205 0 -313.5 139t-108.5 401q0 173 45.5 327.5t128.5 267.5h330q-94 -144 -138 -288t-44 -306q0 -135 36.5 -199.5t112.5 -64.5q65 0 101 46.5t36 131.5v363h300v-363q0 -85 36 -131.5t101 -46.5q77 0 113 64t36 200q0 316 -181 594h330q83 -113 128.5 -267.5
t45.5 -327.5q0 -262 -108.5 -401t-314.5 -139q-116 0 -194.5 54t-131.5 170h-19q-53 -116 -132 -170t-195 -54zM691 1268l81 388h333l-149 -388h-265z" />
    <glyph glyph-name="Iocyrillic" unicode="&#x401;" horiz-adv-x="1294" 
d="M393 1581q-74 0 -121 44.5t-47 114.5q0 71 47 115.5t121 44.5q73 0 120 -45t47 -115t-47 -114.5t-120 -44.5zM884 1581q-74 0 -121 44.5t-47 114.5t47 115t121 45t121 -45t47 -115t-47 -114.5t-121 -44.5zM1133 282v-282h-978v1443h978v-282h-632v-305h595v-259h-595
v-315h632z" />
    <glyph glyph-name="Djecyrillic" unicode="&#x402;" horiz-adv-x="1802" 
d="M1177 -86q-44 0 -82 4t-54 8l-16 5v265q37 -11 115 -11q103 0 163 55.5t60 159.5q0 95 -61.5 154t-175.5 59q-104 0 -173 -43.5t-99 -100.5v-469h-346v1161h-422v282h1189v-282h-421v-367h17q129 112 332 112q125 0 223 -38t159.5 -104.5t93 -152.5t31.5 -187
q0 -230 -142 -370t-391 -140z" />
    <glyph glyph-name="Gjecyrillic" unicode="&#x403;" horiz-adv-x="1225" 
d="M466 1573l264 323h347l-308 -323h-303zM504 0h-346v1443h956v-283h-610v-1160z" />
    <glyph glyph-name="Ecyrillic" unicode="&#x404;" horiz-adv-x="1571" 
d="M1464 499q-13 -236 -193 -386.5t-455 -150.5q-325 0 -512.5 203t-187.5 557t187.5 556.5t512.5 202.5q134 0 251.5 -41.5t202.5 -114t136 -173.5t57 -216h-334q-17 113 -103 183t-210 70q-139 0 -231.5 -89t-108.5 -240h541v-262h-544q13 -155 107 -249.5t237 -94.5
q125 0 210.5 67.5t102.5 177.5h334z" />
    <glyph glyph-name="Dzecyrillic" unicode="&#x405;" horiz-adv-x="1403" 
d="M90 407h332q7 -82 82.5 -130t194.5 -48q107 0 174.5 47t67.5 122q0 63 -54 101.5t-180 63.5l-189 39q-398 78 -398 418q0 209 155 335t412 126q248 0 406.5 -123.5t163.5 -320.5h-322q-7 79 -75 128.5t-169 49.5q-102 0 -164 -44.5t-62 -119.5q0 -62 52.5 -100.5
t170.5 -62.5l183 -36q214 -43 313.5 -142.5t99.5 -269.5q0 -223 -160.5 -350.5t-440.5 -127.5q-268 0 -427.5 119.5t-165.5 325.5z" />
    <glyph glyph-name="Icyrillic" unicode="&#x406;" horiz-adv-x="672" 
d="M490 0h-346v1443h346v-1443z" />
    <glyph glyph-name="Yicyrillic" unicode="&#x407;" horiz-adv-x="672" 
d="M471 0h-346v1443h346v-1443zM57 1581q-74 0 -121 44.5t-47 114.5q0 71 47 115.5t121 44.5q73 0 120 -45t47 -115t-47 -114.5t-120 -44.5zM548 1581q-74 0 -121 44.5t-47 114.5t47 115t121 45t121 -45t47 -115t-47 -114.5t-121 -44.5z" />
    <glyph glyph-name="Jecyrillic" unicode="&#x408;" horiz-adv-x="1251" 
d="M36 447h333q1 -87 50 -138t130 -51q85 0 130 52t45 152v981h346v-984q0 -238 -136.5 -367.5t-379.5 -129.5q-237 0 -377.5 130.5t-140.5 354.5z" />
    <glyph glyph-name="Ljecyrillic" unicode="&#x409;" horiz-adv-x="2256" 
d="M619 581q-7 -139 -34 -244.5t-79 -186t-136 -122.5t-200 -42q-78 0 -122 14v303q40 -8 71 -8q51 0 86.5 22.5t55 67.5t28.5 96.5t13 124.5l40 837h1036v-465h253q238 0 385.5 -134t147.5 -354q0 -221 -141.5 -355.5t-371.5 -134.5h-619v1161h-382zM1378 271h182
q120 0 185.5 56.5t65.5 162.5q0 107 -66.5 164t-187.5 57h-179v-440z" />
    <glyph glyph-name="Njecyrillic" unicode="&#x40a;" horiz-adv-x="2317" 
d="M1433 271h202q112 0 174 45.5t62 131.5q0 83 -62 126.5t-176 43.5h-200v-347zM515 610v-610h-346v1443h346v-558h572v558h346v-558h253q238 0 385.5 -120t147.5 -317q0 -202 -141.5 -325t-371.5 -123h-619v610h-572z" />
    <glyph glyph-name="Tshecyrillic" unicode="&#x40b;" horiz-adv-x="1829" 
d="M1120 613q-175 0 -261 -144v-469h-346v1161h-422v282h1189v-282h-421v-366h17q126 111 321 111q163 0 277 -69.5t167.5 -186t53.5 -271.5v-379h-346v358q0 119 -58.5 187t-170.5 68z" />
    <glyph glyph-name="Kjecyrillic" unicode="&#x40c;" horiz-adv-x="1473" 
d="M578 1573l264 323h347l-308 -323h-303zM502 836h47l469 607h375l-554 -709l587 -734h-411l-464 572h-49v-572h-346v1443h346v-607z" />
    <glyph glyph-name="Ushortcyrillic" unicode="&#x40e;" horiz-adv-x="1420" 
d="M309 1925h241q3 -69 44 -109.5t106 -40.5t106 40.5t44 109.5h241q0 -149 -107 -238.5t-284 -89.5t-284 89.5t-107 238.5zM372 -14q-34 0 -68 3.5t-52 7t-20 4.5v278q30 -10 90 -10q65 0 111.5 20t80.5 69l-474 1085h367l283 -751h19l270 751h365l-442 -1030
q-46 -108 -92.5 -181.5t-109 -131.5t-143.5 -86t-185 -28z" />
    <glyph glyph-name="Dzhecyrillic" unicode="&#x40f;" horiz-adv-x="1609" 
d="M642 0h-476v1443h346v-1161h585v1161h346v-1443h-476v-285h-325v285z" />
    <glyph glyph-name="Acyrillic" unicode="&#x410;" horiz-adv-x="1520" 
d="M1061 0l-97 326h-482l-99 -326h-345l490 1443h419l490 -1443h-376zM716 1127l-165 -547h346l-162 547h-19z" />
    <glyph glyph-name="Becyrillic" unicode="&#x411;" horiz-adv-x="1392" 
d="M1295 463q0 -209 -141.5 -336t-371.5 -127h-616v1443h1000v-282h-654v-247h256q235 0 381 -124t146 -327zM512 271h185q117 0 181 49.5t64 142.5q0 94 -65 144t-182 50h-183v-386z" />
    <glyph glyph-name="Vecyrillic" unicode="&#x412;" horiz-adv-x="1440" 
d="M834 0h-678v1443h659q214 0 334 -95.5t120 -264.5q0 -115 -76 -203t-190 -105v-18q143 -9 238.5 -106.5t95.5 -235.5q0 -190 -136 -302.5t-367 -112.5zM502 1194v-343h204q107 0 166 45t59 126t-54.5 126.5t-152.5 45.5h-222zM502 249h237q119 0 182.5 50.5t63.5 145.5
q0 92 -65 141t-185 49h-233v-386z" />
    <glyph glyph-name="Gecyrillic" unicode="&#x413;" horiz-adv-x="1225" 
d="M516 0h-346v1443h956v-283h-610v-1160z" />
    <glyph glyph-name="Decyrillic" unicode="&#x414;" horiz-adv-x="1606" 
d="M574 633q-8 -123 -28 -202.5t-60 -128.5v-19h543v879h-421zM333 0v-285h-312v568h99q71 53 98.5 137.5t37.5 242.5l49 780h1070v-1160h180v-568h-312v285h-910z" />
    <glyph glyph-name="Iecyrillic" unicode="&#x415;" horiz-adv-x="1294" 
d="M1142 282v-282h-978v1443h978v-282h-632v-305h595v-259h-595v-315h632z" />
    <glyph glyph-name="Zhecyrillic" unicode="&#x416;" horiz-adv-x="2160" 
d="M908 834v609h339v-609h51l415 609h367l-498 -712l531 -731h-402l-411 574h-53v-574h-339v574h-53l-411 -574h-398l527 724l-501 719h370l415 -609h51z" />
    <glyph glyph-name="Zecyrillic" unicode="&#x417;" horiz-adv-x="1363" 
d="M483 599v264h189q99 0 159.5 49t60.5 130t-59 128.5t-163 47.5t-168 -52.5t-68 -140.5h-317q6 209 157 332.5t404 123.5q241 0 390.5 -108t149.5 -286q0 -121 -75.5 -212.5t-194.5 -114.5v-19q147 -14 235.5 -106t88.5 -233q0 -129 -77.5 -229.5t-214 -155.5t-307.5 -55
q-255 0 -413.5 126t-168.5 335h330q4 -85 73.5 -135t183.5 -50q108 0 173.5 52.5t65.5 138.5q0 80 -64.5 125t-179.5 45h-190z" />
    <glyph glyph-name="Iicyrillic" unicode="&#x418;" horiz-adv-x="1629" 
d="M1118 0v907h-19l-602 -907h-331v1443h345v-908h19l602 908h331v-1443h-345z" />
    <glyph glyph-name="Iishortcyrillic" unicode="&#x419;" horiz-adv-x="1629" 
d="M412 1925h241q3 -69 44 -109.5t106 -40.5t106 40.5t44 109.5h241q0 -149 -107 -238.5t-284 -89.5t-284 89.5t-107 238.5zM1102 0v907h-19l-602 -907h-331v1443h345v-908h19l602 908h331v-1443h-345z" />
    <glyph glyph-name="Kacyrillic" unicode="&#x41a;" horiz-adv-x="1475" 
d="M510 836h47l469 607h375l-554 -709l587 -734h-411l-464 572h-49v-572h-346v1443h346v-607z" />
    <glyph glyph-name="Elcyrillic" unicode="&#x41b;" horiz-adv-x="1529" 
d="M1366 0h-346v1161h-382l-31 -580q-7 -139 -34 -244.5t-79 -186t-136 -122.5t-200 -42q-78 0 -122 14v303q40 -8 71 -8q51 0 86.5 22.5t55 67.5t28.5 96.5t13 124.5l40 837h1036v-1443z" />
    <glyph glyph-name="Emcyrillic" unicode="&#x41c;" horiz-adv-x="1898" 
d="M470 0h-320v1443h408l365 -912h19l366 912h408v-1443h-320v930h-18l-336 -829h-218l-336 829h-18v-930z" />
    <glyph glyph-name="Encyrillic" unicode="&#x41d;" horiz-adv-x="1624" 
d="M1442 0h-345v589h-599v-589h-346v1443h346v-572h599v572h345v-1443z" />
    <glyph glyph-name="Ocyrillic" unicode="&#x41e;" horiz-adv-x="1650" 
d="M820 1481q324 0 514.5 -204t190.5 -555t-190 -555.5t-515 -204.5t-515.5 204t-190.5 556q0 351 191 555t515 204zM820 1191q-160 0 -256.5 -127.5t-96.5 -341.5q0 -215 96 -342.5t257 -127.5q160 0 256 128t96 342t-96 341.5t-256 127.5z" />
    <glyph glyph-name="Pecyrillic" unicode="&#x41f;" horiz-adv-x="1609" 
d="M1443 0h-345v1160h-586v-1160h-346v1443h1277v-1443z" />
    <glyph glyph-name="Ercyrillic" unicode="&#x420;" horiz-adv-x="1400" 
d="M154 1443h622q230 0 371.5 -139t141.5 -369q0 -226 -147.5 -364.5t-385.5 -138.5h-256v-432h-346v1443zM500 1173v-475h182q123 0 190 61t67 176q0 116 -66.5 177t-188.5 61h-184z" />
    <glyph glyph-name="Escyrillic" unicode="&#x421;" horiz-adv-x="1566" 
d="M800 -38q-321 0 -506 203.5t-185 556.5t184.5 556t506.5 203q176 0 320 -72t229.5 -200t92.5 -287h-334q-17 120 -101.5 193.5t-206.5 73.5q-157 0 -247.5 -125t-90.5 -342t91 -342.5t248 -125.5q122 0 206.5 70.5t101.5 187.5h334q-13 -243 -192 -396.5t-451 -153.5z
" />
    <glyph glyph-name="Tecyrillic" unicode="&#x422;" horiz-adv-x="1372" 
d="M849 0h-346v1161h-422v282h1189v-282h-421v-1161z" />
    <glyph glyph-name="Ucyrillic" unicode="&#x423;" horiz-adv-x="1420" 
d="M390 -14q-34 0 -68 3.5t-52 7t-20 4.5v278q30 -10 90 -10q65 0 111.5 20t80.5 69l-474 1085h367l283 -751h19l270 751h365l-442 -1030q-46 -108 -92.5 -181.5t-109 -131.5t-143.5 -86t-185 -28z" />
    <glyph glyph-name="Efcyrillic" unicode="&#x424;" horiz-adv-x="1863" 
d="M765 395v656q-149 -8 -238.5 -94.5t-89.5 -232.5q0 -147 89 -234t239 -95zM1426 723q0 146 -89.5 233.5t-238.5 94.5v-656q149 8 238.5 95t89.5 233zM761 121q-307 10 -490 169t-183 434q0 182 85.5 316.5t236 206t351.5 78.5v152h342v-152q306 -10 489 -168.5
t183 -433.5q0 -274 -183 -432.5t-489 -169.5v-155h-342v155z" />
    <glyph glyph-name="Xacyrillic" unicode="&#x425;" horiz-adv-x="1514" 
d="M59 0l449 727l-447 716h405l272 -487h18l276 487h385l-465 -719l460 -724h-391l-285 468h-19l-288 -468h-370z" />
    <glyph glyph-name="Tsecyrillic" unicode="&#x426;" horiz-adv-x="1674" 
d="M1621 -285h-312v285h-1145v1443h346v-1161h585v1161h346v-1161h180v-567z" />
    <glyph glyph-name="Checyrillic" unicode="&#x427;" horiz-adv-x="1524" 
d="M1361 0h-346v595h-19q-135 -111 -341 -111q-242 0 -387 147.5t-145 388.5v423h346v-387q0 -130 69.5 -204t198.5 -74q99 0 171.5 39.5t106.5 106.5v519h346v-1443z" />
    <glyph glyph-name="Shacyrillic" unicode="&#x428;" horiz-adv-x="2096" 
d="M160 0v1443h346v-1161h369v1161h346v-1161h370v1161h346v-1443h-1777z" />
    <glyph glyph-name="Shchacyrillic" unicode="&#x429;" horiz-adv-x="2161" 
d="M2115 -285h-312v285h-1645v1443h346v-1161h369v1161h346v-1161h370v1161h346v-1161h180v-567z" />
    <glyph glyph-name="Hardsigncyrillic" unicode="&#x42a;" horiz-adv-x="1644" 
d="M1044 0h-620v1162h-336v281h682v-465h253q238 0 386 -134t148 -354q0 -221 -141.5 -355.5t-371.5 -134.5zM770 271h182q120 0 186 56.5t66 162.5q0 107 -66.5 164t-187.5 57h-180v-440z" />
    <glyph glyph-name="Yericyrillic" unicode="&#x42b;" horiz-adv-x="1932" 
d="M1761 0h-346v1443h346v-1443zM140 0v1443h346v-465h253q238 0 385.5 -134t147.5 -354q0 -221 -141.5 -355.5t-371.5 -134.5h-619zM486 271h181q120 0 186 56.5t66 162.5q0 107 -66.5 164t-187.5 57h-179v-440z" />
    <glyph glyph-name="Softsigncyrillic" unicode="&#x42c;" horiz-adv-x="1395" 
d="M167 0v1443h346v-465h253q238 0 385.5 -134t147.5 -354q0 -221 -141.5 -355.5t-371.5 -134.5h-619zM513 271h181q120 0 186 56.5t66 162.5q0 107 -66.5 164t-187.5 57h-179v-440z" />
    <glyph glyph-name="Ereversedcyrillic" unicode="&#x42d;" horiz-adv-x="1571" 
d="M761 -38q-278 0 -460 150.5t-195 386.5h334q17 -109 105.5 -177t216.5 -68q139 0 231 93t105 251h-545v262h545q-16 154 -107 241.5t-228 87.5q-127 0 -215.5 -70t-105.5 -183h-334q11 234 195.5 389.5t457.5 155.5q322 0 507.5 -202.5t185.5 -555.5
q0 -354 -185.5 -557.5t-507.5 -203.5z" />
    <glyph glyph-name="IUcyrillic" unicode="&#x42e;" horiz-adv-x="2190" 
d="M1387 -38q-289 0 -471 167t-217 460h-191v-589h-346v1443h346v-572h193q39 286 221 448t465 162q319 0 506.5 -204t187.5 -555t-187.5 -555.5t-506.5 -204.5zM1385 1191q-156 0 -250.5 -127.5t-94.5 -341.5t94 -342t251 -128q156 0 250 128t94 342t-94 341.5t-250 127.5z
" />
    <glyph glyph-name="IAcyrillic" unicode="&#x42f;" horiz-adv-x="1451" 
d="M940 756v421h-222q-108 0 -170.5 -56.5t-62.5 -154.5t62 -154t172 -56h221zM766 508l-323 -508h-378l367 557q-137 48 -219 156.5t-82 254.5q0 215 147 345t399 130h605v-1443h-342v508h-174z" />
    <glyph glyph-name="acyrillic" unicode="&#x430;" horiz-adv-x="1233" 
d="M546 220q89 0 150 52t61 128v76l-199 -13q-168 -12 -168 -122q0 -56 43 -88.5t113 -32.5zM427 -17q-161 0 -260.5 92t-99.5 244q0 151 113 237t326 98l251 15v88q0 61 -43 94.5t-122 33.5q-148 0 -183 -94h-302q13 159 148.5 251.5t355.5 92.5q227 0 350.5 -99
t123.5 -279v-757h-324v140h-19q-39 -73 -123.5 -115t-191.5 -42z" />
    <glyph glyph-name="becyrillic" unicode="&#x431;" horiz-adv-x="1309" 
d="M655 234q105 0 163.5 77.5t58.5 219.5q0 137 -59 214t-163 77t-163 -77t-59 -214q0 -142 58.5 -219.5t163.5 -77.5zM344 852h19q106 214 370 214q218 0 352 -142t134 -383q0 -263 -149.5 -414.5t-407.5 -151.5q-273 0 -422.5 167.5t-149.5 492.5q0 429 152.5 631
t459.5 213l152 5q76 3 149 13t107 18t36 10v-256q-9 -4 -28 -10.5t-88.5 -18t-153.5 -14.5l-143 -4q-194 -6 -280.5 -95t-108.5 -275z" />
    <glyph glyph-name="vecyrillic" unicode="&#x432;" horiz-adv-x="1232" 
d="M618 906h-163v-242h151q77 0 119 32t42 89t-38.5 89t-110.5 32zM622 481h-167v-277h176q85 0 130.5 36t45.5 104q0 67 -48 102t-137 35zM128 0v1110h586q179 0 279.5 -74.5t100.5 -204.5q0 -88 -59 -155t-147 -80v-18q113 -9 184 -81t71 -175q0 -146 -112 -234t-304 -88
h-599z" />
    <glyph glyph-name="gecyrillic" unicode="&#x433;" horiz-adv-x="1006" 
d="M926 859h-456v-859h-334v1110h790v-251z" />
    <glyph glyph-name="decyrillic" unicode="&#x434;" horiz-adv-x="1365" 
d="M845 251v609h-309l-22 -315q-11 -177 -73 -275v-19h404zM323 -285h-304v536h83q103 55 119 317l35 542h922v-859h162v-536h-304v285h-713v-285z" />
    <glyph glyph-name="iecyrillic" unicode="&#x435;" horiz-adv-x="1263" 
d="M626 893q-91 0 -150 -59t-66 -158h425q-5 101 -60 159t-149 58zM846 323h306q-31 -161 -171 -254.5t-351 -93.5q-262 0 -406.5 150.5t-144.5 422.5q0 273 146 430t400 157q253 0 394 -148t141 -413v-95h-751v-17q1 -114 63 -180t167 -66q80 0 133.5 28t73.5 79z" />
    <glyph glyph-name="zhecyrillic" unicode="&#x436;" horiz-adv-x="1796" 
d="M24 0l383 605l-361 505h367l267 -430h55v430h325v-430h55l267 430h365l-359 -503l384 -607h-382l-270 454h-60v-454h-325v454h-60l-270 -454h-381z" />
    <glyph glyph-name="zecyrillic" unicode="&#x437;" horiz-adv-x="1184" 
d="M596 -25q-97 0 -181.5 21t-157.5 65.5t-119.5 123.5t-55.5 186h317q38 -139 197 -139q77 0 122.5 30.5t45.5 88.5q0 111 -167 111h-149v209h138q146 0 146 105q0 48 -36 78.5t-110 30.5q-152 0 -172 -126h-313q15 174 139.5 275t343.5 101q227 0 350 -83.5t123 -237.5
q0 -81 -44.5 -138t-116.5 -78v-18q100 -28 151.5 -92.5t51.5 -153.5q0 -165 -133 -262t-370 -97z" />
    <glyph glyph-name="iicyrillic" unicode="&#x438;" horiz-adv-x="1341" 
d="M457 0h-327v1110h327v-646h19l409 646h327v-1110h-327v656h-19z" />
    <glyph glyph-name="iishortcyrillic" unicode="&#x439;" horiz-adv-x="1341" 
d="M260 1631h240q2 -79 44 -128.5t109 -49.5q68 0 110 49t44 129h241q0 -159 -108.5 -257.5t-286.5 -98.5q-177 0 -285 98.5t-108 257.5zM441 0h-327v1110h327v-646h19l409 646h327v-1110h-327v656h-19z" />
    <glyph glyph-name="kacyrillic" unicode="&#x43a;" horiz-adv-x="1234" 
d="M458 685h49l299 425h374l-397 -503l421 -607h-392l-301 449h-53v-449h-334v1110h334v-425z" />
    <glyph glyph-name="elcyrillic" unicode="&#x43b;" horiz-adv-x="1268" 
d="M528 545q-7 -132 -30.5 -230t-68.5 -174.5t-120 -115.5t-180 -39q-59 0 -104 14v281q35 -8 67 -8q38 0 65 22t42.5 64.5t23.5 92t12 116.5l27 542h875v-1110h-333v859h-257z" />
    <glyph glyph-name="emcyrillic" unicode="&#x43c;" horiz-adv-x="1652" 
d="M437 0h-311v1110h437l254 -673h19l255 673h434v-1110h-311v721h-18l-257 -650h-227l-257 650h-18v-721z" />
    <glyph glyph-name="encyrillic" unicode="&#x43d;" horiz-adv-x="1328" 
d="M129 0v1110h334v-418h402v418h334v-1110h-334v441h-402v-441h-334z" />
    <glyph glyph-name="ocyrillic" unicode="&#x43e;" horiz-adv-x="1299" 
d="M639 234q103 0 160 84.5t57 236.5q0 151 -57 236t-160 85t-160 -85t-57 -236q0 -153 57 -237t160 -84zM639 -25q-263 0 -411 153.5t-148 427.5q0 269 150 424t409 155q260 0 410 -154.5t150 -424.5q0 -274 -148 -427.5t-412 -153.5z" />
    <glyph glyph-name="pecyrillic" unicode="&#x43f;" horiz-adv-x="1318" 
d="M855 0v859h-392v-859h-334v1110h1060v-1110h-334z" />
    <glyph glyph-name="ercyrillic" unicode="&#x440;" horiz-adv-x="1346" 
d="M799 1127q211 0 330 -150.5t119 -421.5q0 -270 -117 -421t-325 -151q-119 0 -205.5 49.5t-125.5 137.5h-19v-511h-334v1451h325v-182h18q43 93 131.5 146t202.5 53zM680 249q106 0 165.5 81.5t59.5 224.5t-59.5 224.5t-165.5 81.5q-105 0 -165.5 -82t-61.5 -225
q1 -143 61 -224t166 -81z" />
    <glyph glyph-name="escyrillic" unicode="&#x441;" horiz-adv-x="1231" 
d="M1142 705h-307q-14 80 -64.5 124.5t-133.5 44.5q-108 0 -164 -80.5t-56 -236.5q0 -159 56 -240.5t164 -81.5q83 0 133.5 41t64.5 120h307q-17 -196 -150.5 -308.5t-354.5 -112.5q-270 0 -412.5 149.5t-142.5 432.5q0 280 142.5 429t412.5 149q225 0 356.5 -114
t148.5 -316z" />
    <glyph glyph-name="tecyrillic" unicode="&#x442;" horiz-adv-x="1091" 
d="M1035 1110v-251h-323v-859h-334v859h-323v251h980z" />
    <glyph glyph-name="ucyrillic" unicode="&#x443;" horiz-adv-x="1243" 
d="M263 -405q-116 0 -123 1v257q6 -1 63 -1q172 0 194 106l7 33l-382 1119h369l209 -823h19l209 823h353l-365 -1115q-71 -218 -197.5 -309t-355.5 -91z" />
    <glyph glyph-name="efcyrillic" unicode="&#x444;" horiz-adv-x="1687" 
d="M682 232v646q-124 -4 -197.5 -89.5t-73.5 -233.5q0 -150 72.5 -234.5t198.5 -88.5zM1275 555q0 150 -73 234.5t-198 88.5v-646q124 4 197.5 89.5t73.5 233.5zM678 -16q-281 6 -444 157.5t-163 414.5q0 258 164.5 411t442.5 159v334h330v-334q281 -7 444 -158t163 -414
q0 -259 -164.5 -411.5t-442.5 -158.5v-325h-330v325z" />
    <glyph glyph-name="hacyrillic" unicode="&#x445;" horiz-adv-x="1210" 
d="M585 348h-19l-187 -348h-349l337 547l-339 563h381l173 -352h19l174 352h362l-339 -550l341 -560h-367z" />
    <glyph glyph-name="tsecyrillic" unicode="&#x446;" horiz-adv-x="1374" 
d="M1348 -285h-304v285h-917v1110h334v-859h389v859h334v-859h164v-536z" />
    <glyph glyph-name="checyrillic" unicode="&#x447;" horiz-adv-x="1273" 
d="M1146 0h-333v462h-19q-43 -55 -120 -89.5t-179 -34.5q-175 0 -282 111.5t-107 301.5v359h334v-302q0 -91 47 -142t126 -51q135 0 200 102v393h333v-1110z" />
    <glyph glyph-name="shacyrillic" unicode="&#x448;" horiz-adv-x="1810" 
d="M122 0v1110h334v-859h283v859h333v-859h283v859h334v-1110h-1567z" />
    <glyph glyph-name="shchacyrillic" unicode="&#x449;" horiz-adv-x="1865" 
d="M1844 -285h-303v285h-1419v1110h334v-859h283v859h333v-859h283v859h334v-859h155v-536z" />
    <glyph glyph-name="hardsigncyrillic" unicode="&#x44a;" horiz-adv-x="1370" 
d="M871 0h-552v859h-283v251h617v-311h218q198 0 315.5 -108.5t117.5 -291.5t-117.5 -291t-315.5 -108zM808 551h-155v-300h155q75 0 119.5 41.5t44.5 108.5q0 68 -44.5 109t-119.5 41z" />
    <glyph glyph-name="yericyrillic" unicode="&#x44b;" horiz-adv-x="1643" 
d="M1200 0v1110h334v-1110h-334zM578 551h-155v-300h155q75 0 119.5 41.5t44.5 108.5q0 68 -44.5 109t-119.5 41zM89 0v1110h334v-311h218q198 0 315.5 -108.5t117.5 -291.5t-117.5 -291t-315.5 -108h-552z" />
    <glyph glyph-name="softsigncyrillic" unicode="&#x44c;" horiz-adv-x="1177" 
d="M612 551h-155v-300h155q75 0 119.5 41.5t44.5 108.5q0 68 -44.5 109t-119.5 41zM123 0v1110h334v-311h218q198 0 315.5 -108.5t117.5 -291.5t-117.5 -291t-315.5 -108h-552z" />
    <glyph glyph-name="ereversedcyrillic" unicode="&#x44d;" horiz-adv-x="1243" 
d="M594 -25q-223 0 -358.5 112t-153.5 302h308q13 -73 68 -113t137 -40q92 0 151.5 59.5t66.5 165.5h-371v209h368q-10 95 -69 149.5t-146 54.5q-81 0 -135 -42t-69 -113h-308q20 187 156.5 301.5t356.5 114.5q256 0 405.5 -155.5t149.5 -422.5q0 -271 -149.5 -426.5
t-407.5 -155.5z" />
    <glyph glyph-name="iucyrillic" unicode="&#x44e;" horiz-adv-x="1781" 
d="M1150 -25q-231 0 -374.5 122t-173.5 344h-149v-441h-334v1110h334v-418h152q37 209 180.5 326t364.5 117q257 0 406.5 -154t149.5 -425q0 -276 -148 -428.5t-408 -152.5zM1148 234q102 0 158.5 84t56.5 237q0 151 -57 236t-158 85t-158.5 -85t-57.5 -236q0 -153 57 -237
t159 -84z" />
    <glyph glyph-name="iacyrillic" unicode="&#x44f;" horiz-adv-x="1207" 
d="M586 577h171v283h-171q-72 0 -115 -39.5t-43 -104.5q0 -61 43.5 -100t114.5 -39zM757 0v347h-96l-234 -347h-375l284 399q-109 33 -172.5 120t-63.5 202q0 177 123 283t322 106h537v-1110h-325z" />
    <glyph glyph-name="iocyrillic" unicode="&#x451;" horiz-adv-x="1263" 
d="M615 893q-91 0 -150 -59t-66 -158h425q-5 101 -60 159t-149 58zM835 323h306q-31 -161 -171 -254.5t-351 -93.5q-262 0 -406.5 150.5t-144.5 422.5q0 273 146 430t400 157q253 0 394 -148t141 -413v-95h-751v-17q1 -114 63 -180t167 -66q80 0 133.5 28t73.5 79zM365 1257
q-74 0 -121 44.5t-47 114.5q0 71 47 115.5t121 44.5q73 0 120 -45t47 -115t-47 -114.5t-120 -44.5zM856 1257q-74 0 -121 44.5t-47 114.5t47 115t121 45t121 -45t47 -115t-47 -114.5t-121 -44.5z" />
    <glyph glyph-name="djecyrillic" unicode="&#x452;" horiz-adv-x="1359" 
d="M1229 -21q0 -169 -106 -258t-306 -89q-62 0 -94 4v243q16 -2 40 -2q71 0 102 27t31 87v646q0 106 -53.5 162t-149.5 56q-97 0 -158 -62t-61 -161v-632h-334v1253h-161v159h161v148h327v-148h245v-159h-245v-327h19q37 95 131.5 150t216.5 55q186 0 290.5 -109t104.5 -309
v-734z" />
    <glyph glyph-name="gjecyrillic" unicode="&#x453;" horiz-adv-x="1006" 
d="M335 1286l246 356h341l-290 -356h-297zM919 859h-456v-859h-334v1110h790v-251z" />
    <glyph glyph-name="ecyrillic" unicode="&#x454;" horiz-adv-x="1235" 
d="M1157 389q-18 -190 -152.5 -302t-355.5 -112q-259 0 -409 155.5t-150 426.5q0 268 150 423t408 155q217 0 352.5 -114.5t154.5 -301.5h-308q-15 71 -66.5 113t-130.5 42q-88 0 -147.5 -53.5t-71.5 -149.5h366v-209h-369q7 -106 68 -166t154 -60q80 0 132.5 40t66.5 113
h308z" />
    <glyph glyph-name="dzecyrillic" unicode="&#x455;" horiz-adv-x="1181" 
d="M94 778q0 163 130.5 260t349.5 97q224 0 347.5 -86.5t133.5 -251.5h-305q-9 51 -54 79.5t-119 28.5q-73 0 -118.5 -29t-45.5 -77q0 -37 32.5 -60.5t101.5 -38.5l223 -47q163 -35 237.5 -107t74.5 -198q0 -170 -138 -271.5t-366 -101.5q-232 0 -363.5 87.5t-147.5 252.5
h323q29 -110 193 -110q77 0 123.5 29t46.5 77q0 37 -29.5 59.5t-97.5 36.5l-205 45q-327 70 -327 326z" />
    <glyph glyph-name="icyrillic" unicode="&#x456;" horiz-adv-x="612" 
d="M122 0v1110h333v-1110h-333zM288 1247q-87 0 -138.5 42.5t-51.5 111.5q0 70 51 112t139 42t139.5 -42t51.5 -112q0 -69 -51.5 -111.5t-139.5 -42.5z" />
    <glyph glyph-name="yicyrillic" unicode="&#x457;" horiz-adv-x="614" 
d="M109 0v1110h334v-1110h-334zM30 1257q-74 0 -121 44.5t-47 114.5q0 71 47 115.5t121 44.5q73 0 120 -45t47 -115t-47 -114.5t-120 -44.5zM521 1257q-74 0 -121 44.5t-47 114.5t47 115t121 45t121 -45t47 -115t-47 -114.5t-121 -44.5z" />
    <glyph glyph-name="jecyrillic" unicode="&#x458;" horiz-adv-x="613" 
d="M457 1110v-1130q0 -169 -106 -258.5t-306 -89.5q-61 0 -95 4v243q18 -2 41 -2q71 0 102 27t31 87v1119h333zM290 1247q-87 0 -138.5 42.5t-51.5 111.5q0 70 51 112t139 42t139.5 -42t51.5 -112q0 -69 -51.5 -111.5t-139.5 -42.5z" />
    <glyph glyph-name="ljecyrillic" unicode="&#x459;" horiz-adv-x="1854" 
d="M523 545q-7 -132 -30.5 -230t-68.5 -174.5t-120 -115.5t-180 -39q-59 0 -104 14v281q35 -8 67 -8q38 0 65 22t42.5 64.5t23.5 92t12 116.5l28 542h875v-311h218q198 0 315.5 -108.5t117.5 -291.5t-117.5 -291t-315.5 -108h-552v859h-257zM1288 551h-155v-300h155
q75 0 119.5 41.5t44.5 108.5q0 68 -44.5 109t-119.5 41z" />
    <glyph glyph-name="njecyrillic" unicode="&#x45a;" horiz-adv-x="1894" 
d="M1354 488h-177v-244h177q66 0 106.5 34.5t40.5 87.5t-40.5 87.5t-106.5 34.5zM843 0v481h-389v-481h-334v1110h334v-384h389v384h334v-377h221q197 0 313.5 -99.5t116.5 -267.5t-116.5 -267t-313.5 -99h-555z" />
    <glyph glyph-name="tshecyrillic" unicode="&#x45b;" horiz-adv-x="1359" 
d="M451 926h19q37 95 131.5 150t216.5 55q186 0 290.5 -109t104.5 -309v-713h-333v637q0 106 -53.5 162t-149.5 56q-97 0 -158 -62t-61 -161v-632h-334v1253h-161v159h161v148h327v-148h245v-159h-245v-327z" />
    <glyph glyph-name="kjecyrillic" unicode="&#x45c;" horiz-adv-x="1234" 
d="M454 1286l246 356h341l-290 -356h-297zM436 685h49l299 425h374l-397 -503l421 -607h-392l-301 449h-53v-449h-334v1110h334v-425z" />
    <glyph glyph-name="ushortcyrillic" unicode="&#x45e;" horiz-adv-x="1243" 
d="M230 1631h240q2 -79 44 -128.5t109 -49.5q68 0 110 49t44 129h241q0 -159 -108.5 -257.5t-286.5 -98.5q-177 0 -285 98.5t-108 257.5zM243 -405q-116 0 -123 1v257q6 -1 63 -1q172 0 194 106l7 33l-382 1119h369l209 -823h19l209 823h353l-365 -1115
q-71 -218 -197.5 -309t-355.5 -91z" />
    <glyph glyph-name="dzhecyrillic" unicode="&#x45f;" horiz-adv-x="1318" 
d="M1189 0h-378v-285h-304v285h-378v1110h334v-859h392v859h334v-1110z" />
    <glyph glyph-name="Geupturncyrillic" unicode="&#x490;" horiz-adv-x="1225" 
d="M516 1160v-1160h-346v1443h631v285h325v-568h-610z" />
    <glyph glyph-name="geupturncyrillic" unicode="&#x491;" horiz-adv-x="1006" 
d="M926 859h-456v-859h-334v1110h486v285h304v-536z" />
    <glyph glyph-name="baht" unicode="&#xe3f;" horiz-adv-x="1415" 
d="M734 634v-384q202 13 202 195q0 176 -202 189zM464 249h127v386h-127v-386zM464 1194v-343h127v343h-127zM734 1191v-335q77 13 118.5 56t41.5 110q0 70 -41.5 114t-118.5 55zM955 775v-18q142 -9 237.5 -106.5t95.5 -235.5q0 -190 -135.5 -302.5t-366.5 -112.5h-52v-135
h-143v135h-465v1443h465v143h143v-143h32q214 0 334.5 -96t120.5 -264q0 -115 -76.5 -203t-189.5 -105z" />
    <glyph glyph-name="Aringbelow" unicode="&#x1e00;" horiz-adv-x="1500" 
d="M1051 0l-97 326h-482l-99 -326h-345l490 1443h419l490 -1443h-376zM706 1127l-165 -547h346l-162 547h-19zM734 -569q-108 0 -179.5 69t-71.5 174t71 173t180 68q108 0 179 -68t71 -173q0 -106 -71 -174.5t-179 -68.5zM733 -426q44 0 72 28t28 71t-28.5 71t-71.5 28
q-43 -1 -71 -29t-28 -70q0 -43 28 -71t71 -28z" />
    <glyph glyph-name="aringbelow" unicode="&#x1e01;" horiz-adv-x="1208" 
d="M534 220q89 0 150 52t61 128v76l-199 -13q-168 -12 -168 -122q0 -56 43 -88.5t113 -32.5zM415 -17q-161 0 -260.5 92t-99.5 244q0 151 113 237t326 98l251 15v88q0 61 -43 94.5t-122 33.5q-148 0 -183 -94h-302q13 159 148.5 251.5t355.5 92.5q227 0 350.5 -99
t123.5 -279v-757h-324v140h-19q-39 -73 -123.5 -115t-191.5 -42zM606 -569q-108 0 -179.5 69t-71.5 174t71 173t180 68q108 0 179 -68t71 -173q0 -106 -71 -174.5t-179 -68.5zM605 -426q44 0 72 28t28 71t-28.5 71t-71.5 28q-43 -1 -71 -29t-28 -70q0 -43 28 -71t71 -28z
" />
    <glyph glyph-name="Bdotaccent" unicode="&#x1e02;" horiz-adv-x="1420" 
d="M643 1581q-76 0 -123.5 47t-47.5 119q0 73 47.5 120.5t123.5 47.5q75 0 122.5 -47.5t47.5 -120.5q0 -72 -47.5 -119t-122.5 -47zM824 0h-678v1443h659q214 0 334 -95.5t120 -264.5q0 -115 -76 -203t-190 -105v-18q143 -9 238.5 -106.5t95.5 -235.5q0 -190 -136 -302.5
t-367 -112.5zM492 1194v-343h204q107 0 166 45t59 126t-54.5 126.5t-152.5 45.5h-222zM492 249h237q119 0 182.5 50.5t63.5 145.5q0 92 -65 141t-185 49h-233v-386z" />
    <glyph glyph-name="bdotaccent" unicode="&#x1e03;" horiz-adv-x="1334" 
d="M303 1666q-76 0 -123.5 47t-47.5 119q0 73 47.5 120.5t123.5 47.5q75 0 122.5 -47.5t47.5 -120.5q0 -72 -47.5 -119t-122.5 -47zM803 -17q-118 0 -207 50t-131 140h-18v-173h-325v1528h334v-597h19q41 92 127.5 144t200.5 52q210 0 327.5 -150.5t117.5 -421.5
q0 -269 -118 -420.5t-327 -151.5zM680 861q-104 0 -165 -83t-62 -224q1 -141 62 -223t165 -82q105 0 165 82t60 224q0 141 -60.5 223.5t-164.5 82.5z" />
    <glyph glyph-name="Bdotbelow" unicode="&#x1e04;" horiz-adv-x="1420" 
d="M644 -423q-77 0 -123 40t-46 104t46 104t123 40t123 -40t46 -104t-46 -104t-123 -40zM824 0h-678v1443h659q214 0 334 -95.5t120 -264.5q0 -115 -76 -203t-190 -105v-18q143 -9 238.5 -106.5t95.5 -235.5q0 -190 -136 -302.5t-367 -112.5zM492 1194v-343h204
q107 0 166 45t59 126t-54.5 126.5t-152.5 45.5h-222zM492 249h237q119 0 182.5 50.5t63.5 145.5q0 92 -65 141t-185 49h-233v-386z" />
    <glyph glyph-name="bdotbelow" unicode="&#x1e05;" horiz-adv-x="1334" 
d="M638 -423q-77 0 -123 40t-46 104t46 104t123 40t123 -40t46 -104t-46 -104t-123 -40zM803 -17q-118 0 -207 50t-131 140h-18v-173h-325v1528h334v-597h19q41 92 127.5 144t200.5 52q210 0 327.5 -150.5t117.5 -421.5q0 -269 -118 -420.5t-327 -151.5zM680 861
q-104 0 -165 -83t-62 -224q1 -141 62 -223t165 -82q105 0 165 82t60 224q0 141 -60.5 223.5t-164.5 82.5z" />
    <glyph glyph-name="Blinebelow" unicode="&#x1e06;" horiz-adv-x="1420" 
d="M824 0h-678v1443h659q214 0 334 -95.5t120 -264.5q0 -115 -76 -203t-190 -105v-18q143 -9 238.5 -106.5t95.5 -235.5q0 -190 -136 -302.5t-367 -112.5zM492 1194v-343h204q107 0 166 45t59 126t-54.5 126.5t-152.5 45.5h-222zM492 249h237q119 0 182.5 50.5t63.5 145.5
q0 92 -65 141t-185 49h-233v-386zM1029 -415h-770v192h770v-192z" />
    <glyph glyph-name="blinebelow" unicode="&#x1e07;" horiz-adv-x="1334" 
d="M1023 -415h-770v192h770v-192zM803 -17q-118 0 -207 50t-131 140h-18v-173h-325v1528h334v-597h19q41 92 127.5 144t200.5 52q210 0 327.5 -150.5t117.5 -421.5q0 -269 -118 -420.5t-327 -151.5zM680 861q-104 0 -165 -83t-62 -224q1 -141 62 -223t165 -82q105 0 165 82
t60 224q0 141 -60.5 223.5t-164.5 82.5z" />
    <glyph glyph-name="Ccedillaacute" unicode="&#x1e08;" horiz-adv-x="1518" 
d="M1245 1918l-308 -323h-303l264 323h347zM1087 512h334q-11 -220 -160.5 -368t-384.5 -176l-29 -72q92 -7 140.5 -53t48.5 -128q0 -99 -72 -153.5t-203 -54.5q-89 0 -148 17v141q40 -14 114 -14q109 0 109 55q0 29 -28.5 41.5t-94.5 12.5h-61v124l35 83
q-281 29 -440.5 229t-159.5 526q0 353 184.5 556t506.5 203q176 0 320 -72t229.5 -200t92.5 -287h-334q-17 120 -101.5 193.5t-206.5 73.5q-157 0 -247.5 -125t-90.5 -342t91 -342.5t248 -125.5q122 0 206.5 70.5t101.5 187.5z" />
    <glyph glyph-name="ccedillaacute" unicode="&#x1e09;" horiz-adv-x="1203" 
d="M1046 1642l-290 -356h-297l246 356h341zM1126 705h-307q-14 80 -64.5 124.5t-133.5 44.5q-108 0 -164 -80.5t-56 -236.5q0 -159 56 -240.5t164 -81.5q83 0 133.5 41t64.5 120h307q-14 -171 -118.5 -279.5t-281.5 -134.5l-35 -86q92 -7 140.5 -53t48.5 -128
q0 -99 -72 -153.5t-203 -54.5q-89 0 -148 17v141q40 -14 114 -14q109 0 109 55q0 29 -28.5 41.5t-94.5 12.5h-61v124l40 95q-230 23 -350 171t-120 407q0 280 142.5 429t412.5 149q225 0 356.5 -114t148.5 -316z" />
    <glyph glyph-name="Ddotaccent" unicode="&#x1e0a;" horiz-adv-x="1530" 
d="M647 1581q-76 0 -123.5 47t-47.5 119q0 73 47.5 120.5t123.5 47.5q75 0 122.5 -47.5t47.5 -120.5q0 -72 -47.5 -119t-122.5 -47zM156 1444h593q323 0 499.5 -185.5t176.5 -524.5q0 -354 -175 -544t-501 -190h-593v1444zM502 1162v-880h187q186 0 284.5 114t98.5 332
q0 207 -101 320.5t-282 113.5h-187z" />
    <glyph glyph-name="ddotaccent" unicode="&#x1e0b;" horiz-adv-x="1334" 
d="M1030 1666q-76 0 -123.5 47t-47.5 119q0 73 47.5 120.5t123.5 47.5q75 0 122.5 -47.5t47.5 -120.5q0 -72 -47.5 -119t-122.5 -47zM505 -17q-208 0 -327.5 153.5t-119.5 420.5q0 265 119.5 417.5t328.5 152.5q111 0 197 -52t128 -144h18v597h334v-1528h-324v173h-19
q-43 -90 -131 -140t-204 -50zM625 861q-105 0 -165 -81.5t-60 -224.5t59.5 -224.5t165.5 -81.5t166.5 81t60.5 224t-60.5 225t-166.5 82z" />
    <glyph glyph-name="Ddotbelow" unicode="&#x1e0c;" horiz-adv-x="1530" 
d="M647 -423q-77 0 -123 40t-46 104t46 104t123 40t123 -40t46 -104t-46 -104t-123 -40zM156 1444h593q323 0 499.5 -185.5t176.5 -524.5q0 -354 -175 -544t-501 -190h-593v1444zM502 1162v-880h187q186 0 284.5 114t98.5 332q0 207 -101 320.5t-282 113.5h-187z" />
    <glyph glyph-name="ddotbelow" unicode="&#x1e0d;" horiz-adv-x="1334" 
d="M691 -423q-77 0 -123 40t-46 104t46 104t123 40t123 -40t46 -104t-46 -104t-123 -40zM505 -17q-208 0 -327.5 153.5t-119.5 420.5q0 265 119.5 417.5t328.5 152.5q111 0 197 -52t128 -144h18v597h334v-1528h-324v173h-19q-43 -90 -131 -140t-204 -50zM625 861
q-105 0 -165 -81.5t-60 -224.5t59.5 -224.5t165.5 -81.5t166.5 81t60.5 224t-60.5 225t-166.5 82z" />
    <glyph glyph-name="Dlinebelow" unicode="&#x1e0e;" horiz-adv-x="1530" 
d="M1032 -415h-770v192h770v-192zM156 1444h593q323 0 499.5 -185.5t176.5 -524.5q0 -354 -175 -544t-501 -190h-593v1444zM502 1162v-880h187q186 0 284.5 114t98.5 332q0 207 -101 320.5t-282 113.5h-187z" />
    <glyph glyph-name="dlinebelow" unicode="&#x1e0f;" horiz-adv-x="1334" 
d="M1076 -415h-770v192h770v-192zM505 -17q-208 0 -327.5 153.5t-119.5 420.5q0 265 119.5 417.5t328.5 152.5q111 0 197 -52t128 -144h18v597h334v-1528h-324v173h-19q-43 -90 -131 -140t-204 -50zM625 861q-105 0 -165 -81.5t-60 -224.5t59.5 -224.5t165.5 -81.5t166.5 81
t60.5 224t-60.5 225t-166.5 82z" />
    <glyph glyph-name="Dcommaaccent" unicode="&#x1e10;" horiz-adv-x="1530" 
d="M638 -507h-291l143 352h332zM156 1444h593q323 0 499.5 -185.5t176.5 -524.5q0 -354 -175 -544t-501 -190h-593v1444zM502 1162v-880h187q186 0 284.5 114t98.5 332q0 207 -101 320.5t-282 113.5h-187z" />
    <glyph glyph-name="dcommaaccent" unicode="&#x1e11;" horiz-adv-x="1334" 
d="M682 -507h-291l143 352h332zM505 -17q-208 0 -327.5 153.5t-119.5 420.5q0 265 119.5 417.5t328.5 152.5q111 0 197 -52t128 -144h18v597h334v-1528h-324v173h-19q-43 -90 -131 -140t-204 -50zM625 861q-105 0 -165 -81.5t-60 -224.5t59.5 -224.5t165.5 -81.5t166.5 81
t60.5 224t-60.5 225t-166.5 82z" />
    <glyph glyph-name="Dcircumflexbelow" unicode="&#x1e12;" horiz-adv-x="1530" 
d="M156 1444h593q323 0 499.5 -185.5t176.5 -524.5q0 -354 -175 -544t-501 -190h-593v1444zM502 1162v-880h187q186 0 284.5 114t98.5 332q0 207 -101 320.5t-282 113.5h-187zM819 -154l281 -278h-314l-130 148h-18l-130 -148h-314l281 278h344z" />
    <glyph glyph-name="dcircumflexbelow" unicode="&#x1e13;" horiz-adv-x="1334" 
d="M505 -17q-208 0 -327.5 153.5t-119.5 420.5q0 265 119.5 417.5t328.5 152.5q111 0 197 -52t128 -144h18v597h334v-1528h-324v173h-19q-43 -90 -131 -140t-204 -50zM625 861q-105 0 -165 -81.5t-60 -224.5t59.5 -224.5t165.5 -81.5t166.5 81t60.5 224t-60.5 225t-166.5 82
zM863 -154l281 -278h-314l-130 148h-18l-130 -148h-314l281 278h344z" />
    <glyph glyph-name="Emacrongrave" unicode="&#x1e14;" horiz-adv-x="1274" 
d="M1037 1608h-770v190h770v-190zM780 1926h-278l-168 275h309zM1132 282v-282h-978v1443h978v-282h-632v-305h595v-259h-595v-315h632z" />
    <glyph glyph-name="emacrongrave" unicode="&#x1e15;" horiz-adv-x="1231" 
d="M611 893q-91 0 -150 -59t-66 -158h425q-5 101 -60 159t-149 58zM831 323h306q-31 -161 -171 -254.5t-351 -93.5q-262 0 -406.5 150.5t-144.5 422.5q0 273 146 430t400 157q253 0 394 -148t141 -413v-95h-751v-17q1 -114 63 -180t167 -66q80 0 133.5 28t73.5 79zM765 1658
h-272l-260 313h317zM999 1316h-756v192h756v-192z" />
    <glyph glyph-name="Emacronacute" unicode="&#x1e16;" horiz-adv-x="1274" 
d="M1037 1608h-770v190h770v-190zM524 1926l137 275h309l-168 -275h-278zM1132 282v-282h-978v1443h978v-282h-632v-305h595v-259h-595v-315h632z" />
    <glyph glyph-name="emacronacute" unicode="&#x1e17;" horiz-adv-x="1231" 
d="M611 893q-91 0 -150 -59t-66 -158h425q-5 101 -60 159t-149 58zM831 323h306q-31 -161 -171 -254.5t-351 -93.5q-262 0 -406.5 150.5t-144.5 422.5q0 273 146 430t400 157q253 0 394 -148t141 -413v-95h-751v-17q1 -114 63 -180t167 -66q80 0 133.5 28t73.5 79zM477 1658
l215 313h317l-260 -313h-272zM999 1316h-756v192h756v-192z" />
    <glyph glyph-name="Ecircumflexbelow" unicode="&#x1e18;" horiz-adv-x="1274" 
d="M1132 282v-282h-978v1443h978v-282h-632v-305h595v-259h-595v-315h632zM824 -154l281 -278h-314l-130 148h-18l-130 -148h-314l281 278h344z" />
    <glyph glyph-name="ecircumflexbelow" unicode="&#x1e19;" horiz-adv-x="1231" 
d="M611 893q-91 0 -150 -59t-66 -158h425q-5 101 -60 159t-149 58zM831 323h306q-31 -161 -171 -254.5t-351 -93.5q-262 0 -406.5 150.5t-144.5 422.5q0 273 146 430t400 157q253 0 394 -148t141 -413v-95h-751v-17q1 -114 63 -180t167 -66q80 0 133.5 28t73.5 79zM798 -154
l281 -278h-314l-130 148h-18l-130 -148h-314l281 278h344z" />
    <glyph glyph-name="Etildebelow" unicode="&#x1e1a;" horiz-adv-x="1274" 
d="M814 -429q-54 0 -100 19.5t-72 42.5t-59.5 42.5t-64.5 19.5q-82 0 -83 -109h-199q0 142 70 219t184 77q55 0 102.5 -19.5t74 -42.5t58.5 -42.5t62 -19.5q79 0 82 104h199q0 -139 -70.5 -215t-183.5 -76zM1132 282v-282h-978v1443h978v-282h-632v-305h595v-259h-595v-315
h632z" />
    <glyph glyph-name="etildebelow" unicode="&#x1e1b;" horiz-adv-x="1231" 
d="M788 -429q-54 0 -100 19.5t-72 42.5t-59.5 42.5t-64.5 19.5q-82 0 -83 -109h-199q0 142 70 219t184 77q55 0 102.5 -19.5t74 -42.5t58.5 -42.5t62 -19.5q79 0 82 104h199q0 -139 -70.5 -215t-183.5 -76zM611 893q-91 0 -150 -59t-66 -158h425q-5 101 -60 159t-149 58z
M831 323h306q-31 -161 -171 -254.5t-351 -93.5q-262 0 -406.5 150.5t-144.5 422.5q0 273 146 430t400 157q253 0 394 -148t141 -413v-95h-751v-17q1 -114 63 -180t167 -66q80 0 133.5 28t73.5 79z" />
    <glyph glyph-name="Ecedillabreve" unicode="&#x1e1c;" horiz-adv-x="1274" 
d="M838 1926h226q0 -155 -111.5 -250t-300.5 -95t-300.5 95t-111.5 250h226q2 -74 52.5 -118t133.5 -44t133.5 44t52.5 118zM1132 1161h-632v-305h595v-259h-595v-315h632v-282h-377l-43 -104q92 -7 140.5 -53t48.5 -128q0 -99 -72 -153.5t-203 -54.5q-88 0 -148 17v141
q40 -14 114 -14q109 0 109 55q0 29 -28.5 41.5t-94.5 12.5h-61v124l49 116h-412v1443h978v-282z" />
    <glyph glyph-name="ecedillabreve" unicode="&#x1e1d;" horiz-adv-x="1231" 
d="M806 1614h226q0 -159 -111.5 -258t-300.5 -99t-300.5 99t-111.5 258h226q2 -79 52 -125.5t134 -46.5t134 46.5t52 125.5zM395 676h425q-5 101 -60 159t-149 58q-91 0 -150 -59t-66 -158zM1145 479h-751v-17q1 -114 63 -180t167 -66q80 0 133.5 28t73.5 79h306
q-27 -139 -137 -229t-279 -112l-35 -86q92 -7 140.5 -53t48.5 -128q0 -99 -72 -153.5t-203 -54.5q-88 0 -148 17v141q40 -14 114 -14q109 0 109 55q0 29 -28.5 41.5t-94.5 12.5h-61v124l40 95q-223 24 -345 172t-122 397q0 273 146 430t400 157q253 0 394 -148t141 -413v-95
z" />
    <glyph glyph-name="Fdotaccent" unicode="&#x1e1e;" horiz-adv-x="1224" 
d="M648 1581q-76 0 -123.5 47t-47.5 119q0 73 47.5 120.5t123.5 47.5q75 0 122.5 -47.5t47.5 -120.5q0 -72 -47.5 -119t-122.5 -47zM500 0h-346v1443h970v-282h-624v-346h567v-269h-567v-546z" />
    <glyph glyph-name="fdotaccent" unicode="&#x1e1f;" horiz-adv-x="828" 
d="M455 1631q-76 0 -123.5 47t-47.5 119q0 73 47.5 120.5t123.5 47.5q75 0 122.5 -47.5t47.5 -120.5q0 -72 -47.5 -119t-122.5 -47zM192 0v845h-173v251h173v113q0 166 91.5 238t300.5 72q88 0 160 -11v-225q-37 7 -94 7q-68 0 -100.5 -26t-32.5 -81v-87h225v-251h-217v-845
h-333z" />
    <glyph glyph-name="Gmacron" unicode="&#x1e20;" horiz-adv-x="1557" 
d="M1450 597q0 -295 -174 -465t-476 -170q-329 0 -517 203t-188 558q0 350 187 554t509 204q262 0 439 -139t206 -366h-342q-29 100 -109.5 156.5t-193.5 56.5q-160 0 -251.5 -123t-91.5 -339q0 -220 97 -346.5t262 -126.5q132 0 216.5 71.5t90.5 188.5l2 25h-280v243h614
v-185zM1181 1636h-770v192h770v-192z" />
    <glyph glyph-name="gmacron" unicode="&#x1e21;" horiz-adv-x="1322" 
d="M1026 1323h-756v192h756v-192zM851 563q0 138 -61 218t-167 80t-165 -79.5t-59 -218.5t59 -218t165 -79q107 0 167.5 79.5t60.5 217.5zM615 -419q-228 0 -370.5 90.5t-153.5 239.5h326q10 -47 65 -75t142 -28q106 0 165 48t59 134v202h-19q-89 -176 -329 -176
q-205 0 -324.5 148t-119.5 398q0 262 120.5 413.5t330.5 151.5q112 0 200 -52t132 -144h18v179h325v-1100q0 -197 -153.5 -313t-413.5 -116z" />
    <glyph glyph-name="Hdotaccent" unicode="&#x1e22;" horiz-adv-x="1604" 
d="M1432 0h-345v589h-599v-589h-346v1443h346v-572h599v572h345v-1443zM802 1581q-76 0 -123.5 47t-47.5 119q0 73 47.5 120.5t123.5 47.5q75 0 122.5 -47.5t47.5 -120.5q0 -72 -47.5 -119t-122.5 -47z" />
    <glyph glyph-name="hdotaccent" unicode="&#x1e23;" horiz-adv-x="1332" 
d="M116 0v1528h327v-602h19q37 95 131.5 150t215.5 55q185 0 289 -109t104 -309v-713h-334v637q0 106 -52.5 162t-147.5 56q-97 0 -157.5 -61.5t-60.5 -161.5v-632h-334zM297 1666q-76 0 -123.5 47t-47.5 119q0 73 47.5 120.5t123.5 47.5q75 0 122.5 -47.5t47.5 -120.5
q0 -72 -47.5 -119t-122.5 -47z" />
    <glyph glyph-name="Hdotbelow" unicode="&#x1e24;" horiz-adv-x="1604" 
d="M1432 0h-345v589h-599v-589h-346v1443h346v-572h599v572h345v-1443zM802 -423q-77 0 -123 40t-46 104t46 104t123 40t123 -40t46 -104t-46 -104t-123 -40z" />
    <glyph glyph-name="hdotbelow" unicode="&#x1e25;" horiz-adv-x="1332" 
d="M116 0v1528h327v-602h19q37 95 131.5 150t215.5 55q185 0 289 -109t104 -309v-713h-334v637q0 106 -52.5 162t-147.5 56q-97 0 -157.5 -61.5t-60.5 -161.5v-632h-334zM678 -423q-77 0 -123 40t-46 104t46 104t123 40t123 -40t46 -104t-46 -104t-123 -40z" />
    <glyph glyph-name="Hdieresis" unicode="&#x1e26;" horiz-adv-x="1604" 
d="M1432 0h-345v589h-599v-589h-346v1443h346v-572h599v572h345v-1443zM542 1581q-74 0 -121 44.5t-47 114.5q0 71 47 115.5t121 44.5q73 0 120 -45t47 -115t-47 -114.5t-120 -44.5zM1033 1581q-74 0 -121 44.5t-47 114.5t47 115t121 45t121 -45t47 -115t-47 -114.5
t-121 -44.5z" />
    <glyph glyph-name="hdieresis" unicode="&#x1e27;" horiz-adv-x="1332" 
d="M116 0v1528h327v-602h19q37 95 131.5 150t215.5 55q185 0 289 -109t104 -309v-713h-334v637q0 106 -52.5 162t-147.5 56q-97 0 -157.5 -61.5t-60.5 -161.5v-632h-334zM37 1666q-74 0 -121 44.5t-47 114.5q0 71 47 115.5t121 44.5q73 0 120 -45t47 -115t-47 -114.5
t-120 -44.5zM528 1666q-74 0 -121 44.5t-47 114.5t47 115t121 45t121 -45t47 -115t-47 -114.5t-121 -44.5z" />
    <glyph glyph-name="Hcedilla" unicode="&#x1e28;" horiz-adv-x="1604" 
d="M157 1443h346v-572h599v572h345v-1443h-345v589h-599v-582l-47 -112q92 -7 140.5 -53t48.5 -128q0 -99 -71.5 -153.5t-203.5 -54.5q-88 0 -147 17v141q40 -14 114 -14q108 0 108 55q0 29 -28.5 41.5t-94.5 12.5h-60v124l49 117h-154v1443z" />
    <glyph glyph-name="hcedilla" unicode="&#x1e29;" horiz-adv-x="1332" 
d="M133 1528h327v-602h19q37 94 130.5 149.5t216.5 55.5q187 0 290 -110t103 -308v-713h-334v637q0 105 -51.5 161.5t-148.5 56.5t-157.5 -62t-60.5 -161v-625l-51 -119q89 -2 141 -51t52 -130q0 -100 -70.5 -154t-204.5 -54q-91 0 -147 17v142q34 -14 114 -14q108 0 108 53
q0 31 -27.5 43.5t-95.5 12.5h-60v123l55 124h-148v1528z" />
    <glyph glyph-name="Hbrevebelow" unicode="&#x1e2a;" horiz-adv-x="1604" 
d="M390 -99h229q0 -68 49 -109.5t134 -41.5t134 41.5t49 109.5h229q0 -140 -110.5 -232.5t-301.5 -92.5t-301.5 92.5t-110.5 232.5zM1432 0h-345v589h-599v-589h-346v1443h346v-572h599v572h345v-1443z" />
    <glyph glyph-name="hbrevebelow" unicode="&#x1e2b;" horiz-adv-x="1332" 
d="M266 -99h229q0 -68 49 -109.5t134 -41.5t134 41.5t49 109.5h229q0 -140 -110.5 -232.5t-301.5 -92.5t-301.5 92.5t-110.5 232.5zM116 0v1528h327v-602h19q37 95 131.5 150t215.5 55q185 0 289 -109t104 -309v-713h-334v637q0 106 -52.5 162t-147.5 56q-97 0 -157.5 -61.5
t-60.5 -161.5v-632h-334z" />
    <glyph glyph-name="Itildebelow" unicode="&#x1e2c;" horiz-adv-x="652" 
d="M480 0h-346v1443h346v-1443zM488 -429q-54 0 -100 19.5t-72 42.5t-59.5 42.5t-64.5 19.5q-82 0 -83 -109h-199q0 142 70 219t184 77q55 0 102.5 -19.5t74 -42.5t58.5 -42.5t62 -19.5q79 0 82 104h199q0 -139 -70.5 -215t-183.5 -76z" />
    <glyph glyph-name="itildebelow" unicode="&#x1e2d;" horiz-adv-x="587" 
d="M112 0v1110h333v-1110h-333zM278 1247q-87 0 -138.5 42.5t-51.5 111.5q0 70 51 112t139 42t139.5 -42t51.5 -112q0 -69 -51.5 -111.5t-139.5 -42.5zM455 -429q-54 0 -100 19.5t-72 42.5t-59.5 42.5t-64.5 19.5q-82 0 -83 -109h-199q0 142 70 219t184 77q55 0 102.5 -19.5
t74 -42.5t58.5 -42.5t62 -19.5q79 0 82 104h199q0 -139 -70.5 -215t-183.5 -76z" />
    <glyph glyph-name="Idieresisacute" unicode="&#x1e2e;" horiz-adv-x="652" 
d="M480 0h-346v1443h346v-1443zM194 1954l143 247h316l-195 -247h-264zM66 1581q-74 0 -121 44.5t-47 114.5q0 71 47 115.5t121 44.5q73 0 120 -45t47 -115t-47 -114.5t-120 -44.5zM557 1581q-74 0 -121 44.5t-47 114.5t47 115t121 45t121 -45t47 -115t-47 -114.5
t-121 -44.5z" />
    <glyph glyph-name="idieresisacute" unicode="&#x1e2f;" horiz-adv-x="593" 
d="M159 1657l212 324h310l-257 -324h-265zM36 1265q-74 0 -121 44.5t-47 114.5q0 71 47 115.5t121 44.5q73 0 120 -45t47 -115t-47 -114.5t-120 -44.5zM527 1265q-74 0 -121 44.5t-47 114.5t47 115t121 45t121 -45t47 -115t-47 -114.5t-121 -44.5zM115 0v1110h334v-1110
h-334z" />
    <glyph glyph-name="Kacute" unicode="&#x1e30;" horiz-adv-x="1453" 
d="M548 1594l264 323h347l-308 -323h-303zM482 0h-346v1443h346v-628h18l498 628h375l-508 -635l540 -808h-410l-381 581l-132 -164v-417z" />
    <glyph glyph-name="kacute" unicode="&#x1e31;" horiz-adv-x="1232" 
d="M143 1679l264 323h347l-308 -323h-303zM461 688l332 422h375l-404 -477l432 -633h-390l-292 433l-72 -79v-354h-334v1528h334v-840h19z" />
    <glyph glyph-name="Kdotbelow" unicode="&#x1e32;" horiz-adv-x="1453" 
d="M701 -423q-77 0 -123 40t-46 104t46 104t123 40t123 -40t46 -104t-46 -104t-123 -40zM482 0h-346v1443h346v-628h18l498 628h375l-508 -635l540 -808h-410l-381 581l-132 -164v-417z" />
    <glyph glyph-name="kdotbelow" unicode="&#x1e33;" horiz-adv-x="1232" 
d="M647 -423q-77 0 -123 40t-46 104t46 104t123 40t123 -40t46 -104t-46 -104t-123 -40zM461 688l332 422h375l-404 -477l432 -633h-390l-292 433l-72 -79v-354h-334v1528h334v-840h19z" />
    <glyph glyph-name="Klinebelow" unicode="&#x1e34;" horiz-adv-x="1453" 
d="M482 0h-346v1443h346v-628h18l498 628h375l-508 -635l540 -808h-410l-381 581l-132 -164v-417zM1086 -415h-770v192h770v-192z" />
    <glyph glyph-name="klinebelow" unicode="&#x1e35;" horiz-adv-x="1232" 
d="M461 688l332 422h375l-404 -477l432 -633h-390l-292 433l-72 -79v-354h-334v1528h334v-840h19zM1032 -415h-770v192h770v-192z" />
    <glyph glyph-name="Ldotbelow" unicode="&#x1e36;" horiz-adv-x="1218" 
d="M639 -423q-77 0 -123 40t-46 104t46 104t123 40t123 -40t46 -104t-46 -104t-123 -40zM1120 289v-289h-968v1443h346v-1154h622z" />
    <glyph glyph-name="ldotbelow" unicode="&#x1e37;" horiz-adv-x="603" 
d="M301 -423q-77 0 -123 40t-46 104t46 104t123 40t123 -40t46 -104t-46 -104t-123 -40zM118 0v1528h334v-1528h-334z" />
    </font>
</defs>
</svg>
