<svg xmlns="http://www.w3.org/2000/svg" width="13" height="13" viewBox="0 0 13 13">
  <defs>
    <style>
      .cls-1 {
        fill: #999;
        fill-rule: evenodd;
      }
    </style>
  </defs>
  <path class="cls-1" d="M831.7,1091.05a6.431,6.431,0,0,1,1.627,4.25,6.5,6.5,0,0,1-6.5,6.5,6.411,6.411,0,0,1-4.238-1.61l-1.244,1.25a0.53,0.53,0,0,1-.759,0,0.537,0.537,0,0,1,0-.76l1.253-1.26a6.422,6.422,0,0,1-1.511-4.12,6.51,6.51,0,0,1,6.5-6.5,6.443,6.443,0,0,1,4.1,1.5l0.969-.97a0.537,0.537,0,0,1,.76.76Zm-4.872,9.65a5.4,5.4,0,0,0,5.395-5.4,5.317,5.317,0,0,0-1.222-3.37l-7.552,7.55A5.318,5.318,0,0,0,826.831,1100.7Zm0-10.79a5.36,5.36,0,0,0-4.2,8.73l2.57-2.58a0.483,0.483,0,0,1,.2-0.09l1.809-1.81a0.524,0.524,0,0,1,.088-0.21l2.852-2.86A5.291,5.291,0,0,0,826.831,1089.91Z" transform="translate(-820.344 -1088.81)"/>
</svg>
