<svg xmlns="http://www.w3.org/2000/svg" width="5" height="12" viewBox="0 0 5 12">
  <defs>
    <style>
      .cls-1 {
        fill: #999;
        fill-rule: evenodd;
      }
    </style>
  </defs>
  <path class="cls-1" d="M700.856,1031.93a0.517,0.517,0,0,1-.728,0l-1.114-1.13v8.42l1.114-1.12a0.5,0.5,0,0,1,.728,0,0.509,0.509,0,0,1,.151.36,0.514,0.514,0,0,1-.151.37l-1.993,2.02a0.517,0.517,0,0,1-.728,0l-1.993-2.02a0.517,0.517,0,0,1,0-.73,0.5,0.5,0,0,1,.728,0l1.114,1.12v-8.42l-1.114,1.13a0.517,0.517,0,0,1-.728,0,0.529,0.529,0,0,1,0-.74l1.992-2.01a0.488,0.488,0,0,1,.365-0.15h0a0.486,0.486,0,0,1,.365.15l1.992,2.01A0.529,0.529,0,0,1,700.856,1031.93Z" transform="translate(-696 -1029.03)"/>
</svg>
