<svg xmlns="http://www.w3.org/2000/svg" width="21.906" height="28.03" viewBox="0 0 21.906 28.03">
  <defs>
    <style>
      .cls-1 {
        fill: #fff;
        fill-rule: evenodd;
      }
    </style>
  </defs>
  <path class="cls-1" d="M882.735,2770.51a6.109,6.109,0,0,1-6.019-5.21h-8.484a0.987,0.987,0,0,1-.983-0.92l-0.317-4.65a4.686,4.686,0,0,1,2.9-4.32,16.673,16.673,0,0,1,11.194,0,4.7,4.7,0,0,1,2.71,2.95A6.117,6.117,0,0,1,882.735,2770.51Zm-2.38-13.25a14.67,14.67,0,0,0-9.849.01,2.707,2.707,0,0,0-1.609,2.32l0.254,3.74h7.58a6.115,6.115,0,0,1,4.869-4.95A2.625,2.625,0,0,0,880.355,2757.26Zm2.38,1.99a5.135,5.135,0,1,0,5.129,5.14A5.135,5.135,0,0,0,882.735,2759.25Zm-0.227,8.32a0.978,0.978,0,0,1-.725.36h-0.036a0.975,0.975,0,0,1-.714-0.31l-1.615-1.7a0.981,0.981,0,0,1,.035-1.39,0.993,0.993,0,0,1,1.392.03l0.847,0.9,2.858-3.5a0.986,0.986,0,0,1,1.524,1.25Zm-6.992-14.48c-2.605,0-4.725-2.38-4.725-5.31a4.756,4.756,0,1,1,9.45,0C880.241,2750.71,878.122,2753.09,875.516,2753.09Zm0-8.64a3.4,3.4,0,1,0,2.756,3.33A3.091,3.091,0,0,0,875.516,2744.45Z" transform="translate(-866.938 -2742.47)"/>
</svg>
