<svg xmlns="http://www.w3.org/2000/svg" width="36" height="23" viewBox="0 0 36 23">
  <defs>
    <style>
      .cls-1 {
        fill: #fff;
        fill-rule: evenodd;
      }
    </style>
  </defs>
  <path class="cls-1" d="M572.886,2760.55a1.09,1.09,0,1,1,1.111-1.09A1.1,1.1,0,0,1,572.886,2760.55Zm-3.117,2.12h4.225v1.7H568.04v-1.54h-1.974a5.667,5.667,0,0,1-1.832,2.5,2.057,2.057,0,0,1-.959.35,0.444,0.444,0,0,0-.115.01h-0.085a1.875,1.875,0,0,1-.8-0.18,2.936,2.936,0,0,1-.956-0.7l-0.025-.03c-0.022-.02-0.043-0.05-0.065-0.07l-0.014-.02-0.615-.94-0.958-1.46h0l-0.126-.2-1.876-2.88a0.838,0.838,0,0,1,.263-1.17,0.874,0.874,0,0,1,1.2.26l2.035,3.12,1.454,2.24a0.83,0.83,0,0,0,.513.33c0.018,0,.039-0.02.058-0.02a0.674,0.674,0,0,0,.193-0.1,3.681,3.681,0,0,0,.826-1.09c0-.01,0-0.01.006-0.02l-5.391-10.11c-0.7-.05-1.57-0.13-2.073-0.17l-3.179,3.16a4.061,4.061,0,0,1-2.407.91,3.372,3.372,0,0,1-.705-0.08,4.2,4.2,0,0,1-2.546-2.14l-0.233-.47,4.659-5.96a5.089,5.089,0,0,1,3.589-2.15h6.726v0.02l5.414,2.32v-1.69h5.916v1.69h-4.187v14.58Zm-1.729-12.72-5.827-2.5h-6.3a3.549,3.549,0,0,0-2.239,1.49l-3.958,5.07a2.2,2.2,0,0,0,1.122.81,2.033,2.033,0,0,0,1.608-.5l3.614-3.6,0.406,0.03c0.03,0.01,2.966.26,3.435,0.29l0,0.02,5.371,10.08,2.771-.01v-11.18Zm-28.928,6.97a1.09,1.09,0,1,1-1.112,1.09A1.1,1.1,0,0,1,539.112,2756.92Zm4.846-8.24v10.38h1.9l3.816,6.41a1.6,1.6,0,0,0,1.4.84l0.948,1.57a3.615,3.615,0,0,1-.921.12,3.293,3.293,0,0,1-2.919-1.67l-3.312-5.57h-0.915v2.21h-5.943v-1.7h4.213v-14.58h-4.176v-1.7h5.906v1.99h6.92l-1.372,1.7h-5.548Zm7.372,15.11a0.84,0.84,0,0,1,.319-1.16,0.864,0.864,0,0,1,1.181.31l1.44,2.46,0.009,0.02a0.82,0.82,0,0,0,.993.36l0.113,0.2,0.721,1.28a2.347,2.347,0,0,1-1.124.27,2.669,2.669,0,0,1-2.17-1.2l-0.037-.06-0.052-.09h0.006l-0.036-.06Zm3.063-2.46a0.833,0.833,0,0,1,.326-1.15,0.864,0.864,0,0,1,1.179.32l1.714,2.96,0.644,1.12a0.958,0.958,0,0,0,1.266.21l0.618,0.94,0.334,0.51c-0.037.02-.077,0.03-0.126,0.05a3.728,3.728,0,0,1-1.455.34,2.438,2.438,0,0,1-1.761-.74c-0.07-.07-0.139-0.15-0.207-0.23l-0.049-.08-0.32-.53-0.432-.72h0l-0.029-.05Z" transform="translate(-538 -2745)"/>
</svg>
