<svg xmlns="http://www.w3.org/2000/svg" width="24" height="24" viewBox="0 0 24 24">
  <defs>
    <style>
      .cls-1 {
        fill: #fff;
        fill-rule: evenodd;
      }
    </style>
  </defs>
  <path class="cls-1" d="M1194.93,2766.74a11.99,11.99,0,1,1,11.99-11.99A12.005,12.005,0,0,1,1194.93,2766.74Zm-9.97-11.99a9.919,9.919,0,0,0,.61,3.37h2.82a18.473,18.473,0,0,1,0-6.74h-2.82A9.963,9.963,0,0,0,1184.96,2754.75Zm4.13,0a18.2,18.2,0,0,0,.31,3.37h5.03v-6.74h-5.03A18.2,18.2,0,0,0,1189.09,2754.75Zm6.35,3.37h5.02a17.905,17.905,0,0,0,0-6.74h-5.02v6.74Zm6.03,0h2.82a9.614,9.614,0,0,0,0-6.74h-2.82A17.905,17.905,0,0,1,1201.47,2758.12Zm2.4,1.01h-2.61a13.149,13.149,0,0,1-2.09,4.64A10.116,10.116,0,0,0,1203.87,2759.13Zm-6.78,5.35a9.466,9.466,0,0,0,3.14-5.35h-4.79v5.56A10.062,10.062,0,0,0,1197.09,2764.48Zm-4.31,0a9.926,9.926,0,0,0,1.65.21v-5.56h-4.8A9.42,9.42,0,0,0,1192.78,2764.48Zm-2.08-.72a12.753,12.753,0,0,1-2.09-4.63h-2.62A10.025,10.025,0,0,0,1190.7,2763.76Zm-4.71-13.38h2.62a12.727,12.727,0,0,1,2.09-4.64A10,10,0,0,0,1185.99,2750.38Zm6.79-5.36a9.45,9.45,0,0,0-3.15,5.36h4.8v-5.57A9.926,9.926,0,0,0,1192.78,2745.02Zm4.3,0a9.806,9.806,0,0,0-1.64-.21v5.57h4.79A9.415,9.415,0,0,0,1197.08,2745.02Zm2.09,0.72a13.067,13.067,0,0,1,2.09,4.64h2.61A10.024,10.024,0,0,0,1199.17,2745.74Z" transform="translate(-1182.94 -2742.75)"/>
</svg>
