<svg xmlns="http://www.w3.org/2000/svg" width="17.031" height="15" viewBox="0 0 17.031 15">
  <defs>
    <style>
      .cls-1 {
        fill: #666;
        fill-rule: evenodd;
      }
    </style>
  </defs>
  <path class="cls-1" d="M197.349,37.018H181.626a0.66,0.66,0,0,1,0-1.321h15.723A0.66,0.66,0,0,1,197.349,37.018Zm-0.46-8.508h-1.22V33.8h0.39a0.661,0.661,0,0,1,0,1.321H182.916a0.661,0.661,0,0,1,0-1.321h0.39V28.51h-1.219a0.645,0.645,0,0,1-.616-0.465,0.667,0.667,0,0,1,.252-0.74l7.4-5.184a0.633,0.633,0,0,1,.728,0l7.4,5.184a0.669,0.669,0,0,1,.252.74A0.646,0.646,0,0,1,196.889,28.51ZM192.9,33.8h1.478V28.51H192.9V33.8Zm-2.768,0h1.478V28.51h-1.478V33.8Zm-2.769,0h1.479V28.51h-1.479V33.8Zm-2.768,0h1.478V28.51H184.6V33.8Zm4.892-10.333-5.315,3.723H194.8Z" transform="translate(-180.969 -22.031)"/>
</svg>
