<svg xmlns="http://www.w3.org/2000/svg" width="17.969" height="15" viewBox="0 0 17.969 15">
  <defs>
    <style>
      .cls-1 {
        fill: #fff;
        fill-rule: evenodd;
      }
    </style>
  </defs>
  <path class="cls-1" d="M779.211,217H762.746a0.753,0.753,0,0,1-.76-0.748V202.744a0.754,0.754,0,0,1,.76-0.748h16.465a0.754,0.754,0,0,1,.76.748v13.508A0.753,0.753,0,0,1,779.211,217Zm-0.76-13.508H763.506v6.369l3.056-3.107,5.033,5.33,3.683-2.417,3.173,2.677v-8.852Zm0,10.76a0.759,0.759,0,0,1-.233-0.134l-3.055-2.577-3.8,2.494-4.822-5.107-3.034,3.083V215.5h14.945v-1.252Zm-6.568-4.834a2.682,2.682,0,1,1,2.724-2.682A2.707,2.707,0,0,1,771.883,209.418Zm0-3.868a1.186,1.186,0,1,0,1.2,1.186A1.2,1.2,0,0,0,771.883,205.55Z" transform="translate(-762 -202)"/>
</svg>
