<svg xmlns="http://www.w3.org/2000/svg" width="17.656" height="17" viewBox="0 0 17.656 17">
  <defs>
    <style>
      .cls-1 {
        fill: #333;
        fill-rule: evenodd;
      }
    </style>
  </defs>
  <path class="cls-1" d="M547.571,27.443l-4.85,4.937V36.4a1.567,1.567,0,0,1-1.551,1.578h-9.488a1.566,1.566,0,0,1-1.549-1.578V23.446a0.64,0.64,0,0,1,.021-0.107c-0.007-.071-0.021-0.141-0.021-0.214a2.123,2.123,0,0,1,2.1-2.142h9.806a0.693,0.693,0,0,1,0,1.385h-9.806a0.756,0.756,0,0,0,0,1.511h8.8a0.589,0.589,0,0,1,.067.014,0.6,0.6,0,0,1,.064-0.013,1.567,1.567,0,0,1,1.551,1.578v0.21l1.554-1.582a0.692,0.692,0,0,1,.962,0l2.334,2.376A0.7,0.7,0,0,1,547.571,27.443Zm-6.211-1.984a0.191,0.191,0,0,0-.19-0.192,0.656,0.656,0,0,1-.068-0.014c-0.022,0-.041.013-0.063,0.013h-8.8a2.053,2.053,0,0,1-.742-0.144V36.4a0.189,0.189,0,0,0,.189.192h9.488a0.191,0.191,0,0,0,.19-0.192V33.765l-1.183,1.2a0.674,0.674,0,0,1-.441.2l-2.479.149-0.039,0a0.673,0.673,0,0,1-.481-0.2,0.7,0.7,0,0,1-.2-0.531l0.146-2.525a0.7,0.7,0,0,1,.2-0.449l4.477-4.559v-1.6Zm2.438,1.073-5.77,5.875L538,32.938a1.227,1.227,0,0,1,.867.9L539.4,33.8l5.772-5.876Zm0.958-.976-0.477.486,1.372,1.4,0.477-.486Zm-11.818,3.819a0.343,0.343,0,0,1,.341-0.347h4.167a0.347,0.347,0,0,1,0,.693h-4.167A0.343,0.343,0,0,1,532.938,29.375Zm4.508-1.559h-4.167a0.346,0.346,0,0,1,0-.693h4.167A0.346,0.346,0,0,1,537.446,27.817Z" transform="translate(-530.125 -20.969)"/>
</svg>
