<svg xmlns="http://www.w3.org/2000/svg" width="20.843" height="16" viewBox="0 0 20.843 16">
  <defs>
    <style>
      .cls-1 {
        fill: #fff;
        fill-rule: evenodd;
      }
    </style>
  </defs>
  <path class="cls-1" d="M326.224,1335.2a0.711,0.711,0,1,1,0,1.42,0.711,0.711,0,1,1,0-1.42h0Zm-12.255-2.93h-2.651v0.39h2.5l0.15-.39h0Zm-3.611.39h-0.614a0.79,0.79,0,0,0-.8.77v11.72a0.782,0.782,0,0,0,.8.76H328.99a0.783,0.783,0,0,0,.8-0.76v-11.72a0.791,0.791,0,0,0-.8-0.77h-4.075l-0.848-2.21a0.8,0.8,0,0,0-.775-0.55h-7.854a0.8,0.8,0,0,0-.751.5l-0.364.95h-3.487a0.472,0.472,0,0,0-.478.46v0.85h0Zm9.01,3.04h0a2.759,2.759,0,0,1,1.9.74,2.515,2.515,0,0,1,.794,1.82,2.7,2.7,0,1,1-2.695-2.56h0Zm1.224,1.39h0a1.616,1.616,0,0,1,.5,1.17,1.735,1.735,0,1,1-1.73-1.65,1.8,1.8,0,0,1,1.224.48h0Zm-6.215-2.9h-3.831v10.2h17.641v-10.2h-3.833a0.793,0.793,0,0,1-.751-0.5l-0.869-2.27H316l-0.848,2.21a0.8,0.8,0,0,1-.774.56h0Zm4.988-1.19h0a5.262,5.262,0,1,1-5.532,5.26,5.412,5.412,0,0,1,5.532-5.26h0Zm0,1.52h0a3.74,3.74,0,1,1-3.93,3.74,3.847,3.847,0,0,1,3.93-3.74h0Z" transform="translate(-308.938 -1329.91)"/>
</svg>
