<svg xmlns="http://www.w3.org/2000/svg" width="18" height="18" viewBox="0 0 18 18">
  <defs>
    <style>
      .cls-1 {
        fill: #fff;
        fill-rule: evenodd;
      }
    </style>
  </defs>
  <path class="cls-1" d="M980,218.992A8.993,8.993,0,1,1,989,210,9.005,9.005,0,0,1,980,218.992Zm0-16.471A7.478,7.478,0,1,0,987.487,210,7.489,7.489,0,0,0,980,202.521Zm1.921,9.108a0.555,0.555,0,0,1-.29.29l-4.976,2.167a0.571,0.571,0,0,1-.225.047,0.563,0.563,0,0,1-.516-0.787l2.158-4.965h0l0-.012s0.006,0,.008-0.008a0.554,0.554,0,0,1,.11-0.165,0.566,0.566,0,0,1,.164-0.109s0-.007.009-0.009l4.979-2.165a0.562,0.562,0,0,1,.74.74Zm-1.5-.411-1.644-1.644-1.266,2.91Zm-0.849-2.439,1.644,1.643,1.266-2.909Z" transform="translate(-971 -201)"/>
</svg>
