<svg xmlns="http://www.w3.org/2000/svg" width="16.344" height="17" viewBox="0 0 16.344 17">
  <defs>
    <style>
      .cls-1 {
        fill: #333;
        fill-rule: evenodd;
      }
    </style>
  </defs>
  <path class="cls-1" d="M650.671,27.158a0.34,0.34,0,0,1-.336-0.344,7.073,7.073,0,0,0-6.977-7.151,0.344,0.344,0,0,1,0-.689,7.755,7.755,0,0,1,7.649,7.84A0.34,0.34,0,0,1,650.671,27.158Zm-2.146,2.191a0.7,0.7,0,0,1,.085.562,0.679,0.679,0,0,1-.357.437l-6.111,3.011a0.66,0.66,0,0,1-.291.068,0.651,0.651,0,0,1-.36-0.122l-0.856.878a1.135,1.135,0,0,0,1.4.263,0.66,0.66,0,0,1,.95,0,0.7,0.7,0,0,1,0,.974,1.9,1.9,0,0,1-1.386.564,2.965,2.965,0,0,1-2-.889A3.181,3.181,0,0,1,635.6,34.6a3.411,3.411,0,0,1,0-4.739l1.257-1.287a0.7,0.7,0,0,1-.047-0.672l2.937-6.266a0.676,0.676,0,0,1,.426-0.365,0.657,0.657,0,0,1,.548.088A27.393,27.393,0,0,1,648.525,29.349Zm-11.97,1.483a2.006,2.006,0,0,0,0,2.792,1.936,1.936,0,0,0,2.725,0l1.369-1.4a14.81,14.81,0,0,0-2.723-2.791Zm4.07-7.884-2.349,5.013a16.185,16.185,0,0,1,3.8,3.9l4.891-2.409A25.944,25.944,0,0,0,640.625,22.949Zm7.563,3.865a4.9,4.9,0,0,0-4.83-4.95,0.344,0.344,0,0,1,0-.689,5.577,5.577,0,0,1,5.5,5.638A0.336,0.336,0,1,1,648.188,26.814Z" transform="translate(-634.656 -18.969)"/>
</svg>
