<svg xmlns="http://www.w3.org/2000/svg" width="15.688" height="18" viewBox="0 0 15.688 18">
  <defs>
    <style>
      .cls-1 {
        fill: #fff;
        fill-rule: evenodd;
      }
    </style>
  </defs>
  <path class="cls-1" d="M602.588,216.5a0.749,0.749,0,0,1-.634.372l-2.125.048-1.165,1.754a0.751,0.751,0,0,1-.628.336H598.01a0.755,0.755,0,0,1-.63-0.382l-2.543-4.523-2.544,4.523a0.756,0.756,0,0,1-.63.382h-0.027a0.756,0.756,0,0,1-.629-0.336l-1.163-1.754-2.125-.048a0.749,0.749,0,0,1-.635-0.372,0.737,0.737,0,0,1,0-.73l2.557-4.548a6.31,6.31,0,0,1-1.3-3.815,6.5,6.5,0,0,1,13,0,6.284,6.284,0,0,1-1.3,3.809l2.561,4.554A0.732,0.732,0,0,1,602.588,216.5ZM589,215.42l1.276,0.029a0.751,0.751,0,0,1,.611.334l0.7,1.054,1.791-3.184a6.475,6.475,0,0,1-2.648-1.309Zm5.841-12.948a4.938,4.938,0,1,0,5,4.938A4.976,4.976,0,0,0,594.837,202.472Zm4.107,9.866a6.489,6.489,0,0,1-2.645,1.313l1.79,3.186,0.7-1.054a0.751,0.751,0,0,1,.612-0.334l1.275-.029Zm-4.107-1.228a3.7,3.7,0,1,1,3.747-3.7A3.728,3.728,0,0,1,594.837,211.11Zm0-6.659a2.959,2.959,0,1,0,3,2.959A2.981,2.981,0,0,0,594.837,204.451Z" transform="translate(-587 -201)"/>
</svg>
