<svg xmlns="http://www.w3.org/2000/svg" width="16.468" height="15" viewBox="0 0 16.468 15">
  <defs>
    <style>
      .cls-1 {
        fill: #333;
        fill-rule: evenodd;
      }
    </style>
  </defs>
  <path class="cls-1" d="M281.52,38c-0.2,0-.4-0.008-0.6-0.022a0.713,0.713,0,0,1-.261-1.349,4.278,4.278,0,0,0,1.532-1.239A6.563,6.563,0,0,1,278.2,29.67c0-3.68,3.688-6.675,8.221-6.675s8.22,3,8.22,6.675-3.687,6.675-8.22,6.675c-0.107,0-.214,0-0.319-0.008A6.675,6.675,0,0,1,281.52,38h0Zm4.9-13.579c-3.753,0-6.806,2.356-6.806,5.251,0,1.987,1.508,3.84,3.843,4.719a0.713,0.713,0,0,1,.384.985l-0.04.085a3.029,3.029,0,0,1-.14.271,5.382,5.382,0,0,1-.42.608,4.662,4.662,0,0,0,2.081-1.224,0.726,0.726,0,0,1,.551-0.215c0.18,0.011.362,0.022,0.547,0.022,3.753,0,6.806-2.356,6.806-5.251s-3.053-5.251-6.806-5.251h0Z" transform="translate(-278.188 -23)"/>
</svg>
