<svg xmlns="http://www.w3.org/2000/svg" width="14" height="18" viewBox="0 0 14 18">
  <defs>
    <style>
      .cls-1 {
        fill: #fff;
        fill-rule: evenodd;
      }
    </style>
  </defs>
  <path id="Shape_5_copy" data-name="Shape 5 copy" class="cls-1" d="M486.785,1348.98l-4.586,4.8a0.745,0.745,0,0,1-.541.23h-7.9a0.784,0.784,0,0,1-.764-0.8v-16.42a0.784,0.784,0,0,1,.764-0.8h12.485a0.784,0.784,0,0,1,.764.8v11.62A0.835,0.835,0,0,1,486.785,1348.98Zm-4.745,2.7,2.742-2.87H482.04v2.87Zm3.44-14.09H474.525v14.82h6.751v-4a0.392,0.392,0,0,1,.382-0.4h3.822v-10.42Zm-9.523,6.1a0.392,0.392,0,0,1,.382-0.4h7.453a0.4,0.4,0,0,1,0,.8h-7.453A0.392,0.392,0,0,1,475.957,1343.69Zm7.835-1.53h-7.453a0.4,0.4,0,0,1,0-.8h7.453A0.4,0.4,0,0,1,483.792,1342.16Zm-2.962-1.94h-4.491a0.4,0.4,0,0,1,0-.8h4.491A0.4,0.4,0,0,1,480.83,1340.22Zm-4.491,5h3.122a0.4,0.4,0,0,1,0,.8h-3.122A0.4,0.4,0,0,1,476.339,1345.22Z" transform="translate(-473 -1336)"/>
</svg>
