<svg xmlns="http://www.w3.org/2000/svg" width="21" height="21" viewBox="0 0 21 21">
  <defs>
    <style>
      .cls-1 {
        fill: #fff;
        fill-rule: evenodd;
      }
    </style>
  </defs>
  <path id="Shape_17_copy" data-name="Shape 17 copy" class="cls-1" d="M960.505,1356.99A10.49,10.49,0,1,1,971,1346.5,10.508,10.508,0,0,1,960.505,1356.99Zm0-19.22a8.725,8.725,0,1,0,8.73,8.73A8.742,8.742,0,0,0,960.505,1337.77Zm2.241,10.63a0.673,0.673,0,0,1-.339.34l-5.805,2.53a0.79,0.79,0,0,1-.262.05,0.64,0.64,0,0,1-.465-0.19,0.664,0.664,0,0,1-.137-0.73l2.517-5.79h0l0.006-.01a0.608,0.608,0,0,1,.34-0.34l5.808-2.53a0.658,0.658,0,0,1,.728.14,0.651,0.651,0,0,1,.136.72Zm-1.746-.48-1.918-1.92-1.476,3.4Zm-0.99-2.85,1.918,1.92,1.478-3.39Z" transform="translate(-950 -1336)"/>
</svg>
