<svg xmlns="http://www.w3.org/2000/svg" width="19.656" height="19.9" viewBox="0 0 19.656 19.9">
  <defs>
    <style>
      .cls-1 {
        fill: #fff;
        fill-rule: evenodd;
      }
    </style>
  </defs>
  <path class="cls-1" d="M799.522,1334.45a5.51,5.51,0,0,1,5.464,4.57,4.648,4.648,0,0,1,1.3-.19,4.436,4.436,0,0,1,3.113,1.26,4.229,4.229,0,0,1,.1,5.98l1.049,1.02a4.594,4.594,0,0,1,1.05,1.52h0a4.657,4.657,0,0,1,.358,1.81v1.27a1.675,1.675,0,0,1-.312.97,1.373,1.373,0,0,1-.942.56H809.6v0.35a0.8,0.8,0,0,1-.807.78H796.223a0.8,0.8,0,0,1-.808-0.78v-0.71h-1.578a0.965,0.965,0,0,1-.169-0.01,1.513,1.513,0,0,1-.99-0.63,1.919,1.919,0,0,1-.358-1.12v-1.67a5.677,5.677,0,0,1,1.778-4.2l0.043-.03,1.509-1.48-0.037-.04h0a5.344,5.344,0,0,1-1.621-3.82,5.486,5.486,0,0,1,5.533-5.41h0Zm8.457,18.33h0v-2.53a0.484,0.484,0,0,1,.967,0v1.39h1.4v-1.22a3,3,0,0,0-.232-1.2h0v-0.01a3.24,3.24,0,0,0-.705-1.01l-1.217-1.19a4.551,4.551,0,0,1-1.81.43,5.841,5.841,0,0,1,.338,1.99v1.67a1.954,1.954,0,0,1-.357,1.12,1.563,1.563,0,0,1-.734.56h2.349Zm-3-12.06h0l-0.008.05-0.006.03,0,0.01,0,0.01-0.049.23,0,0.02v0.01l-0.006.02,0,0.02a5.488,5.488,0,0,1-1.469,2.56h-0.006l-0.034.04,1.549,1.51h0.006c0.157,0.16.306,0.32,0.444,0.49,0.111,0.03.226,0.06,0.344,0.08v0.01a3.135,3.135,0,0,0,.555.05,2.81,2.81,0,0,0,1.967-.8h0.006a2.684,2.684,0,0,0-.006-3.86,2.81,2.81,0,0,0-1.967-.8,2.887,2.887,0,0,0-.842.13,2.54,2.54,0,0,0-.464.19h0Zm-8.926,10.57h0v-2.09a0.484,0.484,0,0,1,.968,0v2.8l0,0.07v0.71h4.983v-3.58a0.484,0.484,0,0,1,.968,0v2.09h2.088a0.429,0.429,0,0,0,.04-0.19v-1.67a4.247,4.247,0,0,0-.326-1.68h0a4.129,4.129,0,0,0-.516-0.88h0l-0.014-.02h0l-0.008-.01-0.009-.01a3.968,3.968,0,0,0-.43-0.48v-0.01l-1.73-1.69a5.647,5.647,0,0,1-5.106,0l-1.692,1.66-0.034.04a4.059,4.059,0,0,0-1.307,3.08v1.67a0.43,0.43,0,0,0,.038.19h2.085Zm3.465-15.26h0a3.826,3.826,0,1,0,3.915,3.83,3.885,3.885,0,0,0-3.915-3.83h0Z" transform="translate(-792.313 -1334.44)"/>
</svg>
