<svg xmlns="http://www.w3.org/2000/svg" width="16.468" height="15" viewBox="0 0 16.468 15">
  <defs>
    <style>
      .cls-1 {
        fill: #fff;
        fill-rule: evenodd;
      }
    </style>
  </defs>
  <path id="Shape_4_copy" data-name="Shape 4 copy" class="cls-1" d="M634.52,1354c-0.2,0-.4-0.01-0.6-0.02a0.719,0.719,0,0,1-.644-0.58,0.709,0.709,0,0,1,.383-0.77,4.315,4.315,0,0,0,1.532-1.24,6.568,6.568,0,0,1-3.986-5.72c0-3.68,3.688-6.67,8.221-6.67s8.22,2.99,8.22,6.67-3.687,6.68-8.22,6.68c-0.107,0-.214-0.01-0.319-0.01a6.687,6.687,0,0,1-4.584,1.66h0Zm4.9-13.58c-3.753,0-6.806,2.36-6.806,5.25,0,1.99,1.508,3.84,3.843,4.72a0.705,0.705,0,0,1,.384.98l-0.04.09c-0.043.09-.087,0.18-0.14,0.27a6.368,6.368,0,0,1-.42.61,4.688,4.688,0,0,0,2.081-1.23,0.739,0.739,0,0,1,.551-0.21c0.18,0.01.362,0.02,0.547,0.02,3.753,0,6.806-2.35,6.806-5.25s-3.053-5.25-6.806-5.25h0Z" transform="translate(-631.188 -1339)"/>
</svg>
