<svg xmlns="http://www.w3.org/2000/svg" width="19.625" height="15" viewBox="0 0 19.625 15">
  <defs>
    <style>
      .cls-1 {
        fill: #fff;
        fill-rule: evenodd;
      }
    </style>
  </defs>
  <path class="cls-1" d="M398.885,213.019V203.007h11.736v10.012H398.885ZM409,204.641H400.51v6.745H409v-6.745ZM399.52,214h4.455a0.817,0.817,0,0,1,0,1.633H399.52A0.817,0.817,0,0,1,399.52,214Zm-3.313,4.012a2.079,2.079,0,1,1,2.068-2.079A2.073,2.073,0,0,1,396.207,218.012Zm0-2.759a0.68,0.68,0,1,0,.677.68A0.678,0.678,0,0,0,396.207,215.253Zm-2.9.382h-2.3v-4.8l2.33-4.593h4.472v7.251A2.91,2.91,0,0,0,393.309,215.635Zm2.882-7.762H394.34l-1.7,3.352v1.88a4.517,4.517,0,0,1,3.552-1.734v-3.5Zm11.265,5.981a2.079,2.079,0,1,1-2.066,2.079A2.072,2.072,0,0,1,407.456,213.854Zm0,2.759a0.68,0.68,0,1,0-.675-0.68A0.679,0.679,0,0,0,407.456,216.613ZM352,207" transform="translate(-391 -203)"/>
</svg>
