<svg xmlns="http://www.w3.org/2000/svg" width="24" height="24" viewBox="0 0 24 24">
  <defs>
    <style>
      .cls-1 {
        fill: #76b828;
        fill-rule: evenodd;
      }
    </style>
  </defs>
  <path class="cls-1" d="M182,2145.72v5.56l-2.612.65c-0.1.27-.2,0.53-0.322,0.78l1.384,2.31-3.932,3.93-2.307-1.38c-0.255.11-.515,0.22-0.78,0.32l-0.653,2.61h-5.562l-0.651-2.61c-0.265-.1-0.526-0.21-0.781-0.32l-2.307,1.38-3.932-3.93,1.384-2.31q-0.177-.375-0.321-0.78l-2.612-.65v-5.56l2.611-.65c0.1-.27.2-0.53,0.322-0.78l-1.383-2.31,3.932-3.93,2.305,1.38a7.64,7.64,0,0,1,.782-0.32l0.652-2.61h5.562l0.652,2.61a7.532,7.532,0,0,1,.781.32l2.306-1.38,3.932,3.93-1.383,2.31c0.118,0.25.226,0.51,0.322,0.78Zm-4.068-3.43-1.724-1.72-1.926,1.15-0.5-.27a8.416,8.416,0,0,0-1.475-.61l-0.545-.16-0.545-2.18h-2.438l-0.545,2.18-0.544.16a8.468,8.468,0,0,0-1.477.61l-0.5.27-1.924-1.15-1.724,1.72,1.154,1.93-0.269.5a7.847,7.847,0,0,0-.609,1.47l-0.164.55-2.18.54v2.44l2.182,0.54,0.163,0.55a7.777,7.777,0,0,0,.608,1.47l0.269,0.5-1.155,1.93,1.724,1.72,1.926-1.15,0.5,0.27a7.8,7.8,0,0,0,1.474.6l0.545,0.17,0.545,2.18h2.438l0.546-2.18,0.544-.16a8.291,8.291,0,0,0,1.475-.61l0.5-.27,1.926,1.15,1.724-1.72-1.155-1.93,0.269-.5a7.715,7.715,0,0,0,.609-1.47l0.163-.55,2.182-.54v-2.44l-2.18-.54-0.164-.55a7.706,7.706,0,0,0-.609-1.47l-0.27-.51ZM170,2154.51a6.005,6.005,0,1,1,6.006-6.01A6.018,6.018,0,0,1,170,2154.51Zm-1-9.87A4,4,0,0,0,166,2148.5a3.953,3.953,0,0,0,.6,2.08l2.406-2.45v-3.49Zm2,0v2.86h2.864A3.992,3.992,0,0,0,171,2144.64Zm-0.539,4.86-2.428,2.47a3.951,3.951,0,0,0,5.831-2.47h-3.4Z" transform="translate(-158 -2136.5)"/>
</svg>
