<svg xmlns="http://www.w3.org/2000/svg" width="23" height="24" viewBox="0 0 23 24">
  <defs>
    <style>
      .cls-1 {
        fill: #76b828;
        fill-rule: evenodd;
      }
    </style>
  </defs>
  <path class="cls-1" d="M499.5,2159.5h-10a0.971,0.971,0,0,1-.7-0.29l-3.709-3.63H483.5v-2h2a1.014,1.014,0,0,1,.7.29l3.709,3.63H499.5a1,1,0,0,0,0-2h-4.78c-0.035.04-.062,0.08-0.1,0.12a3,3,0,0,1-4.242,0l-1.5-1.5,1.414-1.41,1.5,1.5a1,1,0,0,0,1.414-1.42l-3.207-3.2h-6.5v-2h6.914a0.985,0.985,0,0,1,.707.29l3.5,3.5a2.971,2.971,0,0,1,.879,2.12h4A3,3,0,0,1,499.5,2159.5Zm-2-9a4,4,0,1,1,4-4A4,4,0,0,1,497.5,2150.5Zm0-6a2,2,0,1,0,2,2A2,2,0,0,0,497.5,2144.5Zm0-9h2v4h-2v-4Zm-3,3h2v3h-2v-3Zm-15,17.08h1v-6.99h-1v-2h3v10.99h-3v-2Z" transform="translate(-479.5 -2135.5)"/>
</svg>
