<svg xmlns="http://www.w3.org/2000/svg" width="23" height="17" viewBox="0 0 23 17">
  <defs>
    <style>
      .cls-1 {
        fill: #76b828;
        fill-rule: evenodd;
      }
    </style>
  </defs>
  <path class="cls-1" d="M823.547,2148.08l-2.877-3.77a2.318,2.318,0,0,0-1.841-.91H814.8v-1.13a2.289,2.289,0,0,0-2.3-2.27h-9.206a2.29,2.29,0,0,0-2.3,2.27v9.06H814.8v-5.66h4.028l2.877,3.77v3.02h-2.3v1.14a1.151,1.151,0,0,1-2.3,0v-1.14H806.746v1.14a1.151,1.151,0,0,1-2.3,0v-1.14h-3.452v2.27h1.347a3.47,3.47,0,0,0,6.512,0H815a3.47,3.47,0,0,0,6.512,0h0.2a2.29,2.29,0,0,0,2.3-2.27v-3.02A2.274,2.274,0,0,0,823.547,2148.08Zm-11.047.99h-9.206v-6.8H812.5v6.8Z" transform="translate(-801 -2140)"/>
</svg>
