<svg xmlns="http://www.w3.org/2000/svg" width="20.062" height="21.25" viewBox="0 0 20.062 21.25">
  <defs>
    <style>
      .cls-1 {
        fill: #76b828;
        fill-rule: evenodd;
      }
    </style>
  </defs>
  <path class="cls-1" d="M177.045,2362.12h-4.471l0.915-3.2a2.976,2.976,0,0,0-1.428-3.44l-1.063-.59-6.526,6.33a5.068,5.068,0,0,0-1.2,1.9h-4.321v12.99h14.01a4.019,4.019,0,0,0,3.748-2.59l1.953-5.2a6.01,6.01,0,0,0,.382-2.11v-2.09A2,2,0,0,0,177.045,2362.12Zm-14.089,11.99h-2v-8.99h2v8.99Zm14.089-7.9a3.965,3.965,0,0,1-.255,1.4l-1.953,5.21a2.012,2.012,0,0,1-1.874,1.29h-8v-9.3a3,3,0,0,1,.909-2.15l5.433-5.28a0.992,0.992,0,0,1,.265.99l-1.644,5.75h7.124v2.09Z" transform="translate(-158.969 -2354.88)"/>
</svg>
