<svg xmlns="http://www.w3.org/2000/svg" width="24" height="18" viewBox="0 0 24 18">
  <defs>
    <style>
      .cls-1 {
        fill: #76b828;
        fill-rule: evenodd;
      }
    </style>
  </defs>
  <path class="cls-1" d="M815,2367.1l2.7,2.7-1.414,1.41L813,2367.93v-6.43h2v5.6Zm-1,9.4a8.971,8.971,0,0,1-7.463-4H802v-2h10v2h-2.861a6.93,6.93,0,0,0,4.861,2,7,7,0,1,0-5.8-10.92h-2.293A9,9,0,1,1,814,2376.5Zm-13-16h3v2h-3v-2Zm9,7h-3a7.049,7.049,0,0,0,.08,1h-2.021a9.164,9.164,0,0,1-.059-1h-6v-2h11v2Z" transform="translate(-799 -2358.5)"/>
</svg>
