<svg xmlns="http://www.w3.org/2000/svg" width="12.343" height="16" viewBox="0 0 12.343 16">
  <defs>
    <style>
      .cls-1 {
        fill: #333;
        fill-rule: evenodd;
      }
    </style>
  </defs>
  <path class="cls-1" d="M768.291,36.853a0.705,0.705,0,0,1-.712.645H757.144a0.706,0.706,0,0,1-.712-0.643L756.2,33.589a3.281,3.281,0,0,1,2.1-3.025,12.407,12.407,0,0,1,8.108,0,3.269,3.269,0,0,1,2.106,3.03Zm-2.366-4.991a10.965,10.965,0,0,0-7.134,0,1.905,1.905,0,0,0-1.165,1.633l0.184,2.619h9.1L767.1,33.5A1.893,1.893,0,0,0,765.925,31.862Zm-3.5-2.929A3.585,3.585,0,0,1,759,25.211a3.434,3.434,0,1,1,6.845,0A3.585,3.585,0,0,1,762.421,28.932Zm0-6.059a2.191,2.191,0,0,0-2,2.338,2.021,2.021,0,1,0,3.993,0A2.191,2.191,0,0,0,762.421,22.873Z" transform="translate(-756.188 -21.5)"/>
</svg>
