<?xml version="1.0" encoding="utf-8"?>
<!-- Generator: Adobe Illustrator 22.0.0, SVG Export Plug-In . SVG Version: 6.00 Build 0)  -->
<svg version="1.1" id="Layer_1" xmlns="http://www.w3.org/2000/svg" xmlns:xlink="http://www.w3.org/1999/xlink" x="0px" y="0px"
	 viewBox="0 0 113.4 113.4" style="enable-background:new 0 0 113.4 113.4;" xml:space="preserve">
<style type="text/css">
	.st0{fill:#ED1C24;}
	.st1{fill:#FFFFFF;}
	.st2{fill:#FFDD00;}
</style>
<g>
	<circle class="st0" cx="-828.7" cy="56.7" r="48.6"/>
	<g>
		<path class="st1" d="M-858.7,43c0-7.3,5.3-13.1,13.8-13.1c8.5,0,13.9,5.8,13.9,13.1c0,7.2-5.4,12.9-13.9,12.9
			C-853.3,55.9-858.7,50.2-858.7,43z M-850.1,82.2l32.9-51.5h7.6l-33,51.5H-850.1z M-840.4,43c0-3.5-2-4.9-4.5-4.9
			c-2.4,0-4.3,1.4-4.3,4.9c0,3.3,1.9,4.7,4.3,4.7C-842.4,47.7-840.4,46.3-840.4,43z M-828.8,70.2c0-7.3,5.3-13.1,13.8-13.1
			s13.8,5.8,13.8,13.1c0,7.2-5.4,12.9-13.8,12.9S-828.8,77.4-828.8,70.2z M-810.5,70.2c0-3.5-2-4.9-4.5-4.9s-4.4,1.4-4.4,4.9
			c0,3.4,1.9,4.7,4.4,4.7S-810.5,73.6-810.5,70.2z"/>
	</g>
</g>
<g>
	<circle cx="-681.1" cy="56.7" r="48.6"/>
	<g>
		<path class="st2" d="M-701.9,70.1l-4.7-7.8l-4.7,7.8h-9.1l8.6-13.1l-8-12.5h9.1l4.1,7.3l4.1-7.3h9.2l-8,12.4l8.6,13.2H-701.9z"/>
		<path class="st2" d="M-691.7,70.1V44.4h7.8v13.7l8.9-13.7h8v25.6h-7.8V55.5l-9.5,14.5H-691.7z"/>
		<path class="st2" d="M-657.8,70.1V51.2h-6.9v-6.8h21.5v6.8h-6.8v18.9H-657.8z"/>
	</g>
</g>
<g>
	<circle class="st2" cx="-533.5" cy="56.7" r="48.6"/>
	<g>
		<path d="M-558.1,70.1l-9.5-13v13h-7.8V44.4h8l8.9,12.1V44.4h7.8v25.6H-558.1z"/>
		<path d="M-546.8,70.1V44.4h19.4v6.8h-11.7v2.5h11.4v6.8h-11.4v2.8h11.7v6.8H-546.8z"/>
		<path d="M-504.8,70.1l-3.3-14.5l-3.3,14.5h-8.1l-7.3-25.6h8.7l3.3,15.7l3.9-15.7h5.8l3.9,15.7l3.3-15.7h8.7l-7.3,25.6H-504.8z"/>
	</g>
</g>
<g>
	<path d="M-1215.1,38c0-4.1-2.7-7.3-6.5-8.2l6.4-10.1h-11.4l-1.6,2.5c-1.6-1.8-3.9-2.8-6.7-2.8c-1.2,0-2.3,0.2-3.3,0.6
		c-8.5-7.4-19.7-12-31.9-12c-12,0-23,4.4-31.5,11.6h-10.1l-15.9,15.6l10.2,10.6c-0.8,3.5-1.2,7.1-1.2,10.8
		c0,26.8,21.8,48.6,48.6,48.6c26.8,0,48.6-21.8,48.6-48.6c0-3.5-0.4-7-1.1-10.3C-1218.2,45.8-1215.1,42.4-1215.1,38z"/>
	<g>
		<polygon class="st2" points="-1322.5,35.4 -1317,41.1 -1311.6,35.7 -1311.6,55.4 -1301.9,55.4 -1301.9,23.4 -1310.3,23.4 		"/>
		<path class="st2" d="M-1284.2,22.9c-9.6,0-14.2,7.8-14.2,16.5s4.7,16.6,14.2,16.6c9.6,0,14.2-7.9,14.2-16.6
			S-1274.7,22.9-1284.2,22.9z M-1284.2,47.4c-3.1,0-4.5-2.6-4.5-8c0-5.4,1.4-8,4.5-8c3.1,0,4.5,2.5,4.5,8
			C-1279.8,44.8-1281.2,47.4-1284.2,47.4z"/>
		<path class="st2" d="M-1254.1,22.9c-9.6,0-14.2,7.8-14.2,16.5s4.7,16.6,14.2,16.6c9.6,0,14.2-7.9,14.2-16.6
			S-1244.5,22.9-1254.1,22.9z M-1254.1,47.4c-3.1,0-4.5-2.6-4.5-8c0-5.4,1.4-8,4.5-8s4.5,2.5,4.5,8
			C-1249.6,44.8-1251,47.4-1254.1,47.4z"/>
		<path class="st2" d="M-1229.7,27.9c0-2.7-2-4.8-5.1-4.8c-3.1,0-5.1,2.1-5.1,4.8c0,2.7,2,4.8,5.1,4.8
			C-1231.7,32.7-1229.7,30.6-1229.7,27.9z M-1236.5,27.9c0-1.3,0.7-1.8,1.6-1.8c0.9,0,1.7,0.5,1.7,1.8c0,1.2-0.7,1.7-1.7,1.7
			C-1235.8,29.7-1236.5,29.2-1236.5,27.9z"/>
		<polygon class="st2" points="-1224.6,23.4 -1236.8,42.5 -1234,42.5 -1221.8,23.4 		"/>
		<path class="st2" d="M-1223.8,33.2c-3.1,0-5.1,2.1-5.1,4.8c0,2.7,2,4.8,5.1,4.8c3.1,0,5.1-2.1,5.1-4.8
			C-1218.7,35.3-1220.7,33.2-1223.8,33.2z M-1223.8,39.8c-0.9,0-1.6-0.5-1.6-1.7c0-1.3,0.7-1.8,1.6-1.8c0.9,0,1.7,0.5,1.7,1.8
			C-1222.1,39.3-1222.9,39.8-1223.8,39.8z"/>
	</g>
	<g>
		<g>
			<path class="st1" d="M-1289.3,62v1.4h-2.6v5.1h-1.8V62H-1289.3z"/>
			<path class="st1" d="M-1284.6,68.5l-0.3-1.2h-2.1l-0.3,1.2h-1.9l2.1-6.5h2.3l2.1,6.5H-1284.6z M-1285.3,65.9l-0.3-1.1
				c-0.1-0.2-0.1-0.5-0.2-0.9c-0.1-0.4-0.2-0.6-0.2-0.8c0,0.2-0.1,0.4-0.2,0.7c-0.1,0.3-0.3,1-0.5,2H-1285.3z"/>
			<path class="st1" d="M-1277.5,64.1c0,0.7-0.2,1.3-0.6,1.7c-0.4,0.4-1,0.6-1.8,0.6h-0.5v2.1h-1.7V62h2.2c0.8,0,1.4,0.2,1.8,0.5
				C-1277.7,62.9-1277.5,63.4-1277.5,64.1z M-1280.5,64.9h0.3c0.3,0,0.5-0.1,0.6-0.2s0.2-0.4,0.2-0.6c0-0.4-0.2-0.7-0.7-0.7h-0.5
				V64.9z"/>
			<path class="st1" d="M-1272.8,68.5l-0.3-1.2h-2.1l-0.3,1.2h-1.9l2.1-6.5h2.3l2.1,6.5H-1272.8z M-1273.4,65.9l-0.3-1.1
				c-0.1-0.2-0.1-0.5-0.2-0.9c-0.1-0.4-0.2-0.6-0.2-0.8c0,0.2-0.1,0.4-0.2,0.7c-0.1,0.3-0.3,1-0.5,2H-1273.4z"/>
			<path class="st1" d="M-1264.8,68.5h-1.8v-2.6h-2v2.6h-1.8V62h1.8v2.4h2V62h1.8V68.5z"/>
			<path class="st1" d="M-1260.8,68.5h-1.7v-5h-1.6V62h4.9v1.4h-1.6V68.5z"/>
			<path class="st1" d="M-1258.5,62h1.6v2.8c0,0.3,0,0.9-0.1,1.8h0l2.6-4.5h2.2v6.5h-1.5v-2.7c0-0.4,0-1,0.1-1.8h0l-2.6,4.5h-2.2V62
				z"/>
			<path class="st1" d="M-1248.6,66.2l-1.3,2.4h-2l1.8-2.8c-0.3-0.2-0.6-0.4-0.8-0.7c-0.2-0.3-0.3-0.6-0.3-1c0-1.3,0.9-1.9,2.6-1.9
				h2.1v6.5h-1.7v-2.4H-1248.6z M-1248.1,63.4h-0.4c-0.3,0-0.5,0.1-0.7,0.2c-0.2,0.1-0.2,0.3-0.2,0.5c0,0.3,0.1,0.5,0.2,0.6
				s0.4,0.2,0.7,0.2h0.3V63.4z"/>
			<path class="st1" d="M-1300.8,79.4h-1.8v-5h-1.8v5h-1.8v-6.5h5.3V79.4z"/>
			<path class="st1" d="M-1293.5,76.1c0,1.1-0.3,1.9-0.8,2.5c-0.5,0.6-1.3,0.8-2.3,0.8c-1,0-1.8-0.3-2.3-0.9
				c-0.5-0.6-0.8-1.4-0.8-2.5c0-1.1,0.3-1.9,0.8-2.5c0.5-0.6,1.3-0.9,2.3-0.9c1,0,1.8,0.3,2.3,0.8
				C-1293.8,74.2-1293.5,75-1293.5,76.1z M-1298,76.1c0,1.3,0.4,1.9,1.3,1.9c0.4,0,0.8-0.2,1-0.5s0.3-0.8,0.3-1.4
				c0-0.6-0.1-1.1-0.3-1.4c-0.2-0.3-0.5-0.5-1-0.5C-1297.6,74.2-1298,74.9-1298,76.1z"/>
			<path class="st1" d="M-1286.1,81.4h-1.7v-2h-3.8v2h-1.7v-3.4h0.5c0.4-0.7,0.7-1.4,1-2.3c0.3-0.9,0.4-1.8,0.5-2.8h4.3v5h0.9V81.4z
				 M-1288.7,77.9v-3.6h-1.2c-0.1,1.3-0.5,2.5-1,3.6H-1288.7z"/>
			<path class="st1" d="M-1280,79.4h-1.8v-5h-1.2c-0.1,0.7-0.2,1.5-0.3,2.2c-0.1,0.8-0.2,1.3-0.3,1.6c-0.1,0.3-0.2,0.6-0.4,0.7
				c-0.2,0.2-0.4,0.3-0.6,0.4c-0.2,0.1-0.5,0.1-0.8,0.1c-0.3,0-0.5,0-0.7-0.1V78c0.2,0.1,0.3,0.1,0.4,0.1c0.2,0,0.3-0.1,0.4-0.2
				c0.1-0.1,0.2-0.3,0.2-0.7c0.1-0.3,0.2-0.9,0.3-1.7s0.2-1.7,0.3-2.6h4.5V79.4z"/>
			<path class="st1" d="M-1278.8,72.9h1.6v2.8c0,0.3,0,0.9-0.1,1.8h0l2.6-4.5h2.2v6.5h-1.5v-2.7c0-0.4,0-1,0.1-1.8h0l-2.6,4.5h-2.2
				V72.9z"/>
			<path class="st1" d="M-1265.8,79.4h-1.8v-2.6h-2v2.6h-1.8v-6.5h1.8v2.4h2v-2.4h1.8V79.4z"/>
			<path class="st1" d="M-1259.1,79.4h-1.8v-2.6h-2v2.6h-1.8v-6.5h1.8v2.4h2v-2.4h1.8V79.4z"/>
			<path class="st1" d="M-1251.9,76.1c0,1.1-0.3,1.9-0.8,2.5c-0.5,0.6-1.3,0.8-2.3,0.8c-1,0-1.8-0.3-2.3-0.9
				c-0.5-0.6-0.8-1.4-0.8-2.5c0-1.1,0.3-1.9,0.8-2.5c0.5-0.6,1.3-0.9,2.3-0.9c1,0,1.8,0.3,2.3,0.8
				C-1252.1,74.2-1251.9,75-1251.9,76.1z M-1256.3,76.1c0,1.3,0.4,1.9,1.3,1.9c0.4,0,0.8-0.2,1-0.5s0.3-0.8,0.3-1.4
				c0-0.6-0.1-1.1-0.3-1.4c-0.2-0.3-0.5-0.5-1-0.5C-1255.9,74.2-1256.3,74.9-1256.3,76.1z"/>
			<path class="st1" d="M-1248,74.3c-0.4,0-0.7,0.2-1,0.5c-0.2,0.3-0.3,0.8-0.3,1.4c0,1.2,0.5,1.9,1.4,1.9c0.3,0,0.6,0,0.8-0.1
				c0.3-0.1,0.5-0.2,0.8-0.3v1.5c-0.5,0.2-1.2,0.4-1.8,0.4c-1,0-1.7-0.3-2.2-0.8c-0.5-0.6-0.8-1.4-0.8-2.5c0-0.7,0.1-1.3,0.4-1.8
				s0.6-0.9,1.1-1.2c0.5-0.3,1-0.4,1.7-0.4c0.7,0,1.4,0.2,2,0.5l-0.5,1.4c-0.2-0.1-0.5-0.2-0.7-0.3
				C-1247.5,74.3-1247.8,74.3-1248,74.3z"/>
			<path class="st1" d="M-1242.4,79.4h-1.7v-5h-1.6v-1.4h4.9v1.4h-1.6V79.4z"/>
			<path class="st1" d="M-1240.1,72.9h1.6v2.8c0,0.3,0,0.9-0.1,1.8h0l2.6-4.5h2.2v6.5h-1.5v-2.7c0-0.4,0-1,0.1-1.8h0l-2.6,4.5h-2.2
				V72.9z"/>
			<path class="st1" d="M-1284.6,90.3h-1.7v-5h-1.6v-1.4h4.9v1.4h-1.6V90.3z"/>
			<path class="st1" d="M-1276.3,87c0,1.1-0.3,1.9-0.8,2.5c-0.5,0.6-1.3,0.8-2.3,0.8c-1,0-1.8-0.3-2.3-0.9c-0.5-0.6-0.8-1.4-0.8-2.5
				c0-1.1,0.3-1.9,0.8-2.5c0.5-0.6,1.3-0.9,2.3-0.9c1,0,1.8,0.3,2.3,0.8C-1276.6,85.1-1276.3,85.9-1276.3,87z M-1280.8,87
				c0,1.3,0.4,1.9,1.3,1.9c0.4,0,0.8-0.2,1-0.5s0.3-0.8,0.3-1.4c0-0.6-0.1-1.1-0.3-1.4c-0.2-0.3-0.5-0.5-1-0.5
				C-1280.3,85.1-1280.8,85.7-1280.8,87z"/>
			<path class="st1" d="M-1275.4,83.8h2.3c0.9,0,1.5,0.1,2,0.4c0.4,0.3,0.6,0.7,0.6,1.2c0,0.4-0.1,0.7-0.3,0.9
				c-0.2,0.3-0.4,0.4-0.7,0.5v0c0.4,0.1,0.7,0.3,0.9,0.5c0.2,0.2,0.3,0.6,0.3,1c0,0.6-0.2,1-0.7,1.4c-0.4,0.3-1,0.5-1.8,0.5h-2.5
				V83.8z M-1273.6,86.3h0.5c0.3,0,0.4-0.1,0.6-0.2c0.1-0.1,0.2-0.3,0.2-0.5c0-0.4-0.3-0.5-0.8-0.5h-0.5V86.3z M-1273.6,87.5v1.4
				h0.6c0.5,0,0.8-0.2,0.8-0.7c0-0.2-0.1-0.4-0.2-0.5c-0.1-0.1-0.4-0.2-0.6-0.2H-1273.6z"/>
			<path class="st1" d="M-1265.5,90.3l-0.3-1.2h-2.1l-0.3,1.2h-1.9l2.1-6.5h2.3l2.1,6.5H-1265.5z M-1266.2,87.6l-0.3-1.1
				c-0.1-0.2-0.1-0.5-0.2-0.9s-0.2-0.6-0.2-0.8c0,0.2-0.1,0.4-0.2,0.7s-0.3,1-0.5,2H-1266.2z"/>
			<path class="st1" d="M-1258.4,85.8c0,0.7-0.2,1.3-0.6,1.7c-0.4,0.4-1,0.6-1.8,0.6h-0.5v2.1h-1.7v-6.5h2.2c0.8,0,1.4,0.2,1.8,0.5
				C-1258.7,84.7-1258.4,85.2-1258.4,85.8z M-1261.4,86.7h0.3c0.3,0,0.5-0.1,0.6-0.2s0.2-0.4,0.2-0.6c0-0.4-0.2-0.7-0.7-0.7h-0.5
				V86.7z"/>
			<path class="st1" d="M-1253.7,90.3l-0.3-1.2h-2.1l-0.3,1.2h-1.9l2.1-6.5h2.3l2.1,6.5H-1253.7z M-1254.4,87.6l-0.3-1.1
				c-0.1-0.2-0.1-0.5-0.2-0.9s-0.2-0.6-0.2-0.8c0,0.2-0.1,0.4-0.2,0.7s-0.3,1-0.5,2H-1254.4z"/>
		</g>
	</g>
</g>
<g>
	<path d="M-1067.5,38c0-4.1-2.7-7.3-6.5-8.2l6.4-10.1h-11.4l-1.6,2.5c-1.6-1.8-3.9-2.8-6.7-2.8c-1.2,0-2.3,0.2-3.3,0.6
		c-8.5-7.4-19.7-12-31.9-12c-12,0-23,4.4-31.5,11.6h-10.1l-15.9,15.6l10.2,10.6c-0.8,3.5-1.2,7.1-1.2,10.8
		c0,26.8,21.8,48.6,48.6,48.6c26.8,0,48.6-21.8,48.6-48.6c0-3.5-0.4-7-1.1-10.3C-1070.7,45.8-1067.5,42.4-1067.5,38z"/>
	<g>
		<polygon class="st2" points="-1175,35.4 -1169.5,41.1 -1164.1,35.7 -1164.1,55.4 -1154.3,55.4 -1154.3,23.4 -1162.7,23.4 		"/>
		<path class="st2" d="M-1136.7,22.9c-9.6,0-14.2,7.8-14.2,16.5s4.7,16.6,14.2,16.6c9.6,0,14.2-7.9,14.2-16.6
			S-1127.1,22.9-1136.7,22.9z M-1136.7,47.4c-3.1,0-4.5-2.6-4.5-8c0-5.4,1.4-8,4.5-8s4.5,2.5,4.5,8
			C-1132.2,44.8-1133.6,47.4-1136.7,47.4z"/>
		<path class="st2" d="M-1106.5,22.9c-9.6,0-14.2,7.8-14.2,16.5s4.7,16.6,14.2,16.6c9.6,0,14.2-7.9,14.2-16.6
			S-1096.9,22.9-1106.5,22.9z M-1106.5,47.4c-3.1,0-4.5-2.6-4.5-8c0-5.4,1.4-8,4.5-8c3.1,0,4.5,2.5,4.5,8
			C-1102,44.8-1103.4,47.4-1106.5,47.4z"/>
		<path class="st2" d="M-1082.2,27.9c0-2.7-2-4.8-5.1-4.8c-3.1,0-5.1,2.1-5.1,4.8c0,2.7,2,4.8,5.1,4.8
			C-1084.2,32.7-1082.2,30.6-1082.2,27.9z M-1088.9,27.9c0-1.3,0.7-1.8,1.6-1.8c0.9,0,1.7,0.5,1.7,1.8c0,1.2-0.7,1.7-1.7,1.7
			C-1088.2,29.7-1088.9,29.2-1088.9,27.9z"/>
		<path class="st2" d="M-1076.2,33.2c-3.1,0-5.1,2.1-5.1,4.8c0,2.7,2,4.8,5.1,4.8c3.1,0,5.1-2.1,5.1-4.8
			C-1071.1,35.3-1073.1,33.2-1076.2,33.2z M-1076.2,39.8c-0.9,0-1.6-0.5-1.6-1.7c0-1.3,0.7-1.8,1.6-1.8c0.9,0,1.7,0.5,1.7,1.8
			C-1074.6,39.3-1075.3,39.8-1076.2,39.8z"/>
		<polygon class="st2" points="-1077,23.4 -1089.2,42.5 -1086.5,42.5 -1074.2,23.4 		"/>
	</g>
	<g>
		<g>
			<path class="st1" d="M-1141.7,62v1.4h-2.6v5.1h-1.8V62H-1141.7z"/>
			<path class="st1" d="M-1137.1,68.5l-0.3-1.2h-2.1l-0.3,1.2h-1.9l2.1-6.5h2.3l2.1,6.5H-1137.1z M-1137.7,65.9l-0.3-1.1
				c-0.1-0.2-0.1-0.5-0.2-0.9c-0.1-0.4-0.2-0.6-0.2-0.8c0,0.2-0.1,0.4-0.2,0.7c-0.1,0.3-0.3,1-0.5,2H-1137.7z"/>
			<path class="st1" d="M-1130,64.1c0,0.7-0.2,1.3-0.6,1.7c-0.4,0.4-1,0.6-1.8,0.6h-0.5v2.1h-1.7V62h2.2c0.8,0,1.4,0.2,1.8,0.5
				C-1130.2,62.9-1130,63.4-1130,64.1z M-1132.9,64.9h0.3c0.3,0,0.5-0.1,0.6-0.2c0.2-0.1,0.2-0.4,0.2-0.6c0-0.4-0.2-0.7-0.7-0.7
				h-0.5V64.9z"/>
			<path class="st1" d="M-1125.2,68.5l-0.3-1.2h-2.1l-0.3,1.2h-1.9l2.1-6.5h2.3l2.1,6.5H-1125.2z M-1125.9,65.9l-0.3-1.1
				c-0.1-0.2-0.1-0.5-0.2-0.9c-0.1-0.4-0.2-0.6-0.2-0.8c0,0.2-0.1,0.4-0.2,0.7c-0.1,0.3-0.3,1-0.5,2H-1125.9z"/>
			<path class="st1" d="M-1117.3,68.5h-1.8v-2.6h-2v2.6h-1.8V62h1.8v2.4h2V62h1.8V68.5z"/>
			<path class="st1" d="M-1113.3,68.5h-1.7v-5h-1.6V62h4.9v1.4h-1.6V68.5z"/>
			<path class="st1" d="M-1111,62h1.6v2.8c0,0.3,0,0.9-0.1,1.8h0l2.6-4.5h2.2v6.5h-1.5v-2.7c0-0.4,0-1,0.1-1.8h0l-2.6,4.5h-2.2V62z"
				/>
			<path class="st1" d="M-1101.1,66.2l-1.3,2.4h-2l1.8-2.8c-0.3-0.2-0.6-0.4-0.8-0.7s-0.3-0.6-0.3-1c0-1.3,0.9-1.9,2.6-1.9h2.1v6.5
				h-1.7v-2.4H-1101.1z M-1100.5,63.4h-0.4c-0.3,0-0.5,0.1-0.7,0.2c-0.2,0.1-0.2,0.3-0.2,0.5c0,0.3,0.1,0.5,0.2,0.6
				c0.2,0.1,0.4,0.2,0.7,0.2h0.3V63.4z"/>
			<path class="st1" d="M-1139.6,79.4h-2l-1.9-3.3v3.3h-1.8v-6.5h1.8V76l1.8-3.1h1.9l-2,3.1L-1139.6,79.4z"/>
			<path class="st1" d="M-1135.2,79.4l-0.3-1.2h-2.1l-0.3,1.2h-1.9l2.1-6.5h2.3l2.1,6.5H-1135.2z M-1135.9,76.7l-0.3-1.1
				c-0.1-0.2-0.1-0.5-0.2-0.9s-0.2-0.6-0.2-0.8c0,0.2-0.1,0.4-0.2,0.7s-0.3,1-0.5,2H-1135.9z"/>
			<path class="st1" d="M-1127.3,79.4h-1.8V77c-0.7,0.3-1.4,0.4-2,0.4c-0.6,0-1.1-0.2-1.4-0.5s-0.5-0.7-0.5-1.3v-2.7h1.8v2.2
				c0,0.3,0.1,0.5,0.2,0.7s0.3,0.2,0.6,0.2c0.4,0,0.8-0.1,1.4-0.3v-2.7h1.8V79.4z"/>
			<path class="st1" d="M-1122.3,79.4h-3.8v-6.5h3.8v1.4h-2.1v1h1.9v1.4h-1.9V78h2.1V79.4z"/>
			<path class="st1" d="M-1118.5,74.3c-0.4,0-0.7,0.2-1,0.5c-0.2,0.3-0.3,0.8-0.3,1.4c0,1.2,0.5,1.9,1.4,1.9c0.3,0,0.6,0,0.8-0.1
				c0.3-0.1,0.5-0.2,0.8-0.3v1.5c-0.5,0.2-1.1,0.4-1.8,0.4c-1,0-1.7-0.3-2.2-0.8c-0.5-0.6-0.8-1.4-0.8-2.5c0-0.7,0.1-1.3,0.4-1.8
				c0.3-0.5,0.6-0.9,1.1-1.2c0.5-0.3,1-0.4,1.7-0.4c0.7,0,1.4,0.2,2,0.5l-0.5,1.4c-0.2-0.1-0.5-0.2-0.7-0.3
				C-1118,74.3-1118.3,74.3-1118.5,74.3z"/>
			<path class="st1" d="M-1112.9,79.4h-1.7v-5h-1.6v-1.4h4.9v1.4h-1.6V79.4z"/>
			<path class="st1" d="M-1110.6,72.9h2.3c0.9,0,1.5,0.1,2,0.4c0.4,0.3,0.6,0.7,0.6,1.2c0,0.4-0.1,0.7-0.3,0.9
				c-0.2,0.3-0.4,0.4-0.7,0.5v0c0.4,0.1,0.7,0.3,0.9,0.5c0.2,0.2,0.3,0.6,0.3,1c0,0.6-0.2,1-0.7,1.4c-0.4,0.3-1,0.5-1.8,0.5h-2.5
				V72.9z M-1108.9,75.4h0.5c0.3,0,0.4-0.1,0.6-0.2c0.1-0.1,0.2-0.3,0.2-0.5c0-0.4-0.3-0.5-0.8-0.5h-0.5V75.4z M-1108.9,76.7V78h0.6
				c0.5,0,0.8-0.2,0.8-0.7c0-0.2-0.1-0.4-0.2-0.5c-0.1-0.1-0.4-0.2-0.6-0.2H-1108.9z"/>
			<path class="st1" d="M-1100.8,79.4l-0.3-1.2h-2.1l-0.3,1.2h-1.9l2.1-6.5h2.3l2.1,6.5H-1100.8z M-1101.5,76.7l-0.3-1.1
				c-0.1-0.2-0.1-0.5-0.2-0.9s-0.2-0.6-0.2-0.8c0,0.2-0.1,0.4-0.2,0.7s-0.3,1-0.5,2H-1101.5z"/>
			<path class="st1" d="M-1137.1,90.3h-1.7v-5h-1.6v-1.4h4.9v1.4h-1.6V90.3z"/>
			<path class="st1" d="M-1128.8,87c0,1.1-0.3,1.9-0.8,2.5c-0.5,0.6-1.3,0.8-2.3,0.8c-1,0-1.8-0.3-2.3-0.9c-0.5-0.6-0.8-1.4-0.8-2.5
				c0-1.1,0.3-1.9,0.8-2.5s1.3-0.9,2.3-0.9c1,0,1.8,0.3,2.3,0.8C-1129,85.1-1128.8,85.9-1128.8,87z M-1133.2,87
				c0,1.3,0.4,1.9,1.3,1.9c0.4,0,0.8-0.2,1-0.5s0.3-0.8,0.3-1.4c0-0.6-0.1-1.1-0.3-1.4c-0.2-0.3-0.5-0.5-1-0.5
				C-1132.8,85.1-1133.2,85.7-1133.2,87z"/>
			<path class="st1" d="M-1127.8,83.8h2.3c0.9,0,1.5,0.1,2,0.4c0.4,0.3,0.6,0.7,0.6,1.2c0,0.4-0.1,0.7-0.3,0.9
				c-0.2,0.3-0.4,0.4-0.7,0.5v0c0.4,0.1,0.7,0.3,0.9,0.5c0.2,0.2,0.3,0.6,0.3,1c0,0.6-0.2,1-0.7,1.4c-0.4,0.3-1,0.5-1.8,0.5h-2.5
				V83.8z M-1126.1,86.3h0.5c0.3,0,0.4-0.1,0.6-0.2c0.1-0.1,0.2-0.3,0.2-0.5c0-0.4-0.3-0.5-0.8-0.5h-0.5V86.3z M-1126.1,87.5v1.4
				h0.6c0.5,0,0.8-0.2,0.8-0.7c0-0.2-0.1-0.4-0.2-0.5c-0.1-0.1-0.4-0.2-0.6-0.2H-1126.1z"/>
			<path class="st1" d="M-1118,90.3l-0.3-1.2h-2.1l-0.3,1.2h-1.9l2.1-6.5h2.3l2.1,6.5H-1118z M-1118.6,87.6l-0.3-1.1
				c-0.1-0.2-0.1-0.5-0.2-0.9s-0.2-0.6-0.2-0.8c0,0.2-0.1,0.4-0.2,0.7s-0.3,1-0.5,2H-1118.6z"/>
			<path class="st1" d="M-1110.9,85.8c0,0.7-0.2,1.3-0.6,1.7c-0.4,0.4-1,0.6-1.8,0.6h-0.5v2.1h-1.7v-6.5h2.2c0.8,0,1.4,0.2,1.8,0.5
				C-1111.1,84.7-1110.9,85.2-1110.9,85.8z M-1113.8,86.7h0.3c0.3,0,0.5-0.1,0.6-0.2c0.2-0.1,0.2-0.4,0.2-0.6c0-0.4-0.2-0.7-0.7-0.7
				h-0.5V86.7z"/>
			<path class="st1" d="M-1106.1,90.3l-0.3-1.2h-2.1l-0.3,1.2h-1.9l2.1-6.5h2.3l2.1,6.5H-1106.1z M-1106.8,87.6l-0.3-1.1
				c-0.1-0.2-0.1-0.5-0.2-0.9s-0.2-0.6-0.2-0.8c0,0.2-0.1,0.4-0.2,0.7s-0.3,1-0.5,2H-1106.8z"/>
		</g>
	</g>
</g>
<g>
	<path d="M-919.9,38c0-4.1-2.7-7.3-6.5-8.2l6.4-10.1h-11.4l-1.6,2.5c-1.6-1.8-3.9-2.8-6.7-2.8c-1.2,0-2.3,0.2-3.3,0.6
		c-8.5-7.4-19.7-12-31.9-12c-12,0-23,4.4-31.5,11.6h-10.1l-15.9,15.6l10.2,10.6c-0.8,3.5-1.2,7.1-1.2,10.8
		c0,26.8,21.8,48.6,48.6,48.6c26.8,0,48.6-21.8,48.6-48.6c0-3.5-0.4-7-1.1-10.3C-923.1,45.8-919.9,42.4-919.9,38z"/>
	<g>
		<g>
			<path class="st2" d="M-1016.5,55.4V35.7l-5.4,5.4l-5.5-5.7l12.2-12h8.4v32H-1016.5z"/>
			<path class="st2" d="M-1003.3,39.4c0-8.7,4.7-16.5,14.2-16.5c9.6,0,14.2,7.8,14.2,16.5S-979.6,56-989.1,56
				C-998.7,56-1003.3,48.1-1003.3,39.4z M-984.6,39.4c0-5.4-1.4-8-4.5-8c-3.1,0-4.5,2.5-4.5,8c0,5.4,1.4,8,4.5,8
				C-986,47.4-984.6,44.8-984.6,39.4z"/>
			<path class="st2" d="M-973.2,39.4c0-8.7,4.7-16.5,14.2-16.5c9.6,0,14.2,7.8,14.2,16.5S-949.4,56-958.9,56
				C-968.5,56-973.2,48.1-973.2,39.4z M-954.5,39.4c0-5.4-1.4-8-4.5-8c-3.1,0-4.5,2.5-4.5,8c0,5.4,1.4,8,4.5,8
				C-955.9,47.4-954.5,44.8-954.5,39.4z"/>
		</g>
		<path class="st2" d="M-944.8,27.9c0-2.7,2-4.8,5.1-4.8c3.1,0,5.1,2.1,5.1,4.8c0,2.7-2,4.8-5.1,4.8
			C-942.9,32.7-944.8,30.6-944.8,27.9z M-941.7,42.5l12.2-19.1h2.8l-12.2,19.1H-941.7z M-938.1,27.9c0-1.3-0.7-1.8-1.7-1.8
			c-0.9,0-1.6,0.5-1.6,1.8c0,1.2,0.7,1.7,1.6,1.7C-938.8,29.7-938.1,29.2-938.1,27.9z M-933.8,38c0-2.7,2-4.8,5.1-4.8
			c3.1,0,5.1,2.1,5.1,4.8c0,2.7-2,4.8-5.1,4.8C-931.8,42.8-933.8,40.7-933.8,38z M-927,38c0-1.3-0.7-1.8-1.7-1.8
			c-0.9,0-1.6,0.5-1.6,1.8c0,1.3,0.7,1.7,1.6,1.7C-927.8,39.8-927,39.3-927,38z"/>
	</g>
	<g>
		<g>
			<path class="st1" d="M-994.2,62v1.4h-2.6v5.1h-1.8V62H-994.2z"/>
			<path class="st1" d="M-989.5,68.5l-0.3-1.2h-2.1l-0.3,1.2h-1.9l2.1-6.5h2.3l2.1,6.5H-989.5z M-990.2,65.9l-0.3-1.1
				c-0.1-0.2-0.1-0.5-0.2-0.9c-0.1-0.4-0.2-0.6-0.2-0.8c0,0.2-0.1,0.4-0.2,0.7c-0.1,0.3-0.3,1-0.5,2H-990.2z"/>
			<path class="st1" d="M-982.4,64.1c0,0.7-0.2,1.3-0.6,1.7c-0.4,0.4-1,0.6-1.8,0.6h-0.5v2.1h-1.7V62h2.2c0.8,0,1.4,0.2,1.8,0.5
				C-982.6,62.9-982.4,63.4-982.4,64.1z M-985.4,64.9h0.3c0.3,0,0.5-0.1,0.6-0.2c0.2-0.1,0.2-0.4,0.2-0.6c0-0.4-0.2-0.7-0.7-0.7
				h-0.5V64.9z"/>
			<path class="st1" d="M-977.6,68.5l-0.3-1.2h-2.1l-0.3,1.2h-1.9l2.1-6.5h2.3l2.1,6.5H-977.6z M-978.3,65.9l-0.3-1.1
				c-0.1-0.2-0.1-0.5-0.2-0.9c-0.1-0.4-0.2-0.6-0.2-0.8c0,0.2-0.1,0.4-0.2,0.7c-0.1,0.3-0.3,1-0.5,2H-978.3z"/>
			<path class="st1" d="M-969.7,68.5h-1.8v-2.6h-2v2.6h-1.8V62h1.8v2.4h2V62h1.8V68.5z"/>
			<path class="st1" d="M-965.7,68.5h-1.7v-5h-1.6V62h4.9v1.4h-1.6V68.5z"/>
			<path class="st1" d="M-963.4,62h1.6v2.8c0,0.3,0,0.9-0.1,1.8h0l2.6-4.5h2.2v6.5h-1.5v-2.7c0-0.4,0-1,0.1-1.8h0l-2.6,4.5h-2.2V62z
				"/>
			<path class="st1" d="M-953.5,66.2l-1.3,2.4h-2l1.8-2.8c-0.3-0.2-0.6-0.4-0.8-0.7s-0.3-0.6-0.3-1c0-1.3,0.9-1.9,2.6-1.9h2.1v6.5
				h-1.7v-2.4H-953.5z M-953,63.4h-0.4c-0.3,0-0.5,0.1-0.7,0.2c-0.2,0.1-0.2,0.3-0.2,0.5c0,0.3,0.1,0.5,0.2,0.6
				c0.2,0.1,0.4,0.2,0.7,0.2h0.3V63.4z"/>
			<path class="st1" d="M-998.2,72.9h2.3c0.9,0,1.5,0.1,2,0.4c0.4,0.3,0.6,0.7,0.6,1.2c0,0.4-0.1,0.7-0.3,0.9
				c-0.2,0.3-0.4,0.4-0.7,0.5v0c0.4,0.1,0.7,0.3,0.9,0.5c0.2,0.2,0.3,0.6,0.3,1c0,0.6-0.2,1-0.7,1.4c-0.4,0.3-1,0.5-1.8,0.5h-2.5
				V72.9z M-996.5,75.4h0.5c0.3,0,0.4-0.1,0.6-0.2c0.1-0.1,0.2-0.3,0.2-0.5c0-0.4-0.3-0.5-0.8-0.5h-0.5V75.4z M-996.5,76.7V78h0.6
				c0.5,0,0.8-0.2,0.8-0.7c0-0.2-0.1-0.4-0.2-0.5c-0.1-0.1-0.4-0.2-0.6-0.2H-996.5z"/>
			<path class="st1" d="M-986.3,76.1c0,1.1-0.3,1.9-0.8,2.5c-0.5,0.6-1.3,0.8-2.3,0.8c-1,0-1.8-0.3-2.3-0.9
				c-0.5-0.6-0.8-1.4-0.8-2.5c0-1.1,0.3-1.9,0.8-2.5s1.3-0.9,2.3-0.9c1,0,1.8,0.3,2.3,0.8C-986.6,74.2-986.3,75-986.3,76.1z
				 M-990.7,76.1c0,1.3,0.4,1.9,1.3,1.9c0.4,0,0.8-0.2,1-0.5s0.3-0.8,0.3-1.4c0-0.6-0.1-1.1-0.3-1.4c-0.2-0.3-0.5-0.5-1-0.5
				C-990.3,74.2-990.7,74.9-990.7,76.1z"/>
			<path class="st1" d="M-980.7,74.4c0,0.9-0.5,1.4-1.5,1.5v0c0.6,0,1,0.2,1.3,0.5c0.3,0.3,0.4,0.6,0.4,1.1c0,0.4-0.1,0.7-0.3,1
				s-0.5,0.5-0.9,0.7c-0.4,0.2-0.9,0.2-1.5,0.2c-1,0-1.9-0.1-2.5-0.3v-1.5c0.3,0.1,0.6,0.2,1,0.3s0.7,0.1,1.1,0.1
				c0.5,0,0.9-0.1,1.1-0.2c0.2-0.1,0.3-0.3,0.3-0.5c0-0.4-0.5-0.6-1.5-0.6h-0.8v-1.4h0.7c0.3,0,0.6,0,0.8-0.1c0.2,0,0.3-0.1,0.4-0.2
				c0.1-0.1,0.1-0.2,0.1-0.3c0-0.3-0.3-0.5-0.9-0.5c-0.6,0-1.1,0.2-1.5,0.5l-0.7-1.2c0.4-0.2,0.8-0.4,1.2-0.5
				c0.4-0.1,0.9-0.2,1.4-0.2c0.7,0,1.3,0.1,1.7,0.4C-980.9,73.6-980.7,73.9-980.7,74.4z"/>
			<path class="st1" d="M-979.5,72.9h2.3c0.9,0,1.5,0.1,2,0.4c0.4,0.3,0.6,0.7,0.6,1.2c0,0.4-0.1,0.7-0.3,0.9
				c-0.2,0.3-0.4,0.4-0.7,0.5v0c0.4,0.1,0.7,0.3,0.9,0.5c0.2,0.2,0.3,0.6,0.3,1c0,0.6-0.2,1-0.7,1.4c-0.4,0.3-1,0.5-1.8,0.5h-2.5
				V72.9z M-977.8,75.4h0.5c0.3,0,0.4-0.1,0.6-0.2c0.1-0.1,0.2-0.3,0.2-0.5c0-0.4-0.3-0.5-0.8-0.5h-0.5V75.4z M-977.8,76.7V78h0.6
				c0.5,0,0.8-0.2,0.8-0.7c0-0.2-0.1-0.4-0.2-0.5c-0.1-0.1-0.4-0.2-0.6-0.2H-977.8z"/>
			<path class="st1" d="M-969,75c0,0.7-0.2,1.3-0.6,1.7c-0.4,0.4-1,0.6-1.8,0.6h-0.5v2.1h-1.7v-6.5h2.2c0.8,0,1.4,0.2,1.8,0.5
				C-969.2,73.8-969,74.3-969,75z M-971.9,75.8h0.3c0.3,0,0.5-0.1,0.6-0.2c0.2-0.1,0.2-0.4,0.2-0.6c0-0.4-0.2-0.7-0.7-0.7h-0.5V75.8
				z"/>
			<path class="st1" d="M-964.2,79.4l-0.3-1.2h-2.1l-0.3,1.2h-1.9l2.1-6.5h2.3l2.1,6.5H-964.2z M-964.9,76.7l-0.3-1.1
				c-0.1-0.2-0.1-0.5-0.2-0.9s-0.2-0.6-0.2-0.8c0,0.2-0.1,0.4-0.2,0.7s-0.3,1-0.5,2H-964.9z"/>
			<path class="st1" d="M-959,79.4h-1.7v-5h-1.6v-1.4h4.9v1.4h-1.6V79.4z"/>
			<path class="st1" d="M-952.7,79.4l-0.3-1.2h-2.1l-0.3,1.2h-1.9l2.1-6.5h2.3l2.1,6.5H-952.7z M-953.4,76.7l-0.3-1.1
				c-0.1-0.2-0.1-0.5-0.2-0.9s-0.2-0.6-0.2-0.8c0,0.2-0.1,0.4-0.2,0.7s-0.3,1-0.5,2H-953.4z"/>
			<path class="st1" d="M-981.9,92.3h-1.7v-2h-3.8v2h-1.7v-3.4h0.5c0.4-0.7,0.7-1.4,1-2.3s0.4-1.8,0.5-2.8h4.3v5h0.9V92.3z
				 M-984.6,88.8v-3.6h-1.2c-0.1,1.3-0.5,2.5-1,3.6H-984.6z"/>
			<path class="st1" d="M-977.5,90.3h-3.8v-6.5h3.8v1.4h-2.1v1h1.9v1.4h-1.9v1.2h2.1V90.3z"/>
			<path class="st1" d="M-971,90.3h-1.8v-2.6h-2v2.6h-1.8v-6.5h1.8v2.4h2v-2.4h1.8V90.3z"/>
			<path class="st1" d="M-966,90.3h-3.8v-6.5h3.8v1.4h-2.1v1h1.9v1.4h-1.9v1.2h2.1V90.3z"/>
			<path class="st1" d="M-960.8,83.8v1.4h-2.6v5.1h-1.8v-6.5H-960.8z"/>
		</g>
	</g>
</g>
<g>
	<circle cx="-386" cy="56.7" r="48.6"/>
	<g>
		<circle class="st2" cx="-366.7" cy="75.3" r="6.3"/>
		<circle class="st2" cx="-400.7" cy="75.3" r="6.3"/>
		<g>
			<path class="st2" d="M-399.2,49.2h-0.6V52h0.6c1.1,0,1.7-0.5,1.7-1.5C-397.5,49.6-398.1,49.2-399.2,49.2z"/>
			<path class="st2" d="M-362.7,43.8h-10.2v-9.5H-416v41h5.4c0-5.4,4.4-9.8,9.8-9.8c5.4,0,9.8,4.4,9.8,9.8h14.3
				c0-5.4,4.4-9.8,9.8-9.8c5.4,0,9.8,4.4,9.8,9.8h3.1V59L-362.7,43.8z M-404.3,49.3h-4v2.3h3.6v2.6h-3.6v4.6h-3.2V46.7h7.2V49.3z
				 M-396.5,58.9l-2.6-4.4h-0.8v4.4h-3.3V46.7h4c3.3,0,5,1.2,5,3.6c0,1.4-0.7,2.5-2.1,3.3l3.5,5.3H-396.5z M-385.3,49.3h-3.9v1.9
				h3.6v2.6h-3.6v2.3h3.9v2.7h-7.2V46.7h7.2V49.3z M-376.8,49.3h-3.9v1.9h3.6v2.6h-3.6v2.3h3.9v2.7h-7.2V46.7h7.2V49.3z M-370.3,59
				V47.8h5.3l6.6,11.2H-370.3z"/>
		</g>
	</g>
</g>
<g>
	<circle cx="-238.4" cy="56.7" r="48.6"/>
	<g>
		<path class="st2" d="M-262.8,76.8V66.7c0-4.8,6.2-6.7,8.9-2.6l0,0c0,0,1.6,2.4,5.3,2.5c5.2,0.1,7.5-1.4,10.2-4.7l26.1,11.7
			c1.3,0.6,2.1,1.9,2.2,3.3l0,0H-262.8z"/>
		<path class="st2" d="M-214.8,83.5h-48.1v-4.6h52.6l0,0C-210.2,81.4-212.2,83.5-214.8,83.5z"/>
		<g>
			<path class="st2" d="M-256.6,24.1v34.5c1.8,0.3,3.3,1.4,4.3,2.9c0.1,0.2,1.3,1.6,3.7,1.6c0.2,0,0.3,0,0.5,0c4.1,0,5.8-1.2,8.1-4
				V24.1H-256.6z M-243.1,57.2h-10.7v-6.4h2.3v3.5h2.1v-3.2h2.3v3.2h4V57.2z M-243.1,43.9l-3.9,2.3v0.7h3.9v2.9h-10.7v-3.5
				c0-2.9,1.1-4.4,3.2-4.4c1.2,0,2.2,0.6,2.9,1.8l4.7-3.1V43.9z M-243.1,40.4h-10.7V34h2.3v3.5h1.7v-3.2h2.3v3.2h2V34h2.4V40.4z
				 M-243.1,32.9h-10.7v-6.4h2.3V30h1.7v-3.2h2.3V30h2v-3.5h2.4V32.9z"/>
			<path class="st2" d="M-250.6,44.8c-0.7,0-1.1,0.5-1.1,1.5v0.6h2.5v-0.5C-249.2,45.4-249.7,44.8-250.6,44.8z"/>
		</g>
	</g>
</g>
<g>
	<circle cx="56.7" cy="56.7" r="48.6"/>
	<polygon class="st2" points="59.1,70.3 88.7,40.5 79.2,31 49.6,60.8 34.8,46.1 25.3,55.5 40.2,70.4 40.2,70.4 49.7,79.9 53.5,76 
		59.2,70.3 	"/>
</g>
<g>
	<circle cx="-90.9" cy="56.7" r="48.6"/>
	<g>
		<path class="st2" d="M-64.4,38.8L-90,22.2v3.7v4.9c-15.1,0-27.3,12.2-27.3,27.3v1.8c2.1-8.1,9.5-14.1,18.2-14.1h9v9.8L-64.4,38.8z
			"/>
		<path class="st2" d="M-117.3,74.6l25.6,16.7v-3.7v-4.9c15.1,0,27.3-12.2,27.3-27.3v-1.8c-2.1,8.1-9.5,14.1-18.2,14.1h-9v-9.8
			L-117.3,74.6z"/>
	</g>
</g>
<g>
	<circle cx="-1123.8" cy="205.2" r="48.6"/>
	<path class="st2" d="M-1103.9,178.8c-28.3-12.2-47.7,4-47.7,4c1,45.7,27.8,53.4,27.8,53.4s26.8-7.7,27.8-53.4
		C-1096,182.8-1098.8,180.8-1103.9,178.8z M-1121.8,213l-3.5,3.5l-2.4,2.4l-5.9-5.9l0,0l-9.2-9.2l5.9-5.9l9.2,9.2l18.3-18.5l5.9,5.9
		L-1121.8,213L-1121.8,213z"/>
</g>
<g>
	<circle cx="-976.2" cy="205.2" r="48.6"/>
	<path class="st2" d="M-950,197.9c0-8.1-6.5-14.6-14.6-14.6c-4.8,0-9,2.3-11.6,5.8c-2.7-3.5-6.9-5.8-11.7-5.8
		c-8.1,0-14.6,6.5-14.6,14.6c0,2,0.4,3.9,1.2,5.7l0,0c0,0,1.8,8.1,25.1,27.7c0,0,0,0,0,0c0,0,0,0,0,0c23.2-19.6,25.1-27.7,25.1-27.7
		l0,0C-950.4,201.9-950,200-950,197.9z"/>
</g>
<g>
	<circle cx="-1271.3" cy="205.2" r="48.6"/>
	<g>
		<path class="st2" d="M-1233.4,198.7c0-1.9-1.5-3.4-3.4-3.4h-6.9h-3.7h-1.9l1.2-6.6c0.6-3.2,0.1-6.4-1.2-9.4l0,0
			c-0.5-1.2-1.8-2-3.1-2h0c-1.9,0-3.4,1.5-3.4,3.4v5.4l-6.4,11.5h-4.2v20l1.9,0l6.9,4.5h4.8h9h1.6c1.9,0,3.4-1.5,3.4-3.4v0
			c0-1.9-1.5-3.4-3.4-3.4h2.1c1.9,0,3.4-1.5,3.4-3.4c0-1.9-1.5-3.4-3.4-3.4h1.8c1.9,0,3.4-1.5,3.4-3.4v0c0-1.9-1.5-3.4-3.4-3.4h1.5
			C-1234.9,202.1-1233.4,200.6-1233.4,198.7z"/>
		<g>
			<path class="st2" d="M-1288.8,210.7h-2.5v0.9h2.5c0.3,0,0.5-0.2,0.5-0.4C-1288.3,210.8-1288.5,210.7-1288.8,210.7z"/>
			<path class="st2" d="M-1288.5,207.8c0-0.2-0.2-0.4-0.4-0.4h-2.3v0.8h2.3C-1288.7,208.1-1288.5,208-1288.5,207.8z"/>
			<path class="st2" d="M-1309.3,197.6v20.1h38.9v-20.1H-1309.3z M-1298.7,214h-3.8v-7.8l-2.2,2.1l-2.2-2.3l4.9-4.8h3.3V214z
				 M-1287.9,214h-6.8v-9.2h6.6c2.1,0,3,1.3,3,2.4s-0.7,1.8-1.6,2.1c1.1,0.2,1.8,1.1,1.8,2.2C-1284.9,212.8-1285.8,214-1287.9,214z
				 M-1273.7,214h-3.8v-7.8l-2.2,2.1l-2.2-2.3l4.9-4.8h3.3V214z"/>
		</g>
	</g>
</g>
<g>
	<circle cx="56.7" cy="205.2" r="48.6"/>
	<path class="st2" d="M89.3,205.2c0,18-14.6,32.6-32.6,32.6s-32.6-14.6-32.6-32.6s14.6-32.6,32.6-32.6c6.5,0,12.7,1.9,18,5.4
		l-3.6,4.3l16.1,2.7l-5.7-15.3l-3.2,3.9c-6.4-4.4-13.8-6.7-21.6-6.7c-21.1,0-38.3,17.2-38.3,38.3s17.2,38.3,38.3,38.3
		c21.1,0,38.3-17.2,38.3-38.3H89.3z"/>
	<g>
		<g>
			<path class="st1" d="M43.7,221.4c0,0.8,0.5,1,1.1,1c0.4,0,0.8-0.1,1.1-0.2V219h2.3v7.7h-2.3v-2.5c-0.6,0.1-1,0.2-1.5,0.2
				c-2.1,0-3.1-1.2-3.1-3V219h2.4V221.4z"/>
			<path class="st1" d="M54.5,226.7l-0.3-0.9h-2.8l-0.3,0.9h-2.7l2.9-7.7h2.9l2.9,7.7H54.5z M52.8,221.3l-0.8,2.5h1.5L52.8,221.3z"
				/>
			<path class="st1" d="M56.7,222.9c0-2.4,1.8-4,4.3-4c2,0,3.1,1.2,3.5,2.3l-2,0.9c-0.2-0.6-0.8-1.1-1.5-1.1c-1.1,0-1.9,0.9-1.9,1.9
				c0,1.1,0.8,1.9,1.9,1.9c0.7,0,1.3-0.5,1.5-1.1l2,0.9c-0.5,1-1.5,2.3-3.5,2.3C58.5,226.9,56.7,225.2,56.7,222.9z"/>
			<path class="st1" d="M70.1,226.7l-0.3-0.9h-2.8l-0.3,0.9h-2.7L67,219h2.9l2.9,7.7H70.1z M68.5,221.3l-0.8,2.5h1.5L68.5,221.3z"/>
		</g>
		<g>
			<path class="st2" d="M34.7,214.7v-6c11.6-8.2,12.7-9.1,12.7-11c0-1.2-1.3-2-2.9-2c-2.7,0-4.8,1-6.7,2.6l-4.2-5.1
				c2.9-3.1,7.2-4.3,10.7-4.3c6.6,0,10.9,3.7,10.9,8.7c0,3.5-2,6.3-8,10.3h8.3v6.7H34.7z"/>
			<path class="st2" d="M69,214.7v-4.1H56.7v-5.9l9.2-15.4h10.7v14.6h2.9v6.7h-2.9v4.1H69z M69,196l-4.8,8H69V196z"/>
		</g>
	</g>
</g>
<g>
	<circle cx="-828.7" cy="205.2" r="48.6"/>
	<circle class="st1" cx="-832.8" cy="183.2" r="3.3"/>
	<circle class="st1" cx="-824.5" cy="214.6" r="3.3"/>
	<circle class="st1" cx="-809.9" cy="221.2" r="4.4"/>
	<circle class="st1" cx="-832.8" cy="198.9" r="4.4"/>
	
		<rect x="-813.4" y="191.1" transform="matrix(0.5386 0.8426 -0.8426 0.5386 -206.5131 774.9793)" class="st1" width="5.2" height="15.7"/>
	
		<rect x="-840.4" y="212.7" transform="matrix(0.5939 -0.8045 0.8045 0.5939 -517.6923 -584.4583)" class="st1" width="5.2" height="15.7"/>
	
		<rect x="-851.2" y="187.7" transform="matrix(-0.6038 -0.7971 0.7971 -0.6038 -1516.8845 -362.7196)" class="st1" width="5.2" height="15.7"/>
	<path class="st2" d="M-828.7,166.9c-21.1,0-38.3,17.2-38.3,38.3s17.2,38.3,38.3,38.3s38.3-17.2,38.3-38.3S-807.6,166.9-828.7,166.9
		z M-861.2,205.2c0-18,14.6-32.6,32.6-32.6c5.3,0,10.2,1.3,14.7,3.5l-36.5,53.3C-857.1,223.4-861.2,214.8-861.2,205.2z
		 M-828.7,237.8c-6.4,0-12.3-1.8-17.3-5l36.8-53.7c7.9,5.9,13.1,15.4,13.1,26.1C-796.1,223.2-810.7,237.8-828.7,237.8z"/>
</g>
<g>
	<g>
		<circle cx="-533.5" cy="205.2" r="48.6"/>
	</g>
	<g>
		<path class="st1" d="M-530.5,208.4c10.9-10.7,4.8-23.1,0.1-28.2l-6.3,5.8c1.3,1.4,7.5,9,0.1,16.3c-10.9,10.8-4.8,22.9-0.1,27.8
			l6.1-5.9C-531.3,223.4-538.1,215.9-530.5,208.4z"/>
		<path class="st1" d="M-517.5,213.7c7.8-7.7,3.5-16.6,0.1-20.2l-4.5,4.2c0.9,1,5.4,6.5,0.1,11.7c-7.8,7.7-3.5,16.5-0.1,20l4.4-4.3
			C-518,224.5-522.9,219.1-517.5,213.7z"/>
		<path class="st1" d="M-545.3,203.7c7.8-7.7,3.5-16.6,0.1-20.2l-4.5,4.2c0.9,1,5.4,6.5,0.1,11.7c-7.8,7.7-3.5,16.5-0.1,20l4.4-4.2
			C-546.2,214.1-550.6,208.8-545.3,203.7z"/>
	</g>
	<path class="st2" d="M-533.5,166.9c-21.1,0-38.3,17.2-38.3,38.3s17.2,38.3,38.3,38.3s38.3-17.2,38.3-38.3S-512.4,166.9-533.5,166.9
		z M-566.1,205.2c0-18,14.6-32.6,32.6-32.6c5.3,0,10.2,1.3,14.7,3.5l-36.5,53.3C-562,223.4-566.1,214.8-566.1,205.2z M-533.5,237.8
		c-6.4,0-12.3-1.8-17.3-5l36.8-53.7c7.9,5.9,13.1,15.4,13.1,26.1C-501,223.2-515.6,237.8-533.5,237.8z"/>
</g>
<g>
	<circle cx="-681.1" cy="205.2" r="48.6"/>
	<path class="st2" d="M-665.3,194l-15.8-15.8l-15.8,15.8c-8.7,8.7-8.7,22.8,0,31.5c8.7,8.7,22.8,8.7,31.5,0
		C-656.6,216.9-656.6,202.7-665.3,194z"/>
</g>
<g>
	<circle cx="-386" cy="205.2" r="48.6"/>
	<g>
		<path class="st2" d="M-357,197.9c0-2.4-2-4.4-4.4-4.4h-9.1h-4.9h-2.5l1.5-8.8c0.7-4.2,0.2-8.5-1.5-12.3l0,0
			c-0.7-1.6-2.3-2.7-4.1-2.7h0c-2.5,0-4.5,2-4.5,4.5v7.2l-8.4,15.2h-5.6v26.4l2.5,0l9.1,5.9h6.4h11.9h2c2.4,0,4.4-2,4.4-4.4v0
			c0-2.4-2-4.4-4.4-4.4h2.7c2.4,0,4.4-2,4.4-4.4s-2-4.4-4.4-4.4h2.4c2.4,0,4.4-2,4.4-4.4v0c0-2.4-2-4.4-4.4-4.4h2
			C-359,202.3-357,200.3-357,197.9z"/>
		<rect x="-414.9" y="196.4" class="st2" width="9.2" height="26.5"/>
	</g>
</g>
<g>
	<circle cx="-90.9" cy="205.2" r="48.6"/>
	<g>
		<path class="st1" d="M-90.9,177c-15.6,0-28.2,12.7-28.2,28.2s12.7,28.2,28.2,28.2s28.2-12.7,28.2-28.2S-75.3,177-90.9,177z
			 M-90.9,230.8c-14.1,0-25.6-11.5-25.6-25.6s11.5-25.6,25.6-25.6s25.6,11.5,25.6,25.6S-76.7,230.8-90.9,230.8z"/>
		<path class="st1" d="M-93,188.3c-0.3,0-0.8,0-1.2,0c-0.5,0-1,0.1-1.6,0.2c-0.6,0.1-1.2,0.2-1.9,0.5c-0.6,0.3-1.3,0.5-2,0.8
			c-0.7,0.4-1.3,0.8-2,1.2c-0.6,0.5-1.3,1-1.8,1.6c-0.5,0.6-1.1,1.2-1.5,1.9c-0.5,0.7-0.8,1.4-1.2,2.1c-0.3,0.7-0.6,1.4-0.8,2.1
			c-0.2,0.7-0.3,1.3-0.4,1.9c-0.1,0.6-0.1,1.1-0.1,1.6c0,0.5,0,0.9,0.1,1.2c0.1,0.7,0.2,1.1,0.2,1.1s0.1-0.4,0.3-1
			c0.2-0.6,0.5-1.5,1-2.5c0.2-0.5,0.5-1,0.8-1.6c0.3-0.5,0.6-1.1,1-1.7c0.4-0.6,0.7-1.1,1.2-1.7c0.4-0.6,0.9-1.1,1.4-1.6
			c0.5-0.5,1-0.9,1.5-1.4c0.6-0.4,1.1-0.8,1.6-1.2c0.6-0.4,1.1-0.7,1.6-1c0.5-0.3,1.1-0.6,1.6-0.9c0.5-0.3,0.9-0.5,1.4-0.7
			c0.4-0.2,0.8-0.4,1.1-0.5c0.6-0.3,1-0.5,1-0.5S-92.3,188.3-93,188.3z"/>
	</g>
</g>
<g>
	<circle cx="-238.4" cy="205.2" r="48.6"/>
	<g>
		<path class="st2" d="M-269.6,223.6h57c3,0,5.4-2.4,5.4-5.4h-62.4V223.6z"/>
		<path class="st2" d="M-209.8,211.9l-30.2-13.5l-2.4,2.4l0,0l-2.1,2.1l-3.6,3.6l-2.4,2.4l-2.1,2.1l-2.1-2.1l-6-6l-0.8-0.8l-3.9-3.9
			c-2.3,0.6-4.3,2.6-4.3,5.5v12h62.4C-207.3,214.1-208.3,212.6-209.8,211.9z"/>
		<polygon class="st2" points="-258.6,200.9 -252.5,206.9 -250.1,204.5 -249,203.3 -246.5,200.8 -246.5,200.8 -227.8,181.9 
			-233.8,175.9 -252.6,194.8 -262,185.4 -268,191.5 -258.6,200.9 		"/>
	</g>
</g>
</svg>
