<svg xmlns="http://www.w3.org/2000/svg" version="1.1" id="Layer_1" x="0px" y="0px" viewBox="0 0 113.4 113.4" xml:space="preserve" enable-background="new 0 0 113.4 113.4"><style type="text/css">
	.st0{fill:#ED1C24;}
	.st1{fill:#FFFFFF;}
	.st2{fill:#FFDD00;}
</style><circle class="st0" cx="-681.1" cy="56.7" r="48.6"/><path class="st1" d="M-711.1 43c0-7.3 5.3-13.1 13.8-13.1 8.5 0 13.9 5.8 13.9 13.1 0 7.2-5.4 12.9-13.9 12.9C-705.8 55.9-711.1 50.2-711.1 43zM-702.5 82.2l32.9-51.5h7.6l-33 51.5H-702.5zM-692.9 43c0-3.5-2-4.9-4.5-4.9 -2.4 0-4.3 1.4-4.3 4.9 0 3.3 1.9 4.7 4.3 4.7C-694.9 47.7-692.9 46.3-692.9 43zM-681.2 70.2c0-7.3 5.3-13.1 13.8-13.1s13.8 5.8 13.8 13.1c0 7.2-5.4 12.9-13.8 12.9S-681.2 77.4-681.2 70.2zM-663 70.2c0-3.5-2-4.9-4.5-4.9s-4.4 1.4-4.4 4.9c0 3.4 1.9 4.7 4.4 4.7S-663 73.6-663 70.2z"/><circle cx="-533.5" cy="56.7" r="48.6"/><path class="st2" d="M-554.3 70.1l-4.7-7.8 -4.7 7.8h-9.1l8.6-13.1 -8-12.5h9.1l4.1 7.3 4.1-7.3h9.2l-8 12.4 8.6 13.2H-554.3zM-544.2 70.1V44.4h7.8v13.7l8.9-13.7h8v25.6h-7.8V55.5l-9.5 14.5H-544.2zM-510.2 70.1V51.2h-6.9v-6.8h21.5v6.8h-6.8v18.9H-510.2z"/><circle class="st2" cx="-386" cy="56.7" r="48.6"/><path d="M-410.5 70.1l-9.5-13v13h-7.8V44.4h8l8.9 12.1V44.4h7.8v25.6H-410.5zM-399.3 70.1V44.4h19.4v6.8h-11.7v2.5h11.4v6.8h-11.4v2.8h11.7v6.8H-399.3zM-357.2 70.1l-3.3-14.5 -3.3 14.5h-8.1l-7.3-25.6h8.7l3.3 15.7 3.9-15.7h5.8l3.9 15.7 3.3-15.7h8.7l-7.3 25.6H-357.2z"/><path d="M-1067.5 38c0-4.1-2.7-7.3-6.5-8.2l6.4-10.1h-11.4l-1.6 2.5c-1.6-1.8-3.9-2.8-6.7-2.8 -1.2 0-2.3 0.2-3.3 0.6 -8.5-7.4-19.7-12-31.9-12 -12 0-23 4.4-31.5 11.6h-10.1l-15.9 15.6 10.2 10.6c-0.8 3.5-1.2 7.1-1.2 10.8 0 26.8 21.8 48.6 48.6 48.6s48.6-21.8 48.6-48.6c0-3.5-0.4-7-1.1-10.3C-1070.7 45.8-1067.5 42.4-1067.5 38z"/><polygon class="st2" points="-1175 35.4 -1169.5 41.1 -1164.1 35.7 -1164.1 55.4 -1154.3 55.4 -1154.3 23.4 -1162.7 23.4 "/><path class="st2" d="M-1136.7 22.9c-9.6 0-14.2 7.8-14.2 16.5s4.7 16.6 14.2 16.6c9.6 0 14.2-7.9 14.2-16.6S-1127.1 22.9-1136.7 22.9zM-1136.7 47.4c-3.1 0-4.5-2.6-4.5-8 0-5.4 1.4-8 4.5-8s4.5 2.5 4.5 8C-1132.2 44.8-1133.6 47.4-1136.7 47.4zM-1106.5 22.9c-9.6 0-14.2 7.8-14.2 16.5s4.7 16.6 14.2 16.6c9.6 0 14.2-7.9 14.2-16.6S-1096.9 22.9-1106.5 22.9zM-1106.5 47.4c-3.1 0-4.5-2.6-4.5-8 0-5.4 1.4-8 4.5-8 3.1 0 4.5 2.5 4.5 8C-1102 44.8-1103.4 47.4-1106.5 47.4zM-1082.2 27.9c0-2.7-2-4.8-5.1-4.8 -3.1 0-5.1 2.1-5.1 4.8 0 2.7 2 4.8 5.1 4.8C-1084.2 32.7-1082.2 30.6-1082.2 27.9zM-1088.9 27.9c0-1.3 0.7-1.8 1.6-1.8 0.9 0 1.7 0.5 1.7 1.8 0 1.2-0.7 1.7-1.7 1.7C-1088.2 29.7-1088.9 29.2-1088.9 27.9z"/><polygon class="st2" points="-1077 23.4 -1089.2 42.5 -1086.5 42.5 -1074.2 23.4 "/><path class="st2" d="M-1076.2 33.2c-3.1 0-5.1 2.1-5.1 4.8 0 2.7 2 4.8 5.1 4.8 3.1 0 5.1-2.1 5.1-4.8C-1071.1 35.3-1073.1 33.2-1076.2 33.2zM-1076.2 39.8c-0.9 0-1.6-0.5-1.6-1.7 0-1.3 0.7-1.8 1.6-1.8 0.9 0 1.7 0.5 1.7 1.8C-1074.6 39.3-1075.3 39.8-1076.2 39.8z"/><path class="st1" d="M-1141.7 62v1.4h-2.6v5.1h-1.8V62H-1141.7zM-1137.1 68.5l-0.3-1.2h-2.1l-0.3 1.2h-1.9l2.1-6.5h2.3l2.1 6.5H-1137.1zM-1137.7 65.9l-0.3-1.1c-0.1-0.2-0.1-0.5-0.2-0.9 -0.1-0.4-0.2-0.6-0.2-0.8 0 0.2-0.1 0.4-0.2 0.7 -0.1 0.3-0.3 1-0.5 2H-1137.7zM-1130 64.1c0 0.7-0.2 1.3-0.6 1.7 -0.4 0.4-1 0.6-1.8 0.6h-0.5v2.1h-1.7V62h2.2c0.8 0 1.4 0.2 1.8 0.5C-1130.2 62.9-1130 63.4-1130 64.1zM-1132.9 64.9h0.3c0.3 0 0.5-0.1 0.6-0.2s0.2-0.4 0.2-0.6c0-0.4-0.2-0.7-0.7-0.7h-0.5V64.9zM-1125.2 68.5l-0.3-1.2h-2.1l-0.3 1.2h-1.9l2.1-6.5h2.3l2.1 6.5H-1125.2zM-1125.9 65.9l-0.3-1.1c-0.1-0.2-0.1-0.5-0.2-0.9 -0.1-0.4-0.2-0.6-0.2-0.8 0 0.2-0.1 0.4-0.2 0.7 -0.1 0.3-0.3 1-0.5 2H-1125.9zM-1117.3 68.5h-1.8v-2.6h-2v2.6h-1.8V62h1.8v2.4h2V62h1.8V68.5zM-1113.3 68.5h-1.7v-5h-1.6V62h4.9v1.4h-1.6V68.5zM-1111 62h1.6v2.8c0 0.3 0 0.9-0.1 1.8h0l2.6-4.5h2.2v6.5h-1.5v-2.7c0-0.4 0-1 0.1-1.8h0l-2.6 4.5h-2.2V62zM-1101.1 66.2l-1.3 2.4h-2l1.8-2.8c-0.3-0.2-0.6-0.4-0.8-0.7 -0.2-0.3-0.3-0.6-0.3-1 0-1.3 0.9-1.9 2.6-1.9h2.1v6.5h-1.7v-2.4H-1101.1zM-1100.5 63.4h-0.4c-0.3 0-0.5 0.1-0.7 0.2 -0.2 0.1-0.2 0.3-0.2 0.5 0 0.3 0.1 0.5 0.2 0.6s0.4 0.2 0.7 0.2h0.3V63.4zM-1153.2 79.4h-1.8v-5h-1.8v5h-1.8v-6.5h5.3V79.4zM-1146 76.1c0 1.1-0.3 1.9-0.8 2.5 -0.5 0.6-1.3 0.8-2.3 0.8 -1 0-1.8-0.3-2.3-0.9 -0.5-0.6-0.8-1.4-0.8-2.5 0-1.1 0.3-1.9 0.8-2.5 0.5-0.6 1.3-0.9 2.3-0.9 1 0 1.8 0.3 2.3 0.8C-1146.3 74.2-1146 75-1146 76.1zM-1150.4 76.1c0 1.3 0.4 1.9 1.3 1.9 0.4 0 0.8-0.2 1-0.5s0.3-0.8 0.3-1.4c0-0.6-0.1-1.1-0.3-1.4 -0.2-0.3-0.5-0.5-1-0.5C-1150 74.2-1150.4 74.9-1150.4 76.1zM-1138.5 81.4h-1.7v-2h-3.8v2h-1.7v-3.4h0.5c0.4-0.7 0.7-1.4 1-2.3 0.3-0.9 0.4-1.8 0.5-2.8h4.3v5h0.9V81.4zM-1141.2 77.9v-3.6h-1.2c-0.1 1.3-0.5 2.5-1 3.6H-1141.2zM-1132.4 79.4h-1.8v-5h-1.2c-0.1 0.7-0.2 1.5-0.3 2.2 -0.1 0.8-0.2 1.3-0.3 1.6 -0.1 0.3-0.2 0.6-0.4 0.7 -0.2 0.2-0.4 0.3-0.6 0.4 -0.2 0.1-0.5 0.1-0.8 0.1 -0.3 0-0.5 0-0.7-0.1V78c0.2 0.1 0.3 0.1 0.4 0.1 0.2 0 0.3-0.1 0.4-0.2 0.1-0.1 0.2-0.3 0.2-0.7 0.1-0.3 0.2-0.9 0.3-1.7s0.2-1.7 0.3-2.6h4.5V79.4zM-1131.2 72.9h1.6v2.8c0 0.3 0 0.9-0.1 1.8h0l2.6-4.5h2.2v6.5h-1.5v-2.7c0-0.4 0-1 0.1-1.8h0l-2.6 4.5h-2.2V72.9zM-1118.2 79.4h-1.8v-2.6h-2v2.6h-1.8v-6.5h1.8v2.4h2v-2.4h1.8V79.4zM-1111.5 79.4h-1.8v-2.6h-2v2.6h-1.8v-6.5h1.8v2.4h2v-2.4h1.8V79.4zM-1104.3 76.1c0 1.1-0.3 1.9-0.8 2.5 -0.5 0.6-1.3 0.8-2.3 0.8 -1 0-1.8-0.3-2.3-0.9 -0.5-0.6-0.8-1.4-0.8-2.5 0-1.1 0.3-1.9 0.8-2.5 0.5-0.6 1.3-0.9 2.3-0.9 1 0 1.8 0.3 2.3 0.8C-1104.6 74.2-1104.3 75-1104.3 76.1zM-1108.8 76.1c0 1.3 0.4 1.9 1.3 1.9 0.4 0 0.8-0.2 1-0.5s0.3-0.8 0.3-1.4c0-0.6-0.1-1.1-0.3-1.4 -0.2-0.3-0.5-0.5-1-0.5C-1108.3 74.2-1108.8 74.9-1108.8 76.1zM-1100.5 74.3c-0.4 0-0.7 0.2-1 0.5 -0.2 0.3-0.3 0.8-0.3 1.4 0 1.2 0.5 1.9 1.4 1.9 0.3 0 0.6 0 0.8-0.1 0.3-0.1 0.5-0.2 0.8-0.3v1.5c-0.5 0.2-1.2 0.4-1.8 0.4 -1 0-1.7-0.3-2.2-0.8 -0.5-0.6-0.8-1.4-0.8-2.5 0-0.7 0.1-1.3 0.4-1.8s0.6-0.9 1.1-1.2c0.5-0.3 1-0.4 1.7-0.4 0.7 0 1.4 0.2 2 0.5l-0.5 1.4c-0.2-0.1-0.5-0.2-0.7-0.3C-1100 74.3-1100.2 74.3-1100.5 74.3zM-1094.9 79.4h-1.7v-5h-1.6v-1.4h4.9v1.4h-1.6V79.4zM-1092.6 72.9h1.6v2.8c0 0.3 0 0.9-0.1 1.8h0l2.6-4.5h2.2v6.5h-1.5v-2.7c0-0.4 0-1 0.1-1.8h0l-2.6 4.5h-2.2V72.9zM-1137.1 90.3h-1.7v-5h-1.6v-1.4h4.9v1.4h-1.6V90.3zM-1128.8 87c0 1.1-0.3 1.9-0.8 2.5 -0.5 0.6-1.3 0.8-2.3 0.8 -1 0-1.8-0.3-2.3-0.9 -0.5-0.6-0.8-1.4-0.8-2.5 0-1.1 0.3-1.9 0.8-2.5 0.5-0.6 1.3-0.9 2.3-0.9 1 0 1.8 0.3 2.3 0.8C-1129 85.1-1128.8 85.9-1128.8 87zM-1133.2 87c0 1.3 0.4 1.9 1.3 1.9 0.4 0 0.8-0.2 1-0.5s0.3-0.8 0.3-1.4c0-0.6-0.1-1.1-0.3-1.4 -0.2-0.3-0.5-0.5-1-0.5C-1132.8 85.1-1133.2 85.7-1133.2 87zM-1127.8 83.8h2.3c0.9 0 1.5 0.1 2 0.4 0.4 0.3 0.6 0.7 0.6 1.2 0 0.4-0.1 0.7-0.3 0.9 -0.2 0.3-0.4 0.4-0.7 0.5v0c0.4 0.1 0.7 0.3 0.9 0.5 0.2 0.2 0.3 0.6 0.3 1 0 0.6-0.2 1-0.7 1.4 -0.4 0.3-1 0.5-1.8 0.5h-2.5V83.8zM-1126.1 86.3h0.5c0.3 0 0.4-0.1 0.6-0.2 0.1-0.1 0.2-0.3 0.2-0.5 0-0.4-0.3-0.5-0.8-0.5h-0.5V86.3zM-1126.1 87.5v1.4h0.6c0.5 0 0.8-0.2 0.8-0.7 0-0.2-0.1-0.4-0.2-0.5 -0.1-0.1-0.4-0.2-0.6-0.2H-1126.1zM-1118 90.3l-0.3-1.2h-2.1l-0.3 1.2h-1.9l2.1-6.5h2.3l2.1 6.5H-1118zM-1118.6 87.6l-0.3-1.1c-0.1-0.2-0.1-0.5-0.2-0.9s-0.2-0.6-0.2-0.8c0 0.2-0.1 0.4-0.2 0.7s-0.3 1-0.5 2H-1118.6zM-1110.9 85.8c0 0.7-0.2 1.3-0.6 1.7 -0.4 0.4-1 0.6-1.8 0.6h-0.5v2.1h-1.7v-6.5h2.2c0.8 0 1.4 0.2 1.8 0.5C-1111.1 84.7-1110.9 85.2-1110.9 85.8zM-1113.8 86.7h0.3c0.3 0 0.5-0.1 0.6-0.2s0.2-0.4 0.2-0.6c0-0.4-0.2-0.7-0.7-0.7h-0.5V86.7zM-1106.1 90.3l-0.3-1.2h-2.1l-0.3 1.2h-1.9l2.1-6.5h2.3l2.1 6.5H-1106.1zM-1106.8 87.6l-0.3-1.1c-0.1-0.2-0.1-0.5-0.2-0.9s-0.2-0.6-0.2-0.8c0 0.2-0.1 0.4-0.2 0.7s-0.3 1-0.5 2H-1106.8z"/><path d="M-919.9 38c0-4.1-2.7-7.3-6.5-8.2l6.4-10.1h-11.4l-1.6 2.5c-1.6-1.8-3.9-2.8-6.7-2.8 -1.2 0-2.3 0.2-3.3 0.6 -8.5-7.4-19.7-12-31.9-12 -12 0-23 4.4-31.5 11.6h-10.1l-15.9 15.6 10.2 10.6c-0.8 3.5-1.2 7.1-1.2 10.8 0 26.8 21.8 48.6 48.6 48.6s48.6-21.8 48.6-48.6c0-3.5-0.4-7-1.1-10.3C-923.1 45.8-919.9 42.4-919.9 38z"/><polygon class="st2" points="-1027.4 35.4 -1021.9 41.1 -1016.5 35.7 -1016.5 55.4 -1006.8 55.4 -1006.8 23.4 -1015.1 23.4 "/><path class="st2" d="M-989.1 22.9c-9.6 0-14.2 7.8-14.2 16.5s4.7 16.6 14.2 16.6c9.6 0 14.2-7.9 14.2-16.6S-979.6 22.9-989.1 22.9zM-989.1 47.4c-3.1 0-4.5-2.6-4.5-8 0-5.4 1.4-8 4.5-8 3.1 0 4.5 2.5 4.5 8C-984.6 44.8-986 47.4-989.1 47.4zM-958.9 22.9c-9.6 0-14.2 7.8-14.2 16.5s4.7 16.6 14.2 16.6c9.6 0 14.2-7.9 14.2-16.6S-949.4 22.9-958.9 22.9zM-958.9 47.4c-3.1 0-4.5-2.6-4.5-8 0-5.4 1.4-8 4.5-8 3.1 0 4.5 2.5 4.5 8C-954.5 44.8-955.9 47.4-958.9 47.4zM-934.6 27.9c0-2.7-2-4.8-5.1-4.8 -3.1 0-5.1 2.1-5.1 4.8 0 2.7 2 4.8 5.1 4.8C-936.6 32.7-934.6 30.6-934.6 27.9zM-941.3 27.9c0-1.3 0.7-1.8 1.6-1.8 0.9 0 1.7 0.5 1.7 1.8 0 1.2-0.7 1.7-1.7 1.7C-940.6 29.7-941.3 29.2-941.3 27.9zM-928.7 33.2c-3.1 0-5.1 2.1-5.1 4.8 0 2.7 2 4.8 5.1 4.8 3.1 0 5.1-2.1 5.1-4.8C-923.6 35.3-925.6 33.2-928.7 33.2zM-928.7 39.8c-0.9 0-1.6-0.5-1.6-1.7 0-1.3 0.7-1.8 1.6-1.8 0.9 0 1.7 0.5 1.7 1.8C-927 39.3-927.8 39.8-928.7 39.8z"/><polygon class="st2" points="-929.5 23.4 -941.7 42.5 -938.9 42.5 -926.7 23.4 "/><path class="st1" d="M-994.2 62v1.4h-2.6v5.1h-1.8V62H-994.2zM-989.5 68.5l-0.3-1.2h-2.1l-0.3 1.2h-1.9l2.1-6.5h2.3l2.1 6.5H-989.5zM-990.2 65.9l-0.3-1.1c-0.1-0.2-0.1-0.5-0.2-0.9 -0.1-0.4-0.2-0.6-0.2-0.8 0 0.2-0.1 0.4-0.2 0.7 -0.1 0.3-0.3 1-0.5 2H-990.2zM-982.4 64.1c0 0.7-0.2 1.3-0.6 1.7 -0.4 0.4-1 0.6-1.8 0.6h-0.5v2.1h-1.7V62h2.2c0.8 0 1.4 0.2 1.8 0.5C-982.6 62.9-982.4 63.4-982.4 64.1zM-985.4 64.9h0.3c0.3 0 0.5-0.1 0.6-0.2 0.2-0.1 0.2-0.4 0.2-0.6 0-0.4-0.2-0.7-0.7-0.7h-0.5V64.9zM-977.7 68.5l-0.3-1.2h-2.1l-0.3 1.2h-1.9l2.1-6.5h2.3l2.1 6.5H-977.7zM-978.3 65.9l-0.3-1.1c-0.1-0.2-0.1-0.5-0.2-0.9 -0.1-0.4-0.2-0.6-0.2-0.8 0 0.2-0.1 0.4-0.2 0.7 -0.1 0.3-0.3 1-0.5 2H-978.3zM-969.7 68.5h-1.8v-2.6h-2v2.6h-1.8V62h1.8v2.4h2V62h1.8V68.5zM-965.7 68.5h-1.7v-5h-1.6V62h4.9v1.4h-1.6V68.5zM-963.4 62h1.6v2.8c0 0.3 0 0.9-0.1 1.8h0l2.6-4.5h2.2v6.5h-1.5v-2.7c0-0.4 0-1 0.1-1.8h0l-2.6 4.5h-2.2V62zM-953.5 66.2l-1.3 2.4h-2l1.8-2.8c-0.3-0.2-0.6-0.4-0.8-0.7s-0.3-0.6-0.3-1c0-1.3 0.9-1.9 2.6-1.9h2.1v6.5h-1.7v-2.4H-953.5zM-953 63.4h-0.4c-0.3 0-0.5 0.1-0.7 0.2 -0.2 0.1-0.2 0.3-0.2 0.5 0 0.3 0.1 0.5 0.2 0.6 0.2 0.1 0.4 0.2 0.7 0.2h0.3V63.4zM-992 79.4h-2l-1.9-3.3v3.3h-1.8v-6.5h1.8V76l1.8-3.1h1.9l-2 3.1L-992 79.4zM-987.6 79.4l-0.3-1.2h-2.1l-0.3 1.2h-1.9l2.1-6.5h2.3l2.1 6.5H-987.6zM-988.3 76.7l-0.3-1.1c-0.1-0.2-0.1-0.5-0.2-0.9s-0.2-0.6-0.2-0.8c0 0.2-0.1 0.4-0.2 0.7s-0.3 1-0.5 2H-988.3zM-979.8 79.4h-1.8V77c-0.7 0.3-1.4 0.4-2 0.4 -0.6 0-1.1-0.2-1.4-0.5s-0.5-0.7-0.5-1.3v-2.7h1.8v2.2c0 0.3 0.1 0.5 0.2 0.7s0.3 0.2 0.6 0.2c0.4 0 0.8-0.1 1.4-0.3v-2.7h1.8V79.4zM-974.8 79.4h-3.8v-6.5h3.8v1.4h-2.1v1h1.9v1.4h-1.9V78h2.1V79.4zM-971 74.3c-0.4 0-0.7 0.2-1 0.5 -0.2 0.3-0.3 0.8-0.3 1.4 0 1.2 0.5 1.9 1.4 1.9 0.3 0 0.6 0 0.8-0.1 0.3-0.1 0.5-0.2 0.8-0.3v1.5c-0.5 0.2-1.1 0.4-1.8 0.4 -1 0-1.7-0.3-2.2-0.8 -0.5-0.6-0.8-1.4-0.8-2.5 0-0.7 0.1-1.3 0.4-1.8 0.3-0.5 0.6-0.9 1.1-1.2 0.5-0.3 1-0.4 1.7-0.4 0.7 0 1.4 0.2 2 0.5l-0.5 1.4c-0.2-0.1-0.5-0.2-0.7-0.3C-970.4 74.3-970.7 74.3-971 74.3zM-965.4 79.4h-1.7v-5h-1.6v-1.4h4.9v1.4h-1.6V79.4zM-963.1 72.9h2.3c0.9 0 1.5 0.1 2 0.4 0.4 0.3 0.6 0.7 0.6 1.2 0 0.4-0.1 0.7-0.3 0.9 -0.2 0.3-0.4 0.4-0.7 0.5v0c0.4 0.1 0.7 0.3 0.9 0.5 0.2 0.2 0.3 0.6 0.3 1 0 0.6-0.2 1-0.7 1.4 -0.4 0.3-1 0.5-1.8 0.5h-2.5V72.9zM-961.3 75.4h0.5c0.3 0 0.4-0.1 0.6-0.2 0.1-0.1 0.2-0.3 0.2-0.5 0-0.4-0.3-0.5-0.8-0.5h-0.5V75.4zM-961.3 76.7V78h0.6c0.5 0 0.8-0.2 0.8-0.7 0-0.2-0.1-0.4-0.2-0.5 -0.1-0.1-0.4-0.2-0.6-0.2H-961.3zM-953.2 79.4l-0.3-1.2h-2.1l-0.3 1.2h-1.9l2.1-6.5h2.3l2.1 6.5H-953.2zM-953.9 76.7l-0.3-1.1c-0.1-0.2-0.1-0.5-0.2-0.9s-0.2-0.6-0.2-0.8c0 0.2-0.1 0.4-0.2 0.7s-0.3 1-0.5 2H-953.9zM-989.5 90.3h-1.7v-5h-1.6v-1.4h4.9v1.4h-1.6V90.3zM-981.2 87c0 1.1-0.3 1.9-0.8 2.5 -0.5 0.6-1.3 0.8-2.3 0.8 -1 0-1.8-0.3-2.3-0.9 -0.5-0.6-0.8-1.4-0.8-2.5 0-1.1 0.3-1.9 0.8-2.5s1.3-0.9 2.3-0.9c1 0 1.8 0.3 2.3 0.8C-981.5 85.1-981.2 85.9-981.2 87zM-985.6 87c0 1.3 0.4 1.9 1.3 1.9 0.4 0 0.8-0.2 1-0.5s0.3-0.8 0.3-1.4c0-0.6-0.1-1.1-0.3-1.4 -0.2-0.3-0.5-0.5-1-0.5C-985.2 85.1-985.6 85.7-985.6 87zM-980.3 83.8h2.3c0.9 0 1.5 0.1 2 0.4 0.4 0.3 0.6 0.7 0.6 1.2 0 0.4-0.1 0.7-0.3 0.9 -0.2 0.3-0.4 0.4-0.7 0.5v0c0.4 0.1 0.7 0.3 0.9 0.5 0.2 0.2 0.3 0.6 0.3 1 0 0.6-0.2 1-0.7 1.4 -0.4 0.3-1 0.5-1.8 0.5h-2.5V83.8zM-978.5 86.3h0.5c0.3 0 0.4-0.1 0.6-0.2 0.1-0.1 0.2-0.3 0.2-0.5 0-0.4-0.3-0.5-0.8-0.5h-0.5V86.3zM-978.5 87.5v1.4h0.6c0.5 0 0.8-0.2 0.8-0.7 0-0.2-0.1-0.4-0.2-0.5 -0.1-0.1-0.4-0.2-0.6-0.2H-978.5zM-970.4 90.3l-0.3-1.2h-2.1l-0.3 1.2h-1.9l2.1-6.5h2.3l2.1 6.5H-970.4zM-971.1 87.6l-0.3-1.1c-0.1-0.2-0.1-0.5-0.2-0.9s-0.2-0.6-0.2-0.8c0 0.2-0.1 0.4-0.2 0.7s-0.3 1-0.5 2H-971.1zM-963.3 85.8c0 0.7-0.2 1.3-0.6 1.7 -0.4 0.4-1 0.6-1.8 0.6h-0.5v2.1h-1.7v-6.5h2.2c0.8 0 1.4 0.2 1.8 0.5C-963.5 84.7-963.3 85.2-963.3 85.8zM-966.3 86.7h0.3c0.3 0 0.5-0.1 0.6-0.2 0.2-0.1 0.2-0.4 0.2-0.6 0-0.4-0.2-0.7-0.7-0.7h-0.5V86.7zM-958.6 90.3l-0.3-1.2h-2.1l-0.3 1.2h-1.9l2.1-6.5h2.3l2.1 6.5H-958.6zM-959.2 87.6l-0.3-1.1c-0.1-0.2-0.1-0.5-0.2-0.9s-0.2-0.6-0.2-0.8c0 0.2-0.1 0.4-0.2 0.7s-0.3 1-0.5 2H-959.2z"/><path d="M-772.4 38c0-4.1-2.7-7.3-6.5-8.2l6.4-10.1h-11.4l-1.6 2.5c-1.6-1.8-3.9-2.8-6.7-2.8 -1.2 0-2.3 0.2-3.3 0.6 -8.5-7.4-19.7-12-31.9-12 -12 0-23 4.4-31.5 11.6h-10.1l-15.9 15.6 10.2 10.6c-0.8 3.5-1.2 7.1-1.2 10.8 0 26.8 21.8 48.6 48.6 48.6 26.8 0 48.6-21.8 48.6-48.6 0-3.5-0.4-7-1.1-10.3C-775.6 45.8-772.4 42.4-772.4 38z"/><path class="st2" d="M-868.9 55.4V35.7l-5.4 5.4 -5.5-5.7 12.2-12h8.4v32H-868.9zM-855.8 39.4c0-8.7 4.7-16.5 14.2-16.5 9.6 0 14.2 7.8 14.2 16.5S-832 56-841.6 56C-851.1 56-855.8 48.1-855.8 39.4zM-837.1 39.4c0-5.4-1.4-8-4.5-8 -3.1 0-4.5 2.5-4.5 8 0 5.4 1.4 8 4.5 8C-838.5 47.4-837.1 44.8-837.1 39.4zM-825.6 39.4c0-8.7 4.7-16.5 14.2-16.5 9.6 0 14.2 7.8 14.2 16.5S-801.8 56-811.4 56C-820.9 56-825.6 48.1-825.6 39.4zM-806.9 39.4c0-5.4-1.4-8-4.5-8 -3.1 0-4.5 2.5-4.5 8 0 5.4 1.4 8 4.5 8C-808.3 47.4-806.9 44.8-806.9 39.4z"/><path class="st2" d="M-797.3 27.9c0-2.7 2-4.8 5.1-4.8 3.1 0 5.1 2.1 5.1 4.8 0 2.7-2 4.8-5.1 4.8C-795.3 32.7-797.3 30.6-797.3 27.9zM-794.1 42.5l12.2-19.1h2.8l-12.2 19.1H-794.1zM-790.5 27.9c0-1.3-0.7-1.8-1.7-1.8 -0.9 0-1.6 0.5-1.6 1.8 0 1.2 0.7 1.7 1.6 1.7C-791.3 29.7-790.5 29.2-790.5 27.9zM-786.2 38c0-2.7 2-4.8 5.1-4.8 3.1 0 5.1 2.1 5.1 4.8 0 2.7-2 4.8-5.1 4.8C-784.2 42.8-786.2 40.7-786.2 38zM-779.5 38c0-1.3-0.7-1.8-1.7-1.8 -0.9 0-1.6 0.5-1.6 1.8 0 1.3 0.7 1.7 1.6 1.7C-780.2 39.8-779.5 39.3-779.5 38z"/><path class="st1" d="M-846.6 62v1.4h-2.6v5.1h-1.8V62H-846.6zM-841.9 68.5l-0.3-1.2h-2.1l-0.3 1.2h-1.9l2.1-6.5h2.3l2.1 6.5H-841.9zM-842.6 65.9l-0.3-1.1c-0.1-0.2-0.1-0.5-0.2-0.9 -0.1-0.4-0.2-0.6-0.2-0.8 0 0.2-0.1 0.4-0.2 0.7 -0.1 0.3-0.3 1-0.5 2H-842.6zM-834.9 64.1c0 0.7-0.2 1.3-0.6 1.7 -0.4 0.4-1 0.6-1.8 0.6h-0.5v2.1h-1.7V62h2.2c0.8 0 1.4 0.2 1.8 0.5C-835.1 62.9-834.9 63.4-834.9 64.1zM-837.8 64.9h0.3c0.3 0 0.5-0.1 0.6-0.2 0.2-0.1 0.2-0.4 0.2-0.6 0-0.4-0.2-0.7-0.7-0.7h-0.5V64.9zM-830.1 68.5l-0.3-1.2h-2.1l-0.3 1.2h-1.9l2.1-6.5h2.3l2.1 6.5H-830.1zM-830.8 65.9l-0.3-1.1c-0.1-0.2-0.1-0.5-0.2-0.9 -0.1-0.4-0.2-0.6-0.2-0.8 0 0.2-0.1 0.4-0.2 0.7 -0.1 0.3-0.3 1-0.5 2H-830.8zM-822.2 68.5h-1.8v-2.6h-2v2.6h-1.8V62h1.8v2.4h2V62h1.8V68.5zM-818.1 68.5h-1.7v-5h-1.6V62h4.9v1.4h-1.6V68.5zM-815.9 62h1.6v2.8c0 0.3 0 0.9-0.1 1.8h0l2.6-4.5h2.2v6.5h-1.5v-2.7c0-0.4 0-1 0.1-1.8h0l-2.6 4.5h-2.2V62zM-806 66.2l-1.3 2.4h-2l1.8-2.8c-0.3-0.2-0.6-0.4-0.8-0.7s-0.3-0.6-0.3-1c0-1.3 0.9-1.9 2.6-1.9h2.1v6.5h-1.7v-2.4H-806zM-805.4 63.4h-0.4c-0.3 0-0.5 0.1-0.7 0.2 -0.2 0.1-0.2 0.3-0.2 0.5 0 0.3 0.1 0.5 0.2 0.6 0.2 0.1 0.4 0.2 0.7 0.2h0.3V63.4zM-850.7 72.9h2.3c0.9 0 1.5 0.1 2 0.4 0.4 0.3 0.6 0.7 0.6 1.2 0 0.4-0.1 0.7-0.3 0.9 -0.2 0.3-0.4 0.4-0.7 0.5v0c0.4 0.1 0.7 0.3 0.9 0.5 0.2 0.2 0.3 0.6 0.3 1 0 0.6-0.2 1-0.7 1.4 -0.4 0.3-1 0.5-1.8 0.5h-2.5V72.9zM-848.9 75.4h0.5c0.3 0 0.4-0.1 0.6-0.2 0.1-0.1 0.2-0.3 0.2-0.5 0-0.4-0.3-0.5-0.8-0.5h-0.5V75.4zM-848.9 76.7V78h0.6c0.5 0 0.8-0.2 0.8-0.7 0-0.2-0.1-0.4-0.2-0.5 -0.1-0.1-0.4-0.2-0.6-0.2H-848.9zM-838.7 76.1c0 1.1-0.3 1.9-0.8 2.5 -0.5 0.6-1.3 0.8-2.3 0.8 -1 0-1.8-0.3-2.3-0.9 -0.5-0.6-0.8-1.4-0.8-2.5 0-1.1 0.3-1.9 0.8-2.5s1.3-0.9 2.3-0.9c1 0 1.8 0.3 2.3 0.8C-839 74.2-838.7 75-838.7 76.1zM-843.2 76.1c0 1.3 0.4 1.9 1.3 1.9 0.4 0 0.8-0.2 1-0.5s0.3-0.8 0.3-1.4c0-0.6-0.1-1.1-0.3-1.4 -0.2-0.3-0.5-0.5-1-0.5C-842.7 74.2-843.2 74.9-843.2 76.1zM-833.1 74.4c0 0.9-0.5 1.4-1.5 1.5v0c0.6 0 1 0.2 1.3 0.5 0.3 0.3 0.4 0.6 0.4 1.1 0 0.4-0.1 0.7-0.3 1s-0.5 0.5-0.9 0.7c-0.4 0.2-0.9 0.2-1.5 0.2 -1 0-1.9-0.1-2.5-0.3v-1.5c0.3 0.1 0.6 0.2 1 0.3s0.7 0.1 1.1 0.1c0.5 0 0.9-0.1 1.1-0.2 0.2-0.1 0.3-0.3 0.3-0.5 0-0.4-0.5-0.6-1.5-0.6h-0.8v-1.4h0.7c0.3 0 0.6 0 0.8-0.1 0.2 0 0.3-0.1 0.4-0.2 0.1-0.1 0.1-0.2 0.1-0.3 0-0.3-0.3-0.5-0.9-0.5 -0.6 0-1.1 0.2-1.5 0.5l-0.7-1.2c0.4-0.2 0.8-0.4 1.2-0.5 0.4-0.1 0.9-0.2 1.4-0.2 0.7 0 1.3 0.1 1.7 0.4C-833.3 73.6-833.1 73.9-833.1 74.4zM-832 72.9h2.3c0.9 0 1.5 0.1 2 0.4 0.4 0.3 0.6 0.7 0.6 1.2 0 0.4-0.1 0.7-0.3 0.9 -0.2 0.3-0.4 0.4-0.7 0.5v0c0.4 0.1 0.7 0.3 0.9 0.5 0.2 0.2 0.3 0.6 0.3 1 0 0.6-0.2 1-0.7 1.4 -0.4 0.3-1 0.5-1.8 0.5h-2.5V72.9zM-830.2 75.4h0.5c0.3 0 0.4-0.1 0.6-0.2 0.1-0.1 0.2-0.3 0.2-0.5 0-0.4-0.3-0.5-0.8-0.5h-0.5V75.4zM-830.2 76.7V78h0.6c0.5 0 0.8-0.2 0.8-0.7 0-0.2-0.1-0.4-0.2-0.5 -0.1-0.1-0.4-0.2-0.6-0.2H-830.2zM-821.4 75c0 0.7-0.2 1.3-0.6 1.7 -0.4 0.4-1 0.6-1.8 0.6h-0.5v2.1h-1.7v-6.5h2.2c0.8 0 1.4 0.2 1.8 0.5C-821.6 73.8-821.4 74.3-821.4 75zM-824.4 75.8h0.3c0.3 0 0.5-0.1 0.6-0.2 0.2-0.1 0.2-0.4 0.2-0.6 0-0.4-0.2-0.7-0.7-0.7h-0.5V75.8zM-816.6 79.4l-0.3-1.2h-2.1l-0.3 1.2h-1.9l2.1-6.5h2.3l2.1 6.5H-816.6zM-817.3 76.7l-0.3-1.1c-0.1-0.2-0.1-0.5-0.2-0.9s-0.2-0.6-0.2-0.8c0 0.2-0.1 0.4-0.2 0.7s-0.3 1-0.5 2H-817.3zM-811.4 79.4h-1.7v-5h-1.6v-1.4h4.9v1.4h-1.6V79.4zM-805.2 79.4l-0.3-1.2h-2.1l-0.3 1.2h-1.9l2.1-6.5h2.3l2.1 6.5H-805.2zM-805.8 76.7l-0.3-1.1c-0.1-0.2-0.1-0.5-0.2-0.9s-0.2-0.6-0.2-0.8c0 0.2-0.1 0.4-0.2 0.7s-0.3 1-0.5 2H-805.8zM-834.4 92.3h-1.7v-2h-3.8v2h-1.7v-3.4h0.5c0.4-0.7 0.7-1.4 1-2.3s0.4-1.8 0.5-2.8h4.3v5h0.9V92.3zM-837 88.8v-3.6h-1.2c-0.1 1.3-0.5 2.5-1 3.6H-837zM-829.9 90.3h-3.8v-6.5h3.8v1.4h-2.1v1h1.9v1.4h-1.9v1.2h2.1V90.3zM-823.5 90.3h-1.8v-2.6h-2v2.6h-1.8v-6.5h1.8v2.4h2v-2.4h1.8V90.3zM-818.4 90.3h-3.8v-6.5h3.8v1.4h-2.1v1h1.9v1.4h-1.9v1.2h2.1V90.3zM-813.2 83.8v1.4h-2.6v5.1h-1.8v-6.5H-813.2z"/><circle cx="-238.4" cy="56.7" r="48.6"/><circle class="st2" cx="-219.2" cy="75.3" r="6.3"/><circle class="st2" cx="-253.2" cy="75.3" r="6.3"/><path class="st2" d="M-251.7 49.2h-0.6V52h0.6c1.1 0 1.7-0.5 1.7-1.5C-250 49.6-250.5 49.2-251.7 49.2zM-215.2 43.8h-10.2v-9.5h-43.1v41h5.4c0-5.4 4.4-9.8 9.8-9.8 5.4 0 9.8 4.4 9.8 9.8h14.3c0-5.4 4.4-9.8 9.8-9.8 5.4 0 9.8 4.4 9.8 9.8h3.1V59L-215.2 43.8zM-256.7 49.3h-4v2.3h3.6v2.6h-3.6v4.6h-3.2V46.7h7.2V49.3zM-248.9 58.9l-2.6-4.4h-0.8v4.4h-3.3V46.7h4c3.3 0 5 1.2 5 3.6 0 1.4-0.7 2.5-2.1 3.3l3.5 5.3H-248.9zM-237.7 49.3h-3.9v1.9h3.6v2.6h-3.6v2.3h3.9v2.7h-7.2V46.7h7.2V49.3zM-229.2 49.3h-3.9v1.9h3.6v2.6h-3.6v2.3h3.9v2.7h-7.2V46.7h7.2V49.3zM-222.8 59V47.8h5.3l6.6 11.2H-222.8z"/><circle cx="-90.9" cy="56.7" r="48.6"/><path class="st2" d="M-115.3 76.8V66.7c0-4.8 6.2-6.7 8.9-2.6l0 0c0 0 1.6 2.4 5.3 2.5 5.2 0.1 7.5-1.4 10.2-4.7l26.1 11.7c1.3 0.6 2.1 1.9 2.2 3.3l0 0H-115.3zM-67.2 83.5h-48.1v-4.6h52.6l0 0C-62.6 81.4-64.7 83.5-67.2 83.5z"/><path class="st2" d="M-109.1 24.1v34.5c1.8 0.3 3.3 1.4 4.3 2.9 0.1 0.2 1.3 1.6 3.7 1.6 0.2 0 0.3 0 0.5 0 4.1 0 5.8-1.2 8.1-4V24.1H-109.1zM-95.6 57.2h-10.7v-6.4h2.3v3.5h2.1v-3.2h2.3v3.2h4V57.2zM-95.6 43.9l-3.9 2.3v0.7h3.9v2.9h-10.7v-3.5c0-2.9 1.1-4.4 3.2-4.4 1.2 0 2.2 0.6 2.9 1.8l4.7-3.1V43.9zM-95.6 40.4h-10.7V34h2.3v3.5h1.7v-3.2h2.3v3.2h2V34h2.4V40.4zM-95.6 32.9h-10.7v-6.4h2.3V30h1.7v-3.2h2.3V30h2v-3.5h2.4V32.9zM-103 44.8c-0.7 0-1.1 0.5-1.1 1.5v0.6h2.5v-0.5C-101.7 45.4-102.1 44.8-103 44.8z"/><circle cx="204.3" cy="56.7" r="48.6"/><polygon class="st2" points="206.7 70.3 236.2 40.5 226.7 31 197.2 60.8 182.3 46.1 172.8 55.5 187.7 70.4 187.7 70.4 197.2 79.9 201 76 206.7 70.3 "/><circle cx="56.7" cy="56.7" r="48.6"/><path class="st2" d="M83.1 38.8L57.5 22.2v3.7 4.9C42.5 30.8 30.2 43 30.2 58v1.8c2.1-8.1 9.5-14.1 18.2-14.1h9v9.8L83.1 38.8zM30.2 74.6l25.6 16.7v-3.7 -4.9c15.1 0 27.3-12.2 27.3-27.3v-1.8c-2.1 8.1-9.5 14.1-18.2 14.1h-9v-9.8L30.2 74.6z"/><circle cx="-976.2" cy="205.2" r="48.6"/><path class="st2" d="M-956.3 178.8c-28.3-12.2-47.7 4-47.7 4 1 45.7 27.8 53.4 27.8 53.4s26.8-7.7 27.8-53.4C-948.4 182.8-951.2 180.8-956.3 178.8zM-974.3 213l-3.5 3.5 -2.4 2.4 -5.9-5.9 0 0 -9.2-9.2 5.9-5.9 9.2 9.2 18.3-18.5 5.9 5.9L-974.3 213 -974.3 213z"/><circle cx="-828.7" cy="205.2" r="48.6"/><path class="st2" d="M-802.4 197.9c0-8.1-6.5-14.6-14.6-14.6 -4.8 0-9 2.3-11.7 5.8 -2.7-3.5-6.9-5.8-11.6-5.8 -8.1 0-14.6 6.5-14.6 14.6 0 2 0.4 3.9 1.2 5.7l0 0c0 0 1.8 8.1 25.1 27.7 0 0 0 0 0 0 0 0 0 0 0 0 23.2-19.6 25.1-27.7 25.1-27.7l0 0C-802.8 201.9-802.4 200-802.4 197.9z"/><circle cx="-1123.8" cy="205.2" r="48.6"/><path class="st2" d="M-1085.9 198.7c0-1.9-1.5-3.4-3.4-3.4h-6.9 -3.7 -1.9l1.2-6.6c0.6-3.2 0.1-6.4-1.2-9.4v0c-0.5-1.2-1.8-2-3.1-2l0 0c-1.9 0-3.4 1.5-3.4 3.4v5.4l-6.4 11.5h-4.2v20l1.9 0 6.9 4.5h4.8 9 1.6c1.9 0 3.4-1.5 3.4-3.4v0c0-1.9-1.5-3.4-3.4-3.4h2.1c1.9 0 3.4-1.5 3.4-3.4 0-1.9-1.5-3.4-3.4-3.4h1.8c1.9 0 3.4-1.5 3.4-3.4v0c0-1.9-1.5-3.4-3.4-3.4h1.5C-1087.4 202.1-1085.9 200.6-1085.9 198.7z"/><path class="st2" d="M-1141.3 210.7h-2.5v0.9h2.5c0.3 0 0.5-0.2 0.5-0.4C-1140.8 210.8-1141 210.7-1141.3 210.7zM-1141 207.8c0-0.2-0.2-0.4-0.4-0.4h-2.3v0.8h2.3C-1141.2 208.1-1141 208-1141 207.8zM-1161.7 197.6v20.1h38.9v-20.1H-1161.7zM-1151.1 214h-3.8v-7.8l-2.2 2.1 -2.2-2.3 4.9-4.8h3.3V214zM-1140.3 214h-6.8v-9.2h6.6c2.1 0 3 1.3 3 2.4s-0.7 1.8-1.6 2.1c1.1 0.2 1.8 1.1 1.8 2.2C-1137.3 212.8-1138.3 214-1140.3 214zM-1126.2 214h-3.8v-7.8l-2.2 2.1 -2.2-2.3 4.9-4.8h3.3V214z"/><circle cx="204.3" cy="205.2" r="48.6"/><path class="st2" d="M236.8 205.2c0 18-14.6 32.6-32.6 32.6s-32.6-14.6-32.6-32.6 14.6-32.6 32.6-32.6c6.5 0 12.7 1.9 18 5.4l-3.6 4.3 16.1 2.7 -5.7-15.3 -3.2 3.9c-6.4-4.4-13.8-6.7-21.6-6.7 -21.1 0-38.3 17.2-38.3 38.3s17.2 38.3 38.3 38.3c21.1 0 38.3-17.2 38.3-38.3H236.8z"/><path class="st1" d="M191.2 221.4c0 0.8 0.5 1 1.1 1 0.4 0 0.8-0.1 1.1-0.2V219h2.3v7.7h-2.3v-2.5c-0.6 0.1-1 0.2-1.5 0.2 -2.1 0-3.1-1.2-3.1-3V219h2.4V221.4zM202.1 226.7l-0.3-0.9H199l-0.3 0.9h-2.7l2.9-7.7h2.9l2.9 7.7H202.1zM200.4 221.3l-0.8 2.5h1.5L200.4 221.3zM204.3 222.9c0-2.4 1.8-4 4.3-4 2 0 3.1 1.2 3.5 2.3l-2 0.9c-0.2-0.6-0.8-1.1-1.5-1.1 -1.1 0-1.9 0.9-1.9 1.9 0 1.1 0.8 1.9 1.9 1.9 0.7 0 1.3-0.5 1.5-1.1l2 0.9c-0.5 1-1.5 2.3-3.5 2.3C206.1 226.9 204.3 225.2 204.3 222.9zM217.7 226.7l-0.3-0.9h-2.8l-0.3 0.9h-2.7l2.9-7.7h2.9l2.9 7.7H217.7zM216 221.3l-0.8 2.5h1.5L216 221.3z"/><path class="st2" d="M182.2 214.7v-6c11.6-8.2 12.7-9.1 12.7-11 0-1.2-1.3-2-2.9-2 -2.7 0-4.8 1-6.7 2.6l-4.2-5.1c2.9-3.1 7.2-4.3 10.7-4.3 6.6 0 10.9 3.7 10.9 8.7 0 3.5-2 6.3-8 10.3h8.3v6.7H182.2zM216.5 214.7v-4.1h-12.2v-5.9l9.2-15.4h10.7v14.6h2.9v6.7h-2.9v4.1H216.5zM216.5 196l-4.8 8h4.8V196z"/><circle cx="-681.1" cy="205.2" r="48.6"/><circle class="st1" cx="-685.2" cy="183.2" r="3.3"/><circle class="st1" cx="-676.9" cy="214.6" r="3.3"/><circle class="st1" cx="-662.4" cy="221.2" r="4.4"/><circle class="st1" cx="-685.2" cy="198.9" r="4.4"/><rect x="-665.9" y="191.1" transform="matrix(0.5386 0.8426 -0.8426 0.5386 -138.4291 650.6516)" class="st1" width="5.2" height="15.7"/><rect x="-692.8" y="212.7" transform="matrix(0.5939 -0.8045 0.8045 0.5939 -457.7665 -465.7398)" class="st1" width="5.2" height="15.7"/><rect x="-703.6" y="187.7" transform="matrix(-0.6038 -0.7971 0.7971 -0.6038 -1280.2288 -245.0954)" class="st1" width="5.2" height="15.7"/><path class="st2" d="M-681.1 166.9c-21.1 0-38.3 17.2-38.3 38.3s17.2 38.3 38.3 38.3 38.3-17.2 38.3-38.3S-660 166.9-681.1 166.9zM-713.7 205.2c0-18 14.6-32.6 32.6-32.6 5.3 0 10.2 1.3 14.7 3.5l-36.5 53.3C-709.5 223.4-713.7 214.8-713.7 205.2zM-681.1 237.8c-6.4 0-12.3-1.8-17.3-5l36.8-53.7c7.9 5.9 13.1 15.4 13.1 26.1C-648.5 223.2-663.1 237.8-681.1 237.8z"/><circle cx="-386" cy="205.2" r="48.6"/><path class="st1" d="M-383 208.4c10.9-10.7 4.8-23.1 0.1-28.2l-6.3 5.8c1.3 1.4 7.5 9 0.1 16.3 -10.9 10.8-4.8 22.9-0.1 27.8l6.1-5.9C-383.7 223.4-390.6 215.9-383 208.4zM-369.9 213.7c7.8-7.7 3.5-16.6 0.1-20.2l-4.5 4.2c0.9 1 5.4 6.5 0.1 11.7 -7.8 7.7-3.5 16.5-0.1 20l4.4-4.3C-370.4 224.5-375.3 219.1-369.9 213.7zM-397.8 203.7c7.8-7.7 3.5-16.6 0.1-20.2l-4.5 4.2c0.9 1 5.4 6.5 0.1 11.7 -7.8 7.7-3.5 16.5-0.1 20l4.4-4.2C-398.6 214.1-403 208.8-397.8 203.7z"/><path class="st2" d="M-386 166.9c-21.1 0-38.3 17.2-38.3 38.3s17.2 38.3 38.3 38.3 38.3-17.2 38.3-38.3S-364.9 166.9-386 166.9zM-418.6 205.2c0-18 14.6-32.6 32.6-32.6 5.3 0 10.2 1.3 14.7 3.5l-36.5 53.3C-414.4 223.4-418.6 214.8-418.6 205.2zM-386 237.8c-6.4 0-12.3-1.8-17.3-5l36.8-53.7c7.9 5.9 13.1 15.4 13.1 26.1C-353.4 223.2-368 237.8-386 237.8z"/><circle cx="-533.5" cy="205.2" r="48.6"/><path class="st2" d="M-517.8 194l-15.8-15.8 -15.8 15.8c-8.7 8.7-8.7 22.8 0 31.5 8.7 8.7 22.8 8.7 31.5 0C-509.1 216.9-509.1 202.7-517.8 194z"/><circle cx="-238.4" cy="205.2" r="48.6"/><path class="st2" d="M-209.5 197.9c0-2.4-2-4.4-4.4-4.4h-9.1 -4.9 -2.5l1.5-8.8c0.7-4.2 0.2-8.5-1.5-12.3l0 0c-0.7-1.6-2.3-2.7-4.1-2.7h0c-2.5 0-4.5 2-4.5 4.5v7.2l-8.4 15.2h-5.6v26.4l2.5 0 9.1 5.9h6.4 11.9 2c2.4 0 4.4-2 4.4-4.4v0c0-2.4-2-4.4-4.4-4.4h2.7c2.4 0 4.4-2 4.4-4.4s-2-4.4-4.4-4.4h2.4c2.4 0 4.4-2 4.4-4.4v0c0-2.4-2-4.4-4.4-4.4h2C-211.4 202.3-209.5 200.3-209.5 197.9z"/><rect x="-267.4" y="196.4" class="st2" width="9.2" height="26.5"/><circle cx="56.7" cy="205.2" r="48.6"/><path class="st1" d="M56.7 177c-15.6 0-28.2 12.7-28.2 28.2s12.7 28.2 28.2 28.2 28.2-12.7 28.2-28.2S72.3 177 56.7 177zM56.7 230.8c-14.1 0-25.6-11.5-25.6-25.6s11.5-25.6 25.6-25.6 25.6 11.5 25.6 25.6S70.8 230.8 56.7 230.8zM54.6 188.3c-0.3 0-0.8 0-1.2 0 -0.5 0-1 0.1-1.6 0.2 -0.6 0.1-1.2 0.2-1.9 0.5 -0.6 0.3-1.3 0.5-2 0.8 -0.7 0.4-1.3 0.8-2 1.2 -0.6 0.5-1.3 1-1.8 1.6 -0.5 0.6-1.1 1.2-1.5 1.9 -0.5 0.7-0.8 1.4-1.2 2.1 -0.3 0.7-0.6 1.4-0.8 2.1 -0.2 0.7-0.3 1.3-0.4 1.9 -0.1 0.6-0.1 1.1-0.1 1.6 0 0.5 0 0.9 0.1 1.2 0.1 0.7 0.2 1.1 0.2 1.1s0.1-0.4 0.3-1c0.2-0.6 0.5-1.5 1-2.5 0.2-0.5 0.5-1 0.8-1.6 0.3-0.5 0.6-1.1 1-1.7 0.4-0.6 0.7-1.1 1.2-1.7 0.4-0.6 0.9-1.1 1.4-1.6 0.5-0.5 1-0.9 1.5-1.4 0.6-0.4 1.1-0.8 1.6-1.2 0.6-0.4 1.1-0.7 1.6-1 0.5-0.3 1.1-0.6 1.6-0.9 0.5-0.3 0.9-0.5 1.4-0.7 0.4-0.2 0.8-0.4 1.1-0.5 0.6-0.3 1-0.5 1-0.5S55.2 188.3 54.6 188.3z"/><circle cx="-90.9" cy="205.2" r="48.6"/><path class="st2" d="M-122.1 223.6h57c3 0 5.4-2.4 5.4-5.4h-62.4V223.6zM-62.3 211.9l-30.2-13.5 -2.4 2.4 0 0 -2.1 2.1 -3.6 3.6 -2.4 2.4 -2.1 2.1 -2.1-2.1 -6-6 -0.8-0.8 -3.9-3.9c-2.3 0.6-4.3 2.6-4.3 5.5v12h62.4C-59.7 214.1-60.7 212.6-62.3 211.9z"/><polygon class="st2" points="-111 200.9 -105 206.9 -102.6 204.5 -101.5 203.3 -98.9 200.8 -99 200.8 -80.2 181.9 -86.3 175.9 -105 194.8 -114.4 185.4 -120.4 191.5 -111 200.9 "/></svg>