<?xml version="1.0" encoding="utf-8"?>
<!-- Generator: Adobe Illustrator 22.0.0, SVG Export Plug-In . SVG Version: 6.00 Build 0)  -->
<svg version="1.1" id="Layer_1" xmlns="http://www.w3.org/2000/svg" xmlns:xlink="http://www.w3.org/1999/xlink" x="0px" y="0px"
	 viewBox="0 0 113.4 113.4" style="enable-background:new 0 0 113.4 113.4;" xml:space="preserve">
<style type="text/css">
	.st0{fill:#ED1C24;}
	.st1{fill:#FFFFFF;}
	.st2{fill:#FFDD00;}
</style>
<g>
	<circle class="st0" cx="-828.7" cy="-91.8" r="48.6"/>
	<g>
		<path class="st1" d="M-858.7-105.5c0-7.3,5.3-13.1,13.8-13.1c8.5,0,13.9,5.8,13.9,13.1c0,7.2-5.4,12.9-13.9,12.9
			C-853.3-92.6-858.7-98.3-858.7-105.5z M-850.1-66.3l32.9-51.5h7.6l-33,51.5H-850.1z M-840.4-105.5c0-3.5-2-4.9-4.5-4.9
			c-2.4,0-4.3,1.4-4.3,4.9c0,3.3,1.9,4.7,4.3,4.7C-842.4-100.8-840.4-102.2-840.4-105.5z M-828.8-78.2c0-7.3,5.3-13.1,13.8-13.1
			s13.8,5.8,13.8,13.1c0,7.2-5.4,12.9-13.8,12.9S-828.8-71.1-828.8-78.2z M-810.5-78.2c0-3.5-2-4.9-4.5-4.9s-4.4,1.4-4.4,4.9
			c0,3.4,1.9,4.7,4.4,4.7S-810.5-74.8-810.5-78.2z"/>
	</g>
</g>
<g>
	<circle cx="-681.1" cy="-91.8" r="48.6"/>
	<g>
		<path class="st2" d="M-701.9-78.4l-4.7-7.8l-4.7,7.8h-9.1l8.6-13.1l-8-12.5h9.1l4.1,7.3l4.1-7.3h9.2l-8,12.4l8.6,13.2H-701.9z"/>
		<path class="st2" d="M-691.7-78.4v-25.6h7.8v13.7l8.9-13.7h8v25.6h-7.8V-93l-9.5,14.5H-691.7z"/>
		<path class="st2" d="M-657.8-78.4v-18.9h-6.9v-6.8h21.5v6.8h-6.8v18.9H-657.8z"/>
	</g>
</g>
<g>
	<circle class="st2" cx="-533.5" cy="-91.8" r="48.6"/>
	<g>
		<path d="M-558.1-78.4l-9.5-13v13h-7.8v-25.6h8l8.9,12.1v-12.1h7.8v25.6H-558.1z"/>
		<path d="M-546.8-78.4v-25.6h19.4v6.8h-11.7v2.5h11.4v6.8h-11.4v2.8h11.7v6.8H-546.8z"/>
		<path d="M-504.8-78.4l-3.3-14.5l-3.3,14.5h-8.1l-7.3-25.6h8.7l3.3,15.7l3.9-15.7h5.8l3.9,15.7l3.3-15.7h8.7l-7.3,25.6H-504.8z"/>
	</g>
</g>
<g>
	<path d="M-1215.1-110.5c0-4.1-2.7-7.3-6.5-8.2l6.4-10.1h-11.4l-1.6,2.5c-1.6-1.8-3.9-2.8-6.7-2.8c-1.2,0-2.3,0.2-3.3,0.6
		c-8.5-7.4-19.7-12-31.9-12c-12,0-23,4.4-31.5,11.6h-10.1l-15.9,15.6l10.2,10.6c-0.8,3.5-1.2,7.1-1.2,10.8
		c0,26.8,21.8,48.6,48.6,48.6c26.8,0,48.6-21.8,48.6-48.6c0-3.5-0.4-7-1.1-10.3C-1218.2-102.7-1215.1-106.1-1215.1-110.5z"/>
	<g>
		<polygon class="st2" points="-1322.5,-113.1 -1317,-107.4 -1311.6,-112.8 -1311.6,-93.1 -1301.9,-93.1 -1301.9,-125.1 
			-1310.3,-125.1 		"/>
		<path class="st2" d="M-1284.2-125.6c-9.6,0-14.2,7.8-14.2,16.5s4.7,16.6,14.2,16.6c9.6,0,14.2-7.9,14.2-16.6
			S-1274.7-125.6-1284.2-125.6z M-1284.2-101.1c-3.1,0-4.5-2.6-4.5-8c0-5.4,1.4-8,4.5-8c3.1,0,4.5,2.5,4.5,8
			C-1279.8-103.7-1281.2-101.1-1284.2-101.1z"/>
		<path class="st2" d="M-1254.1-125.6c-9.6,0-14.2,7.8-14.2,16.5s4.7,16.6,14.2,16.6c9.6,0,14.2-7.9,14.2-16.6
			S-1244.5-125.6-1254.1-125.6z M-1254.1-101.1c-3.1,0-4.5-2.6-4.5-8c0-5.4,1.4-8,4.5-8s4.5,2.5,4.5,8
			C-1249.6-103.7-1251-101.1-1254.1-101.1z"/>
		<path class="st2" d="M-1229.7-120.6c0-2.7-2-4.8-5.1-4.8c-3.1,0-5.1,2.1-5.1,4.8c0,2.7,2,4.8,5.1,4.8
			C-1231.7-115.8-1229.7-117.9-1229.7-120.6z M-1236.5-120.6c0-1.3,0.7-1.8,1.6-1.8c0.9,0,1.7,0.5,1.7,1.8c0,1.2-0.7,1.7-1.7,1.7
			C-1235.8-118.8-1236.5-119.3-1236.5-120.6z"/>
		<polygon class="st2" points="-1224.6,-125.1 -1236.8,-106 -1234,-106 -1221.8,-125.1 		"/>
		<path class="st2" d="M-1223.8-115.3c-3.1,0-5.1,2.1-5.1,4.8c0,2.7,2,4.8,5.1,4.8c3.1,0,5.1-2.1,5.1-4.8
			C-1218.7-113.2-1220.7-115.3-1223.8-115.3z M-1223.8-108.7c-0.9,0-1.6-0.5-1.6-1.7c0-1.3,0.7-1.8,1.6-1.8c0.9,0,1.7,0.5,1.7,1.8
			C-1222.1-109.2-1222.9-108.7-1223.8-108.7z"/>
	</g>
	<g>
		<g>
			<path class="st1" d="M-1289.3-86.5v1.4h-2.6v5.1h-1.8v-6.5H-1289.3z"/>
			<path class="st1" d="M-1284.6-80l-0.3-1.2h-2.1l-0.3,1.2h-1.9l2.1-6.5h2.3l2.1,6.5H-1284.6z M-1285.3-82.6l-0.3-1.1
				c-0.1-0.2-0.1-0.5-0.2-0.9s-0.2-0.6-0.2-0.8c0,0.2-0.1,0.4-0.2,0.7s-0.3,1-0.5,2H-1285.3z"/>
			<path class="st1" d="M-1277.5-84.4c0,0.7-0.2,1.3-0.6,1.7c-0.4,0.4-1,0.6-1.8,0.6h-0.5v2.1h-1.7v-6.5h2.2c0.8,0,1.4,0.2,1.8,0.5
				C-1277.7-85.6-1277.5-85.1-1277.5-84.4z M-1280.5-83.6h0.3c0.3,0,0.5-0.1,0.6-0.2s0.2-0.4,0.2-0.6c0-0.4-0.2-0.7-0.7-0.7h-0.5
				V-83.6z"/>
			<path class="st1" d="M-1272.8-80l-0.3-1.2h-2.1l-0.3,1.2h-1.9l2.1-6.5h2.3l2.1,6.5H-1272.8z M-1273.4-82.6l-0.3-1.1
				c-0.1-0.2-0.1-0.5-0.2-0.9s-0.2-0.6-0.2-0.8c0,0.2-0.1,0.4-0.2,0.7s-0.3,1-0.5,2H-1273.4z"/>
			<path class="st1" d="M-1264.8-80h-1.8v-2.6h-2v2.6h-1.8v-6.5h1.8v2.4h2v-2.4h1.8V-80z"/>
			<path class="st1" d="M-1260.8-80h-1.7v-5h-1.6v-1.4h4.9v1.4h-1.6V-80z"/>
			<path class="st1" d="M-1258.5-86.5h1.6v2.8c0,0.3,0,0.9-0.1,1.8h0l2.6-4.5h2.2v6.5h-1.5v-2.7c0-0.4,0-1,0.1-1.8h0l-2.6,4.5h-2.2
				V-86.5z"/>
			<path class="st1" d="M-1248.6-82.3l-1.3,2.4h-2l1.8-2.8c-0.3-0.2-0.6-0.4-0.8-0.7c-0.2-0.3-0.3-0.6-0.3-1c0-1.3,0.9-1.9,2.6-1.9
				h2.1v6.5h-1.7v-2.4H-1248.6z M-1248.1-85.1h-0.4c-0.3,0-0.5,0.1-0.7,0.2c-0.2,0.1-0.2,0.3-0.2,0.5c0,0.3,0.1,0.5,0.2,0.6
				s0.4,0.2,0.7,0.2h0.3V-85.1z"/>
			<path class="st1" d="M-1300.8-69.1h-1.8v-5h-1.8v5h-1.8v-6.5h5.3V-69.1z"/>
			<path class="st1" d="M-1293.5-72.4c0,1.1-0.3,1.9-0.8,2.5c-0.5,0.6-1.3,0.8-2.3,0.8c-1,0-1.8-0.3-2.3-0.9
				c-0.5-0.6-0.8-1.4-0.8-2.5c0-1.1,0.3-1.9,0.8-2.5c0.5-0.6,1.3-0.9,2.3-0.9c1,0,1.8,0.3,2.3,0.8
				C-1293.8-74.3-1293.5-73.4-1293.5-72.4z M-1298-72.4c0,1.3,0.4,1.9,1.3,1.9c0.4,0,0.8-0.2,1-0.5s0.3-0.8,0.3-1.4
				c0-0.6-0.1-1.1-0.3-1.4c-0.2-0.3-0.5-0.5-1-0.5C-1297.6-74.2-1298-73.6-1298-72.4z"/>
			<path class="st1" d="M-1286.1-67.1h-1.7v-2h-3.8v2h-1.7v-3.4h0.5c0.4-0.7,0.7-1.4,1-2.3c0.3-0.9,0.4-1.8,0.5-2.8h4.3v5h0.9V-67.1
				z M-1288.7-70.5v-3.6h-1.2c-0.1,1.3-0.5,2.5-1,3.6H-1288.7z"/>
			<path class="st1" d="M-1280-69.1h-1.8v-5h-1.2c-0.1,0.7-0.2,1.5-0.3,2.2c-0.1,0.8-0.2,1.3-0.3,1.6c-0.1,0.3-0.2,0.6-0.4,0.7
				c-0.2,0.2-0.4,0.3-0.6,0.4c-0.2,0.1-0.5,0.1-0.8,0.1c-0.3,0-0.5,0-0.7-0.1v-1.3c0.2,0.1,0.3,0.1,0.4,0.1c0.2,0,0.3-0.1,0.4-0.2
				c0.1-0.1,0.2-0.3,0.2-0.7c0.1-0.3,0.2-0.9,0.3-1.7s0.2-1.7,0.3-2.6h4.5V-69.1z"/>
			<path class="st1" d="M-1278.8-75.6h1.6v2.8c0,0.3,0,0.9-0.1,1.8h0l2.6-4.5h2.2v6.5h-1.5v-2.7c0-0.4,0-1,0.1-1.8h0l-2.6,4.5h-2.2
				V-75.6z"/>
			<path class="st1" d="M-1265.8-69.1h-1.8v-2.6h-2v2.6h-1.8v-6.5h1.8v2.4h2v-2.4h1.8V-69.1z"/>
			<path class="st1" d="M-1259.1-69.1h-1.8v-2.6h-2v2.6h-1.8v-6.5h1.8v2.4h2v-2.4h1.8V-69.1z"/>
			<path class="st1" d="M-1251.9-72.4c0,1.1-0.3,1.9-0.8,2.5c-0.5,0.6-1.3,0.8-2.3,0.8c-1,0-1.8-0.3-2.3-0.9
				c-0.5-0.6-0.8-1.4-0.8-2.5c0-1.1,0.3-1.9,0.8-2.5c0.5-0.6,1.3-0.9,2.3-0.9c1,0,1.8,0.3,2.3,0.8
				C-1252.1-74.3-1251.9-73.4-1251.9-72.4z M-1256.3-72.4c0,1.3,0.4,1.9,1.3,1.9c0.4,0,0.8-0.2,1-0.5s0.3-0.8,0.3-1.4
				c0-0.6-0.1-1.1-0.3-1.4c-0.2-0.3-0.5-0.5-1-0.5C-1255.9-74.2-1256.3-73.6-1256.3-72.4z"/>
			<path class="st1" d="M-1248-74.2c-0.4,0-0.7,0.2-1,0.5c-0.2,0.3-0.3,0.8-0.3,1.4c0,1.2,0.5,1.9,1.4,1.9c0.3,0,0.6,0,0.8-0.1
				c0.3-0.1,0.5-0.2,0.8-0.3v1.5c-0.5,0.2-1.2,0.4-1.8,0.4c-1,0-1.7-0.3-2.2-0.8c-0.5-0.6-0.8-1.4-0.8-2.5c0-0.7,0.1-1.3,0.4-1.8
				s0.6-0.9,1.1-1.2c0.5-0.3,1-0.4,1.7-0.4c0.7,0,1.4,0.2,2,0.5l-0.5,1.4c-0.2-0.1-0.5-0.2-0.7-0.3
				C-1247.5-74.2-1247.8-74.2-1248-74.2z"/>
			<path class="st1" d="M-1242.4-69.1h-1.7v-5h-1.6v-1.4h4.9v1.4h-1.6V-69.1z"/>
			<path class="st1" d="M-1240.1-75.6h1.6v2.8c0,0.3,0,0.9-0.1,1.8h0l2.6-4.5h2.2v6.5h-1.5v-2.7c0-0.4,0-1,0.1-1.8h0l-2.6,4.5h-2.2
				V-75.6z"/>
			<path class="st1" d="M-1284.6-58.2h-1.7v-5h-1.6v-1.4h4.9v1.4h-1.6V-58.2z"/>
			<path class="st1" d="M-1276.3-61.5c0,1.1-0.3,1.9-0.8,2.5c-0.5,0.6-1.3,0.8-2.3,0.8c-1,0-1.8-0.3-2.3-0.9
				c-0.5-0.6-0.8-1.4-0.8-2.5c0-1.1,0.3-1.9,0.8-2.5c0.5-0.6,1.3-0.9,2.3-0.9c1,0,1.8,0.3,2.3,0.8
				C-1276.6-63.4-1276.3-62.6-1276.3-61.5z M-1280.8-61.5c0,1.3,0.4,1.9,1.3,1.9c0.4,0,0.8-0.2,1-0.5s0.3-0.8,0.3-1.4
				c0-0.6-0.1-1.1-0.3-1.4c-0.2-0.3-0.5-0.5-1-0.5C-1280.3-63.4-1280.8-62.7-1280.8-61.5z"/>
			<path class="st1" d="M-1275.4-64.7h2.3c0.9,0,1.5,0.1,2,0.4c0.4,0.3,0.6,0.7,0.6,1.2c0,0.4-0.1,0.7-0.3,0.9
				c-0.2,0.3-0.4,0.4-0.7,0.5v0c0.4,0.1,0.7,0.3,0.9,0.5c0.2,0.2,0.3,0.6,0.3,1c0,0.6-0.2,1-0.7,1.4c-0.4,0.3-1,0.5-1.8,0.5h-2.5
				V-64.7z M-1273.6-62.2h0.5c0.3,0,0.4-0.1,0.6-0.2c0.1-0.1,0.2-0.3,0.2-0.5c0-0.4-0.3-0.5-0.8-0.5h-0.5V-62.2z M-1273.6-60.9v1.4
				h0.6c0.5,0,0.8-0.2,0.8-0.7c0-0.2-0.1-0.4-0.2-0.5c-0.1-0.1-0.4-0.2-0.6-0.2H-1273.6z"/>
			<path class="st1" d="M-1265.5-58.2l-0.3-1.2h-2.1l-0.3,1.2h-1.9l2.1-6.5h2.3l2.1,6.5H-1265.5z M-1266.2-60.9l-0.3-1.1
				c-0.1-0.2-0.1-0.5-0.2-0.9s-0.2-0.6-0.2-0.8c0,0.2-0.1,0.4-0.2,0.7s-0.3,1-0.5,2H-1266.2z"/>
			<path class="st1" d="M-1258.4-62.7c0,0.7-0.2,1.3-0.6,1.7c-0.4,0.4-1,0.6-1.8,0.6h-0.5v2.1h-1.7v-6.5h2.2c0.8,0,1.4,0.2,1.8,0.5
				C-1258.7-63.8-1258.4-63.3-1258.4-62.7z M-1261.4-61.8h0.3c0.3,0,0.5-0.1,0.6-0.2s0.2-0.4,0.2-0.6c0-0.4-0.2-0.7-0.7-0.7h-0.5
				V-61.8z"/>
			<path class="st1" d="M-1253.7-58.2l-0.3-1.2h-2.1l-0.3,1.2h-1.9l2.1-6.5h2.3l2.1,6.5H-1253.7z M-1254.4-60.9l-0.3-1.1
				c-0.1-0.2-0.1-0.5-0.2-0.9s-0.2-0.6-0.2-0.8c0,0.2-0.1,0.4-0.2,0.7s-0.3,1-0.5,2H-1254.4z"/>
		</g>
	</g>
</g>
<g>
	<path d="M-1067.5-110.5c0-4.1-2.7-7.3-6.5-8.2l6.4-10.1h-11.4l-1.6,2.5c-1.6-1.8-3.9-2.8-6.7-2.8c-1.2,0-2.3,0.2-3.3,0.6
		c-8.5-7.4-19.7-12-31.9-12c-12,0-23,4.4-31.5,11.6h-10.1l-15.9,15.6l10.2,10.6c-0.8,3.5-1.2,7.1-1.2,10.8
		c0,26.8,21.8,48.6,48.6,48.6c26.8,0,48.6-21.8,48.6-48.6c0-3.5-0.4-7-1.1-10.3C-1070.7-102.7-1067.5-106.1-1067.5-110.5z"/>
	<g>
		<polygon class="st2" points="-1175,-113.1 -1169.5,-107.4 -1164.1,-112.8 -1164.1,-93.1 -1154.3,-93.1 -1154.3,-125.1 
			-1162.7,-125.1 		"/>
		<path class="st2" d="M-1136.7-125.6c-9.6,0-14.2,7.8-14.2,16.5s4.7,16.6,14.2,16.6c9.6,0,14.2-7.9,14.2-16.6
			S-1127.1-125.6-1136.7-125.6z M-1136.7-101.1c-3.1,0-4.5-2.6-4.5-8c0-5.4,1.4-8,4.5-8s4.5,2.5,4.5,8
			C-1132.2-103.7-1133.6-101.1-1136.7-101.1z"/>
		<path class="st2" d="M-1106.5-125.6c-9.6,0-14.2,7.8-14.2,16.5s4.7,16.6,14.2,16.6c9.6,0,14.2-7.9,14.2-16.6
			S-1096.9-125.6-1106.5-125.6z M-1106.5-101.1c-3.1,0-4.5-2.6-4.5-8c0-5.4,1.4-8,4.5-8c3.1,0,4.5,2.5,4.5,8
			C-1102-103.7-1103.4-101.1-1106.5-101.1z"/>
		<path class="st2" d="M-1082.2-120.6c0-2.7-2-4.8-5.1-4.8c-3.1,0-5.1,2.1-5.1,4.8c0,2.7,2,4.8,5.1,4.8
			C-1084.2-115.8-1082.2-117.9-1082.2-120.6z M-1088.9-120.6c0-1.3,0.7-1.8,1.6-1.8c0.9,0,1.7,0.5,1.7,1.8c0,1.2-0.7,1.7-1.7,1.7
			C-1088.2-118.8-1088.9-119.3-1088.9-120.6z"/>
		<path class="st2" d="M-1076.2-115.3c-3.1,0-5.1,2.1-5.1,4.8c0,2.7,2,4.8,5.1,4.8c3.1,0,5.1-2.1,5.1-4.8
			C-1071.1-113.2-1073.1-115.3-1076.2-115.3z M-1076.2-108.7c-0.9,0-1.6-0.5-1.6-1.7c0-1.3,0.7-1.8,1.6-1.8c0.9,0,1.7,0.5,1.7,1.8
			C-1074.6-109.2-1075.3-108.7-1076.2-108.7z"/>
		<polygon class="st2" points="-1077,-125.1 -1089.2,-106 -1086.5,-106 -1074.2,-125.1 		"/>
	</g>
	<g>
		<g>
			<path class="st1" d="M-1141.7-86.5v1.4h-2.6v5.1h-1.8v-6.5H-1141.7z"/>
			<path class="st1" d="M-1137.1-80l-0.3-1.2h-2.1l-0.3,1.2h-1.9l2.1-6.5h2.3l2.1,6.5H-1137.1z M-1137.7-82.6l-0.3-1.1
				c-0.1-0.2-0.1-0.5-0.2-0.9c-0.1-0.4-0.2-0.6-0.2-0.8c0,0.2-0.1,0.4-0.2,0.7s-0.3,1-0.5,2H-1137.7z"/>
			<path class="st1" d="M-1130-84.4c0,0.7-0.2,1.3-0.6,1.7c-0.4,0.4-1,0.6-1.8,0.6h-0.5v2.1h-1.7v-6.5h2.2c0.8,0,1.4,0.2,1.8,0.5
				C-1130.2-85.6-1130-85.1-1130-84.4z M-1132.9-83.6h0.3c0.3,0,0.5-0.1,0.6-0.2c0.2-0.1,0.2-0.4,0.2-0.6c0-0.4-0.2-0.7-0.7-0.7
				h-0.5V-83.6z"/>
			<path class="st1" d="M-1125.2-80l-0.3-1.2h-2.1l-0.3,1.2h-1.9l2.1-6.5h2.3l2.1,6.5H-1125.2z M-1125.9-82.6l-0.3-1.1
				c-0.1-0.2-0.1-0.5-0.2-0.9s-0.2-0.6-0.2-0.8c0,0.2-0.1,0.4-0.2,0.7s-0.3,1-0.5,2H-1125.9z"/>
			<path class="st1" d="M-1117.3-80h-1.8v-2.6h-2v2.6h-1.8v-6.5h1.8v2.4h2v-2.4h1.8V-80z"/>
			<path class="st1" d="M-1113.3-80h-1.7v-5h-1.6v-1.4h4.9v1.4h-1.6V-80z"/>
			<path class="st1" d="M-1111-86.5h1.6v2.8c0,0.3,0,0.9-0.1,1.8h0l2.6-4.5h2.2v6.5h-1.5v-2.7c0-0.4,0-1,0.1-1.8h0l-2.6,4.5h-2.2
				V-86.5z"/>
			<path class="st1" d="M-1101.1-82.3l-1.3,2.4h-2l1.8-2.8c-0.3-0.2-0.6-0.4-0.8-0.7s-0.3-0.6-0.3-1c0-1.3,0.9-1.9,2.6-1.9h2.1v6.5
				h-1.7v-2.4H-1101.1z M-1100.5-85.1h-0.4c-0.3,0-0.5,0.1-0.7,0.2c-0.2,0.1-0.2,0.3-0.2,0.5c0,0.3,0.1,0.5,0.2,0.6
				c0.2,0.1,0.4,0.2,0.7,0.2h0.3V-85.1z"/>
			<path class="st1" d="M-1139.6-69.1h-2l-1.9-3.3v3.3h-1.8v-6.5h1.8v3.1l1.8-3.1h1.9l-2,3.1L-1139.6-69.1z"/>
			<path class="st1" d="M-1135.2-69.1l-0.3-1.2h-2.1l-0.3,1.2h-1.9l2.1-6.5h2.3l2.1,6.5H-1135.2z M-1135.9-71.8l-0.3-1.1
				c-0.1-0.2-0.1-0.5-0.2-0.9s-0.2-0.6-0.2-0.8c0,0.2-0.1,0.4-0.2,0.7s-0.3,1-0.5,2H-1135.9z"/>
			<path class="st1" d="M-1127.3-69.1h-1.8v-2.4c-0.7,0.3-1.4,0.4-2,0.4c-0.6,0-1.1-0.2-1.4-0.5s-0.5-0.7-0.5-1.3v-2.7h1.8v2.2
				c0,0.3,0.1,0.5,0.2,0.7s0.3,0.2,0.6,0.2c0.4,0,0.8-0.1,1.4-0.3v-2.7h1.8V-69.1z"/>
			<path class="st1" d="M-1122.3-69.1h-3.8v-6.5h3.8v1.4h-2.1v1h1.9v1.4h-1.9v1.2h2.1V-69.1z"/>
			<path class="st1" d="M-1118.5-74.2c-0.4,0-0.7,0.2-1,0.5c-0.2,0.3-0.3,0.8-0.3,1.4c0,1.2,0.5,1.9,1.4,1.9c0.3,0,0.6,0,0.8-0.1
				c0.3-0.1,0.5-0.2,0.8-0.3v1.5c-0.5,0.2-1.1,0.4-1.8,0.4c-1,0-1.7-0.3-2.2-0.8c-0.5-0.6-0.8-1.4-0.8-2.5c0-0.7,0.1-1.3,0.4-1.8
				c0.3-0.5,0.6-0.9,1.1-1.2c0.5-0.3,1-0.4,1.7-0.4c0.7,0,1.4,0.2,2,0.5l-0.5,1.4c-0.2-0.1-0.5-0.2-0.7-0.3
				C-1118-74.2-1118.3-74.2-1118.5-74.2z"/>
			<path class="st1" d="M-1112.9-69.1h-1.7v-5h-1.6v-1.4h4.9v1.4h-1.6V-69.1z"/>
			<path class="st1" d="M-1110.6-75.6h2.3c0.9,0,1.5,0.1,2,0.4c0.4,0.3,0.6,0.7,0.6,1.2c0,0.4-0.1,0.7-0.3,0.9
				c-0.2,0.3-0.4,0.4-0.7,0.5v0c0.4,0.1,0.7,0.3,0.9,0.5c0.2,0.2,0.3,0.6,0.3,1c0,0.6-0.2,1-0.7,1.4c-0.4,0.3-1,0.5-1.8,0.5h-2.5
				V-75.6z M-1108.9-73.1h0.5c0.3,0,0.4-0.1,0.6-0.2c0.1-0.1,0.2-0.3,0.2-0.5c0-0.4-0.3-0.5-0.8-0.5h-0.5V-73.1z M-1108.9-71.8v1.4
				h0.6c0.5,0,0.8-0.2,0.8-0.7c0-0.2-0.1-0.4-0.2-0.5c-0.1-0.1-0.4-0.2-0.6-0.2H-1108.9z"/>
			<path class="st1" d="M-1100.8-69.1l-0.3-1.2h-2.1l-0.3,1.2h-1.9l2.1-6.5h2.3l2.1,6.5H-1100.8z M-1101.5-71.8l-0.3-1.1
				c-0.1-0.2-0.1-0.5-0.2-0.9s-0.2-0.6-0.2-0.8c0,0.2-0.1,0.4-0.2,0.7s-0.3,1-0.5,2H-1101.5z"/>
			<path class="st1" d="M-1137.1-58.2h-1.7v-5h-1.6v-1.4h4.9v1.4h-1.6V-58.2z"/>
			<path class="st1" d="M-1128.8-61.5c0,1.1-0.3,1.9-0.8,2.5c-0.5,0.6-1.3,0.8-2.3,0.8c-1,0-1.8-0.3-2.3-0.9
				c-0.5-0.6-0.8-1.4-0.8-2.5c0-1.1,0.3-1.9,0.8-2.5c0.5-0.6,1.3-0.9,2.3-0.9c1,0,1.8,0.3,2.3,0.8
				C-1129-63.4-1128.8-62.6-1128.8-61.5z M-1133.2-61.5c0,1.3,0.4,1.9,1.3,1.9c0.4,0,0.8-0.2,1-0.5s0.3-0.8,0.3-1.4
				c0-0.6-0.1-1.1-0.3-1.4c-0.2-0.3-0.5-0.5-1-0.5C-1132.8-63.4-1133.2-62.7-1133.2-61.5z"/>
			<path class="st1" d="M-1127.8-64.7h2.3c0.9,0,1.5,0.1,2,0.4c0.4,0.3,0.6,0.7,0.6,1.2c0,0.4-0.1,0.7-0.3,0.9
				c-0.2,0.3-0.4,0.4-0.7,0.5v0c0.4,0.1,0.7,0.3,0.9,0.5c0.2,0.2,0.3,0.6,0.3,1c0,0.6-0.2,1-0.7,1.4c-0.4,0.3-1,0.5-1.8,0.5h-2.5
				V-64.7z M-1126.1-62.2h0.5c0.3,0,0.4-0.1,0.6-0.2c0.1-0.1,0.2-0.3,0.2-0.5c0-0.4-0.3-0.5-0.8-0.5h-0.5V-62.2z M-1126.1-60.9v1.4
				h0.6c0.5,0,0.8-0.2,0.8-0.7c0-0.2-0.1-0.4-0.2-0.5c-0.1-0.1-0.4-0.2-0.6-0.2H-1126.1z"/>
			<path class="st1" d="M-1118-58.2l-0.3-1.2h-2.1l-0.3,1.2h-1.9l2.1-6.5h2.3l2.1,6.5H-1118z M-1118.6-60.9l-0.3-1.1
				c-0.1-0.2-0.1-0.5-0.2-0.9s-0.2-0.6-0.2-0.8c0,0.2-0.1,0.4-0.2,0.7s-0.3,1-0.5,2H-1118.6z"/>
			<path class="st1" d="M-1110.9-62.7c0,0.7-0.2,1.3-0.6,1.7c-0.4,0.4-1,0.6-1.8,0.6h-0.5v2.1h-1.7v-6.5h2.2c0.8,0,1.4,0.2,1.8,0.5
				C-1111.1-63.8-1110.9-63.3-1110.9-62.7z M-1113.8-61.8h0.3c0.3,0,0.5-0.1,0.6-0.2c0.2-0.1,0.2-0.4,0.2-0.6c0-0.4-0.2-0.7-0.7-0.7
				h-0.5V-61.8z"/>
			<path class="st1" d="M-1106.1-58.2l-0.3-1.2h-2.1l-0.3,1.2h-1.9l2.1-6.5h2.3l2.1,6.5H-1106.1z M-1106.8-60.9l-0.3-1.1
				c-0.1-0.2-0.1-0.5-0.2-0.9s-0.2-0.6-0.2-0.8c0,0.2-0.1,0.4-0.2,0.7s-0.3,1-0.5,2H-1106.8z"/>
		</g>
	</g>
</g>
<g>
	<path d="M-919.9-110.5c0-4.1-2.7-7.3-6.5-8.2l6.4-10.1h-11.4l-1.6,2.5c-1.6-1.8-3.9-2.8-6.7-2.8c-1.2,0-2.3,0.2-3.3,0.6
		c-8.5-7.4-19.7-12-31.9-12c-12,0-23,4.4-31.5,11.6h-10.1l-15.9,15.6l10.2,10.6c-0.8,3.5-1.2,7.1-1.2,10.8
		c0,26.8,21.8,48.6,48.6,48.6c26.8,0,48.6-21.8,48.6-48.6c0-3.5-0.4-7-1.1-10.3C-923.1-102.7-919.9-106.1-919.9-110.5z"/>
	<g>
		<g>
			<path class="st2" d="M-1016.5-93.1v-19.7l-5.4,5.4l-5.5-5.7l12.2-12h8.4v32H-1016.5z"/>
			<path class="st2" d="M-1003.3-109.1c0-8.7,4.7-16.5,14.2-16.5c9.6,0,14.2,7.8,14.2,16.5s-4.7,16.6-14.2,16.6
				C-998.7-92.5-1003.3-100.4-1003.3-109.1z M-984.6-109.1c0-5.4-1.4-8-4.5-8c-3.1,0-4.5,2.5-4.5,8c0,5.4,1.4,8,4.5,8
				C-986-101.1-984.6-103.7-984.6-109.1z"/>
			<path class="st2" d="M-973.2-109.1c0-8.7,4.7-16.5,14.2-16.5c9.6,0,14.2,7.8,14.2,16.5s-4.7,16.6-14.2,16.6
				C-968.5-92.5-973.2-100.4-973.2-109.1z M-954.5-109.1c0-5.4-1.4-8-4.5-8c-3.1,0-4.5,2.5-4.5,8c0,5.4,1.4,8,4.5,8
				C-955.9-101.1-954.5-103.7-954.5-109.1z"/>
		</g>
		<path class="st2" d="M-944.8-120.6c0-2.7,2-4.8,5.1-4.8c3.1,0,5.1,2.1,5.1,4.8c0,2.7-2,4.8-5.1,4.8
			C-942.9-115.8-944.8-117.9-944.8-120.6z M-941.7-106l12.2-19.1h2.8l-12.2,19.1H-941.7z M-938.1-120.6c0-1.3-0.7-1.8-1.7-1.8
			c-0.9,0-1.6,0.5-1.6,1.8c0,1.2,0.7,1.7,1.6,1.7C-938.8-118.8-938.1-119.3-938.1-120.6z M-933.8-110.5c0-2.7,2-4.8,5.1-4.8
			c3.1,0,5.1,2.1,5.1,4.8c0,2.7-2,4.8-5.1,4.8C-931.8-105.7-933.8-107.8-933.8-110.5z M-927-110.5c0-1.3-0.7-1.8-1.7-1.8
			c-0.9,0-1.6,0.5-1.6,1.8c0,1.3,0.7,1.7,1.6,1.7C-927.8-108.7-927-109.2-927-110.5z"/>
	</g>
	<g>
		<g>
			<path class="st1" d="M-994.2-86.5v1.4h-2.6v5.1h-1.8v-6.5H-994.2z"/>
			<path class="st1" d="M-989.5-80l-0.3-1.2h-2.1l-0.3,1.2h-1.9l2.1-6.5h2.3l2.1,6.5H-989.5z M-990.2-82.6l-0.3-1.1
				c-0.1-0.2-0.1-0.5-0.2-0.9s-0.2-0.6-0.2-0.8c0,0.2-0.1,0.4-0.2,0.7s-0.3,1-0.5,2H-990.2z"/>
			<path class="st1" d="M-982.4-84.4c0,0.7-0.2,1.3-0.6,1.7c-0.4,0.4-1,0.6-1.8,0.6h-0.5v2.1h-1.7v-6.5h2.2c0.8,0,1.4,0.2,1.8,0.5
				C-982.6-85.6-982.4-85.1-982.4-84.4z M-985.4-83.6h0.3c0.3,0,0.5-0.1,0.6-0.2c0.2-0.1,0.2-0.4,0.2-0.6c0-0.4-0.2-0.7-0.7-0.7
				h-0.5V-83.6z"/>
			<path class="st1" d="M-977.6-80l-0.3-1.2h-2.1l-0.3,1.2h-1.9l2.1-6.5h2.3l2.1,6.5H-977.6z M-978.3-82.6l-0.3-1.1
				c-0.1-0.2-0.1-0.5-0.2-0.9s-0.2-0.6-0.2-0.8c0,0.2-0.1,0.4-0.2,0.7s-0.3,1-0.5,2H-978.3z"/>
			<path class="st1" d="M-969.7-80h-1.8v-2.6h-2v2.6h-1.8v-6.5h1.8v2.4h2v-2.4h1.8V-80z"/>
			<path class="st1" d="M-965.7-80h-1.7v-5h-1.6v-1.4h4.9v1.4h-1.6V-80z"/>
			<path class="st1" d="M-963.4-86.5h1.6v2.8c0,0.3,0,0.9-0.1,1.8h0l2.6-4.5h2.2v6.5h-1.5v-2.7c0-0.4,0-1,0.1-1.8h0l-2.6,4.5h-2.2
				V-86.5z"/>
			<path class="st1" d="M-953.5-82.3l-1.3,2.4h-2l1.8-2.8c-0.3-0.2-0.6-0.4-0.8-0.7s-0.3-0.6-0.3-1c0-1.3,0.9-1.9,2.6-1.9h2.1v6.5
				h-1.7v-2.4H-953.5z M-953-85.1h-0.4c-0.3,0-0.5,0.1-0.7,0.2c-0.2,0.1-0.2,0.3-0.2,0.5c0,0.3,0.1,0.5,0.2,0.6
				c0.2,0.1,0.4,0.2,0.7,0.2h0.3V-85.1z"/>
			<path class="st1" d="M-998.2-75.6h2.3c0.9,0,1.5,0.1,2,0.4c0.4,0.3,0.6,0.7,0.6,1.2c0,0.4-0.1,0.7-0.3,0.9
				c-0.2,0.3-0.4,0.4-0.7,0.5v0c0.4,0.1,0.7,0.3,0.9,0.5c0.2,0.2,0.3,0.6,0.3,1c0,0.6-0.2,1-0.7,1.4c-0.4,0.3-1,0.5-1.8,0.5h-2.5
				V-75.6z M-996.5-73.1h0.5c0.3,0,0.4-0.1,0.6-0.2c0.1-0.1,0.2-0.3,0.2-0.5c0-0.4-0.3-0.5-0.8-0.5h-0.5V-73.1z M-996.5-71.8v1.4
				h0.6c0.5,0,0.8-0.2,0.8-0.7c0-0.2-0.1-0.4-0.2-0.5c-0.1-0.1-0.4-0.2-0.6-0.2H-996.5z"/>
			<path class="st1" d="M-986.3-72.4c0,1.1-0.3,1.9-0.8,2.5c-0.5,0.6-1.3,0.8-2.3,0.8c-1,0-1.8-0.3-2.3-0.9
				c-0.5-0.6-0.8-1.4-0.8-2.5c0-1.1,0.3-1.9,0.8-2.5s1.3-0.9,2.3-0.9c1,0,1.8,0.3,2.3,0.8C-986.6-74.3-986.3-73.4-986.3-72.4z
				 M-990.7-72.4c0,1.3,0.4,1.9,1.3,1.9c0.4,0,0.8-0.2,1-0.5s0.3-0.8,0.3-1.4c0-0.6-0.1-1.1-0.3-1.4c-0.2-0.3-0.5-0.5-1-0.5
				C-990.3-74.2-990.7-73.6-990.7-72.4z"/>
			<path class="st1" d="M-980.7-74.1c0,0.9-0.5,1.4-1.5,1.5v0c0.6,0,1,0.2,1.3,0.5c0.3,0.3,0.4,0.6,0.4,1.1c0,0.4-0.1,0.7-0.3,1
				s-0.5,0.5-0.9,0.7c-0.4,0.2-0.9,0.2-1.5,0.2c-1,0-1.9-0.1-2.5-0.3v-1.5c0.3,0.1,0.6,0.2,1,0.3s0.7,0.1,1.1,0.1
				c0.5,0,0.9-0.1,1.1-0.2c0.2-0.1,0.3-0.3,0.3-0.5c0-0.4-0.5-0.6-1.5-0.6h-0.8v-1.4h0.7c0.3,0,0.6,0,0.8-0.1c0.2,0,0.3-0.1,0.4-0.2
				c0.1-0.1,0.1-0.2,0.1-0.3c0-0.3-0.3-0.5-0.9-0.5c-0.6,0-1.1,0.2-1.5,0.5l-0.7-1.2c0.4-0.2,0.8-0.4,1.2-0.5
				c0.4-0.1,0.9-0.2,1.4-0.2c0.7,0,1.3,0.1,1.7,0.4C-980.9-74.9-980.7-74.5-980.7-74.1z"/>
			<path class="st1" d="M-979.5-75.6h2.3c0.9,0,1.5,0.1,2,0.4c0.4,0.3,0.6,0.7,0.6,1.2c0,0.4-0.1,0.7-0.3,0.9
				c-0.2,0.3-0.4,0.4-0.7,0.5v0c0.4,0.1,0.7,0.3,0.9,0.5c0.2,0.2,0.3,0.6,0.3,1c0,0.6-0.2,1-0.7,1.4c-0.4,0.3-1,0.5-1.8,0.5h-2.5
				V-75.6z M-977.8-73.1h0.5c0.3,0,0.4-0.1,0.6-0.2c0.1-0.1,0.2-0.3,0.2-0.5c0-0.4-0.3-0.5-0.8-0.5h-0.5V-73.1z M-977.8-71.8v1.4
				h0.6c0.5,0,0.8-0.2,0.8-0.7c0-0.2-0.1-0.4-0.2-0.5c-0.1-0.1-0.4-0.2-0.6-0.2H-977.8z"/>
			<path class="st1" d="M-969-73.5c0,0.7-0.2,1.3-0.6,1.7c-0.4,0.4-1,0.6-1.8,0.6h-0.5v2.1h-1.7v-6.5h2.2c0.8,0,1.4,0.2,1.8,0.5
				C-969.2-74.7-969-74.2-969-73.5z M-971.9-72.7h0.3c0.3,0,0.5-0.1,0.6-0.2c0.2-0.1,0.2-0.4,0.2-0.6c0-0.4-0.2-0.7-0.7-0.7h-0.5
				V-72.7z"/>
			<path class="st1" d="M-964.2-69.1l-0.3-1.2h-2.1l-0.3,1.2h-1.9l2.1-6.5h2.3l2.1,6.5H-964.2z M-964.9-71.8l-0.3-1.1
				c-0.1-0.2-0.1-0.5-0.2-0.9s-0.2-0.6-0.2-0.8c0,0.2-0.1,0.4-0.2,0.7s-0.3,1-0.5,2H-964.9z"/>
			<path class="st1" d="M-959-69.1h-1.7v-5h-1.6v-1.4h4.9v1.4h-1.6V-69.1z"/>
			<path class="st1" d="M-952.7-69.1l-0.3-1.2h-2.1l-0.3,1.2h-1.9l2.1-6.5h2.3l2.1,6.5H-952.7z M-953.4-71.8l-0.3-1.1
				c-0.1-0.2-0.1-0.5-0.2-0.9s-0.2-0.6-0.2-0.8c0,0.2-0.1,0.4-0.2,0.7s-0.3,1-0.5,2H-953.4z"/>
			<path class="st1" d="M-981.9-56.2h-1.7v-2h-3.8v2h-1.7v-3.4h0.5c0.4-0.7,0.7-1.4,1-2.3s0.4-1.8,0.5-2.8h4.3v5h0.9V-56.2z
				 M-984.6-59.7v-3.6h-1.2c-0.1,1.3-0.5,2.5-1,3.6H-984.6z"/>
			<path class="st1" d="M-977.5-58.2h-3.8v-6.5h3.8v1.4h-2.1v1h1.9v1.4h-1.9v1.2h2.1V-58.2z"/>
			<path class="st1" d="M-971-58.2h-1.8v-2.6h-2v2.6h-1.8v-6.5h1.8v2.4h2v-2.4h1.8V-58.2z"/>
			<path class="st1" d="M-966-58.2h-3.8v-6.5h3.8v1.4h-2.1v1h1.9v1.4h-1.9v1.2h2.1V-58.2z"/>
			<path class="st1" d="M-960.8-64.7v1.4h-2.6v5.1h-1.8v-6.5H-960.8z"/>
		</g>
	</g>
</g>
<g>
	<circle cx="-386" cy="-91.8" r="48.6"/>
	<g>
		<circle class="st2" cx="-366.7" cy="-73.2" r="6.3"/>
		<circle class="st2" cx="-400.7" cy="-73.2" r="6.3"/>
		<g>
			<path class="st2" d="M-399.2-99.3h-0.6v2.8h0.6c1.1,0,1.7-0.5,1.7-1.5C-397.5-98.9-398.1-99.3-399.2-99.3z"/>
			<path class="st2" d="M-362.7-104.7h-10.2v-9.5H-416v41h5.4c0-5.4,4.4-9.8,9.8-9.8c5.4,0,9.8,4.4,9.8,9.8h14.3
				c0-5.4,4.4-9.8,9.8-9.8c5.4,0,9.8,4.4,9.8,9.8h3.1v-16.4L-362.7-104.7z M-404.3-99.2h-4v2.3h3.6v2.6h-3.6v4.6h-3.2v-12.2h7.2
				V-99.2z M-396.5-89.6l-2.6-4.4h-0.8v4.4h-3.3v-12.2h4c3.3,0,5,1.2,5,3.6c0,1.4-0.7,2.5-2.1,3.3l3.5,5.3H-396.5z M-385.3-99.2
				h-3.9v1.9h3.6v2.6h-3.6v2.3h3.9v2.7h-7.2v-12.2h7.2V-99.2z M-376.8-99.2h-3.9v1.9h3.6v2.6h-3.6v2.3h3.9v2.7h-7.2v-12.2h7.2V-99.2
				z M-370.3-89.5v-11.2h5.3l6.6,11.2H-370.3z"/>
		</g>
	</g>
</g>
<g>
	<circle cx="-238.4" cy="-91.8" r="48.6"/>
	<g>
		<path class="st2" d="M-262.8-71.6v-10.1c0-4.8,6.2-6.7,8.9-2.6l0,0c0,0,1.6,2.4,5.3,2.5c5.2,0.1,7.5-1.4,10.2-4.7l26.1,11.7
			c1.3,0.6,2.1,1.9,2.2,3.3l0,0H-262.8z"/>
		<path class="st2" d="M-214.8-65h-48.1v-4.6h52.6l0,0C-210.2-67.1-212.2-65-214.8-65z"/>
		<g>
			<path class="st2" d="M-256.6-124.4v34.5c1.8,0.3,3.3,1.4,4.3,2.9c0.1,0.2,1.3,1.6,3.7,1.6c0.2,0,0.3,0,0.5,0c4.1,0,5.8-1.2,8.1-4
				v-35.1H-256.6z M-243.1-91.3h-10.7v-6.4h2.3v3.5h2.1v-3.2h2.3v3.2h4V-91.3z M-243.1-104.6l-3.9,2.3v0.7h3.9v2.9h-10.7v-3.5
				c0-2.9,1.1-4.4,3.2-4.4c1.2,0,2.2,0.6,2.9,1.8l4.7-3.1V-104.6z M-243.1-108.1h-10.7v-6.4h2.3v3.5h1.7v-3.2h2.3v3.2h2v-3.5h2.4
				V-108.1z M-243.1-115.6h-10.7v-6.4h2.3v3.5h1.7v-3.2h2.3v3.2h2v-3.5h2.4V-115.6z"/>
			<path class="st2" d="M-250.6-103.6c-0.7,0-1.1,0.5-1.1,1.5v0.6h2.5v-0.5C-249.2-103.1-249.7-103.6-250.6-103.6z"/>
		</g>
	</g>
</g>
<g>
	<circle cx="56.7" cy="-91.8" r="48.6"/>
	<polygon class="st2" points="59.1,-78.2 88.7,-108 79.2,-117.5 49.6,-87.7 34.8,-102.4 25.3,-92.9 40.2,-78.1 40.2,-78.1 
		49.7,-68.6 53.5,-72.5 59.2,-78.2 	"/>
</g>
<g>
	<circle cx="-90.9" cy="-91.8" r="48.6"/>
	<g>
		<path class="st2" d="M-64.4-109.7L-90-126.3v3.7v4.9c-15.1,0-27.3,12.2-27.3,27.3v1.8c2.1-8.1,9.5-14.1,18.2-14.1h9v9.8
			L-64.4-109.7z"/>
		<path class="st2" d="M-117.3-73.9l25.6,16.7v-3.7v-4.9c15.1,0,27.3-12.2,27.3-27.3v-1.8c-2.1,8.1-9.5,14.1-18.2,14.1h-9v-9.8
			L-117.3-73.9z"/>
	</g>
</g>
<g>
	<circle cx="-1123.8" cy="56.7" r="48.6"/>
	<path class="st2" d="M-1103.9,30.3c-28.3-12.2-47.7,4-47.7,4c1,45.7,27.8,53.4,27.8,53.4s26.8-7.7,27.8-53.4
		C-1096,34.3-1098.8,32.3-1103.9,30.3z M-1121.8,64.5l-3.5,3.5l-2.4,2.4l-5.9-5.9l0,0l-9.2-9.2l5.9-5.9l9.2,9.2l18.3-18.5l5.9,5.9
		L-1121.8,64.5L-1121.8,64.5z"/>
</g>
<g>
	<circle cx="-976.2" cy="56.7" r="48.6"/>
	<path class="st2" d="M-950,49.4c0-8.1-6.5-14.6-14.6-14.6c-4.8,0-9,2.3-11.6,5.8c-2.7-3.5-6.9-5.8-11.7-5.8
		c-8.1,0-14.6,6.5-14.6,14.6c0,2,0.4,3.9,1.2,5.7l0,0c0,0,1.8,8.1,25.1,27.7c0,0,0,0,0,0c0,0,0,0,0,0c23.2-19.6,25.1-27.7,25.1-27.7
		l0,0C-950.4,53.4-950,51.5-950,49.4z"/>
</g>
<g>
	<circle cx="-1271.3" cy="56.7" r="48.6"/>
	<g>
		<path class="st2" d="M-1233.4,50.2c0-1.9-1.5-3.4-3.4-3.4h-6.9h-3.7h-1.9l1.2-6.6c0.6-3.2,0.1-6.4-1.2-9.4l0,0
			c-0.5-1.2-1.8-2-3.1-2h0c-1.9,0-3.4,1.5-3.4,3.4v5.4l-6.4,11.5h-4.2v20l1.9,0l6.9,4.5h4.8h9h1.6c1.9,0,3.4-1.5,3.4-3.4v0
			c0-1.9-1.5-3.4-3.4-3.4h2.1c1.9,0,3.4-1.5,3.4-3.4c0-1.9-1.5-3.4-3.4-3.4h1.8c1.9,0,3.4-1.5,3.4-3.4v0c0-1.9-1.5-3.4-3.4-3.4h1.5
			C-1234.9,53.6-1233.4,52.1-1233.4,50.2z"/>
		<g>
			<path class="st2" d="M-1288.8,62.2h-2.5V63h2.5c0.3,0,0.5-0.2,0.5-0.4C-1288.3,62.3-1288.5,62.2-1288.8,62.2z"/>
			<path class="st2" d="M-1288.5,59.3c0-0.2-0.2-0.4-0.4-0.4h-2.3v0.8h2.3C-1288.7,59.6-1288.5,59.5-1288.5,59.3z"/>
			<path class="st2" d="M-1309.3,49.1v20.1h38.9V49.1H-1309.3z M-1298.7,65.5h-3.8v-7.8l-2.2,2.1l-2.2-2.3l4.9-4.8h3.3V65.5z
				 M-1287.9,65.5h-6.8v-9.2h6.6c2.1,0,3,1.3,3,2.4s-0.7,1.8-1.6,2.1c1.1,0.2,1.8,1.1,1.8,2.2C-1284.9,64.3-1285.8,65.5-1287.9,65.5
				z M-1273.7,65.5h-3.8v-7.8l-2.2,2.1l-2.2-2.3l4.9-4.8h3.3V65.5z"/>
		</g>
	</g>
</g>
<g>
	<circle cx="56.7" cy="56.7" r="48.6"/>
	<path class="st2" d="M89.3,56.7c0,18-14.6,32.6-32.6,32.6S24.1,74.7,24.1,56.7s14.6-32.6,32.6-32.6c6.5,0,12.7,1.9,18,5.4l-3.6,4.3
		l16.1,2.7l-5.7-15.3l-3.2,3.9c-6.4-4.4-13.8-6.7-21.6-6.7c-21.1,0-38.3,17.2-38.3,38.3S35.6,95,56.7,95C77.8,95,95,77.8,95,56.7
		H89.3z"/>
	<g>
		<g>
			<path class="st1" d="M43.7,72.9c0,0.8,0.5,1,1.1,1c0.4,0,0.8-0.1,1.1-0.2v-3.2h2.3v7.7h-2.3v-2.5c-0.6,0.1-1,0.2-1.5,0.2
				c-2.1,0-3.1-1.2-3.1-3v-2.5h2.4V72.9z"/>
			<path class="st1" d="M54.5,78.2l-0.3-0.9h-2.8l-0.3,0.9h-2.7l2.9-7.7h2.9l2.9,7.7H54.5z M52.8,72.8l-0.8,2.5h1.5L52.8,72.8z"/>
			<path class="st1" d="M56.7,74.4c0-2.4,1.8-4,4.3-4c2,0,3.1,1.2,3.5,2.3l-2,0.9c-0.2-0.6-0.8-1.1-1.5-1.1c-1.1,0-1.9,0.9-1.9,1.9
				c0,1.1,0.8,1.9,1.9,1.9c0.7,0,1.3-0.5,1.5-1.1l2,0.9c-0.5,1-1.5,2.3-3.5,2.3C58.5,78.4,56.7,76.7,56.7,74.4z"/>
			<path class="st1" d="M70.1,78.2l-0.3-0.9h-2.8l-0.3,0.9h-2.7l2.9-7.7h2.9l2.9,7.7H70.1z M68.5,72.8l-0.8,2.5h1.5L68.5,72.8z"/>
		</g>
		<g>
			<path class="st2" d="M34.7,66.2v-6c11.6-8.2,12.7-9.1,12.7-11c0-1.2-1.3-2-2.9-2c-2.7,0-4.8,1-6.7,2.6l-4.2-5.1
				c2.9-3.1,7.2-4.3,10.7-4.3c6.6,0,10.9,3.7,10.9,8.7c0,3.5-2,6.3-8,10.3h8.3v6.7H34.7z"/>
			<path class="st2" d="M69,66.2v-4.1H56.7v-5.9L66,40.8h10.7v14.6h2.9v6.7h-2.9v4.1H69z M69,47.5l-4.8,8H69V47.5z"/>
		</g>
	</g>
</g>
<g>
	<circle cx="-828.7" cy="56.7" r="48.6"/>
	<circle class="st1" cx="-832.8" cy="34.7" r="3.3"/>
	<circle class="st1" cx="-824.5" cy="66.1" r="3.3"/>
	<circle class="st1" cx="-809.9" cy="72.8" r="4.4"/>
	<circle class="st1" cx="-832.8" cy="50.4" r="4.4"/>
	
		<rect x="-813.4" y="42.6" transform="matrix(0.5386 0.8426 -0.8426 0.5386 -331.6274 706.4646)" class="st1" width="5.2" height="15.7"/>
	
		<rect x="-840.4" y="64.2" transform="matrix(0.5939 -0.8045 0.8045 0.5939 -398.2227 -644.7631)" class="st1" width="5.2" height="15.7"/>
	
		<rect x="-851.2" y="39.2" transform="matrix(-0.6038 -0.7971 0.7971 -0.6038 -1398.5162 -600.8726)" class="st1" width="5.2" height="15.7"/>
	<path class="st2" d="M-828.7,18.4c-21.1,0-38.3,17.2-38.3,38.3S-849.8,95-828.7,95s38.3-17.2,38.3-38.3S-807.6,18.4-828.7,18.4z
		 M-861.2,56.7c0-18,14.6-32.6,32.6-32.6c5.3,0,10.2,1.3,14.7,3.5l-36.5,53.3C-857.1,74.9-861.2,66.3-861.2,56.7z M-828.7,89.3
		c-6.4,0-12.3-1.8-17.3-5l36.8-53.7c7.9,5.9,13.1,15.4,13.1,26.1C-796.1,74.7-810.7,89.3-828.7,89.3z"/>
</g>
<g>
	<g>
		<circle cx="-533.5" cy="56.7" r="48.6"/>
	</g>
	<g>
		<path class="st1" d="M-530.5,59.9c10.9-10.7,4.8-23.1,0.1-28.2l-6.3,5.8c1.3,1.4,7.5,9,0.1,16.3c-10.9,10.8-4.8,22.9-0.1,27.8
			l6.1-5.9C-531.3,74.9-538.1,67.4-530.5,59.9z"/>
		<path class="st1" d="M-517.5,65.2c7.8-7.7,3.5-16.6,0.1-20.2l-4.5,4.2c0.9,1,5.4,6.5,0.1,11.7c-7.8,7.7-3.5,16.5-0.1,20l4.4-4.3
			C-518,76-522.9,70.6-517.5,65.2z"/>
		<path class="st1" d="M-545.3,55.2c7.8-7.7,3.5-16.6,0.1-20.2l-4.5,4.2c0.9,1,5.4,6.5,0.1,11.7c-7.8,7.7-3.5,16.5-0.1,20l4.4-4.2
			C-546.2,65.6-550.6,60.3-545.3,55.2z"/>
	</g>
	<path class="st2" d="M-533.5,18.4c-21.1,0-38.3,17.2-38.3,38.3S-554.6,95-533.5,95s38.3-17.2,38.3-38.3S-512.4,18.4-533.5,18.4z
		 M-566.1,56.7c0-18,14.6-32.6,32.6-32.6c5.3,0,10.2,1.3,14.7,3.5l-36.5,53.3C-562,74.9-566.1,66.3-566.1,56.7z M-533.5,89.3
		c-6.4,0-12.3-1.8-17.3-5l36.8-53.7c7.9,5.9,13.1,15.4,13.1,26.1C-501,74.7-515.6,89.3-533.5,89.3z"/>
</g>
<g>
	<circle cx="-681.1" cy="56.7" r="48.6"/>
	<path class="st2" d="M-665.3,45.5l-15.8-15.8l-15.8,15.8c-8.7,8.7-8.7,22.8,0,31.5c8.7,8.7,22.8,8.7,31.5,0
		C-656.6,68.4-656.6,54.3-665.3,45.5z"/>
</g>
<g>
	<circle cx="-386" cy="56.7" r="48.6"/>
	<g>
		<path class="st2" d="M-357,49.4c0-2.4-2-4.4-4.4-4.4h-9.1h-4.9h-2.5l1.5-8.8c0.7-4.2,0.2-8.5-1.5-12.3l0,0
			c-0.7-1.6-2.3-2.7-4.1-2.7h0c-2.5,0-4.5,2-4.5,4.5v7.2l-8.4,15.2h-5.6v26.4l2.5,0l9.1,5.9h6.4h11.9h2c2.4,0,4.4-2,4.4-4.4v0
			c0-2.4-2-4.4-4.4-4.4h2.7c2.4,0,4.4-2,4.4-4.4c0-2.4-2-4.4-4.4-4.4h2.4c2.4,0,4.4-2,4.4-4.4v0c0-2.4-2-4.4-4.4-4.4h2
			C-359,53.8-357,51.8-357,49.4z"/>
		<rect x="-414.9" y="47.9" class="st2" width="9.2" height="26.5"/>
	</g>
</g>
<g>
	<circle cx="-90.9" cy="56.7" r="48.6"/>
	<g>
		<path class="st1" d="M-90.9,28.5c-15.6,0-28.2,12.7-28.2,28.2s12.7,28.2,28.2,28.2s28.2-12.7,28.2-28.2S-75.3,28.5-90.9,28.5z
			 M-90.9,82.3c-14.1,0-25.6-11.5-25.6-25.6s11.5-25.6,25.6-25.6s25.6,11.5,25.6,25.6S-76.7,82.3-90.9,82.3z"/>
		<path class="st1" d="M-93,39.8c-0.3,0-0.8,0-1.2,0c-0.5,0-1,0.1-1.6,0.2c-0.6,0.1-1.2,0.2-1.9,0.5c-0.6,0.3-1.3,0.5-2,0.8
			c-0.7,0.4-1.3,0.8-2,1.2c-0.6,0.5-1.3,1-1.8,1.6c-0.5,0.6-1.1,1.2-1.5,1.9c-0.5,0.7-0.8,1.4-1.2,2.1c-0.3,0.7-0.6,1.4-0.8,2.1
			c-0.2,0.7-0.3,1.3-0.4,1.9c-0.1,0.6-0.1,1.1-0.1,1.6c0,0.5,0,0.9,0.1,1.2c0.1,0.7,0.2,1.1,0.2,1.1s0.1-0.4,0.3-1
			c0.2-0.6,0.5-1.5,1-2.5c0.2-0.5,0.5-1,0.8-1.6c0.3-0.5,0.6-1.1,1-1.7c0.4-0.6,0.7-1.1,1.2-1.7c0.4-0.6,0.9-1.1,1.4-1.6
			c0.5-0.5,1-0.9,1.5-1.4c0.6-0.4,1.1-0.8,1.6-1.2c0.6-0.4,1.1-0.7,1.6-1c0.5-0.3,1.1-0.6,1.6-0.9c0.5-0.3,0.9-0.5,1.4-0.7
			c0.4-0.2,0.8-0.4,1.1-0.5c0.6-0.3,1-0.5,1-0.5S-92.3,39.8-93,39.8z"/>
	</g>
</g>
<g>
	<circle cx="-238.4" cy="56.7" r="48.6"/>
	<g>
		<path class="st2" d="M-269.6,75.1h57c3,0,5.4-2.4,5.4-5.4h-62.4V75.1z"/>
		<path class="st2" d="M-209.8,63.4L-240,49.9l-2.4,2.4l0,0l-2.1,2.1l-3.6,3.6l-2.4,2.4l-2.1,2.1l-2.1-2.1l-6-6l-0.8-0.8l-3.9-3.9
			c-2.3,0.6-4.3,2.6-4.3,5.5v12h62.4C-207.3,65.6-208.3,64.1-209.8,63.4z"/>
		<polygon class="st2" points="-258.6,52.4 -252.5,58.4 -250.1,56 -249,54.9 -246.5,52.3 -246.5,52.3 -227.8,33.4 -233.8,27.4 
			-252.6,46.3 -262,37 -268,43 -258.6,52.4 		"/>
	</g>
</g>
</svg>
