<?xml version="1.0" encoding="utf-8"?>
<!-- Generator: Adobe Illustrator 22.0.0, SVG Export Plug-In . SVG Version: 6.00 Build 0)  -->
<svg version="1.1" id="Layer_1" xmlns="http://www.w3.org/2000/svg" xmlns:xlink="http://www.w3.org/1999/xlink" x="0px" y="0px"
	 viewBox="0 0 113.4 113.4" style="enable-background:new 0 0 113.4 113.4;" xml:space="preserve">
<style type="text/css">
	.st0{fill:#ED1C24;}
	.st1{fill:#FFFFFF;}
	.st2{fill:#FFDD00;}
</style>
<g>
	<circle class="st0" cx="-90.9" cy="56.7" r="48.6"/>
	<g>
		<path class="st1" d="M-120.9,43c0-7.3,5.3-13.1,13.8-13.1c8.5,0,13.9,5.8,13.9,13.1c0,7.2-5.4,12.9-13.9,12.9
			C-115.5,55.9-120.9,50.2-120.9,43z M-112.3,82.2l32.9-51.5h7.6l-33,51.5H-112.3z M-102.6,43c0-3.5-2-4.9-4.5-4.9
			c-2.4,0-4.3,1.4-4.3,4.9c0,3.3,1.9,4.7,4.3,4.7C-104.6,47.7-102.6,46.3-102.6,43z M-91,70.2c0-7.3,5.3-13.1,13.8-13.1
			s13.8,5.8,13.8,13.1c0,7.2-5.4,12.9-13.8,12.9S-91,77.4-91,70.2z M-72.7,70.2c0-3.5-2-4.9-4.5-4.9s-4.4,1.4-4.4,4.9
			c0,3.4,1.9,4.7,4.4,4.7S-72.7,73.6-72.7,70.2z"/>
	</g>
</g>
<g>
	<circle cx="56.7" cy="56.7" r="48.6"/>
	<g>
		<path class="st2" d="M35.9,70.1l-4.7-7.8l-4.7,7.8h-9.1L26,56.9l-8-12.5h9.1l4.1,7.3l4.1-7.3h9.2l-8,12.4l8.6,13.2H35.9z"/>
		<path class="st2" d="M46.1,70.1V44.4h7.8v13.7l8.9-13.7h8v25.6H63V55.5l-9.5,14.5H46.1z"/>
		<path class="st2" d="M80,70.1V51.2h-6.9v-6.8h21.5v6.8h-6.8v18.9H80z"/>
	</g>
</g>
<g>
	<circle class="st2" cx="204.3" cy="56.7" r="48.6"/>
	<g>
		<path d="M179.7,70.1l-9.5-13v13h-7.8V44.4h8l8.9,12.1V44.4h7.8v25.6H179.7z"/>
		<path d="M191,70.1V44.4h19.4v6.8h-11.7v2.5h11.4v6.8h-11.4v2.8h11.7v6.8H191z"/>
		<path d="M233,70.1l-3.3-14.5l-3.3,14.5h-8.1l-7.3-25.6h8.7l3.3,15.7l3.9-15.7h5.8l3.9,15.7l3.3-15.7h8.7l-7.3,25.6H233z"/>
	</g>
</g>
<g>
	<path d="M-477.3,38c0-4.1-2.7-7.3-6.5-8.2l6.4-10.1h-11.4l-1.6,2.5c-1.6-1.8-3.9-2.8-6.7-2.8c-1.2,0-2.3,0.2-3.3,0.6
		c-8.5-7.4-19.7-12-31.9-12c-12,0-23,4.4-31.5,11.6H-574l-15.9,15.6l10.2,10.6c-0.8,3.5-1.2,7.1-1.2,10.8
		c0,26.8,21.8,48.6,48.6,48.6c26.8,0,48.6-21.8,48.6-48.6c0-3.5-0.4-7-1.1-10.3C-480.4,45.8-477.3,42.4-477.3,38z"/>
	<g>
		<polygon class="st2" points="-584.7,35.4 -579.2,41.1 -573.8,35.7 -573.8,55.4 -564.1,55.4 -564.1,23.4 -572.5,23.4 		"/>
		<path class="st2" d="M-546.4,22.9c-9.6,0-14.2,7.8-14.2,16.5S-556,56-546.4,56c9.6,0,14.2-7.9,14.2-16.6S-536.9,22.9-546.4,22.9z
			 M-546.4,47.4c-3.1,0-4.5-2.6-4.5-8c0-5.4,1.4-8,4.5-8c3.1,0,4.5,2.5,4.5,8C-542,44.8-543.4,47.4-546.4,47.4z"/>
		<path class="st2" d="M-516.3,22.9c-9.6,0-14.2,7.8-14.2,16.5s4.7,16.6,14.2,16.6c9.6,0,14.2-7.9,14.2-16.6S-506.7,22.9-516.3,22.9
			z M-516.3,47.4c-3.1,0-4.5-2.6-4.5-8c0-5.4,1.4-8,4.5-8c3.1,0,4.5,2.5,4.5,8C-511.8,44.8-513.2,47.4-516.3,47.4z"/>
		<path class="st2" d="M-491.9,27.9c0-2.7-2-4.8-5.1-4.8c-3.1,0-5.1,2.1-5.1,4.8c0,2.7,2,4.8,5.1,4.8
			C-493.9,32.7-491.9,30.6-491.9,27.9z M-498.7,27.9c0-1.3,0.7-1.8,1.6-1.8c0.9,0,1.7,0.5,1.7,1.8c0,1.2-0.7,1.7-1.7,1.7
			C-498,29.7-498.7,29.2-498.7,27.9z"/>
		<polygon class="st2" points="-486.8,23.4 -499,42.5 -496.2,42.5 -484,23.4 		"/>
		<path class="st2" d="M-486,33.2c-3.1,0-5.1,2.1-5.1,4.8c0,2.7,2,4.8,5.1,4.8c3.1,0,5.1-2.1,5.1-4.8
			C-480.9,35.3-482.9,33.2-486,33.2z M-486,39.8c-0.9,0-1.6-0.5-1.6-1.7c0-1.3,0.7-1.8,1.6-1.8c0.9,0,1.7,0.5,1.7,1.8
			C-484.4,39.3-485.1,39.8-486,39.8z"/>
	</g>
	<g>
		<g>
			<path class="st1" d="M-551.5,62v1.4h-2.6v5.1h-1.8V62H-551.5z"/>
			<path class="st1" d="M-546.8,68.5l-0.3-1.2h-2.1l-0.3,1.2h-1.9l2.1-6.5h2.3l2.1,6.5H-546.8z M-547.5,65.9l-0.3-1.1
				c-0.1-0.2-0.1-0.5-0.2-0.9c-0.1-0.4-0.2-0.6-0.2-0.8c0,0.2-0.1,0.4-0.2,0.7c-0.1,0.3-0.3,1-0.5,2H-547.5z"/>
			<path class="st1" d="M-539.7,64.1c0,0.7-0.2,1.3-0.6,1.7c-0.4,0.4-1,0.6-1.8,0.6h-0.5v2.1h-1.7V62h2.2c0.8,0,1.4,0.2,1.8,0.5
				C-540,62.9-539.7,63.4-539.7,64.1z M-542.7,64.9h0.3c0.3,0,0.5-0.1,0.6-0.2s0.2-0.4,0.2-0.6c0-0.4-0.2-0.7-0.7-0.7h-0.5V64.9z"/>
			<path class="st1" d="M-535,68.5l-0.3-1.2h-2.1l-0.3,1.2h-1.9l2.1-6.5h2.3l2.1,6.5H-535z M-535.7,65.9l-0.3-1.1
				c-0.1-0.2-0.1-0.5-0.2-0.9c-0.1-0.4-0.2-0.6-0.2-0.8c0,0.2-0.1,0.4-0.2,0.7c-0.1,0.3-0.3,1-0.5,2H-535.7z"/>
			<path class="st1" d="M-527,68.5h-1.8v-2.6h-2v2.6h-1.8V62h1.8v2.4h2V62h1.8V68.5z"/>
			<path class="st1" d="M-523,68.5h-1.7v-5h-1.6V62h4.9v1.4h-1.6V68.5z"/>
			<path class="st1" d="M-520.7,62h1.6v2.8c0,0.3,0,0.9-0.1,1.8h0l2.6-4.5h2.2v6.5h-1.5v-2.7c0-0.4,0-1,0.1-1.8h0l-2.6,4.5h-2.2V62z
				"/>
			<path class="st1" d="M-510.8,66.2l-1.3,2.4h-2l1.8-2.8c-0.3-0.2-0.6-0.4-0.8-0.7c-0.2-0.3-0.3-0.6-0.3-1c0-1.3,0.9-1.9,2.6-1.9
				h2.1v6.5h-1.7v-2.4H-510.8z M-510.3,63.4h-0.4c-0.3,0-0.5,0.1-0.7,0.2c-0.2,0.1-0.2,0.3-0.2,0.5c0,0.3,0.1,0.5,0.2,0.6
				s0.4,0.2,0.7,0.2h0.3V63.4z"/>
			<path class="st1" d="M-563,79.4h-1.8v-5h-1.8v5h-1.8v-6.5h5.3V79.4z"/>
			<path class="st1" d="M-555.8,76.1c0,1.1-0.3,1.9-0.8,2.5c-0.5,0.6-1.3,0.8-2.3,0.8c-1,0-1.8-0.3-2.3-0.9
				c-0.5-0.6-0.8-1.4-0.8-2.5c0-1.1,0.3-1.9,0.8-2.5c0.5-0.6,1.3-0.9,2.3-0.9c1,0,1.8,0.3,2.3,0.8C-556,74.2-555.8,75-555.8,76.1z
				 M-560.2,76.1c0,1.3,0.4,1.9,1.3,1.9c0.4,0,0.8-0.2,1-0.5s0.3-0.8,0.3-1.4c0-0.6-0.1-1.1-0.3-1.4c-0.2-0.3-0.5-0.5-1-0.5
				C-559.8,74.2-560.2,74.9-560.2,76.1z"/>
			<path class="st1" d="M-548.3,81.4h-1.7v-2h-3.8v2h-1.7v-3.4h0.5c0.4-0.7,0.7-1.4,1-2.3c0.3-0.9,0.4-1.8,0.5-2.8h4.3v5h0.9V81.4z
				 M-550.9,77.9v-3.6h-1.2c-0.1,1.3-0.5,2.5-1,3.6H-550.9z"/>
			<path class="st1" d="M-542.2,79.4h-1.8v-5h-1.2c-0.1,0.7-0.2,1.5-0.3,2.2c-0.1,0.8-0.2,1.3-0.3,1.6c-0.1,0.3-0.2,0.6-0.4,0.7
				c-0.2,0.2-0.4,0.3-0.6,0.4c-0.2,0.1-0.5,0.1-0.8,0.1c-0.3,0-0.5,0-0.7-0.1V78c0.2,0.1,0.3,0.1,0.4,0.1c0.2,0,0.3-0.1,0.4-0.2
				c0.1-0.1,0.2-0.3,0.2-0.7c0.1-0.3,0.2-0.9,0.3-1.7s0.2-1.7,0.3-2.6h4.5V79.4z"/>
			<path class="st1" d="M-541,72.9h1.6v2.8c0,0.3,0,0.9-0.1,1.8h0l2.6-4.5h2.2v6.5h-1.5v-2.7c0-0.4,0-1,0.1-1.8h0l-2.6,4.5h-2.2
				V72.9z"/>
			<path class="st1" d="M-528,79.4h-1.8v-2.6h-2v2.6h-1.8v-6.5h1.8v2.4h2v-2.4h1.8V79.4z"/>
			<path class="st1" d="M-521.3,79.4h-1.8v-2.6h-2v2.6h-1.8v-6.5h1.8v2.4h2v-2.4h1.8V79.4z"/>
			<path class="st1" d="M-514.1,76.1c0,1.1-0.3,1.9-0.8,2.5c-0.5,0.6-1.3,0.8-2.3,0.8c-1,0-1.8-0.3-2.3-0.9
				c-0.5-0.6-0.8-1.4-0.8-2.5c0-1.1,0.3-1.9,0.8-2.5c0.5-0.6,1.3-0.9,2.3-0.9c1,0,1.8,0.3,2.3,0.8C-514.3,74.2-514.1,75-514.1,76.1z
				 M-518.5,76.1c0,1.3,0.4,1.9,1.3,1.9c0.4,0,0.8-0.2,1-0.5s0.3-0.8,0.3-1.4c0-0.6-0.1-1.1-0.3-1.4c-0.2-0.3-0.5-0.5-1-0.5
				C-518.1,74.2-518.5,74.9-518.5,76.1z"/>
			<path class="st1" d="M-510.2,74.3c-0.4,0-0.7,0.2-1,0.5c-0.2,0.3-0.3,0.8-0.3,1.4c0,1.2,0.5,1.9,1.4,1.9c0.3,0,0.6,0,0.8-0.1
				c0.3-0.1,0.5-0.2,0.8-0.3v1.5c-0.5,0.2-1.2,0.4-1.8,0.4c-1,0-1.7-0.3-2.2-0.8c-0.5-0.6-0.8-1.4-0.8-2.5c0-0.7,0.1-1.3,0.4-1.8
				s0.6-0.9,1.1-1.2c0.5-0.3,1-0.4,1.7-0.4c0.7,0,1.4,0.2,2,0.5l-0.5,1.4c-0.2-0.1-0.5-0.2-0.7-0.3C-509.7,74.3-510,74.3-510.2,74.3
				z"/>
			<path class="st1" d="M-504.6,79.4h-1.7v-5h-1.6v-1.4h4.9v1.4h-1.6V79.4z"/>
			<path class="st1" d="M-502.3,72.9h1.6v2.8c0,0.3,0,0.9-0.1,1.8h0l2.6-4.5h2.2v6.5h-1.5v-2.7c0-0.4,0-1,0.1-1.8h0l-2.6,4.5h-2.2
				V72.9z"/>
			<path class="st1" d="M-546.8,90.3h-1.7v-5h-1.6v-1.4h4.9v1.4h-1.6V90.3z"/>
			<path class="st1" d="M-538.5,87c0,1.1-0.3,1.9-0.8,2.5c-0.5,0.6-1.3,0.8-2.3,0.8c-1,0-1.8-0.3-2.3-0.9c-0.5-0.6-0.8-1.4-0.8-2.5
				c0-1.1,0.3-1.9,0.8-2.5c0.5-0.6,1.3-0.9,2.3-0.9c1,0,1.8,0.3,2.3,0.8C-538.8,85.1-538.5,85.9-538.5,87z M-543,87
				c0,1.3,0.4,1.9,1.3,1.9c0.4,0,0.8-0.2,1-0.5s0.3-0.8,0.3-1.4c0-0.6-0.1-1.1-0.3-1.4c-0.2-0.3-0.5-0.5-1-0.5
				C-542.5,85.1-543,85.7-543,87z"/>
			<path class="st1" d="M-537.6,83.8h2.3c0.9,0,1.5,0.1,2,0.4c0.4,0.3,0.6,0.7,0.6,1.2c0,0.4-0.1,0.7-0.3,0.9
				c-0.2,0.3-0.4,0.4-0.7,0.5v0c0.4,0.1,0.7,0.3,0.9,0.5c0.2,0.2,0.3,0.6,0.3,1c0,0.6-0.2,1-0.7,1.4c-0.4,0.3-1,0.5-1.8,0.5h-2.5
				V83.8z M-535.8,86.3h0.5c0.3,0,0.4-0.1,0.6-0.2c0.1-0.1,0.2-0.3,0.2-0.5c0-0.4-0.3-0.5-0.8-0.5h-0.5V86.3z M-535.8,87.5v1.4h0.6
				c0.5,0,0.8-0.2,0.8-0.7c0-0.2-0.1-0.4-0.2-0.5c-0.1-0.1-0.4-0.2-0.6-0.2H-535.8z"/>
			<path class="st1" d="M-527.7,90.3L-528,89h-2.1l-0.3,1.2h-1.9l2.1-6.5h2.3l2.1,6.5H-527.7z M-528.4,87.6l-0.3-1.1
				c-0.1-0.2-0.1-0.5-0.2-0.9s-0.2-0.6-0.2-0.8c0,0.2-0.1,0.4-0.2,0.7s-0.3,1-0.5,2H-528.4z"/>
			<path class="st1" d="M-520.7,85.8c0,0.7-0.2,1.3-0.6,1.7c-0.4,0.4-1,0.6-1.8,0.6h-0.5v2.1h-1.7v-6.5h2.2c0.8,0,1.4,0.2,1.8,0.5
				C-520.9,84.7-520.7,85.2-520.7,85.8z M-523.6,86.7h0.3c0.3,0,0.5-0.1,0.6-0.2s0.2-0.4,0.2-0.6c0-0.4-0.2-0.7-0.7-0.7h-0.5V86.7z"
				/>
			<path class="st1" d="M-515.9,90.3l-0.3-1.2h-2.1l-0.3,1.2h-1.9l2.1-6.5h2.3l2.1,6.5H-515.9z M-516.6,87.6l-0.3-1.1
				c-0.1-0.2-0.1-0.5-0.2-0.9s-0.2-0.6-0.2-0.8c0,0.2-0.1,0.4-0.2,0.7s-0.3,1-0.5,2H-516.6z"/>
		</g>
	</g>
</g>
<g>
	<path d="M-329.7,38c0-4.1-2.7-7.3-6.5-8.2l6.4-10.1h-11.4l-1.6,2.5c-1.6-1.8-3.9-2.8-6.7-2.8c-1.2,0-2.3,0.2-3.3,0.6
		c-8.5-7.4-19.7-12-31.9-12c-12,0-23,4.4-31.5,11.6h-10.1l-15.9,15.6l10.2,10.6c-0.8,3.5-1.2,7.1-1.2,10.8
		c0,26.8,21.8,48.6,48.6,48.6s48.6-21.8,48.6-48.6c0-3.5-0.4-7-1.1-10.3C-332.9,45.8-329.7,42.4-329.7,38z"/>
	<g>
		<polygon class="st2" points="-437.2,35.4 -431.7,41.1 -426.3,35.7 -426.3,55.4 -416.6,55.4 -416.6,23.4 -424.9,23.4 		"/>
		<path class="st2" d="M-398.9,22.9c-9.6,0-14.2,7.8-14.2,16.5s4.7,16.6,14.2,16.6c9.6,0,14.2-7.9,14.2-16.6S-389.3,22.9-398.9,22.9
			z M-398.9,47.4c-3.1,0-4.5-2.6-4.5-8c0-5.4,1.4-8,4.5-8c3.1,0,4.5,2.5,4.5,8C-394.4,44.8-395.8,47.4-398.9,47.4z"/>
		<path class="st2" d="M-368.7,22.9c-9.6,0-14.2,7.8-14.2,16.5s4.7,16.6,14.2,16.6c9.6,0,14.2-7.9,14.2-16.6S-359.2,22.9-368.7,22.9
			z M-368.7,47.4c-3.1,0-4.5-2.6-4.5-8c0-5.4,1.4-8,4.5-8c3.1,0,4.5,2.5,4.5,8C-364.2,44.8-365.6,47.4-368.7,47.4z"/>
		<path class="st2" d="M-344.4,27.9c0-2.7-2-4.8-5.1-4.8c-3.1,0-5.1,2.1-5.1,4.8c0,2.7,2,4.8,5.1,4.8
			C-346.4,32.7-344.4,30.6-344.4,27.9z M-351.1,27.9c0-1.3,0.7-1.8,1.6-1.8c0.9,0,1.7,0.5,1.7,1.8c0,1.2-0.7,1.7-1.7,1.7
			C-350.4,29.7-351.1,29.2-351.1,27.9z"/>
		<path class="st2" d="M-338.5,33.2c-3.1,0-5.1,2.1-5.1,4.8c0,2.7,2,4.8,5.1,4.8c3.1,0,5.1-2.1,5.1-4.8
			C-333.3,35.3-335.3,33.2-338.5,33.2z M-338.5,39.8c-0.9,0-1.6-0.5-1.6-1.7c0-1.3,0.7-1.8,1.6-1.8c0.9,0,1.7,0.5,1.7,1.8
			C-336.8,39.3-337.5,39.8-338.5,39.8z"/>
		<polygon class="st2" points="-339.3,23.4 -351.4,42.5 -348.7,42.5 -336.4,23.4 		"/>
	</g>
	<g>
		<g>
			<path class="st1" d="M-403.9,62v1.4h-2.6v5.1h-1.8V62H-403.9z"/>
			<path class="st1" d="M-399.3,68.5l-0.3-1.2h-2.1l-0.3,1.2h-1.9l2.1-6.5h2.3l2.1,6.5H-399.3z M-399.9,65.9l-0.3-1.1
				c-0.1-0.2-0.1-0.5-0.2-0.9c-0.1-0.4-0.2-0.6-0.2-0.8c0,0.2-0.1,0.4-0.2,0.7c-0.1,0.3-0.3,1-0.5,2H-399.9z"/>
			<path class="st1" d="M-392.2,64.1c0,0.7-0.2,1.3-0.6,1.7c-0.4,0.4-1,0.6-1.8,0.6h-0.5v2.1h-1.7V62h2.2c0.8,0,1.4,0.2,1.8,0.5
				C-392.4,62.9-392.2,63.4-392.2,64.1z M-395.1,64.9h0.3c0.3,0,0.5-0.1,0.6-0.2c0.2-0.1,0.2-0.4,0.2-0.6c0-0.4-0.2-0.7-0.7-0.7
				h-0.5V64.9z"/>
			<path class="st1" d="M-387.4,68.5l-0.3-1.2h-2.1l-0.3,1.2h-1.9l2.1-6.5h2.3l2.1,6.5H-387.4z M-388.1,65.9l-0.3-1.1
				c-0.1-0.2-0.1-0.5-0.2-0.9c-0.1-0.4-0.2-0.6-0.2-0.8c0,0.2-0.1,0.4-0.2,0.7c-0.1,0.3-0.3,1-0.5,2H-388.1z"/>
			<path class="st1" d="M-379.5,68.5h-1.8v-2.6h-2v2.6h-1.8V62h1.8v2.4h2V62h1.8V68.5z"/>
			<path class="st1" d="M-375.5,68.5h-1.7v-5h-1.6V62h4.9v1.4h-1.6V68.5z"/>
			<path class="st1" d="M-373.2,62h1.6v2.8c0,0.3,0,0.9-0.1,1.8h0l2.6-4.5h2.2v6.5h-1.5v-2.7c0-0.4,0-1,0.1-1.8h0l-2.6,4.5h-2.2V62z
				"/>
			<path class="st1" d="M-363.3,66.2l-1.3,2.4h-2l1.8-2.8c-0.3-0.2-0.6-0.4-0.8-0.7s-0.3-0.6-0.3-1c0-1.3,0.9-1.9,2.6-1.9h2.1v6.5
				h-1.7v-2.4H-363.3z M-362.7,63.4h-0.4c-0.3,0-0.5,0.1-0.7,0.2c-0.2,0.1-0.2,0.3-0.2,0.5c0,0.3,0.1,0.5,0.2,0.6
				c0.2,0.1,0.4,0.2,0.7,0.2h0.3V63.4z"/>
			<path class="st1" d="M-401.8,79.4h-2l-1.9-3.3v3.3h-1.8v-6.5h1.8V76l1.8-3.1h1.9l-2,3.1L-401.8,79.4z"/>
			<path class="st1" d="M-397.4,79.4l-0.3-1.2h-2.1l-0.3,1.2h-1.9l2.1-6.5h2.3l2.1,6.5H-397.4z M-398.1,76.7l-0.3-1.1
				c-0.1-0.2-0.1-0.5-0.2-0.9s-0.2-0.6-0.2-0.8c0,0.2-0.1,0.4-0.2,0.7s-0.3,1-0.5,2H-398.1z"/>
			<path class="st1" d="M-389.5,79.4h-1.8V77c-0.7,0.3-1.4,0.4-2,0.4c-0.6,0-1.1-0.2-1.4-0.5s-0.5-0.7-0.5-1.3v-2.7h1.8v2.2
				c0,0.3,0.1,0.5,0.2,0.7s0.3,0.2,0.6,0.2c0.4,0,0.8-0.1,1.4-0.3v-2.7h1.8V79.4z"/>
			<path class="st1" d="M-384.5,79.4h-3.8v-6.5h3.8v1.4h-2.1v1h1.9v1.4h-1.9V78h2.1V79.4z"/>
			<path class="st1" d="M-380.7,74.3c-0.4,0-0.7,0.2-1,0.5c-0.2,0.3-0.3,0.8-0.3,1.4c0,1.2,0.5,1.9,1.4,1.9c0.3,0,0.6,0,0.8-0.1
				c0.3-0.1,0.5-0.2,0.8-0.3v1.5c-0.5,0.2-1.1,0.4-1.8,0.4c-1,0-1.7-0.3-2.2-0.8c-0.5-0.6-0.8-1.4-0.8-2.5c0-0.7,0.1-1.3,0.4-1.8
				c0.3-0.5,0.6-0.9,1.1-1.2c0.5-0.3,1-0.4,1.7-0.4c0.7,0,1.4,0.2,2,0.5l-0.5,1.4c-0.2-0.1-0.5-0.2-0.7-0.3
				C-380.2,74.3-380.5,74.3-380.7,74.3z"/>
			<path class="st1" d="M-375.1,79.4h-1.7v-5h-1.6v-1.4h4.9v1.4h-1.6V79.4z"/>
			<path class="st1" d="M-372.8,72.9h2.3c0.9,0,1.5,0.1,2,0.4c0.4,0.3,0.6,0.7,0.6,1.2c0,0.4-0.1,0.7-0.3,0.9
				c-0.2,0.3-0.4,0.4-0.7,0.5v0c0.4,0.1,0.7,0.3,0.9,0.5c0.2,0.2,0.3,0.6,0.3,1c0,0.6-0.2,1-0.7,1.4c-0.4,0.3-1,0.5-1.8,0.5h-2.5
				V72.9z M-371.1,75.4h0.5c0.3,0,0.4-0.1,0.6-0.2c0.1-0.1,0.2-0.3,0.2-0.5c0-0.4-0.3-0.5-0.8-0.5h-0.5V75.4z M-371.1,76.7V78h0.6
				c0.5,0,0.8-0.2,0.8-0.7c0-0.2-0.1-0.4-0.2-0.5c-0.1-0.1-0.4-0.2-0.6-0.2H-371.1z"/>
			<path class="st1" d="M-363,79.4l-0.3-1.2h-2.1l-0.3,1.2h-1.9l2.1-6.5h2.3l2.1,6.5H-363z M-363.7,76.7l-0.3-1.1
				c-0.1-0.2-0.1-0.5-0.2-0.9s-0.2-0.6-0.2-0.8c0,0.2-0.1,0.4-0.2,0.7s-0.3,1-0.5,2H-363.7z"/>
			<path class="st1" d="M-399.3,90.3h-1.7v-5h-1.6v-1.4h4.9v1.4h-1.6V90.3z"/>
			<path class="st1" d="M-391,87c0,1.1-0.3,1.9-0.8,2.5c-0.5,0.6-1.3,0.8-2.3,0.8c-1,0-1.8-0.3-2.3-0.9c-0.5-0.6-0.8-1.4-0.8-2.5
				c0-1.1,0.3-1.9,0.8-2.5s1.3-0.9,2.3-0.9c1,0,1.8,0.3,2.3,0.8C-391.2,85.1-391,85.9-391,87z M-395.4,87c0,1.3,0.4,1.9,1.3,1.9
				c0.4,0,0.8-0.2,1-0.5s0.3-0.8,0.3-1.4c0-0.6-0.1-1.1-0.3-1.4c-0.2-0.3-0.5-0.5-1-0.5C-395,85.1-395.4,85.7-395.4,87z"/>
			<path class="st1" d="M-390,83.8h2.3c0.9,0,1.5,0.1,2,0.4c0.4,0.3,0.6,0.7,0.6,1.2c0,0.4-0.1,0.7-0.3,0.9
				c-0.2,0.3-0.4,0.4-0.7,0.5v0c0.4,0.1,0.7,0.3,0.9,0.5c0.2,0.2,0.3,0.6,0.3,1c0,0.6-0.2,1-0.7,1.4c-0.4,0.3-1,0.5-1.8,0.5h-2.5
				V83.8z M-388.3,86.3h0.5c0.3,0,0.4-0.1,0.6-0.2c0.1-0.1,0.2-0.3,0.2-0.5c0-0.4-0.3-0.5-0.8-0.5h-0.5V86.3z M-388.3,87.5v1.4h0.6
				c0.5,0,0.8-0.2,0.8-0.7c0-0.2-0.1-0.4-0.2-0.5c-0.1-0.1-0.4-0.2-0.6-0.2H-388.3z"/>
			<path class="st1" d="M-380.2,90.3l-0.3-1.2h-2.1l-0.3,1.2h-1.9l2.1-6.5h2.3l2.1,6.5H-380.2z M-380.9,87.6l-0.3-1.1
				c-0.1-0.2-0.1-0.5-0.2-0.9s-0.2-0.6-0.2-0.8c0,0.2-0.1,0.4-0.2,0.7s-0.3,1-0.5,2H-380.9z"/>
			<path class="st1" d="M-373.1,85.8c0,0.7-0.2,1.3-0.6,1.7c-0.4,0.4-1,0.6-1.8,0.6h-0.5v2.1h-1.7v-6.5h2.2c0.8,0,1.4,0.2,1.8,0.5
				C-373.3,84.7-373.1,85.2-373.1,85.8z M-376,86.7h0.3c0.3,0,0.5-0.1,0.6-0.2c0.2-0.1,0.2-0.4,0.2-0.6c0-0.4-0.2-0.7-0.7-0.7h-0.5
				V86.7z"/>
			<path class="st1" d="M-368.3,90.3l-0.3-1.2h-2.1l-0.3,1.2h-1.9l2.1-6.5h2.3l2.1,6.5H-368.3z M-369,87.6l-0.3-1.1
				c-0.1-0.2-0.1-0.5-0.2-0.9s-0.2-0.6-0.2-0.8c0,0.2-0.1,0.4-0.2,0.7s-0.3,1-0.5,2H-369z"/>
		</g>
	</g>
</g>
<g>
	<path d="M-182.1,38c0-4.1-2.7-7.3-6.5-8.2l6.4-10.1h-11.4l-1.6,2.5c-1.6-1.8-3.9-2.8-6.7-2.8c-1.2,0-2.3,0.2-3.3,0.6
		c-8.5-7.4-19.7-12-31.9-12c-12,0-23,4.4-31.5,11.6h-10.1l-15.9,15.6l10.2,10.6c-0.8,3.5-1.2,7.1-1.2,10.8
		c0,26.8,21.8,48.6,48.6,48.6c26.8,0,48.6-21.8,48.6-48.6c0-3.5-0.4-7-1.1-10.3C-185.3,45.8-182.1,42.4-182.1,38z"/>
	<g>
		<g>
			<path class="st2" d="M-278.7,55.4V35.7l-5.4,5.4l-5.5-5.7l12.2-12h8.4v32H-278.7z"/>
			<path class="st2" d="M-265.5,39.4c0-8.7,4.7-16.5,14.2-16.5c9.6,0,14.2,7.8,14.2,16.5S-241.8,56-251.3,56
				C-260.9,56-265.5,48.1-265.5,39.4z M-246.9,39.4c0-5.4-1.4-8-4.5-8c-3.1,0-4.5,2.5-4.5,8c0,5.4,1.4,8,4.5,8
				C-248.2,47.4-246.9,44.8-246.9,39.4z"/>
			<path class="st2" d="M-235.4,39.4c0-8.7,4.7-16.5,14.2-16.5c9.6,0,14.2,7.8,14.2,16.5S-211.6,56-221.2,56
				C-230.7,56-235.4,48.1-235.4,39.4z M-216.7,39.4c0-5.4-1.4-8-4.5-8c-3.1,0-4.5,2.5-4.5,8c0,5.4,1.4,8,4.5,8
				C-218.1,47.4-216.7,44.8-216.7,39.4z"/>
		</g>
		<path class="st2" d="M-207,27.9c0-2.7,2-4.8,5.1-4.8c3.1,0,5.1,2.1,5.1,4.8c0,2.7-2,4.8-5.1,4.8C-205.1,32.7-207,30.6-207,27.9z
			 M-203.9,42.5l12.2-19.1h2.8l-12.2,19.1H-203.9z M-200.3,27.9c0-1.3-0.7-1.8-1.7-1.8c-0.9,0-1.6,0.5-1.6,1.8
			c0,1.2,0.7,1.7,1.6,1.7C-201,29.7-200.3,29.2-200.3,27.9z M-196,38c0-2.7,2-4.8,5.1-4.8c3.1,0,5.1,2.1,5.1,4.8
			c0,2.7-2,4.8-5.1,4.8C-194,42.8-196,40.7-196,38z M-189.2,38c0-1.3-0.7-1.8-1.7-1.8c-0.9,0-1.6,0.5-1.6,1.8c0,1.3,0.7,1.7,1.6,1.7
			C-190,39.8-189.2,39.3-189.2,38z"/>
	</g>
	<g>
		<g>
			<path class="st1" d="M-256.4,62v1.4h-2.6v5.1h-1.8V62H-256.4z"/>
			<path class="st1" d="M-251.7,68.5l-0.3-1.2h-2.1l-0.3,1.2h-1.9l2.1-6.5h2.3l2.1,6.5H-251.7z M-252.4,65.9l-0.3-1.1
				c-0.1-0.2-0.1-0.5-0.2-0.9c-0.1-0.4-0.2-0.6-0.2-0.8c0,0.2-0.1,0.4-0.2,0.7c-0.1,0.3-0.3,1-0.5,2H-252.4z"/>
			<path class="st1" d="M-244.6,64.1c0,0.7-0.2,1.3-0.6,1.7c-0.4,0.4-1,0.6-1.8,0.6h-0.5v2.1h-1.7V62h2.2c0.8,0,1.4,0.2,1.8,0.5
				C-244.8,62.9-244.6,63.4-244.6,64.1z M-247.6,64.9h0.3c0.3,0,0.5-0.1,0.6-0.2c0.2-0.1,0.2-0.4,0.2-0.6c0-0.4-0.2-0.7-0.7-0.7
				h-0.5V64.9z"/>
			<path class="st1" d="M-239.9,68.5l-0.3-1.2h-2.1l-0.3,1.2h-1.9l2.1-6.5h2.3l2.1,6.5H-239.9z M-240.5,65.9l-0.3-1.1
				c-0.1-0.2-0.1-0.5-0.2-0.9c-0.1-0.4-0.2-0.6-0.2-0.8c0,0.2-0.1,0.4-0.2,0.7c-0.1,0.3-0.3,1-0.5,2H-240.5z"/>
			<path class="st1" d="M-231.9,68.5h-1.8v-2.6h-2v2.6h-1.8V62h1.8v2.4h2V62h1.8V68.5z"/>
			<path class="st1" d="M-227.9,68.5h-1.7v-5h-1.6V62h4.9v1.4h-1.6V68.5z"/>
			<path class="st1" d="M-225.6,62h1.6v2.8c0,0.3,0,0.9-0.1,1.8h0l2.6-4.5h2.2v6.5h-1.5v-2.7c0-0.4,0-1,0.1-1.8h0l-2.6,4.5h-2.2V62z
				"/>
			<path class="st1" d="M-215.7,66.2l-1.3,2.4h-2l1.8-2.8c-0.3-0.2-0.6-0.4-0.8-0.7s-0.3-0.6-0.3-1c0-1.3,0.9-1.9,2.6-1.9h2.1v6.5
				h-1.7v-2.4H-215.7z M-215.2,63.4h-0.4c-0.3,0-0.5,0.1-0.7,0.2c-0.2,0.1-0.2,0.3-0.2,0.5c0,0.3,0.1,0.5,0.2,0.6
				c0.2,0.1,0.4,0.2,0.7,0.2h0.3V63.4z"/>
			<path class="st1" d="M-260.4,72.9h2.3c0.9,0,1.5,0.1,2,0.4c0.4,0.3,0.6,0.7,0.6,1.2c0,0.4-0.1,0.7-0.3,0.9
				c-0.2,0.3-0.4,0.4-0.7,0.5v0c0.4,0.1,0.7,0.3,0.9,0.5c0.2,0.2,0.3,0.6,0.3,1c0,0.6-0.2,1-0.7,1.4c-0.4,0.3-1,0.5-1.8,0.5h-2.5
				V72.9z M-258.7,75.4h0.5c0.3,0,0.4-0.1,0.6-0.2c0.1-0.1,0.2-0.3,0.2-0.5c0-0.4-0.3-0.5-0.8-0.5h-0.5V75.4z M-258.7,76.7V78h0.6
				c0.5,0,0.8-0.2,0.8-0.7c0-0.2-0.1-0.4-0.2-0.5c-0.1-0.1-0.4-0.2-0.6-0.2H-258.7z"/>
			<path class="st1" d="M-248.5,76.1c0,1.1-0.3,1.9-0.8,2.5c-0.5,0.6-1.3,0.8-2.3,0.8c-1,0-1.8-0.3-2.3-0.9
				c-0.5-0.6-0.8-1.4-0.8-2.5c0-1.1,0.3-1.9,0.8-2.5s1.3-0.9,2.3-0.9c1,0,1.8,0.3,2.3,0.8C-248.8,74.2-248.5,75-248.5,76.1z
				 M-252.9,76.1c0,1.3,0.4,1.9,1.3,1.9c0.4,0,0.8-0.2,1-0.5s0.3-0.8,0.3-1.4c0-0.6-0.1-1.1-0.3-1.4c-0.2-0.3-0.5-0.5-1-0.5
				C-252.5,74.2-252.9,74.9-252.9,76.1z"/>
			<path class="st1" d="M-242.9,74.4c0,0.9-0.5,1.4-1.5,1.5v0c0.6,0,1,0.2,1.3,0.5c0.3,0.3,0.4,0.6,0.4,1.1c0,0.4-0.1,0.7-0.3,1
				s-0.5,0.5-0.9,0.7c-0.4,0.2-0.9,0.2-1.5,0.2c-1,0-1.9-0.1-2.5-0.3v-1.5c0.3,0.1,0.6,0.2,1,0.3s0.7,0.1,1.1,0.1
				c0.5,0,0.9-0.1,1.1-0.2c0.2-0.1,0.3-0.3,0.3-0.5c0-0.4-0.5-0.6-1.5-0.6h-0.8v-1.4h0.7c0.3,0,0.6,0,0.8-0.1c0.2,0,0.3-0.1,0.4-0.2
				c0.1-0.1,0.1-0.2,0.1-0.3c0-0.3-0.3-0.5-0.9-0.5c-0.6,0-1.1,0.2-1.5,0.5l-0.7-1.2c0.4-0.2,0.8-0.4,1.2-0.5
				c0.4-0.1,0.9-0.2,1.4-0.2c0.7,0,1.3,0.1,1.7,0.4C-243.1,73.6-242.9,73.9-242.9,74.4z"/>
			<path class="st1" d="M-241.7,72.9h2.3c0.9,0,1.5,0.1,2,0.4c0.4,0.3,0.6,0.7,0.6,1.2c0,0.4-0.1,0.7-0.3,0.9
				c-0.2,0.3-0.4,0.4-0.7,0.5v0c0.4,0.1,0.7,0.3,0.9,0.5c0.2,0.2,0.3,0.6,0.3,1c0,0.6-0.2,1-0.7,1.4c-0.4,0.3-1,0.5-1.8,0.5h-2.5
				V72.9z M-240,75.4h0.5c0.3,0,0.4-0.1,0.6-0.2c0.1-0.1,0.2-0.3,0.2-0.5c0-0.4-0.3-0.5-0.8-0.5h-0.5V75.4z M-240,76.7V78h0.6
				c0.5,0,0.8-0.2,0.8-0.7c0-0.2-0.1-0.4-0.2-0.5c-0.1-0.1-0.4-0.2-0.6-0.2H-240z"/>
			<path class="st1" d="M-231.2,75c0,0.7-0.2,1.3-0.6,1.7c-0.4,0.4-1,0.6-1.8,0.6h-0.5v2.1h-1.7v-6.5h2.2c0.8,0,1.4,0.2,1.8,0.5
				C-231.4,73.8-231.2,74.3-231.2,75z M-234.1,75.8h0.3c0.3,0,0.5-0.1,0.6-0.2c0.2-0.1,0.2-0.4,0.2-0.6c0-0.4-0.2-0.7-0.7-0.7h-0.5
				V75.8z"/>
			<path class="st1" d="M-226.4,79.4l-0.3-1.2h-2.1l-0.3,1.2h-1.9l2.1-6.5h2.3l2.1,6.5H-226.4z M-227.1,76.7l-0.3-1.1
				c-0.1-0.2-0.1-0.5-0.2-0.9s-0.2-0.6-0.2-0.8c0,0.2-0.1,0.4-0.2,0.7s-0.3,1-0.5,2H-227.1z"/>
			<path class="st1" d="M-221.2,79.4h-1.7v-5h-1.6v-1.4h4.9v1.4h-1.6V79.4z"/>
			<path class="st1" d="M-214.9,79.4l-0.3-1.2h-2.1l-0.3,1.2h-1.9l2.1-6.5h2.3l2.1,6.5H-214.9z M-215.6,76.7l-0.3-1.1
				c-0.1-0.2-0.1-0.5-0.2-0.9s-0.2-0.6-0.2-0.8c0,0.2-0.1,0.4-0.2,0.7s-0.3,1-0.5,2H-215.6z"/>
			<path class="st1" d="M-244.1,92.3h-1.7v-2h-3.8v2h-1.7v-3.4h0.5c0.4-0.7,0.7-1.4,1-2.3s0.4-1.8,0.5-2.8h4.3v5h0.9V92.3z
				 M-246.8,88.8v-3.6h-1.2c-0.1,1.3-0.5,2.5-1,3.6H-246.8z"/>
			<path class="st1" d="M-239.7,90.3h-3.8v-6.5h3.8v1.4h-2.1v1h1.9v1.4h-1.9v1.2h2.1V90.3z"/>
			<path class="st1" d="M-233.2,90.3h-1.8v-2.6h-2v2.6h-1.8v-6.5h1.8v2.4h2v-2.4h1.8V90.3z"/>
			<path class="st1" d="M-228.2,90.3h-3.8v-6.5h3.8v1.4h-2.1v1h1.9v1.4h-1.9v1.2h2.1V90.3z"/>
			<path class="st1" d="M-223,83.8v1.4h-2.6v5.1h-1.8v-6.5H-223z"/>
		</g>
	</g>
</g>
<g>
	<circle cx="351.8" cy="56.7" r="48.6"/>
	<g>
		<circle class="st2" cx="371" cy="75.3" r="6.3"/>
		<circle class="st2" cx="337.1" cy="75.3" r="6.3"/>
		<g>
			<path class="st2" d="M338.6,49.2h-0.6V52h0.6c1.1,0,1.7-0.5,1.7-1.5C340.3,49.6,339.7,49.2,338.6,49.2z"/>
			<path class="st2" d="M375.1,43.8h-10.2v-9.5h-43.1v41h5.4c0-5.4,4.4-9.8,9.8-9.8c5.4,0,9.8,4.4,9.8,9.8h14.3
				c0-5.4,4.4-9.8,9.8-9.8c5.4,0,9.8,4.4,9.8,9.8h3.1V59L375.1,43.8z M333.5,49.3h-4v2.3h3.6v2.6h-3.6v4.6h-3.2V46.7h7.2V49.3z
				 M341.3,58.9l-2.6-4.4h-0.8v4.4h-3.3V46.7h4c3.3,0,5,1.2,5,3.6c0,1.4-0.7,2.5-2.1,3.3l3.5,5.3H341.3z M352.5,49.3h-3.9v1.9h3.6
				v2.6h-3.6v2.3h3.9v2.7h-7.2V46.7h7.2V49.3z M361,49.3h-3.9v1.9h3.6v2.6h-3.6v2.3h3.9v2.7h-7.2V46.7h7.2V49.3z M367.5,59V47.8h5.3
				l6.6,11.2H367.5z"/>
		</g>
	</g>
</g>
<g>
	<circle cx="499.4" cy="56.7" r="48.6"/>
	<g>
		<path class="st2" d="M475,76.8V66.7c0-4.8,6.2-6.7,8.9-2.6l0,0c0,0,1.6,2.4,5.3,2.5c5.2,0.1,7.5-1.4,10.2-4.7l26.1,11.7
			c1.3,0.6,2.1,1.9,2.2,3.3l0,0H475z"/>
		<path class="st2" d="M523,83.5H475v-4.6h52.6l0,0C527.6,81.4,525.6,83.5,523,83.5z"/>
		<g>
			<path class="st2" d="M481.2,24.1v34.5c1.8,0.3,3.3,1.4,4.3,2.9c0.1,0.2,1.3,1.6,3.7,1.6c0.2,0,0.3,0,0.5,0c4.1,0,5.8-1.2,8.1-4
				V24.1H481.2z M494.7,57.2h-10.7v-6.4h2.3v3.5h2.1v-3.2h2.3v3.2h4V57.2z M494.7,43.9l-3.9,2.3v0.7h3.9v2.9h-10.7v-3.5
				c0-2.9,1.1-4.4,3.2-4.4c1.2,0,2.2,0.6,2.9,1.8l4.7-3.1V43.9z M494.7,40.4h-10.7V34h2.3v3.5h1.7v-3.2h2.3v3.2h2V34h2.4V40.4z
				 M494.7,32.9h-10.7v-6.4h2.3V30h1.7v-3.2h2.3V30h2v-3.5h2.4V32.9z"/>
			<path class="st2" d="M487.2,44.8c-0.7,0-1.1,0.5-1.1,1.5v0.6h2.5v-0.5C488.6,45.4,488.1,44.8,487.2,44.8z"/>
		</g>
	</g>
</g>
<g>
	<circle cx="794.5" cy="56.7" r="48.6"/>
	<polygon class="st2" points="796.9,70.3 826.4,40.5 817,31 787.4,60.8 772.6,46.1 763.1,55.5 778,70.4 778,70.4 787.4,79.9 
		791.3,76 797,70.3 	"/>
</g>
<g>
	<circle cx="646.9" cy="56.7" r="48.6"/>
	<g>
		<path class="st2" d="M673.4,38.8l-25.6-16.7v3.7v4.9c-15.1,0-27.3,12.2-27.3,27.3v1.8c2.1-8.1,9.5-14.1,18.2-14.1h9v9.8
			L673.4,38.8z"/>
		<path class="st2" d="M620.5,74.6l25.6,16.7v-3.7v-4.9c15.1,0,27.3-12.2,27.3-27.3v-1.8c-2.1,8.1-9.5,14.1-18.2,14.1h-9v-9.8
			L620.5,74.6z"/>
	</g>
</g>
<g>
	<circle cx="-386" cy="205.2" r="48.6"/>
	<path class="st2" d="M-366.1,178.8c-28.3-12.2-47.7,4-47.7,4c1,45.7,27.8,53.4,27.8,53.4s26.8-7.7,27.8-53.4
		C-358.2,182.8-361,180.8-366.1,178.8z M-384,213l-3.5,3.5l-2.4,2.4l-5.9-5.9l0,0l-9.2-9.2l5.9-5.9l9.2,9.2l18.3-18.5l5.9,5.9
		L-384,213L-384,213z"/>
</g>
<g>
	<circle cx="-238.4" cy="205.2" r="48.6"/>
	<path class="st2" d="M-212.2,197.9c0-8.1-6.5-14.6-14.6-14.6c-4.8,0-9,2.3-11.6,5.8c-2.7-3.5-6.9-5.8-11.7-5.8
		c-8.1,0-14.6,6.5-14.6,14.6c0,2,0.4,3.9,1.2,5.7l0,0c0,0,1.8,8.1,25.1,27.7c0,0,0,0,0,0c0,0,0,0,0,0c23.2-19.6,25.1-27.7,25.1-27.7
		l0,0C-212.6,201.9-212.2,200-212.2,197.9z"/>
</g>
<g>
	<circle cx="-533.5" cy="205.2" r="48.6"/>
	<g>
		<path class="st2" d="M-495.6,198.7c0-1.9-1.5-3.4-3.4-3.4h-6.9h-3.7h-1.9l1.2-6.6c0.6-3.2,0.1-6.4-1.2-9.4l0,0
			c-0.5-1.2-1.8-2-3.1-2l0,0c-1.9,0-3.4,1.5-3.4,3.4v5.4l-6.4,11.5h-4.2v20l1.9,0l6.9,4.5h4.8h9h1.6c1.9,0,3.4-1.5,3.4-3.4v0
			c0-1.9-1.5-3.4-3.4-3.4h2.1c1.9,0,3.4-1.5,3.4-3.4c0-1.9-1.5-3.4-3.4-3.4h1.8c1.9,0,3.4-1.5,3.4-3.4v0c0-1.9-1.5-3.4-3.4-3.4h1.5
			C-497.1,202.1-495.6,200.6-495.6,198.7z"/>
		<g>
			<path class="st2" d="M-551,210.7h-2.5v0.9h2.5c0.3,0,0.5-0.2,0.5-0.4C-550.5,210.8-550.7,210.7-551,210.7z"/>
			<path class="st2" d="M-550.7,207.8c0-0.2-0.2-0.4-0.4-0.4h-2.3v0.8h2.3C-550.9,208.1-550.7,208-550.7,207.8z"/>
			<path class="st2" d="M-571.5,197.6v20.1h38.9v-20.1H-571.5z M-560.9,214h-3.8v-7.8l-2.2,2.1l-2.2-2.3l4.9-4.8h3.3V214z
				 M-550.1,214h-6.8v-9.2h6.6c2.1,0,3,1.3,3,2.4s-0.7,1.8-1.6,2.1c1.1,0.2,1.8,1.1,1.8,2.2C-547.1,212.8-548,214-550.1,214z
				 M-535.9,214h-3.8v-7.8l-2.2,2.1l-2.2-2.3l4.9-4.8h3.3V214z"/>
		</g>
	</g>
</g>
<g>
	<circle cx="794.5" cy="205.2" r="48.6"/>
	<path class="st2" d="M827.1,205.2c0,18-14.6,32.6-32.6,32.6s-32.6-14.6-32.6-32.6s14.6-32.6,32.6-32.6c6.5,0,12.7,1.9,18,5.4
		l-3.6,4.3L825,185l-5.7-15.3l-3.2,3.9c-6.4-4.4-13.8-6.7-21.6-6.7c-21.1,0-38.3,17.2-38.3,38.3s17.2,38.3,38.3,38.3
		c21.1,0,38.3-17.2,38.3-38.3H827.1z"/>
	<g>
		<g>
			<path class="st1" d="M781.5,221.4c0,0.8,0.5,1,1.1,1c0.4,0,0.8-0.1,1.1-0.2V219h2.3v7.7h-2.3v-2.5c-0.6,0.1-1,0.2-1.5,0.2
				c-2.1,0-3.1-1.2-3.1-3V219h2.4V221.4z"/>
			<path class="st1" d="M792.3,226.7l-0.3-0.9h-2.8l-0.3,0.9h-2.7l2.9-7.7h2.9l2.9,7.7H792.3z M790.6,221.3l-0.8,2.5h1.5
				L790.6,221.3z"/>
			<path class="st1" d="M794.5,222.9c0-2.4,1.8-4,4.3-4c2,0,3.1,1.2,3.5,2.3l-2,0.9c-0.2-0.6-0.8-1.1-1.5-1.1
				c-1.1,0-1.9,0.9-1.9,1.9c0,1.1,0.8,1.9,1.9,1.9c0.7,0,1.3-0.5,1.5-1.1l2,0.9c-0.5,1-1.5,2.3-3.5,2.3
				C796.3,226.9,794.5,225.2,794.5,222.9z"/>
			<path class="st1" d="M807.9,226.7l-0.3-0.9h-2.8l-0.3,0.9h-2.7l2.9-7.7h2.9l2.9,7.7H807.9z M806.3,221.3l-0.8,2.5h1.5
				L806.3,221.3z"/>
		</g>
		<g>
			<path class="st2" d="M772.5,214.7v-6c11.6-8.2,12.7-9.1,12.7-11c0-1.2-1.3-2-2.9-2c-2.7,0-4.8,1-6.7,2.6l-4.2-5.1
				c2.9-3.1,7.2-4.3,10.7-4.3c6.6,0,10.9,3.7,10.9,8.7c0,3.5-2,6.3-8,10.3h8.3v6.7H772.5z"/>
			<path class="st2" d="M806.8,214.7v-4.1h-12.2v-5.9l9.2-15.4h10.7v14.6h2.9v6.7h-2.9v4.1H806.8z M806.8,196l-4.8,8h4.8V196z"/>
		</g>
	</g>
</g>
<g>
	<circle cx="-90.9" cy="205.2" r="48.6"/>
	<circle class="st1" cx="-95" cy="183.2" r="3.3"/>
	<circle class="st1" cx="-86.7" cy="214.6" r="3.3"/>
	<circle class="st1" cx="-72.1" cy="221.2" r="4.4"/>
	<circle class="st1" cx="-95" cy="198.9" r="4.4"/>
	
		<rect x="-75.6" y="191.1" transform="matrix(0.5386 0.8426 -0.8426 0.5386 133.9069 153.3405)" class="st1" width="5.2" height="15.7"/>
	
		<rect x="-102.6" y="212.7" transform="matrix(0.5939 -0.8045 0.8045 0.5939 -218.0637 9.1341)" class="st1" width="5.2" height="15.7"/>
	
		<rect x="-113.4" y="187.7" transform="matrix(-0.6038 -0.7971 0.7971 -0.6038 -333.6057 225.4013)" class="st1" width="5.2" height="15.7"/>
	<path class="st2" d="M-90.9,166.9c-21.1,0-38.3,17.2-38.3,38.3s17.2,38.3,38.3,38.3s38.3-17.2,38.3-38.3S-69.8,166.9-90.9,166.9z
		 M-123.5,205.2c0-18,14.6-32.6,32.6-32.6c5.3,0,10.2,1.3,14.7,3.5l-36.5,53.3C-119.3,223.4-123.5,214.8-123.5,205.2z M-90.9,237.8
		c-6.4,0-12.3-1.8-17.3-5l36.8-53.7c7.9,5.9,13.1,15.4,13.1,26.1C-58.3,223.2-72.9,237.8-90.9,237.8z"/>
</g>
<g>
	<g>
		<circle cx="204.3" cy="205.2" r="48.6"/>
	</g>
	<g>
		<path class="st1" d="M207.3,208.4c10.9-10.7,4.8-23.1,0.1-28.2l-6.3,5.8c1.3,1.4,7.5,9,0.1,16.3c-10.9,10.8-4.8,22.9-0.1,27.8
			l6.1-5.9C206.5,223.4,199.7,215.9,207.3,208.4z"/>
		<path class="st1" d="M220.3,213.7c7.8-7.7,3.5-16.6,0.1-20.2l-4.5,4.2c0.9,1,5.4,6.5,0.1,11.7c-7.8,7.7-3.5,16.5-0.1,20l4.4-4.3
			C219.8,224.5,214.9,219.1,220.3,213.7z"/>
		<path class="st1" d="M192.5,203.7c7.8-7.7,3.5-16.6,0.1-20.2l-4.5,4.2c0.9,1,5.4,6.5,0.1,11.7c-7.8,7.7-3.5,16.5-0.1,20l4.4-4.2
			C191.6,214.1,187.2,208.8,192.5,203.7z"/>
	</g>
	<path class="st2" d="M204.3,166.9c-21.1,0-38.3,17.2-38.3,38.3s17.2,38.3,38.3,38.3s38.3-17.2,38.3-38.3S225.3,166.9,204.3,166.9z
		 M171.7,205.2c0-18,14.6-32.6,32.6-32.6c5.3,0,10.2,1.3,14.7,3.5l-36.5,53.3C175.8,223.4,171.7,214.8,171.7,205.2z M204.3,237.8
		c-6.4,0-12.3-1.8-17.3-5l36.8-53.7c7.9,5.9,13.1,15.4,13.1,26.1C236.8,223.2,222.2,237.8,204.3,237.8z"/>
</g>
<g>
	<circle cx="56.7" cy="205.2" r="48.6"/>
	<path class="st2" d="M72.5,194l-15.8-15.8L40.9,194c-8.7,8.7-8.7,22.8,0,31.5s22.8,8.7,31.5,0S81.2,202.7,72.5,194z"/>
</g>
<g>
	<circle cx="351.8" cy="205.2" r="48.6"/>
	<g>
		<path class="st2" d="M380.8,197.9c0-2.4-2-4.4-4.4-4.4h-9.1h-4.9h-2.5l1.5-8.8c0.7-4.2,0.2-8.5-1.5-12.3l0,0
			c-0.7-1.6-2.3-2.7-4.1-2.7h0c-2.5,0-4.5,2-4.5,4.5v7.2l-8.4,15.2h-5.6v26.4l2.5,0l9.1,5.9h6.4h11.9h2c2.4,0,4.4-2,4.4-4.4v0
			c0-2.4-2-4.4-4.4-4.4h2.7c2.4,0,4.4-2,4.4-4.4s-2-4.4-4.4-4.4h2.4c2.4,0,4.4-2,4.4-4.4v0c0-2.4-2-4.4-4.4-4.4h2
			C378.8,202.3,380.8,200.3,380.8,197.9z"/>
		<rect x="322.9" y="196.4" class="st2" width="9.2" height="26.5"/>
	</g>
</g>
<g>
	<circle cx="646.9" cy="205.2" r="48.6"/>
	<g>
		<path class="st1" d="M646.9,177c-15.6,0-28.2,12.7-28.2,28.2s12.7,28.2,28.2,28.2s28.2-12.7,28.2-28.2S662.5,177,646.9,177z
			 M646.9,230.8c-14.1,0-25.6-11.5-25.6-25.6s11.5-25.6,25.6-25.6s25.6,11.5,25.6,25.6S661,230.8,646.9,230.8z"/>
		<path class="st1" d="M644.8,188.3c-0.3,0-0.8,0-1.2,0c-0.5,0-1,0.1-1.6,0.2c-0.6,0.1-1.2,0.2-1.9,0.5c-0.6,0.3-1.3,0.5-2,0.8
			c-0.7,0.4-1.3,0.8-2,1.2c-0.6,0.5-1.3,1-1.8,1.6c-0.5,0.6-1.1,1.2-1.5,1.9c-0.5,0.7-0.8,1.4-1.2,2.1c-0.3,0.7-0.6,1.4-0.8,2.1
			c-0.2,0.7-0.3,1.3-0.4,1.9c-0.1,0.6-0.1,1.1-0.1,1.6c0,0.5,0,0.9,0.1,1.2c0.1,0.7,0.2,1.1,0.2,1.1s0.1-0.4,0.3-1
			c0.2-0.6,0.5-1.5,1-2.5c0.2-0.5,0.5-1,0.8-1.6c0.3-0.5,0.6-1.1,1-1.7c0.4-0.6,0.7-1.1,1.2-1.7c0.4-0.6,0.9-1.1,1.4-1.6
			c0.5-0.5,1-0.9,1.5-1.4c0.6-0.4,1.1-0.8,1.6-1.2c0.6-0.4,1.1-0.7,1.6-1c0.5-0.3,1.1-0.6,1.6-0.9c0.5-0.3,0.9-0.5,1.4-0.7
			c0.4-0.2,0.8-0.4,1.1-0.5c0.6-0.3,1-0.5,1-0.5S645.5,188.3,644.8,188.3z"/>
	</g>
</g>
<g>
	<circle cx="499.4" cy="205.2" r="48.6"/>
	<g>
		<path class="st2" d="M468.2,223.6h57c3,0,5.4-2.4,5.4-5.4h-62.4V223.6z"/>
		<path class="st2" d="M528,211.9l-30.2-13.5l-2.4,2.4l0,0l-2.1,2.1l-3.6,3.6l-2.4,2.4l-2.1,2.1l-2.1-2.1l-6-6l-0.8-0.8l-3.9-3.9
			c-2.3,0.6-4.3,2.6-4.3,5.5v12h62.4C530.5,214.1,529.5,212.6,528,211.9z"/>
		<polygon class="st2" points="479.2,200.9 485.3,206.9 487.7,204.5 488.8,203.3 491.3,200.8 491.3,200.8 510,181.9 504,175.9 
			485.2,194.8 475.8,185.4 469.8,191.5 479.2,200.9 		"/>
	</g>
</g>
</svg>
