<?xml version="1.0" encoding="utf-8"?>
<!-- Generator: Adobe Illustrator 22.0.0, SVG Export Plug-In . SVG Version: 6.00 Build 0)  -->
<svg version="1.1" id="Layer_1" xmlns="http://www.w3.org/2000/svg" xmlns:xlink="http://www.w3.org/1999/xlink" x="0px" y="0px"
	 viewBox="0 0 113.4 113.4" style="enable-background:new 0 0 113.4 113.4;" xml:space="preserve">
<style type="text/css">
	.st0{fill:#ED1C24;}
	.st1{fill:#FFFFFF;}
	.st2{fill:#FFDD00;}
</style>
<g>
	<circle class="st0" cx="204.3" cy="56.7" r="48.6"/>
	<g>
		<path class="st1" d="M174.3,43c0-7.3,5.3-13.1,13.8-13.1c8.5,0,13.9,5.8,13.9,13.1c0,7.2-5.4,12.9-13.9,12.9
			C179.6,55.9,174.3,50.2,174.3,43z M182.8,82.2l32.9-51.5h7.6l-33,51.5H182.8z M192.5,43c0-3.5-2-4.9-4.5-4.9
			c-2.4,0-4.3,1.4-4.3,4.9c0,3.3,1.9,4.7,4.3,4.7C190.5,47.7,192.5,46.3,192.5,43z M204.2,70.2c0-7.3,5.3-13.1,13.8-13.1
			s13.8,5.8,13.8,13.1c0,7.2-5.4,12.9-13.8,12.9S204.2,77.4,204.2,70.2z M222.4,70.2c0-3.5-2-4.9-4.5-4.9s-4.4,1.4-4.4,4.9
			c0,3.4,1.9,4.7,4.4,4.7S222.4,73.6,222.4,70.2z"/>
	</g>
</g>
<g>
	<circle cx="351.8" cy="56.7" r="48.6"/>
	<g>
		<path class="st2" d="M331,70.1l-4.7-7.8l-4.7,7.8h-9.1l8.6-13.1l-8-12.5h9.1l4.1,7.3l4.1-7.3h9.2l-8,12.4l8.6,13.2H331z"/>
		<path class="st2" d="M341.2,70.1V44.4h7.8v13.7l8.9-13.7h8v25.6h-7.8V55.5l-9.5,14.5H341.2z"/>
		<path class="st2" d="M375.1,70.1V51.2h-6.9v-6.8h21.5v6.8h-6.8v18.9H375.1z"/>
	</g>
</g>
<g>
	<circle class="st2" cx="499.4" cy="56.7" r="48.6"/>
	<g>
		<path d="M474.9,70.1l-9.5-13v13h-7.8V44.4h8l8.9,12.1V44.4h7.8v25.6H474.9z"/>
		<path d="M486.1,70.1V44.4h19.4v6.8h-11.7v2.5h11.4v6.8h-11.4v2.8h11.7v6.8H486.1z"/>
		<path d="M528.1,70.1l-3.3-14.5l-3.3,14.5h-8.1l-7.3-25.6h8.7l3.3,15.7l3.9-15.7h5.8l3.9,15.7l3.3-15.7h8.7l-7.3,25.6H528.1z"/>
	</g>
</g>
<g>
	<path d="M-182.1,38c0-4.1-2.7-7.3-6.5-8.2l6.4-10.1h-11.4l-1.6,2.5c-1.6-1.8-3.9-2.8-6.7-2.8c-1.2,0-2.3,0.2-3.3,0.6
		c-8.5-7.4-19.7-12-31.9-12c-12,0-23,4.4-31.5,11.6h-10.1l-15.9,15.6l10.2,10.6c-0.8,3.5-1.2,7.1-1.2,10.8
		c0,26.8,21.8,48.6,48.6,48.6c26.8,0,48.6-21.8,48.6-48.6c0-3.5-0.4-7-1.1-10.3C-185.3,45.8-182.1,42.4-182.1,38z"/>
	<g>
		<polygon class="st2" points="-289.6,35.4 -284.1,41.1 -278.7,35.7 -278.7,55.4 -269,55.4 -269,23.4 -277.4,23.4 		"/>
		<path class="st2" d="M-251.3,22.9c-9.6,0-14.2,7.8-14.2,16.5s4.7,16.6,14.2,16.6c9.6,0,14.2-7.9,14.2-16.6S-241.8,22.9-251.3,22.9
			z M-251.3,47.4c-3.1,0-4.5-2.6-4.5-8c0-5.4,1.4-8,4.5-8c3.1,0,4.5,2.5,4.5,8C-246.9,44.8-248.2,47.4-251.3,47.4z"/>
		<path class="st2" d="M-221.2,22.9c-9.6,0-14.2,7.8-14.2,16.5s4.7,16.6,14.2,16.6c9.6,0,14.2-7.9,14.2-16.6S-211.6,22.9-221.2,22.9
			z M-221.2,47.4c-3.1,0-4.5-2.6-4.5-8c0-5.4,1.4-8,4.5-8c3.1,0,4.5,2.5,4.5,8C-216.7,44.8-218.1,47.4-221.2,47.4z"/>
		<path class="st2" d="M-196.8,27.9c0-2.7-2-4.8-5.1-4.8c-3.1,0-5.1,2.1-5.1,4.8c0,2.7,2,4.8,5.1,4.8
			C-198.8,32.7-196.8,30.6-196.8,27.9z M-203.6,27.9c0-1.3,0.7-1.8,1.6-1.8c0.9,0,1.7,0.5,1.7,1.8c0,1.2-0.7,1.7-1.7,1.7
			C-202.8,29.7-203.6,29.2-203.6,27.9z"/>
		<polygon class="st2" points="-191.7,23.4 -203.9,42.5 -201.1,42.5 -188.9,23.4 		"/>
		<path class="st2" d="M-190.9,33.2c-3.1,0-5.1,2.1-5.1,4.8c0,2.7,2,4.8,5.1,4.8c3.1,0,5.1-2.1,5.1-4.8
			C-185.8,35.3-187.8,33.2-190.9,33.2z M-190.9,39.8c-0.9,0-1.6-0.5-1.6-1.7c0-1.3,0.7-1.8,1.6-1.8c0.9,0,1.7,0.5,1.7,1.8
			C-189.2,39.3-190,39.8-190.9,39.8z"/>
	</g>
	<g>
		<g>
			<path class="st1" d="M-256.4,62v1.4h-2.6v5.1h-1.8V62H-256.4z"/>
			<path class="st1" d="M-251.7,68.5l-0.3-1.2h-2.1l-0.3,1.2h-1.9l2.1-6.5h2.3l2.1,6.5H-251.7z M-252.4,65.9l-0.3-1.1
				c-0.1-0.2-0.1-0.5-0.2-0.9c-0.1-0.4-0.2-0.6-0.2-0.8c0,0.2-0.1,0.4-0.2,0.7c-0.1,0.3-0.3,1-0.5,2H-252.4z"/>
			<path class="st1" d="M-244.6,64.1c0,0.7-0.2,1.3-0.6,1.7c-0.4,0.4-1,0.6-1.8,0.6h-0.5v2.1h-1.7V62h2.2c0.8,0,1.4,0.2,1.8,0.5
				C-244.8,62.9-244.6,63.4-244.6,64.1z M-247.6,64.9h0.3c0.3,0,0.5-0.1,0.6-0.2s0.2-0.4,0.2-0.6c0-0.4-0.2-0.7-0.7-0.7h-0.5V64.9z"
				/>
			<path class="st1" d="M-239.9,68.5l-0.3-1.2h-2.1l-0.3,1.2h-1.9l2.1-6.5h2.3l2.1,6.5H-239.9z M-240.5,65.9l-0.3-1.1
				c-0.1-0.2-0.1-0.5-0.2-0.9c-0.1-0.4-0.2-0.6-0.2-0.8c0,0.2-0.1,0.4-0.2,0.7c-0.1,0.3-0.3,1-0.5,2H-240.5z"/>
			<path class="st1" d="M-231.9,68.5h-1.8v-2.6h-2v2.6h-1.8V62h1.8v2.4h2V62h1.8V68.5z"/>
			<path class="st1" d="M-227.9,68.5h-1.7v-5h-1.6V62h4.9v1.4h-1.6V68.5z"/>
			<path class="st1" d="M-225.6,62h1.6v2.8c0,0.3,0,0.9-0.1,1.8h0l2.6-4.5h2.2v6.5h-1.5v-2.7c0-0.4,0-1,0.1-1.8h0l-2.6,4.5h-2.2V62z
				"/>
			<path class="st1" d="M-215.7,66.2l-1.3,2.4h-2l1.8-2.8c-0.3-0.2-0.6-0.4-0.8-0.7c-0.2-0.3-0.3-0.6-0.3-1c0-1.3,0.9-1.9,2.6-1.9
				h2.1v6.5h-1.7v-2.4H-215.7z M-215.2,63.4h-0.4c-0.3,0-0.5,0.1-0.7,0.2c-0.2,0.1-0.2,0.3-0.2,0.5c0,0.3,0.1,0.5,0.2,0.6
				s0.4,0.2,0.7,0.2h0.3V63.4z"/>
			<path class="st1" d="M-267.9,79.4h-1.8v-5h-1.8v5h-1.8v-6.5h5.3V79.4z"/>
			<path class="st1" d="M-260.6,76.1c0,1.1-0.3,1.9-0.8,2.5c-0.5,0.6-1.3,0.8-2.3,0.8c-1,0-1.8-0.3-2.3-0.9
				c-0.5-0.6-0.8-1.4-0.8-2.5c0-1.1,0.3-1.9,0.8-2.5c0.5-0.6,1.3-0.9,2.3-0.9c1,0,1.8,0.3,2.3,0.8C-260.9,74.2-260.6,75-260.6,76.1z
				 M-265.1,76.1c0,1.3,0.4,1.9,1.3,1.9c0.4,0,0.8-0.2,1-0.5s0.3-0.8,0.3-1.4c0-0.6-0.1-1.1-0.3-1.4c-0.2-0.3-0.5-0.5-1-0.5
				C-264.6,74.2-265.1,74.9-265.1,76.1z"/>
			<path class="st1" d="M-253.2,81.4h-1.7v-2h-3.8v2h-1.7v-3.4h0.5c0.4-0.7,0.7-1.4,1-2.3c0.3-0.9,0.4-1.8,0.5-2.8h4.3v5h0.9V81.4z
				 M-255.8,77.9v-3.6h-1.2c-0.1,1.3-0.5,2.5-1,3.6H-255.8z"/>
			<path class="st1" d="M-247,79.4h-1.8v-5h-1.2c-0.1,0.7-0.2,1.5-0.3,2.2c-0.1,0.8-0.2,1.3-0.3,1.6c-0.1,0.3-0.2,0.6-0.4,0.7
				c-0.2,0.2-0.4,0.3-0.6,0.4c-0.2,0.1-0.5,0.1-0.8,0.1c-0.3,0-0.5,0-0.7-0.1V78c0.2,0.1,0.3,0.1,0.4,0.1c0.2,0,0.3-0.1,0.4-0.2
				c0.1-0.1,0.2-0.3,0.2-0.7c0.1-0.3,0.2-0.9,0.3-1.7s0.2-1.7,0.3-2.6h4.5V79.4z"/>
			<path class="st1" d="M-245.9,72.9h1.6v2.8c0,0.3,0,0.9-0.1,1.8h0l2.6-4.5h2.2v6.5h-1.5v-2.7c0-0.4,0-1,0.1-1.8h0l-2.6,4.5h-2.2
				V72.9z"/>
			<path class="st1" d="M-232.9,79.4h-1.8v-2.6h-2v2.6h-1.8v-6.5h1.8v2.4h2v-2.4h1.8V79.4z"/>
			<path class="st1" d="M-226.2,79.4h-1.8v-2.6h-2v2.6h-1.8v-6.5h1.8v2.4h2v-2.4h1.8V79.4z"/>
			<path class="st1" d="M-219,76.1c0,1.1-0.3,1.9-0.8,2.5c-0.5,0.6-1.3,0.8-2.3,0.8c-1,0-1.8-0.3-2.3-0.9c-0.5-0.6-0.8-1.4-0.8-2.5
				c0-1.1,0.3-1.9,0.8-2.5c0.5-0.6,1.3-0.9,2.3-0.9c1,0,1.8,0.3,2.3,0.8C-219.2,74.2-219,75-219,76.1z M-223.4,76.1
				c0,1.3,0.4,1.9,1.3,1.9c0.4,0,0.8-0.2,1-0.5s0.3-0.8,0.3-1.4c0-0.6-0.1-1.1-0.3-1.4c-0.2-0.3-0.5-0.5-1-0.5
				C-223,74.2-223.4,74.9-223.4,76.1z"/>
			<path class="st1" d="M-215.1,74.3c-0.4,0-0.7,0.2-1,0.5c-0.2,0.3-0.3,0.8-0.3,1.4c0,1.2,0.5,1.9,1.4,1.9c0.3,0,0.6,0,0.8-0.1
				c0.3-0.1,0.5-0.2,0.8-0.3v1.5c-0.5,0.2-1.2,0.4-1.8,0.4c-1,0-1.7-0.3-2.2-0.8c-0.5-0.6-0.8-1.4-0.8-2.5c0-0.7,0.1-1.3,0.4-1.8
				s0.6-0.9,1.1-1.2c0.5-0.3,1-0.4,1.7-0.4c0.7,0,1.4,0.2,2,0.5l-0.5,1.4c-0.2-0.1-0.5-0.2-0.7-0.3
				C-214.6,74.3-214.9,74.3-215.1,74.3z"/>
			<path class="st1" d="M-209.5,79.4h-1.7v-5h-1.6v-1.4h4.9v1.4h-1.6V79.4z"/>
			<path class="st1" d="M-207.2,72.9h1.6v2.8c0,0.3,0,0.9-0.1,1.8h0l2.6-4.5h2.2v6.5h-1.5v-2.7c0-0.4,0-1,0.1-1.8h0l-2.6,4.5h-2.2
				V72.9z"/>
			<path class="st1" d="M-251.7,90.3h-1.7v-5h-1.6v-1.4h4.9v1.4h-1.6V90.3z"/>
			<path class="st1" d="M-243.4,87c0,1.1-0.3,1.9-0.8,2.5c-0.5,0.6-1.3,0.8-2.3,0.8c-1,0-1.8-0.3-2.3-0.9c-0.5-0.6-0.8-1.4-0.8-2.5
				c0-1.1,0.3-1.9,0.8-2.5c0.5-0.6,1.3-0.9,2.3-0.9c1,0,1.8,0.3,2.3,0.8C-243.7,85.1-243.4,85.9-243.4,87z M-247.8,87
				c0,1.3,0.4,1.9,1.3,1.9c0.4,0,0.8-0.2,1-0.5s0.3-0.8,0.3-1.4c0-0.6-0.1-1.1-0.3-1.4c-0.2-0.3-0.5-0.5-1-0.5
				C-247.4,85.1-247.8,85.7-247.8,87z"/>
			<path class="st1" d="M-242.5,83.8h2.3c0.9,0,1.5,0.1,2,0.4c0.4,0.3,0.6,0.7,0.6,1.2c0,0.4-0.1,0.7-0.3,0.9
				c-0.2,0.3-0.4,0.4-0.7,0.5v0c0.4,0.1,0.7,0.3,0.9,0.5c0.2,0.2,0.3,0.6,0.3,1c0,0.6-0.2,1-0.7,1.4c-0.4,0.3-1,0.5-1.8,0.5h-2.5
				V83.8z M-240.7,86.3h0.5c0.3,0,0.4-0.1,0.6-0.2c0.1-0.1,0.2-0.3,0.2-0.5c0-0.4-0.3-0.5-0.8-0.5h-0.5V86.3z M-240.7,87.5v1.4h0.6
				c0.5,0,0.8-0.2,0.8-0.7c0-0.2-0.1-0.4-0.2-0.5c-0.1-0.1-0.4-0.2-0.6-0.2H-240.7z"/>
			<path class="st1" d="M-232.6,90.3l-0.3-1.2h-2.1l-0.3,1.2h-1.9l2.1-6.5h2.3l2.1,6.5H-232.6z M-233.3,87.6l-0.3-1.1
				c-0.1-0.2-0.1-0.5-0.2-0.9s-0.2-0.6-0.2-0.8c0,0.2-0.1,0.4-0.2,0.7s-0.3,1-0.5,2H-233.3z"/>
			<path class="st1" d="M-225.5,85.8c0,0.7-0.2,1.3-0.6,1.7c-0.4,0.4-1,0.6-1.8,0.6h-0.5v2.1h-1.7v-6.5h2.2c0.8,0,1.4,0.2,1.8,0.5
				C-225.7,84.7-225.5,85.2-225.5,85.8z M-228.5,86.7h0.3c0.3,0,0.5-0.1,0.6-0.2s0.2-0.4,0.2-0.6c0-0.4-0.2-0.7-0.7-0.7h-0.5V86.7z"
				/>
			<path class="st1" d="M-220.8,90.3l-0.3-1.2h-2.1l-0.3,1.2h-1.9l2.1-6.5h2.3l2.1,6.5H-220.8z M-221.4,87.6l-0.3-1.1
				c-0.1-0.2-0.1-0.5-0.2-0.9s-0.2-0.6-0.2-0.8c0,0.2-0.1,0.4-0.2,0.7s-0.3,1-0.5,2H-221.4z"/>
		</g>
	</g>
</g>
<g>
	<path d="M-34.6,38c0-4.1-2.7-7.3-6.5-8.2l6.4-10.1h-11.4l-1.6,2.5c-1.6-1.8-3.9-2.8-6.7-2.8c-1.2,0-2.3,0.2-3.3,0.6
		c-8.5-7.4-19.7-12-31.9-12c-12,0-23,4.4-31.5,11.6h-10.1l-15.9,15.6l10.2,10.6c-0.8,3.5-1.2,7.1-1.2,10.8
		c0,26.8,21.8,48.6,48.6,48.6S-41,83.5-41,56.7c0-3.5-0.4-7-1.1-10.3C-37.8,45.8-34.6,42.4-34.6,38z"/>
	<g>
		<polygon class="st2" points="-142,35.4 -136.6,41.1 -131.1,35.7 -131.1,55.4 -121.4,55.4 -121.4,23.4 -129.8,23.4 		"/>
		<path class="st2" d="M-103.8,22.9c-9.6,0-14.2,7.8-14.2,16.5s4.7,16.6,14.2,16.6c9.6,0,14.2-7.9,14.2-16.6S-94.2,22.9-103.8,22.9z
			 M-103.8,47.4c-3.1,0-4.5-2.6-4.5-8c0-5.4,1.4-8,4.5-8c3.1,0,4.5,2.5,4.5,8C-99.3,44.8-100.7,47.4-103.8,47.4z"/>
		<path class="st2" d="M-73.6,22.9c-9.6,0-14.2,7.8-14.2,16.5S-83.2,56-73.6,56c9.6,0,14.2-7.9,14.2-16.6S-64,22.9-73.6,22.9z
			 M-73.6,47.4c-3.1,0-4.5-2.6-4.5-8c0-5.4,1.4-8,4.5-8c3.1,0,4.5,2.5,4.5,8C-69.1,44.8-70.5,47.4-73.6,47.4z"/>
		<path class="st2" d="M-49.2,27.9c0-2.7-2-4.8-5.1-4.8c-3.1,0-5.1,2.1-5.1,4.8c0,2.7,2,4.8,5.1,4.8C-51.3,32.7-49.2,30.6-49.2,27.9
			z M-56,27.9c0-1.3,0.7-1.8,1.6-1.8c0.9,0,1.7,0.5,1.7,1.8c0,1.2-0.7,1.7-1.7,1.7C-55.3,29.7-56,29.2-56,27.9z"/>
		<path class="st2" d="M-43.3,33.2c-3.1,0-5.1,2.1-5.1,4.8c0,2.7,2,4.8,5.1,4.8c3.1,0,5.1-2.1,5.1-4.8
			C-38.2,35.3-40.2,33.2-43.3,33.2z M-43.3,39.8c-0.9,0-1.6-0.5-1.6-1.7c0-1.3,0.7-1.8,1.6-1.8c0.9,0,1.7,0.5,1.7,1.8
			C-41.7,39.3-42.4,39.8-43.3,39.8z"/>
		<polygon class="st2" points="-44.1,23.4 -56.3,42.5 -53.5,42.5 -41.3,23.4 		"/>
	</g>
	<g>
		<g>
			<path class="st1" d="M-108.8,62v1.4h-2.6v5.1h-1.8V62H-108.8z"/>
			<path class="st1" d="M-104.1,68.5l-0.3-1.2h-2.1l-0.3,1.2h-1.9l2.1-6.5h2.3l2.1,6.5H-104.1z M-104.8,65.9l-0.3-1.1
				c-0.1-0.2-0.1-0.5-0.2-0.9c-0.1-0.4-0.2-0.6-0.2-0.8c0,0.2-0.1,0.4-0.2,0.7c-0.1,0.3-0.3,1-0.5,2H-104.8z"/>
			<path class="st1" d="M-97.1,64.1c0,0.7-0.2,1.3-0.6,1.7c-0.4,0.4-1,0.6-1.8,0.6h-0.5v2.1h-1.7V62h2.2c0.8,0,1.4,0.2,1.8,0.5
				C-97.3,62.9-97.1,63.4-97.1,64.1z M-100,64.9h0.3c0.3,0,0.5-0.1,0.6-0.2c0.2-0.1,0.2-0.4,0.2-0.6c0-0.4-0.2-0.7-0.7-0.7h-0.5
				V64.9z"/>
			<path class="st1" d="M-92.3,68.5l-0.3-1.2h-2.1l-0.3,1.2H-97l2.1-6.5h2.3l2.1,6.5H-92.3z M-93,65.9l-0.3-1.1
				c-0.1-0.2-0.1-0.5-0.2-0.9c-0.1-0.4-0.2-0.6-0.2-0.8c0,0.2-0.1,0.4-0.2,0.7c-0.1,0.3-0.3,1-0.5,2H-93z"/>
			<path class="st1" d="M-84.4,68.5h-1.8v-2.6h-2v2.6h-1.8V62h1.8v2.4h2V62h1.8V68.5z"/>
			<path class="st1" d="M-80.3,68.5h-1.7v-5h-1.6V62h4.9v1.4h-1.6V68.5z"/>
			<path class="st1" d="M-78.1,62h1.6v2.8c0,0.3,0,0.9-0.1,1.8h0L-74,62h2.2v6.5h-1.5v-2.7c0-0.4,0-1,0.1-1.8h0l-2.6,4.5h-2.2V62z"
				/>
			<path class="st1" d="M-68.2,66.2l-1.3,2.4h-2l1.8-2.8c-0.3-0.2-0.6-0.4-0.8-0.7s-0.3-0.6-0.3-1c0-1.3,0.9-1.9,2.6-1.9h2.1v6.5
				h-1.7v-2.4H-68.2z M-67.6,63.4H-68c-0.3,0-0.5,0.1-0.7,0.2c-0.2,0.1-0.2,0.3-0.2,0.5c0,0.3,0.1,0.5,0.2,0.6
				c0.2,0.1,0.4,0.2,0.7,0.2h0.3V63.4z"/>
			<path class="st1" d="M-106.7,79.4h-2l-1.9-3.3v3.3h-1.8v-6.5h1.8V76l1.8-3.1h1.9l-2,3.1L-106.7,79.4z"/>
			<path class="st1" d="M-102.3,79.4l-0.3-1.2h-2.1l-0.3,1.2h-1.9l2.1-6.5h2.3l2.1,6.5H-102.3z M-103,76.7l-0.3-1.1
				c-0.1-0.2-0.1-0.5-0.2-0.9s-0.2-0.6-0.2-0.8c0,0.2-0.1,0.4-0.2,0.7s-0.3,1-0.5,2H-103z"/>
			<path class="st1" d="M-94.4,79.4h-1.8V77c-0.7,0.3-1.4,0.4-2,0.4c-0.6,0-1.1-0.2-1.4-0.5s-0.5-0.7-0.5-1.3v-2.7h1.8v2.2
				c0,0.3,0.1,0.5,0.2,0.7s0.3,0.2,0.6,0.2c0.4,0,0.8-0.1,1.4-0.3v-2.7h1.8V79.4z"/>
			<path class="st1" d="M-89.4,79.4h-3.8v-6.5h3.8v1.4h-2.1v1h1.9v1.4h-1.9V78h2.1V79.4z"/>
			<path class="st1" d="M-85.6,74.3c-0.4,0-0.7,0.2-1,0.5c-0.2,0.3-0.3,0.8-0.3,1.4c0,1.2,0.5,1.9,1.4,1.9c0.3,0,0.6,0,0.8-0.1
				c0.3-0.1,0.5-0.2,0.8-0.3v1.5c-0.5,0.2-1.1,0.4-1.8,0.4c-1,0-1.7-0.3-2.2-0.8c-0.5-0.6-0.8-1.4-0.8-2.5c0-0.7,0.1-1.3,0.4-1.8
				c0.3-0.5,0.6-0.9,1.1-1.2c0.5-0.3,1-0.4,1.7-0.4c0.7,0,1.4,0.2,2,0.5l-0.5,1.4c-0.2-0.1-0.5-0.2-0.7-0.3
				C-85.1,74.3-85.4,74.3-85.6,74.3z"/>
			<path class="st1" d="M-80,79.4h-1.7v-5h-1.6v-1.4h4.9v1.4H-80V79.4z"/>
			<path class="st1" d="M-77.7,72.9h2.3c0.9,0,1.5,0.1,2,0.4c0.4,0.3,0.6,0.7,0.6,1.2c0,0.4-0.1,0.7-0.3,0.9
				c-0.2,0.3-0.4,0.4-0.7,0.5v0c0.4,0.1,0.7,0.3,0.9,0.5c0.2,0.2,0.3,0.6,0.3,1c0,0.6-0.2,1-0.7,1.4c-0.4,0.3-1,0.5-1.8,0.5h-2.5
				V72.9z M-76,75.4h0.5c0.3,0,0.4-0.1,0.6-0.2c0.1-0.1,0.2-0.3,0.2-0.5c0-0.4-0.3-0.5-0.8-0.5H-76V75.4z M-76,76.7V78h0.6
				c0.5,0,0.8-0.2,0.8-0.7c0-0.2-0.1-0.4-0.2-0.5c-0.1-0.1-0.4-0.2-0.6-0.2H-76z"/>
			<path class="st1" d="M-67.9,79.4l-0.3-1.2h-2.1l-0.3,1.2h-1.9l2.1-6.5h2.3l2.1,6.5H-67.9z M-68.6,76.7l-0.3-1.1
				c-0.1-0.2-0.1-0.5-0.2-0.9s-0.2-0.6-0.2-0.8c0,0.2-0.1,0.4-0.2,0.7s-0.3,1-0.5,2H-68.6z"/>
			<path class="st1" d="M-104.2,90.3h-1.7v-5h-1.6v-1.4h4.9v1.4h-1.6V90.3z"/>
			<path class="st1" d="M-95.8,87c0,1.1-0.3,1.9-0.8,2.5c-0.5,0.6-1.3,0.8-2.3,0.8c-1,0-1.8-0.3-2.3-0.9c-0.5-0.6-0.8-1.4-0.8-2.5
				c0-1.1,0.3-1.9,0.8-2.5s1.3-0.9,2.3-0.9c1,0,1.8,0.3,2.3,0.8C-96.1,85.1-95.8,85.9-95.8,87z M-100.3,87c0,1.3,0.4,1.9,1.3,1.9
				c0.4,0,0.8-0.2,1-0.5s0.3-0.8,0.3-1.4c0-0.6-0.1-1.1-0.3-1.4c-0.2-0.3-0.5-0.5-1-0.5C-99.9,85.1-100.3,85.7-100.3,87z"/>
			<path class="st1" d="M-94.9,83.8h2.3c0.9,0,1.5,0.1,2,0.4c0.4,0.3,0.6,0.7,0.6,1.2c0,0.4-0.1,0.7-0.3,0.9
				c-0.2,0.3-0.4,0.4-0.7,0.5v0c0.4,0.1,0.7,0.3,0.9,0.5c0.2,0.2,0.3,0.6,0.3,1c0,0.6-0.2,1-0.7,1.4c-0.4,0.3-1,0.5-1.8,0.5h-2.5
				V83.8z M-93.2,86.3h0.5c0.3,0,0.4-0.1,0.6-0.2c0.1-0.1,0.2-0.3,0.2-0.5c0-0.4-0.3-0.5-0.8-0.5h-0.5V86.3z M-93.2,87.5v1.4h0.6
				c0.5,0,0.8-0.2,0.8-0.7c0-0.2-0.1-0.4-0.2-0.5c-0.1-0.1-0.4-0.2-0.6-0.2H-93.2z"/>
			<path class="st1" d="M-85.1,90.3l-0.3-1.2h-2.1l-0.3,1.2h-1.9l2.1-6.5h2.3l2.1,6.5H-85.1z M-85.7,87.6l-0.3-1.1
				c-0.1-0.2-0.1-0.5-0.2-0.9s-0.2-0.6-0.2-0.8c0,0.2-0.1,0.4-0.2,0.7s-0.3,1-0.5,2H-85.7z"/>
			<path class="st1" d="M-78,85.8c0,0.7-0.2,1.3-0.6,1.7c-0.4,0.4-1,0.6-1.8,0.6h-0.5v2.1h-1.7v-6.5h2.2c0.8,0,1.4,0.2,1.8,0.5
				C-78.2,84.7-78,85.2-78,85.8z M-80.9,86.7h0.3c0.3,0,0.5-0.1,0.6-0.2c0.2-0.1,0.2-0.4,0.2-0.6c0-0.4-0.2-0.7-0.7-0.7h-0.5V86.7z"
				/>
			<path class="st1" d="M-73.2,90.3l-0.3-1.2h-2.1l-0.3,1.2h-1.9l2.1-6.5h2.3l2.1,6.5H-73.2z M-73.9,87.6l-0.3-1.1
				c-0.1-0.2-0.1-0.5-0.2-0.9s-0.2-0.6-0.2-0.8c0,0.2-0.1,0.4-0.2,0.7s-0.3,1-0.5,2H-73.9z"/>
		</g>
	</g>
</g>
<g>
	<path d="M113,38c0-4.1-2.7-7.3-6.5-8.2l6.4-10.1h-11.4l-1.6,2.5c-1.6-1.8-3.9-2.8-6.7-2.8c-1.2,0-2.3,0.2-3.3,0.6
		c-8.5-7.4-19.7-12-31.9-12c-12,0-23,4.4-31.5,11.6H16.3L0.4,35.3l10.2,10.6C9.8,49.4,9.4,53,9.4,56.7c0,26.8,21.8,48.6,48.6,48.6
		c26.8,0,48.6-21.8,48.6-48.6c0-3.5-0.4-7-1.1-10.3C109.8,45.8,113,42.4,113,38z"/>
	<g>
		<g>
			<path class="st2" d="M16.4,55.4V35.7L11,41.1l-5.5-5.7l12.2-12h8.4v32H16.4z"/>
			<path class="st2" d="M29.6,39.4c0-8.7,4.7-16.5,14.2-16.5c9.6,0,14.2,7.8,14.2,16.5S53.4,56,43.8,56C34.2,56,29.6,48.1,29.6,39.4
				z M48.3,39.4c0-5.4-1.4-8-4.5-8s-4.5,2.5-4.5,8c0,5.4,1.4,8,4.5,8S48.3,44.8,48.3,39.4z"/>
			<path class="st2" d="M59.7,39.4c0-8.7,4.7-16.5,14.2-16.5c9.6,0,14.2,7.8,14.2,16.5S83.5,56,74,56C64.4,56,59.7,48.1,59.7,39.4z
				 M78.4,39.4c0-5.4-1.4-8-4.5-8c-3.1,0-4.5,2.5-4.5,8c0,5.4,1.4,8,4.5,8C77,47.4,78.4,44.8,78.4,39.4z"/>
		</g>
		<path class="st2" d="M88.1,27.9c0-2.7,2-4.8,5.1-4.8c3.1,0,5.1,2.1,5.1,4.8c0,2.7-2,4.8-5.1,4.8C90,32.7,88.1,30.6,88.1,27.9z
			 M91.2,42.5l12.2-19.1h2.8L94,42.5H91.2z M94.8,27.9c0-1.3-0.7-1.8-1.7-1.8c-0.9,0-1.6,0.5-1.6,1.8c0,1.2,0.7,1.7,1.6,1.7
			C94.1,29.7,94.8,29.2,94.8,27.9z M99.1,38c0-2.7,2-4.8,5.1-4.8c3.1,0,5.1,2.1,5.1,4.8c0,2.7-2,4.8-5.1,4.8
			C101.1,42.8,99.1,40.7,99.1,38z M105.9,38c0-1.3-0.7-1.8-1.7-1.8c-0.9,0-1.6,0.5-1.6,1.8c0,1.3,0.7,1.7,1.6,1.7
			C105.1,39.8,105.9,39.3,105.9,38z"/>
	</g>
	<g>
		<g>
			<path class="st1" d="M38.7,62v1.4h-2.6v5.1h-1.8V62H38.7z"/>
			<path class="st1" d="M43.4,68.5l-0.3-1.2H41l-0.3,1.2h-1.9l2.1-6.5h2.3l2.1,6.5H43.4z M42.7,65.9l-0.3-1.1
				c-0.1-0.2-0.1-0.5-0.2-0.9c-0.1-0.4-0.2-0.6-0.2-0.8c0,0.2-0.1,0.4-0.2,0.7c-0.1,0.3-0.3,1-0.5,2H42.7z"/>
			<path class="st1" d="M50.5,64.1c0,0.7-0.2,1.3-0.6,1.7c-0.4,0.4-1,0.6-1.8,0.6h-0.5v2.1h-1.7V62H48c0.8,0,1.4,0.2,1.8,0.5
				C50.3,62.9,50.5,63.4,50.5,64.1z M47.5,64.9h0.3c0.3,0,0.5-0.1,0.6-0.2c0.2-0.1,0.2-0.4,0.2-0.6c0-0.4-0.2-0.7-0.7-0.7h-0.5V64.9
				z"/>
			<path class="st1" d="M55.3,68.5l-0.3-1.2h-2.1l-0.3,1.2h-1.9l2.1-6.5H55l2.1,6.5H55.3z M54.6,65.9l-0.3-1.1
				c-0.1-0.2-0.1-0.5-0.2-0.9c-0.1-0.4-0.2-0.6-0.2-0.8c0,0.2-0.1,0.4-0.2,0.7c-0.1,0.3-0.3,1-0.5,2H54.6z"/>
			<path class="st1" d="M63.2,68.5h-1.8v-2.6h-2v2.6h-1.8V62h1.8v2.4h2V62h1.8V68.5z"/>
			<path class="st1" d="M67.2,68.5h-1.7v-5h-1.6V62h4.9v1.4h-1.6V68.5z"/>
			<path class="st1" d="M69.5,62H71v2.8c0,0.3,0,0.9-0.1,1.8h0l2.6-4.5h2.2v6.5h-1.5v-2.7c0-0.4,0-1,0.1-1.8h0l-2.6,4.5h-2.2V62z"/>
			<path class="st1" d="M79.4,66.2l-1.3,2.4h-2l1.8-2.8c-0.3-0.2-0.6-0.4-0.8-0.7s-0.3-0.6-0.3-1c0-1.3,0.9-1.9,2.6-1.9h2.1v6.5
				h-1.7v-2.4H79.4z M79.9,63.4h-0.4c-0.3,0-0.5,0.1-0.7,0.2c-0.2,0.1-0.2,0.3-0.2,0.5c0,0.3,0.1,0.5,0.2,0.6
				c0.2,0.1,0.4,0.2,0.7,0.2h0.3V63.4z"/>
			<path class="st1" d="M34.7,72.9H37c0.9,0,1.5,0.1,2,0.4c0.4,0.3,0.6,0.7,0.6,1.2c0,0.4-0.1,0.7-0.3,0.9c-0.2,0.3-0.4,0.4-0.7,0.5
				v0c0.4,0.1,0.7,0.3,0.9,0.5c0.2,0.2,0.3,0.6,0.3,1c0,0.6-0.2,1-0.7,1.4c-0.4,0.3-1,0.5-1.8,0.5h-2.5V72.9z M36.4,75.4H37
				c0.3,0,0.4-0.1,0.6-0.2c0.1-0.1,0.2-0.3,0.2-0.5c0-0.4-0.3-0.5-0.8-0.5h-0.5V75.4z M36.4,76.7V78h0.6c0.5,0,0.8-0.2,0.8-0.7
				c0-0.2-0.1-0.4-0.2-0.5c-0.1-0.1-0.4-0.2-0.6-0.2H36.4z"/>
			<path class="st1" d="M46.6,76.1c0,1.1-0.3,1.9-0.8,2.5c-0.5,0.6-1.3,0.8-2.3,0.8c-1,0-1.8-0.3-2.3-0.9c-0.5-0.6-0.8-1.4-0.8-2.5
				c0-1.1,0.3-1.9,0.8-2.5s1.3-0.9,2.3-0.9c1,0,1.8,0.3,2.3,0.8C46.4,74.2,46.6,75,46.6,76.1z M42.2,76.1c0,1.3,0.4,1.9,1.3,1.9
				c0.4,0,0.8-0.2,1-0.5s0.3-0.8,0.3-1.4c0-0.6-0.1-1.1-0.3-1.4c-0.2-0.3-0.5-0.5-1-0.5C42.6,74.2,42.2,74.9,42.2,76.1z"/>
			<path class="st1" d="M52.2,74.4c0,0.9-0.5,1.4-1.5,1.5v0c0.6,0,1,0.2,1.3,0.5c0.3,0.3,0.4,0.6,0.4,1.1c0,0.4-0.1,0.7-0.3,1
				s-0.5,0.5-0.9,0.7c-0.4,0.2-0.9,0.2-1.5,0.2c-1,0-1.9-0.1-2.5-0.3v-1.5c0.3,0.1,0.6,0.2,1,0.3S49,78,49.3,78
				c0.5,0,0.9-0.1,1.1-0.2c0.2-0.1,0.3-0.3,0.3-0.5c0-0.4-0.5-0.6-1.5-0.6h-0.8v-1.4h0.7c0.3,0,0.6,0,0.8-0.1c0.2,0,0.3-0.1,0.4-0.2
				c0.1-0.1,0.1-0.2,0.1-0.3c0-0.3-0.3-0.5-0.9-0.5c-0.6,0-1.1,0.2-1.5,0.5l-0.7-1.2c0.4-0.2,0.8-0.4,1.2-0.5
				c0.4-0.1,0.9-0.2,1.4-0.2c0.7,0,1.3,0.1,1.7,0.4C52,73.6,52.2,73.9,52.2,74.4z"/>
			<path class="st1" d="M53.4,72.9h2.3c0.9,0,1.5,0.1,2,0.4c0.4,0.3,0.6,0.7,0.6,1.2c0,0.4-0.1,0.7-0.3,0.9
				c-0.2,0.3-0.4,0.4-0.7,0.5v0c0.4,0.1,0.7,0.3,0.9,0.5c0.2,0.2,0.3,0.6,0.3,1c0,0.6-0.2,1-0.7,1.4c-0.4,0.3-1,0.5-1.8,0.5h-2.5
				V72.9z M55.1,75.4h0.5c0.3,0,0.4-0.1,0.6-0.2c0.1-0.1,0.2-0.3,0.2-0.5c0-0.4-0.3-0.5-0.8-0.5h-0.5V75.4z M55.1,76.7V78h0.6
				c0.5,0,0.8-0.2,0.8-0.7c0-0.2-0.1-0.4-0.2-0.5c-0.1-0.1-0.4-0.2-0.6-0.2H55.1z"/>
			<path class="st1" d="M63.9,75c0,0.7-0.2,1.3-0.6,1.7c-0.4,0.4-1,0.6-1.8,0.6H61v2.1h-1.7v-6.5h2.2c0.8,0,1.4,0.2,1.8,0.5
				C63.7,73.8,63.9,74.3,63.9,75z M61,75.8h0.3c0.3,0,0.5-0.1,0.6-0.2c0.2-0.1,0.2-0.4,0.2-0.6c0-0.4-0.2-0.7-0.7-0.7H61V75.8z"/>
			<path class="st1" d="M68.7,79.4l-0.3-1.2h-2.1L66,79.4h-1.9l2.1-6.5h2.3l2.1,6.5H68.7z M68,76.7l-0.3-1.1
				c-0.1-0.2-0.1-0.5-0.2-0.9s-0.2-0.6-0.2-0.8c0,0.2-0.1,0.4-0.2,0.7s-0.3,1-0.5,2H68z"/>
			<path class="st1" d="M74,79.4h-1.7v-5h-1.6v-1.4h4.9v1.4H74V79.4z"/>
			<path class="st1" d="M80.2,79.4l-0.3-1.2h-2.1l-0.3,1.2h-1.9l2.1-6.5H80l2.1,6.5H80.2z M79.5,76.7l-0.3-1.1
				c-0.1-0.2-0.1-0.5-0.2-0.9s-0.2-0.6-0.2-0.8c0,0.2-0.1,0.4-0.2,0.7s-0.3,1-0.5,2H79.5z"/>
			<path class="st1" d="M51,92.3h-1.7v-2h-3.8v2h-1.7v-3.4h0.5c0.4-0.7,0.7-1.4,1-2.3s0.4-1.8,0.5-2.8h4.3v5H51V92.3z M48.3,88.8
				v-3.6h-1.2c-0.1,1.3-0.5,2.5-1,3.6H48.3z"/>
			<path class="st1" d="M55.4,90.3h-3.8v-6.5h3.8v1.4h-2.1v1h1.9v1.4h-1.9v1.2h2.1V90.3z"/>
			<path class="st1" d="M61.9,90.3h-1.8v-2.6h-2v2.6h-1.8v-6.5h1.8v2.4h2v-2.4h1.8V90.3z"/>
			<path class="st1" d="M66.9,90.3h-3.8v-6.5h3.8v1.4h-2.1v1h1.9v1.4h-1.9v1.2h2.1V90.3z"/>
			<path class="st1" d="M72.1,83.8v1.4h-2.6v5.1h-1.8v-6.5H72.1z"/>
		</g>
	</g>
</g>
<g>
	<circle cx="646.9" cy="56.7" r="48.6"/>
	<g>
		<circle class="st2" cx="666.2" cy="75.3" r="6.3"/>
		<circle class="st2" cx="632.2" cy="75.3" r="6.3"/>
		<g>
			<path class="st2" d="M633.7,49.2H633V52h0.6c1.1,0,1.7-0.5,1.7-1.5C635.4,49.6,634.8,49.2,633.7,49.2z"/>
			<path class="st2" d="M670.2,43.8H660v-9.5h-43.1v41h5.4c0-5.4,4.4-9.8,9.8-9.8c5.4,0,9.8,4.4,9.8,9.8h14.3c0-5.4,4.4-9.8,9.8-9.8
				c5.4,0,9.8,4.4,9.8,9.8h3.1V59L670.2,43.8z M628.6,49.3h-4v2.3h3.6v2.6h-3.6v4.6h-3.2V46.7h7.2V49.3z M636.5,58.9l-2.6-4.4H633
				v4.4h-3.3V46.7h4c3.3,0,5,1.2,5,3.6c0,1.4-0.7,2.5-2.1,3.3l3.5,5.3H636.5z M647.7,49.3h-3.9v1.9h3.6v2.6h-3.6v2.3h3.9v2.7h-7.2
				V46.7h7.2V49.3z M656.2,49.3h-3.9v1.9h3.6v2.6h-3.6v2.3h3.9v2.7h-7.2V46.7h7.2V49.3z M662.6,59V47.8h5.3l6.6,11.2H662.6z"/>
		</g>
	</g>
</g>
<g>
	<circle cx="794.5" cy="56.7" r="48.6"/>
	<g>
		<path class="st2" d="M770.1,76.8V66.7c0-4.8,6.2-6.7,8.9-2.6v0c0,0,1.6,2.4,5.3,2.5c5.2,0.1,7.5-1.4,10.2-4.7l26.1,11.7
			c1.3,0.6,2.1,1.9,2.2,3.3l0,0H770.1z"/>
		<path class="st2" d="M818.1,83.5h-48.1v-4.6h52.6l0,0C822.7,81.4,820.7,83.5,818.1,83.5z"/>
		<g>
			<path class="st2" d="M776.3,24.1v34.5c1.8,0.3,3.3,1.4,4.3,2.9c0.1,0.2,1.3,1.6,3.7,1.6c0.2,0,0.3,0,0.5,0c4.1,0,5.8-1.2,8.1-4
				V24.1H776.3z M789.8,57.2H779v-6.4h2.3v3.5h2.1v-3.2h2.3v3.2h4V57.2z M789.8,43.9l-3.9,2.3v0.7h3.9v2.9H779v-3.5
				c0-2.9,1.1-4.4,3.2-4.4c1.2,0,2.2,0.6,2.9,1.8l4.7-3.1V43.9z M789.8,40.4H779V34h2.3v3.5h1.7v-3.2h2.3v3.2h2V34h2.4V40.4z
				 M789.8,32.9H779v-6.4h2.3V30h1.7v-3.2h2.3V30h2v-3.5h2.4V32.9z"/>
			<path class="st2" d="M782.3,44.8c-0.7,0-1.1,0.5-1.1,1.5v0.6h2.5v-0.5C783.7,45.4,783.2,44.8,782.3,44.8z"/>
		</g>
	</g>
</g>
<g>
	<circle cx="1089.6" cy="56.7" r="48.6"/>
	<polygon class="st2" points="1092.1,70.3 1121.6,40.5 1112.1,31 1082.5,60.8 1067.7,46.1 1058.2,55.5 1073.1,70.4 1073.1,70.4 
		1082.6,79.9 1086.4,76 1092.1,70.3 	"/>
</g>
<g>
	<circle cx="942" cy="56.7" r="48.6"/>
	<g>
		<path class="st2" d="M968.5,38.8l-25.6-16.7v3.7v4.9c-15.1,0-27.3,12.2-27.3,27.3v1.8c2.1-8.1,9.5-14.1,18.2-14.1h9v9.8
			L968.5,38.8z"/>
		<path class="st2" d="M915.6,74.6l25.6,16.7v-3.7v-4.9c15.1,0,27.3-12.2,27.3-27.3v-1.8c-2.1,8.1-9.5,14.1-18.2,14.1h-9v-9.8
			L915.6,74.6z"/>
	</g>
</g>
<g>
	<circle cx="-90.9" cy="205.2" r="48.6"/>
	<path class="st2" d="M-71,178.8c-28.3-12.2-47.7,4-47.7,4c1,45.7,27.8,53.4,27.8,53.4s26.8-7.7,27.8-53.4
		C-63.1,182.8-65.9,180.8-71,178.8z M-88.9,213l-3.5,3.5l-2.4,2.4l-5.9-5.9l0,0l-9.2-9.2l5.9-5.9l9.2,9.2l18.3-18.5l5.9,5.9
		L-88.9,213L-88.9,213z"/>
</g>
<g>
	<circle cx="56.7" cy="205.2" r="48.6"/>
	<path class="st2" d="M82.9,197.9c0-8.1-6.5-14.6-14.6-14.6c-4.8,0-9,2.3-11.6,5.8c-2.7-3.5-6.9-5.8-11.7-5.8
		c-8.1,0-14.6,6.5-14.6,14.6c0,2,0.4,3.9,1.2,5.7l0,0c0,0,1.8,8.1,25.1,27.7c0,0,0,0,0,0c0,0,0,0,0,0c23.2-19.6,25.1-27.7,25.1-27.7
		l0,0C82.5,201.9,82.9,200,82.9,197.9z"/>
</g>
<g>
	<circle cx="-238.4" cy="205.2" r="48.6"/>
	<g>
		<path class="st2" d="M-200.5,198.7c0-1.9-1.5-3.4-3.4-3.4h-6.9h-3.7h-1.9l1.2-6.6c0.6-3.2,0.1-6.4-1.2-9.4l0,0
			c-0.5-1.2-1.8-2-3.1-2h0c-1.9,0-3.4,1.5-3.4,3.4v5.4l-6.4,11.5h-4.2v20l1.9,0l6.9,4.5h4.8h9h1.6c1.9,0,3.4-1.5,3.4-3.4v0
			c0-1.9-1.5-3.4-3.4-3.4h2.1c1.9,0,3.4-1.5,3.4-3.4c0-1.9-1.5-3.4-3.4-3.4h1.8c1.9,0,3.4-1.5,3.4-3.4v0c0-1.9-1.5-3.4-3.4-3.4h1.5
			C-202,202.1-200.5,200.6-200.5,198.7z"/>
		<g>
			<path class="st2" d="M-255.9,210.7h-2.5v0.9h2.5c0.3,0,0.5-0.2,0.5-0.4C-255.4,210.8-255.6,210.7-255.9,210.7z"/>
			<path class="st2" d="M-255.6,207.8c0-0.2-0.2-0.4-0.4-0.4h-2.3v0.8h2.3C-255.8,208.1-255.6,208-255.6,207.8z"/>
			<path class="st2" d="M-276.4,197.6v20.1h38.9v-20.1H-276.4z M-265.8,214h-3.8v-7.8l-2.2,2.1l-2.2-2.3l4.9-4.8h3.3V214z M-255,214
				h-6.8v-9.2h6.6c2.1,0,3,1.3,3,2.4s-0.7,1.8-1.6,2.1c1.1,0.2,1.8,1.1,1.8,2.2C-252,212.8-252.9,214-255,214z M-240.8,214h-3.8
				v-7.8l-2.2,2.1l-2.2-2.3l4.9-4.8h3.3V214z"/>
		</g>
	</g>
</g>
<g>
	<circle cx="1089.6" cy="205.2" r="48.6"/>
	<path class="st2" d="M1122.2,205.2c0,18-14.6,32.6-32.6,32.6s-32.6-14.6-32.6-32.6s14.6-32.6,32.6-32.6c6.5,0,12.7,1.9,18,5.4
		l-3.6,4.3l16.1,2.7l-5.7-15.3l-3.2,3.9c-6.4-4.4-13.8-6.7-21.6-6.7c-21.1,0-38.3,17.2-38.3,38.3s17.2,38.3,38.3,38.3
		c21.1,0,38.3-17.2,38.3-38.3H1122.2z"/>
	<g>
		<g>
			<path class="st1" d="M1076.6,221.4c0,0.8,0.5,1,1.1,1c0.4,0,0.8-0.1,1.1-0.2V219h2.3v7.7h-2.3v-2.5c-0.6,0.1-1,0.2-1.5,0.2
				c-2.1,0-3.1-1.2-3.1-3V219h2.4V221.4z"/>
			<path class="st1" d="M1087.4,226.7l-0.3-0.9h-2.8l-0.3,0.9h-2.7l2.9-7.7h2.9l2.9,7.7H1087.4z M1085.7,221.3l-0.8,2.5h1.5
				L1085.7,221.3z"/>
			<path class="st1" d="M1089.6,222.9c0-2.4,1.8-4,4.3-4c2,0,3.1,1.2,3.5,2.3l-2,0.9c-0.2-0.6-0.8-1.1-1.5-1.1
				c-1.1,0-1.9,0.9-1.9,1.9c0,1.1,0.8,1.9,1.9,1.9c0.7,0,1.3-0.5,1.5-1.1l2,0.9c-0.5,1-1.5,2.3-3.5,2.3
				C1091.4,226.9,1089.6,225.2,1089.6,222.9z"/>
			<path class="st1" d="M1103.1,226.7l-0.3-0.9h-2.8l-0.3,0.9h-2.7l2.9-7.7h2.9l2.9,7.7H1103.1z M1101.4,221.3l-0.8,2.5h1.5
				L1101.4,221.3z"/>
		</g>
		<g>
			<path class="st2" d="M1067.6,214.7v-6c11.6-8.2,12.7-9.1,12.7-11c0-1.2-1.3-2-2.9-2c-2.7,0-4.8,1-6.7,2.6l-4.2-5.1
				c2.9-3.1,7.2-4.3,10.7-4.3c6.6,0,10.9,3.7,10.9,8.7c0,3.5-2,6.3-8,10.3h8.3v6.7H1067.6z"/>
			<path class="st2" d="M1101.9,214.7v-4.1h-12.2v-5.9l9.2-15.4h10.7v14.6h2.9v6.7h-2.9v4.1H1101.9z M1101.9,196l-4.8,8h4.8V196z"/>
		</g>
	</g>
</g>
<g>
	<circle cx="204.3" cy="205.2" r="48.6"/>
	<circle class="st1" cx="200.1" cy="183.2" r="3.3"/>
	<circle class="st1" cx="208.5" cy="214.6" r="3.3"/>
	<circle class="st1" cx="223" cy="221.2" r="4.4"/>
	<circle class="st1" cx="200.1" cy="198.9" r="4.4"/>
	
		<rect x="219.5" y="191.1" transform="matrix(0.5386 0.8426 -0.8426 0.5386 270.075 -95.315)" class="st1" width="5.2" height="15.7"/>
	
		<rect x="192.5" y="212.7" transform="matrix(0.5939 -0.8045 0.8045 0.5939 -98.2122 246.571)" class="st1" width="5.2" height="15.7"/>
	
		<rect x="181.7" y="187.7" transform="matrix(-0.6038 -0.7971 0.7971 -0.6038 139.7059 460.6497)" class="st1" width="5.2" height="15.7"/>
	<path class="st2" d="M204.3,166.9c-21.1,0-38.3,17.2-38.3,38.3s17.2,38.3,38.3,38.3s38.3-17.2,38.3-38.3S225.3,166.9,204.3,166.9z
		 M171.7,205.2c0-18,14.6-32.6,32.6-32.6c5.3,0,10.2,1.3,14.7,3.5l-36.5,53.3C175.8,223.4,171.7,214.8,171.7,205.2z M204.3,237.8
		c-6.4,0-12.3-1.8-17.3-5l36.8-53.7c7.9,5.9,13.1,15.4,13.1,26.1C236.8,223.2,222.2,237.8,204.3,237.8z"/>
</g>
<g>
	<g>
		<circle cx="499.4" cy="205.2" r="48.6"/>
	</g>
	<g>
		<path class="st1" d="M502.4,208.4c10.9-10.7,4.8-23.1,0.1-28.2l-6.3,5.8c1.3,1.4,7.5,9,0.1,16.3c-10.9,10.8-4.8,22.9-0.1,27.8
			l6.1-5.9C501.6,223.4,494.8,215.9,502.4,208.4z"/>
		<path class="st1" d="M515.5,213.7c7.8-7.7,3.5-16.6,0.1-20.2l-4.5,4.2c0.9,1,5.4,6.5,0.1,11.7c-7.8,7.7-3.5,16.5-0.1,20l4.4-4.3
			C514.9,224.5,510,219.1,515.5,213.7z"/>
		<path class="st1" d="M487.6,203.7c7.8-7.7,3.5-16.6,0.1-20.2l-4.5,4.2c0.9,1,5.4,6.5,0.1,11.7c-7.8,7.7-3.5,16.5-0.1,20l4.4-4.2
			C486.7,214.1,482.3,208.8,487.6,203.7z"/>
	</g>
	<path class="st2" d="M499.4,166.9c-21.1,0-38.3,17.2-38.3,38.3s17.2,38.3,38.3,38.3s38.3-17.2,38.3-38.3S520.5,166.9,499.4,166.9z
		 M466.8,205.2c0-18,14.6-32.6,32.6-32.6c5.3,0,10.2,1.3,14.7,3.5l-36.5,53.3C470.9,223.4,466.8,214.8,466.8,205.2z M499.4,237.8
		c-6.4,0-12.3-1.8-17.3-5l36.8-53.7c7.9,5.9,13.1,15.4,13.1,26.1C532,223.2,517.3,237.8,499.4,237.8z"/>
</g>
<g>
	<circle cx="351.8" cy="205.2" r="48.6"/>
	<path class="st2" d="M367.6,194l-15.8-15.8L336,194c-8.7,8.7-8.7,22.8,0,31.5s22.8,8.7,31.5,0S376.3,202.7,367.6,194z"/>
</g>
<g>
	<circle cx="646.9" cy="205.2" r="48.6"/>
	<g>
		<path class="st2" d="M675.9,197.9c0-2.4-2-4.4-4.4-4.4h-9.1h-4.9H655l1.5-8.8c0.7-4.2,0.2-8.5-1.5-12.3l0,0
			c-0.7-1.6-2.3-2.7-4.1-2.7h0c-2.5,0-4.5,2-4.5,4.5v7.2l-8.4,15.2h-5.6v26.4l2.5,0l9.1,5.9h6.4h11.9h2c2.4,0,4.4-2,4.4-4.4v0
			c0-2.4-2-4.4-4.4-4.4h2.7c2.4,0,4.4-2,4.4-4.4s-2-4.4-4.4-4.4h2.4c2.4,0,4.4-2,4.4-4.4v0c0-2.4-2-4.4-4.4-4.4h2
			C673.9,202.3,675.9,200.3,675.9,197.9z"/>
		<rect x="618" y="196.4" class="st2" width="9.2" height="26.5"/>
	</g>
</g>
<g>
	<circle cx="942" cy="205.2" r="48.6"/>
	<g>
		<path class="st1" d="M942,177c-15.6,0-28.2,12.7-28.2,28.2s12.7,28.2,28.2,28.2s28.2-12.7,28.2-28.2S957.6,177,942,177z
			 M942,230.8c-14.1,0-25.6-11.5-25.6-25.6s11.5-25.6,25.6-25.6s25.6,11.5,25.6,25.6S956.2,230.8,942,230.8z"/>
		<path class="st1" d="M939.9,188.3c-0.3,0-0.8,0-1.2,0c-0.5,0-1,0.1-1.6,0.2c-0.6,0.1-1.2,0.2-1.9,0.5c-0.6,0.3-1.3,0.5-2,0.8
			c-0.7,0.4-1.3,0.8-2,1.2c-0.6,0.5-1.3,1-1.8,1.6c-0.5,0.6-1.1,1.2-1.5,1.9c-0.5,0.7-0.8,1.4-1.2,2.1c-0.3,0.7-0.6,1.4-0.8,2.1
			c-0.2,0.7-0.3,1.3-0.4,1.9c-0.1,0.6-0.1,1.1-0.1,1.6c0,0.5,0,0.9,0.1,1.2c0.1,0.7,0.2,1.1,0.2,1.1s0.1-0.4,0.3-1
			c0.2-0.6,0.5-1.5,1-2.5c0.2-0.5,0.5-1,0.8-1.6c0.3-0.5,0.6-1.1,1-1.7c0.4-0.6,0.7-1.1,1.2-1.7c0.4-0.6,0.9-1.1,1.4-1.6
			c0.5-0.5,1-0.9,1.5-1.4c0.6-0.4,1.1-0.8,1.6-1.2c0.6-0.4,1.1-0.7,1.6-1c0.5-0.3,1.1-0.6,1.6-0.9c0.5-0.3,0.9-0.5,1.4-0.7
			c0.4-0.2,0.8-0.4,1.1-0.5c0.6-0.3,1-0.5,1-0.5S940.6,188.3,939.9,188.3z"/>
	</g>
</g>
<g>
	<circle cx="794.5" cy="205.2" r="48.6"/>
	<g>
		<path class="st2" d="M763.3,223.6h57c3,0,5.4-2.4,5.4-5.4h-62.4V223.6z"/>
		<path class="st2" d="M823.1,211.9l-30.2-13.5l-2.4,2.4l0,0l-2.1,2.1l-3.6,3.6l-2.4,2.4l-2.1,2.1l-2.1-2.1l-6-6l-0.8-0.8l-3.9-3.9
			c-2.3,0.6-4.3,2.6-4.3,5.5v12h62.4C825.6,214.1,824.6,212.6,823.1,211.9z"/>
		<polygon class="st2" points="774.4,200.9 780.4,206.9 782.8,204.5 783.9,203.3 786.4,200.8 786.4,200.8 805.1,181.9 799.1,175.9 
			780.4,194.8 770.9,185.4 764.9,191.5 774.4,200.9 		"/>
	</g>
</g>
</svg>
