<?xml version="1.0" encoding="utf-8"?>
<!-- Generator: Adobe Illustrator 22.0.0, SVG Export Plug-In . SVG Version: 6.00 Build 0)  -->
<svg version="1.1" id="Layer_1" xmlns="http://www.w3.org/2000/svg" xmlns:xlink="http://www.w3.org/1999/xlink" x="0px" y="0px"
	 viewBox="0 0 113.4 113.4" style="enable-background:new 0 0 113.4 113.4;" xml:space="preserve">
<style type="text/css">
	.st0{fill:#ED1C24;}
	.st1{fill:#FFFFFF;}
	.st2{fill:#FFDD00;}
</style>
<g>
	<circle class="st0" cx="351.8" cy="56.7" r="48.6"/>
	<g>
		<path class="st1" d="M321.8,43c0-7.3,5.3-13.1,13.8-13.1c8.5,0,13.9,5.8,13.9,13.1c0,7.2-5.4,12.9-13.9,12.9
			C327.1,55.9,321.8,50.2,321.8,43z M330.4,82.2l32.9-51.5h7.6l-33,51.5H330.4z M340.1,43c0-3.5-2-4.9-4.5-4.9
			c-2.4,0-4.3,1.4-4.3,4.9c0,3.3,1.9,4.7,4.3,4.7C338,47.7,340.1,46.3,340.1,43z M351.7,70.2c0-7.3,5.3-13.1,13.8-13.1
			s13.8,5.8,13.8,13.1c0,7.2-5.4,12.9-13.8,12.9S351.7,77.4,351.7,70.2z M370,70.2c0-3.5-2-4.9-4.5-4.9s-4.4,1.4-4.4,4.9
			c0,3.4,1.9,4.7,4.4,4.7S370,73.6,370,70.2z"/>
	</g>
</g>
<g>
	<circle cx="499.4" cy="56.7" r="48.6"/>
	<g>
		<path class="st2" d="M478.6,70.1l-4.7-7.8l-4.7,7.8h-9.1l8.6-13.1l-8-12.5h9.1l4.1,7.3l4.1-7.3h9.2l-8,12.4l8.6,13.2H478.6z"/>
		<path class="st2" d="M488.7,70.1V44.4h7.8v13.7l8.9-13.7h8v25.6h-7.8V55.5l-9.5,14.5H488.7z"/>
		<path class="st2" d="M522.7,70.1V51.2h-6.9v-6.8h21.5v6.8h-6.8v18.9H522.7z"/>
	</g>
</g>
<g>
	<circle class="st2" cx="646.9" cy="56.7" r="48.6"/>
	<g>
		<path d="M622.4,70.1l-9.5-13v13h-7.8V44.4h8l8.9,12.1V44.4h7.8v25.6H622.4z"/>
		<path d="M633.6,70.1V44.4h19.4v6.8h-11.7v2.5h11.4v6.8h-11.4v2.8h11.7v6.8H633.6z"/>
		<path d="M675.7,70.1l-3.3-14.5l-3.3,14.5H661l-7.3-25.6h8.7l3.3,15.7l3.9-15.7h5.8l3.9,15.7l3.3-15.7h8.7l-7.3,25.6H675.7z"/>
	</g>
</g>
<g>
	<path d="M-34.6,38c0-4.1-2.7-7.3-6.5-8.2l6.4-10.1h-11.4l-1.6,2.5c-1.6-1.8-3.9-2.8-6.7-2.8c-1.2,0-2.3,0.2-3.3,0.6
		c-8.5-7.4-19.7-12-31.9-12c-12,0-23,4.4-31.5,11.6h-10.1l-15.9,15.6l10.2,10.6c-0.8,3.5-1.2,7.1-1.2,10.8
		c0,26.8,21.8,48.6,48.6,48.6c26.8,0,48.6-21.8,48.6-48.6c0-3.5-0.4-7-1.1-10.3C-37.8,45.8-34.6,42.4-34.6,38z"/>
	<g>
		<polygon class="st2" points="-142,35.4 -136.6,41.1 -131.1,35.7 -131.1,55.4 -121.4,55.4 -121.4,23.4 -129.8,23.4 		"/>
		<path class="st2" d="M-103.8,22.9c-9.6,0-14.2,7.8-14.2,16.5s4.7,16.6,14.2,16.6c9.6,0,14.2-7.9,14.2-16.6S-94.2,22.9-103.8,22.9z
			 M-103.8,47.4c-3.1,0-4.5-2.6-4.5-8c0-5.4,1.4-8,4.5-8c3.1,0,4.5,2.5,4.5,8C-99.3,44.8-100.7,47.4-103.8,47.4z"/>
		<path class="st2" d="M-73.6,22.9c-9.6,0-14.2,7.8-14.2,16.5S-83.2,56-73.6,56c9.6,0,14.2-7.9,14.2-16.6S-64,22.9-73.6,22.9z
			 M-73.6,47.4c-3.1,0-4.5-2.6-4.5-8c0-5.4,1.4-8,4.5-8c3.1,0,4.5,2.5,4.5,8C-69.1,44.8-70.5,47.4-73.6,47.4z"/>
		<path class="st2" d="M-49.2,27.9c0-2.7-2-4.8-5.1-4.8c-3.1,0-5.1,2.1-5.1,4.8c0,2.7,2,4.8,5.1,4.8C-51.3,32.7-49.2,30.6-49.2,27.9
			z M-56,27.9c0-1.3,0.7-1.8,1.6-1.8c0.9,0,1.7,0.5,1.7,1.8c0,1.2-0.7,1.7-1.7,1.7C-55.3,29.7-56,29.2-56,27.9z"/>
		<polygon class="st2" points="-44.1,23.4 -56.3,42.5 -53.5,42.5 -41.3,23.4 		"/>
		<path class="st2" d="M-43.3,33.2c-3.1,0-5.1,2.1-5.1,4.8c0,2.7,2,4.8,5.1,4.8c3.1,0,5.1-2.1,5.1-4.8
			C-38.2,35.3-40.2,33.2-43.3,33.2z M-43.3,39.8c-0.9,0-1.6-0.5-1.6-1.7c0-1.3,0.7-1.8,1.6-1.8c0.9,0,1.7,0.5,1.7,1.8
			C-41.7,39.3-42.4,39.8-43.3,39.8z"/>
	</g>
	<g>
		<g>
			<path class="st1" d="M-108.8,62v1.4h-2.6v5.1h-1.8V62H-108.8z"/>
			<path class="st1" d="M-104.1,68.5l-0.3-1.2h-2.1l-0.3,1.2h-1.9l2.1-6.5h2.3l2.1,6.5H-104.1z M-104.8,65.9l-0.3-1.1
				c-0.1-0.2-0.1-0.5-0.2-0.9c-0.1-0.4-0.2-0.6-0.2-0.8c0,0.2-0.1,0.4-0.2,0.7c-0.1,0.3-0.3,1-0.5,2H-104.8z"/>
			<path class="st1" d="M-97.1,64.1c0,0.7-0.2,1.3-0.6,1.7c-0.4,0.4-1,0.6-1.8,0.6h-0.5v2.1h-1.7V62h2.2c0.8,0,1.4,0.2,1.8,0.5
				C-97.3,62.9-97.1,63.4-97.1,64.1z M-100,64.9h0.3c0.3,0,0.5-0.1,0.6-0.2s0.2-0.4,0.2-0.6c0-0.4-0.2-0.7-0.7-0.7h-0.5V64.9z"/>
			<path class="st1" d="M-92.3,68.5l-0.3-1.2h-2.1l-0.3,1.2H-97l2.1-6.5h2.3l2.1,6.5H-92.3z M-93,65.9l-0.3-1.1
				c-0.1-0.2-0.1-0.5-0.2-0.9c-0.1-0.4-0.2-0.6-0.2-0.8c0,0.2-0.1,0.4-0.2,0.7c-0.1,0.3-0.3,1-0.5,2H-93z"/>
			<path class="st1" d="M-84.4,68.5h-1.8v-2.6h-2v2.6h-1.8V62h1.8v2.4h2V62h1.8V68.5z"/>
			<path class="st1" d="M-80.3,68.5h-1.7v-5h-1.6V62h4.9v1.4h-1.6V68.5z"/>
			<path class="st1" d="M-78.1,62h1.6v2.8c0,0.3,0,0.9-0.1,1.8h0L-74,62h2.2v6.5h-1.5v-2.7c0-0.4,0-1,0.1-1.8h0l-2.6,4.5h-2.2V62z"
				/>
			<path class="st1" d="M-68.2,66.2l-1.3,2.4h-2l1.8-2.8c-0.3-0.2-0.6-0.4-0.8-0.7c-0.2-0.3-0.3-0.6-0.3-1c0-1.3,0.9-1.9,2.6-1.9
				h2.1v6.5h-1.7v-2.4H-68.2z M-67.6,63.4H-68c-0.3,0-0.5,0.1-0.7,0.2c-0.2,0.1-0.2,0.3-0.2,0.5c0,0.3,0.1,0.5,0.2,0.6
				s0.4,0.2,0.7,0.2h0.3V63.4z"/>
			<path class="st1" d="M-120.3,79.4h-1.8v-5h-1.8v5h-1.8v-6.5h5.3V79.4z"/>
			<path class="st1" d="M-113.1,76.1c0,1.1-0.3,1.9-0.8,2.5c-0.5,0.6-1.3,0.8-2.3,0.8c-1,0-1.8-0.3-2.3-0.9
				c-0.5-0.6-0.8-1.4-0.8-2.5c0-1.1,0.3-1.9,0.8-2.5c0.5-0.6,1.3-0.9,2.3-0.9c1,0,1.8,0.3,2.3,0.8C-113.3,74.2-113.1,75-113.1,76.1z
				 M-117.5,76.1c0,1.3,0.4,1.9,1.3,1.9c0.4,0,0.8-0.2,1-0.5s0.3-0.8,0.3-1.4c0-0.6-0.1-1.1-0.3-1.4c-0.2-0.3-0.5-0.5-1-0.5
				C-117.1,74.2-117.5,74.9-117.5,76.1z"/>
			<path class="st1" d="M-105.6,81.4h-1.7v-2h-3.8v2h-1.7v-3.4h0.5c0.4-0.7,0.7-1.4,1-2.3c0.3-0.9,0.4-1.8,0.5-2.8h4.3v5h0.9V81.4z
				 M-108.3,77.9v-3.6h-1.2c-0.1,1.3-0.5,2.5-1,3.6H-108.3z"/>
			<path class="st1" d="M-99.5,79.4h-1.8v-5h-1.2c-0.1,0.7-0.2,1.5-0.3,2.2c-0.1,0.8-0.2,1.3-0.3,1.6c-0.1,0.3-0.2,0.6-0.4,0.7
				c-0.2,0.2-0.4,0.3-0.6,0.4c-0.2,0.1-0.5,0.1-0.8,0.1c-0.3,0-0.5,0-0.7-0.1V78c0.2,0.1,0.3,0.1,0.4,0.1c0.2,0,0.3-0.1,0.4-0.2
				c0.1-0.1,0.2-0.3,0.2-0.7c0.1-0.3,0.2-0.9,0.3-1.7s0.2-1.7,0.3-2.6h4.5V79.4z"/>
			<path class="st1" d="M-98.3,72.9h1.6v2.8c0,0.3,0,0.9-0.1,1.8h0l2.6-4.5h2.2v6.5h-1.5v-2.7c0-0.4,0-1,0.1-1.8h0l-2.6,4.5h-2.2
				V72.9z"/>
			<path class="st1" d="M-85.3,79.4h-1.8v-2.6h-2v2.6h-1.8v-6.5h1.8v2.4h2v-2.4h1.8V79.4z"/>
			<path class="st1" d="M-78.6,79.4h-1.8v-2.6h-2v2.6h-1.8v-6.5h1.8v2.4h2v-2.4h1.8V79.4z"/>
			<path class="st1" d="M-71.4,76.1c0,1.1-0.3,1.9-0.8,2.5c-0.5,0.6-1.3,0.8-2.3,0.8c-1,0-1.8-0.3-2.3-0.9c-0.5-0.6-0.8-1.4-0.8-2.5
				c0-1.1,0.3-1.9,0.8-2.5c0.5-0.6,1.3-0.9,2.3-0.9c1,0,1.8,0.3,2.3,0.8C-71.7,74.2-71.4,75-71.4,76.1z M-75.8,76.1
				c0,1.3,0.4,1.9,1.3,1.9c0.4,0,0.8-0.2,1-0.5s0.3-0.8,0.3-1.4c0-0.6-0.1-1.1-0.3-1.4c-0.2-0.3-0.5-0.5-1-0.5
				C-75.4,74.2-75.8,74.9-75.8,76.1z"/>
			<path class="st1" d="M-67.6,74.3c-0.4,0-0.7,0.2-1,0.5c-0.2,0.3-0.3,0.8-0.3,1.4c0,1.2,0.5,1.9,1.4,1.9c0.3,0,0.6,0,0.8-0.1
				c0.3-0.1,0.5-0.2,0.8-0.3v1.5c-0.5,0.2-1.2,0.4-1.8,0.4c-1,0-1.7-0.3-2.2-0.8c-0.5-0.6-0.8-1.4-0.8-2.5c0-0.7,0.1-1.3,0.4-1.8
				s0.6-0.9,1.1-1.2c0.5-0.3,1-0.4,1.7-0.4c0.7,0,1.4,0.2,2,0.5l-0.5,1.4c-0.2-0.1-0.5-0.2-0.7-0.3C-67,74.3-67.3,74.3-67.6,74.3z"
				/>
			<path class="st1" d="M-61.9,79.4h-1.7v-5h-1.6v-1.4h4.9v1.4h-1.6V79.4z"/>
			<path class="st1" d="M-59.7,72.9h1.6v2.8c0,0.3,0,0.9-0.1,1.8h0l2.6-4.5h2.2v6.5H-55v-2.7c0-0.4,0-1,0.1-1.8h0l-2.6,4.5h-2.2
				V72.9z"/>
			<path class="st1" d="M-104.2,90.3h-1.7v-5h-1.6v-1.4h4.9v1.4h-1.6V90.3z"/>
			<path class="st1" d="M-95.8,87c0,1.1-0.3,1.9-0.8,2.5c-0.5,0.6-1.3,0.8-2.3,0.8c-1,0-1.8-0.3-2.3-0.9c-0.5-0.6-0.8-1.4-0.8-2.5
				c0-1.1,0.3-1.9,0.8-2.5c0.5-0.6,1.3-0.9,2.3-0.9c1,0,1.8,0.3,2.3,0.8C-96.1,85.1-95.8,85.9-95.8,87z M-100.3,87
				c0,1.3,0.4,1.9,1.3,1.9c0.4,0,0.8-0.2,1-0.5s0.3-0.8,0.3-1.4c0-0.6-0.1-1.1-0.3-1.4c-0.2-0.3-0.5-0.5-1-0.5
				C-99.9,85.1-100.3,85.7-100.3,87z"/>
			<path class="st1" d="M-94.9,83.8h2.3c0.9,0,1.5,0.1,2,0.4c0.4,0.3,0.6,0.7,0.6,1.2c0,0.4-0.1,0.7-0.3,0.9
				c-0.2,0.3-0.4,0.4-0.7,0.5v0c0.4,0.1,0.7,0.3,0.9,0.5c0.2,0.2,0.3,0.6,0.3,1c0,0.6-0.2,1-0.7,1.4c-0.4,0.3-1,0.5-1.8,0.5h-2.5
				V83.8z M-93.2,86.3h0.5c0.3,0,0.4-0.1,0.6-0.2c0.1-0.1,0.2-0.3,0.2-0.5c0-0.4-0.3-0.5-0.8-0.5h-0.5V86.3z M-93.2,87.5v1.4h0.6
				c0.5,0,0.8-0.2,0.8-0.7c0-0.2-0.1-0.4-0.2-0.5c-0.1-0.1-0.4-0.2-0.6-0.2H-93.2z"/>
			<path class="st1" d="M-85.1,90.3l-0.3-1.2h-2.1l-0.3,1.2h-1.9l2.1-6.5h2.3l2.1,6.5H-85.1z M-85.7,87.6l-0.3-1.1
				c-0.1-0.2-0.1-0.5-0.2-0.9s-0.2-0.6-0.2-0.8c0,0.2-0.1,0.4-0.2,0.7s-0.3,1-0.5,2H-85.7z"/>
			<path class="st1" d="M-78,85.8c0,0.7-0.2,1.3-0.6,1.7c-0.4,0.4-1,0.6-1.8,0.6h-0.5v2.1h-1.7v-6.5h2.2c0.8,0,1.4,0.2,1.8,0.5
				C-78.2,84.7-78,85.2-78,85.8z M-80.9,86.7h0.3c0.3,0,0.5-0.1,0.6-0.2s0.2-0.4,0.2-0.6c0-0.4-0.2-0.7-0.7-0.7h-0.5V86.7z"/>
			<path class="st1" d="M-73.2,90.3l-0.3-1.2h-2.1l-0.3,1.2h-1.9l2.1-6.5h2.3l2.1,6.5H-73.2z M-73.9,87.6l-0.3-1.1
				c-0.1-0.2-0.1-0.5-0.2-0.9s-0.2-0.6-0.2-0.8c0,0.2-0.1,0.4-0.2,0.7s-0.3,1-0.5,2H-73.9z"/>
		</g>
	</g>
</g>
<g>
	<path d="M113,38c0-4.1-2.7-7.3-6.5-8.2l6.4-10.1h-11.4l-1.6,2.5c-1.6-1.8-3.9-2.8-6.7-2.8c-1.2,0-2.3,0.2-3.3,0.6
		c-8.5-7.4-19.7-12-31.9-12c-12,0-23,4.4-31.5,11.6H16.3L0.4,35.3l10.2,10.6C9.8,49.4,9.4,53,9.4,56.7c0,26.8,21.8,48.6,48.6,48.6
		s48.6-21.8,48.6-48.6c0-3.5-0.4-7-1.1-10.3C109.8,45.8,113,42.4,113,38z"/>
	<g>
		<polygon class="st2" points="5.5,35.4 11,41.1 16.4,35.7 16.4,55.4 26.1,55.4 26.1,23.4 17.8,23.4 		"/>
		<path class="st2" d="M43.8,22.9c-9.6,0-14.2,7.8-14.2,16.5S34.2,56,43.8,56C53.4,56,58,48.1,58,39.4S53.4,22.9,43.8,22.9z
			 M43.8,47.4c-3.1,0-4.5-2.6-4.5-8c0-5.4,1.4-8,4.5-8c3.1,0,4.5,2.5,4.5,8C48.3,44.8,46.9,47.4,43.8,47.4z"/>
		<path class="st2" d="M74,22.9c-9.6,0-14.2,7.8-14.2,16.5S64.4,56,74,56c9.6,0,14.2-7.9,14.2-16.6S83.5,22.9,74,22.9z M74,47.4
			c-3.1,0-4.5-2.6-4.5-8c0-5.4,1.4-8,4.5-8c3.1,0,4.5,2.5,4.5,8C78.4,44.8,77,47.4,74,47.4z"/>
		<path class="st2" d="M98.3,27.9c0-2.7-2-4.8-5.1-4.8c-3.1,0-5.1,2.1-5.1,4.8c0,2.7,2,4.8,5.1,4.8C96.3,32.7,98.3,30.6,98.3,27.9z
			 M91.6,27.9c0-1.3,0.7-1.8,1.6-1.8c0.9,0,1.7,0.5,1.7,1.8c0,1.2-0.7,1.7-1.7,1.7C92.3,29.7,91.6,29.2,91.6,27.9z"/>
		<path class="st2" d="M104.2,33.2c-3.1,0-5.1,2.1-5.1,4.8c0,2.7,2,4.8,5.1,4.8c3.1,0,5.1-2.1,5.1-4.8
			C109.3,35.3,107.3,33.2,104.2,33.2z M104.2,39.8c-0.9,0-1.6-0.5-1.6-1.7c0-1.3,0.7-1.8,1.6-1.8c0.9,0,1.7,0.5,1.7,1.8
			C105.9,39.3,105.1,39.8,104.2,39.8z"/>
		<polygon class="st2" points="103.4,23.4 91.2,42.5 94,42.5 106.2,23.4 		"/>
	</g>
	<g>
		<g>
			<path class="st1" d="M38.7,62v1.4h-2.6v5.1h-1.8V62H38.7z"/>
			<path class="st1" d="M43.4,68.5l-0.3-1.2H41l-0.3,1.2h-1.9l2.1-6.5h2.3l2.1,6.5H43.4z M42.7,65.9l-0.3-1.1
				c-0.1-0.2-0.1-0.5-0.2-0.9c-0.1-0.4-0.2-0.6-0.2-0.8c0,0.2-0.1,0.4-0.2,0.7c-0.1,0.3-0.3,1-0.5,2H42.7z"/>
			<path class="st1" d="M50.5,64.1c0,0.7-0.2,1.3-0.6,1.7c-0.4,0.4-1,0.6-1.8,0.6h-0.5v2.1h-1.7V62H48c0.8,0,1.4,0.2,1.8,0.5
				C50.3,62.9,50.5,63.4,50.5,64.1z M47.5,64.9h0.3c0.3,0,0.5-0.1,0.6-0.2c0.2-0.1,0.2-0.4,0.2-0.6c0-0.4-0.2-0.7-0.7-0.7h-0.5V64.9
				z"/>
			<path class="st1" d="M55.3,68.5l-0.3-1.2h-2.1l-0.3,1.2h-1.9l2.1-6.5H55l2.1,6.5H55.3z M54.6,65.9l-0.3-1.1
				c-0.1-0.2-0.1-0.5-0.2-0.9c-0.1-0.4-0.2-0.6-0.2-0.8c0,0.2-0.1,0.4-0.2,0.7c-0.1,0.3-0.3,1-0.5,2H54.6z"/>
			<path class="st1" d="M63.2,68.5h-1.8v-2.6h-2v2.6h-1.8V62h1.8v2.4h2V62h1.8V68.5z"/>
			<path class="st1" d="M67.2,68.5h-1.7v-5h-1.6V62h4.9v1.4h-1.6V68.5z"/>
			<path class="st1" d="M69.5,62H71v2.8c0,0.3,0,0.9-0.1,1.8h0l2.6-4.5h2.2v6.5h-1.5v-2.7c0-0.4,0-1,0.1-1.8h0l-2.6,4.5h-2.2V62z"/>
			<path class="st1" d="M79.4,66.2l-1.3,2.4h-2l1.8-2.8c-0.3-0.2-0.6-0.4-0.8-0.7s-0.3-0.6-0.3-1c0-1.3,0.9-1.9,2.6-1.9h2.1v6.5
				h-1.7v-2.4H79.4z M79.9,63.4h-0.4c-0.3,0-0.5,0.1-0.7,0.2c-0.2,0.1-0.2,0.3-0.2,0.5c0,0.3,0.1,0.5,0.2,0.6
				c0.2,0.1,0.4,0.2,0.7,0.2h0.3V63.4z"/>
			<path class="st1" d="M40.9,79.4h-2L37,76.1v3.3h-1.8v-6.5H37V76l1.8-3.1h1.9l-2,3.1L40.9,79.4z"/>
			<path class="st1" d="M45.3,79.4L45,78.2h-2.1l-0.3,1.2h-1.9l2.1-6.5H45l2.1,6.5H45.3z M44.6,76.7l-0.3-1.1
				c-0.1-0.2-0.1-0.5-0.2-0.9s-0.2-0.6-0.2-0.8c0,0.2-0.1,0.4-0.2,0.7s-0.3,1-0.5,2H44.6z"/>
			<path class="st1" d="M53.1,79.4h-1.8V77c-0.7,0.3-1.4,0.4-2,0.4c-0.6,0-1.1-0.2-1.4-0.5s-0.5-0.7-0.5-1.3v-2.7h1.8v2.2
				c0,0.3,0.1,0.5,0.2,0.7s0.3,0.2,0.6,0.2c0.4,0,0.8-0.1,1.4-0.3v-2.7h1.8V79.4z"/>
			<path class="st1" d="M58.1,79.4h-3.8v-6.5h3.8v1.4h-2.1v1H58v1.4h-1.9V78h2.1V79.4z"/>
			<path class="st1" d="M61.9,74.3c-0.4,0-0.7,0.2-1,0.5c-0.2,0.3-0.3,0.8-0.3,1.4c0,1.2,0.5,1.9,1.4,1.9c0.3,0,0.6,0,0.8-0.1
				c0.3-0.1,0.5-0.2,0.8-0.3v1.5c-0.5,0.2-1.1,0.4-1.8,0.4c-1,0-1.7-0.3-2.2-0.8c-0.5-0.6-0.8-1.4-0.8-2.5c0-0.7,0.1-1.3,0.4-1.8
				c0.3-0.5,0.6-0.9,1.1-1.2c0.5-0.3,1-0.4,1.7-0.4c0.7,0,1.4,0.2,2,0.5l-0.5,1.4c-0.2-0.1-0.5-0.2-0.7-0.3
				C62.5,74.3,62.2,74.3,61.9,74.3z"/>
			<path class="st1" d="M67.6,79.4h-1.7v-5h-1.6v-1.4h4.9v1.4h-1.6V79.4z"/>
			<path class="st1" d="M69.8,72.9h2.3c0.9,0,1.5,0.1,2,0.4c0.4,0.3,0.6,0.7,0.6,1.2c0,0.4-0.1,0.7-0.3,0.9
				c-0.2,0.3-0.4,0.4-0.7,0.5v0c0.4,0.1,0.7,0.3,0.9,0.5c0.2,0.2,0.3,0.6,0.3,1c0,0.6-0.2,1-0.7,1.4c-0.4,0.3-1,0.5-1.8,0.5h-2.5
				V72.9z M71.6,75.4h0.5c0.3,0,0.4-0.1,0.6-0.2c0.1-0.1,0.2-0.3,0.2-0.5c0-0.4-0.3-0.5-0.8-0.5h-0.5V75.4z M71.6,76.7V78h0.6
				c0.5,0,0.8-0.2,0.8-0.7c0-0.2-0.1-0.4-0.2-0.5c-0.1-0.1-0.4-0.2-0.6-0.2H71.6z"/>
			<path class="st1" d="M79.7,79.4l-0.3-1.2h-2.1l-0.3,1.2H75l2.1-6.5h2.3l2.1,6.5H79.7z M79,76.7l-0.3-1.1
				c-0.1-0.2-0.1-0.5-0.2-0.9s-0.2-0.6-0.2-0.8c0,0.2-0.1,0.4-0.2,0.7s-0.3,1-0.5,2H79z"/>
			<path class="st1" d="M43.4,90.3h-1.7v-5h-1.6v-1.4H45v1.4h-1.6V90.3z"/>
			<path class="st1" d="M51.7,87c0,1.1-0.3,1.9-0.8,2.5c-0.5,0.6-1.3,0.8-2.3,0.8c-1,0-1.8-0.3-2.3-0.9c-0.5-0.6-0.8-1.4-0.8-2.5
				c0-1.1,0.3-1.9,0.8-2.5s1.3-0.9,2.3-0.9c1,0,1.8,0.3,2.3,0.8C51.5,85.1,51.7,85.9,51.7,87z M47.3,87c0,1.3,0.4,1.9,1.3,1.9
				c0.4,0,0.8-0.2,1-0.5s0.3-0.8,0.3-1.4c0-0.6-0.1-1.1-0.3-1.4c-0.2-0.3-0.5-0.5-1-0.5C47.7,85.1,47.3,85.7,47.3,87z"/>
			<path class="st1" d="M52.7,83.8h2.3c0.9,0,1.5,0.1,2,0.4c0.4,0.3,0.6,0.7,0.6,1.2c0,0.4-0.1,0.7-0.3,0.9
				c-0.2,0.3-0.4,0.4-0.7,0.5v0c0.4,0.1,0.7,0.3,0.9,0.5c0.2,0.2,0.3,0.6,0.3,1c0,0.6-0.2,1-0.7,1.4c-0.4,0.3-1,0.5-1.8,0.5h-2.5
				V83.8z M54.4,86.3h0.5c0.3,0,0.4-0.1,0.6-0.2c0.1-0.1,0.2-0.3,0.2-0.5c0-0.4-0.3-0.5-0.8-0.5h-0.5V86.3z M54.4,87.5v1.4H55
				c0.5,0,0.8-0.2,0.8-0.7c0-0.2-0.1-0.4-0.2-0.5c-0.1-0.1-0.4-0.2-0.6-0.2H54.4z"/>
			<path class="st1" d="M62.5,90.3L62.2,89h-2.1l-0.3,1.2h-1.9l2.1-6.5h2.3l2.1,6.5H62.5z M61.8,87.6l-0.3-1.1
				c-0.1-0.2-0.1-0.5-0.2-0.9s-0.2-0.6-0.2-0.8c0,0.2-0.1,0.4-0.2,0.7s-0.3,1-0.5,2H61.8z"/>
			<path class="st1" d="M69.6,85.8c0,0.7-0.2,1.3-0.6,1.7c-0.4,0.4-1,0.6-1.8,0.6h-0.5v2.1h-1.7v-6.5h2.2c0.8,0,1.4,0.2,1.8,0.5
				C69.4,84.7,69.6,85.2,69.6,85.8z M66.6,86.7H67c0.3,0,0.5-0.1,0.6-0.2c0.2-0.1,0.2-0.4,0.2-0.6c0-0.4-0.2-0.7-0.7-0.7h-0.5V86.7z
				"/>
			<path class="st1" d="M74.4,90.3L74,89h-2.1l-0.3,1.2h-1.9l2.1-6.5h2.3l2.1,6.5H74.4z M73.7,87.6l-0.3-1.1
				c-0.1-0.2-0.1-0.5-0.2-0.9S73,85,73,84.8c0,0.2-0.1,0.4-0.2,0.7s-0.3,1-0.5,2H73.7z"/>
		</g>
	</g>
</g>
<g>
	<path d="M260.5,38c0-4.1-2.7-7.3-6.5-8.2l6.4-10.1H249l-1.6,2.5c-1.6-1.8-3.9-2.8-6.7-2.8c-1.2,0-2.3,0.2-3.3,0.6
		c-8.5-7.4-19.7-12-31.9-12c-12,0-23,4.4-31.5,11.6h-10.1L148,35.3l10.2,10.6c-0.8,3.5-1.2,7.1-1.2,10.8c0,26.8,21.8,48.6,48.6,48.6
		c26.8,0,48.6-21.8,48.6-48.6c0-3.5-0.4-7-1.1-10.3C257.4,45.8,260.5,42.4,260.5,38z"/>
	<g>
		<g>
			<path class="st2" d="M164,55.4V35.7l-5.4,5.4l-5.5-5.7l12.2-12h8.4v32H164z"/>
			<path class="st2" d="M177.1,39.4c0-8.7,4.7-16.5,14.2-16.5c9.6,0,14.2,7.8,14.2,16.5S200.9,56,191.4,56
				C181.8,56,177.1,48.1,177.1,39.4z M195.8,39.4c0-5.4-1.4-8-4.5-8c-3.1,0-4.5,2.5-4.5,8c0,5.4,1.4,8,4.5,8
				C194.4,47.4,195.8,44.8,195.8,39.4z"/>
			<path class="st2" d="M207.3,39.4c0-8.7,4.7-16.5,14.2-16.5c9.6,0,14.2,7.8,14.2,16.5S231.1,56,221.5,56
				C212,56,207.3,48.1,207.3,39.4z M226,39.4c0-5.4-1.4-8-4.5-8c-3.1,0-4.5,2.5-4.5,8c0,5.4,1.4,8,4.5,8
				C224.6,47.4,226,44.8,226,39.4z"/>
		</g>
		<path class="st2" d="M235.6,27.9c0-2.7,2-4.8,5.1-4.8c3.1,0,5.1,2.1,5.1,4.8c0,2.7-2,4.8-5.1,4.8
			C237.6,32.7,235.6,30.6,235.6,27.9z M238.8,42.5L251,23.4h2.8l-12.2,19.1H238.8z M242.4,27.9c0-1.3-0.7-1.8-1.7-1.8
			c-0.9,0-1.6,0.5-1.6,1.8c0,1.2,0.7,1.7,1.6,1.7C241.6,29.7,242.4,29.2,242.4,27.9z M246.7,38c0-2.7,2-4.8,5.1-4.8
			c3.1,0,5.1,2.1,5.1,4.8c0,2.7-2,4.8-5.1,4.8C248.7,42.8,246.7,40.7,246.7,38z M253.4,38c0-1.3-0.7-1.8-1.7-1.8
			c-0.9,0-1.6,0.5-1.6,1.8c0,1.3,0.7,1.7,1.6,1.7C252.7,39.8,253.4,39.3,253.4,38z"/>
	</g>
	<g>
		<g>
			<path class="st1" d="M186.3,62v1.4h-2.6v5.1H182V62H186.3z"/>
			<path class="st1" d="M191,68.5l-0.3-1.2h-2.1l-0.3,1.2h-1.9l2.1-6.5h2.3l2.1,6.5H191z M190.3,65.9l-0.3-1.1
				c-0.1-0.2-0.1-0.5-0.2-0.9c-0.1-0.4-0.2-0.6-0.2-0.8c0,0.2-0.1,0.4-0.2,0.7c-0.1,0.3-0.3,1-0.5,2H190.3z"/>
			<path class="st1" d="M198.1,64.1c0,0.7-0.2,1.3-0.6,1.7c-0.4,0.4-1,0.6-1.8,0.6h-0.5v2.1h-1.7V62h2.2c0.8,0,1.4,0.2,1.8,0.5
				C197.8,62.9,198.1,63.4,198.1,64.1z M195.1,64.9h0.3c0.3,0,0.5-0.1,0.6-0.2c0.2-0.1,0.2-0.4,0.2-0.6c0-0.4-0.2-0.7-0.7-0.7h-0.5
				V64.9z"/>
			<path class="st1" d="M202.8,68.5l-0.3-1.2h-2.1l-0.3,1.2h-1.9l2.1-6.5h2.3l2.1,6.5H202.8z M202.1,65.9l-0.3-1.1
				c-0.1-0.2-0.1-0.5-0.2-0.9c-0.1-0.4-0.2-0.6-0.2-0.8c0,0.2-0.1,0.4-0.2,0.7c-0.1,0.3-0.3,1-0.5,2H202.1z"/>
			<path class="st1" d="M210.8,68.5H209v-2.6h-2v2.6h-1.8V62h1.8v2.4h2V62h1.8V68.5z"/>
			<path class="st1" d="M214.8,68.5H213v-5h-1.6V62h4.9v1.4h-1.6V68.5z"/>
			<path class="st1" d="M217,62h1.6v2.8c0,0.3,0,0.9-0.1,1.8h0l2.6-4.5h2.2v6.5h-1.5v-2.7c0-0.4,0-1,0.1-1.8h0l-2.6,4.5H217V62z"/>
			<path class="st1" d="M227,66.2l-1.3,2.4h-2l1.8-2.8c-0.3-0.2-0.6-0.4-0.8-0.7s-0.3-0.6-0.3-1c0-1.3,0.9-1.9,2.6-1.9h2.1v6.5h-1.7
				v-2.4H227z M227.5,63.4h-0.4c-0.3,0-0.5,0.1-0.7,0.2c-0.2,0.1-0.2,0.3-0.2,0.5c0,0.3,0.1,0.5,0.2,0.6c0.2,0.1,0.4,0.2,0.7,0.2
				h0.3V63.4z"/>
			<path class="st1" d="M182.3,72.9h2.3c0.9,0,1.5,0.1,2,0.4c0.4,0.3,0.6,0.7,0.6,1.2c0,0.4-0.1,0.7-0.3,0.9
				c-0.2,0.3-0.4,0.4-0.7,0.5v0c0.4,0.1,0.7,0.3,0.9,0.5c0.2,0.2,0.3,0.6,0.3,1c0,0.6-0.2,1-0.7,1.4c-0.4,0.3-1,0.5-1.8,0.5h-2.5
				V72.9z M184,75.4h0.5c0.3,0,0.4-0.1,0.6-0.2c0.1-0.1,0.2-0.3,0.2-0.5c0-0.4-0.3-0.5-0.8-0.5H184V75.4z M184,76.7V78h0.6
				c0.5,0,0.8-0.2,0.8-0.7c0-0.2-0.1-0.4-0.2-0.5c-0.1-0.1-0.4-0.2-0.6-0.2H184z"/>
			<path class="st1" d="M194.2,76.1c0,1.1-0.3,1.9-0.8,2.5c-0.5,0.6-1.3,0.8-2.3,0.8c-1,0-1.8-0.3-2.3-0.9c-0.5-0.6-0.8-1.4-0.8-2.5
				c0-1.1,0.3-1.9,0.8-2.5s1.3-0.9,2.3-0.9c1,0,1.8,0.3,2.3,0.8C193.9,74.2,194.2,75,194.2,76.1z M189.7,76.1c0,1.3,0.4,1.9,1.3,1.9
				c0.4,0,0.8-0.2,1-0.5s0.3-0.8,0.3-1.4c0-0.6-0.1-1.1-0.3-1.4c-0.2-0.3-0.5-0.5-1-0.5C190.2,74.2,189.7,74.9,189.7,76.1z"/>
			<path class="st1" d="M199.8,74.4c0,0.9-0.5,1.4-1.5,1.5v0c0.6,0,1,0.2,1.3,0.5c0.3,0.3,0.4,0.6,0.4,1.1c0,0.4-0.1,0.7-0.3,1
				s-0.5,0.5-0.9,0.7c-0.4,0.2-0.9,0.2-1.5,0.2c-1,0-1.9-0.1-2.5-0.3v-1.5c0.3,0.1,0.6,0.2,1,0.3s0.7,0.1,1.1,0.1
				c0.5,0,0.9-0.1,1.1-0.2c0.2-0.1,0.3-0.3,0.3-0.5c0-0.4-0.5-0.6-1.5-0.6H196v-1.4h0.7c0.3,0,0.6,0,0.8-0.1c0.2,0,0.3-0.1,0.4-0.2
				c0.1-0.1,0.1-0.2,0.1-0.3c0-0.3-0.3-0.5-0.9-0.5c-0.6,0-1.1,0.2-1.5,0.5l-0.7-1.2c0.4-0.2,0.8-0.4,1.2-0.5
				c0.4-0.1,0.9-0.2,1.4-0.2c0.7,0,1.3,0.1,1.7,0.4C199.6,73.6,199.8,73.9,199.8,74.4z"/>
			<path class="st1" d="M200.9,72.9h2.3c0.9,0,1.5,0.1,2,0.4c0.4,0.3,0.6,0.7,0.6,1.2c0,0.4-0.1,0.7-0.3,0.9
				c-0.2,0.3-0.4,0.4-0.7,0.5v0c0.4,0.1,0.7,0.3,0.9,0.5c0.2,0.2,0.3,0.6,0.3,1c0,0.6-0.2,1-0.7,1.4c-0.4,0.3-1,0.5-1.8,0.5h-2.5
				V72.9z M202.7,75.4h0.5c0.3,0,0.4-0.1,0.6-0.2c0.1-0.1,0.2-0.3,0.2-0.5c0-0.4-0.3-0.5-0.8-0.5h-0.5V75.4z M202.7,76.7V78h0.6
				c0.5,0,0.8-0.2,0.8-0.7c0-0.2-0.1-0.4-0.2-0.5c-0.1-0.1-0.4-0.2-0.6-0.2H202.7z"/>
			<path class="st1" d="M211.5,75c0,0.7-0.2,1.3-0.6,1.7c-0.4,0.4-1,0.6-1.8,0.6h-0.5v2.1h-1.7v-6.5h2.2c0.8,0,1.4,0.2,1.8,0.5
				C211.3,73.8,211.5,74.3,211.5,75z M208.6,75.8h0.3c0.3,0,0.5-0.1,0.6-0.2c0.2-0.1,0.2-0.4,0.2-0.6c0-0.4-0.2-0.7-0.7-0.7h-0.5
				V75.8z"/>
			<path class="st1" d="M216.3,79.4l-0.3-1.2h-2.1l-0.3,1.2h-1.9l2.1-6.5h2.3l2.1,6.5H216.3z M215.6,76.7l-0.3-1.1
				c-0.1-0.2-0.1-0.5-0.2-0.9s-0.2-0.6-0.2-0.8c0,0.2-0.1,0.4-0.2,0.7s-0.3,1-0.5,2H215.6z"/>
			<path class="st1" d="M221.5,79.4h-1.7v-5h-1.6v-1.4h4.9v1.4h-1.6V79.4z"/>
			<path class="st1" d="M227.8,79.4l-0.3-1.2h-2.1l-0.3,1.2h-1.9l2.1-6.5h2.3l2.1,6.5H227.8z M227.1,76.7l-0.3-1.1
				c-0.1-0.2-0.1-0.5-0.2-0.9s-0.2-0.6-0.2-0.8c0,0.2-0.1,0.4-0.2,0.7s-0.3,1-0.5,2H227.1z"/>
			<path class="st1" d="M198.5,92.3h-1.7v-2h-3.8v2h-1.7v-3.4h0.5c0.4-0.7,0.7-1.4,1-2.3s0.4-1.8,0.5-2.8h4.3v5h0.9V92.3z
				 M195.9,88.8v-3.6h-1.2c-0.1,1.3-0.5,2.5-1,3.6H195.9z"/>
			<path class="st1" d="M203,90.3h-3.8v-6.5h3.8v1.4h-2.1v1h1.9v1.4h-1.9v1.2h2.1V90.3z"/>
			<path class="st1" d="M209.5,90.3h-1.8v-2.6h-2v2.6h-1.8v-6.5h1.8v2.4h2v-2.4h1.8V90.3z"/>
			<path class="st1" d="M214.5,90.3h-3.8v-6.5h3.8v1.4h-2.1v1h1.9v1.4h-1.9v1.2h2.1V90.3z"/>
			<path class="st1" d="M219.7,83.8v1.4h-2.6v5.1h-1.8v-6.5H219.7z"/>
		</g>
	</g>
</g>
<g>
	<circle cx="794.5" cy="56.7" r="48.6"/>
	<g>
		<circle class="st2" cx="813.7" cy="75.3" r="6.3"/>
		<circle class="st2" cx="779.7" cy="75.3" r="6.3"/>
		<g>
			<path class="st2" d="M781.3,49.2h-0.6V52h0.6c1.1,0,1.7-0.5,1.7-1.5C782.9,49.6,782.4,49.2,781.3,49.2z"/>
			<path class="st2" d="M817.8,43.8h-10.2v-9.5h-43.1v41h5.4c0-5.4,4.4-9.8,9.8-9.8c5.4,0,9.8,4.4,9.8,9.8h14.3
				c0-5.4,4.4-9.8,9.8-9.8c5.4,0,9.8,4.4,9.8,9.8h3.1V59L817.8,43.8z M776.2,49.3h-4v2.3h3.6v2.6h-3.6v4.6H769V46.7h7.2V49.3z
				 M784,58.9l-2.6-4.4h-0.8v4.4h-3.3V46.7h4c3.3,0,5,1.2,5,3.6c0,1.4-0.7,2.5-2.1,3.3l3.5,5.3H784z M795.2,49.3h-3.9v1.9h3.6v2.6
				h-3.6v2.3h3.9v2.7H788V46.7h7.2V49.3z M803.7,49.3h-3.9v1.9h3.6v2.6h-3.6v2.3h3.9v2.7h-7.2V46.7h7.2V49.3z M810.1,59V47.8h5.3
				l6.6,11.2H810.1z"/>
		</g>
	</g>
</g>
<g>
	<circle cx="942" cy="56.7" r="48.6"/>
	<g>
		<path class="st2" d="M917.6,76.8V66.7c0-4.8,6.2-6.7,8.9-2.6v0c0,0,1.6,2.4,5.3,2.5c5.2,0.1,7.5-1.4,10.2-4.7l26.1,11.7
			c1.3,0.6,2.1,1.9,2.2,3.3l0,0H917.6z"/>
		<path class="st2" d="M965.7,83.5h-48.1v-4.6h52.6l0,0C970.3,81.4,968.2,83.5,965.7,83.5z"/>
		<g>
			<path class="st2" d="M923.8,24.1v34.5c1.8,0.3,3.3,1.4,4.3,2.9c0.1,0.2,1.3,1.6,3.7,1.6c0.2,0,0.3,0,0.5,0c4.1,0,5.8-1.2,8.1-4
				V24.1H923.8z M937.3,57.2h-10.7v-6.4h2.3v3.5h2.1v-3.2h2.3v3.2h4V57.2z M937.3,43.9l-3.9,2.3v0.7h3.9v2.9h-10.7v-3.5
				c0-2.9,1.1-4.4,3.2-4.4c1.2,0,2.2,0.6,2.9,1.8l4.7-3.1V43.9z M937.3,40.4h-10.7V34h2.3v3.5h1.7v-3.2h2.3v3.2h2V34h2.4V40.4z
				 M937.3,32.9h-10.7v-6.4h2.3V30h1.7v-3.2h2.3V30h2v-3.5h2.4V32.9z"/>
			<path class="st2" d="M929.9,44.8c-0.7,0-1.1,0.5-1.1,1.5v0.6h2.5v-0.5C931.2,45.4,930.8,44.8,929.9,44.8z"/>
		</g>
	</g>
</g>
<g>
	<circle cx="1237.2" cy="56.7" r="48.6"/>
	<polygon class="st2" points="1239.6,70.3 1269.1,40.5 1259.6,31 1230.1,60.8 1215.2,46.1 1205.7,55.5 1220.6,70.4 1220.6,70.4 
		1230.1,79.9 1233.9,76 1239.6,70.3 	"/>
</g>
<g>
	<circle cx="1089.6" cy="56.7" r="48.6"/>
	<g>
		<path class="st2" d="M1116.1,38.8l-25.6-16.7v3.7v4.9c-15.1,0-27.3,12.2-27.3,27.3v1.8c2.1-8.1,9.5-14.1,18.2-14.1h9v9.8
			L1116.1,38.8z"/>
		<path class="st2" d="M1063.2,74.6l25.6,16.7v-3.7v-4.9c15.1,0,27.3-12.2,27.3-27.3v-1.8c-2.1,8.1-9.5,14.1-18.2,14.1h-9v-9.8
			L1063.2,74.6z"/>
	</g>
</g>
<g>
	<circle cx="56.7" cy="205.2" r="48.6"/>
	<path class="st2" d="M76.6,178.8c-28.3-12.2-47.7,4-47.7,4c1,45.7,27.8,53.4,27.8,53.4s26.8-7.7,27.8-53.4
		C84.5,182.8,81.7,180.8,76.6,178.8z M58.7,213l-3.5,3.5l-2.4,2.4l-5.9-5.9l0,0l-9.2-9.2l5.9-5.9l9.2,9.2l18.3-18.5l5.9,5.9
		L58.7,213L58.7,213z"/>
</g>
<g>
	<circle cx="204.3" cy="205.2" r="48.6"/>
	<path class="st2" d="M230.5,197.9c0-8.1-6.5-14.6-14.6-14.6c-4.8,0-9,2.3-11.6,5.8c-2.7-3.5-6.9-5.8-11.7-5.8
		c-8.1,0-14.6,6.5-14.6,14.6c0,2,0.4,3.9,1.2,5.7l0,0c0,0,1.8,8.1,25.1,27.7c0,0,0,0,0,0c0,0,0,0,0,0c23.2-19.6,25.1-27.7,25.1-27.7
		l0,0C230.1,201.9,230.5,200,230.5,197.9z"/>
</g>
<g>
	<circle cx="-90.9" cy="205.2" r="48.6"/>
	<g>
		<path class="st2" d="M-52.9,198.7c0-1.9-1.5-3.4-3.4-3.4h-6.9h-3.7h-1.9l1.2-6.6c0.6-3.2,0.1-6.4-1.2-9.4l0,0
			c-0.5-1.2-1.8-2-3.1-2h0c-1.9,0-3.4,1.5-3.4,3.4v5.4l-6.4,11.5h-4.2v20l1.9,0l6.9,4.5h4.8h9h1.6c1.9,0,3.4-1.5,3.4-3.4v0
			c0-1.9-1.5-3.4-3.4-3.4h2.1c1.9,0,3.4-1.5,3.4-3.4c0-1.9-1.5-3.4-3.4-3.4h1.8c1.9,0,3.4-1.5,3.4-3.4v0c0-1.9-1.5-3.4-3.4-3.4h1.5
			C-54.4,202.1-52.9,200.6-52.9,198.7z"/>
		<g>
			<path class="st2" d="M-108.3,210.7h-2.5v0.9h2.5c0.3,0,0.5-0.2,0.5-0.4C-107.8,210.8-108.1,210.7-108.3,210.7z"/>
			<path class="st2" d="M-108.1,207.8c0-0.2-0.2-0.4-0.4-0.4h-2.3v0.8h2.3C-108.2,208.1-108.1,208-108.1,207.8z"/>
			<path class="st2" d="M-128.8,197.6v20.1h38.9v-20.1H-128.8z M-118.2,214h-3.8v-7.8l-2.2,2.1l-2.2-2.3l4.9-4.8h3.3V214z
				 M-107.4,214h-6.8v-9.2h6.6c2.1,0,3,1.3,3,2.4s-0.7,1.8-1.6,2.1c1.1,0.2,1.8,1.1,1.8,2.2C-104.4,212.8-105.4,214-107.4,214z
				 M-93.3,214h-3.8v-7.8l-2.2,2.1l-2.2-2.3l4.9-4.8h3.3V214z"/>
		</g>
	</g>
</g>
<g>
	<circle cx="1237.2" cy="205.2" r="48.6"/>
	<path class="st2" d="M1269.8,205.2c0,18-14.6,32.6-32.6,32.6s-32.6-14.6-32.6-32.6s14.6-32.6,32.6-32.6c6.5,0,12.7,1.9,18,5.4
		l-3.6,4.3l16.1,2.7l-5.7-15.3l-3.2,3.9c-6.4-4.4-13.8-6.7-21.6-6.7c-21.1,0-38.3,17.2-38.3,38.3s17.2,38.3,38.3,38.3
		c21.1,0,38.3-17.2,38.3-38.3H1269.8z"/>
	<g>
		<g>
			<path class="st1" d="M1224.1,221.4c0,0.8,0.5,1,1.1,1c0.4,0,0.8-0.1,1.1-0.2V219h2.3v7.7h-2.3v-2.5c-0.6,0.1-1,0.2-1.5,0.2
				c-2.1,0-3.1-1.2-3.1-3V219h2.4V221.4z"/>
			<path class="st1" d="M1235,226.7l-0.3-0.9h-2.8l-0.3,0.9h-2.7l2.9-7.7h2.9l2.9,7.7H1235z M1233.3,221.3l-0.8,2.5h1.5
				L1233.3,221.3z"/>
			<path class="st1" d="M1237.2,222.9c0-2.4,1.8-4,4.3-4c2,0,3.1,1.2,3.5,2.3l-2,0.9c-0.2-0.6-0.8-1.1-1.5-1.1
				c-1.1,0-1.9,0.9-1.9,1.9c0,1.1,0.8,1.9,1.9,1.9c0.7,0,1.3-0.5,1.5-1.1l2,0.9c-0.5,1-1.5,2.3-3.5,2.3
				C1239,226.9,1237.2,225.2,1237.2,222.9z"/>
			<path class="st1" d="M1250.6,226.7l-0.3-0.9h-2.8l-0.3,0.9h-2.7l2.9-7.7h2.9l2.9,7.7H1250.6z M1248.9,221.3l-0.8,2.5h1.5
				L1248.9,221.3z"/>
		</g>
		<g>
			<path class="st2" d="M1215.2,214.7v-6c11.6-8.2,12.7-9.1,12.7-11c0-1.2-1.3-2-2.9-2c-2.7,0-4.8,1-6.7,2.6l-4.2-5.1
				c2.9-3.1,7.2-4.3,10.7-4.3c6.6,0,10.9,3.7,10.9,8.7c0,3.5-2,6.3-8,10.3h8.3v6.7H1215.2z"/>
			<path class="st2" d="M1249.4,214.7v-4.1h-12.2v-5.9l9.2-15.4h10.7v14.6h2.9v6.7h-2.9v4.1H1249.4z M1249.4,196l-4.8,8h4.8V196z"/>
		</g>
	</g>
</g>
<g>
	<circle cx="351.8" cy="205.2" r="48.6"/>
	<circle class="st1" cx="347.7" cy="183.2" r="3.3"/>
	<circle class="st1" cx="356" cy="214.6" r="3.3"/>
	<circle class="st1" cx="370.6" cy="221.2" r="4.4"/>
	<circle class="st1" cx="347.7" cy="198.9" r="4.4"/>
	
		<rect x="367" y="191.1" transform="matrix(0.5386 0.8426 -0.8426 0.5386 338.159 -219.6428)" class="st1" width="5.2" height="15.7"/>
	
		<rect x="340.1" y="212.7" transform="matrix(0.5939 -0.8045 0.8045 0.5939 -38.2865 365.2894)" class="st1" width="5.2" height="15.7"/>
	
		<rect x="329.3" y="187.7" transform="matrix(-0.6038 -0.7971 0.7971 -0.6038 376.3616 578.2739)" class="st1" width="5.2" height="15.7"/>
	<path class="st2" d="M351.8,166.9c-21.1,0-38.3,17.2-38.3,38.3s17.2,38.3,38.3,38.3s38.3-17.2,38.3-38.3S372.9,166.9,351.8,166.9z
		 M319.2,205.2c0-18,14.6-32.6,32.6-32.6c5.3,0,10.2,1.3,14.7,3.5L330,229.4C323.4,223.4,319.2,214.8,319.2,205.2z M351.8,237.8
		c-6.4,0-12.3-1.8-17.3-5l36.8-53.7c7.9,5.9,13.1,15.4,13.1,26.1C384.4,223.2,369.8,237.8,351.8,237.8z"/>
</g>
<g>
	<g>
		<circle cx="646.9" cy="205.2" r="48.6"/>
	</g>
	<g>
		<path class="st1" d="M649.9,208.4c10.9-10.7,4.8-23.1,0.1-28.2l-6.3,5.8c1.3,1.4,7.5,9,0.1,16.3c-10.9,10.8-4.8,22.9-0.1,27.8
			l6.1-5.9C649.2,223.4,642.4,215.9,649.9,208.4z"/>
		<path class="st1" d="M663,213.7c7.8-7.7,3.5-16.6,0.1-20.2l-4.5,4.2c0.9,1,5.4,6.5,0.1,11.7c-7.8,7.7-3.5,16.5-0.1,20l4.4-4.3
			C662.5,224.5,657.6,219.1,663,213.7z"/>
		<path class="st1" d="M635.1,203.7c7.8-7.7,3.5-16.6,0.1-20.2l-4.5,4.2c0.9,1,5.4,6.5,0.1,11.7c-7.8,7.7-3.5,16.5-0.1,20l4.4-4.2
			C634.3,214.1,629.9,208.8,635.1,203.7z"/>
	</g>
	<path class="st2" d="M646.9,166.9c-21.1,0-38.3,17.2-38.3,38.3s17.2,38.3,38.3,38.3s38.3-17.2,38.3-38.3S668,166.9,646.9,166.9z
		 M614.3,205.2c0-18,14.6-32.6,32.6-32.6c5.3,0,10.2,1.3,14.7,3.5l-36.5,53.3C618.5,223.4,614.3,214.8,614.3,205.2z M646.9,237.8
		c-6.4,0-12.3-1.8-17.3-5l36.8-53.7c7.9,5.9,13.1,15.4,13.1,26.1C679.5,223.2,664.9,237.8,646.9,237.8z"/>
</g>
<g>
	<circle cx="499.4" cy="205.2" r="48.6"/>
	<path class="st2" d="M515.1,194l-15.8-15.8L483.6,194c-8.7,8.7-8.7,22.8,0,31.5s22.8,8.7,31.5,0C523.8,216.9,523.8,202.7,515.1,194
		z"/>
</g>
<g>
	<circle cx="794.5" cy="205.2" r="48.6"/>
	<g>
		<path class="st2" d="M823.5,197.9c0-2.4-2-4.4-4.4-4.4h-9.1h-4.9h-2.5l1.5-8.8c0.7-4.2,0.2-8.5-1.5-12.3v0
			c-0.7-1.6-2.3-2.7-4.1-2.7l0,0c-2.5,0-4.5,2-4.5,4.5v7.2l-8.4,15.2H780v26.4l2.5,0l9.1,5.9h6.4h11.9h2c2.4,0,4.4-2,4.4-4.4v0
			c0-2.4-2-4.4-4.4-4.4h2.7c2.4,0,4.4-2,4.4-4.4s-2-4.4-4.4-4.4h2.4c2.4,0,4.4-2,4.4-4.4v0c0-2.4-2-4.4-4.4-4.4h2
			C821.5,202.3,823.5,200.3,823.5,197.9z"/>
		<rect x="765.5" y="196.4" class="st2" width="9.2" height="26.5"/>
	</g>
</g>
<g>
	<circle cx="1089.6" cy="205.2" r="48.6"/>
	<g>
		<path class="st1" d="M1089.6,177c-15.6,0-28.2,12.7-28.2,28.2s12.7,28.2,28.2,28.2s28.2-12.7,28.2-28.2S1105.2,177,1089.6,177z
			 M1089.6,230.8c-14.1,0-25.6-11.5-25.6-25.6s11.5-25.6,25.6-25.6s25.6,11.5,25.6,25.6S1103.7,230.8,1089.6,230.8z"/>
		<path class="st1" d="M1087.5,188.3c-0.3,0-0.8,0-1.2,0c-0.5,0-1,0.1-1.6,0.2c-0.6,0.1-1.2,0.2-1.9,0.5c-0.6,0.3-1.3,0.5-2,0.8
			c-0.7,0.4-1.3,0.8-2,1.2c-0.6,0.5-1.3,1-1.8,1.6c-0.5,0.6-1.1,1.2-1.5,1.9c-0.5,0.7-0.8,1.4-1.2,2.1c-0.3,0.7-0.6,1.4-0.8,2.1
			c-0.2,0.7-0.3,1.3-0.4,1.9c-0.1,0.6-0.1,1.1-0.1,1.6c0,0.5,0,0.9,0.1,1.2c0.1,0.7,0.2,1.1,0.2,1.1s0.1-0.4,0.3-1
			c0.2-0.6,0.5-1.5,1-2.5c0.2-0.5,0.5-1,0.8-1.6c0.3-0.5,0.6-1.1,1-1.7c0.4-0.6,0.7-1.1,1.2-1.7c0.4-0.6,0.9-1.1,1.4-1.6
			c0.5-0.5,1-0.9,1.5-1.4c0.6-0.4,1.1-0.8,1.6-1.2c0.6-0.4,1.1-0.7,1.6-1c0.5-0.3,1.1-0.6,1.6-0.9c0.5-0.3,0.9-0.5,1.4-0.7
			c0.4-0.2,0.8-0.4,1.1-0.5c0.6-0.3,1-0.5,1-0.5S1088.1,188.3,1087.5,188.3z"/>
	</g>
</g>
<g>
	<circle cx="942" cy="205.2" r="48.6"/>
	<g>
		<path class="st2" d="M910.9,223.6h57c3,0,5.4-2.4,5.4-5.4h-62.4V223.6z"/>
		<path class="st2" d="M970.6,211.9l-30.2-13.5l-2.4,2.4l0,0l-2.1,2.1l-3.6,3.6l-2.4,2.4l-2.1,2.1l-2.1-2.1l-6-6l-0.8-0.8l-3.9-3.9
			c-2.3,0.6-4.3,2.6-4.3,5.5v12h62.4C973.2,214.1,972.2,212.6,970.6,211.9z"/>
		<polygon class="st2" points="921.9,200.9 927.9,206.9 930.3,204.5 931.5,203.3 934,200.8 934,200.8 952.7,181.9 946.7,175.9 
			927.9,194.8 918.5,185.4 912.5,191.5 921.9,200.9 		"/>
	</g>
</g>
</svg>
