<?xml version="1.0" encoding="utf-8"?>
<!-- Generator: Adobe Illustrator 22.0.0, SVG Export Plug-In . SVG Version: 6.00 Build 0)  -->
<svg version="1.1" id="Layer_1" xmlns="http://www.w3.org/2000/svg" xmlns:xlink="http://www.w3.org/1999/xlink" x="0px" y="0px"
	 viewBox="0 0 113.4 113.4" style="enable-background:new 0 0 113.4 113.4;" xml:space="preserve">
<style type="text/css">
	.st0{fill:#ED1C24;}
	.st1{fill:#FFFFFF;}
	.st2{fill:#FFDD00;}
</style>
<g>
	<circle class="st0" cx="499.4" cy="56.7" r="48.6"/>
	<g>
		<path class="st1" d="M469.4,43c0-7.3,5.3-13.1,13.8-13.1c8.5,0,13.9,5.8,13.9,13.1c0,7.2-5.4,12.9-13.9,12.9
			C474.7,55.9,469.4,50.2,469.4,43z M478,82.2l32.9-51.5h7.6l-33,51.5H478z M487.6,43c0-3.5-2-4.9-4.5-4.9c-2.4,0-4.3,1.4-4.3,4.9
			c0,3.3,1.9,4.7,4.3,4.7C485.6,47.7,487.6,46.3,487.6,43z M499.3,70.2c0-7.3,5.3-13.1,13.8-13.1s13.8,5.8,13.8,13.1
			c0,7.2-5.4,12.9-13.8,12.9S499.3,77.4,499.3,70.2z M517.5,70.2c0-3.5-2-4.9-4.5-4.9s-4.4,1.4-4.4,4.9c0,3.4,1.9,4.7,4.4,4.7
			S517.5,73.6,517.5,70.2z"/>
	</g>
</g>
<g>
	<circle cx="646.9" cy="56.7" r="48.6"/>
	<g>
		<path class="st2" d="M626.2,70.1l-4.7-7.8l-4.7,7.8h-9.1l8.6-13.1l-8-12.5h9.1l4.1,7.3l4.1-7.3h9.2l-8,12.4l8.6,13.2H626.2z"/>
		<path class="st2" d="M636.3,70.1V44.4h7.8v13.7l8.9-13.7h8v25.6h-7.8V55.5l-9.5,14.5H636.3z"/>
		<path class="st2" d="M670.2,70.1V51.2h-6.9v-6.8h21.5v6.8H678v18.9H670.2z"/>
	</g>
</g>
<g>
	<circle class="st2" cx="794.5" cy="56.7" r="48.6"/>
	<g>
		<path d="M770,70.1l-9.5-13v13h-7.8V44.4h8l8.9,12.1V44.4h7.8v25.6H770z"/>
		<path d="M781.2,70.1V44.4h19.4v6.8H789v2.5h11.4v6.8H789v2.8h11.7v6.8H781.2z"/>
		<path d="M823.3,70.1L820,55.5l-3.3,14.5h-8.1l-7.3-25.6h8.7l3.3,15.7l3.9-15.7h5.8l3.9,15.7l3.3-15.7h8.7l-7.3,25.6H823.3z"/>
	</g>
</g>
<g>
	<path d="M113,38c0-4.1-2.7-7.3-6.5-8.2l6.4-10.1h-11.4l-1.6,2.5c-1.6-1.8-3.9-2.8-6.7-2.8c-1.2,0-2.3,0.2-3.3,0.6
		c-8.5-7.4-19.7-12-31.9-12c-12,0-23,4.4-31.5,11.6H16.3L0.4,35.3l10.2,10.6C9.8,49.4,9.4,53,9.4,56.7c0,26.8,21.8,48.6,48.6,48.6
		c26.8,0,48.6-21.8,48.6-48.6c0-3.5-0.4-7-1.1-10.3C109.8,45.8,113,42.4,113,38z"/>
	<g>
		<polygon class="st2" points="5.5,35.4 11,41.1 16.4,35.7 16.4,55.4 26.1,55.4 26.1,23.4 17.8,23.4 		"/>
		<path class="st2" d="M43.8,22.9c-9.6,0-14.2,7.8-14.2,16.5S34.2,56,43.8,56C53.4,56,58,48.1,58,39.4S53.4,22.9,43.8,22.9z
			 M43.8,47.4c-3.1,0-4.5-2.6-4.5-8c0-5.4,1.4-8,4.5-8c3.1,0,4.5,2.5,4.5,8C48.3,44.8,46.9,47.4,43.8,47.4z"/>
		<path class="st2" d="M74,22.9c-9.6,0-14.2,7.8-14.2,16.5S64.4,56,74,56c9.6,0,14.2-7.9,14.2-16.6S83.5,22.9,74,22.9z M74,47.4
			c-3.1,0-4.5-2.6-4.5-8c0-5.4,1.4-8,4.5-8c3.1,0,4.5,2.5,4.5,8C78.4,44.8,77,47.4,74,47.4z"/>
		<path class="st2" d="M98.3,27.9c0-2.7-2-4.8-5.1-4.8c-3.1,0-5.1,2.1-5.1,4.8c0,2.7,2,4.8,5.1,4.8C96.3,32.7,98.3,30.6,98.3,27.9z
			 M91.6,27.9c0-1.3,0.7-1.8,1.6-1.8c0.9,0,1.7,0.5,1.7,1.8c0,1.2-0.7,1.7-1.7,1.7C92.3,29.7,91.6,29.2,91.6,27.9z"/>
		<polygon class="st2" points="103.4,23.4 91.2,42.5 94,42.5 106.2,23.4 		"/>
		<path class="st2" d="M104.2,33.2c-3.1,0-5.1,2.1-5.1,4.8c0,2.7,2,4.8,5.1,4.8c3.1,0,5.1-2.1,5.1-4.8
			C109.3,35.3,107.3,33.2,104.2,33.2z M104.2,39.8c-0.9,0-1.6-0.5-1.6-1.7c0-1.3,0.7-1.8,1.6-1.8c0.9,0,1.7,0.5,1.7,1.8
			C105.9,39.3,105.1,39.8,104.2,39.8z"/>
	</g>
	<g>
		<g>
			<path class="st1" d="M38.7,62v1.4h-2.6v5.1h-1.8V62H38.7z"/>
			<path class="st1" d="M43.4,68.5l-0.3-1.2H41l-0.3,1.2h-1.9l2.1-6.5h2.3l2.1,6.5H43.4z M42.7,65.9l-0.3-1.1
				c-0.1-0.2-0.1-0.5-0.2-0.9c-0.1-0.4-0.2-0.6-0.2-0.8c0,0.2-0.1,0.4-0.2,0.7c-0.1,0.3-0.3,1-0.5,2H42.7z"/>
			<path class="st1" d="M50.5,64.1c0,0.7-0.2,1.3-0.6,1.7c-0.4,0.4-1,0.6-1.8,0.6h-0.5v2.1h-1.7V62H48c0.8,0,1.4,0.2,1.8,0.5
				C50.3,62.9,50.5,63.4,50.5,64.1z M47.5,64.9h0.3c0.3,0,0.5-0.1,0.6-0.2s0.2-0.4,0.2-0.6c0-0.4-0.2-0.7-0.7-0.7h-0.5V64.9z"/>
			<path class="st1" d="M55.3,68.5l-0.3-1.2h-2.1l-0.3,1.2h-1.9l2.1-6.5H55l2.1,6.5H55.3z M54.6,65.9l-0.3-1.1
				c-0.1-0.2-0.1-0.5-0.2-0.9c-0.1-0.4-0.2-0.6-0.2-0.8c0,0.2-0.1,0.4-0.2,0.7c-0.1,0.3-0.3,1-0.5,2H54.6z"/>
			<path class="st1" d="M63.2,68.5h-1.8v-2.6h-2v2.6h-1.8V62h1.8v2.4h2V62h1.8V68.5z"/>
			<path class="st1" d="M67.2,68.5h-1.7v-5h-1.6V62h4.9v1.4h-1.6V68.5z"/>
			<path class="st1" d="M69.5,62H71v2.8c0,0.3,0,0.9-0.1,1.8h0l2.6-4.5h2.2v6.5h-1.5v-2.7c0-0.4,0-1,0.1-1.8h0l-2.6,4.5h-2.2V62z"/>
			<path class="st1" d="M79.4,66.2l-1.3,2.4h-2l1.8-2.8c-0.3-0.2-0.6-0.4-0.8-0.7c-0.2-0.3-0.3-0.6-0.3-1c0-1.3,0.9-1.9,2.6-1.9h2.1
				v6.5h-1.7v-2.4H79.4z M79.9,63.4h-0.4c-0.3,0-0.5,0.1-0.7,0.2c-0.2,0.1-0.2,0.3-0.2,0.5c0,0.3,0.1,0.5,0.2,0.6s0.4,0.2,0.7,0.2
				h0.3V63.4z"/>
			<path class="st1" d="M27.3,79.4h-1.8v-5h-1.8v5H22v-6.5h5.3V79.4z"/>
			<path class="st1" d="M34.5,76.1c0,1.1-0.3,1.9-0.8,2.5c-0.5,0.6-1.3,0.8-2.3,0.8c-1,0-1.8-0.3-2.3-0.9c-0.5-0.6-0.8-1.4-0.8-2.5
				c0-1.1,0.3-1.9,0.8-2.5c0.5-0.6,1.3-0.9,2.3-0.9c1,0,1.8,0.3,2.3,0.8C34.2,74.2,34.5,75,34.5,76.1z M30,76.1
				c0,1.3,0.4,1.9,1.3,1.9c0.4,0,0.8-0.2,1-0.5s0.3-0.8,0.3-1.4c0-0.6-0.1-1.1-0.3-1.4c-0.2-0.3-0.5-0.5-1-0.5
				C30.5,74.2,30,74.9,30,76.1z"/>
			<path class="st1" d="M41.9,81.4h-1.7v-2h-3.8v2h-1.7v-3.4h0.5c0.4-0.7,0.7-1.4,1-2.3c0.3-0.9,0.4-1.8,0.5-2.8h4.3v5h0.9V81.4z
				 M39.3,77.9v-3.6h-1.2c-0.1,1.3-0.5,2.5-1,3.6H39.3z"/>
			<path class="st1" d="M48.1,79.4h-1.8v-5h-1.2c-0.1,0.7-0.2,1.5-0.3,2.2c-0.1,0.8-0.2,1.3-0.3,1.6c-0.1,0.3-0.2,0.6-0.4,0.7
				c-0.2,0.2-0.4,0.3-0.6,0.4c-0.2,0.1-0.5,0.1-0.8,0.1c-0.3,0-0.5,0-0.7-0.1V78c0.2,0.1,0.3,0.1,0.4,0.1c0.2,0,0.3-0.1,0.4-0.2
				c0.1-0.1,0.2-0.3,0.2-0.7c0.1-0.3,0.2-0.9,0.3-1.7s0.2-1.7,0.3-2.6h4.5V79.4z"/>
			<path class="st1" d="M49.3,72.9h1.6v2.8c0,0.3,0,0.9-0.1,1.8h0l2.6-4.5h2.2v6.5H54v-2.7c0-0.4,0-1,0.1-1.8h0l-2.6,4.5h-2.2V72.9z
				"/>
			<path class="st1" d="M62.2,79.4h-1.8v-2.6h-2v2.6h-1.8v-6.5h1.8v2.4h2v-2.4h1.8V79.4z"/>
			<path class="st1" d="M68.9,79.4h-1.8v-2.6h-2v2.6h-1.8v-6.5h1.8v2.4h2v-2.4h1.8V79.4z"/>
			<path class="st1" d="M76.2,76.1c0,1.1-0.3,1.9-0.8,2.5c-0.5,0.6-1.3,0.8-2.3,0.8c-1,0-1.8-0.3-2.3-0.9c-0.5-0.6-0.8-1.4-0.8-2.5
				c0-1.1,0.3-1.9,0.8-2.5c0.5-0.6,1.3-0.9,2.3-0.9c1,0,1.8,0.3,2.3,0.8C75.9,74.2,76.2,75,76.2,76.1z M71.7,76.1
				c0,1.3,0.4,1.9,1.3,1.9c0.4,0,0.8-0.2,1-0.5s0.3-0.8,0.3-1.4c0-0.6-0.1-1.1-0.3-1.4c-0.2-0.3-0.5-0.5-1-0.5
				C72.2,74.2,71.7,74.9,71.7,76.1z"/>
			<path class="st1" d="M80,74.3c-0.4,0-0.7,0.2-1,0.5c-0.2,0.3-0.3,0.8-0.3,1.4c0,1.2,0.5,1.9,1.4,1.9c0.3,0,0.6,0,0.8-0.1
				c0.3-0.1,0.5-0.2,0.8-0.3v1.5c-0.5,0.2-1.2,0.4-1.8,0.4c-1,0-1.7-0.3-2.2-0.8c-0.5-0.6-0.8-1.4-0.8-2.5c0-0.7,0.1-1.3,0.4-1.8
				s0.6-0.9,1.1-1.2c0.5-0.3,1-0.4,1.7-0.4c0.7,0,1.4,0.2,2,0.5l-0.5,1.4c-0.2-0.1-0.5-0.2-0.7-0.3C80.5,74.3,80.3,74.3,80,74.3z"/>
			<path class="st1" d="M85.6,79.4h-1.7v-5h-1.6v-1.4h4.9v1.4h-1.6V79.4z"/>
			<path class="st1" d="M87.9,72.9h1.6v2.8c0,0.3,0,0.9-0.1,1.8h0l2.6-4.5h2.2v6.5h-1.5v-2.7c0-0.4,0-1,0.1-1.8h0L90,79.4h-2.2V72.9
				z"/>
			<path class="st1" d="M43.4,90.3h-1.7v-5h-1.6v-1.4H45v1.4h-1.6V90.3z"/>
			<path class="st1" d="M51.7,87c0,1.1-0.3,1.9-0.8,2.5c-0.5,0.6-1.3,0.8-2.3,0.8c-1,0-1.8-0.3-2.3-0.9c-0.5-0.6-0.8-1.4-0.8-2.5
				c0-1.1,0.3-1.9,0.8-2.5c0.5-0.6,1.3-0.9,2.3-0.9c1,0,1.8,0.3,2.3,0.8C51.5,85.1,51.7,85.9,51.7,87z M47.3,87
				c0,1.3,0.4,1.9,1.3,1.9c0.4,0,0.8-0.2,1-0.5s0.3-0.8,0.3-1.4c0-0.6-0.1-1.1-0.3-1.4c-0.2-0.3-0.5-0.5-1-0.5
				C47.7,85.1,47.3,85.7,47.3,87z"/>
			<path class="st1" d="M52.7,83.8h2.3c0.9,0,1.5,0.1,2,0.4c0.4,0.3,0.6,0.7,0.6,1.2c0,0.4-0.1,0.7-0.3,0.9
				c-0.2,0.3-0.4,0.4-0.7,0.5v0c0.4,0.1,0.7,0.3,0.9,0.5c0.2,0.2,0.3,0.6,0.3,1c0,0.6-0.2,1-0.7,1.4c-0.4,0.3-1,0.5-1.8,0.5h-2.5
				V83.8z M54.4,86.3h0.5c0.3,0,0.4-0.1,0.6-0.2c0.1-0.1,0.2-0.3,0.2-0.5c0-0.4-0.3-0.5-0.8-0.5h-0.5V86.3z M54.4,87.5v1.4H55
				c0.5,0,0.8-0.2,0.8-0.7c0-0.2-0.1-0.4-0.2-0.5c-0.1-0.1-0.4-0.2-0.6-0.2H54.4z"/>
			<path class="st1" d="M62.5,90.3L62.2,89h-2.1l-0.3,1.2h-1.9l2.1-6.5h2.3l2.1,6.5H62.5z M61.8,87.6l-0.3-1.1
				c-0.1-0.2-0.1-0.5-0.2-0.9s-0.2-0.6-0.2-0.8c0,0.2-0.1,0.4-0.2,0.7s-0.3,1-0.5,2H61.8z"/>
			<path class="st1" d="M69.6,85.8c0,0.7-0.2,1.3-0.6,1.7c-0.4,0.4-1,0.6-1.8,0.6h-0.5v2.1h-1.7v-6.5h2.2c0.8,0,1.4,0.2,1.8,0.5
				C69.4,84.7,69.6,85.2,69.6,85.8z M66.6,86.7H67c0.3,0,0.5-0.1,0.6-0.2s0.2-0.4,0.2-0.6c0-0.4-0.2-0.7-0.7-0.7h-0.5V86.7z"/>
			<path class="st1" d="M74.4,90.3L74,89h-2.1l-0.3,1.2h-1.9l2.1-6.5h2.3l2.1,6.5H74.4z M73.7,87.6l-0.3-1.1
				c-0.1-0.2-0.1-0.5-0.2-0.9S73,85,73,84.8c0,0.2-0.1,0.4-0.2,0.7s-0.3,1-0.5,2H73.7z"/>
		</g>
	</g>
</g>
<g>
	<path d="M260.5,38c0-4.1-2.7-7.3-6.5-8.2l6.4-10.1H249l-1.6,2.5c-1.6-1.8-3.9-2.8-6.7-2.8c-1.2,0-2.3,0.2-3.3,0.6
		c-8.5-7.4-19.7-12-31.9-12c-12,0-23,4.4-31.5,11.6h-10.1L148,35.3l10.2,10.6c-0.8,3.5-1.2,7.1-1.2,10.8c0,26.8,21.8,48.6,48.6,48.6
		s48.6-21.8,48.6-48.6c0-3.5-0.4-7-1.1-10.3C257.4,45.8,260.5,42.4,260.5,38z"/>
	<g>
		<polygon class="st2" points="153.1,35.4 158.6,41.1 164,35.7 164,55.4 173.7,55.4 173.7,23.4 165.3,23.4 		"/>
		<path class="st2" d="M191.4,22.9c-9.6,0-14.2,7.8-14.2,16.5S181.8,56,191.4,56c9.6,0,14.2-7.9,14.2-16.6S200.9,22.9,191.4,22.9z
			 M191.4,47.4c-3.1,0-4.5-2.6-4.5-8c0-5.4,1.4-8,4.5-8c3.1,0,4.5,2.5,4.5,8C195.8,44.8,194.4,47.4,191.4,47.4z"/>
		<path class="st2" d="M221.5,22.9c-9.6,0-14.2,7.8-14.2,16.5S212,56,221.5,56c9.6,0,14.2-7.9,14.2-16.6S231.1,22.9,221.5,22.9z
			 M221.5,47.4c-3.1,0-4.5-2.6-4.5-8c0-5.4,1.4-8,4.5-8c3.1,0,4.5,2.5,4.5,8C226,44.8,224.6,47.4,221.5,47.4z"/>
		<path class="st2" d="M245.9,27.9c0-2.7-2-4.8-5.1-4.8c-3.1,0-5.1,2.1-5.1,4.8c0,2.7,2,4.8,5.1,4.8
			C243.9,32.7,245.9,30.6,245.9,27.9z M239.1,27.9c0-1.3,0.7-1.8,1.6-1.8c0.9,0,1.7,0.5,1.7,1.8c0,1.2-0.7,1.7-1.7,1.7
			C239.8,29.7,239.1,29.2,239.1,27.9z"/>
		<path class="st2" d="M251.8,33.2c-3.1,0-5.1,2.1-5.1,4.8c0,2.7,2,4.8,5.1,4.8c3.1,0,5.1-2.1,5.1-4.8
			C256.9,35.3,254.9,33.2,251.8,33.2z M251.8,39.8c-0.9,0-1.6-0.5-1.6-1.7c0-1.3,0.7-1.8,1.6-1.8c0.9,0,1.7,0.5,1.7,1.8
			C253.4,39.3,252.7,39.8,251.8,39.8z"/>
		<polygon class="st2" points="251,23.4 238.8,42.5 241.6,42.5 253.8,23.4 		"/>
	</g>
	<g>
		<g>
			<path class="st1" d="M186.3,62v1.4h-2.6v5.1H182V62H186.3z"/>
			<path class="st1" d="M191,68.5l-0.3-1.2h-2.1l-0.3,1.2h-1.9l2.1-6.5h2.3l2.1,6.5H191z M190.3,65.9l-0.3-1.1
				c-0.1-0.2-0.1-0.5-0.2-0.9c-0.1-0.4-0.2-0.6-0.2-0.8c0,0.2-0.1,0.4-0.2,0.7c-0.1,0.3-0.3,1-0.5,2H190.3z"/>
			<path class="st1" d="M198,64.1c0,0.7-0.2,1.3-0.6,1.7c-0.4,0.4-1,0.6-1.8,0.6h-0.5v2.1h-1.7V62h2.2c0.8,0,1.4,0.2,1.8,0.5
				C197.8,62.9,198,63.4,198,64.1z M195.1,64.9h0.3c0.3,0,0.5-0.1,0.6-0.2c0.2-0.1,0.2-0.4,0.2-0.6c0-0.4-0.2-0.7-0.7-0.7h-0.5V64.9
				z"/>
			<path class="st1" d="M202.8,68.5l-0.3-1.2h-2.1l-0.3,1.2h-1.9l2.1-6.5h2.3l2.1,6.5H202.8z M202.1,65.9l-0.3-1.1
				c-0.1-0.2-0.1-0.5-0.2-0.9c-0.1-0.4-0.2-0.6-0.2-0.8c0,0.2-0.1,0.4-0.2,0.7c-0.1,0.3-0.3,1-0.5,2H202.1z"/>
			<path class="st1" d="M210.7,68.5H209v-2.6h-2v2.6h-1.8V62h1.8v2.4h2V62h1.8V68.5z"/>
			<path class="st1" d="M214.8,68.5H213v-5h-1.6V62h4.9v1.4h-1.6V68.5z"/>
			<path class="st1" d="M217,62h1.6v2.8c0,0.3,0,0.9-0.1,1.8h0l2.6-4.5h2.2v6.5h-1.5v-2.7c0-0.4,0-1,0.1-1.8h0l-2.6,4.5H217V62z"/>
			<path class="st1" d="M227,66.2l-1.3,2.4h-2l1.8-2.8c-0.3-0.2-0.6-0.4-0.8-0.7s-0.3-0.6-0.3-1c0-1.3,0.9-1.9,2.6-1.9h2.1v6.5h-1.7
				v-2.4H227z M227.5,63.4h-0.4c-0.3,0-0.5,0.1-0.7,0.2c-0.2,0.1-0.2,0.3-0.2,0.5c0,0.3,0.1,0.5,0.2,0.6c0.2,0.1,0.4,0.2,0.7,0.2
				h0.3V63.4z"/>
			<path class="st1" d="M188.4,79.4h-2l-1.9-3.3v3.3h-1.8v-6.5h1.8V76l1.8-3.1h1.9l-2,3.1L188.4,79.4z"/>
			<path class="st1" d="M192.8,79.4l-0.3-1.2h-2.1l-0.3,1.2h-1.9l2.1-6.5h2.3l2.1,6.5H192.8z M192.2,76.7l-0.3-1.1
				c-0.1-0.2-0.1-0.5-0.2-0.9s-0.2-0.6-0.2-0.8c0,0.2-0.1,0.4-0.2,0.7s-0.3,1-0.5,2H192.2z"/>
			<path class="st1" d="M200.7,79.4h-1.8V77c-0.7,0.3-1.4,0.4-2,0.4c-0.6,0-1.1-0.2-1.4-0.5s-0.5-0.7-0.5-1.3v-2.7h1.8v2.2
				c0,0.3,0.1,0.5,0.2,0.7s0.3,0.2,0.6,0.2c0.4,0,0.8-0.1,1.4-0.3v-2.7h1.8V79.4z"/>
			<path class="st1" d="M205.7,79.4h-3.8v-6.5h3.8v1.4h-2.1v1h1.9v1.4h-1.9V78h2.1V79.4z"/>
			<path class="st1" d="M209.5,74.3c-0.4,0-0.7,0.2-1,0.5c-0.2,0.3-0.3,0.8-0.3,1.4c0,1.2,0.5,1.9,1.4,1.9c0.3,0,0.6,0,0.8-0.1
				c0.3-0.1,0.5-0.2,0.8-0.3v1.5c-0.5,0.2-1.1,0.4-1.8,0.4c-1,0-1.7-0.3-2.2-0.8c-0.5-0.6-0.8-1.4-0.8-2.5c0-0.7,0.1-1.3,0.4-1.8
				c0.3-0.5,0.6-0.9,1.1-1.2c0.5-0.3,1-0.4,1.7-0.4c0.7,0,1.4,0.2,2,0.5l-0.5,1.4c-0.2-0.1-0.5-0.2-0.7-0.3
				C210,74.3,209.8,74.3,209.5,74.3z"/>
			<path class="st1" d="M215.1,79.4h-1.7v-5h-1.6v-1.4h4.9v1.4h-1.6V79.4z"/>
			<path class="st1" d="M217.4,72.9h2.3c0.9,0,1.5,0.1,2,0.4c0.4,0.3,0.6,0.7,0.6,1.2c0,0.4-0.1,0.7-0.3,0.9
				c-0.2,0.3-0.4,0.4-0.7,0.5v0c0.4,0.1,0.7,0.3,0.9,0.5c0.2,0.2,0.3,0.6,0.3,1c0,0.6-0.2,1-0.7,1.4c-0.4,0.3-1,0.5-1.8,0.5h-2.5
				V72.9z M219.1,75.4h0.5c0.3,0,0.4-0.1,0.6-0.2c0.1-0.1,0.2-0.3,0.2-0.5c0-0.4-0.3-0.5-0.8-0.5h-0.5V75.4z M219.1,76.7V78h0.6
				c0.5,0,0.8-0.2,0.8-0.7c0-0.2-0.1-0.4-0.2-0.5c-0.1-0.1-0.4-0.2-0.6-0.2H219.1z"/>
			<path class="st1" d="M227.2,79.4l-0.3-1.2h-2.1l-0.3,1.2h-1.9l2.1-6.5h2.3l2.1,6.5H227.2z M226.6,76.7l-0.3-1.1
				c-0.1-0.2-0.1-0.5-0.2-0.9s-0.2-0.6-0.2-0.8c0,0.2-0.1,0.4-0.2,0.7s-0.3,1-0.5,2H226.6z"/>
			<path class="st1" d="M191,90.3h-1.7v-5h-1.6v-1.4h4.9v1.4H191V90.3z"/>
			<path class="st1" d="M199.3,87c0,1.1-0.3,1.9-0.8,2.5c-0.5,0.6-1.3,0.8-2.3,0.8c-1,0-1.8-0.3-2.3-0.9c-0.5-0.6-0.8-1.4-0.8-2.5
				c0-1.1,0.3-1.9,0.8-2.5s1.3-0.9,2.3-0.9c1,0,1.8,0.3,2.3,0.8C199,85.1,199.3,85.9,199.3,87z M194.8,87c0,1.3,0.4,1.9,1.3,1.9
				c0.4,0,0.8-0.2,1-0.5s0.3-0.8,0.3-1.4c0-0.6-0.1-1.1-0.3-1.4c-0.2-0.3-0.5-0.5-1-0.5C195.3,85.1,194.8,85.7,194.8,87z"/>
			<path class="st1" d="M200.2,83.8h2.3c0.9,0,1.5,0.1,2,0.4c0.4,0.3,0.6,0.7,0.6,1.2c0,0.4-0.1,0.7-0.3,0.9
				c-0.2,0.3-0.4,0.4-0.7,0.5v0c0.4,0.1,0.7,0.3,0.9,0.5c0.2,0.2,0.3,0.6,0.3,1c0,0.6-0.2,1-0.7,1.4c-0.4,0.3-1,0.5-1.8,0.5h-2.5
				V83.8z M202,86.3h0.5c0.3,0,0.4-0.1,0.6-0.2c0.1-0.1,0.2-0.3,0.2-0.5c0-0.4-0.3-0.5-0.8-0.5H202V86.3z M202,87.5v1.4h0.6
				c0.5,0,0.8-0.2,0.8-0.7c0-0.2-0.1-0.4-0.2-0.5c-0.1-0.1-0.4-0.2-0.6-0.2H202z"/>
			<path class="st1" d="M210.1,90.3l-0.3-1.2h-2.1l-0.3,1.2h-1.9l2.1-6.5h2.3l2.1,6.5H210.1z M209.4,87.6l-0.3-1.1
				c-0.1-0.2-0.1-0.5-0.2-0.9s-0.2-0.6-0.2-0.8c0,0.2-0.1,0.4-0.2,0.7s-0.3,1-0.5,2H209.4z"/>
			<path class="st1" d="M217.1,85.8c0,0.7-0.2,1.3-0.6,1.7c-0.4,0.4-1,0.6-1.8,0.6h-0.5v2.1h-1.7v-6.5h2.2c0.8,0,1.4,0.2,1.8,0.5
				C216.9,84.7,217.1,85.2,217.1,85.8z M214.2,86.7h0.3c0.3,0,0.5-0.1,0.6-0.2c0.2-0.1,0.2-0.4,0.2-0.6c0-0.4-0.2-0.7-0.7-0.7h-0.5
				V86.7z"/>
			<path class="st1" d="M221.9,90.3l-0.3-1.2h-2.1l-0.3,1.2h-1.9l2.1-6.5h2.3l2.1,6.5H221.9z M221.2,87.6l-0.3-1.1
				c-0.1-0.2-0.1-0.5-0.2-0.9s-0.2-0.6-0.2-0.8c0,0.2-0.1,0.4-0.2,0.7s-0.3,1-0.5,2H221.2z"/>
		</g>
	</g>
</g>
<g>
	<path d="M408.1,38c0-4.1-2.7-7.3-6.5-8.2l6.4-10.1h-11.4l-1.6,2.5c-1.6-1.8-3.9-2.8-6.7-2.8c-1.2,0-2.3,0.2-3.3,0.6
		c-8.5-7.4-19.7-12-31.9-12c-12,0-23,4.4-31.5,11.6h-10.1l-15.9,15.6l10.2,10.6c-0.8,3.5-1.2,7.1-1.2,10.8
		c0,26.8,21.8,48.6,48.6,48.6c26.8,0,48.6-21.8,48.6-48.6c0-3.5-0.4-7-1.1-10.3C404.9,45.8,408.1,42.4,408.1,38z"/>
	<g>
		<g>
			<path class="st2" d="M311.5,55.4V35.7l-5.4,5.4l-5.5-5.7l12.2-12h8.4v32H311.5z"/>
			<path class="st2" d="M324.7,39.4c0-8.7,4.7-16.5,14.2-16.5c9.6,0,14.2,7.8,14.2,16.5S348.5,56,338.9,56
				C329.4,56,324.7,48.1,324.7,39.4z M343.4,39.4c0-5.4-1.4-8-4.5-8c-3.1,0-4.5,2.5-4.5,8c0,5.4,1.4,8,4.5,8
				C342,47.4,343.4,44.8,343.4,39.4z"/>
			<path class="st2" d="M354.9,39.4c0-8.7,4.7-16.5,14.2-16.5c9.6,0,14.2,7.8,14.2,16.5S378.6,56,369.1,56
				C359.5,56,354.9,48.1,354.9,39.4z M373.6,39.4c0-5.4-1.4-8-4.5-8c-3.1,0-4.5,2.5-4.5,8c0,5.4,1.4,8,4.5,8
				C372.2,47.4,373.6,44.8,373.6,39.4z"/>
		</g>
		<path class="st2" d="M383.2,27.9c0-2.7,2-4.8,5.1-4.8c3.1,0,5.1,2.1,5.1,4.8c0,2.7-2,4.8-5.1,4.8
			C385.2,32.7,383.2,30.6,383.2,27.9z M386.4,42.5l12.2-19.1h2.8l-12.2,19.1H386.4z M389.9,27.9c0-1.3-0.7-1.8-1.7-1.8
			c-0.9,0-1.6,0.5-1.6,1.8c0,1.2,0.7,1.7,1.6,1.7C389.2,29.7,389.9,29.2,389.9,27.9z M394.3,38c0-2.7,2-4.8,5.1-4.8
			c3.1,0,5.1,2.1,5.1,4.8c0,2.7-2,4.8-5.1,4.8C396.2,42.8,394.3,40.7,394.3,38z M401,38c0-1.3-0.7-1.8-1.7-1.8
			c-0.9,0-1.6,0.5-1.6,1.8c0,1.3,0.7,1.7,1.6,1.7C400.3,39.8,401,39.3,401,38z"/>
	</g>
	<g>
		<g>
			<path class="st1" d="M333.9,62v1.4h-2.6v5.1h-1.8V62H333.9z"/>
			<path class="st1" d="M338.5,68.5l-0.3-1.2h-2.1l-0.3,1.2h-1.9L336,62h2.3l2.1,6.5H338.5z M337.9,65.9l-0.3-1.1
				c-0.1-0.2-0.1-0.5-0.2-0.9c-0.1-0.4-0.2-0.6-0.2-0.8c0,0.2-0.1,0.4-0.2,0.7c-0.1,0.3-0.3,1-0.5,2H337.9z"/>
			<path class="st1" d="M345.6,64.1c0,0.7-0.2,1.3-0.6,1.7c-0.4,0.4-1,0.6-1.8,0.6h-0.5v2.1h-1.7V62h2.2c0.8,0,1.4,0.2,1.8,0.5
				C345.4,62.9,345.6,63.4,345.6,64.1z M342.7,64.9h0.3c0.3,0,0.5-0.1,0.6-0.2c0.2-0.1,0.2-0.4,0.2-0.6c0-0.4-0.2-0.7-0.7-0.7h-0.5
				V64.9z"/>
			<path class="st1" d="M350.4,68.5l-0.3-1.2H348l-0.3,1.2h-1.9l2.1-6.5h2.3l2.1,6.5H350.4z M349.7,65.9l-0.3-1.1
				c-0.1-0.2-0.1-0.5-0.2-0.9c-0.1-0.4-0.2-0.6-0.2-0.8c0,0.2-0.1,0.4-0.2,0.7c-0.1,0.3-0.3,1-0.5,2H349.7z"/>
			<path class="st1" d="M358.3,68.5h-1.8v-2.6h-2v2.6h-1.8V62h1.8v2.4h2V62h1.8V68.5z"/>
			<path class="st1" d="M362.3,68.5h-1.7v-5H359V62h4.9v1.4h-1.6V68.5z"/>
			<path class="st1" d="M364.6,62h1.6v2.8c0,0.3,0,0.9-0.1,1.8h0l2.6-4.5h2.2v6.5h-1.5v-2.7c0-0.4,0-1,0.1-1.8h0l-2.6,4.5h-2.2V62z"
				/>
			<path class="st1" d="M374.5,66.2l-1.3,2.4h-2l1.8-2.8c-0.3-0.2-0.6-0.4-0.8-0.7s-0.3-0.6-0.3-1c0-1.3,0.9-1.9,2.6-1.9h2.1v6.5
				H375v-2.4H374.5z M375,63.4h-0.4c-0.3,0-0.5,0.1-0.7,0.2c-0.2,0.1-0.2,0.3-0.2,0.5c0,0.3,0.1,0.5,0.2,0.6
				c0.2,0.1,0.4,0.2,0.7,0.2h0.3V63.4z"/>
			<path class="st1" d="M329.8,72.9h2.3c0.9,0,1.5,0.1,2,0.4c0.4,0.3,0.6,0.7,0.6,1.2c0,0.4-0.1,0.7-0.3,0.9
				c-0.2,0.3-0.4,0.4-0.7,0.5v0c0.4,0.1,0.7,0.3,0.9,0.5c0.2,0.2,0.3,0.6,0.3,1c0,0.6-0.2,1-0.7,1.4c-0.4,0.3-1,0.5-1.8,0.5h-2.5
				V72.9z M331.6,75.4h0.5c0.3,0,0.4-0.1,0.6-0.2c0.1-0.1,0.2-0.3,0.2-0.5c0-0.4-0.3-0.5-0.8-0.5h-0.5V75.4z M331.6,76.7V78h0.6
				c0.5,0,0.8-0.2,0.8-0.7c0-0.2-0.1-0.4-0.2-0.5c-0.1-0.1-0.4-0.2-0.6-0.2H331.6z"/>
			<path class="st1" d="M341.7,76.1c0,1.1-0.3,1.9-0.8,2.5c-0.5,0.6-1.3,0.8-2.3,0.8c-1,0-1.8-0.3-2.3-0.9c-0.5-0.6-0.8-1.4-0.8-2.5
				c0-1.1,0.3-1.9,0.8-2.5s1.3-0.9,2.3-0.9c1,0,1.8,0.3,2.3,0.8C341.5,74.2,341.7,75,341.7,76.1z M337.3,76.1c0,1.3,0.4,1.9,1.3,1.9
				c0.4,0,0.8-0.2,1-0.5s0.3-0.8,0.3-1.4c0-0.6-0.1-1.1-0.3-1.4c-0.2-0.3-0.5-0.5-1-0.5C337.7,74.2,337.3,74.9,337.3,76.1z"/>
			<path class="st1" d="M347.3,74.4c0,0.9-0.5,1.4-1.5,1.5v0c0.6,0,1,0.2,1.3,0.5c0.3,0.3,0.4,0.6,0.4,1.1c0,0.4-0.1,0.7-0.3,1
				s-0.5,0.5-0.9,0.7c-0.4,0.2-0.9,0.2-1.5,0.2c-1,0-1.9-0.1-2.5-0.3v-1.5c0.3,0.1,0.6,0.2,1,0.3s0.7,0.1,1.1,0.1
				c0.5,0,0.9-0.1,1.1-0.2c0.2-0.1,0.3-0.3,0.3-0.5c0-0.4-0.5-0.6-1.5-0.6h-0.8v-1.4h0.7c0.3,0,0.6,0,0.8-0.1c0.2,0,0.3-0.1,0.4-0.2
				c0.1-0.1,0.1-0.2,0.1-0.3c0-0.3-0.3-0.5-0.9-0.5c-0.6,0-1.1,0.2-1.5,0.5l-0.7-1.2c0.4-0.2,0.8-0.4,1.2-0.5
				c0.4-0.1,0.9-0.2,1.4-0.2c0.7,0,1.3,0.1,1.7,0.4C347.1,73.6,347.3,73.9,347.3,74.4z"/>
			<path class="st1" d="M348.5,72.9h2.3c0.9,0,1.5,0.1,2,0.4c0.4,0.3,0.6,0.7,0.6,1.2c0,0.4-0.1,0.7-0.3,0.9
				c-0.2,0.3-0.4,0.4-0.7,0.5v0c0.4,0.1,0.7,0.3,0.9,0.5c0.2,0.2,0.3,0.6,0.3,1c0,0.6-0.2,1-0.7,1.4c-0.4,0.3-1,0.5-1.8,0.5h-2.5
				V72.9z M350.2,75.4h0.5c0.3,0,0.4-0.1,0.6-0.2c0.1-0.1,0.2-0.3,0.2-0.5c0-0.4-0.3-0.5-0.8-0.5h-0.5V75.4z M350.2,76.7V78h0.6
				c0.5,0,0.8-0.2,0.8-0.7c0-0.2-0.1-0.4-0.2-0.5c-0.1-0.1-0.4-0.2-0.6-0.2H350.2z"/>
			<path class="st1" d="M359.1,75c0,0.7-0.2,1.3-0.6,1.7c-0.4,0.4-1,0.6-1.8,0.6h-0.5v2.1h-1.7v-6.5h2.2c0.8,0,1.4,0.2,1.8,0.5
				C358.9,73.8,359.1,74.3,359.1,75z M356.1,75.8h0.3c0.3,0,0.5-0.1,0.6-0.2c0.2-0.1,0.2-0.4,0.2-0.6c0-0.4-0.2-0.7-0.7-0.7h-0.5
				V75.8z"/>
			<path class="st1" d="M363.8,79.4l-0.3-1.2h-2.1l-0.3,1.2h-1.9l2.1-6.5h2.3l2.1,6.5H363.8z M363.2,76.7l-0.3-1.1
				c-0.1-0.2-0.1-0.5-0.2-0.9s-0.2-0.6-0.2-0.8c0,0.2-0.1,0.4-0.2,0.7s-0.3,1-0.5,2H363.2z"/>
			<path class="st1" d="M369.1,79.4h-1.7v-5h-1.6v-1.4h4.9v1.4h-1.6V79.4z"/>
			<path class="st1" d="M375.3,79.4l-0.3-1.2h-2.1l-0.3,1.2h-1.9l2.1-6.5h2.3l2.1,6.5H375.3z M374.6,76.7l-0.3-1.1
				c-0.1-0.2-0.1-0.5-0.2-0.9s-0.2-0.6-0.2-0.8c0,0.2-0.1,0.4-0.2,0.7s-0.3,1-0.5,2H374.6z"/>
			<path class="st1" d="M346.1,92.3h-1.7v-2h-3.8v2h-1.7v-3.4h0.5c0.4-0.7,0.7-1.4,1-2.3s0.4-1.8,0.5-2.8h4.3v5h0.9V92.3z
				 M343.4,88.8v-3.6h-1.2c-0.1,1.3-0.5,2.5-1,3.6H343.4z"/>
			<path class="st1" d="M350.6,90.3h-3.8v-6.5h3.8v1.4h-2.1v1h1.9v1.4h-1.9v1.2h2.1V90.3z"/>
			<path class="st1" d="M357,90.3h-1.8v-2.6h-2v2.6h-1.8v-6.5h1.8v2.4h2v-2.4h1.8V90.3z"/>
			<path class="st1" d="M362,90.3h-3.8v-6.5h3.8v1.4h-2.1v1h1.9v1.4h-1.9v1.2h2.1V90.3z"/>
			<path class="st1" d="M367.2,83.8v1.4h-2.6v5.1h-1.8v-6.5H367.2z"/>
		</g>
	</g>
</g>
<g>
	<circle cx="942" cy="56.7" r="48.6"/>
	<g>
		<circle class="st2" cx="961.3" cy="75.3" r="6.3"/>
		<circle class="st2" cx="927.3" cy="75.3" r="6.3"/>
		<g>
			<path class="st2" d="M928.8,49.2h-0.6V52h0.6c1.1,0,1.7-0.5,1.7-1.5C930.5,49.6,929.9,49.2,928.8,49.2z"/>
			<path class="st2" d="M965.3,43.8h-10.2v-9.5H912v41h5.4c0-5.4,4.4-9.8,9.8-9.8c5.4,0,9.8,4.4,9.8,9.8h14.3c0-5.4,4.4-9.8,9.8-9.8
				c5.4,0,9.8,4.4,9.8,9.8h3.1V59L965.3,43.8z M923.7,49.3h-4v2.3h3.6v2.6h-3.6v4.6h-3.2V46.7h7.2V49.3z M931.6,58.9l-2.6-4.4h-0.8
				v4.4h-3.3V46.7h4c3.3,0,5,1.2,5,3.6c0,1.4-0.7,2.5-2.1,3.3l3.5,5.3H931.6z M942.8,49.3h-3.9v1.9h3.6v2.6h-3.6v2.3h3.9v2.7h-7.2
				V46.7h7.2V49.3z M951.3,49.3h-3.9v1.9h3.6v2.6h-3.6v2.3h3.9v2.7h-7.2V46.7h7.2V49.3z M957.7,59V47.8h5.3l6.6,11.2H957.7z"/>
		</g>
	</g>
</g>
<g>
	<circle cx="1089.6" cy="56.7" r="48.6"/>
	<g>
		<path class="st2" d="M1065.2,76.8V66.7c0-4.8,6.2-6.7,8.9-2.6l0,0c0,0,1.6,2.4,5.3,2.5c5.2,0.1,7.5-1.4,10.2-4.7l26.1,11.7
			c1.3,0.6,2.1,1.9,2.2,3.3l0,0H1065.2z"/>
		<path class="st2" d="M1113.3,83.5h-48.1v-4.6h52.6l0,0C1117.8,81.4,1115.8,83.5,1113.3,83.5z"/>
		<g>
			<path class="st2" d="M1071.4,24.1v34.5c1.8,0.3,3.3,1.4,4.3,2.9c0.1,0.2,1.3,1.6,3.7,1.6c0.2,0,0.3,0,0.5,0c4.1,0,5.8-1.2,8.1-4
				V24.1H1071.4z M1084.9,57.2h-10.7v-6.4h2.3v3.5h2.1v-3.2h2.3v3.2h4V57.2z M1084.9,43.9l-3.9,2.3v0.7h3.9v2.9h-10.7v-3.5
				c0-2.9,1.1-4.4,3.2-4.4c1.2,0,2.2,0.6,2.9,1.8l4.7-3.1V43.9z M1084.9,40.4h-10.7V34h2.3v3.5h1.7v-3.2h2.3v3.2h2V34h2.4V40.4z
				 M1084.9,32.9h-10.7v-6.4h2.3V30h1.7v-3.2h2.3V30h2v-3.5h2.4V32.9z"/>
			<path class="st2" d="M1077.5,44.8c-0.7,0-1.1,0.5-1.1,1.5v0.6h2.5v-0.5C1078.8,45.4,1078.4,44.8,1077.5,44.8z"/>
		</g>
	</g>
</g>
<g>
	<circle cx="1384.7" cy="56.7" r="48.6"/>
	<polygon class="st2" points="1387.2,70.3 1416.7,40.5 1407.2,31 1377.6,60.8 1362.8,46.1 1353.3,55.5 1368.2,70.4 1368.2,70.4 
		1377.7,79.9 1381.5,76 1387.2,70.3 	"/>
</g>
<g>
	<circle cx="1237.2" cy="56.7" r="48.6"/>
	<g>
		<path class="st2" d="M1263.6,38.8L1238,22.2v3.7v4.9c-15.1,0-27.3,12.2-27.3,27.3v1.8c2.1-8.1,9.5-14.1,18.2-14.1h9v9.8
			L1263.6,38.8z"/>
		<path class="st2" d="M1210.7,74.6l25.6,16.7v-3.7v-4.9c15.1,0,27.3-12.2,27.3-27.3v-1.8c-2.1,8.1-9.5,14.1-18.2,14.1h-9v-9.8
			L1210.7,74.6z"/>
	</g>
</g>
<g>
	<circle cx="204.3" cy="205.2" r="48.6"/>
	<path class="st2" d="M224.2,178.8c-28.3-12.2-47.7,4-47.7,4c1,45.7,27.8,53.4,27.8,53.4s26.8-7.7,27.8-53.4
		C232.1,182.8,229.2,180.8,224.2,178.8z M206.2,213l-3.5,3.5l-2.4,2.4l-5.9-5.9l0,0l-9.2-9.2l5.9-5.9l9.2,9.2l18.3-18.5l5.9,5.9
		L206.2,213L206.2,213z"/>
</g>
<g>
	<circle cx="351.8" cy="205.2" r="48.6"/>
	<path class="st2" d="M378,197.9c0-8.1-6.5-14.6-14.6-14.6c-4.8,0-9,2.3-11.6,5.8c-2.7-3.5-6.9-5.8-11.6-5.8
		c-8.1,0-14.6,6.5-14.6,14.6c0,2,0.4,3.9,1.2,5.7l0,0c0,0,1.8,8.1,25.1,27.7c0,0,0,0,0,0c0,0,0,0,0,0c23.2-19.6,25.1-27.7,25.1-27.7
		l0,0C377.6,201.9,378,200,378,197.9z"/>
</g>
<g>
	<circle cx="56.7" cy="205.2" r="48.6"/>
	<g>
		<path class="st2" d="M94.6,198.7c0-1.9-1.5-3.4-3.4-3.4h-6.9h-3.7h-1.9l1.2-6.6c0.6-3.2,0.1-6.4-1.2-9.4l0,0c-0.5-1.2-1.8-2-3.1-2
			h0c-1.9,0-3.4,1.5-3.4,3.4v5.4l-6.4,11.5h-4.2v20l1.9,0l6.9,4.5h4.8h9h1.6c1.9,0,3.4-1.5,3.4-3.4v0c0-1.9-1.5-3.4-3.4-3.4H88
			c1.9,0,3.4-1.5,3.4-3.4c0-1.9-1.5-3.4-3.4-3.4h1.8c1.9,0,3.4-1.5,3.4-3.4v0c0-1.9-1.5-3.4-3.4-3.4h1.5
			C93.1,202.1,94.6,200.6,94.6,198.7z"/>
		<g>
			<path class="st2" d="M39.2,210.7h-2.5v0.9h2.5c0.3,0,0.5-0.2,0.5-0.4C39.7,210.8,39.5,210.7,39.2,210.7z"/>
			<path class="st2" d="M39.5,207.8c0-0.2-0.2-0.4-0.4-0.4h-2.3v0.8h2.3C39.3,208.1,39.5,208,39.5,207.8z"/>
			<path class="st2" d="M18.8,197.6v20.1h38.9v-20.1H18.8z M29.3,214h-3.8v-7.8l-2.2,2.1l-2.2-2.3l4.9-4.8h3.3V214z M40.2,214h-6.8
				v-9.2h6.6c2.1,0,3,1.3,3,2.4s-0.7,1.8-1.6,2.1c1.1,0.2,1.8,1.1,1.8,2.2C43.2,212.8,42.2,214,40.2,214z M54.3,214h-3.8v-7.8
				l-2.2,2.1l-2.2-2.3l4.9-4.8h3.3V214z"/>
		</g>
	</g>
</g>
<g>
	<circle cx="1384.7" cy="205.2" r="48.6"/>
	<path class="st2" d="M1417.3,205.2c0,18-14.6,32.6-32.6,32.6s-32.6-14.6-32.6-32.6s14.6-32.6,32.6-32.6c6.5,0,12.7,1.9,18,5.4
		l-3.6,4.3l16.1,2.7l-5.7-15.3l-3.2,3.9c-6.4-4.4-13.8-6.7-21.6-6.7c-21.1,0-38.3,17.2-38.3,38.3s17.2,38.3,38.3,38.3
		c21.1,0,38.3-17.2,38.3-38.3H1417.3z"/>
	<g>
		<g>
			<path class="st1" d="M1371.7,221.4c0,0.8,0.5,1,1.1,1c0.4,0,0.8-0.1,1.1-0.2V219h2.3v7.7h-2.3v-2.5c-0.6,0.1-1,0.2-1.5,0.2
				c-2.1,0-3.1-1.2-3.1-3V219h2.4V221.4z"/>
			<path class="st1" d="M1382.5,226.7l-0.3-0.9h-2.8l-0.3,0.9h-2.7l2.9-7.7h2.9l2.9,7.7H1382.5z M1380.9,221.3l-0.8,2.5h1.5
				L1380.9,221.3z"/>
			<path class="st1" d="M1384.7,222.9c0-2.4,1.8-4,4.3-4c2,0,3.1,1.2,3.5,2.3l-2,0.9c-0.2-0.6-0.8-1.1-1.5-1.1
				c-1.1,0-1.9,0.9-1.9,1.9c0,1.1,0.8,1.9,1.9,1.9c0.7,0,1.3-0.5,1.5-1.1l2,0.9c-0.5,1-1.5,2.3-3.5,2.3
				C1386.6,226.9,1384.7,225.2,1384.7,222.9z"/>
			<path class="st1" d="M1398.2,226.7l-0.3-0.9h-2.8l-0.3,0.9h-2.7l2.9-7.7h2.9l2.9,7.7H1398.2z M1396.5,221.3l-0.8,2.5h1.5
				L1396.5,221.3z"/>
		</g>
		<g>
			<path class="st2" d="M1362.7,214.7v-6c11.6-8.2,12.7-9.1,12.7-11c0-1.2-1.3-2-2.9-2c-2.7,0-4.8,1-6.7,2.6l-4.2-5.1
				c2.9-3.1,7.2-4.3,10.7-4.3c6.6,0,10.9,3.7,10.9,8.7c0,3.5-2,6.3-8,10.3h8.3v6.7H1362.7z"/>
			<path class="st2" d="M1397,214.7v-4.1h-12.2v-5.9l9.2-15.4h10.7v14.6h2.9v6.7h-2.9v4.1H1397z M1397,196l-4.8,8h4.8V196z"/>
		</g>
	</g>
</g>
<g>
	<circle cx="499.4" cy="205.2" r="48.6"/>
	<circle class="st1" cx="495.2" cy="183.2" r="3.3"/>
	<circle class="st1" cx="503.6" cy="214.6" r="3.3"/>
	<circle class="st1" cx="518.1" cy="221.2" r="4.4"/>
	<circle class="st1" cx="495.2" cy="198.9" r="4.4"/>
	
		<rect x="514.6" y="191.1" transform="matrix(0.5386 0.8426 -0.8426 0.5386 406.243 -343.9706)" class="st1" width="5.2" height="15.7"/>
	
		<rect x="487.7" y="212.7" transform="matrix(0.5939 -0.8045 0.8045 0.5939 21.6392 484.0079)" class="st1" width="5.2" height="15.7"/>
	
		<rect x="476.9" y="187.7" transform="matrix(-0.6038 -0.7971 0.7971 -0.6038 613.0174 695.898)" class="st1" width="5.2" height="15.7"/>
	<path class="st2" d="M499.4,166.9c-21.1,0-38.3,17.2-38.3,38.3s17.2,38.3,38.3,38.3s38.3-17.2,38.3-38.3S520.5,166.9,499.4,166.9z
		 M466.8,205.2c0-18,14.6-32.6,32.6-32.6c5.3,0,10.2,1.3,14.7,3.5l-36.5,53.3C470.9,223.4,466.8,214.8,466.8,205.2z M499.4,237.8
		c-6.4,0-12.3-1.8-17.3-5l36.8-53.7c7.9,5.9,13.1,15.4,13.1,26.1C532,223.2,517.3,237.8,499.4,237.8z"/>
</g>
<g>
	<g>
		<circle cx="794.5" cy="205.2" r="48.6"/>
	</g>
	<g>
		<path class="st1" d="M797.5,208.4c10.9-10.7,4.8-23.1,0.1-28.2l-6.3,5.8c1.3,1.4,7.5,9,0.1,16.3c-10.9,10.8-4.8,22.9-0.1,27.8
			l6.1-5.9C796.8,223.4,789.9,215.9,797.5,208.4z"/>
		<path class="st1" d="M810.6,213.7c7.8-7.7,3.5-16.6,0.1-20.2l-4.5,4.2c0.9,1,5.4,6.5,0.1,11.7c-7.8,7.7-3.5,16.5-0.1,20l4.4-4.3
			C810.1,224.5,805.1,219.1,810.6,213.7z"/>
		<path class="st1" d="M782.7,203.7c7.8-7.7,3.5-16.6,0.1-20.2l-4.5,4.2c0.9,1,5.4,6.5,0.1,11.7c-7.8,7.7-3.5,16.5-0.1,20l4.4-4.2
			C781.8,214.1,777.4,208.8,782.7,203.7z"/>
	</g>
	<path class="st2" d="M794.5,166.9c-21.1,0-38.3,17.2-38.3,38.3s17.2,38.3,38.3,38.3s38.3-17.2,38.3-38.3S815.6,166.9,794.5,166.9z
		 M761.9,205.2c0-18,14.6-32.6,32.6-32.6c5.3,0,10.2,1.3,14.7,3.5l-36.5,53.3C766.1,223.4,761.9,214.8,761.9,205.2z M794.5,237.8
		c-6.4,0-12.3-1.8-17.3-5l36.8-53.7c7.9,5.9,13.1,15.4,13.1,26.1C827.1,223.2,812.5,237.8,794.5,237.8z"/>
</g>
<g>
	<circle cx="646.9" cy="205.2" r="48.6"/>
	<path class="st2" d="M662.7,194l-15.8-15.8L631.2,194c-8.7,8.7-8.7,22.8,0,31.5c8.7,8.7,22.8,8.7,31.5,0
		C671.4,216.9,671.4,202.7,662.7,194z"/>
</g>
<g>
	<circle cx="942" cy="205.2" r="48.6"/>
	<g>
		<path class="st2" d="M971,197.9c0-2.4-2-4.4-4.4-4.4h-9.1h-4.9h-2.5l1.5-8.8c0.7-4.2,0.2-8.5-1.5-12.3l0,0
			c-0.7-1.6-2.3-2.7-4.1-2.7h0c-2.5,0-4.5,2-4.5,4.5v7.2l-8.4,15.2h-5.6v26.4l2.5,0l9.1,5.9h6.4h11.9h2c2.4,0,4.4-2,4.4-4.4v0
			c0-2.4-2-4.4-4.4-4.4h2.7c2.4,0,4.4-2,4.4-4.4s-2-4.4-4.4-4.4h2.4c2.4,0,4.4-2,4.4-4.4v0c0-2.4-2-4.4-4.4-4.4h2
			C969,202.3,971,200.3,971,197.9z"/>
		<rect x="913.1" y="196.4" class="st2" width="9.2" height="26.5"/>
	</g>
</g>
<g>
	<circle cx="1237.2" cy="205.2" r="48.6"/>
	<g>
		<path class="st1" d="M1237.2,177c-15.6,0-28.2,12.7-28.2,28.2s12.7,28.2,28.2,28.2s28.2-12.7,28.2-28.2S1252.7,177,1237.2,177z
			 M1237.2,230.8c-14.1,0-25.6-11.5-25.6-25.6s11.5-25.6,25.6-25.6s25.6,11.5,25.6,25.6S1251.3,230.8,1237.2,230.8z"/>
		<path class="st1" d="M1235,188.3c-0.3,0-0.8,0-1.2,0c-0.5,0-1,0.1-1.6,0.2c-0.6,0.1-1.2,0.2-1.9,0.5c-0.6,0.3-1.3,0.5-2,0.8
			c-0.7,0.4-1.3,0.8-2,1.2c-0.6,0.5-1.3,1-1.8,1.6c-0.5,0.6-1.1,1.2-1.5,1.9c-0.5,0.7-0.8,1.4-1.2,2.1c-0.3,0.7-0.6,1.4-0.8,2.1
			c-0.2,0.7-0.3,1.3-0.4,1.9c-0.1,0.6-0.1,1.1-0.1,1.6c0,0.5,0,0.9,0.1,1.2c0.1,0.7,0.2,1.1,0.2,1.1s0.1-0.4,0.3-1
			c0.2-0.6,0.5-1.5,1-2.5c0.2-0.5,0.5-1,0.8-1.6c0.3-0.5,0.6-1.1,1-1.7c0.4-0.6,0.7-1.1,1.2-1.7c0.4-0.6,0.9-1.1,1.4-1.6
			c0.5-0.5,1-0.9,1.5-1.4c0.6-0.4,1.1-0.8,1.6-1.2c0.6-0.4,1.1-0.7,1.6-1c0.5-0.3,1.1-0.6,1.6-0.9c0.5-0.3,0.9-0.5,1.4-0.7
			c0.4-0.2,0.8-0.4,1.1-0.5c0.6-0.3,1-0.5,1-0.5S1235.7,188.3,1235,188.3z"/>
	</g>
</g>
<g>
	<circle cx="1089.6" cy="205.2" r="48.6"/>
	<g>
		<path class="st2" d="M1058.4,223.6h57c3,0,5.4-2.4,5.4-5.4h-62.4V223.6z"/>
		<path class="st2" d="M1118.2,211.9l-30.2-13.5l-2.4,2.4l0,0l-2.1,2.1l-3.6,3.6l-2.4,2.4l-2.1,2.1l-2.1-2.1l-6-6l-0.8-0.8l-3.9-3.9
			c-2.3,0.6-4.3,2.6-4.3,5.5v12h62.4C1120.7,214.1,1119.7,212.6,1118.2,211.9z"/>
		<polygon class="st2" points="1069.5,200.9 1075.5,206.9 1077.9,204.5 1079,203.3 1081.5,200.8 1081.5,200.8 1100.2,181.9 
			1094.2,175.9 1075.5,194.8 1066,185.4 1060,191.5 1069.5,200.9 		"/>
	</g>
</g>
</svg>
