<?xml version="1.0" encoding="utf-8"?>
<!-- Generator: Adobe Illustrator 22.0.0, SVG Export Plug-In . SVG Version: 6.00 Build 0)  -->
<svg version="1.1" id="Layer_1" xmlns="http://www.w3.org/2000/svg" xmlns:xlink="http://www.w3.org/1999/xlink" x="0px" y="0px"
	 viewBox="0 0 113.4 113.4" style="enable-background:new 0 0 113.4 113.4;" xml:space="preserve">
<style type="text/css">
	.st0{fill:#ED1C24;}
	.st1{fill:#FFFFFF;}
	.st2{fill:#FFDD00;}
</style>
<g>
	<circle class="st0" cx="499.4" cy="-91.8" r="48.6"/>
	<g>
		<path class="st1" d="M469.4-105.5c0-7.3,5.3-13.1,13.8-13.1c8.5,0,13.9,5.8,13.9,13.1c0,7.2-5.4,12.9-13.9,12.9
			C474.7-92.6,469.4-98.3,469.4-105.5z M478-66.3l32.9-51.5h7.6l-33,51.5H478z M487.6-105.5c0-3.5-2-4.9-4.5-4.9
			c-2.4,0-4.3,1.4-4.3,4.9c0,3.3,1.9,4.7,4.3,4.7C485.6-100.8,487.6-102.2,487.6-105.5z M499.3-78.2c0-7.3,5.3-13.1,13.8-13.1
			s13.8,5.8,13.8,13.1c0,7.2-5.4,12.9-13.8,12.9S499.3-71.1,499.3-78.2z M517.5-78.2c0-3.5-2-4.9-4.5-4.9s-4.4,1.4-4.4,4.9
			c0,3.4,1.9,4.7,4.4,4.7S517.5-74.8,517.5-78.2z"/>
	</g>
</g>
<g>
	<circle cx="646.9" cy="-91.8" r="48.6"/>
	<g>
		<path class="st2" d="M626.2-78.4l-4.7-7.8l-4.7,7.8h-9.1l8.6-13.1l-8-12.5h9.1l4.1,7.3l4.1-7.3h9.2l-8,12.4l8.6,13.2H626.2z"/>
		<path class="st2" d="M636.3-78.4v-25.6h7.8v13.7l8.9-13.7h8v25.6h-7.8V-93l-9.5,14.5H636.3z"/>
		<path class="st2" d="M670.2-78.4v-18.9h-6.9v-6.8h21.5v6.8H678v18.9H670.2z"/>
	</g>
</g>
<g>
	<circle class="st2" cx="794.5" cy="-91.8" r="48.6"/>
	<g>
		<path d="M770-78.4l-9.5-13v13h-7.8v-25.6h8l8.9,12.1v-12.1h7.8v25.6H770z"/>
		<path d="M781.2-78.4v-25.6h19.4v6.8H789v2.5h11.4v6.8H789v2.8h11.7v6.8H781.2z"/>
		<path d="M823.3-78.4L820-93l-3.3,14.5h-8.1l-7.3-25.6h8.7l3.3,15.7l3.9-15.7h5.8l3.9,15.7l3.3-15.7h8.7l-7.3,25.6H823.3z"/>
	</g>
</g>
<g>
	<path d="M113-110.5c0-4.1-2.7-7.3-6.5-8.2l6.4-10.1h-11.4l-1.6,2.5c-1.6-1.8-3.9-2.8-6.7-2.8c-1.2,0-2.3,0.2-3.3,0.6
		c-8.5-7.4-19.7-12-31.9-12c-12,0-23,4.4-31.5,11.6H16.3L0.4-113.2l10.2,10.6c-0.8,3.5-1.2,7.1-1.2,10.8c0,26.8,21.8,48.6,48.6,48.6
		c26.8,0,48.6-21.8,48.6-48.6c0-3.5-0.4-7-1.1-10.3C109.8-102.7,113-106.1,113-110.5z"/>
	<g>
		<polygon class="st2" points="5.5,-113.1 11,-107.4 16.4,-112.8 16.4,-93.1 26.1,-93.1 26.1,-125.1 17.8,-125.1 		"/>
		<path class="st2" d="M43.8-125.6c-9.6,0-14.2,7.8-14.2,16.5s4.7,16.6,14.2,16.6c9.6,0,14.2-7.9,14.2-16.6S53.4-125.6,43.8-125.6z
			 M43.8-101.1c-3.1,0-4.5-2.6-4.5-8c0-5.4,1.4-8,4.5-8c3.1,0,4.5,2.5,4.5,8C48.3-103.7,46.9-101.1,43.8-101.1z"/>
		<path class="st2" d="M74-125.6c-9.6,0-14.2,7.8-14.2,16.5S64.4-92.5,74-92.5c9.6,0,14.2-7.9,14.2-16.6S83.5-125.6,74-125.6z
			 M74-101.1c-3.1,0-4.5-2.6-4.5-8c0-5.4,1.4-8,4.5-8c3.1,0,4.5,2.5,4.5,8C78.4-103.7,77-101.1,74-101.1z"/>
		<path class="st2" d="M98.3-120.6c0-2.7-2-4.8-5.1-4.8c-3.1,0-5.1,2.1-5.1,4.8c0,2.7,2,4.8,5.1,4.8
			C96.3-115.8,98.3-117.9,98.3-120.6z M91.6-120.6c0-1.3,0.7-1.8,1.6-1.8c0.9,0,1.7,0.5,1.7,1.8c0,1.2-0.7,1.7-1.7,1.7
			C92.3-118.8,91.6-119.3,91.6-120.6z"/>
		<polygon class="st2" points="103.4,-125.1 91.2,-106 94,-106 106.2,-125.1 		"/>
		<path class="st2" d="M104.2-115.3c-3.1,0-5.1,2.1-5.1,4.8c0,2.7,2,4.8,5.1,4.8c3.1,0,5.1-2.1,5.1-4.8
			C109.3-113.2,107.3-115.3,104.2-115.3z M104.2-108.7c-0.9,0-1.6-0.5-1.6-1.7c0-1.3,0.7-1.8,1.6-1.8c0.9,0,1.7,0.5,1.7,1.8
			C105.9-109.2,105.1-108.7,104.2-108.7z"/>
	</g>
	<g>
		<g>
			<path class="st1" d="M38.7-86.5v1.4h-2.6v5.1h-1.8v-6.5H38.7z"/>
			<path class="st1" d="M43.4-80l-0.3-1.2H41L40.7-80h-1.9l2.1-6.5h2.3l2.1,6.5H43.4z M42.7-82.6l-0.3-1.1c-0.1-0.2-0.1-0.5-0.2-0.9
				s-0.2-0.6-0.2-0.8c0,0.2-0.1,0.4-0.2,0.7s-0.3,1-0.5,2H42.7z"/>
			<path class="st1" d="M50.5-84.4c0,0.7-0.2,1.3-0.6,1.7c-0.4,0.4-1,0.6-1.8,0.6h-0.5v2.1h-1.7v-6.5H48c0.8,0,1.4,0.2,1.8,0.5
				C50.3-85.6,50.5-85.1,50.5-84.4z M47.5-83.6h0.3c0.3,0,0.5-0.1,0.6-0.2s0.2-0.4,0.2-0.6c0-0.4-0.2-0.7-0.7-0.7h-0.5V-83.6z"/>
			<path class="st1" d="M55.3-80l-0.3-1.2h-2.1L52.5-80h-1.9l2.1-6.5H55l2.1,6.5H55.3z M54.6-82.6l-0.3-1.1
				c-0.1-0.2-0.1-0.5-0.2-0.9s-0.2-0.6-0.2-0.8c0,0.2-0.1,0.4-0.2,0.7s-0.3,1-0.5,2H54.6z"/>
			<path class="st1" d="M63.2-80h-1.8v-2.6h-2v2.6h-1.8v-6.5h1.8v2.4h2v-2.4h1.8V-80z"/>
			<path class="st1" d="M67.2-80h-1.7v-5h-1.6v-1.4h4.9v1.4h-1.6V-80z"/>
			<path class="st1" d="M69.5-86.5H71v2.8c0,0.3,0,0.9-0.1,1.8h0l2.6-4.5h2.2v6.5h-1.5v-2.7c0-0.4,0-1,0.1-1.8h0L71.6-80h-2.2V-86.5
				z"/>
			<path class="st1" d="M79.4-82.3L78.1-80h-2l1.8-2.8c-0.3-0.2-0.6-0.4-0.8-0.7c-0.2-0.3-0.3-0.6-0.3-1c0-1.3,0.9-1.9,2.6-1.9h2.1
				v6.5h-1.7v-2.4H79.4z M79.9-85.1h-0.4c-0.3,0-0.5,0.1-0.7,0.2c-0.2,0.1-0.2,0.3-0.2,0.5c0,0.3,0.1,0.5,0.2,0.6s0.4,0.2,0.7,0.2
				h0.3V-85.1z"/>
			<path class="st1" d="M27.3-69.1h-1.8v-5h-1.8v5H22v-6.5h5.3V-69.1z"/>
			<path class="st1" d="M34.5-72.4c0,1.1-0.3,1.9-0.8,2.5c-0.5,0.6-1.3,0.8-2.3,0.8c-1,0-1.8-0.3-2.3-0.9c-0.5-0.6-0.8-1.4-0.8-2.5
				c0-1.1,0.3-1.9,0.8-2.5c0.5-0.6,1.3-0.9,2.3-0.9c1,0,1.8,0.3,2.3,0.8C34.2-74.3,34.5-73.4,34.5-72.4z M30-72.4
				c0,1.3,0.4,1.9,1.3,1.9c0.4,0,0.8-0.2,1-0.5s0.3-0.8,0.3-1.4c0-0.6-0.1-1.1-0.3-1.4c-0.2-0.3-0.5-0.5-1-0.5
				C30.5-74.2,30-73.6,30-72.4z"/>
			<path class="st1" d="M41.9-67.1h-1.7v-2h-3.8v2h-1.7v-3.4h0.5c0.4-0.7,0.7-1.4,1-2.3c0.3-0.9,0.4-1.8,0.5-2.8h4.3v5h0.9V-67.1z
				 M39.3-70.5v-3.6h-1.2c-0.1,1.3-0.5,2.5-1,3.6H39.3z"/>
			<path class="st1" d="M48.1-69.1h-1.8v-5h-1.2c-0.1,0.7-0.2,1.5-0.3,2.2c-0.1,0.8-0.2,1.3-0.3,1.6c-0.1,0.3-0.2,0.6-0.4,0.7
				c-0.2,0.2-0.4,0.3-0.6,0.4C43.3-69.1,43-69,42.7-69c-0.3,0-0.5,0-0.7-0.1v-1.3c0.2,0.1,0.3,0.1,0.4,0.1c0.2,0,0.3-0.1,0.4-0.2
				c0.1-0.1,0.2-0.3,0.2-0.7c0.1-0.3,0.2-0.9,0.3-1.7s0.2-1.7,0.3-2.6h4.5V-69.1z"/>
			<path class="st1" d="M49.3-75.6h1.6v2.8c0,0.3,0,0.9-0.1,1.8h0l2.6-4.5h2.2v6.5H54v-2.7c0-0.4,0-1,0.1-1.8h0l-2.6,4.5h-2.2V-75.6
				z"/>
			<path class="st1" d="M62.2-69.1h-1.8v-2.6h-2v2.6h-1.8v-6.5h1.8v2.4h2v-2.4h1.8V-69.1z"/>
			<path class="st1" d="M68.9-69.1h-1.8v-2.6h-2v2.6h-1.8v-6.5h1.8v2.4h2v-2.4h1.8V-69.1z"/>
			<path class="st1" d="M76.2-72.4c0,1.1-0.3,1.9-0.8,2.5C74.8-69.3,74-69,73-69c-1,0-1.8-0.3-2.3-0.9c-0.5-0.6-0.8-1.4-0.8-2.5
				c0-1.1,0.3-1.9,0.8-2.5c0.5-0.6,1.3-0.9,2.3-0.9c1,0,1.8,0.3,2.3,0.8C75.9-74.3,76.2-73.4,76.2-72.4z M71.7-72.4
				c0,1.3,0.4,1.9,1.3,1.9c0.4,0,0.8-0.2,1-0.5s0.3-0.8,0.3-1.4c0-0.6-0.1-1.1-0.3-1.4c-0.2-0.3-0.5-0.5-1-0.5
				C72.2-74.2,71.7-73.6,71.7-72.4z"/>
			<path class="st1" d="M80-74.2c-0.4,0-0.7,0.2-1,0.5c-0.2,0.3-0.3,0.8-0.3,1.4c0,1.2,0.5,1.9,1.4,1.9c0.3,0,0.6,0,0.8-0.1
				c0.3-0.1,0.5-0.2,0.8-0.3v1.5c-0.5,0.2-1.2,0.4-1.8,0.4c-1,0-1.7-0.3-2.2-0.8c-0.5-0.6-0.8-1.4-0.8-2.5c0-0.7,0.1-1.3,0.4-1.8
				s0.6-0.9,1.1-1.2c0.5-0.3,1-0.4,1.7-0.4c0.7,0,1.4,0.2,2,0.5l-0.5,1.4C81.2-74,81-74,80.8-74.1C80.5-74.2,80.3-74.2,80-74.2z"/>
			<path class="st1" d="M85.6-69.1h-1.7v-5h-1.6v-1.4h4.9v1.4h-1.6V-69.1z"/>
			<path class="st1" d="M87.9-75.6h1.6v2.8c0,0.3,0,0.9-0.1,1.8h0l2.6-4.5h2.2v6.5h-1.5v-2.7c0-0.4,0-1,0.1-1.8h0L90-69.1h-2.2
				V-75.6z"/>
			<path class="st1" d="M43.4-58.2h-1.7v-5h-1.6v-1.4H45v1.4h-1.6V-58.2z"/>
			<path class="st1" d="M51.7-61.5c0,1.1-0.3,1.9-0.8,2.5c-0.5,0.6-1.3,0.8-2.3,0.8c-1,0-1.8-0.3-2.3-0.9c-0.5-0.6-0.8-1.4-0.8-2.5
				c0-1.1,0.3-1.9,0.8-2.5c0.5-0.6,1.3-0.9,2.3-0.9c1,0,1.8,0.3,2.3,0.8C51.5-63.4,51.7-62.6,51.7-61.5z M47.3-61.5
				c0,1.3,0.4,1.9,1.3,1.9c0.4,0,0.8-0.2,1-0.5s0.3-0.8,0.3-1.4c0-0.6-0.1-1.1-0.3-1.4c-0.2-0.3-0.5-0.5-1-0.5
				C47.7-63.4,47.3-62.7,47.3-61.5z"/>
			<path class="st1" d="M52.7-64.7h2.3c0.9,0,1.5,0.1,2,0.4c0.4,0.3,0.6,0.7,0.6,1.2c0,0.4-0.1,0.7-0.3,0.9
				c-0.2,0.3-0.4,0.4-0.7,0.5v0c0.4,0.1,0.7,0.3,0.9,0.5c0.2,0.2,0.3,0.6,0.3,1c0,0.6-0.2,1-0.7,1.4c-0.4,0.3-1,0.5-1.8,0.5h-2.5
				V-64.7z M54.4-62.2h0.5c0.3,0,0.4-0.1,0.6-0.2c0.1-0.1,0.2-0.3,0.2-0.5c0-0.4-0.3-0.5-0.8-0.5h-0.5V-62.2z M54.4-60.9v1.4H55
				c0.5,0,0.8-0.2,0.8-0.7c0-0.2-0.1-0.4-0.2-0.5c-0.1-0.1-0.4-0.2-0.6-0.2H54.4z"/>
			<path class="st1" d="M62.5-58.2l-0.3-1.2h-2.1l-0.3,1.2h-1.9l2.1-6.5h2.3l2.1,6.5H62.5z M61.8-60.9l-0.3-1.1
				c-0.1-0.2-0.1-0.5-0.2-0.9s-0.2-0.6-0.2-0.8c0,0.2-0.1,0.4-0.2,0.7s-0.3,1-0.5,2H61.8z"/>
			<path class="st1" d="M69.6-62.7c0,0.7-0.2,1.3-0.6,1.7c-0.4,0.4-1,0.6-1.8,0.6h-0.5v2.1h-1.7v-6.5h2.2c0.8,0,1.4,0.2,1.8,0.5
				C69.4-63.8,69.6-63.3,69.6-62.7z M66.6-61.8H67c0.3,0,0.5-0.1,0.6-0.2s0.2-0.4,0.2-0.6c0-0.4-0.2-0.7-0.7-0.7h-0.5V-61.8z"/>
			<path class="st1" d="M74.4-58.2L74-59.5h-2.1l-0.3,1.2h-1.9l2.1-6.5h2.3l2.1,6.5H74.4z M73.7-60.9l-0.3-1.1
				c-0.1-0.2-0.1-0.5-0.2-0.9S73-63.5,73-63.7c0,0.2-0.1,0.4-0.2,0.7s-0.3,1-0.5,2H73.7z"/>
		</g>
	</g>
</g>
<g>
	<path d="M260.5-110.5c0-4.1-2.7-7.3-6.5-8.2l6.4-10.1H249l-1.6,2.5c-1.6-1.8-3.9-2.8-6.7-2.8c-1.2,0-2.3,0.2-3.3,0.6
		c-8.5-7.4-19.7-12-31.9-12c-12,0-23,4.4-31.5,11.6h-10.1L148-113.2l10.2,10.6c-0.8,3.5-1.2,7.1-1.2,10.8
		c0,26.8,21.8,48.6,48.6,48.6s48.6-21.8,48.6-48.6c0-3.5-0.4-7-1.1-10.3C257.4-102.7,260.5-106.1,260.5-110.5z"/>
	<g>
		<polygon class="st2" points="153.1,-113.1 158.6,-107.4 164,-112.8 164,-93.1 173.7,-93.1 173.7,-125.1 165.3,-125.1 		"/>
		<path class="st2" d="M191.4-125.6c-9.6,0-14.2,7.8-14.2,16.5s4.7,16.6,14.2,16.6c9.6,0,14.2-7.9,14.2-16.6
			S200.9-125.6,191.4-125.6z M191.4-101.1c-3.1,0-4.5-2.6-4.5-8c0-5.4,1.4-8,4.5-8c3.1,0,4.5,2.5,4.5,8
			C195.8-103.7,194.4-101.1,191.4-101.1z"/>
		<path class="st2" d="M221.5-125.6c-9.6,0-14.2,7.8-14.2,16.5s4.7,16.6,14.2,16.6c9.6,0,14.2-7.9,14.2-16.6
			S231.1-125.6,221.5-125.6z M221.5-101.1c-3.1,0-4.5-2.6-4.5-8c0-5.4,1.4-8,4.5-8c3.1,0,4.5,2.5,4.5,8
			C226-103.7,224.6-101.1,221.5-101.1z"/>
		<path class="st2" d="M245.9-120.6c0-2.7-2-4.8-5.1-4.8c-3.1,0-5.1,2.1-5.1,4.8c0,2.7,2,4.8,5.1,4.8
			C243.9-115.8,245.9-117.9,245.9-120.6z M239.1-120.6c0-1.3,0.7-1.8,1.6-1.8c0.9,0,1.7,0.5,1.7,1.8c0,1.2-0.7,1.7-1.7,1.7
			C239.8-118.8,239.1-119.3,239.1-120.6z"/>
		<path class="st2" d="M251.8-115.3c-3.1,0-5.1,2.1-5.1,4.8c0,2.7,2,4.8,5.1,4.8c3.1,0,5.1-2.1,5.1-4.8
			C256.9-113.2,254.9-115.3,251.8-115.3z M251.8-108.7c-0.9,0-1.6-0.5-1.6-1.7c0-1.3,0.7-1.8,1.6-1.8c0.9,0,1.7,0.5,1.7,1.8
			C253.4-109.2,252.7-108.7,251.8-108.7z"/>
		<polygon class="st2" points="251,-125.1 238.8,-106 241.6,-106 253.8,-125.1 		"/>
	</g>
	<g>
		<g>
			<path class="st1" d="M186.3-86.5v1.4h-2.6v5.1H182v-6.5H186.3z"/>
			<path class="st1" d="M191-80l-0.3-1.2h-2.1l-0.3,1.2h-1.9l2.1-6.5h2.3l2.1,6.5H191z M190.3-82.6l-0.3-1.1
				c-0.1-0.2-0.1-0.5-0.2-0.9c-0.1-0.4-0.2-0.6-0.2-0.8c0,0.2-0.1,0.4-0.2,0.7s-0.3,1-0.5,2H190.3z"/>
			<path class="st1" d="M198-84.4c0,0.7-0.2,1.3-0.6,1.7c-0.4,0.4-1,0.6-1.8,0.6h-0.5v2.1h-1.7v-6.5h2.2c0.8,0,1.4,0.2,1.8,0.5
				C197.8-85.6,198-85.1,198-84.4z M195.1-83.6h0.3c0.3,0,0.5-0.1,0.6-0.2c0.2-0.1,0.2-0.4,0.2-0.6c0-0.4-0.2-0.7-0.7-0.7h-0.5
				V-83.6z"/>
			<path class="st1" d="M202.8-80l-0.3-1.2h-2.1l-0.3,1.2h-1.9l2.1-6.5h2.3l2.1,6.5H202.8z M202.1-82.6l-0.3-1.1
				c-0.1-0.2-0.1-0.5-0.2-0.9s-0.2-0.6-0.2-0.8c0,0.2-0.1,0.4-0.2,0.7s-0.3,1-0.5,2H202.1z"/>
			<path class="st1" d="M210.7-80H209v-2.6h-2v2.6h-1.8v-6.5h1.8v2.4h2v-2.4h1.8V-80z"/>
			<path class="st1" d="M214.8-80H213v-5h-1.6v-1.4h4.9v1.4h-1.6V-80z"/>
			<path class="st1" d="M217-86.5h1.6v2.8c0,0.3,0,0.9-0.1,1.8h0l2.6-4.5h2.2v6.5h-1.5v-2.7c0-0.4,0-1,0.1-1.8h0l-2.6,4.5H217V-86.5
				z"/>
			<path class="st1" d="M227-82.3l-1.3,2.4h-2l1.8-2.8c-0.3-0.2-0.6-0.4-0.8-0.7s-0.3-0.6-0.3-1c0-1.3,0.9-1.9,2.6-1.9h2.1v6.5h-1.7
				v-2.4H227z M227.5-85.1h-0.4c-0.3,0-0.5,0.1-0.7,0.2c-0.2,0.1-0.2,0.3-0.2,0.5c0,0.3,0.1,0.5,0.2,0.6c0.2,0.1,0.4,0.2,0.7,0.2
				h0.3V-85.1z"/>
			<path class="st1" d="M188.4-69.1h-2l-1.9-3.3v3.3h-1.8v-6.5h1.8v3.1l1.8-3.1h1.9l-2,3.1L188.4-69.1z"/>
			<path class="st1" d="M192.8-69.1l-0.3-1.2h-2.1l-0.3,1.2h-1.9l2.1-6.5h2.3l2.1,6.5H192.8z M192.2-71.8l-0.3-1.1
				c-0.1-0.2-0.1-0.5-0.2-0.9s-0.2-0.6-0.2-0.8c0,0.2-0.1,0.4-0.2,0.7s-0.3,1-0.5,2H192.2z"/>
			<path class="st1" d="M200.7-69.1h-1.8v-2.4c-0.7,0.3-1.4,0.4-2,0.4c-0.6,0-1.1-0.2-1.4-0.5s-0.5-0.7-0.5-1.3v-2.7h1.8v2.2
				c0,0.3,0.1,0.5,0.2,0.7s0.3,0.2,0.6,0.2c0.4,0,0.8-0.1,1.4-0.3v-2.7h1.8V-69.1z"/>
			<path class="st1" d="M205.7-69.1h-3.8v-6.5h3.8v1.4h-2.1v1h1.9v1.4h-1.9v1.2h2.1V-69.1z"/>
			<path class="st1" d="M209.5-74.2c-0.4,0-0.7,0.2-1,0.5c-0.2,0.3-0.3,0.8-0.3,1.4c0,1.2,0.5,1.9,1.4,1.9c0.3,0,0.6,0,0.8-0.1
				c0.3-0.1,0.5-0.2,0.8-0.3v1.5c-0.5,0.2-1.1,0.4-1.8,0.4c-1,0-1.7-0.3-2.2-0.8c-0.5-0.6-0.8-1.4-0.8-2.5c0-0.7,0.1-1.3,0.4-1.8
				c0.3-0.5,0.6-0.9,1.1-1.2c0.5-0.3,1-0.4,1.7-0.4c0.7,0,1.4,0.2,2,0.5l-0.5,1.4c-0.2-0.1-0.5-0.2-0.7-0.3
				C210-74.2,209.8-74.2,209.5-74.2z"/>
			<path class="st1" d="M215.1-69.1h-1.7v-5h-1.6v-1.4h4.9v1.4h-1.6V-69.1z"/>
			<path class="st1" d="M217.4-75.6h2.3c0.9,0,1.5,0.1,2,0.4c0.4,0.3,0.6,0.7,0.6,1.2c0,0.4-0.1,0.7-0.3,0.9
				c-0.2,0.3-0.4,0.4-0.7,0.5v0c0.4,0.1,0.7,0.3,0.9,0.5c0.2,0.2,0.3,0.6,0.3,1c0,0.6-0.2,1-0.7,1.4c-0.4,0.3-1,0.5-1.8,0.5h-2.5
				V-75.6z M219.1-73.1h0.5c0.3,0,0.4-0.1,0.6-0.2c0.1-0.1,0.2-0.3,0.2-0.5c0-0.4-0.3-0.5-0.8-0.5h-0.5V-73.1z M219.1-71.8v1.4h0.6
				c0.5,0,0.8-0.2,0.8-0.7c0-0.2-0.1-0.4-0.2-0.5c-0.1-0.1-0.4-0.2-0.6-0.2H219.1z"/>
			<path class="st1" d="M227.2-69.1l-0.3-1.2h-2.1l-0.3,1.2h-1.9l2.1-6.5h2.3l2.1,6.5H227.2z M226.6-71.8l-0.3-1.1
				c-0.1-0.2-0.1-0.5-0.2-0.9s-0.2-0.6-0.2-0.8c0,0.2-0.1,0.4-0.2,0.7s-0.3,1-0.5,2H226.6z"/>
			<path class="st1" d="M191-58.2h-1.7v-5h-1.6v-1.4h4.9v1.4H191V-58.2z"/>
			<path class="st1" d="M199.3-61.5c0,1.1-0.3,1.9-0.8,2.5c-0.5,0.6-1.3,0.8-2.3,0.8c-1,0-1.8-0.3-2.3-0.9c-0.5-0.6-0.8-1.4-0.8-2.5
				c0-1.1,0.3-1.9,0.8-2.5c0.5-0.6,1.3-0.9,2.3-0.9c1,0,1.8,0.3,2.3,0.8C199-63.4,199.3-62.6,199.3-61.5z M194.8-61.5
				c0,1.3,0.4,1.9,1.3,1.9c0.4,0,0.8-0.2,1-0.5s0.3-0.8,0.3-1.4c0-0.6-0.1-1.1-0.3-1.4c-0.2-0.3-0.5-0.5-1-0.5
				C195.3-63.4,194.8-62.7,194.8-61.5z"/>
			<path class="st1" d="M200.2-64.7h2.3c0.9,0,1.5,0.1,2,0.4c0.4,0.3,0.6,0.7,0.6,1.2c0,0.4-0.1,0.7-0.3,0.9
				c-0.2,0.3-0.4,0.4-0.7,0.5v0c0.4,0.1,0.7,0.3,0.9,0.5c0.2,0.2,0.3,0.6,0.3,1c0,0.6-0.2,1-0.7,1.4c-0.4,0.3-1,0.5-1.8,0.5h-2.5
				V-64.7z M202-62.2h0.5c0.3,0,0.4-0.1,0.6-0.2c0.1-0.1,0.2-0.3,0.2-0.5c0-0.4-0.3-0.5-0.8-0.5H202V-62.2z M202-60.9v1.4h0.6
				c0.5,0,0.8-0.2,0.8-0.7c0-0.2-0.1-0.4-0.2-0.5c-0.1-0.1-0.4-0.2-0.6-0.2H202z"/>
			<path class="st1" d="M210.1-58.2l-0.3-1.2h-2.1l-0.3,1.2h-1.9l2.1-6.5h2.3l2.1,6.5H210.1z M209.4-60.9l-0.3-1.1
				c-0.1-0.2-0.1-0.5-0.2-0.9s-0.2-0.6-0.2-0.8c0,0.2-0.1,0.4-0.2,0.7s-0.3,1-0.5,2H209.4z"/>
			<path class="st1" d="M217.1-62.7c0,0.7-0.2,1.3-0.6,1.7c-0.4,0.4-1,0.6-1.8,0.6h-0.5v2.1h-1.7v-6.5h2.2c0.8,0,1.4,0.2,1.8,0.5
				C216.9-63.8,217.1-63.3,217.1-62.7z M214.2-61.8h0.3c0.3,0,0.5-0.1,0.6-0.2c0.2-0.1,0.2-0.4,0.2-0.6c0-0.4-0.2-0.7-0.7-0.7h-0.5
				V-61.8z"/>
			<path class="st1" d="M221.9-58.2l-0.3-1.2h-2.1l-0.3,1.2h-1.9l2.1-6.5h2.3l2.1,6.5H221.9z M221.2-60.9l-0.3-1.1
				c-0.1-0.2-0.1-0.5-0.2-0.9s-0.2-0.6-0.2-0.8c0,0.2-0.1,0.4-0.2,0.7s-0.3,1-0.5,2H221.2z"/>
		</g>
	</g>
</g>
<g>
	<path d="M408.1-110.5c0-4.1-2.7-7.3-6.5-8.2l6.4-10.1h-11.4l-1.6,2.5c-1.6-1.8-3.9-2.8-6.7-2.8c-1.2,0-2.3,0.2-3.3,0.6
		c-8.5-7.4-19.7-12-31.9-12c-12,0-23,4.4-31.5,11.6h-10.1l-15.9,15.6l10.2,10.6c-0.8,3.5-1.2,7.1-1.2,10.8
		c0,26.8,21.8,48.6,48.6,48.6c26.8,0,48.6-21.8,48.6-48.6c0-3.5-0.4-7-1.1-10.3C404.9-102.7,408.1-106.1,408.1-110.5z"/>
	<g>
		<g>
			<path class="st2" d="M311.5-93.1v-19.7l-5.4,5.4l-5.5-5.7l12.2-12h8.4v32H311.5z"/>
			<path class="st2" d="M324.7-109.1c0-8.7,4.7-16.5,14.2-16.5c9.6,0,14.2,7.8,14.2,16.5s-4.7,16.6-14.2,16.6
				C329.4-92.5,324.7-100.4,324.7-109.1z M343.4-109.1c0-5.4-1.4-8-4.5-8c-3.1,0-4.5,2.5-4.5,8c0,5.4,1.4,8,4.5,8
				C342-101.1,343.4-103.7,343.4-109.1z"/>
			<path class="st2" d="M354.9-109.1c0-8.7,4.7-16.5,14.2-16.5c9.6,0,14.2,7.8,14.2,16.5s-4.7,16.6-14.2,16.6
				C359.5-92.5,354.9-100.4,354.9-109.1z M373.6-109.1c0-5.4-1.4-8-4.5-8c-3.1,0-4.5,2.5-4.5,8c0,5.4,1.4,8,4.5,8
				C372.2-101.1,373.6-103.7,373.6-109.1z"/>
		</g>
		<path class="st2" d="M383.2-120.6c0-2.7,2-4.8,5.1-4.8c3.1,0,5.1,2.1,5.1,4.8c0,2.7-2,4.8-5.1,4.8
			C385.2-115.8,383.2-117.9,383.2-120.6z M386.4-106l12.2-19.1h2.8L389.1-106H386.4z M389.9-120.6c0-1.3-0.7-1.8-1.7-1.8
			c-0.9,0-1.6,0.5-1.6,1.8c0,1.2,0.7,1.7,1.6,1.7C389.2-118.8,389.9-119.3,389.9-120.6z M394.3-110.5c0-2.7,2-4.8,5.1-4.8
			c3.1,0,5.1,2.1,5.1,4.8c0,2.7-2,4.8-5.1,4.8C396.2-105.7,394.3-107.8,394.3-110.5z M401-110.5c0-1.3-0.7-1.8-1.7-1.8
			c-0.9,0-1.6,0.5-1.6,1.8c0,1.3,0.7,1.7,1.6,1.7C400.3-108.7,401-109.2,401-110.5z"/>
	</g>
	<g>
		<g>
			<path class="st1" d="M333.9-86.5v1.4h-2.6v5.1h-1.8v-6.5H333.9z"/>
			<path class="st1" d="M338.5-80l-0.3-1.2h-2.1l-0.3,1.2h-1.9l2.1-6.5h2.3l2.1,6.5H338.5z M337.9-82.6l-0.3-1.1
				c-0.1-0.2-0.1-0.5-0.2-0.9s-0.2-0.6-0.2-0.8c0,0.2-0.1,0.4-0.2,0.7s-0.3,1-0.5,2H337.9z"/>
			<path class="st1" d="M345.6-84.4c0,0.7-0.2,1.3-0.6,1.7c-0.4,0.4-1,0.6-1.8,0.6h-0.5v2.1h-1.7v-6.5h2.2c0.8,0,1.4,0.2,1.8,0.5
				C345.4-85.6,345.6-85.1,345.6-84.4z M342.7-83.6h0.3c0.3,0,0.5-0.1,0.6-0.2c0.2-0.1,0.2-0.4,0.2-0.6c0-0.4-0.2-0.7-0.7-0.7h-0.5
				V-83.6z"/>
			<path class="st1" d="M350.4-80l-0.3-1.2H348l-0.3,1.2h-1.9l2.1-6.5h2.3l2.1,6.5H350.4z M349.7-82.6l-0.3-1.1
				c-0.1-0.2-0.1-0.5-0.2-0.9s-0.2-0.6-0.2-0.8c0,0.2-0.1,0.4-0.2,0.7s-0.3,1-0.5,2H349.7z"/>
			<path class="st1" d="M358.3-80h-1.8v-2.6h-2v2.6h-1.8v-6.5h1.8v2.4h2v-2.4h1.8V-80z"/>
			<path class="st1" d="M362.3-80h-1.7v-5H359v-1.4h4.9v1.4h-1.6V-80z"/>
			<path class="st1" d="M364.6-86.5h1.6v2.8c0,0.3,0,0.9-0.1,1.8h0l2.6-4.5h2.2v6.5h-1.5v-2.7c0-0.4,0-1,0.1-1.8h0l-2.6,4.5h-2.2
				V-86.5z"/>
			<path class="st1" d="M374.5-82.3l-1.3,2.4h-2l1.8-2.8c-0.3-0.2-0.6-0.4-0.8-0.7s-0.3-0.6-0.3-1c0-1.3,0.9-1.9,2.6-1.9h2.1v6.5
				H375v-2.4H374.5z M375-85.1h-0.4c-0.3,0-0.5,0.1-0.7,0.2c-0.2,0.1-0.2,0.3-0.2,0.5c0,0.3,0.1,0.5,0.2,0.6
				c0.2,0.1,0.4,0.2,0.7,0.2h0.3V-85.1z"/>
			<path class="st1" d="M329.8-75.6h2.3c0.9,0,1.5,0.1,2,0.4c0.4,0.3,0.6,0.7,0.6,1.2c0,0.4-0.1,0.7-0.3,0.9
				c-0.2,0.3-0.4,0.4-0.7,0.5v0c0.4,0.1,0.7,0.3,0.9,0.5c0.2,0.2,0.3,0.6,0.3,1c0,0.6-0.2,1-0.7,1.4c-0.4,0.3-1,0.5-1.8,0.5h-2.5
				V-75.6z M331.6-73.1h0.5c0.3,0,0.4-0.1,0.6-0.2c0.1-0.1,0.2-0.3,0.2-0.5c0-0.4-0.3-0.5-0.8-0.5h-0.5V-73.1z M331.6-71.8v1.4h0.6
				c0.5,0,0.8-0.2,0.8-0.7c0-0.2-0.1-0.4-0.2-0.5c-0.1-0.1-0.4-0.2-0.6-0.2H331.6z"/>
			<path class="st1" d="M341.7-72.4c0,1.1-0.3,1.9-0.8,2.5c-0.5,0.6-1.3,0.8-2.3,0.8c-1,0-1.8-0.3-2.3-0.9c-0.5-0.6-0.8-1.4-0.8-2.5
				c0-1.1,0.3-1.9,0.8-2.5s1.3-0.9,2.3-0.9c1,0,1.8,0.3,2.3,0.8C341.5-74.3,341.7-73.4,341.7-72.4z M337.3-72.4
				c0,1.3,0.4,1.9,1.3,1.9c0.4,0,0.8-0.2,1-0.5s0.3-0.8,0.3-1.4c0-0.6-0.1-1.1-0.3-1.4c-0.2-0.3-0.5-0.5-1-0.5
				C337.7-74.2,337.3-73.6,337.3-72.4z"/>
			<path class="st1" d="M347.3-74.1c0,0.9-0.5,1.4-1.5,1.5v0c0.6,0,1,0.2,1.3,0.5c0.3,0.3,0.4,0.6,0.4,1.1c0,0.4-0.1,0.7-0.3,1
				s-0.5,0.5-0.9,0.7c-0.4,0.2-0.9,0.2-1.5,0.2c-1,0-1.9-0.1-2.5-0.3v-1.5c0.3,0.1,0.6,0.2,1,0.3s0.7,0.1,1.1,0.1
				c0.5,0,0.9-0.1,1.1-0.2c0.2-0.1,0.3-0.3,0.3-0.5c0-0.4-0.5-0.6-1.5-0.6h-0.8v-1.4h0.7c0.3,0,0.6,0,0.8-0.1c0.2,0,0.3-0.1,0.4-0.2
				c0.1-0.1,0.1-0.2,0.1-0.3c0-0.3-0.3-0.5-0.9-0.5c-0.6,0-1.1,0.2-1.5,0.5l-0.7-1.2c0.4-0.2,0.8-0.4,1.2-0.5
				c0.4-0.1,0.9-0.2,1.4-0.2c0.7,0,1.3,0.1,1.7,0.4C347.1-74.9,347.3-74.5,347.3-74.1z"/>
			<path class="st1" d="M348.5-75.6h2.3c0.9,0,1.5,0.1,2,0.4c0.4,0.3,0.6,0.7,0.6,1.2c0,0.4-0.1,0.7-0.3,0.9
				c-0.2,0.3-0.4,0.4-0.7,0.5v0c0.4,0.1,0.7,0.3,0.9,0.5c0.2,0.2,0.3,0.6,0.3,1c0,0.6-0.2,1-0.7,1.4c-0.4,0.3-1,0.5-1.8,0.5h-2.5
				V-75.6z M350.2-73.1h0.5c0.3,0,0.4-0.1,0.6-0.2c0.1-0.1,0.2-0.3,0.2-0.5c0-0.4-0.3-0.5-0.8-0.5h-0.5V-73.1z M350.2-71.8v1.4h0.6
				c0.5,0,0.8-0.2,0.8-0.7c0-0.2-0.1-0.4-0.2-0.5c-0.1-0.1-0.4-0.2-0.6-0.2H350.2z"/>
			<path class="st1" d="M359.1-73.5c0,0.7-0.2,1.3-0.6,1.7c-0.4,0.4-1,0.6-1.8,0.6h-0.5v2.1h-1.7v-6.5h2.2c0.8,0,1.4,0.2,1.8,0.5
				C358.9-74.7,359.1-74.2,359.1-73.5z M356.1-72.7h0.3c0.3,0,0.5-0.1,0.6-0.2c0.2-0.1,0.2-0.4,0.2-0.6c0-0.4-0.2-0.7-0.7-0.7h-0.5
				V-72.7z"/>
			<path class="st1" d="M363.8-69.1l-0.3-1.2h-2.1l-0.3,1.2h-1.9l2.1-6.5h2.3l2.1,6.5H363.8z M363.2-71.8l-0.3-1.1
				c-0.1-0.2-0.1-0.5-0.2-0.9s-0.2-0.6-0.2-0.8c0,0.2-0.1,0.4-0.2,0.7s-0.3,1-0.5,2H363.2z"/>
			<path class="st1" d="M369.1-69.1h-1.7v-5h-1.6v-1.4h4.9v1.4h-1.6V-69.1z"/>
			<path class="st1" d="M375.3-69.1l-0.3-1.2h-2.1l-0.3,1.2h-1.9l2.1-6.5h2.3l2.1,6.5H375.3z M374.6-71.8l-0.3-1.1
				c-0.1-0.2-0.1-0.5-0.2-0.9s-0.2-0.6-0.2-0.8c0,0.2-0.1,0.4-0.2,0.7s-0.3,1-0.5,2H374.6z"/>
			<path class="st1" d="M346.1-56.2h-1.7v-2h-3.8v2h-1.7v-3.4h0.5c0.4-0.7,0.7-1.4,1-2.3s0.4-1.8,0.5-2.8h4.3v5h0.9V-56.2z
				 M343.4-59.7v-3.6h-1.2c-0.1,1.3-0.5,2.5-1,3.6H343.4z"/>
			<path class="st1" d="M350.6-58.2h-3.8v-6.5h3.8v1.4h-2.1v1h1.9v1.4h-1.9v1.2h2.1V-58.2z"/>
			<path class="st1" d="M357-58.2h-1.8v-2.6h-2v2.6h-1.8v-6.5h1.8v2.4h2v-2.4h1.8V-58.2z"/>
			<path class="st1" d="M362-58.2h-3.8v-6.5h3.8v1.4h-2.1v1h1.9v1.4h-1.9v1.2h2.1V-58.2z"/>
			<path class="st1" d="M367.2-64.7v1.4h-2.6v5.1h-1.8v-6.5H367.2z"/>
		</g>
	</g>
</g>
<g>
	<circle cx="942" cy="-91.8" r="48.6"/>
	<g>
		<circle class="st2" cx="961.3" cy="-73.2" r="6.3"/>
		<circle class="st2" cx="927.3" cy="-73.2" r="6.3"/>
		<g>
			<path class="st2" d="M928.8-99.3h-0.6v2.8h0.6c1.1,0,1.7-0.5,1.7-1.5C930.5-98.9,929.9-99.3,928.8-99.3z"/>
			<path class="st2" d="M965.3-104.7h-10.2v-9.5H912v41h5.4c0-5.4,4.4-9.8,9.8-9.8c5.4,0,9.8,4.4,9.8,9.8h14.3
				c0-5.4,4.4-9.8,9.8-9.8c5.4,0,9.8,4.4,9.8,9.8h3.1v-16.4L965.3-104.7z M923.7-99.2h-4v2.3h3.6v2.6h-3.6v4.6h-3.2v-12.2h7.2V-99.2
				z M931.6-89.6l-2.6-4.4h-0.8v4.4h-3.3v-12.2h4c3.3,0,5,1.2,5,3.6c0,1.4-0.7,2.5-2.1,3.3l3.5,5.3H931.6z M942.8-99.2h-3.9v1.9h3.6
				v2.6h-3.6v2.3h3.9v2.7h-7.2v-12.2h7.2V-99.2z M951.3-99.2h-3.9v1.9h3.6v2.6h-3.6v2.3h3.9v2.7h-7.2v-12.2h7.2V-99.2z M957.7-89.5
				v-11.2h5.3l6.6,11.2H957.7z"/>
		</g>
	</g>
</g>
<g>
	<circle cx="1089.6" cy="-91.8" r="48.6"/>
	<g>
		<path class="st2" d="M1065.2-71.6v-10.1c0-4.8,6.2-6.7,8.9-2.6l0,0c0,0,1.6,2.4,5.3,2.5c5.2,0.1,7.5-1.4,10.2-4.7l26.1,11.7
			c1.3,0.6,2.1,1.9,2.2,3.3l0,0H1065.2z"/>
		<path class="st2" d="M1113.3-65h-48.1v-4.6h52.6l0,0C1117.8-67.1,1115.8-65,1113.3-65z"/>
		<g>
			<path class="st2" d="M1071.4-124.4v34.5c1.8,0.3,3.3,1.4,4.3,2.9c0.1,0.2,1.3,1.6,3.7,1.6c0.2,0,0.3,0,0.5,0c4.1,0,5.8-1.2,8.1-4
				v-35.1H1071.4z M1084.9-91.3h-10.7v-6.4h2.3v3.5h2.1v-3.2h2.3v3.2h4V-91.3z M1084.9-104.6l-3.9,2.3v0.7h3.9v2.9h-10.7v-3.5
				c0-2.9,1.1-4.4,3.2-4.4c1.2,0,2.2,0.6,2.9,1.8l4.7-3.1V-104.6z M1084.9-108.1h-10.7v-6.4h2.3v3.5h1.7v-3.2h2.3v3.2h2v-3.5h2.4
				V-108.1z M1084.9-115.6h-10.7v-6.4h2.3v3.5h1.7v-3.2h2.3v3.2h2v-3.5h2.4V-115.6z"/>
			<path class="st2" d="M1077.5-103.6c-0.7,0-1.1,0.5-1.1,1.5v0.6h2.5v-0.5C1078.8-103.1,1078.4-103.6,1077.5-103.6z"/>
		</g>
	</g>
</g>
<g>
	<circle cx="1384.7" cy="-91.8" r="48.6"/>
	<polygon class="st2" points="1387.2,-78.2 1416.7,-108 1407.2,-117.5 1377.6,-87.7 1362.8,-102.4 1353.3,-92.9 1368.2,-78.1 
		1368.2,-78.1 1377.7,-68.6 1381.5,-72.5 1387.2,-78.2 	"/>
</g>
<g>
	<circle cx="1237.2" cy="-91.8" r="48.6"/>
	<g>
		<path class="st2" d="M1263.6-109.7l-25.6-16.7v3.7v4.9c-15.1,0-27.3,12.2-27.3,27.3v1.8c2.1-8.1,9.5-14.1,18.2-14.1h9v9.8
			L1263.6-109.7z"/>
		<path class="st2" d="M1210.7-73.9l25.6,16.7v-3.7v-4.9c15.1,0,27.3-12.2,27.3-27.3v-1.8c-2.1,8.1-9.5,14.1-18.2,14.1h-9v-9.8
			L1210.7-73.9z"/>
	</g>
</g>
<g>
	<circle cx="204.3" cy="56.7" r="48.6"/>
	<path class="st2" d="M224.2,30.3c-28.3-12.2-47.7,4-47.7,4c1,45.7,27.8,53.4,27.8,53.4S231,80,232.1,34.3
		C232.1,34.3,229.2,32.3,224.2,30.3z M206.2,64.5l-3.5,3.5l-2.4,2.4l-5.9-5.9l0,0l-9.2-9.2l5.9-5.9l9.2,9.2l18.3-18.5l5.9,5.9
		L206.2,64.5L206.2,64.5z"/>
</g>
<g>
	<circle cx="351.8" cy="56.7" r="48.6"/>
	<path class="st2" d="M378,49.4c0-8.1-6.5-14.6-14.6-14.6c-4.8,0-9,2.3-11.6,5.8c-2.7-3.5-6.9-5.8-11.6-5.8
		c-8.1,0-14.6,6.5-14.6,14.6c0,2,0.4,3.9,1.2,5.7l0,0c0,0,1.8,8.1,25.1,27.7c0,0,0,0,0,0c0,0,0,0,0,0c23.2-19.6,25.1-27.7,25.1-27.7
		l0,0C377.6,53.4,378,51.5,378,49.4z"/>
</g>
<g>
	<circle cx="56.7" cy="56.7" r="48.6"/>
	<g>
		<path class="st2" d="M94.6,50.2c0-1.9-1.5-3.4-3.4-3.4h-6.9h-3.7h-1.9l1.2-6.6c0.6-3.2,0.1-6.4-1.2-9.4l0,0c-0.5-1.2-1.8-2-3.1-2
			h0c-1.9,0-3.4,1.5-3.4,3.4v5.4l-6.4,11.5h-4.2v20l1.9,0l6.9,4.5h4.8h9h1.6c1.9,0,3.4-1.5,3.4-3.4v0c0-1.9-1.5-3.4-3.4-3.4H88
			c1.9,0,3.4-1.5,3.4-3.4c0-1.9-1.5-3.4-3.4-3.4h1.8c1.9,0,3.4-1.5,3.4-3.4v0c0-1.9-1.5-3.4-3.4-3.4h1.5
			C93.1,53.6,94.6,52.1,94.6,50.2z"/>
		<g>
			<path class="st2" d="M39.2,62.2h-2.5V63h2.5c0.3,0,0.5-0.2,0.5-0.4C39.7,62.3,39.5,62.2,39.2,62.2z"/>
			<path class="st2" d="M39.5,59.3c0-0.2-0.2-0.4-0.4-0.4h-2.3v0.8h2.3C39.3,59.6,39.5,59.5,39.5,59.3z"/>
			<path class="st2" d="M18.8,49.1v20.1h38.9V49.1H18.8z M29.3,65.5h-3.8v-7.8l-2.2,2.1l-2.2-2.3l4.9-4.8h3.3V65.5z M40.2,65.5h-6.8
				v-9.2h6.6c2.1,0,3,1.3,3,2.4s-0.7,1.8-1.6,2.1c1.1,0.2,1.8,1.1,1.8,2.2C43.2,64.3,42.2,65.5,40.2,65.5z M54.3,65.5h-3.8v-7.8
				l-2.2,2.1l-2.2-2.3l4.9-4.8h3.3V65.5z"/>
		</g>
	</g>
</g>
<g>
	<circle cx="1384.7" cy="56.7" r="48.6"/>
	<path class="st2" d="M1417.3,56.7c0,18-14.6,32.6-32.6,32.6s-32.6-14.6-32.6-32.6s14.6-32.6,32.6-32.6c6.5,0,12.7,1.9,18,5.4
		l-3.6,4.3l16.1,2.7l-5.7-15.3l-3.2,3.9c-6.4-4.4-13.8-6.7-21.6-6.7c-21.1,0-38.3,17.2-38.3,38.3s17.2,38.3,38.3,38.3
		c21.1,0,38.3-17.2,38.3-38.3H1417.3z"/>
	<g>
		<g>
			<path class="st1" d="M1371.7,72.9c0,0.8,0.5,1,1.1,1c0.4,0,0.8-0.1,1.1-0.2v-3.2h2.3v7.7h-2.3v-2.5c-0.6,0.1-1,0.2-1.5,0.2
				c-2.1,0-3.1-1.2-3.1-3v-2.5h2.4V72.9z"/>
			<path class="st1" d="M1382.5,78.2l-0.3-0.9h-2.8l-0.3,0.9h-2.7l2.9-7.7h2.9l2.9,7.7H1382.5z M1380.9,72.8l-0.8,2.5h1.5
				L1380.9,72.8z"/>
			<path class="st1" d="M1384.7,74.4c0-2.4,1.8-4,4.3-4c2,0,3.1,1.2,3.5,2.3l-2,0.9c-0.2-0.6-0.8-1.1-1.5-1.1
				c-1.1,0-1.9,0.9-1.9,1.9c0,1.1,0.8,1.9,1.9,1.9c0.7,0,1.3-0.5,1.5-1.1l2,0.9c-0.5,1-1.5,2.3-3.5,2.3
				C1386.6,78.4,1384.7,76.7,1384.7,74.4z"/>
			<path class="st1" d="M1398.2,78.2l-0.3-0.9h-2.8l-0.3,0.9h-2.7l2.9-7.7h2.9l2.9,7.7H1398.2z M1396.5,72.8l-0.8,2.5h1.5
				L1396.5,72.8z"/>
		</g>
		<g>
			<path class="st2" d="M1362.7,66.2v-6c11.6-8.2,12.7-9.1,12.7-11c0-1.2-1.3-2-2.9-2c-2.7,0-4.8,1-6.7,2.6l-4.2-5.1
				c2.9-3.1,7.2-4.3,10.7-4.3c6.6,0,10.9,3.7,10.9,8.7c0,3.5-2,6.3-8,10.3h8.3v6.7H1362.7z"/>
			<path class="st2" d="M1397,66.2v-4.1h-12.2v-5.9l9.2-15.4h10.7v14.6h2.9v6.7h-2.9v4.1H1397z M1397,47.5l-4.8,8h4.8V47.5z"/>
		</g>
	</g>
</g>
<g>
	<circle cx="499.4" cy="56.7" r="48.6"/>
	<circle class="st1" cx="495.2" cy="34.7" r="3.3"/>
	<circle class="st1" cx="503.6" cy="66.1" r="3.3"/>
	<circle class="st1" cx="518.1" cy="72.8" r="4.4"/>
	<circle class="st1" cx="495.2" cy="50.4" r="4.4"/>
	
		<rect x="514.6" y="42.6" transform="matrix(0.5386 0.8426 -0.8426 0.5386 281.1287 -412.4853)" class="st1" width="5.2" height="15.7"/>
	
		<rect x="487.7" y="64.2" transform="matrix(0.5939 -0.8045 0.8045 0.5939 141.1087 423.7031)" class="st1" width="5.2" height="15.7"/>
	
		<rect x="476.9" y="39.2" transform="matrix(-0.6038 -0.7971 0.7971 -0.6038 731.3857 457.7451)" class="st1" width="5.2" height="15.7"/>
	<path class="st2" d="M499.4,18.4c-21.1,0-38.3,17.2-38.3,38.3S478.3,95,499.4,95s38.3-17.2,38.3-38.3S520.5,18.4,499.4,18.4z
		 M466.8,56.7c0-18,14.6-32.6,32.6-32.6c5.3,0,10.2,1.3,14.7,3.5l-36.5,53.3C470.9,74.9,466.8,66.3,466.8,56.7z M499.4,89.3
		c-6.4,0-12.3-1.8-17.3-5l36.8-53.7C526.8,36.5,532,46,532,56.7C532,74.7,517.3,89.3,499.4,89.3z"/>
</g>
<g>
	<g>
		<circle cx="794.5" cy="56.7" r="48.6"/>
	</g>
	<g>
		<path class="st1" d="M797.5,59.9c10.9-10.7,4.8-23.1,0.1-28.2l-6.3,5.8c1.3,1.4,7.5,9,0.1,16.3c-10.9,10.8-4.8,22.9-0.1,27.8
			l6.1-5.9C796.8,74.9,789.9,67.4,797.5,59.9z"/>
		<path class="st1" d="M810.6,65.2c7.8-7.7,3.5-16.6,0.1-20.2l-4.5,4.2c0.9,1,5.4,6.5,0.1,11.7c-7.8,7.7-3.5,16.5-0.1,20l4.4-4.3
			C810.1,76,805.1,70.6,810.6,65.2z"/>
		<path class="st1" d="M782.7,55.2c7.8-7.7,3.5-16.6,0.1-20.2l-4.5,4.2c0.9,1,5.4,6.5,0.1,11.7c-7.8,7.7-3.5,16.5-0.1,20l4.4-4.2
			C781.8,65.6,777.4,60.3,782.7,55.2z"/>
	</g>
	<path class="st2" d="M794.5,18.4c-21.1,0-38.3,17.2-38.3,38.3S773.4,95,794.5,95s38.3-17.2,38.3-38.3S815.6,18.4,794.5,18.4z
		 M761.9,56.7c0-18,14.6-32.6,32.6-32.6c5.3,0,10.2,1.3,14.7,3.5l-36.5,53.3C766.1,74.9,761.9,66.3,761.9,56.7z M794.5,89.3
		c-6.4,0-12.3-1.8-17.3-5L814,30.6c7.9,5.9,13.1,15.4,13.1,26.1C827.1,74.7,812.5,89.3,794.5,89.3z"/>
</g>
<g>
	<circle cx="646.9" cy="56.7" r="48.6"/>
	<path class="st2" d="M662.7,45.5l-15.8-15.8l-15.8,15.8c-8.7,8.7-8.7,22.8,0,31.5c8.7,8.7,22.8,8.7,31.5,0
		C671.4,68.4,671.4,54.3,662.7,45.5z"/>
</g>
<g>
	<circle cx="942" cy="56.7" r="48.6"/>
	<g>
		<path class="st2" d="M971,49.4c0-2.4-2-4.4-4.4-4.4h-9.1h-4.9h-2.5l1.5-8.8c0.7-4.2,0.2-8.5-1.5-12.3l0,0
			c-0.7-1.6-2.3-2.7-4.1-2.7h0c-2.5,0-4.5,2-4.5,4.5v7.2L933.1,48h-5.6v26.4l2.5,0l9.1,5.9h6.4h11.9h2c2.4,0,4.4-2,4.4-4.4v0
			c0-2.4-2-4.4-4.4-4.4h2.7c2.4,0,4.4-2,4.4-4.4c0-2.4-2-4.4-4.4-4.4h2.4c2.4,0,4.4-2,4.4-4.4v0c0-2.4-2-4.4-4.4-4.4h2
			C969,53.8,971,51.8,971,49.4z"/>
		<rect x="913.1" y="47.9" class="st2" width="9.2" height="26.5"/>
	</g>
</g>
<g>
	<circle cx="1237.2" cy="56.7" r="48.6"/>
	<g>
		<path class="st1" d="M1237.2,28.5c-15.6,0-28.2,12.7-28.2,28.2s12.7,28.2,28.2,28.2s28.2-12.7,28.2-28.2S1252.7,28.5,1237.2,28.5z
			 M1237.2,82.3c-14.1,0-25.6-11.5-25.6-25.6s11.5-25.6,25.6-25.6s25.6,11.5,25.6,25.6S1251.3,82.3,1237.2,82.3z"/>
		<path class="st1" d="M1235,39.8c-0.3,0-0.8,0-1.2,0c-0.5,0-1,0.1-1.6,0.2c-0.6,0.1-1.2,0.2-1.9,0.5c-0.6,0.3-1.3,0.5-2,0.8
			c-0.7,0.4-1.3,0.8-2,1.2c-0.6,0.5-1.3,1-1.8,1.6c-0.5,0.6-1.1,1.2-1.5,1.9c-0.5,0.7-0.8,1.4-1.2,2.1c-0.3,0.7-0.6,1.4-0.8,2.1
			c-0.2,0.7-0.3,1.3-0.4,1.9c-0.1,0.6-0.1,1.1-0.1,1.6c0,0.5,0,0.9,0.1,1.2c0.1,0.7,0.2,1.1,0.2,1.1s0.1-0.4,0.3-1
			c0.2-0.6,0.5-1.5,1-2.5c0.2-0.5,0.5-1,0.8-1.6c0.3-0.5,0.6-1.1,1-1.7c0.4-0.6,0.7-1.1,1.2-1.7c0.4-0.6,0.9-1.1,1.4-1.6
			c0.5-0.5,1-0.9,1.5-1.4c0.6-0.4,1.1-0.8,1.6-1.2c0.6-0.4,1.1-0.7,1.6-1c0.5-0.3,1.1-0.6,1.6-0.9c0.5-0.3,0.9-0.5,1.4-0.7
			c0.4-0.2,0.8-0.4,1.1-0.5c0.6-0.3,1-0.5,1-0.5S1235.7,39.8,1235,39.8z"/>
	</g>
</g>
<g>
	<circle cx="1089.6" cy="56.7" r="48.6"/>
	<g>
		<path class="st2" d="M1058.4,75.1h57c3,0,5.4-2.4,5.4-5.4h-62.4V75.1z"/>
		<path class="st2" d="M1118.2,63.4L1088,49.9l-2.4,2.4l0,0l-2.1,2.1L1080,58l-2.4,2.4l-2.1,2.1l-2.1-2.1l-6-6l-0.8-0.8l-3.9-3.9
			c-2.3,0.6-4.3,2.6-4.3,5.5v12h62.4C1120.7,65.6,1119.7,64.1,1118.2,63.4z"/>
		<polygon class="st2" points="1069.5,52.4 1075.5,58.4 1077.9,56 1079,54.9 1081.5,52.3 1081.5,52.3 1100.2,33.4 1094.2,27.4 
			1075.5,46.3 1066,37 1060,43 1069.5,52.4 		"/>
	</g>
</g>
</svg>
