<?xml version="1.0" encoding="utf-8"?>
<!-- Generator: Adobe Illustrator 22.0.0, SVG Export Plug-In . SVG Version: 6.00 Build 0)  -->
<svg version="1.1" id="Layer_1" xmlns="http://www.w3.org/2000/svg" xmlns:xlink="http://www.w3.org/1999/xlink" x="0px" y="0px"
	 viewBox="0 0 113.4 113.4" style="enable-background:new 0 0 113.4 113.4;" xml:space="preserve">
<style type="text/css">
	.st0{fill:#ED1C24;}
	.st1{fill:#FFFFFF;}
	.st2{fill:#FFDD00;}
</style>
<g>
	<circle class="st0" cx="-533.5" cy="-91.8" r="48.6"/>
	<g>
		<path class="st1" d="M-563.5-105.5c0-7.3,5.3-13.1,13.8-13.1c8.5,0,13.9,5.8,13.9,13.1c0,7.2-5.4,12.9-13.9,12.9
			C-558.2-92.6-563.5-98.3-563.5-105.5z M-555-66.3l32.9-51.5h7.6l-33,51.5H-555z M-545.3-105.5c0-3.5-2-4.9-4.5-4.9
			c-2.4,0-4.3,1.4-4.3,4.9c0,3.3,1.9,4.7,4.3,4.7C-547.3-100.8-545.3-102.2-545.3-105.5z M-533.6-78.2c0-7.3,5.3-13.1,13.8-13.1
			s13.8,5.8,13.8,13.1c0,7.2-5.4,12.9-13.8,12.9S-533.6-71.1-533.6-78.2z M-515.4-78.2c0-3.5-2-4.9-4.5-4.9s-4.4,1.4-4.4,4.9
			c0,3.4,1.9,4.7,4.4,4.7S-515.4-74.8-515.4-78.2z"/>
	</g>
</g>
<g>
	<circle cx="-386" cy="-91.8" r="48.6"/>
	<g>
		<path class="st2" d="M-406.8-78.4l-4.7-7.8l-4.7,7.8h-9.1l8.6-13.1l-8-12.5h9.1l4.1,7.3l4.1-7.3h9.2l-8,12.4l8.6,13.2H-406.8z"/>
		<path class="st2" d="M-396.6-78.4v-25.6h7.8v13.7l8.9-13.7h8v25.6h-7.8V-93l-9.5,14.5H-396.6z"/>
		<path class="st2" d="M-362.7-78.4v-18.9h-6.9v-6.8h21.5v6.8h-6.8v18.9H-362.7z"/>
	</g>
</g>
<g>
	<circle class="st2" cx="-238.4" cy="-91.8" r="48.6"/>
	<g>
		<path d="M-262.9-78.4l-9.5-13v13h-7.8v-25.6h8l8.9,12.1v-12.1h7.8v25.6H-262.9z"/>
		<path d="M-251.7-78.4v-25.6h19.4v6.8H-244v2.5h11.4v6.8H-244v2.8h11.7v6.8H-251.7z"/>
		<path d="M-209.6-78.4L-213-93l-3.3,14.5h-8.1l-7.3-25.6h8.7l3.3,15.7l3.9-15.7h5.8l3.9,15.7l3.3-15.7h8.7l-7.3,25.6H-209.6z"/>
	</g>
</g>
<g>
	<path d="M-919.9-110.5c0-4.1-2.7-7.3-6.5-8.2l6.4-10.1h-11.4l-1.6,2.5c-1.6-1.8-3.9-2.8-6.7-2.8c-1.2,0-2.3,0.2-3.3,0.6
		c-8.5-7.4-19.7-12-31.9-12c-12,0-23,4.4-31.5,11.6h-10.1l-15.9,15.6l10.2,10.6c-0.8,3.5-1.2,7.1-1.2,10.8
		c0,26.8,21.8,48.6,48.6,48.6c26.8,0,48.6-21.8,48.6-48.6c0-3.5-0.4-7-1.1-10.3C-923.1-102.7-919.9-106.1-919.9-110.5z"/>
	<g>
		<polygon class="st2" points="-1027.4,-113.1 -1021.9,-107.4 -1016.5,-112.8 -1016.5,-93.1 -1006.8,-93.1 -1006.8,-125.1 
			-1015.1,-125.1 		"/>
		<path class="st2" d="M-989.1-125.6c-9.6,0-14.2,7.8-14.2,16.5s4.7,16.6,14.2,16.6c9.6,0,14.2-7.9,14.2-16.6
			S-979.6-125.6-989.1-125.6z M-989.1-101.1c-3.1,0-4.5-2.6-4.5-8c0-5.4,1.4-8,4.5-8c3.1,0,4.5,2.5,4.5,8
			C-984.6-103.7-986-101.1-989.1-101.1z"/>
		<path class="st2" d="M-958.9-125.6c-9.6,0-14.2,7.8-14.2,16.5s4.7,16.6,14.2,16.6c9.6,0,14.2-7.9,14.2-16.6
			S-949.4-125.6-958.9-125.6z M-958.9-101.1c-3.1,0-4.5-2.6-4.5-8c0-5.4,1.4-8,4.5-8c3.1,0,4.5,2.5,4.5,8
			C-954.5-103.7-955.9-101.1-958.9-101.1z"/>
		<path class="st2" d="M-934.6-120.6c0-2.7-2-4.8-5.1-4.8c-3.1,0-5.1,2.1-5.1,4.8c0,2.7,2,4.8,5.1,4.8
			C-936.6-115.8-934.6-117.9-934.6-120.6z M-941.3-120.6c0-1.3,0.7-1.8,1.6-1.8c0.9,0,1.7,0.5,1.7,1.8c0,1.2-0.7,1.7-1.7,1.7
			C-940.6-118.8-941.3-119.3-941.3-120.6z"/>
		<polygon class="st2" points="-929.5,-125.1 -941.7,-106 -938.9,-106 -926.7,-125.1 		"/>
		<path class="st2" d="M-928.7-115.3c-3.1,0-5.1,2.1-5.1,4.8c0,2.7,2,4.8,5.1,4.8c3.1,0,5.1-2.1,5.1-4.8
			C-923.6-113.2-925.6-115.3-928.7-115.3z M-928.7-108.7c-0.9,0-1.6-0.5-1.6-1.7c0-1.3,0.7-1.8,1.6-1.8c0.9,0,1.7,0.5,1.7,1.8
			C-927-109.2-927.8-108.7-928.7-108.7z"/>
	</g>
	<g>
		<g>
			<path class="st1" d="M-994.2-86.5v1.4h-2.6v5.1h-1.8v-6.5H-994.2z"/>
			<path class="st1" d="M-989.5-80l-0.3-1.2h-2.1l-0.3,1.2h-1.9l2.1-6.5h2.3l2.1,6.5H-989.5z M-990.2-82.6l-0.3-1.1
				c-0.1-0.2-0.1-0.5-0.2-0.9s-0.2-0.6-0.2-0.8c0,0.2-0.1,0.4-0.2,0.7s-0.3,1-0.5,2H-990.2z"/>
			<path class="st1" d="M-982.4-84.4c0,0.7-0.2,1.3-0.6,1.7c-0.4,0.4-1,0.6-1.8,0.6h-0.5v2.1h-1.7v-6.5h2.2c0.8,0,1.4,0.2,1.8,0.5
				C-982.6-85.6-982.4-85.1-982.4-84.4z M-985.4-83.6h0.3c0.3,0,0.5-0.1,0.6-0.2s0.2-0.4,0.2-0.6c0-0.4-0.2-0.7-0.7-0.7h-0.5V-83.6z
				"/>
			<path class="st1" d="M-977.6-80l-0.3-1.2h-2.1l-0.3,1.2h-1.9l2.1-6.5h2.3l2.1,6.5H-977.6z M-978.3-82.6l-0.3-1.1
				c-0.1-0.2-0.1-0.5-0.2-0.9s-0.2-0.6-0.2-0.8c0,0.2-0.1,0.4-0.2,0.7s-0.3,1-0.5,2H-978.3z"/>
			<path class="st1" d="M-969.7-80h-1.8v-2.6h-2v2.6h-1.8v-6.5h1.8v2.4h2v-2.4h1.8V-80z"/>
			<path class="st1" d="M-965.7-80h-1.7v-5h-1.6v-1.4h4.9v1.4h-1.6V-80z"/>
			<path class="st1" d="M-963.4-86.5h1.6v2.8c0,0.3,0,0.9-0.1,1.8h0l2.6-4.5h2.2v6.5h-1.5v-2.7c0-0.4,0-1,0.1-1.8h0l-2.6,4.5h-2.2
				V-86.5z"/>
			<path class="st1" d="M-953.5-82.3l-1.3,2.4h-2l1.8-2.8c-0.3-0.2-0.6-0.4-0.8-0.7c-0.2-0.3-0.3-0.6-0.3-1c0-1.3,0.9-1.9,2.6-1.9
				h2.1v6.5h-1.7v-2.4H-953.5z M-953-85.1h-0.4c-0.3,0-0.5,0.1-0.7,0.2c-0.2,0.1-0.2,0.3-0.2,0.5c0,0.3,0.1,0.5,0.2,0.6
				s0.4,0.2,0.7,0.2h0.3V-85.1z"/>
			<path class="st1" d="M-1005.7-69.1h-1.8v-5h-1.8v5h-1.8v-6.5h5.3V-69.1z"/>
			<path class="st1" d="M-998.4-72.4c0,1.1-0.3,1.9-0.8,2.5c-0.5,0.6-1.3,0.8-2.3,0.8c-1,0-1.8-0.3-2.3-0.9
				c-0.5-0.6-0.8-1.4-0.8-2.5c0-1.1,0.3-1.9,0.8-2.5c0.5-0.6,1.3-0.9,2.3-0.9c1,0,1.8,0.3,2.3,0.8
				C-998.7-74.3-998.4-73.4-998.4-72.4z M-1002.9-72.4c0,1.3,0.4,1.9,1.3,1.9c0.4,0,0.8-0.2,1-0.5s0.3-0.8,0.3-1.4
				c0-0.6-0.1-1.1-0.3-1.4c-0.2-0.3-0.5-0.5-1-0.5C-1002.4-74.2-1002.9-73.6-1002.9-72.4z"/>
			<path class="st1" d="M-991-67.1h-1.7v-2h-3.8v2h-1.7v-3.4h0.5c0.4-0.7,0.7-1.4,1-2.3c0.3-0.9,0.4-1.8,0.5-2.8h4.3v5h0.9V-67.1z
				 M-993.6-70.5v-3.6h-1.2c-0.1,1.3-0.5,2.5-1,3.6H-993.6z"/>
			<path class="st1" d="M-984.8-69.1h-1.8v-5h-1.2c-0.1,0.7-0.2,1.5-0.3,2.2c-0.1,0.8-0.2,1.3-0.3,1.6c-0.1,0.3-0.2,0.6-0.4,0.7
				c-0.2,0.2-0.4,0.3-0.6,0.4c-0.2,0.1-0.5,0.1-0.8,0.1c-0.3,0-0.5,0-0.7-0.1v-1.3c0.2,0.1,0.3,0.1,0.4,0.1c0.2,0,0.3-0.1,0.4-0.2
				c0.1-0.1,0.2-0.3,0.2-0.7c0.1-0.3,0.2-0.9,0.3-1.7s0.2-1.7,0.3-2.6h4.5V-69.1z"/>
			<path class="st1" d="M-983.7-75.6h1.6v2.8c0,0.3,0,0.9-0.1,1.8h0l2.6-4.5h2.2v6.5h-1.5v-2.7c0-0.4,0-1,0.1-1.8h0l-2.6,4.5h-2.2
				V-75.6z"/>
			<path class="st1" d="M-970.7-69.1h-1.8v-2.6h-2v2.6h-1.8v-6.5h1.8v2.4h2v-2.4h1.8V-69.1z"/>
			<path class="st1" d="M-964-69.1h-1.8v-2.6h-2v2.6h-1.8v-6.5h1.8v2.4h2v-2.4h1.8V-69.1z"/>
			<path class="st1" d="M-956.7-72.4c0,1.1-0.3,1.9-0.8,2.5c-0.5,0.6-1.3,0.8-2.3,0.8c-1,0-1.8-0.3-2.3-0.9
				c-0.5-0.6-0.8-1.4-0.8-2.5c0-1.1,0.3-1.9,0.8-2.5c0.5-0.6,1.3-0.9,2.3-0.9c1,0,1.8,0.3,2.3,0.8C-957-74.3-956.7-73.4-956.7-72.4z
				 M-961.2-72.4c0,1.3,0.4,1.9,1.3,1.9c0.4,0,0.8-0.2,1-0.5s0.3-0.8,0.3-1.4c0-0.6-0.1-1.1-0.3-1.4c-0.2-0.3-0.5-0.5-1-0.5
				C-960.8-74.2-961.2-73.6-961.2-72.4z"/>
			<path class="st1" d="M-952.9-74.2c-0.4,0-0.7,0.2-1,0.5c-0.2,0.3-0.3,0.8-0.3,1.4c0,1.2,0.5,1.9,1.4,1.9c0.3,0,0.6,0,0.8-0.1
				c0.3-0.1,0.5-0.2,0.8-0.3v1.5c-0.5,0.2-1.2,0.4-1.8,0.4c-1,0-1.7-0.3-2.2-0.8c-0.5-0.6-0.8-1.4-0.8-2.5c0-0.7,0.1-1.3,0.4-1.8
				s0.6-0.9,1.1-1.2c0.5-0.3,1-0.4,1.7-0.4c0.7,0,1.4,0.2,2,0.5l-0.5,1.4c-0.2-0.1-0.5-0.2-0.7-0.3
				C-952.4-74.2-952.7-74.2-952.9-74.2z"/>
			<path class="st1" d="M-947.3-69.1h-1.7v-5h-1.6v-1.4h4.9v1.4h-1.6V-69.1z"/>
			<path class="st1" d="M-945-75.6h1.6v2.8c0,0.3,0,0.9-0.1,1.8h0l2.6-4.5h2.2v6.5h-1.5v-2.7c0-0.4,0-1,0.1-1.8h0l-2.6,4.5h-2.2
				V-75.6z"/>
			<path class="st1" d="M-989.5-58.2h-1.7v-5h-1.6v-1.4h4.9v1.4h-1.6V-58.2z"/>
			<path class="st1" d="M-981.2-61.5c0,1.1-0.3,1.9-0.8,2.5c-0.5,0.6-1.3,0.8-2.3,0.8c-1,0-1.8-0.3-2.3-0.9
				c-0.5-0.6-0.8-1.4-0.8-2.5c0-1.1,0.3-1.9,0.8-2.5c0.5-0.6,1.3-0.9,2.3-0.9c1,0,1.8,0.3,2.3,0.8
				C-981.5-63.4-981.2-62.6-981.2-61.5z M-985.6-61.5c0,1.3,0.4,1.9,1.3,1.9c0.4,0,0.8-0.2,1-0.5s0.3-0.8,0.3-1.4
				c0-0.6-0.1-1.1-0.3-1.4c-0.2-0.3-0.5-0.5-1-0.5C-985.2-63.4-985.6-62.7-985.6-61.5z"/>
			<path class="st1" d="M-980.3-64.7h2.3c0.9,0,1.5,0.1,2,0.4c0.4,0.3,0.6,0.7,0.6,1.2c0,0.4-0.1,0.7-0.3,0.9
				c-0.2,0.3-0.4,0.4-0.7,0.5v0c0.4,0.1,0.7,0.3,0.9,0.5c0.2,0.2,0.3,0.6,0.3,1c0,0.6-0.2,1-0.7,1.4c-0.4,0.3-1,0.5-1.8,0.5h-2.5
				V-64.7z M-978.5-62.2h0.5c0.3,0,0.4-0.1,0.6-0.2c0.1-0.1,0.2-0.3,0.2-0.5c0-0.4-0.3-0.5-0.8-0.5h-0.5V-62.2z M-978.5-60.9v1.4
				h0.6c0.5,0,0.8-0.2,0.8-0.7c0-0.2-0.1-0.4-0.2-0.5c-0.1-0.1-0.4-0.2-0.6-0.2H-978.5z"/>
			<path class="st1" d="M-970.4-58.2l-0.3-1.2h-2.1l-0.3,1.2h-1.9l2.1-6.5h2.3l2.1,6.5H-970.4z M-971.1-60.9l-0.3-1.1
				c-0.1-0.2-0.1-0.5-0.2-0.9s-0.2-0.6-0.2-0.8c0,0.2-0.1,0.4-0.2,0.7s-0.3,1-0.5,2H-971.1z"/>
			<path class="st1" d="M-963.3-62.7c0,0.7-0.2,1.3-0.6,1.7c-0.4,0.4-1,0.6-1.8,0.6h-0.5v2.1h-1.7v-6.5h2.2c0.8,0,1.4,0.2,1.8,0.5
				C-963.5-63.8-963.3-63.3-963.3-62.7z M-966.3-61.8h0.3c0.3,0,0.5-0.1,0.6-0.2s0.2-0.4,0.2-0.6c0-0.4-0.2-0.7-0.7-0.7h-0.5V-61.8z
				"/>
			<path class="st1" d="M-958.6-58.2l-0.3-1.2h-2.1l-0.3,1.2h-1.9l2.1-6.5h2.3l2.1,6.5H-958.6z M-959.2-60.9l-0.3-1.1
				c-0.1-0.2-0.1-0.5-0.2-0.9s-0.2-0.6-0.2-0.8c0,0.2-0.1,0.4-0.2,0.7s-0.3,1-0.5,2H-959.2z"/>
		</g>
	</g>
</g>
<g>
	<path d="M-772.4-110.5c0-4.1-2.7-7.3-6.5-8.2l6.4-10.1h-11.4l-1.6,2.5c-1.6-1.8-3.9-2.8-6.7-2.8c-1.2,0-2.3,0.2-3.3,0.6
		c-8.5-7.4-19.7-12-31.9-12c-12,0-23,4.4-31.5,11.6h-10.1l-15.9,15.6l10.2,10.6c-0.8,3.5-1.2,7.1-1.2,10.8
		c0,26.8,21.8,48.6,48.6,48.6s48.6-21.8,48.6-48.6c0-3.5-0.4-7-1.1-10.3C-775.6-102.7-772.4-106.1-772.4-110.5z"/>
	<g>
		<polygon class="st2" points="-879.8,-113.1 -874.4,-107.4 -868.9,-112.8 -868.9,-93.1 -859.2,-93.1 -859.2,-125.1 -867.6,-125.1 
					"/>
		<path class="st2" d="M-841.6-125.6c-9.6,0-14.2,7.8-14.2,16.5s4.7,16.6,14.2,16.6c9.6,0,14.2-7.9,14.2-16.6
			S-832-125.6-841.6-125.6z M-841.6-101.1c-3.1,0-4.5-2.6-4.5-8c0-5.4,1.4-8,4.5-8c3.1,0,4.5,2.5,4.5,8
			C-837.1-103.7-838.5-101.1-841.6-101.1z"/>
		<path class="st2" d="M-811.4-125.6c-9.6,0-14.2,7.8-14.2,16.5s4.7,16.6,14.2,16.6c9.6,0,14.2-7.9,14.2-16.6
			S-801.8-125.6-811.4-125.6z M-811.4-101.1c-3.1,0-4.5-2.6-4.5-8c0-5.4,1.4-8,4.5-8c3.1,0,4.5,2.5,4.5,8
			C-806.9-103.7-808.3-101.1-811.4-101.1z"/>
		<path class="st2" d="M-787-120.6c0-2.7-2-4.8-5.1-4.8c-3.1,0-5.1,2.1-5.1,4.8c0,2.7,2,4.8,5.1,4.8C-789-115.8-787-117.9-787-120.6
			z M-793.8-120.6c0-1.3,0.7-1.8,1.6-1.8c0.9,0,1.7,0.5,1.7,1.8c0,1.2-0.7,1.7-1.7,1.7C-793.1-118.8-793.8-119.3-793.8-120.6z"/>
		<path class="st2" d="M-781.1-115.3c-3.1,0-5.1,2.1-5.1,4.8c0,2.7,2,4.8,5.1,4.8c3.1,0,5.1-2.1,5.1-4.8
			C-776-113.2-778-115.3-781.1-115.3z M-781.1-108.7c-0.9,0-1.6-0.5-1.6-1.7c0-1.3,0.7-1.8,1.6-1.8c0.9,0,1.7,0.5,1.7,1.8
			C-779.5-109.2-780.2-108.7-781.1-108.7z"/>
		<polygon class="st2" points="-781.9,-125.1 -794.1,-106 -791.3,-106 -779.1,-125.1 		"/>
	</g>
	<g>
		<g>
			<path class="st1" d="M-846.6-86.5v1.4h-2.6v5.1h-1.8v-6.5H-846.6z"/>
			<path class="st1" d="M-841.9-80l-0.3-1.2h-2.1l-0.3,1.2h-1.9l2.1-6.5h2.3l2.1,6.5H-841.9z M-842.6-82.6l-0.3-1.1
				c-0.1-0.2-0.1-0.5-0.2-0.9c-0.1-0.4-0.2-0.6-0.2-0.8c0,0.2-0.1,0.4-0.2,0.7s-0.3,1-0.5,2H-842.6z"/>
			<path class="st1" d="M-834.9-84.4c0,0.7-0.2,1.3-0.6,1.7c-0.4,0.4-1,0.6-1.8,0.6h-0.5v2.1h-1.7v-6.5h2.2c0.8,0,1.4,0.2,1.8,0.5
				C-835.1-85.6-834.9-85.1-834.9-84.4z M-837.8-83.6h0.3c0.3,0,0.5-0.1,0.6-0.2c0.2-0.1,0.2-0.4,0.2-0.6c0-0.4-0.2-0.7-0.7-0.7
				h-0.5V-83.6z"/>
			<path class="st1" d="M-830.1-80l-0.3-1.2h-2.1l-0.3,1.2h-1.9l2.1-6.5h2.3l2.1,6.5H-830.1z M-830.8-82.6l-0.3-1.1
				c-0.1-0.2-0.1-0.5-0.2-0.9s-0.2-0.6-0.2-0.8c0,0.2-0.1,0.4-0.2,0.7s-0.3,1-0.5,2H-830.8z"/>
			<path class="st1" d="M-822.2-80h-1.8v-2.6h-2v2.6h-1.8v-6.5h1.8v2.4h2v-2.4h1.8V-80z"/>
			<path class="st1" d="M-818.1-80h-1.7v-5h-1.6v-1.4h4.9v1.4h-1.6V-80z"/>
			<path class="st1" d="M-815.9-86.5h1.6v2.8c0,0.3,0,0.9-0.1,1.8h0l2.6-4.5h2.2v6.5h-1.5v-2.7c0-0.4,0-1,0.1-1.8h0l-2.6,4.5h-2.2
				V-86.5z"/>
			<path class="st1" d="M-806-82.3l-1.3,2.4h-2l1.8-2.8c-0.3-0.2-0.6-0.4-0.8-0.7s-0.3-0.6-0.3-1c0-1.3,0.9-1.9,2.6-1.9h2.1v6.5
				h-1.7v-2.4H-806z M-805.4-85.1h-0.4c-0.3,0-0.5,0.1-0.7,0.2c-0.2,0.1-0.2,0.3-0.2,0.5c0,0.3,0.1,0.5,0.2,0.6
				c0.2,0.1,0.4,0.2,0.7,0.2h0.3V-85.1z"/>
			<path class="st1" d="M-844.5-69.1h-2l-1.9-3.3v3.3h-1.8v-6.5h1.8v3.1l1.8-3.1h1.9l-2,3.1L-844.5-69.1z"/>
			<path class="st1" d="M-840.1-69.1l-0.3-1.2h-2.1l-0.3,1.2h-1.9l2.1-6.5h2.3l2.1,6.5H-840.1z M-840.8-71.8l-0.3-1.1
				c-0.1-0.2-0.1-0.5-0.2-0.9s-0.2-0.6-0.2-0.8c0,0.2-0.1,0.4-0.2,0.7s-0.3,1-0.5,2H-840.8z"/>
			<path class="st1" d="M-832.2-69.1h-1.8v-2.4c-0.7,0.3-1.4,0.4-2,0.4c-0.6,0-1.1-0.2-1.4-0.5s-0.5-0.7-0.5-1.3v-2.7h1.8v2.2
				c0,0.3,0.1,0.5,0.2,0.7s0.3,0.2,0.6,0.2c0.4,0,0.8-0.1,1.4-0.3v-2.7h1.8V-69.1z"/>
			<path class="st1" d="M-827.2-69.1h-3.8v-6.5h3.8v1.4h-2.1v1h1.9v1.4h-1.9v1.2h2.1V-69.1z"/>
			<path class="st1" d="M-823.4-74.2c-0.4,0-0.7,0.2-1,0.5c-0.2,0.3-0.3,0.8-0.3,1.4c0,1.2,0.5,1.9,1.4,1.9c0.3,0,0.6,0,0.8-0.1
				c0.3-0.1,0.5-0.2,0.8-0.3v1.5c-0.5,0.2-1.1,0.4-1.8,0.4c-1,0-1.7-0.3-2.2-0.8c-0.5-0.6-0.8-1.4-0.8-2.5c0-0.7,0.1-1.3,0.4-1.8
				c0.3-0.5,0.6-0.9,1.1-1.2c0.5-0.3,1-0.4,1.7-0.4c0.7,0,1.4,0.2,2,0.5l-0.5,1.4c-0.2-0.1-0.5-0.2-0.7-0.3
				C-822.9-74.2-823.1-74.2-823.4-74.2z"/>
			<path class="st1" d="M-817.8-69.1h-1.7v-5h-1.6v-1.4h4.9v1.4h-1.6V-69.1z"/>
			<path class="st1" d="M-815.5-75.6h2.3c0.9,0,1.5,0.1,2,0.4c0.4,0.3,0.6,0.7,0.6,1.2c0,0.4-0.1,0.7-0.3,0.9
				c-0.2,0.3-0.4,0.4-0.7,0.5v0c0.4,0.1,0.7,0.3,0.9,0.5c0.2,0.2,0.3,0.6,0.3,1c0,0.6-0.2,1-0.7,1.4c-0.4,0.3-1,0.5-1.8,0.5h-2.5
				V-75.6z M-813.8-73.1h0.5c0.3,0,0.4-0.1,0.6-0.2c0.1-0.1,0.2-0.3,0.2-0.5c0-0.4-0.3-0.5-0.8-0.5h-0.5V-73.1z M-813.8-71.8v1.4
				h0.6c0.5,0,0.8-0.2,0.8-0.7c0-0.2-0.1-0.4-0.2-0.5c-0.1-0.1-0.4-0.2-0.6-0.2H-813.8z"/>
			<path class="st1" d="M-805.7-69.1l-0.3-1.2h-2.1l-0.3,1.2h-1.9l2.1-6.5h2.3l2.1,6.5H-805.7z M-806.4-71.8l-0.3-1.1
				c-0.1-0.2-0.1-0.5-0.2-0.9s-0.2-0.6-0.2-0.8c0,0.2-0.1,0.4-0.2,0.7s-0.3,1-0.5,2H-806.4z"/>
			<path class="st1" d="M-842-58.2h-1.7v-5h-1.6v-1.4h4.9v1.4h-1.6V-58.2z"/>
			<path class="st1" d="M-833.6-61.5c0,1.1-0.3,1.9-0.8,2.5c-0.5,0.6-1.3,0.8-2.3,0.8c-1,0-1.8-0.3-2.3-0.9
				c-0.5-0.6-0.8-1.4-0.8-2.5c0-1.1,0.3-1.9,0.8-2.5c0.5-0.6,1.3-0.9,2.3-0.9c1,0,1.8,0.3,2.3,0.8
				C-833.9-63.4-833.6-62.6-833.6-61.5z M-838.1-61.5c0,1.3,0.4,1.9,1.3,1.9c0.4,0,0.8-0.2,1-0.5s0.3-0.8,0.3-1.4
				c0-0.6-0.1-1.1-0.3-1.4c-0.2-0.3-0.5-0.5-1-0.5C-837.6-63.4-838.1-62.7-838.1-61.5z"/>
			<path class="st1" d="M-832.7-64.7h2.3c0.9,0,1.5,0.1,2,0.4c0.4,0.3,0.6,0.7,0.6,1.2c0,0.4-0.1,0.7-0.3,0.9
				c-0.2,0.3-0.4,0.4-0.7,0.5v0c0.4,0.1,0.7,0.3,0.9,0.5c0.2,0.2,0.3,0.6,0.3,1c0,0.6-0.2,1-0.7,1.4c-0.4,0.3-1,0.5-1.8,0.5h-2.5
				V-64.7z M-830.9-62.2h0.5c0.3,0,0.4-0.1,0.6-0.2c0.1-0.1,0.2-0.3,0.2-0.5c0-0.4-0.3-0.5-0.8-0.5h-0.5V-62.2z M-830.9-60.9v1.4
				h0.6c0.5,0,0.8-0.2,0.8-0.7c0-0.2-0.1-0.4-0.2-0.5c-0.1-0.1-0.4-0.2-0.6-0.2H-830.9z"/>
			<path class="st1" d="M-822.8-58.2l-0.3-1.2h-2.1l-0.3,1.2h-1.9l2.1-6.5h2.3l2.1,6.5H-822.8z M-823.5-60.9l-0.3-1.1
				c-0.1-0.2-0.1-0.5-0.2-0.9s-0.2-0.6-0.2-0.8c0,0.2-0.1,0.4-0.2,0.7s-0.3,1-0.5,2H-823.5z"/>
			<path class="st1" d="M-815.8-62.7c0,0.7-0.2,1.3-0.6,1.7c-0.4,0.4-1,0.6-1.8,0.6h-0.5v2.1h-1.7v-6.5h2.2c0.8,0,1.4,0.2,1.8,0.5
				C-816-63.8-815.8-63.3-815.8-62.7z M-818.7-61.8h0.3c0.3,0,0.5-0.1,0.6-0.2c0.2-0.1,0.2-0.4,0.2-0.6c0-0.4-0.2-0.7-0.7-0.7h-0.5
				V-61.8z"/>
			<path class="st1" d="M-811-58.2l-0.3-1.2h-2.1l-0.3,1.2h-1.9l2.1-6.5h2.3l2.1,6.5H-811z M-811.7-60.9l-0.3-1.1
				c-0.1-0.2-0.1-0.5-0.2-0.9s-0.2-0.6-0.2-0.8c0,0.2-0.1,0.4-0.2,0.7s-0.3,1-0.5,2H-811.7z"/>
		</g>
	</g>
</g>
<g>
	<path d="M-624.8-110.5c0-4.1-2.7-7.3-6.5-8.2l6.4-10.1h-11.4l-1.6,2.5c-1.6-1.8-3.9-2.8-6.7-2.8c-1.2,0-2.3,0.2-3.3,0.6
		c-8.5-7.4-19.7-12-31.9-12c-12,0-23,4.4-31.5,11.6h-10.1l-15.9,15.6l10.2,10.6c-0.8,3.5-1.2,7.1-1.2,10.8
		c0,26.8,21.8,48.6,48.6,48.6c26.8,0,48.6-21.8,48.6-48.6c0-3.5-0.4-7-1.1-10.3C-628-102.7-624.8-106.1-624.8-110.5z"/>
	<g>
		<g>
			<path class="st2" d="M-721.4-93.1v-19.7l-5.4,5.4l-5.5-5.7l12.2-12h8.4v32H-721.4z"/>
			<path class="st2" d="M-708.2-109.1c0-8.7,4.7-16.5,14.2-16.5c9.6,0,14.2,7.8,14.2,16.5s-4.7,16.6-14.2,16.6
				C-703.6-92.5-708.2-100.4-708.2-109.1z M-689.5-109.1c0-5.4-1.4-8-4.5-8s-4.5,2.5-4.5,8c0,5.4,1.4,8,4.5,8
				S-689.5-103.7-689.5-109.1z"/>
			<path class="st2" d="M-678-109.1c0-8.7,4.7-16.5,14.2-16.5c9.6,0,14.2,7.8,14.2,16.5s-4.7,16.6-14.2,16.6
				C-673.4-92.5-678-100.4-678-109.1z M-659.4-109.1c0-5.4-1.4-8-4.5-8c-3.1,0-4.5,2.5-4.5,8c0,5.4,1.4,8,4.5,8
				C-660.8-101.1-659.4-103.7-659.4-109.1z"/>
		</g>
		<path class="st2" d="M-649.7-120.6c0-2.7,2-4.8,5.1-4.8c3.1,0,5.1,2.1,5.1,4.8c0,2.7-2,4.8-5.1,4.8
			C-647.7-115.8-649.7-117.9-649.7-120.6z M-646.5-106l12.2-19.1h2.8l-12.2,19.1H-646.5z M-643-120.6c0-1.3-0.7-1.8-1.7-1.8
			c-0.9,0-1.6,0.5-1.6,1.8c0,1.2,0.7,1.7,1.6,1.7C-643.7-118.8-643-119.3-643-120.6z M-638.7-110.5c0-2.7,2-4.8,5.1-4.8
			c3.1,0,5.1,2.1,5.1,4.8c0,2.7-2,4.8-5.1,4.8C-636.7-105.7-638.7-107.8-638.7-110.5z M-631.9-110.5c0-1.3-0.7-1.8-1.7-1.8
			c-0.9,0-1.6,0.5-1.6,1.8c0,1.3,0.7,1.7,1.6,1.7C-632.7-108.7-631.9-109.2-631.9-110.5z"/>
	</g>
	<g>
		<g>
			<path class="st1" d="M-699-86.5v1.4h-2.6v5.1h-1.8v-6.5H-699z"/>
			<path class="st1" d="M-694.4-80l-0.3-1.2h-2.1l-0.3,1.2h-1.9l2.1-6.5h2.3l2.1,6.5H-694.4z M-695.1-82.6l-0.3-1.1
				c-0.1-0.2-0.1-0.5-0.2-0.9s-0.2-0.6-0.2-0.8c0,0.2-0.1,0.4-0.2,0.7s-0.3,1-0.5,2H-695.1z"/>
			<path class="st1" d="M-687.3-84.4c0,0.7-0.2,1.3-0.6,1.7c-0.4,0.4-1,0.6-1.8,0.6h-0.5v2.1h-1.7v-6.5h2.2c0.8,0,1.4,0.2,1.8,0.5
				C-687.5-85.6-687.3-85.1-687.3-84.4z M-690.3-83.6h0.3c0.3,0,0.5-0.1,0.6-0.2c0.2-0.1,0.2-0.4,0.2-0.6c0-0.4-0.2-0.7-0.7-0.7
				h-0.5V-83.6z"/>
			<path class="st1" d="M-682.5-80l-0.3-1.2h-2.1l-0.3,1.2h-1.9l2.1-6.5h2.3l2.1,6.5H-682.5z M-683.2-82.6l-0.3-1.1
				c-0.1-0.2-0.1-0.5-0.2-0.9s-0.2-0.6-0.2-0.8c0,0.2-0.1,0.4-0.2,0.7s-0.3,1-0.5,2H-683.2z"/>
			<path class="st1" d="M-674.6-80h-1.8v-2.6h-2v2.6h-1.8v-6.5h1.8v2.4h2v-2.4h1.8V-80z"/>
			<path class="st1" d="M-670.6-80h-1.7v-5h-1.6v-1.4h4.9v1.4h-1.6V-80z"/>
			<path class="st1" d="M-668.3-86.5h1.6v2.8c0,0.3,0,0.9-0.1,1.8h0l2.6-4.5h2.2v6.5h-1.5v-2.7c0-0.4,0-1,0.1-1.8h0l-2.6,4.5h-2.2
				V-86.5z"/>
			<path class="st1" d="M-658.4-82.3l-1.3,2.4h-2l1.8-2.8c-0.3-0.2-0.6-0.4-0.8-0.7s-0.3-0.6-0.3-1c0-1.3,0.9-1.9,2.6-1.9h2.1v6.5
				h-1.7v-2.4H-658.4z M-657.9-85.1h-0.4c-0.3,0-0.5,0.1-0.7,0.2c-0.2,0.1-0.2,0.3-0.2,0.5c0,0.3,0.1,0.5,0.2,0.6
				c0.2,0.1,0.4,0.2,0.7,0.2h0.3V-85.1z"/>
			<path class="st1" d="M-703.1-75.6h2.3c0.9,0,1.5,0.1,2,0.4c0.4,0.3,0.6,0.7,0.6,1.2c0,0.4-0.1,0.7-0.3,0.9
				c-0.2,0.3-0.4,0.4-0.7,0.5v0c0.4,0.1,0.7,0.3,0.9,0.5c0.2,0.2,0.3,0.6,0.3,1c0,0.6-0.2,1-0.7,1.4c-0.4,0.3-1,0.5-1.8,0.5h-2.5
				V-75.6z M-701.4-73.1h0.5c0.3,0,0.4-0.1,0.6-0.2c0.1-0.1,0.2-0.3,0.2-0.5c0-0.4-0.3-0.5-0.8-0.5h-0.5V-73.1z M-701.4-71.8v1.4
				h0.6c0.5,0,0.8-0.2,0.8-0.7c0-0.2-0.1-0.4-0.2-0.5c-0.1-0.1-0.4-0.2-0.6-0.2H-701.4z"/>
			<path class="st1" d="M-691.2-72.4c0,1.1-0.3,1.9-0.8,2.5c-0.5,0.6-1.3,0.8-2.3,0.8c-1,0-1.8-0.3-2.3-0.9
				c-0.5-0.6-0.8-1.4-0.8-2.5c0-1.1,0.3-1.9,0.8-2.5s1.3-0.9,2.3-0.9c1,0,1.8,0.3,2.3,0.8C-691.4-74.3-691.2-73.4-691.2-72.4z
				 M-695.6-72.4c0,1.3,0.4,1.9,1.3,1.9c0.4,0,0.8-0.2,1-0.5s0.3-0.8,0.3-1.4c0-0.6-0.1-1.1-0.3-1.4c-0.2-0.3-0.5-0.5-1-0.5
				C-695.2-74.2-695.6-73.6-695.6-72.4z"/>
			<path class="st1" d="M-685.6-74.1c0,0.9-0.5,1.4-1.5,1.5v0c0.6,0,1,0.2,1.3,0.5c0.3,0.3,0.4,0.6,0.4,1.1c0,0.4-0.1,0.7-0.3,1
				s-0.5,0.5-0.9,0.7c-0.4,0.2-0.9,0.2-1.5,0.2c-1,0-1.9-0.1-2.5-0.3v-1.5c0.3,0.1,0.6,0.2,1,0.3s0.7,0.1,1.1,0.1
				c0.5,0,0.9-0.1,1.1-0.2c0.2-0.1,0.3-0.3,0.3-0.5c0-0.4-0.5-0.6-1.5-0.6h-0.8v-1.4h0.7c0.3,0,0.6,0,0.8-0.1c0.2,0,0.3-0.1,0.4-0.2
				c0.1-0.1,0.1-0.2,0.1-0.3c0-0.3-0.3-0.5-0.9-0.5c-0.6,0-1.1,0.2-1.5,0.5l-0.7-1.2c0.4-0.2,0.8-0.4,1.2-0.5
				c0.4-0.1,0.9-0.2,1.4-0.2c0.7,0,1.3,0.1,1.7,0.4C-685.8-74.9-685.6-74.5-685.6-74.1z"/>
			<path class="st1" d="M-684.4-75.6h2.3c0.9,0,1.5,0.1,2,0.4c0.4,0.3,0.6,0.7,0.6,1.2c0,0.4-0.1,0.7-0.3,0.9
				c-0.2,0.3-0.4,0.4-0.7,0.5v0c0.4,0.1,0.7,0.3,0.9,0.5c0.2,0.2,0.3,0.6,0.3,1c0,0.6-0.2,1-0.7,1.4c-0.4,0.3-1,0.5-1.8,0.5h-2.5
				V-75.6z M-682.7-73.1h0.5c0.3,0,0.4-0.1,0.6-0.2c0.1-0.1,0.2-0.3,0.2-0.5c0-0.4-0.3-0.5-0.8-0.5h-0.5V-73.1z M-682.7-71.8v1.4
				h0.6c0.5,0,0.8-0.2,0.8-0.7c0-0.2-0.1-0.4-0.2-0.5c-0.1-0.1-0.4-0.2-0.6-0.2H-682.7z"/>
			<path class="st1" d="M-673.8-73.5c0,0.7-0.2,1.3-0.6,1.7c-0.4,0.4-1,0.6-1.8,0.6h-0.5v2.1h-1.7v-6.5h2.2c0.8,0,1.4,0.2,1.8,0.5
				C-674.1-74.7-673.8-74.2-673.8-73.5z M-676.8-72.7h0.3c0.3,0,0.5-0.1,0.6-0.2c0.2-0.1,0.2-0.4,0.2-0.6c0-0.4-0.2-0.7-0.7-0.7
				h-0.5V-72.7z"/>
			<path class="st1" d="M-669.1-69.1l-0.3-1.2h-2.1l-0.3,1.2h-1.9l2.1-6.5h2.3l2.1,6.5H-669.1z M-669.8-71.8l-0.3-1.1
				c-0.1-0.2-0.1-0.5-0.2-0.9s-0.2-0.6-0.2-0.8c0,0.2-0.1,0.4-0.2,0.7s-0.3,1-0.5,2H-669.8z"/>
			<path class="st1" d="M-663.8-69.1h-1.7v-5h-1.6v-1.4h4.9v1.4h-1.6V-69.1z"/>
			<path class="st1" d="M-657.6-69.1l-0.3-1.2h-2.1l-0.3,1.2h-1.9l2.1-6.5h2.3l2.1,6.5H-657.6z M-658.3-71.8l-0.3-1.1
				c-0.1-0.2-0.1-0.5-0.2-0.9s-0.2-0.6-0.2-0.8c0,0.2-0.1,0.4-0.2,0.7s-0.3,1-0.5,2H-658.3z"/>
			<path class="st1" d="M-686.8-56.2h-1.7v-2h-3.8v2h-1.7v-3.4h0.5c0.4-0.7,0.7-1.4,1-2.3s0.4-1.8,0.5-2.8h4.3v5h0.9V-56.2z
				 M-689.5-59.7v-3.6h-1.2c-0.1,1.3-0.5,2.5-1,3.6H-689.5z"/>
			<path class="st1" d="M-682.4-58.2h-3.8v-6.5h3.8v1.4h-2.1v1h1.9v1.4h-1.9v1.2h2.1V-58.2z"/>
			<path class="st1" d="M-675.9-58.2h-1.8v-2.6h-2v2.6h-1.8v-6.5h1.8v2.4h2v-2.4h1.8V-58.2z"/>
			<path class="st1" d="M-670.9-58.2h-3.8v-6.5h3.8v1.4h-2.1v1h1.9v1.4h-1.9v1.2h2.1V-58.2z"/>
			<path class="st1" d="M-665.7-64.7v1.4h-2.6v5.1h-1.8v-6.5H-665.7z"/>
		</g>
	</g>
</g>
<g>
	<circle cx="-90.9" cy="-91.8" r="48.6"/>
	<g>
		<circle class="st2" cx="-71.6" cy="-73.2" r="6.3"/>
		<circle class="st2" cx="-105.6" cy="-73.2" r="6.3"/>
		<g>
			<path class="st2" d="M-104.1-99.3h-0.6v2.8h0.6c1.1,0,1.7-0.5,1.7-1.5C-102.4-98.9-103-99.3-104.1-99.3z"/>
			<path class="st2" d="M-67.6-104.7h-10.2v-9.5h-43.1v41h5.4c0-5.4,4.4-9.8,9.8-9.8c5.4,0,9.8,4.4,9.8,9.8h14.3
				c0-5.4,4.4-9.8,9.8-9.8c5.4,0,9.8,4.4,9.8,9.8h3.1v-16.4L-67.6-104.7z M-109.2-99.2h-4v2.3h3.6v2.6h-3.6v4.6h-3.2v-12.2h7.2
				V-99.2z M-101.3-89.6l-2.6-4.4h-0.8v4.4h-3.3v-12.2h4c3.3,0,5,1.2,5,3.6c0,1.4-0.7,2.5-2.1,3.3l3.5,5.3H-101.3z M-90.1-99.2h-3.9
				v1.9h3.6v2.6h-3.6v2.3h3.9v2.7h-7.2v-12.2h7.2V-99.2z M-81.6-99.2h-3.9v1.9h3.6v2.6h-3.6v2.3h3.9v2.7h-7.2v-12.2h7.2V-99.2z
				 M-75.2-89.5v-11.2h5.3l6.6,11.2H-75.2z"/>
		</g>
	</g>
</g>
<g>
	<circle cx="56.7" cy="-91.8" r="48.6"/>
	<g>
		<path class="st2" d="M32.3-71.6v-10.1c0-4.8,6.2-6.7,8.9-2.6l0,0c0,0,1.6,2.4,5.3,2.5c5.2,0.1,7.5-1.4,10.2-4.7l26.1,11.7
			c1.3,0.6,2.1,1.9,2.2,3.3l0,0H32.3z"/>
		<path class="st2" d="M80.4-65H32.3v-4.6h52.6l0,0C84.9-67.1,82.9-65,80.4-65z"/>
		<g>
			<path class="st2" d="M38.5-124.4v34.5c1.8,0.3,3.3,1.4,4.3,2.9c0.1,0.2,1.3,1.6,3.7,1.6c0.2,0,0.3,0,0.5,0c4.1,0,5.8-1.2,8.1-4
				v-35.1H38.5z M52-91.3H41.2v-6.4h2.3v3.5h2.1v-3.2h2.3v3.2h4V-91.3z M52-104.6l-3.9,2.3v0.7H52v2.9H41.2v-3.5
				c0-2.9,1.1-4.4,3.2-4.4c1.2,0,2.2,0.6,2.9,1.8l4.7-3.1V-104.6z M52-108.1H41.2v-6.4h2.3v3.5h1.7v-3.2h2.3v3.2h2v-3.5H52V-108.1z
				 M52-115.6H41.2v-6.4h2.3v3.5h1.7v-3.2h2.3v3.2h2v-3.5H52V-115.6z"/>
			<path class="st2" d="M44.5-103.6c-0.7,0-1.1,0.5-1.1,1.5v0.6h2.5v-0.5C45.9-103.1,45.4-103.6,44.5-103.6z"/>
		</g>
	</g>
</g>
<g>
	<circle cx="351.8" cy="-91.8" r="48.6"/>
	<polygon class="st2" points="354.3,-78.2 383.8,-108 374.3,-117.5 344.7,-87.7 329.9,-102.4 320.4,-92.9 335.3,-78.1 335.3,-78.1 
		344.8,-68.6 348.6,-72.5 354.3,-78.2 	"/>
</g>
<g>
	<circle cx="204.3" cy="-91.8" r="48.6"/>
	<g>
		<path class="st2" d="M230.7-109.7l-25.6-16.7v3.7v4.9c-15.1,0-27.3,12.2-27.3,27.3v1.8c2.1-8.1,9.5-14.1,18.2-14.1h9v9.8
			L230.7-109.7z"/>
		<path class="st2" d="M177.8-73.9l25.6,16.7v-3.7v-4.9c15.1,0,27.3-12.2,27.3-27.3v-1.8c-2.1,8.1-9.5,14.1-18.2,14.1h-9v-9.8
			L177.8-73.9z"/>
	</g>
</g>
<g>
	<circle cx="-828.7" cy="56.7" r="48.6"/>
	<path class="st2" d="M-808.8,30.3c-28.3-12.2-47.7,4-47.7,4c1,45.7,27.8,53.4,27.8,53.4s26.8-7.7,27.8-53.4
		C-800.9,34.3-803.7,32.3-808.8,30.3z M-826.7,64.5l-3.5,3.5l-2.4,2.4l-5.9-5.9l0,0l-9.2-9.2l5.9-5.9l9.2,9.2l18.3-18.5l5.9,5.9
		L-826.7,64.5L-826.7,64.5z"/>
</g>
<g>
	<circle cx="-681.1" cy="56.7" r="48.6"/>
	<path class="st2" d="M-654.9,49.4c0-8.1-6.5-14.6-14.6-14.6c-4.8,0-9,2.3-11.6,5.8c-2.7-3.5-6.9-5.8-11.7-5.8
		c-8.1,0-14.6,6.5-14.6,14.6c0,2,0.4,3.9,1.2,5.7l0,0c0,0,1.8,8.1,25.1,27.7c0,0,0,0,0,0c0,0,0,0,0,0c23.2-19.6,25.1-27.7,25.1-27.7
		l0,0C-655.3,53.4-654.9,51.5-654.9,49.4z"/>
</g>
<g>
	<circle cx="-976.2" cy="56.7" r="48.6"/>
	<g>
		<path class="st2" d="M-938.3,50.2c0-1.9-1.5-3.4-3.4-3.4h-6.9h-3.7h-1.9l1.2-6.6c0.6-3.2,0.1-6.4-1.2-9.4v0c-0.5-1.2-1.8-2-3.1-2
			l0,0c-1.9,0-3.4,1.5-3.4,3.4v5.4l-6.4,11.5h-4.2v20l1.9,0l6.9,4.5h4.8h9h1.6c1.9,0,3.4-1.5,3.4-3.4v0c0-1.9-1.5-3.4-3.4-3.4h2.1
			c1.9,0,3.4-1.5,3.4-3.4c0-1.9-1.5-3.4-3.4-3.4h1.8c1.9,0,3.4-1.5,3.4-3.4v0c0-1.9-1.5-3.4-3.4-3.4h1.5
			C-939.8,53.6-938.3,52.1-938.3,50.2z"/>
		<g>
			<path class="st2" d="M-993.7,62.2h-2.5V63h2.5c0.3,0,0.5-0.2,0.5-0.4C-993.2,62.3-993.4,62.2-993.7,62.2z"/>
			<path class="st2" d="M-993.4,59.3c0-0.2-0.2-0.4-0.4-0.4h-2.3v0.8h2.3C-993.6,59.6-993.4,59.5-993.4,59.3z"/>
			<path class="st2" d="M-1014.1,49.1v20.1h38.9V49.1H-1014.1z M-1003.6,65.5h-3.8v-7.8l-2.2,2.1l-2.2-2.3l4.9-4.8h3.3V65.5z
				 M-992.8,65.5h-6.8v-9.2h6.6c2.1,0,3,1.3,3,2.4s-0.7,1.8-1.6,2.1c1.1,0.2,1.8,1.1,1.8,2.2C-989.8,64.3-990.7,65.5-992.8,65.5z
				 M-978.6,65.5h-3.8v-7.8l-2.2,2.1l-2.2-2.3l4.9-4.8h3.3V65.5z"/>
		</g>
	</g>
</g>
<g>
	<circle cx="351.8" cy="56.7" r="48.6"/>
	<path class="st2" d="M384.4,56.7c0,18-14.6,32.6-32.6,32.6s-32.6-14.6-32.6-32.6s14.6-32.6,32.6-32.6c6.5,0,12.7,1.9,18,5.4
		l-3.6,4.3l16.1,2.7l-5.7-15.3l-3.2,3.9c-6.4-4.4-13.8-6.7-21.6-6.7c-21.1,0-38.3,17.2-38.3,38.3S330.7,95,351.8,95
		c21.1,0,38.3-17.2,38.3-38.3H384.4z"/>
	<g>
		<g>
			<path class="st1" d="M338.8,72.9c0,0.8,0.5,1,1.1,1c0.4,0,0.8-0.1,1.1-0.2v-3.2h2.3v7.7H341v-2.5c-0.6,0.1-1,0.2-1.5,0.2
				c-2.1,0-3.1-1.2-3.1-3v-2.5h2.4V72.9z"/>
			<path class="st1" d="M349.6,78.2l-0.3-0.9h-2.8l-0.3,0.9h-2.7l2.9-7.7h2.9l2.9,7.7H349.6z M347.9,72.8l-0.8,2.5h1.5L347.9,72.8z"
				/>
			<path class="st1" d="M351.8,74.4c0-2.4,1.8-4,4.3-4c2,0,3.1,1.2,3.5,2.3l-2,0.9c-0.2-0.6-0.8-1.1-1.5-1.1c-1.1,0-1.9,0.9-1.9,1.9
				c0,1.1,0.8,1.9,1.9,1.9c0.7,0,1.3-0.5,1.5-1.1l2,0.9c-0.5,1-1.5,2.3-3.5,2.3C353.6,78.4,351.8,76.7,351.8,74.4z"/>
			<path class="st1" d="M365.3,78.2l-0.3-0.9h-2.8l-0.3,0.9h-2.7l2.9-7.7h2.9l2.9,7.7H365.3z M363.6,72.8l-0.8,2.5h1.5L363.6,72.8z"
				/>
		</g>
		<g>
			<path class="st2" d="M329.8,66.2v-6c11.6-8.2,12.7-9.1,12.7-11c0-1.2-1.3-2-2.9-2c-2.7,0-4.8,1-6.7,2.6l-4.2-5.1
				c2.9-3.1,7.2-4.3,10.7-4.3c6.6,0,10.9,3.7,10.9,8.7c0,3.5-2,6.3-8,10.3h8.3v6.7H329.8z"/>
			<path class="st2" d="M364.1,66.2v-4.1h-12.2v-5.9l9.2-15.4h10.7v14.6h2.9v6.7h-2.9v4.1H364.1z M364.1,47.5l-4.8,8h4.8V47.5z"/>
		</g>
	</g>
</g>
<g>
	<circle cx="-533.5" cy="56.7" r="48.6"/>
	<circle class="st1" cx="-537.7" cy="34.7" r="3.3"/>
	<circle class="st1" cx="-529.3" cy="66.1" r="3.3"/>
	<circle class="st1" cx="-514.8" cy="72.8" r="4.4"/>
	<circle class="st1" cx="-537.7" cy="50.4" r="4.4"/>
	
		<rect x="-518.3" y="42.6" transform="matrix(0.5386 0.8426 -0.8426 0.5386 -195.4594 457.8091)" class="st1" width="5.2" height="15.7"/>
	
		<rect x="-545.2" y="64.2" transform="matrix(0.5939 -0.8045 0.8045 0.5939 -278.3713 -407.3262)" class="st1" width="5.2" height="15.7"/>
	
		<rect x="-556.1" y="39.2" transform="matrix(-0.6038 -0.7971 0.7971 -0.6038 -925.2047 -365.6242)" class="st1" width="5.2" height="15.7"/>
	<path class="st2" d="M-533.5,18.4c-21.1,0-38.3,17.2-38.3,38.3S-554.6,95-533.5,95s38.3-17.2,38.3-38.3S-512.4,18.4-533.5,18.4z
		 M-566.1,56.7c0-18,14.6-32.6,32.6-32.6c5.3,0,10.2,1.3,14.7,3.5l-36.5,53.3C-562,74.9-566.1,66.3-566.1,56.7z M-533.5,89.3
		c-6.4,0-12.3-1.8-17.3-5l36.8-53.7c7.9,5.9,13.1,15.4,13.1,26.1C-501,74.7-515.6,89.3-533.5,89.3z"/>
</g>
<g>
	<g>
		<circle cx="-238.4" cy="56.7" r="48.6"/>
	</g>
	<g>
		<path class="st1" d="M-235.4,59.9c10.9-10.7,4.8-23.1,0.1-28.2l-6.3,5.8c1.3,1.4,7.5,9,0.1,16.3c-10.9,10.8-4.8,22.9-0.1,27.8
			l6.1-5.9C-236.2,74.9-243,67.4-235.4,59.9z"/>
		<path class="st1" d="M-222.3,65.2c7.8-7.7,3.5-16.6,0.1-20.2l-4.5,4.2c0.9,1,5.4,6.5,0.1,11.7c-7.8,7.7-3.5,16.5-0.1,20l4.4-4.3
			C-222.9,76-227.8,70.6-222.3,65.2z"/>
		<path class="st1" d="M-250.2,55.2c7.8-7.7,3.5-16.6,0.1-20.2l-4.5,4.2c0.9,1,5.4,6.5,0.1,11.7c-7.8,7.7-3.5,16.5-0.1,20l4.4-4.2
			C-251.1,65.6-255.5,60.3-250.2,55.2z"/>
	</g>
	<path class="st2" d="M-238.4,18.4c-21.1,0-38.3,17.2-38.3,38.3S-259.5,95-238.4,95s38.3-17.2,38.3-38.3S-217.3,18.4-238.4,18.4z
		 M-271,56.7c0-18,14.6-32.6,32.6-32.6c5.3,0,10.2,1.3,14.7,3.5l-36.5,53.3C-266.9,74.9-271,66.3-271,56.7z M-238.4,89.3
		c-6.4,0-12.3-1.8-17.3-5l36.8-53.7c7.9,5.9,13.1,15.4,13.1,26.1C-205.8,74.7-220.5,89.3-238.4,89.3z"/>
</g>
<g>
	<circle cx="-386" cy="56.7" r="48.6"/>
	<path class="st2" d="M-370.2,45.5L-386,29.8l-15.8,15.8c-8.7,8.7-8.7,22.8,0,31.5s22.8,8.7,31.5,0S-361.5,54.3-370.2,45.5z"/>
</g>
<g>
	<circle cx="-90.9" cy="56.7" r="48.6"/>
	<g>
		<path class="st2" d="M-61.9,49.4c0-2.4-2-4.4-4.4-4.4h-9.1h-4.9h-2.5l1.5-8.8c0.7-4.2,0.2-8.5-1.5-12.3l0,0
			c-0.7-1.6-2.3-2.7-4.1-2.7h0c-2.5,0-4.5,2-4.5,4.5v7.2L-99.8,48h-5.6v26.4l2.5,0l9.1,5.9h6.4h11.9h2c2.4,0,4.4-2,4.4-4.4v0
			c0-2.4-2-4.4-4.4-4.4h2.7c2.4,0,4.4-2,4.4-4.4c0-2.4-2-4.4-4.4-4.4h2.4c2.4,0,4.4-2,4.4-4.4v0c0-2.4-2-4.4-4.4-4.4h2
			C-63.9,53.8-61.9,51.8-61.9,49.4z"/>
		<rect x="-119.8" y="47.9" class="st2" width="9.2" height="26.5"/>
	</g>
</g>
<g>
	<circle cx="204.3" cy="56.7" r="48.6"/>
	<g>
		<path class="st1" d="M204.3,28.5c-15.6,0-28.2,12.7-28.2,28.2s12.7,28.2,28.2,28.2s28.2-12.7,28.2-28.2S219.8,28.5,204.3,28.5z
			 M204.3,82.3c-14.1,0-25.6-11.5-25.6-25.6s11.5-25.6,25.6-25.6s25.6,11.5,25.6,25.6S218.4,82.3,204.3,82.3z"/>
		<path class="st1" d="M202.1,39.8c-0.3,0-0.8,0-1.2,0c-0.5,0-1,0.1-1.6,0.2c-0.6,0.1-1.2,0.2-1.9,0.5c-0.6,0.3-1.3,0.5-2,0.8
			c-0.7,0.4-1.3,0.8-2,1.2c-0.6,0.5-1.3,1-1.8,1.6c-0.5,0.6-1.1,1.2-1.5,1.9c-0.5,0.7-0.8,1.4-1.2,2.1c-0.3,0.7-0.6,1.4-0.8,2.1
			c-0.2,0.7-0.3,1.3-0.4,1.9c-0.1,0.6-0.1,1.1-0.1,1.6c0,0.5,0,0.9,0.1,1.2c0.1,0.7,0.2,1.1,0.2,1.1s0.1-0.4,0.3-1
			c0.2-0.6,0.5-1.5,1-2.5c0.2-0.5,0.5-1,0.8-1.6c0.3-0.5,0.6-1.1,1-1.7c0.4-0.6,0.7-1.1,1.2-1.7c0.4-0.6,0.9-1.1,1.4-1.6
			c0.5-0.5,1-0.9,1.5-1.4c0.6-0.4,1.1-0.8,1.6-1.2c0.6-0.4,1.1-0.7,1.6-1c0.5-0.3,1.1-0.6,1.6-0.9c0.5-0.3,0.9-0.5,1.4-0.7
			c0.4-0.2,0.8-0.4,1.1-0.5c0.6-0.3,1-0.5,1-0.5S202.8,39.8,202.1,39.8z"/>
	</g>
</g>
<g>
	<circle cx="56.7" cy="56.7" r="48.6"/>
	<g>
		<path class="st2" d="M25.5,75.1h57c3,0,5.4-2.4,5.4-5.4H25.5V75.1z"/>
		<path class="st2" d="M85.3,63.4L55.1,49.9l-2.4,2.4l0,0l-2.1,2.1L47.1,58l-2.4,2.4l-2.1,2.1l-2.1-2.1l-6-6l-0.8-0.8l-3.9-3.9
			c-2.3,0.6-4.3,2.6-4.3,5.5v12h62.4C87.8,65.6,86.8,64.1,85.3,63.4z"/>
		<polygon class="st2" points="36.6,52.4 42.6,58.4 45,56 46.1,54.9 48.6,52.3 48.6,52.3 67.3,33.4 61.3,27.4 42.6,46.3 33.1,37 
			27.1,43 36.6,52.4 		"/>
	</g>
</g>
</svg>
