<?xml version="1.0" encoding="utf-8"?>
<!-- Generator: Adobe Illustrator 22.0.0, SVG Export Plug-In . SVG Version: 6.00 Build 0)  -->
<svg version="1.1" id="Layer_1" xmlns="http://www.w3.org/2000/svg" xmlns:xlink="http://www.w3.org/1999/xlink" x="0px" y="0px"
	 viewBox="0 0 113.4 113.4" style="enable-background:new 0 0 113.4 113.4;" xml:space="preserve">
<style type="text/css">
	.st0{fill:#ED1C24;}
	.st1{fill:#FFFFFF;}
	.st2{fill:#FFDD00;}
</style>
<g>
	<circle class="st0" cx="351.8" cy="-91.8" r="48.6"/>
	<g>
		<path class="st1" d="M321.8-105.5c0-7.3,5.3-13.1,13.8-13.1c8.5,0,13.9,5.8,13.9,13.1c0,7.2-5.4,12.9-13.9,12.9
			C327.1-92.6,321.8-98.3,321.8-105.5z M330.4-66.3l32.9-51.5h7.6l-33,51.5H330.4z M340.1-105.5c0-3.5-2-4.9-4.5-4.9
			c-2.4,0-4.3,1.4-4.3,4.9c0,3.3,1.9,4.7,4.3,4.7C338-100.8,340.1-102.2,340.1-105.5z M351.7-78.2c0-7.3,5.3-13.1,13.8-13.1
			s13.8,5.8,13.8,13.1c0,7.2-5.4,12.9-13.8,12.9S351.7-71.1,351.7-78.2z M370-78.2c0-3.5-2-4.9-4.5-4.9s-4.4,1.4-4.4,4.9
			c0,3.4,1.9,4.7,4.4,4.7S370-74.8,370-78.2z"/>
	</g>
</g>
<g>
	<circle cx="499.4" cy="-91.8" r="48.6"/>
	<g>
		<path class="st2" d="M478.6-78.4l-4.7-7.8l-4.7,7.8h-9.1l8.6-13.1l-8-12.5h9.1l4.1,7.3l4.1-7.3h9.2l-8,12.4l8.6,13.2H478.6z"/>
		<path class="st2" d="M488.7-78.4v-25.6h7.8v13.7l8.9-13.7h8v25.6h-7.8V-93l-9.5,14.5H488.7z"/>
		<path class="st2" d="M522.7-78.4v-18.9h-6.9v-6.8h21.5v6.8h-6.8v18.9H522.7z"/>
	</g>
</g>
<g>
	<circle class="st2" cx="646.9" cy="-91.8" r="48.6"/>
	<g>
		<path d="M622.4-78.4l-9.5-13v13h-7.8v-25.6h8l8.9,12.1v-12.1h7.8v25.6H622.4z"/>
		<path d="M633.6-78.4v-25.6h19.4v6.8h-11.7v2.5h11.4v6.8h-11.4v2.8h11.7v6.8H633.6z"/>
		<path d="M675.7-78.4L672.4-93l-3.3,14.5H661l-7.3-25.6h8.7l3.3,15.7l3.9-15.7h5.8l3.9,15.7l3.3-15.7h8.7l-7.3,25.6H675.7z"/>
	</g>
</g>
<g>
	<path d="M-34.6-110.5c0-4.1-2.7-7.3-6.5-8.2l6.4-10.1h-11.4l-1.6,2.5c-1.6-1.8-3.9-2.8-6.7-2.8c-1.2,0-2.3,0.2-3.3,0.6
		c-8.5-7.4-19.7-12-31.9-12c-12,0-23,4.4-31.5,11.6h-10.1l-15.9,15.6l10.2,10.6c-0.8,3.5-1.2,7.1-1.2,10.8
		c0,26.8,21.8,48.6,48.6,48.6C-62.8-43.2-41-65-41-91.8c0-3.5-0.4-7-1.1-10.3C-37.8-102.7-34.6-106.1-34.6-110.5z"/>
	<g>
		<polygon class="st2" points="-142,-113.1 -136.6,-107.4 -131.1,-112.8 -131.1,-93.1 -121.4,-93.1 -121.4,-125.1 -129.8,-125.1 		
			"/>
		<path class="st2" d="M-103.8-125.6c-9.6,0-14.2,7.8-14.2,16.5s4.7,16.6,14.2,16.6c9.6,0,14.2-7.9,14.2-16.6
			S-94.2-125.6-103.8-125.6z M-103.8-101.1c-3.1,0-4.5-2.6-4.5-8c0-5.4,1.4-8,4.5-8c3.1,0,4.5,2.5,4.5,8
			C-99.3-103.7-100.7-101.1-103.8-101.1z"/>
		<path class="st2" d="M-73.6-125.6c-9.6,0-14.2,7.8-14.2,16.5s4.7,16.6,14.2,16.6c9.6,0,14.2-7.9,14.2-16.6S-64-125.6-73.6-125.6z
			 M-73.6-101.1c-3.1,0-4.5-2.6-4.5-8c0-5.4,1.4-8,4.5-8c3.1,0,4.5,2.5,4.5,8C-69.1-103.7-70.5-101.1-73.6-101.1z"/>
		<path class="st2" d="M-49.2-120.6c0-2.7-2-4.8-5.1-4.8c-3.1,0-5.1,2.1-5.1,4.8c0,2.7,2,4.8,5.1,4.8
			C-51.3-115.8-49.2-117.9-49.2-120.6z M-56-120.6c0-1.3,0.7-1.8,1.6-1.8c0.9,0,1.7,0.5,1.7,1.8c0,1.2-0.7,1.7-1.7,1.7
			C-55.3-118.8-56-119.3-56-120.6z"/>
		<polygon class="st2" points="-44.1,-125.1 -56.3,-106 -53.5,-106 -41.3,-125.1 		"/>
		<path class="st2" d="M-43.3-115.3c-3.1,0-5.1,2.1-5.1,4.8c0,2.7,2,4.8,5.1,4.8c3.1,0,5.1-2.1,5.1-4.8
			C-38.2-113.2-40.2-115.3-43.3-115.3z M-43.3-108.7c-0.9,0-1.6-0.5-1.6-1.7c0-1.3,0.7-1.8,1.6-1.8c0.9,0,1.7,0.5,1.7,1.8
			C-41.7-109.2-42.4-108.7-43.3-108.7z"/>
	</g>
	<g>
		<g>
			<path class="st1" d="M-108.8-86.5v1.4h-2.6v5.1h-1.8v-6.5H-108.8z"/>
			<path class="st1" d="M-104.1-80l-0.3-1.2h-2.1l-0.3,1.2h-1.9l2.1-6.5h2.3l2.1,6.5H-104.1z M-104.8-82.6l-0.3-1.1
				c-0.1-0.2-0.1-0.5-0.2-0.9s-0.2-0.6-0.2-0.8c0,0.2-0.1,0.4-0.2,0.7s-0.3,1-0.5,2H-104.8z"/>
			<path class="st1" d="M-97.1-84.4c0,0.7-0.2,1.3-0.6,1.7c-0.4,0.4-1,0.6-1.8,0.6h-0.5v2.1h-1.7v-6.5h2.2c0.8,0,1.4,0.2,1.8,0.5
				C-97.3-85.6-97.1-85.1-97.1-84.4z M-100-83.6h0.3c0.3,0,0.5-0.1,0.6-0.2s0.2-0.4,0.2-0.6c0-0.4-0.2-0.7-0.7-0.7h-0.5V-83.6z"/>
			<path class="st1" d="M-92.3-80l-0.3-1.2h-2.1L-95-80H-97l2.1-6.5h2.3l2.1,6.5H-92.3z M-93-82.6l-0.3-1.1
				c-0.1-0.2-0.1-0.5-0.2-0.9s-0.2-0.6-0.2-0.8c0,0.2-0.1,0.4-0.2,0.7s-0.3,1-0.5,2H-93z"/>
			<path class="st1" d="M-84.4-80h-1.8v-2.6h-2v2.6h-1.8v-6.5h1.8v2.4h2v-2.4h1.8V-80z"/>
			<path class="st1" d="M-80.3-80h-1.7v-5h-1.6v-1.4h4.9v1.4h-1.6V-80z"/>
			<path class="st1" d="M-78.1-86.5h1.6v2.8c0,0.3,0,0.9-0.1,1.8h0l2.6-4.5h2.2v6.5h-1.5v-2.7c0-0.4,0-1,0.1-1.8h0l-2.6,4.5h-2.2
				V-86.5z"/>
			<path class="st1" d="M-68.2-82.3l-1.3,2.4h-2l1.8-2.8c-0.3-0.2-0.6-0.4-0.8-0.7c-0.2-0.3-0.3-0.6-0.3-1c0-1.3,0.9-1.9,2.6-1.9
				h2.1v6.5h-1.7v-2.4H-68.2z M-67.6-85.1H-68c-0.3,0-0.5,0.1-0.7,0.2c-0.2,0.1-0.2,0.3-0.2,0.5c0,0.3,0.1,0.5,0.2,0.6
				s0.4,0.2,0.7,0.2h0.3V-85.1z"/>
			<path class="st1" d="M-120.3-69.1h-1.8v-5h-1.8v5h-1.8v-6.5h5.3V-69.1z"/>
			<path class="st1" d="M-113.1-72.4c0,1.1-0.3,1.9-0.8,2.5c-0.5,0.6-1.3,0.8-2.3,0.8c-1,0-1.8-0.3-2.3-0.9
				c-0.5-0.6-0.8-1.4-0.8-2.5c0-1.1,0.3-1.9,0.8-2.5c0.5-0.6,1.3-0.9,2.3-0.9c1,0,1.8,0.3,2.3,0.8
				C-113.3-74.3-113.1-73.4-113.1-72.4z M-117.5-72.4c0,1.3,0.4,1.9,1.3,1.9c0.4,0,0.8-0.2,1-0.5s0.3-0.8,0.3-1.4
				c0-0.6-0.1-1.1-0.3-1.4c-0.2-0.3-0.5-0.5-1-0.5C-117.1-74.2-117.5-73.6-117.5-72.4z"/>
			<path class="st1" d="M-105.6-67.1h-1.7v-2h-3.8v2h-1.7v-3.4h0.5c0.4-0.7,0.7-1.4,1-2.3c0.3-0.9,0.4-1.8,0.5-2.8h4.3v5h0.9V-67.1z
				 M-108.3-70.5v-3.6h-1.2c-0.1,1.3-0.5,2.5-1,3.6H-108.3z"/>
			<path class="st1" d="M-99.5-69.1h-1.8v-5h-1.2c-0.1,0.7-0.2,1.5-0.3,2.2c-0.1,0.8-0.2,1.3-0.3,1.6c-0.1,0.3-0.2,0.6-0.4,0.7
				c-0.2,0.2-0.4,0.3-0.6,0.4c-0.2,0.1-0.5,0.1-0.8,0.1c-0.3,0-0.5,0-0.7-0.1v-1.3c0.2,0.1,0.3,0.1,0.4,0.1c0.2,0,0.3-0.1,0.4-0.2
				c0.1-0.1,0.2-0.3,0.2-0.7c0.1-0.3,0.2-0.9,0.3-1.7s0.2-1.7,0.3-2.6h4.5V-69.1z"/>
			<path class="st1" d="M-98.3-75.6h1.6v2.8c0,0.3,0,0.9-0.1,1.8h0l2.6-4.5h2.2v6.5h-1.5v-2.7c0-0.4,0-1,0.1-1.8h0l-2.6,4.5h-2.2
				V-75.6z"/>
			<path class="st1" d="M-85.3-69.1h-1.8v-2.6h-2v2.6h-1.8v-6.5h1.8v2.4h2v-2.4h1.8V-69.1z"/>
			<path class="st1" d="M-78.6-69.1h-1.8v-2.6h-2v2.6h-1.8v-6.5h1.8v2.4h2v-2.4h1.8V-69.1z"/>
			<path class="st1" d="M-71.4-72.4c0,1.1-0.3,1.9-0.8,2.5c-0.5,0.6-1.3,0.8-2.3,0.8c-1,0-1.8-0.3-2.3-0.9c-0.5-0.6-0.8-1.4-0.8-2.5
				c0-1.1,0.3-1.9,0.8-2.5c0.5-0.6,1.3-0.9,2.3-0.9c1,0,1.8,0.3,2.3,0.8C-71.7-74.3-71.4-73.4-71.4-72.4z M-75.8-72.4
				c0,1.3,0.4,1.9,1.3,1.9c0.4,0,0.8-0.2,1-0.5s0.3-0.8,0.3-1.4c0-0.6-0.1-1.1-0.3-1.4c-0.2-0.3-0.5-0.5-1-0.5
				C-75.4-74.2-75.8-73.6-75.8-72.4z"/>
			<path class="st1" d="M-67.6-74.2c-0.4,0-0.7,0.2-1,0.5c-0.2,0.3-0.3,0.8-0.3,1.4c0,1.2,0.5,1.9,1.4,1.9c0.3,0,0.6,0,0.8-0.1
				c0.3-0.1,0.5-0.2,0.8-0.3v1.5c-0.5,0.2-1.2,0.4-1.8,0.4c-1,0-1.7-0.3-2.2-0.8c-0.5-0.6-0.8-1.4-0.8-2.5c0-0.7,0.1-1.3,0.4-1.8
				s0.6-0.9,1.1-1.2c0.5-0.3,1-0.4,1.7-0.4c0.7,0,1.4,0.2,2,0.5l-0.5,1.4c-0.2-0.1-0.5-0.2-0.7-0.3C-67-74.2-67.3-74.2-67.6-74.2z"
				/>
			<path class="st1" d="M-61.9-69.1h-1.7v-5h-1.6v-1.4h4.9v1.4h-1.6V-69.1z"/>
			<path class="st1" d="M-59.7-75.6h1.6v2.8c0,0.3,0,0.9-0.1,1.8h0l2.6-4.5h2.2v6.5H-55v-2.7c0-0.4,0-1,0.1-1.8h0l-2.6,4.5h-2.2
				V-75.6z"/>
			<path class="st1" d="M-104.2-58.2h-1.7v-5h-1.6v-1.4h4.9v1.4h-1.6V-58.2z"/>
			<path class="st1" d="M-95.8-61.5c0,1.1-0.3,1.9-0.8,2.5c-0.5,0.6-1.3,0.8-2.3,0.8c-1,0-1.8-0.3-2.3-0.9c-0.5-0.6-0.8-1.4-0.8-2.5
				c0-1.1,0.3-1.9,0.8-2.5c0.5-0.6,1.3-0.9,2.3-0.9c1,0,1.8,0.3,2.3,0.8C-96.1-63.4-95.8-62.6-95.8-61.5z M-100.3-61.5
				c0,1.3,0.4,1.9,1.3,1.9c0.4,0,0.8-0.2,1-0.5s0.3-0.8,0.3-1.4c0-0.6-0.1-1.1-0.3-1.4c-0.2-0.3-0.5-0.5-1-0.5
				C-99.9-63.4-100.3-62.7-100.3-61.5z"/>
			<path class="st1" d="M-94.9-64.7h2.3c0.9,0,1.5,0.1,2,0.4c0.4,0.3,0.6,0.7,0.6,1.2c0,0.4-0.1,0.7-0.3,0.9
				c-0.2,0.3-0.4,0.4-0.7,0.5v0c0.4,0.1,0.7,0.3,0.9,0.5c0.2,0.2,0.3,0.6,0.3,1c0,0.6-0.2,1-0.7,1.4c-0.4,0.3-1,0.5-1.8,0.5h-2.5
				V-64.7z M-93.2-62.2h0.5c0.3,0,0.4-0.1,0.6-0.2c0.1-0.1,0.2-0.3,0.2-0.5c0-0.4-0.3-0.5-0.8-0.5h-0.5V-62.2z M-93.2-60.9v1.4h0.6
				c0.5,0,0.8-0.2,0.8-0.7c0-0.2-0.1-0.4-0.2-0.5c-0.1-0.1-0.4-0.2-0.6-0.2H-93.2z"/>
			<path class="st1" d="M-85.1-58.2l-0.3-1.2h-2.1l-0.3,1.2h-1.9l2.1-6.5h2.3l2.1,6.5H-85.1z M-85.7-60.9l-0.3-1.1
				c-0.1-0.2-0.1-0.5-0.2-0.9s-0.2-0.6-0.2-0.8c0,0.2-0.1,0.4-0.2,0.7s-0.3,1-0.5,2H-85.7z"/>
			<path class="st1" d="M-78-62.7c0,0.7-0.2,1.3-0.6,1.7c-0.4,0.4-1,0.6-1.8,0.6h-0.5v2.1h-1.7v-6.5h2.2c0.8,0,1.4,0.2,1.8,0.5
				C-78.2-63.8-78-63.3-78-62.7z M-80.9-61.8h0.3c0.3,0,0.5-0.1,0.6-0.2s0.2-0.4,0.2-0.6c0-0.4-0.2-0.7-0.7-0.7h-0.5V-61.8z"/>
			<path class="st1" d="M-73.2-58.2l-0.3-1.2h-2.1l-0.3,1.2h-1.9l2.1-6.5h2.3l2.1,6.5H-73.2z M-73.9-60.9l-0.3-1.1
				c-0.1-0.2-0.1-0.5-0.2-0.9s-0.2-0.6-0.2-0.8c0,0.2-0.1,0.4-0.2,0.7s-0.3,1-0.5,2H-73.9z"/>
		</g>
	</g>
</g>
<g>
	<path d="M113-110.5c0-4.1-2.7-7.3-6.5-8.2l6.4-10.1h-11.4l-1.6,2.5c-1.6-1.8-3.9-2.8-6.7-2.8c-1.2,0-2.3,0.2-3.3,0.6
		c-8.5-7.4-19.7-12-31.9-12c-12,0-23,4.4-31.5,11.6H16.3L0.4-113.2l10.2,10.6c-0.8,3.5-1.2,7.1-1.2,10.8c0,26.8,21.8,48.6,48.6,48.6
		s48.6-21.8,48.6-48.6c0-3.5-0.4-7-1.1-10.3C109.8-102.7,113-106.1,113-110.5z"/>
	<g>
		<polygon class="st2" points="5.5,-113.1 11,-107.4 16.4,-112.8 16.4,-93.1 26.1,-93.1 26.1,-125.1 17.8,-125.1 		"/>
		<path class="st2" d="M43.8-125.6c-9.6,0-14.2,7.8-14.2,16.5s4.7,16.6,14.2,16.6c9.6,0,14.2-7.9,14.2-16.6S53.4-125.6,43.8-125.6z
			 M43.8-101.1c-3.1,0-4.5-2.6-4.5-8c0-5.4,1.4-8,4.5-8c3.1,0,4.5,2.5,4.5,8C48.3-103.7,46.9-101.1,43.8-101.1z"/>
		<path class="st2" d="M74-125.6c-9.6,0-14.2,7.8-14.2,16.5S64.4-92.5,74-92.5c9.6,0,14.2-7.9,14.2-16.6S83.5-125.6,74-125.6z
			 M74-101.1c-3.1,0-4.5-2.6-4.5-8c0-5.4,1.4-8,4.5-8c3.1,0,4.5,2.5,4.5,8C78.4-103.7,77-101.1,74-101.1z"/>
		<path class="st2" d="M98.3-120.6c0-2.7-2-4.8-5.1-4.8c-3.1,0-5.1,2.1-5.1,4.8c0,2.7,2,4.8,5.1,4.8
			C96.3-115.8,98.3-117.9,98.3-120.6z M91.6-120.6c0-1.3,0.7-1.8,1.6-1.8c0.9,0,1.7,0.5,1.7,1.8c0,1.2-0.7,1.7-1.7,1.7
			C92.3-118.8,91.6-119.3,91.6-120.6z"/>
		<path class="st2" d="M104.2-115.3c-3.1,0-5.1,2.1-5.1,4.8c0,2.7,2,4.8,5.1,4.8c3.1,0,5.1-2.1,5.1-4.8
			C109.3-113.2,107.3-115.3,104.2-115.3z M104.2-108.7c-0.9,0-1.6-0.5-1.6-1.7c0-1.3,0.7-1.8,1.6-1.8c0.9,0,1.7,0.5,1.7,1.8
			C105.9-109.2,105.1-108.7,104.2-108.7z"/>
		<polygon class="st2" points="103.4,-125.1 91.2,-106 94,-106 106.2,-125.1 		"/>
	</g>
	<g>
		<g>
			<path class="st1" d="M38.7-86.5v1.4h-2.6v5.1h-1.8v-6.5H38.7z"/>
			<path class="st1" d="M43.4-80l-0.3-1.2H41L40.7-80h-1.9l2.1-6.5h2.3l2.1,6.5H43.4z M42.7-82.6l-0.3-1.1c-0.1-0.2-0.1-0.5-0.2-0.9
				c-0.1-0.4-0.2-0.6-0.2-0.8c0,0.2-0.1,0.4-0.2,0.7s-0.3,1-0.5,2H42.7z"/>
			<path class="st1" d="M50.5-84.4c0,0.7-0.2,1.3-0.6,1.7c-0.4,0.4-1,0.6-1.8,0.6h-0.5v2.1h-1.7v-6.5H48c0.8,0,1.4,0.2,1.8,0.5
				C50.3-85.6,50.5-85.1,50.5-84.4z M47.5-83.6h0.3c0.3,0,0.5-0.1,0.6-0.2c0.2-0.1,0.2-0.4,0.2-0.6c0-0.4-0.2-0.7-0.7-0.7h-0.5
				V-83.6z"/>
			<path class="st1" d="M55.3-80l-0.3-1.2h-2.1L52.5-80h-1.9l2.1-6.5H55l2.1,6.5H55.3z M54.6-82.6l-0.3-1.1
				c-0.1-0.2-0.1-0.5-0.2-0.9s-0.2-0.6-0.2-0.8c0,0.2-0.1,0.4-0.2,0.7s-0.3,1-0.5,2H54.6z"/>
			<path class="st1" d="M63.2-80h-1.8v-2.6h-2v2.6h-1.8v-6.5h1.8v2.4h2v-2.4h1.8V-80z"/>
			<path class="st1" d="M67.2-80h-1.7v-5h-1.6v-1.4h4.9v1.4h-1.6V-80z"/>
			<path class="st1" d="M69.5-86.5H71v2.8c0,0.3,0,0.9-0.1,1.8h0l2.6-4.5h2.2v6.5h-1.5v-2.7c0-0.4,0-1,0.1-1.8h0L71.6-80h-2.2V-86.5
				z"/>
			<path class="st1" d="M79.4-82.3L78.1-80h-2l1.8-2.8c-0.3-0.2-0.6-0.4-0.8-0.7s-0.3-0.6-0.3-1c0-1.3,0.9-1.9,2.6-1.9h2.1v6.5h-1.7
				v-2.4H79.4z M79.9-85.1h-0.4c-0.3,0-0.5,0.1-0.7,0.2c-0.2,0.1-0.2,0.3-0.2,0.5c0,0.3,0.1,0.5,0.2,0.6c0.2,0.1,0.4,0.2,0.7,0.2
				h0.3V-85.1z"/>
			<path class="st1" d="M40.9-69.1h-2L37-72.4v3.3h-1.8v-6.5H37v3.1l1.8-3.1h1.9l-2,3.1L40.9-69.1z"/>
			<path class="st1" d="M45.3-69.1L45-70.3h-2.1l-0.3,1.2h-1.9l2.1-6.5H45l2.1,6.5H45.3z M44.6-71.8l-0.3-1.1
				c-0.1-0.2-0.1-0.5-0.2-0.9s-0.2-0.6-0.2-0.8c0,0.2-0.1,0.4-0.2,0.7s-0.3,1-0.5,2H44.6z"/>
			<path class="st1" d="M53.1-69.1h-1.8v-2.4c-0.7,0.3-1.4,0.4-2,0.4c-0.6,0-1.1-0.2-1.4-0.5s-0.5-0.7-0.5-1.3v-2.7h1.8v2.2
				c0,0.3,0.1,0.5,0.2,0.7s0.3,0.2,0.6,0.2c0.4,0,0.8-0.1,1.4-0.3v-2.7h1.8V-69.1z"/>
			<path class="st1" d="M58.1-69.1h-3.8v-6.5h3.8v1.4h-2.1v1H58v1.4h-1.9v1.2h2.1V-69.1z"/>
			<path class="st1" d="M61.9-74.2c-0.4,0-0.7,0.2-1,0.5c-0.2,0.3-0.3,0.8-0.3,1.4c0,1.2,0.5,1.9,1.4,1.9c0.3,0,0.6,0,0.8-0.1
				c0.3-0.1,0.5-0.2,0.8-0.3v1.5c-0.5,0.2-1.1,0.4-1.8,0.4c-1,0-1.7-0.3-2.2-0.8c-0.5-0.6-0.8-1.4-0.8-2.5c0-0.7,0.1-1.3,0.4-1.8
				c0.3-0.5,0.6-0.9,1.1-1.2c0.5-0.3,1-0.4,1.7-0.4c0.7,0,1.4,0.2,2,0.5l-0.5,1.4c-0.2-0.1-0.5-0.2-0.7-0.3
				C62.5-74.2,62.2-74.2,61.9-74.2z"/>
			<path class="st1" d="M67.6-69.1h-1.7v-5h-1.6v-1.4h4.9v1.4h-1.6V-69.1z"/>
			<path class="st1" d="M69.8-75.6h2.3c0.9,0,1.5,0.1,2,0.4c0.4,0.3,0.6,0.7,0.6,1.2c0,0.4-0.1,0.7-0.3,0.9
				c-0.2,0.3-0.4,0.4-0.7,0.5v0c0.4,0.1,0.7,0.3,0.9,0.5c0.2,0.2,0.3,0.6,0.3,1c0,0.6-0.2,1-0.7,1.4c-0.4,0.3-1,0.5-1.8,0.5h-2.5
				V-75.6z M71.6-73.1h0.5c0.3,0,0.4-0.1,0.6-0.2c0.1-0.1,0.2-0.3,0.2-0.5c0-0.4-0.3-0.5-0.8-0.5h-0.5V-73.1z M71.6-71.8v1.4h0.6
				c0.5,0,0.8-0.2,0.8-0.7c0-0.2-0.1-0.4-0.2-0.5c-0.1-0.1-0.4-0.2-0.6-0.2H71.6z"/>
			<path class="st1" d="M79.7-69.1l-0.3-1.2h-2.1l-0.3,1.2H75l2.1-6.5h2.3l2.1,6.5H79.7z M79-71.8l-0.3-1.1
				c-0.1-0.2-0.1-0.5-0.2-0.9s-0.2-0.6-0.2-0.8c0,0.2-0.1,0.4-0.2,0.7s-0.3,1-0.5,2H79z"/>
			<path class="st1" d="M43.4-58.2h-1.7v-5h-1.6v-1.4H45v1.4h-1.6V-58.2z"/>
			<path class="st1" d="M51.7-61.5c0,1.1-0.3,1.9-0.8,2.5c-0.5,0.6-1.3,0.8-2.3,0.8c-1,0-1.8-0.3-2.3-0.9c-0.5-0.6-0.8-1.4-0.8-2.5
				c0-1.1,0.3-1.9,0.8-2.5c0.5-0.6,1.3-0.9,2.3-0.9c1,0,1.8,0.3,2.3,0.8C51.5-63.4,51.7-62.6,51.7-61.5z M47.3-61.5
				c0,1.3,0.4,1.9,1.3,1.9c0.4,0,0.8-0.2,1-0.5s0.3-0.8,0.3-1.4c0-0.6-0.1-1.1-0.3-1.4c-0.2-0.3-0.5-0.5-1-0.5
				C47.7-63.4,47.3-62.7,47.3-61.5z"/>
			<path class="st1" d="M52.7-64.7h2.3c0.9,0,1.5,0.1,2,0.4c0.4,0.3,0.6,0.7,0.6,1.2c0,0.4-0.1,0.7-0.3,0.9
				c-0.2,0.3-0.4,0.4-0.7,0.5v0c0.4,0.1,0.7,0.3,0.9,0.5c0.2,0.2,0.3,0.6,0.3,1c0,0.6-0.2,1-0.7,1.4c-0.4,0.3-1,0.5-1.8,0.5h-2.5
				V-64.7z M54.4-62.2h0.5c0.3,0,0.4-0.1,0.6-0.2c0.1-0.1,0.2-0.3,0.2-0.5c0-0.4-0.3-0.5-0.8-0.5h-0.5V-62.2z M54.4-60.9v1.4H55
				c0.5,0,0.8-0.2,0.8-0.7c0-0.2-0.1-0.4-0.2-0.5c-0.1-0.1-0.4-0.2-0.6-0.2H54.4z"/>
			<path class="st1" d="M62.5-58.2l-0.3-1.2h-2.1l-0.3,1.2h-1.9l2.1-6.5h2.3l2.1,6.5H62.5z M61.8-60.9l-0.3-1.1
				c-0.1-0.2-0.1-0.5-0.2-0.9s-0.2-0.6-0.2-0.8c0,0.2-0.1,0.4-0.2,0.7s-0.3,1-0.5,2H61.8z"/>
			<path class="st1" d="M69.6-62.7c0,0.7-0.2,1.3-0.6,1.7c-0.4,0.4-1,0.6-1.8,0.6h-0.5v2.1h-1.7v-6.5h2.2c0.8,0,1.4,0.2,1.8,0.5
				C69.4-63.8,69.6-63.3,69.6-62.7z M66.6-61.8H67c0.3,0,0.5-0.1,0.6-0.2c0.2-0.1,0.2-0.4,0.2-0.6c0-0.4-0.2-0.7-0.7-0.7h-0.5V-61.8
				z"/>
			<path class="st1" d="M74.4-58.2L74-59.5h-2.1l-0.3,1.2h-1.9l2.1-6.5h2.3l2.1,6.5H74.4z M73.7-60.9l-0.3-1.1
				c-0.1-0.2-0.1-0.5-0.2-0.9S73-63.5,73-63.7c0,0.2-0.1,0.4-0.2,0.7s-0.3,1-0.5,2H73.7z"/>
		</g>
	</g>
</g>
<g>
	<path d="M260.5-110.5c0-4.1-2.7-7.3-6.5-8.2l6.4-10.1H249l-1.6,2.5c-1.6-1.8-3.9-2.8-6.7-2.8c-1.2,0-2.3,0.2-3.3,0.6
		c-8.5-7.4-19.7-12-31.9-12c-12,0-23,4.4-31.5,11.6h-10.1L148-113.2l10.2,10.6c-0.8,3.5-1.2,7.1-1.2,10.8
		c0,26.8,21.8,48.6,48.6,48.6c26.8,0,48.6-21.8,48.6-48.6c0-3.5-0.4-7-1.1-10.3C257.4-102.7,260.5-106.1,260.5-110.5z"/>
	<g>
		<g>
			<path class="st2" d="M164-93.1v-19.7l-5.4,5.4l-5.5-5.7l12.2-12h8.4v32H164z"/>
			<path class="st2" d="M177.1-109.1c0-8.7,4.7-16.5,14.2-16.5c9.6,0,14.2,7.8,14.2,16.5s-4.7,16.6-14.2,16.6
				C181.8-92.5,177.1-100.4,177.1-109.1z M195.8-109.1c0-5.4-1.4-8-4.5-8c-3.1,0-4.5,2.5-4.5,8c0,5.4,1.4,8,4.5,8
				C194.4-101.1,195.8-103.7,195.8-109.1z"/>
			<path class="st2" d="M207.3-109.1c0-8.7,4.7-16.5,14.2-16.5c9.6,0,14.2,7.8,14.2,16.5s-4.7,16.6-14.2,16.6
				C212-92.5,207.3-100.4,207.3-109.1z M226-109.1c0-5.4-1.4-8-4.5-8c-3.1,0-4.5,2.5-4.5,8c0,5.4,1.4,8,4.5,8
				C224.6-101.1,226-103.7,226-109.1z"/>
		</g>
		<path class="st2" d="M235.6-120.6c0-2.7,2-4.8,5.1-4.8c3.1,0,5.1,2.1,5.1,4.8c0,2.7-2,4.8-5.1,4.8
			C237.6-115.8,235.6-117.9,235.6-120.6z M238.8-106l12.2-19.1h2.8L241.6-106H238.8z M242.4-120.6c0-1.3-0.7-1.8-1.7-1.8
			c-0.9,0-1.6,0.5-1.6,1.8c0,1.2,0.7,1.7,1.6,1.7C241.6-118.8,242.4-119.3,242.4-120.6z M246.7-110.5c0-2.7,2-4.8,5.1-4.8
			c3.1,0,5.1,2.1,5.1,4.8c0,2.7-2,4.8-5.1,4.8C248.7-105.7,246.7-107.8,246.7-110.5z M253.4-110.5c0-1.3-0.7-1.8-1.7-1.8
			c-0.9,0-1.6,0.5-1.6,1.8c0,1.3,0.7,1.7,1.6,1.7C252.7-108.7,253.4-109.2,253.4-110.5z"/>
	</g>
	<g>
		<g>
			<path class="st1" d="M186.3-86.5v1.4h-2.6v5.1H182v-6.5H186.3z"/>
			<path class="st1" d="M191-80l-0.3-1.2h-2.1l-0.3,1.2h-1.9l2.1-6.5h2.3l2.1,6.5H191z M190.3-82.6l-0.3-1.1
				c-0.1-0.2-0.1-0.5-0.2-0.9s-0.2-0.6-0.2-0.8c0,0.2-0.1,0.4-0.2,0.7s-0.3,1-0.5,2H190.3z"/>
			<path class="st1" d="M198.1-84.4c0,0.7-0.2,1.3-0.6,1.7c-0.4,0.4-1,0.6-1.8,0.6h-0.5v2.1h-1.7v-6.5h2.2c0.8,0,1.4,0.2,1.8,0.5
				C197.8-85.6,198.1-85.1,198.1-84.4z M195.1-83.6h0.3c0.3,0,0.5-0.1,0.6-0.2c0.2-0.1,0.2-0.4,0.2-0.6c0-0.4-0.2-0.7-0.7-0.7h-0.5
				V-83.6z"/>
			<path class="st1" d="M202.8-80l-0.3-1.2h-2.1l-0.3,1.2h-1.9l2.1-6.5h2.3l2.1,6.5H202.8z M202.1-82.6l-0.3-1.1
				c-0.1-0.2-0.1-0.5-0.2-0.9s-0.2-0.6-0.2-0.8c0,0.2-0.1,0.4-0.2,0.7s-0.3,1-0.5,2H202.1z"/>
			<path class="st1" d="M210.8-80H209v-2.6h-2v2.6h-1.8v-6.5h1.8v2.4h2v-2.4h1.8V-80z"/>
			<path class="st1" d="M214.8-80H213v-5h-1.6v-1.4h4.9v1.4h-1.6V-80z"/>
			<path class="st1" d="M217-86.5h1.6v2.8c0,0.3,0,0.9-0.1,1.8h0l2.6-4.5h2.2v6.5h-1.5v-2.7c0-0.4,0-1,0.1-1.8h0l-2.6,4.5H217V-86.5
				z"/>
			<path class="st1" d="M227-82.3l-1.3,2.4h-2l1.8-2.8c-0.3-0.2-0.6-0.4-0.8-0.7s-0.3-0.6-0.3-1c0-1.3,0.9-1.9,2.6-1.9h2.1v6.5h-1.7
				v-2.4H227z M227.5-85.1h-0.4c-0.3,0-0.5,0.1-0.7,0.2c-0.2,0.1-0.2,0.3-0.2,0.5c0,0.3,0.1,0.5,0.2,0.6c0.2,0.1,0.4,0.2,0.7,0.2
				h0.3V-85.1z"/>
			<path class="st1" d="M182.3-75.6h2.3c0.9,0,1.5,0.1,2,0.4c0.4,0.3,0.6,0.7,0.6,1.2c0,0.4-0.1,0.7-0.3,0.9
				c-0.2,0.3-0.4,0.4-0.7,0.5v0c0.4,0.1,0.7,0.3,0.9,0.5c0.2,0.2,0.3,0.6,0.3,1c0,0.6-0.2,1-0.7,1.4c-0.4,0.3-1,0.5-1.8,0.5h-2.5
				V-75.6z M184-73.1h0.5c0.3,0,0.4-0.1,0.6-0.2c0.1-0.1,0.2-0.3,0.2-0.5c0-0.4-0.3-0.5-0.8-0.5H184V-73.1z M184-71.8v1.4h0.6
				c0.5,0,0.8-0.2,0.8-0.7c0-0.2-0.1-0.4-0.2-0.5c-0.1-0.1-0.4-0.2-0.6-0.2H184z"/>
			<path class="st1" d="M194.2-72.4c0,1.1-0.3,1.9-0.8,2.5c-0.5,0.6-1.3,0.8-2.3,0.8c-1,0-1.8-0.3-2.3-0.9c-0.5-0.6-0.8-1.4-0.8-2.5
				c0-1.1,0.3-1.9,0.8-2.5s1.3-0.9,2.3-0.9c1,0,1.8,0.3,2.3,0.8C193.9-74.3,194.2-73.4,194.2-72.4z M189.7-72.4
				c0,1.3,0.4,1.9,1.3,1.9c0.4,0,0.8-0.2,1-0.5s0.3-0.8,0.3-1.4c0-0.6-0.1-1.1-0.3-1.4c-0.2-0.3-0.5-0.5-1-0.5
				C190.2-74.2,189.7-73.6,189.7-72.4z"/>
			<path class="st1" d="M199.8-74.1c0,0.9-0.5,1.4-1.5,1.5v0c0.6,0,1,0.2,1.3,0.5c0.3,0.3,0.4,0.6,0.4,1.1c0,0.4-0.1,0.7-0.3,1
				s-0.5,0.5-0.9,0.7c-0.4,0.2-0.9,0.2-1.5,0.2c-1,0-1.9-0.1-2.5-0.3v-1.5c0.3,0.1,0.6,0.2,1,0.3s0.7,0.1,1.1,0.1
				c0.5,0,0.9-0.1,1.1-0.2c0.2-0.1,0.3-0.3,0.3-0.5c0-0.4-0.5-0.6-1.5-0.6H196v-1.4h0.7c0.3,0,0.6,0,0.8-0.1c0.2,0,0.3-0.1,0.4-0.2
				c0.1-0.1,0.1-0.2,0.1-0.3c0-0.3-0.3-0.5-0.9-0.5c-0.6,0-1.1,0.2-1.5,0.5l-0.7-1.2c0.4-0.2,0.8-0.4,1.2-0.5
				c0.4-0.1,0.9-0.2,1.4-0.2c0.7,0,1.3,0.1,1.7,0.4C199.6-74.9,199.8-74.5,199.8-74.1z"/>
			<path class="st1" d="M200.9-75.6h2.3c0.9,0,1.5,0.1,2,0.4c0.4,0.3,0.6,0.7,0.6,1.2c0,0.4-0.1,0.7-0.3,0.9
				c-0.2,0.3-0.4,0.4-0.7,0.5v0c0.4,0.1,0.7,0.3,0.9,0.5c0.2,0.2,0.3,0.6,0.3,1c0,0.6-0.2,1-0.7,1.4c-0.4,0.3-1,0.5-1.8,0.5h-2.5
				V-75.6z M202.7-73.1h0.5c0.3,0,0.4-0.1,0.6-0.2c0.1-0.1,0.2-0.3,0.2-0.5c0-0.4-0.3-0.5-0.8-0.5h-0.5V-73.1z M202.7-71.8v1.4h0.6
				c0.5,0,0.8-0.2,0.8-0.7c0-0.2-0.1-0.4-0.2-0.5c-0.1-0.1-0.4-0.2-0.6-0.2H202.7z"/>
			<path class="st1" d="M211.5-73.5c0,0.7-0.2,1.3-0.6,1.7c-0.4,0.4-1,0.6-1.8,0.6h-0.5v2.1h-1.7v-6.5h2.2c0.8,0,1.4,0.2,1.8,0.5
				C211.3-74.7,211.5-74.2,211.5-73.5z M208.6-72.7h0.3c0.3,0,0.5-0.1,0.6-0.2c0.2-0.1,0.2-0.4,0.2-0.6c0-0.4-0.2-0.7-0.7-0.7h-0.5
				V-72.7z"/>
			<path class="st1" d="M216.3-69.1l-0.3-1.2h-2.1l-0.3,1.2h-1.9l2.1-6.5h2.3l2.1,6.5H216.3z M215.6-71.8l-0.3-1.1
				c-0.1-0.2-0.1-0.5-0.2-0.9s-0.2-0.6-0.2-0.8c0,0.2-0.1,0.4-0.2,0.7s-0.3,1-0.5,2H215.6z"/>
			<path class="st1" d="M221.5-69.1h-1.7v-5h-1.6v-1.4h4.9v1.4h-1.6V-69.1z"/>
			<path class="st1" d="M227.8-69.1l-0.3-1.2h-2.1l-0.3,1.2h-1.9l2.1-6.5h2.3l2.1,6.5H227.8z M227.1-71.8l-0.3-1.1
				c-0.1-0.2-0.1-0.5-0.2-0.9s-0.2-0.6-0.2-0.8c0,0.2-0.1,0.4-0.2,0.7s-0.3,1-0.5,2H227.1z"/>
			<path class="st1" d="M198.5-56.2h-1.7v-2h-3.8v2h-1.7v-3.4h0.5c0.4-0.7,0.7-1.4,1-2.3s0.4-1.8,0.5-2.8h4.3v5h0.9V-56.2z
				 M195.9-59.7v-3.6h-1.2c-0.1,1.3-0.5,2.5-1,3.6H195.9z"/>
			<path class="st1" d="M203-58.2h-3.8v-6.5h3.8v1.4h-2.1v1h1.9v1.4h-1.9v1.2h2.1V-58.2z"/>
			<path class="st1" d="M209.5-58.2h-1.8v-2.6h-2v2.6h-1.8v-6.5h1.8v2.4h2v-2.4h1.8V-58.2z"/>
			<path class="st1" d="M214.5-58.2h-3.8v-6.5h3.8v1.4h-2.1v1h1.9v1.4h-1.9v1.2h2.1V-58.2z"/>
			<path class="st1" d="M219.7-64.7v1.4h-2.6v5.1h-1.8v-6.5H219.7z"/>
		</g>
	</g>
</g>
<g>
	<circle cx="794.5" cy="-91.8" r="48.6"/>
	<g>
		<circle class="st2" cx="813.7" cy="-73.2" r="6.3"/>
		<circle class="st2" cx="779.7" cy="-73.2" r="6.3"/>
		<g>
			<path class="st2" d="M781.3-99.3h-0.6v2.8h0.6c1.1,0,1.7-0.5,1.7-1.5C782.9-98.9,782.4-99.3,781.3-99.3z"/>
			<path class="st2" d="M817.8-104.7h-10.2v-9.5h-43.1v41h5.4c0-5.4,4.4-9.8,9.8-9.8c5.4,0,9.8,4.4,9.8,9.8h14.3
				c0-5.4,4.4-9.8,9.8-9.8c5.4,0,9.8,4.4,9.8,9.8h3.1v-16.4L817.8-104.7z M776.2-99.2h-4v2.3h3.6v2.6h-3.6v4.6H769v-12.2h7.2V-99.2z
				 M784-89.6l-2.6-4.4h-0.8v4.4h-3.3v-12.2h4c3.3,0,5,1.2,5,3.6c0,1.4-0.7,2.5-2.1,3.3l3.5,5.3H784z M795.2-99.2h-3.9v1.9h3.6v2.6
				h-3.6v2.3h3.9v2.7H788v-12.2h7.2V-99.2z M803.7-99.2h-3.9v1.9h3.6v2.6h-3.6v2.3h3.9v2.7h-7.2v-12.2h7.2V-99.2z M810.1-89.5v-11.2
				h5.3l6.6,11.2H810.1z"/>
		</g>
	</g>
</g>
<g>
	<circle cx="942" cy="-91.8" r="48.6"/>
	<g>
		<path class="st2" d="M917.6-71.6v-10.1c0-4.8,6.2-6.7,8.9-2.6v0c0,0,1.6,2.4,5.3,2.5c5.2,0.1,7.5-1.4,10.2-4.7l26.1,11.7
			c1.3,0.6,2.1,1.9,2.2,3.3l0,0H917.6z"/>
		<path class="st2" d="M965.7-65h-48.1v-4.6h52.6l0,0C970.3-67.1,968.2-65,965.7-65z"/>
		<g>
			<path class="st2" d="M923.8-124.4v34.5c1.8,0.3,3.3,1.4,4.3,2.9c0.1,0.2,1.3,1.6,3.7,1.6c0.2,0,0.3,0,0.5,0c4.1,0,5.8-1.2,8.1-4
				v-35.1H923.8z M937.3-91.3h-10.7v-6.4h2.3v3.5h2.1v-3.2h2.3v3.2h4V-91.3z M937.3-104.6l-3.9,2.3v0.7h3.9v2.9h-10.7v-3.5
				c0-2.9,1.1-4.4,3.2-4.4c1.2,0,2.2,0.6,2.9,1.8l4.7-3.1V-104.6z M937.3-108.1h-10.7v-6.4h2.3v3.5h1.7v-3.2h2.3v3.2h2v-3.5h2.4
				V-108.1z M937.3-115.6h-10.7v-6.4h2.3v3.5h1.7v-3.2h2.3v3.2h2v-3.5h2.4V-115.6z"/>
			<path class="st2" d="M929.9-103.6c-0.7,0-1.1,0.5-1.1,1.5v0.6h2.5v-0.5C931.2-103.1,930.8-103.6,929.9-103.6z"/>
		</g>
	</g>
</g>
<g>
	<circle cx="1237.2" cy="-91.8" r="48.6"/>
	<polygon class="st2" points="1239.6,-78.2 1269.1,-108 1259.6,-117.5 1230.1,-87.7 1215.2,-102.4 1205.7,-92.9 1220.6,-78.1 
		1220.6,-78.1 1230.1,-68.6 1233.9,-72.5 1239.6,-78.2 	"/>
</g>
<g>
	<circle cx="1089.6" cy="-91.8" r="48.6"/>
	<g>
		<path class="st2" d="M1116.1-109.7l-25.6-16.7v3.7v4.9c-15.1,0-27.3,12.2-27.3,27.3v1.8c2.1-8.1,9.5-14.1,18.2-14.1h9v9.8
			L1116.1-109.7z"/>
		<path class="st2" d="M1063.2-73.9l25.6,16.7v-3.7v-4.9c15.1,0,27.3-12.2,27.3-27.3v-1.8c-2.1,8.1-9.5,14.1-18.2,14.1h-9v-9.8
			L1063.2-73.9z"/>
	</g>
</g>
<g>
	<circle cx="56.7" cy="56.7" r="48.6"/>
	<path class="st2" d="M76.6,30.3c-28.3-12.2-47.7,4-47.7,4c1,45.7,27.8,53.4,27.8,53.4S83.5,80,84.5,34.3
		C84.5,34.3,81.7,32.3,76.6,30.3z M58.7,64.5l-3.5,3.5l-2.4,2.4l-5.9-5.9l0,0l-9.2-9.2l5.9-5.9l9.2,9.2l18.3-18.5l5.9,5.9L58.7,64.5
		L58.7,64.5z"/>
</g>
<g>
	<circle cx="204.3" cy="56.7" r="48.6"/>
	<path class="st2" d="M230.5,49.4c0-8.1-6.5-14.6-14.6-14.6c-4.8,0-9,2.3-11.6,5.8c-2.7-3.5-6.9-5.8-11.7-5.8
		c-8.1,0-14.6,6.5-14.6,14.6c0,2,0.4,3.9,1.2,5.7l0,0c0,0,1.8,8.1,25.1,27.7c0,0,0,0,0,0c0,0,0,0,0,0c23.2-19.6,25.1-27.7,25.1-27.7
		l0,0C230.1,53.4,230.5,51.5,230.5,49.4z"/>
</g>
<g>
	<circle cx="-90.9" cy="56.7" r="48.6"/>
	<g>
		<path class="st2" d="M-52.9,50.2c0-1.9-1.5-3.4-3.4-3.4h-6.9h-3.7h-1.9l1.2-6.6c0.6-3.2,0.1-6.4-1.2-9.4l0,0c-0.5-1.2-1.8-2-3.1-2
			h0c-1.9,0-3.4,1.5-3.4,3.4v5.4l-6.4,11.5h-4.2v20l1.9,0l6.9,4.5h4.8h9h1.6c1.9,0,3.4-1.5,3.4-3.4v0c0-1.9-1.5-3.4-3.4-3.4h2.1
			c1.9,0,3.4-1.5,3.4-3.4c0-1.9-1.5-3.4-3.4-3.4h1.8c1.9,0,3.4-1.5,3.4-3.4v0c0-1.9-1.5-3.4-3.4-3.4h1.5
			C-54.4,53.6-52.9,52.1-52.9,50.2z"/>
		<g>
			<path class="st2" d="M-108.3,62.2h-2.5V63h2.5c0.3,0,0.5-0.2,0.5-0.4C-107.8,62.3-108.1,62.2-108.3,62.2z"/>
			<path class="st2" d="M-108.1,59.3c0-0.2-0.2-0.4-0.4-0.4h-2.3v0.8h2.3C-108.2,59.6-108.1,59.5-108.1,59.3z"/>
			<path class="st2" d="M-128.8,49.1v20.1h38.9V49.1H-128.8z M-118.2,65.5h-3.8v-7.8l-2.2,2.1l-2.2-2.3l4.9-4.8h3.3V65.5z
				 M-107.4,65.5h-6.8v-9.2h6.6c2.1,0,3,1.3,3,2.4s-0.7,1.8-1.6,2.1c1.1,0.2,1.8,1.1,1.8,2.2C-104.4,64.3-105.4,65.5-107.4,65.5z
				 M-93.3,65.5h-3.8v-7.8l-2.2,2.1l-2.2-2.3l4.9-4.8h3.3V65.5z"/>
		</g>
	</g>
</g>
<g>
	<circle cx="1237.2" cy="56.7" r="48.6"/>
	<path class="st2" d="M1269.8,56.7c0,18-14.6,32.6-32.6,32.6s-32.6-14.6-32.6-32.6s14.6-32.6,32.6-32.6c6.5,0,12.7,1.9,18,5.4
		l-3.6,4.3l16.1,2.7l-5.7-15.3l-3.2,3.9c-6.4-4.4-13.8-6.7-21.6-6.7c-21.1,0-38.3,17.2-38.3,38.3s17.2,38.3,38.3,38.3
		c21.1,0,38.3-17.2,38.3-38.3H1269.8z"/>
	<g>
		<g>
			<path class="st1" d="M1224.1,72.9c0,0.8,0.5,1,1.1,1c0.4,0,0.8-0.1,1.1-0.2v-3.2h2.3v7.7h-2.3v-2.5c-0.6,0.1-1,0.2-1.5,0.2
				c-2.1,0-3.1-1.2-3.1-3v-2.5h2.4V72.9z"/>
			<path class="st1" d="M1235,78.2l-0.3-0.9h-2.8l-0.3,0.9h-2.7l2.9-7.7h2.9l2.9,7.7H1235z M1233.3,72.8l-0.8,2.5h1.5L1233.3,72.8z"
				/>
			<path class="st1" d="M1237.2,74.4c0-2.4,1.8-4,4.3-4c2,0,3.1,1.2,3.5,2.3l-2,0.9c-0.2-0.6-0.8-1.1-1.5-1.1
				c-1.1,0-1.9,0.9-1.9,1.9c0,1.1,0.8,1.9,1.9,1.9c0.7,0,1.3-0.5,1.5-1.1l2,0.9c-0.5,1-1.5,2.3-3.5,2.3
				C1239,78.4,1237.2,76.7,1237.2,74.4z"/>
			<path class="st1" d="M1250.6,78.2l-0.3-0.9h-2.8l-0.3,0.9h-2.7l2.9-7.7h2.9l2.9,7.7H1250.6z M1248.9,72.8l-0.8,2.5h1.5
				L1248.9,72.8z"/>
		</g>
		<g>
			<path class="st2" d="M1215.2,66.2v-6c11.6-8.2,12.7-9.1,12.7-11c0-1.2-1.3-2-2.9-2c-2.7,0-4.8,1-6.7,2.6l-4.2-5.1
				c2.9-3.1,7.2-4.3,10.7-4.3c6.6,0,10.9,3.7,10.9,8.7c0,3.5-2,6.3-8,10.3h8.3v6.7H1215.2z"/>
			<path class="st2" d="M1249.4,66.2v-4.1h-12.2v-5.9l9.2-15.4h10.7v14.6h2.9v6.7h-2.9v4.1H1249.4z M1249.4,47.5l-4.8,8h4.8V47.5z"
				/>
		</g>
	</g>
</g>
<g>
	<circle cx="351.8" cy="56.7" r="48.6"/>
	<circle class="st1" cx="347.7" cy="34.7" r="3.3"/>
	<circle class="st1" cx="356" cy="66.1" r="3.3"/>
	<circle class="st1" cx="370.6" cy="72.8" r="4.4"/>
	<circle class="st1" cx="347.7" cy="50.4" r="4.4"/>
	
		<rect x="367" y="42.6" transform="matrix(0.5386 0.8426 -0.8426 0.5386 213.0446 -288.1575)" class="st1" width="5.2" height="15.7"/>
	
		<rect x="340.1" y="64.2" transform="matrix(0.5939 -0.8045 0.8045 0.5939 81.183 304.9846)" class="st1" width="5.2" height="15.7"/>
	
		<rect x="329.3" y="39.2" transform="matrix(-0.6038 -0.7971 0.7971 -0.6038 494.7299 340.1209)" class="st1" width="5.2" height="15.7"/>
	<path class="st2" d="M351.8,18.4c-21.1,0-38.3,17.2-38.3,38.3S330.7,95,351.8,95s38.3-17.2,38.3-38.3S372.9,18.4,351.8,18.4z
		 M319.2,56.7c0-18,14.6-32.6,32.6-32.6c5.3,0,10.2,1.3,14.7,3.5L330,80.9C323.4,74.9,319.2,66.3,319.2,56.7z M351.8,89.3
		c-6.4,0-12.3-1.8-17.3-5l36.8-53.7c7.9,5.9,13.1,15.4,13.1,26.1C384.4,74.7,369.8,89.3,351.8,89.3z"/>
</g>
<g>
	<g>
		<circle cx="646.9" cy="56.7" r="48.6"/>
	</g>
	<g>
		<path class="st1" d="M649.9,59.9c10.9-10.7,4.8-23.1,0.1-28.2l-6.3,5.8c1.3,1.4,7.5,9,0.1,16.3c-10.9,10.8-4.8,22.9-0.1,27.8
			l6.1-5.9C649.2,74.9,642.4,67.4,649.9,59.9z"/>
		<path class="st1" d="M663,65.2c7.8-7.7,3.5-16.6,0.1-20.2l-4.5,4.2c0.9,1,5.4,6.5,0.1,11.7c-7.8,7.7-3.5,16.5-0.1,20l4.4-4.3
			C662.5,76,657.6,70.6,663,65.2z"/>
		<path class="st1" d="M635.1,55.2c7.8-7.7,3.5-16.6,0.1-20.2l-4.5,4.2c0.9,1,5.4,6.5,0.1,11.7c-7.8,7.7-3.5,16.5-0.1,20l4.4-4.2
			C634.3,65.6,629.9,60.3,635.1,55.2z"/>
	</g>
	<path class="st2" d="M646.9,18.4c-21.1,0-38.3,17.2-38.3,38.3S625.8,95,646.9,95s38.3-17.2,38.3-38.3S668,18.4,646.9,18.4z
		 M614.3,56.7c0-18,14.6-32.6,32.6-32.6c5.3,0,10.2,1.3,14.7,3.5l-36.5,53.3C618.5,74.9,614.3,66.3,614.3,56.7z M646.9,89.3
		c-6.4,0-12.3-1.8-17.3-5l36.8-53.7c7.9,5.9,13.1,15.4,13.1,26.1C679.5,74.7,664.9,89.3,646.9,89.3z"/>
</g>
<g>
	<circle cx="499.4" cy="56.7" r="48.6"/>
	<path class="st2" d="M515.1,45.5l-15.8-15.8l-15.8,15.8c-8.7,8.7-8.7,22.8,0,31.5s22.8,8.7,31.5,0
		C523.8,68.4,523.8,54.3,515.1,45.5z"/>
</g>
<g>
	<circle cx="794.5" cy="56.7" r="48.6"/>
	<g>
		<path class="st2" d="M823.5,49.4c0-2.4-2-4.4-4.4-4.4h-9.1h-4.9h-2.5l1.5-8.8c0.7-4.2,0.2-8.5-1.5-12.3v0
			c-0.7-1.6-2.3-2.7-4.1-2.7l0,0c-2.5,0-4.5,2-4.5,4.5v7.2L785.6,48H780v26.4l2.5,0l9.1,5.9h6.4h11.9h2c2.4,0,4.4-2,4.4-4.4v0
			c0-2.4-2-4.4-4.4-4.4h2.7c2.4,0,4.4-2,4.4-4.4c0-2.4-2-4.4-4.4-4.4h2.4c2.4,0,4.4-2,4.4-4.4v0c0-2.4-2-4.4-4.4-4.4h2
			C821.5,53.8,823.5,51.8,823.5,49.4z"/>
		<rect x="765.5" y="47.9" class="st2" width="9.2" height="26.5"/>
	</g>
</g>
<g>
	<circle cx="1089.6" cy="56.7" r="48.6"/>
	<g>
		<path class="st1" d="M1089.6,28.5c-15.6,0-28.2,12.7-28.2,28.2s12.7,28.2,28.2,28.2s28.2-12.7,28.2-28.2S1105.2,28.5,1089.6,28.5z
			 M1089.6,82.3c-14.1,0-25.6-11.5-25.6-25.6s11.5-25.6,25.6-25.6s25.6,11.5,25.6,25.6S1103.7,82.3,1089.6,82.3z"/>
		<path class="st1" d="M1087.5,39.8c-0.3,0-0.8,0-1.2,0c-0.5,0-1,0.1-1.6,0.2c-0.6,0.1-1.2,0.2-1.9,0.5c-0.6,0.3-1.3,0.5-2,0.8
			c-0.7,0.4-1.3,0.8-2,1.2c-0.6,0.5-1.3,1-1.8,1.6c-0.5,0.6-1.1,1.2-1.5,1.9c-0.5,0.7-0.8,1.4-1.2,2.1c-0.3,0.7-0.6,1.4-0.8,2.1
			c-0.2,0.7-0.3,1.3-0.4,1.9c-0.1,0.6-0.1,1.1-0.1,1.6c0,0.5,0,0.9,0.1,1.2c0.1,0.7,0.2,1.1,0.2,1.1s0.1-0.4,0.3-1
			c0.2-0.6,0.5-1.5,1-2.5c0.2-0.5,0.5-1,0.8-1.6c0.3-0.5,0.6-1.1,1-1.7c0.4-0.6,0.7-1.1,1.2-1.7c0.4-0.6,0.9-1.1,1.4-1.6
			c0.5-0.5,1-0.9,1.5-1.4c0.6-0.4,1.1-0.8,1.6-1.2c0.6-0.4,1.1-0.7,1.6-1c0.5-0.3,1.1-0.6,1.6-0.9c0.5-0.3,0.9-0.5,1.4-0.7
			c0.4-0.2,0.8-0.4,1.1-0.5c0.6-0.3,1-0.5,1-0.5S1088.1,39.8,1087.5,39.8z"/>
	</g>
</g>
<g>
	<circle cx="942" cy="56.7" r="48.6"/>
	<g>
		<path class="st2" d="M910.9,75.1h57c3,0,5.4-2.4,5.4-5.4h-62.4V75.1z"/>
		<path class="st2" d="M970.6,63.4l-30.2-13.5l-2.4,2.4l0,0l-2.1,2.1l-3.6,3.6l-2.4,2.4l-2.1,2.1l-2.1-2.1l-6-6l-0.8-0.8l-3.9-3.9
			c-2.3,0.6-4.3,2.6-4.3,5.5v12h62.4C973.2,65.6,972.2,64.1,970.6,63.4z"/>
		<polygon class="st2" points="921.9,52.4 927.9,58.4 930.3,56 931.5,54.9 934,52.3 934,52.3 952.7,33.4 946.7,27.4 927.9,46.3 
			918.5,37 912.5,43 921.9,52.4 		"/>
	</g>
</g>
</svg>
