<svg xmlns="http://www.w3.org/2000/svg" width="15" height="20" viewBox="0 0 15 20">
  <defs>
    <style>
      .cls-1 {
        fill: #666;
        fill-rule: evenodd;
      }
    </style>
  </defs>
  <path class="cls-1" d="M683.4,397.538a1.971,1.971,0,0,0-1.429-.631h-0.155V394.6a5.737,5.737,0,0,0-1.559-3.962,5.109,5.109,0,0,0-7.475-.048l-0.048.048a5.746,5.746,0,0,0-1.565,3.962v2.308h-0.148a1.984,1.984,0,0,0-1.435.631h0.006l-0.006,0a2.2,2.2,0,0,0-.589,1.508v7.811a2.208,2.208,0,0,0,.589,1.512,1.976,1.976,0,0,0,1.435.63h10.95a1.947,1.947,0,0,0,1.369-.571l0.06-.059a2.191,2.191,0,0,0,.6-1.512v-7.811a2.185,2.185,0,0,0-.6-1.511h0ZM672.845,394.6h0a3.951,3.951,0,0,1,1.071-2.715l0.036-.043a3.511,3.511,0,0,1,5.118.043,3.942,3.942,0,0,1,1.066,2.715v2.308h-7.291V394.6h0Zm9.475,12.261h0a0.387,0.387,0,0,1-.107.263l-0.024.023a0.323,0.323,0,0,1-.221.087h-10.95a0.347,0.347,0,0,1-.251-0.11,0.4,0.4,0,0,1-.1-0.263v-7.811a0.408,0.408,0,0,1,.1-0.267v0a0.359,0.359,0,0,1,.251-0.11h10.95a0.345,0.345,0,0,1,.245.11,0.376,0.376,0,0,1,.107.263v7.811h0Zm-5.827-6.814h0a1.961,1.961,0,0,0-1.429.627,2.2,2.2,0,0,0,0,3.007,1.946,1.946,0,0,0,.929.562v1.091a0.5,0.5,0,1,0,1,0v-1.091a1.946,1.946,0,0,0,.929-0.562,2.2,2.2,0,0,0,0-3.007,1.973,1.973,0,0,0-1.429-.627h0Zm0.714,2.888h0a1,1,0,0,1-.69.317l-0.024,0-0.024,0a1.009,1.009,0,0,1-.7-0.317,1.127,1.127,0,0,1,0-1.514,0.993,0.993,0,0,1,.72-0.314,0.98,0.98,0,0,1,.714.314,1.076,1.076,0,0,1,.3.758,1.059,1.059,0,0,1-.3.756h0Z" transform="translate(-669 -389)"/>
</svg>
